<svg width="62" height="31" viewBox="0 0 62 31" fill="none" xmlns="http://www.w3.org/2000/svg">
<rect width="62" height="31" fill="#2A3F90"/>
<path d="M53 11.8162H50.7176L49.3936 17.3904L49.2107 18.1586C49.0863 18.1951 48.9546 18.2317 48.8303 18.2537C48.5962 18.2975 48.3548 18.3268 48.0987 18.3268C47.8061 18.3268 47.5794 18.2829 47.4038 18.2024C47.2428 18.122 47.1112 18.0049 47.0453 17.844C46.9722 17.6904 46.9502 17.5075 46.9649 17.3027C46.9795 17.0905 47.0234 16.8637 47.0819 16.6296L47.7769 13.7328L48.2304 11.8088H45.9041L44.8507 16.2566C44.7264 16.7906 44.6532 17.3027 44.6313 17.7855C44.6093 18.2756 44.6898 18.6926 44.8507 19.073C45.0117 19.4461 45.3043 19.7314 45.6993 19.9508C46.0943 20.1703 46.6649 20.2727 47.3818 20.2727C47.8793 20.2727 48.3182 20.2288 48.6913 20.1483C48.7059 20.1483 48.7279 20.1337 48.7352 20.1337C48.6328 20.5946 48.4206 20.9676 48.0987 21.2603C47.7622 21.5529 47.2794 21.6992 46.6284 21.6992C46.3504 21.6992 46.0943 21.6845 45.8603 21.6553L45.4067 23.5426C45.7066 23.5792 46.0431 23.6012 46.4162 23.6012C47.1112 23.6012 47.711 23.5207 48.2377 23.3671C48.7571 23.2061 49.2034 22.972 49.5838 22.6502C49.9568 22.3283 50.2641 21.9186 50.5201 21.4431C50.7762 20.953 50.9737 20.3897 51.12 19.7167L52.6928 13.089L53 11.8162Z" fill="white"/>
<path d="M43.4389 16.5784C43.2999 17.1564 43.256 17.7489 43.3145 18.3268C43.373 18.9194 43.6071 19.8118 43.8266 20.2654H41.6247C41.3613 19.8118 41.3686 19.5924 41.3101 19.4534C41.0175 19.6875 40.7102 19.885 40.3591 20.0313C40.008 20.1776 39.6276 20.2654 39.1886 20.2654C38.6766 20.2654 38.2376 20.1703 37.8792 20.002C37.5207 19.8265 37.2208 19.5851 36.9867 19.2851C36.7526 18.9852 36.5917 18.6341 36.4893 18.2317C36.3869 17.8294 36.3357 17.3978 36.3357 16.9369C36.3357 16.2273 36.46 15.5689 36.7087 14.9398C36.9648 14.3107 37.3086 13.7694 37.7548 13.3085C38.1938 12.8476 39.2764 11.8162 41.0321 11.8162C41.8002 11.8162 42.8171 11.8162 44.5654 11.8162L43.4389 16.5784ZM41.8295 13.7401C40.7614 13.7401 40.5639 13.7401 40.125 13.9596C39.8104 14.1205 39.5544 14.3619 39.335 14.6399C39.1155 14.9179 38.9326 15.2397 38.8009 15.6128C38.6766 15.9859 38.6034 16.3663 38.6034 16.7613C38.6034 17.2515 38.6839 17.6392 38.8448 17.9318C39.0058 18.2244 39.3057 18.3634 39.7519 18.3634C39.986 18.3634 40.2055 18.3195 40.3884 18.2244C40.5712 18.1293 40.7834 17.983 40.9882 17.7635C41.0102 17.5075 41.0467 17.2441 41.0906 16.9662C41.1345 16.6882 41.193 16.4248 41.2443 16.1907L41.8295 13.7401Z" fill="white"/>
<path d="M35.7065 15.1665C35.7065 15.92 35.5821 16.6003 35.3334 17.2294C35.092 17.8585 34.7409 18.3852 34.302 18.8388C33.863 19.2923 33.3363 19.6362 32.7292 19.8922C32.1147 20.1482 31.4563 20.2726 30.7321 20.2726C30.3809 20.2726 30.0371 20.236 29.6787 20.1775L28.9837 22.972H26.7013L29.3568 11.8307C29.7372 11.8307 31.7782 11.8307 32.4073 11.8307C32.9852 11.8307 33.4826 11.9258 33.8923 12.094C34.3093 12.2696 34.6458 12.511 34.9238 12.8109C35.1871 13.1109 35.3846 13.4693 35.5163 13.879C35.648 14.274 35.7065 14.7056 35.7065 15.1665ZM30.1103 18.3267C30.2858 18.3706 30.5053 18.3852 30.7613 18.3852C31.1637 18.3852 31.5294 18.3121 31.866 18.1658C32.1878 18.0122 32.4804 17.8073 32.7145 17.5367C32.9486 17.2733 33.1169 16.9441 33.2559 16.571C33.3802 16.1979 33.4534 15.781 33.4534 15.3274C33.4534 14.8885 33.3583 14.5081 33.1608 14.2009C32.9633 13.8863 32.6267 13.7254 32.1439 13.7254C31.8074 13.7254 31.2368 13.7254 31.2368 13.7254L30.1103 18.3267Z" fill="white"/>
<path d="M25.3114 18.3269C25.0188 18.3269 24.792 18.283 24.6164 18.2025C24.4555 18.1221 24.3238 18.005 24.258 17.8441C24.1848 17.6905 24.1629 17.5076 24.1775 17.3028C24.1922 17.0906 24.2361 16.8638 24.2946 16.6297L24.9895 13.7329H27.5865L28.062 11.8089H25.4577L26.0576 9.37292L23.6216 9.75332L22.078 16.264C21.9537 16.798 21.8805 17.3101 21.8586 17.7929C21.8366 18.283 21.9171 18.7 22.078 19.0804C22.239 19.4535 22.5316 19.7388 22.9266 19.9582C23.3216 20.1777 23.8922 20.2801 24.6091 20.2801C25.1066 20.2801 25.5455 20.2362 25.9186 20.1557C25.9552 20.1411 26.0137 20.1338 26.0429 20.1192L26.5184 18.1367C26.3575 18.1952 26.1966 18.2318 26.0429 18.2537C25.8089 18.305 25.5674 18.3269 25.3114 18.3269Z" fill="white"/>
<path d="M19.503 11.8162L17.484 20.28H19.7664L21.7708 11.8162H19.503Z" fill="white"/>
<path d="M22.0195 10.8433L22.3707 9.37292H20.081L19.7298 10.8433H22.0195Z" fill="white"/>
<path d="M14.4482 11.8308C14.9383 11.8308 15.3626 11.9259 15.721 12.0941C16.0795 12.2697 16.3721 12.4965 16.6135 12.8037C16.8476 13.1036 17.0158 13.4548 17.1329 13.8498C17.2499 14.2448 17.3084 14.6691 17.3084 15.1373C17.3084 15.8469 17.1841 16.5053 16.9134 17.1417C16.6501 17.7708 16.2989 18.3268 15.8454 18.7876C15.3918 19.2485 14.8578 19.6216 14.2433 19.8923C13.6288 20.1556 12.9705 20.2946 12.2462 20.2946C12.1511 20.2946 11.9902 20.2946 11.7561 20.28C11.522 20.28 11.2587 20.258 10.966 20.2068C10.6661 20.1629 10.3516 20.1044 10.0297 20.0239C9.69318 19.9435 9.37862 19.8264 9.09332 19.6874L11.7634 8.53885L14.1409 8.16577L13.2045 12.1161C13.4167 12.021 13.5996 11.9551 13.8044 11.9039C14.0019 11.8527 14.2214 11.8308 14.4482 11.8308ZM12.4584 18.3853C12.8168 18.3853 13.1533 18.3048 13.4679 18.122C13.7825 17.9464 14.0604 17.7196 14.2872 17.427C14.5213 17.1344 14.7042 16.7979 14.8285 16.4394C14.9529 16.0663 15.0261 15.6859 15.0261 15.2909C15.0261 14.8008 14.9456 14.4204 14.7847 14.1424C14.6237 13.8644 14.2872 13.7401 13.8483 13.7401C13.7093 13.7401 13.5557 13.7547 13.3289 13.8132C13.0948 13.8571 12.8973 13.9742 12.7144 14.1351L11.7195 18.3414C12.0195 18.3853 12.3413 18.3853 12.4584 18.3853Z" fill="white"/>
</svg>
