<svg width="24" height="24" viewBox="0 0 24 24" fill="none" xmlns="http://www.w3.org/2000/svg">
<circle cx="12" cy="12" r="11.25" stroke="white" stroke-width="1.5"/>
<path d="M11 14.6534V14.5455C11.0076 13.8409 11.0777 13.2803 11.2102 12.8636C11.3466 12.447 11.5398 12.1098 11.7898 11.8523C12.0398 11.5947 12.3409 11.3598 12.6932 11.1477C12.9205 11.0038 13.125 10.8428 13.3068 10.6648C13.4886 10.4867 13.6326 10.2822 13.7386 10.0511C13.8447 9.82007 13.8977 9.56439 13.8977 9.28409C13.8977 8.94697 13.8182 8.6553 13.6591 8.40909C13.5 8.16288 13.2879 7.97348 13.0227 7.84091C12.7614 7.70454 12.4697 7.63636 12.1477 7.63636C11.8561 7.63636 11.5777 7.69697 11.3125 7.81818C11.0473 7.93939 10.8277 8.12879 10.6534 8.38636C10.4792 8.64015 10.3788 8.9678 10.3523 9.36932H8.625C8.65152 8.6875 8.82386 8.11174 9.14205 7.64204C9.46023 7.16856 9.88068 6.8106 10.4034 6.56818C10.9299 6.32576 11.5114 6.20454 12.1477 6.20454C12.8447 6.20454 13.4545 6.33523 13.9773 6.59659C14.5 6.85417 14.9053 7.21591 15.1932 7.68182C15.4848 8.14394 15.6307 8.68371 15.6307 9.30114C15.6307 9.72538 15.5644 10.108 15.4318 10.4489C15.2992 10.786 15.1098 11.0871 14.8636 11.3523C14.6212 11.6174 14.3295 11.8523 13.9886 12.0568C13.6667 12.2576 13.4053 12.4659 13.2045 12.6818C13.0076 12.8977 12.8636 13.1534 12.7727 13.4489C12.6818 13.7443 12.6326 14.1098 12.625 14.5455V14.6534H11ZM11.858 18.108C11.5473 18.108 11.2803 17.9981 11.0568 17.7784C10.8333 17.5549 10.7216 17.286 10.7216 16.9716C10.7216 16.661 10.8333 16.3958 11.0568 16.1761C11.2803 15.9527 11.5473 15.8409 11.858 15.8409C12.1648 15.8409 12.4299 15.9527 12.6534 16.1761C12.8807 16.3958 12.9943 16.661 12.9943 16.9716C12.9943 17.1799 12.9413 17.3712 12.8352 17.5455C12.733 17.7159 12.5966 17.8523 12.4261 17.9545C12.2557 18.0568 12.0663 18.108 11.858 18.108Z" fill="white"/>
</svg>
