<svg width="62" height="31" viewBox="0 0 62 31" fill="none" xmlns="http://www.w3.org/2000/svg">
<rect width="62" height="31" fill="white"/>
<path d="M41.4877 7.66809H36.8201C36.5015 7.66809 36.2299 7.9001 36.1801 8.21537L34.2926 20.1824C34.255 20.4185 34.4379 20.6314 34.6761 20.6314H37.0713C37.2937 20.6314 37.4841 20.469 37.5189 20.2479L38.0546 16.8558C38.1037 16.5398 38.376 16.3078 38.6947 16.3078H40.1713C43.2462 16.3078 45.0197 14.8202 45.4837 11.8723C45.6932 10.5826 45.4919 9.56922 44.888 8.85954C44.2254 8.08025 43.0497 7.66809 41.4877 7.66809ZM42.0261 12.0388C41.7715 13.7134 40.4921 13.7134 39.2542 13.7134H38.5507L39.0454 10.586C39.0747 10.397 39.2372 10.2577 39.4289 10.2577H39.7517C40.5937 10.2577 41.3894 10.2577 41.8002 10.7382C42.0452 11.0248 42.1196 11.4506 42.0261 12.0388Z" fill="#179BD7"/>
<path d="M55.4369 11.9851H53.2035C53.0117 11.9851 52.8486 12.1243 52.82 12.3133L52.721 12.9384L52.5641 12.7118C52.0802 12.0096 51.0021 11.7749 49.9253 11.7749C47.4557 11.7749 45.3471 13.6453 44.9363 16.2691C44.7234 17.5779 45.0257 18.8294 45.7682 19.7022C46.4506 20.5047 47.4236 20.839 48.583 20.839C50.5729 20.839 51.6763 19.5596 51.6763 19.5596L51.5766 20.1805C51.5391 20.418 51.722 20.6309 51.9615 20.6309H53.9739C54.2925 20.6309 54.5641 20.3989 54.6139 20.083L55.8225 12.4341C55.8593 12.1987 55.6764 11.9851 55.4369 11.9851ZM52.3218 16.3346C52.1075 17.6114 51.0928 18.4684 49.8004 18.4684C49.1528 18.4684 48.6328 18.2603 48.2998 17.8659C47.9695 17.4742 47.8454 16.9167 47.9491 16.2957C48.1517 15.0299 49.1808 14.1448 50.4534 14.1448C51.0881 14.1448 51.6039 14.3557 51.9438 14.7535C52.2856 15.1554 52.4208 15.7164 52.3218 16.3346Z" fill="#179BD7"/>
<path d="M58.0717 7.99651L56.1563 20.1826C56.1188 20.4187 56.3016 20.6316 56.5398 20.6316H58.4655C58.7855 20.6316 59.0571 20.3996 59.1062 20.0836L60.9951 8.1173C61.0326 7.88119 60.8497 7.6676 60.6116 7.6676H58.4552C58.2649 7.66828 58.1011 7.80749 58.0717 7.99651Z" fill="#179BD7"/>
<path d="M8.19998 7.66821H3.53314C3.21378 7.66821 2.94219 7.90022 2.89238 8.21549L1.0049 20.1825C0.967364 20.4186 1.15024 20.6315 1.38976 20.6315H3.61775C3.93711 20.6315 4.2087 20.3995 4.25852 20.0836L4.76758 16.8559C4.81671 16.5399 5.08898 16.3079 5.40766 16.3079H6.88502C9.95918 16.3079 11.7334 14.8203 12.1967 11.8724C12.4055 10.5827 12.2056 9.56934 11.6017 8.85966C10.9384 8.08037 9.76197 7.66821 8.19998 7.66821ZM8.73839 12.0389C8.48318 13.7135 7.2037 13.7135 5.96653 13.7135H5.26231L5.75636 10.5861C5.7857 10.3971 5.94947 10.2579 6.14054 10.2579H6.46331C7.30606 10.2579 8.10104 10.2579 8.51183 10.7383C8.75681 11.0249 8.83187 11.4507 8.73839 12.0389Z" fill="#253B80"/>
<path d="M22.1501 11.985H19.9153C19.7249 11.985 19.5605 12.1242 19.5311 12.3132L19.4322 12.9383L19.2759 12.7117C18.7921 12.0095 17.7133 11.7748 16.6365 11.7748C14.1669 11.7748 12.0576 13.6452 11.6468 16.269C11.4333 17.5778 11.7369 18.8293 12.4793 19.7021C13.1604 20.5046 14.1348 20.8389 15.2942 20.8389C17.284 20.8389 18.3875 19.5595 18.3875 19.5595L18.2878 20.1804C18.2503 20.4179 18.4332 20.6308 18.6713 20.6308H20.6844C21.0044 20.6308 21.2746 20.3988 21.3251 20.0828L22.533 12.434C22.5712 12.1985 22.389 11.985 22.1501 11.985ZM19.035 16.3345C18.8194 17.6112 17.8061 18.4683 16.5136 18.4683C15.8647 18.4683 15.3461 18.2602 15.0131 17.8658C14.6828 17.4741 14.5572 16.9166 14.6623 16.2956C14.8636 15.0298 15.894 14.1447 17.1667 14.1447C17.8013 14.1447 18.3172 14.3556 18.657 14.7534C18.9975 15.1553 19.1326 15.7162 19.035 16.3345Z" fill="#253B80"/>
<path d="M34.0524 11.9849H31.8066C31.5923 11.9849 31.391 12.0913 31.2696 12.2694L28.1722 16.8319L26.8593 12.4475C26.7767 12.1732 26.5236 11.9849 26.237 11.9849H24.0301C23.762 11.9849 23.5757 12.2469 23.661 12.4994L26.1346 19.7586L23.809 23.0416C23.6262 23.3002 23.8104 23.6557 24.1264 23.6557H26.3694C26.5823 23.6557 26.7815 23.552 26.9023 23.3773L34.3717 12.5956C34.5505 12.3377 34.3669 11.9849 34.0524 11.9849Z" fill="#253B80"/>
</svg>
