<svg width="24" height="24" viewBox="0 0 24 24" fill="none" xmlns="http://www.w3.org/2000/svg">
<path d="M22.2975 10.5094L22.304 10.5224L22.313 10.534L23.723 12.3509C23.723 12.3509 23.723 12.3509 23.723 12.351C23.8057 12.4576 23.8504 12.5876 23.8505 12.7221V17.639V17.6392C23.8506 17.7188 23.835 17.7977 23.8046 17.8714C23.7742 17.945 23.7296 18.0119 23.6733 18.0682C23.617 18.1246 23.5502 18.1693 23.4766 18.1998C23.403 18.2303 23.3241 18.246 23.2445 18.246H21.0495H20.9345L20.9046 18.357C20.7402 18.9683 20.379 19.5084 19.8768 19.8938C19.3746 20.2792 18.7595 20.4883 18.1265 20.489C17.4935 20.4883 16.8784 20.2792 16.3762 19.8938C15.874 19.5084 15.5128 18.9683 15.3484 18.357L15.3185 18.246H15.2035H10.7135H10.5985L10.5686 18.357C10.4042 18.9683 10.043 19.5084 9.54077 19.8938C9.03861 20.2792 8.42348 20.4883 7.7905 20.489C7.15753 20.4883 6.54239 20.2792 6.04023 19.8938C5.53802 19.5084 5.17677 18.9683 5.01235 18.357L4.98249 18.246H4.8675H2.8995C2.73865 18.246 2.58438 18.1821 2.47064 18.0684C2.3569 17.9546 2.293 17.8004 2.293 17.6395C2.293 17.4786 2.3569 17.3244 2.47064 17.2106C2.58438 17.0969 2.73865 17.033 2.8995 17.033H4.8545H4.97157L5.00001 16.9194C5.15585 16.2971 5.51503 15.7446 6.02058 15.3496C6.5261 14.9546 7.14903 14.7397 7.79056 14.739C8.43211 14.7395 9.05513 14.9541 9.56082 15.3489C10.0665 15.7437 10.4259 16.2962 10.582 16.9185L10.6105 17.032H10.7275H15.1915H15.3086L15.337 16.9184C15.4928 16.2961 15.852 15.7436 16.3576 15.3486C16.8631 14.9536 17.486 14.7387 18.1275 14.738C18.7689 14.7387 19.3917 14.9534 19.8972 15.3482C20.4027 15.743 20.762 16.2953 20.918 16.9175L20.9465 17.031H21.0635H22.4885H22.6385V16.881V12.981V12.9296L22.607 12.889L21.506 11.471L21.4609 11.413H21.3875H15.5055C15.1706 11.413 14.8995 11.1414 14.8995 10.806V5.512V5.362H14.7495H2.9005C2.73978 5.362 2.58564 5.29815 2.47199 5.18451C2.35835 5.07086 2.2945 4.91672 2.2945 4.756C2.2945 4.59528 2.35835 4.44114 2.47199 4.32749C2.58564 4.21385 2.73978 4.15 2.9005 4.15H15.5045C15.6652 4.15 15.8194 4.21385 15.933 4.32749C16.0467 4.44114 16.1105 4.59528 16.1105 4.756V5.512V5.662H16.2605H19.4874C19.4875 5.662 19.4875 5.662 19.4875 5.662C19.5999 5.66206 19.7101 5.69336 19.8058 5.75238C19.9015 5.81143 19.979 5.8959 20.0295 5.99637L22.2975 10.5094ZM19.1555 6.95765L19.114 6.875H19.0215H16.2615H16.1115V7.025V10.05V10.2H16.2615H20.5415H20.7847L20.6755 9.98265L19.1555 6.95765ZM6.61526 18.788C6.89148 19.064 7.25473 19.233 7.6405 19.2681V19.276H7.7905C8.70747 19.276 9.4525 18.5297 9.4525 17.613C9.4525 16.6963 8.70747 15.95 7.7905 15.95C6.87366 15.95 6.1275 16.6962 6.1275 17.613V17.6132C6.12808 18.0539 6.3035 18.4765 6.61526 18.788ZM16.9513 18.788C17.2275 19.064 17.5907 19.233 17.9765 19.2681V19.276H18.1265C19.0433 19.276 19.7895 18.5298 19.7895 17.613C19.7895 16.6962 19.0433 15.95 18.1265 15.95C17.2097 15.95 16.4635 16.6962 16.4635 17.613V17.6132C16.4641 18.0539 16.6395 18.4765 16.9513 18.788ZM1.9925 13.201H5.4705C5.63135 13.201 5.78562 13.2649 5.89936 13.3786C6.0131 13.4924 6.077 13.6466 6.077 13.8075C6.077 13.9684 6.0131 14.1226 5.89936 14.2364C5.78562 14.3501 5.63135 14.414 5.4705 14.414H1.9905C1.82965 14.414 1.67538 14.3501 1.56164 14.2364C1.4479 14.1226 1.384 13.9684 1.384 13.8075C1.384 13.6466 1.4479 13.4924 1.56164 13.3786C1.67538 13.2649 1.82965 13.201 1.9905 13.201H1.9925ZM0.7565 10.225H7.2105C7.37135 10.225 7.52562 10.2889 7.63936 10.4026C7.7531 10.5164 7.817 10.6706 7.817 10.8315C7.817 10.9924 7.7531 11.1466 7.63936 11.2604C7.52562 11.3741 7.37135 11.438 7.2105 11.438H0.7565C0.595646 11.438 0.441381 11.3741 0.32764 11.2604C0.213899 11.1466 0.15 10.9924 0.15 10.8315C0.15 10.6706 0.213899 10.5164 0.32764 10.4026C0.441381 10.2889 0.595646 10.225 0.7565 10.225ZM1.9925 7.25H8.4455C8.60635 7.25 8.76062 7.3139 8.87436 7.42764C8.9881 7.54138 9.052 7.69565 9.052 7.8565C9.052 8.01735 8.9881 8.17162 8.87436 8.28536C8.76062 8.3991 8.60635 8.463 8.4455 8.463H1.9925C1.83165 8.463 1.67738 8.3991 1.56364 8.28536C1.4499 8.17162 1.386 8.01735 1.386 7.8565C1.386 7.69565 1.4499 7.54138 1.56364 7.42764C1.67738 7.3139 1.83165 7.25 1.9925 7.25Z" fill="#171C29" stroke="white" stroke-width="0.3"/>
</svg>
