<svg width="62" height="31" viewBox="0 0 62 31" fill="none" xmlns="http://www.w3.org/2000/svg">
<path d="M46.5 31C55.0604 31 62 24.0604 62 15.5C62 6.93958 55.0604 0 46.5 0C37.9396 0 31 6.93958 31 15.5C31 24.0604 37.9396 31 46.5 31Z" fill="#627EEA"/>
<path d="M46.983 3.87292V12.4661L54.2457 15.7119L46.983 3.87292Z" fill="white" fill-opacity="0.602"/>
<path d="M46.983 3.87292L39.7203 15.7119L46.983 12.4661V3.87292Z" fill="white"/>
<path d="M46.983 21.2796V27.1185L54.25 17.0635L46.983 21.2796Z" fill="white" fill-opacity="0.602"/>
<path d="M46.983 27.1185V21.2796L39.7203 17.0635L46.983 27.1185Z" fill="white"/>
<path d="M46.983 19.9279L54.2457 15.7118L46.983 12.4661V19.9279Z" fill="white" fill-opacity="0.2"/>
<path d="M39.7203 15.7118L46.983 19.9279V12.4661L39.7203 15.7118Z" fill="white" fill-opacity="0.602"/>
</svg>
