<svg width="62" height="31" viewBox="0 0 62 31" fill="none" xmlns="http://www.w3.org/2000/svg">
<rect width="62" height="31" fill="white"/>
<path d="M15.5046 8.55271C14.9394 9.2215 14.0351 9.749 13.1308 9.67364C13.0178 8.76936 13.4605 7.80856 13.9786 7.21513C14.5438 6.5275 15.5328 6.03768 16.3335 6C16.4277 6.94196 16.0603 7.86508 15.5046 8.55271ZM16.3241 9.85262C15.0148 9.77726 13.8938 10.5968 13.2721 10.5968C12.641 10.5968 11.6896 9.8903 10.6535 9.90913C9.30648 9.92797 8.05368 10.691 7.36605 11.9061C5.95311 14.3363 6.99868 17.9346 8.36452 19.9128C9.03332 20.8924 9.83398 21.9662 10.889 21.9285C11.8875 21.8909 12.2831 21.2786 13.4888 21.2786C14.7039 21.2786 15.0524 21.9285 16.1074 21.9097C17.2001 21.8909 17.8877 20.9301 18.5565 19.9504C19.3195 18.8389 19.6304 17.7557 19.6492 17.6991C19.6304 17.6803 17.5392 16.8796 17.5204 14.4682C17.5015 12.4524 19.1688 11.4916 19.2442 11.4351C18.3022 10.041 16.8327 9.8903 16.3241 9.85262ZM23.888 7.12093V21.8061H26.1676V16.7854H29.3231C32.2055 16.7854 34.2308 14.8073 34.2308 11.9438C34.2308 9.08021 32.2432 7.12093 29.3985 7.12093H23.888ZM26.1676 9.04253H28.7956C30.7738 9.04253 31.9041 10.0975 31.9041 11.9532C31.9041 13.8089 30.7738 14.8733 28.7862 14.8733H26.1676V9.04253ZM38.3942 21.9191C39.826 21.9191 41.1542 21.1938 41.757 20.0446H41.8041V21.8061H43.9141V14.4965C43.9141 12.3771 42.2186 11.0112 39.6093 11.0112C37.1885 11.0112 35.3988 12.3959 35.3328 14.2987H37.3863C37.5559 13.3944 38.3942 12.801 39.5434 12.801C40.9375 12.801 41.7193 13.4509 41.7193 14.6472V15.4573L38.8746 15.6268C36.2277 15.787 34.7959 16.8702 34.7959 18.7541C34.7959 20.6569 36.2748 21.9191 38.3942 21.9191ZM39.0065 20.1765C37.7914 20.1765 37.019 19.5925 37.019 18.6976C37.019 17.7745 37.7631 17.2376 39.1855 17.1528L41.7193 16.9927V17.8216C41.7193 19.1969 40.5513 20.1765 39.0065 20.1765ZM46.7306 25.8C48.9536 25.8 49.9992 24.9522 50.9129 22.3807L54.9162 11.1525H52.599L49.9144 19.828H49.8673L47.1827 11.1525H44.7995L48.6616 21.8438L48.4543 22.4937C48.1058 23.5958 47.5406 24.0197 46.5328 24.0197C46.3538 24.0197 46.0053 24.0009 45.864 23.982V25.7435C45.9958 25.7812 46.561 25.8 46.7306 25.8Z" fill="black"/>
</svg>
