<svg width="62" height="31" viewBox="0 0 62 31" fill="none" xmlns="http://www.w3.org/2000/svg">
<rect width="62" height="31" fill="white"/>
<path d="M25.6401 18.9754C23.2697 18.9754 21.4284 17.2359 21.4284 14.9911C21.4284 12.7736 23.3152 11 25.672 11C26.346 11 26.9053 11.1366 27.5871 11.4665V13.2187C26.9416 12.6103 26.3779 12.3601 25.6401 12.3601C24.1778 12.3601 23.0325 13.5184 23.0325 14.9805C23.0325 16.5279 24.1419 17.6124 25.7082 17.6124C26.4163 17.6124 26.9636 17.3758 27.5871 16.7762V18.5306C26.8815 18.8492 26.3085 18.9754 25.6401 18.9754Z" fill="#E6772F"/>
<path d="M18.642 14.0981C17.7063 13.7697 17.4328 13.551 17.4328 13.1384C17.4328 12.6589 17.9216 12.2952 18.5937 12.2952C19.0595 12.2952 19.4433 12.4736 19.8521 12.9096L20.6614 11.8936C19.9927 11.3305 19.1924 11.0454 18.3199 11.0454C16.9081 11.0454 15.8321 11.9852 15.8321 13.2279C15.8321 14.2831 16.3323 14.8183 17.7921 15.3266C18.4023 15.5297 18.7123 15.6684 18.8693 15.7623C19.1803 15.9547 19.3352 16.2303 19.3352 16.5489C19.3352 17.1699 18.821 17.6263 18.126 17.6263C17.386 17.6263 16.7873 17.2718 16.429 16.6061L15.426 17.5356C16.1431 18.5409 17.0026 18.9903 18.1867 18.9903C19.8016 18.9903 20.9396 17.9556 20.9396 16.482C20.9396 15.2677 20.4118 14.7173 18.642 14.0981Z" fill="#E6772F"/>
<path fill-rule="evenodd" clip-rule="evenodd" d="M6 11.1724H8.28613C10.808 11.1724 12.5672 12.7377 12.5672 14.9911C12.5672 16.1167 12.028 17.2033 11.1192 17.9229C10.3542 18.5305 9.48139 18.8058 8.27219 18.8058H6V11.1724ZM7.97422 17.5124C8.98116 17.5124 9.61084 17.3275 10.1055 16.9046C10.641 16.449 10.9628 15.7161 10.9628 14.9804C10.9628 14.2484 10.641 13.5406 10.1055 13.0818C9.58668 12.6378 8.98116 12.4653 7.97422 12.4653H7.55639V17.5124H7.97422Z" fill="#E6772F"/>
<path d="M14.8351 11.1724H13.2849V18.8058H14.8351V11.1724Z" fill="#E6772F"/>
<path d="M40.1907 16.2972L38.0634 11.1724H36.3673L39.749 18.9985H40.5831L44.0304 11.1724H42.3476L40.1907 16.2972Z" fill="#E6772F"/>
<path d="M49.1478 18.8058H44.7363V11.1724H49.1478V12.4653H46.2927V14.1588H49.0394V15.4519H46.2927V17.5124H49.1478V18.8058Z" fill="#E6772F"/>
<path fill-rule="evenodd" clip-rule="evenodd" d="M55.3062 13.4247C55.3062 11.9952 54.2816 11.1724 52.4855 11.1724H50.1749V18.8058H51.7347V15.7368H51.9369L54.0862 18.8058H56L53.4902 15.5886C54.6632 15.3592 55.3062 14.5927 55.3062 13.4247ZM52.1863 14.6826H51.7347V12.3738H52.2117C53.1836 12.3738 53.7043 12.7641 53.7043 13.5077C53.7043 14.2718 53.1836 14.6826 52.1863 14.6826Z" fill="#E6772F"/>
<path d="M32.4282 18.9878C34.7258 18.9878 36.5866 17.2065 36.5866 15.0088C36.5866 12.8108 34.7258 11.0293 32.4282 11.0293C30.1312 11.0293 28.27 12.8108 28.27 15.0088C28.27 17.2065 30.1312 18.9878 32.4282 18.9878Z" fill="#E6772F"/>
</svg>
