<svg width="62" height="31" viewBox="0 0 62 31" fill="none" xmlns="http://www.w3.org/2000/svg">
<rect width="62" height="31" fill="white"/>
<path d="M29.5592 16.4198V22.6696H27.5703V7.21313H32.7414C34.001 7.21313 35.1943 7.68355 36.1225 8.55717C37.0506 9.3636 37.5147 10.5732 37.5147 11.8501C37.5147 13.1269 37.0506 14.2693 36.1225 15.143C35.1943 16.0166 34.0673 16.487 32.7414 16.487L29.5592 16.4198ZM29.5592 9.09479V14.4709H32.874C33.6032 14.4709 34.3325 14.2021 34.7966 13.6645C35.8573 12.6565 35.8573 10.9764 34.8629 9.96841L34.7966 9.90121C34.2662 9.3636 33.6032 9.02759 32.874 9.09479H29.5592Z" fill="#5F6368"/>
<path d="M42.0891 11.783C43.5476 11.783 44.6746 12.1862 45.5365 12.9926C46.3983 13.799 46.7961 14.8742 46.7961 16.2183V22.6697H44.9398V21.1912H44.8735C44.0779 22.4009 42.9509 23.0057 41.625 23.0057C40.498 23.0057 39.5035 22.6697 38.708 21.9977C37.9787 21.3256 37.5146 20.3848 37.5146 19.3768C37.5146 18.3015 37.9124 17.4279 38.708 16.7559C39.5035 16.0839 40.6306 15.8151 41.9565 15.8151C43.1498 15.8151 44.0779 16.0167 44.8072 16.4871V16.0167C44.8072 15.3447 44.542 14.6726 44.0116 14.2694C43.4813 13.799 42.8183 13.5302 42.0891 13.5302C40.962 13.5302 40.1002 14.0006 39.5035 14.9414L37.7798 13.8662C38.8406 12.455 40.2328 11.783 42.0891 11.783ZM39.5698 19.444C39.5698 19.9816 39.835 20.452 40.2328 20.7208C40.6969 21.0568 41.2272 21.2584 41.7576 21.2584C42.5531 21.2584 43.3487 20.9224 43.9453 20.3176C44.6083 19.7128 44.9398 18.9736 44.9398 18.1671C44.3431 17.6967 43.4813 17.4279 42.3542 17.4279C41.5587 17.4279 40.8957 17.6295 40.3654 18.0327C39.835 18.3687 39.5698 18.8392 39.5698 19.444Z" fill="#5F6368"/>
<path d="M57.5364 12.1187L50.9731 27.3735H48.9842L51.4372 22.0645L47.1279 12.1859H49.2494L52.3653 19.7797H52.4316L55.4812 12.1859H57.5364V12.1187Z" fill="#5F6368"/>
<path d="M21.6696 15.0759C21.6696 14.4711 21.6033 13.8663 21.537 13.2615H13.25V16.6888H17.957C17.7581 17.764 17.1615 18.772 16.2333 19.3768V21.5945H19.084C20.7414 20.0489 21.6696 17.764 21.6696 15.0759Z" fill="#4285F4"/>
<path d="M13.2497 23.7448C15.6363 23.7448 17.6252 22.9384 19.0837 21.5943L16.233 19.3767C15.4374 19.9143 14.443 20.2503 13.2497 20.2503C10.9956 20.2503 9.00674 18.7047 8.34378 16.5542H5.42676V18.8391C6.95156 21.8632 9.93488 23.7448 13.2497 23.7448Z" fill="#34A853"/>
<path d="M8.34416 16.5542C7.94638 15.479 7.94638 14.2693 8.34416 13.1269V10.842H5.42714C4.16752 13.3285 4.16752 16.2854 5.42714 18.8391L8.34416 16.5542Z" fill="#FBBC04"/>
<path d="M13.2508 9.49811C14.5104 9.49811 15.7037 9.96853 16.6318 10.8422L19.1511 8.28848C17.56 6.81004 15.4385 5.93641 13.3171 6.00362C10.0023 6.00362 6.95265 7.88527 5.49414 10.9094L8.41116 13.1942C9.00782 11.0438 10.9967 9.49811 13.2508 9.49811Z" fill="#EA4335"/>
</svg>
