<svg width="62" height="31" viewBox="0 0 62 31" fill="none" xmlns="http://www.w3.org/2000/svg">
<rect width="62" height="31" fill="white"/>
<path fill-rule="evenodd" clip-rule="evenodd" d="M55.9998 16.0852H53.399C52.6141 16.0852 52.0439 16.2726 51.6401 16.564V16.0852H47.7931C47.1779 16.0852 46.4558 16.2373 46.1142 16.564V16.0852H39.2445V16.564C38.6978 16.1708 37.7752 16.0852 37.3494 16.0852H32.8181V16.564C32.3856 16.1464 31.4237 16.0852 30.8374 16.0852H25.766L24.6055 17.3374L23.5186 16.0852H15.943V24.2664H23.376L24.5718 22.9944L25.6983 24.2664L30.28 24.2704V22.3459H30.7304C31.3384 22.3553 32.0553 22.3309 32.6879 22.0582V24.2662H36.467V22.1339H36.6493C36.882 22.1339 36.9049 22.1435 36.9049 22.3752V24.266H48.3851C49.1139 24.266 49.8758 24.08 50.2977 23.7425V24.266H53.9391C54.6969 24.266 55.437 24.1601 56 23.8889C56 -20.8727 55.9998 34.8267 55.9998 16.0852Z" fill="#006FCF"/>
<path fill-rule="evenodd" clip-rule="evenodd" d="M8.40135 14.1755L8.94276 12.8735H10.1549L10.6949 14.1755H15.4194V13.1801L15.8411 14.1797H18.2937L18.7154 13.1652V14.1755H30.4566L30.4511 12.0383H30.6783C30.8374 12.0437 30.8838 12.0584 30.8838 12.3203V14.1755H36.9565V13.678C37.4463 13.9396 38.2081 14.1755 39.2106 14.1755H41.7654L42.3121 12.8735H43.5242L44.0589 14.1755H48.982V12.9387L49.7275 14.1755H53.6726V6H49.7683V6.96554L49.2216 6H45.2153V6.96554L44.7133 6H39.3018C38.3959 6 37.5997 6.12606 36.9565 6.47738V6H33.2221V6.47738C32.8128 6.11528 32.255 6 31.6349 6H17.9917L17.0762 8.11159L16.1362 6H11.8389V6.96554L11.3668 6H7.70192L6 9.88707V14.1755H8.40135Z" fill="#006FCF"/>
<path fill-rule="evenodd" clip-rule="evenodd" d="M30.7927 21.1395C32.0211 21.1395 33.24 20.8033 33.24 19.1745C33.24 17.5507 31.9869 17.2429 30.8716 17.2429H26.381L24.5934 19.1648L22.8644 17.2429H17.2121V23.1061H22.7787L24.5771 21.1652L26.3076 23.1061H29.0392V21.1395H30.7927ZM29.0392 19.9488H30.8553C31.3953 19.9488 31.7312 19.6816 31.7312 19.1746C31.7312 18.6618 31.379 18.4557 30.8716 18.4557H29.0392V19.9488ZM22.0672 21.8843H18.612V20.7177H21.6973V19.5215H18.612V18.4555H22.1353L23.6725 20.1641L22.0672 21.8843ZM27.6394 22.5729L25.4817 20.1847L27.6394 17.8722V22.5729Z" fill="white"/>
<path fill-rule="evenodd" clip-rule="evenodd" d="M39.2502 20.8736C39.1303 20.7028 38.8746 20.4965 38.5617 20.3814C38.9317 20.235 39.5577 19.7574 39.5578 18.8216C39.5578 18.1528 39.2789 17.7868 38.8354 17.5196C38.3741 17.2742 37.8559 17.2429 37.1444 17.2429H33.8998V23.1061H35.312V20.9647H36.8139C37.3266 20.9647 37.6396 21.0149 37.8449 21.2249C38.0801 21.4704 38.076 21.9181 38.0728 22.2623C38.0724 22.3005 38.0721 22.3374 38.0721 22.3726V23.1061H39.483V21.9438C39.4773 21.427 39.4486 21.1599 39.2502 20.8736ZM37.713 19.6518C37.525 19.763 37.2925 19.7725 37.0191 19.7725H35.3118V18.4557H37.0423C37.2925 18.4557 37.5429 18.461 37.713 18.5616C37.8951 18.6565 38.004 18.8381 38.004 19.089C38.004 19.3399 37.8951 19.542 37.713 19.6518Z" fill="white"/>
<path d="M50.3941 20.0138C50.6678 20.2962 50.8144 20.6526 50.8144 21.2561C50.8144 22.5174 50.024 23.1061 48.6067 23.1061H45.8695V21.8489H48.5957C48.8623 21.8489 49.0513 21.8137 49.1698 21.7037C49.2664 21.613 49.3358 21.4813 49.3358 21.3213C49.3358 21.1505 49.2608 21.0149 49.1643 20.9336C49.0568 20.8441 48.9086 20.8034 48.6638 20.8034C48.5778 20.8005 48.4903 20.7981 48.402 20.7957C47.1411 20.7616 45.7037 20.7226 45.7037 18.9887C45.7037 18.1383 46.2396 17.2431 47.713 17.2431H50.5303V18.491H47.9524C47.6968 18.491 47.5307 18.5005 47.3893 18.5969C47.2354 18.6918 47.1783 18.8328 47.1783 19.0188C47.1783 19.2399 47.309 19.3904 47.4858 19.4555C47.634 19.5069 47.7933 19.5219 48.0327 19.5219L48.7892 19.5423C49.5521 19.5608 50.0758 19.6924 50.3941 20.0138Z" fill="white"/>
<path d="M56 18.4906H53.4387C53.183 18.4906 53.0131 18.5002 52.87 18.5965C52.7217 18.6915 52.6646 18.8324 52.6646 19.0184C52.6646 19.2396 52.7898 19.39 52.9719 19.4551C53.1202 19.5065 53.2794 19.5216 53.5135 19.5216L54.2752 19.5419C55.0438 19.5608 55.5568 19.6925 55.8697 20.0138C55.9177 20.0516 55.9496 20.0932 55.9819 20.1355L55.9907 20.1469L55.9963 20.1542L56 20.159V22.3562C55.6586 22.8539 54.9934 23.1062 54.0929 23.1062H51.3789V21.8489H54.0819C54.35 21.8489 54.5377 21.8137 54.6506 21.7037C54.7485 21.613 54.8168 21.4813 54.8168 21.3213C54.8168 21.1505 54.7485 21.0149 54.6451 20.9336C54.5432 20.8441 54.3947 20.8034 54.15 20.8034C54.0637 20.8005 53.976 20.7981 53.8874 20.7958C52.6221 20.7616 51.1842 20.7227 51.1842 18.9887C51.1842 18.1383 51.7258 17.2431 53.2005 17.2431H55.9998L56 18.4906Z" fill="white"/>
<path d="M40.3371 17.2429H45.0275V18.4555H41.7366V19.5214H44.9472V20.7177H41.7366V21.8842L45.0275 21.8895V23.1061H40.3371V17.2429Z" fill="white"/>
<path fill-rule="evenodd" clip-rule="evenodd" d="M10.5071 10.4861L9.54518 8.14926L8.58879 10.4861H10.5071ZM31.6973 9.55564C31.5042 9.6725 31.2758 9.67639 31.0021 9.67639H29.2949V8.3744H31.0254C31.2703 8.3744 31.5258 8.38536 31.6918 8.48013C31.8741 8.56553 31.9869 8.74728 31.9869 8.99835C31.9869 9.25454 31.8796 9.46069 31.6973 9.55564ZM43.8766 10.4861L42.9041 8.14926L41.9369 10.4861H43.8766ZM21.1736 13.0155H19.7329L19.7276 8.42457L17.6898 13.0155H16.4559L14.4128 8.4205V13.0155H11.5544L11.0144 11.708H8.08833L7.54284 13.0155H6.01648L8.5331 7.15369H10.6211L13.0113 12.7036V7.15369H15.305L17.1441 11.1302L18.8337 7.15369H21.1735V13.0155H21.1736ZM26.9157 13.0155H22.221V7.15369H26.9157V8.37435H23.6264V9.43094H26.8368V10.6325H23.6264V11.8031H26.9157V13.0155ZM33.535 8.73238C33.535 9.66698 32.9094 10.1498 32.5448 10.2948C32.8523 10.4115 33.1149 10.6177 33.24 10.7885C33.4384 11.08 33.4726 11.3404 33.4726 11.864V13.0155H32.0552L32.0498 12.2763C32.0498 11.9235 32.0837 11.4163 31.828 11.1343C31.6226 10.9281 31.3096 10.8834 30.8037 10.8834H29.2951V13.0155H27.8898V7.15369H31.1222C31.8404 7.15369 32.3696 7.1726 32.8239 7.43445C33.2685 7.6963 33.535 8.07856 33.535 8.73238ZM35.7841 13.0155H34.3501V7.15369H35.7841V13.0155ZM52.4199 13.0155H50.4284L47.7646 8.61587V13.0155H44.9025L44.3556 11.708H41.4362L40.9056 13.0155H39.2612C38.578 13.0155 37.7132 12.8649 37.2234 12.3672C36.7295 11.8694 36.4725 11.1953 36.4725 10.1293C36.4725 9.25997 36.6261 8.46523 37.2301 7.83722C37.6844 7.36939 38.3959 7.15369 39.3644 7.15369H40.7249V8.40971H39.3929C38.8801 8.40971 38.5905 8.48574 38.3115 8.75696C38.0719 9.00378 37.9075 9.47037 37.9075 10.0848C37.9075 10.7128 38.0327 11.1656 38.2939 11.4614C38.5103 11.6933 38.9035 11.7637 39.2734 11.7637H39.9045L41.8852 7.15386H43.991L46.3703 12.6983V7.15386H48.5101L50.9804 11.2363V7.15386H52.4199V13.0155Z" fill="white"/>
</svg>
