<svg width="62" height="31" viewBox="0 0 62 31" fill="none" xmlns="http://www.w3.org/2000/svg">
<path fill-rule="evenodd" clip-rule="evenodd" d="M5.08148 15.9408C3.40741 15.9408 1.46667 16.7408 0.414815 17.5704L1.37778 19.5852C2.22222 18.8149 3.58519 18.163 4.81481 18.163C5.98519 18.163 6.62222 18.5482 6.62222 19.3334C6.62222 19.8667 6.19259 20.1334 5.39259 20.2371C2.37037 20.6223 0 21.4519 0 23.7778C0 25.6149 1.31852 26.7408 3.36296 26.7408C4.82963 26.7408 6.13333 25.926 6.75556 24.8593V26.4445H9.48148V19.7926C9.48148 17.0519 7.57037 15.9408 5.08148 15.9408ZM4.05926 24.6074C3.28889 24.6074 2.9037 24.2371 2.9037 23.6149C2.9037 22.4593 4.19259 22.0741 6.54815 21.8223C6.56296 23.363 5.51111 24.6074 4.05926 24.6074ZM35.1852 17.9556V16.2371H32.4593V26.4445H35.3778V21.526C35.3778 19.1852 36.7852 18.5037 37.7778 18.5037C38.163 18.5037 38.6815 18.6223 39.0222 18.8741L39.5556 16.1778C39.1111 15.9852 38.637 15.9408 38.2519 15.9408C36.7556 15.9408 35.8074 16.6074 35.1852 17.9556ZM53.0963 15.9408C51.5556 15.9408 50.4 16.8593 49.7926 17.7334C49.2296 16.5926 48.0593 15.9408 46.637 15.9408C45.0963 15.9408 44.0296 16.8 43.5259 17.7778V16.2371H40.7111V26.4445H43.6296V21.1852C43.6296 19.3037 44.6222 18.4 45.5407 18.4C46.3704 18.4 47.1407 18.9334 47.1407 20.326V26.4445H50.0741V21.1852C50.0741 19.2741 51.037 18.4 52 18.4C52.7704 18.4 53.5852 18.963 53.5852 20.3111V26.4445H56.5037V19.3926C56.5037 17.0963 54.963 15.9408 53.0963 15.9408ZM19.7926 15.4815V16.2371H15.363V15.2C15.363 13.8519 16.1333 13.4667 16.8 13.4667C17.1852 13.4667 17.6889 13.5556 18.1037 13.7926L19.0074 11.7334C18.4741 11.4223 17.6 11.1408 16.4296 11.1408C14.563 11.1408 12.4444 12.1926 12.4444 15.4963V16.2519H10.7556V18.5037H12.4444V26.4445H15.363V18.4889H19.7926V26.4445H22.7111V18.4889H25.363V16.2371H22.7111V15.2C22.7111 13.8519 23.4815 13.4667 24.1481 13.4667C24.8889 13.4667 25.4519 13.7926 25.4519 13.7926L26.3556 11.7334C26.3556 11.7334 25.437 11.1408 23.7778 11.1408C21.9259 11.126 19.7926 12.1778 19.7926 15.4815ZM27.0963 16.2371H30.0148V26.4445H27.0963V16.2371Z" fill="#171C29"/>
<path fill-rule="evenodd" clip-rule="evenodd" d="M44.1037 2C36.2222 2 29.2 7.46667 27.2148 14.5037H30.0741C31.7333 9.25926 37.3778 4.66667 44.1037 4.66667C52.2815 4.66667 59.3333 10.8889 59.3333 20.5778C59.3333 22.7556 59.0519 24.7111 58.5185 26.4444H61.2889L61.3185 26.3556C61.7778 24.563 62 22.6222 62 20.5778C62 9.77778 54.1333 2 44.1037 2Z" fill="#4A4AF4"/>
</svg>
