<svg width="62" height="31" viewBox="0 0 62 31" fill="none" xmlns="http://www.w3.org/2000/svg">
<rect width="62" height="31" fill="white"/>
<path d="M36.0527 6.3717H25.9479V24.5303H36.0527V6.3717Z" fill="#FF5F00"/>
<path d="M26.5894 15.4517C26.5879 13.7029 26.9841 11.9766 27.7483 10.4036C28.5125 8.83061 29.6245 7.45206 31.0002 6.37236C29.2966 5.03328 27.2506 4.20052 25.0961 3.96928C22.9416 3.73803 20.7655 4.11762 18.8165 5.06467C16.8675 6.01172 15.2243 7.488 14.0746 9.32479C12.925 11.1616 12.3153 13.2848 12.3153 15.4517C12.3153 17.6186 12.925 19.7418 14.0746 21.5786C15.2243 23.4153 16.8675 24.8916 18.8165 25.8387C20.7655 26.7857 22.9416 27.1653 25.0961 26.9341C27.2506 26.7028 29.2966 25.8701 31.0002 24.531C29.6245 23.4513 28.5125 22.0727 27.7483 20.4997C26.9842 18.9267 26.5879 17.2005 26.5894 15.4517V15.4517Z" fill="#EB001B"/>
<path d="M49.6847 15.4517C49.6848 17.6185 49.0752 19.7417 47.9256 21.5785C46.7761 23.4153 45.1329 24.8916 43.1839 25.8387C41.235 26.7857 39.0589 27.1653 36.9044 26.9341C34.7499 26.7028 32.7039 25.8701 31.0004 24.531C32.3749 23.4502 33.486 22.0714 34.2501 20.4987C35.0141 18.9259 35.4111 17.2002 35.4111 15.4517C35.4111 13.7031 35.0141 11.9774 34.2501 10.4047C33.486 8.83192 32.3749 7.45315 31.0004 6.37236C32.7039 5.03327 34.7499 4.20052 36.9044 3.96927C39.0589 3.73803 41.235 4.11763 43.1839 5.06469C45.1329 6.01174 46.7761 7.48804 47.9256 9.32483C49.0752 11.1616 49.6848 13.2848 49.6847 15.4517V15.4517Z" fill="#F79E1B"/>
<path d="M48.583 22.6073V22.2355H48.7329V22.1598H48.3511V22.2355H48.5011V22.6073H48.583ZM49.3242 22.6073V22.1591H49.2071L49.0725 22.4674L48.9379 22.1591H48.8208V22.6073H48.9034V22.2692L49.0297 22.5607H49.1153L49.2416 22.2684V22.6073H49.3242Z" fill="#F79E1B"/>
</svg>
