<svg width="24" height="24" viewBox="0 0 24 24" fill="none" xmlns="http://www.w3.org/2000/svg">
<path d="M3.84419 8.55428L3.24304 9.15239H4.09105H18.0016C18.2271 9.15239 18.4434 9.24194 18.6029 9.40125C18.7623 9.56056 18.8518 9.77657 18.8518 10.0018C18.8518 10.2269 18.7623 10.443 18.6029 10.6023C18.4434 10.7616 18.2271 10.8511 18.0016 10.8511H1.19949C1.03185 10.8501 0.868264 10.7997 0.729278 10.7061C0.590077 10.6123 0.481796 10.4795 0.418043 10.3244L0.418054 10.3244L0.41693 10.3218C0.351852 10.1671 0.334076 9.99669 0.365833 9.83197C0.397522 9.6676 0.477118 9.51624 0.594649 9.39691L5.39465 4.6003C5.55499 4.44006 5.77253 4.35 5.9994 4.35C6.22627 4.35 6.44381 4.44006 6.60416 4.6003C6.7645 4.76053 6.85453 4.97779 6.85453 5.20428C6.85453 5.43063 6.76461 5.64776 6.60445 5.80796C6.60435 5.80806 6.60425 5.80816 6.60416 5.80826L3.84419 8.55428ZM23.5829 14.4766L23.584 14.4792C23.6491 14.6339 23.6669 14.8043 23.6351 14.969C23.6035 15.1334 23.5238 15.2848 23.4063 15.4041C23.406 15.4044 23.4058 15.4046 23.4056 15.4049L18.6063 20.2007L18.6053 20.2017C18.5263 20.2813 18.4323 20.3446 18.3286 20.3877C18.225 20.4308 18.1139 20.453 18.0016 20.453C17.8893 20.453 17.7781 20.4308 17.6745 20.3877C17.5709 20.3446 17.4769 20.2813 17.3978 20.2017L17.3958 20.1997C17.3161 20.1207 17.2529 20.0268 17.2098 19.9233C17.1666 19.8198 17.1444 19.7088 17.1444 19.5967C17.1444 19.4846 17.1666 19.3736 17.2098 19.2702C17.2529 19.1667 17.3161 19.0727 17.3958 18.9938L17.3963 18.9933L20.1568 16.2467L20.7579 15.6486H19.9099H5.9994C5.77383 15.6486 5.55755 15.5591 5.39812 15.3997C5.2387 15.2404 5.14918 15.0244 5.14918 14.7992C5.14918 14.5741 5.2387 14.358 5.39812 14.1987C5.55755 14.0394 5.77383 13.9499 5.9994 13.9499H22.8016C22.9692 13.9509 23.1327 14.0014 23.2717 14.0949C23.4109 14.1887 23.5192 14.3215 23.5829 14.4766Z" fill="#171C29" stroke="white" stroke-width="0.7"/>
</svg>
