<svg width="62" height="31" viewBox="0 0 62 31" fill="none" xmlns="http://www.w3.org/2000/svg">
<g clip-path="url(#clip0_17_168)">
<path d="M12.7504 17.0732C11.8859 20.5554 8.3736 22.6745 4.90544 21.8062C1.4387 20.938 -0.671726 17.411 0.19324 13.9291C1.0574 10.4466 4.56966 8.32722 8.0368 9.19536C11.5048 10.0635 13.615 13.5909 12.7504 17.0732Z" fill="#F7931A"/>
<path d="M9.3258 14.5748C9.45465 13.7099 8.79885 13.245 7.90212 12.9348L8.19301 11.7632L7.48279 11.5855L7.19959 12.7262C7.01289 12.6795 6.82112 12.6354 6.63056 12.5917L6.91579 11.4435L6.20597 11.2657L5.91489 12.4369C5.76034 12.4016 5.60863 12.3667 5.46136 12.3299L5.46217 12.3262L4.48272 12.0807L4.29379 12.8424C4.29379 12.8424 4.82073 12.9636 4.80961 12.9712C5.09726 13.0433 5.14924 13.2344 5.14054 13.3859L4.8092 14.7206C4.82903 14.7257 4.85472 14.733 4.88304 14.7444C4.85937 14.7385 4.83409 14.732 4.80799 14.7257L4.34354 16.5955C4.30835 16.6832 4.21914 16.8148 4.01807 16.7649C4.02515 16.7752 3.50184 16.6355 3.50184 16.6355L3.14926 17.4518L4.0735 17.6832C4.24544 17.7264 4.41394 17.7717 4.57981 17.8144L4.2859 18.9994L4.99531 19.1771L5.28639 18.0047C5.48018 18.0575 5.6683 18.1063 5.85238 18.1522L5.56231 19.3191L6.27252 19.4969L6.56644 18.3141C7.77752 18.5442 8.6882 18.4514 9.07153 17.3515C9.38042 16.4659 9.05615 15.955 8.41896 15.6219C8.883 15.5144 9.23254 15.2079 9.3258 14.5748ZM7.70307 16.8597C7.4836 17.7453 5.99863 17.2666 5.5172 17.1465L5.9072 15.5766C6.38864 15.6973 7.93246 15.9361 7.70307 16.8597ZM7.92275 14.562C7.72249 15.3676 6.48654 14.9583 6.08561 14.858L6.43921 13.4341C6.84013 13.5344 8.13131 13.7217 7.92275 14.562Z" fill="white"/>
<path d="M18.9687 12.9336C19.4936 12.9336 19.9471 13.0281 20.3282 13.2135C20.7111 13.4008 21.0271 13.6531 21.2806 13.9704C21.5306 14.2893 21.7167 14.662 21.8368 15.0891C21.9562 15.5175 22.0161 15.978 22.0161 16.471C22.0161 17.2282 21.8779 17.9436 21.599 18.618C21.32 19.2934 20.9415 19.8792 20.4601 20.3788C19.9791 20.8779 19.4111 21.2714 18.7561 21.562C18.1021 21.8529 17.3911 21.9983 16.6276 21.9983C16.5289 21.9983 16.3554 21.9955 16.1102 21.9904C15.865 21.9853 15.5832 21.9599 15.2677 21.9171C14.9501 21.8726 14.6143 21.8068 14.2597 21.7186C13.9053 21.6321 13.5687 21.5108 13.2517 21.3569L16.0861 9.39788L18.6248 9.00281L17.6099 13.2466C17.8272 13.1483 18.046 13.0721 18.2645 13.0167C18.4832 12.9621 18.7178 12.9336 18.9687 12.9336ZM16.8392 19.9761C17.2215 19.9761 17.5818 19.8816 17.9202 19.6962C18.2597 19.5105 18.5526 19.2598 18.7979 18.9477C19.0433 18.634 19.2375 18.2808 19.3791 17.8861C19.5207 17.4915 19.5923 17.0797 19.5923 16.6514C19.5923 16.1251 19.5047 15.7146 19.3301 15.4178C19.1556 15.1223 18.8325 14.9736 18.3634 14.9736C18.2097 14.9736 18.0117 15.003 17.7661 15.0556C17.5197 15.1115 17.2992 15.2275 17.1016 15.402L16.021 19.9088C16.0861 19.9204 16.1438 19.9314 16.1929 19.9417C16.2411 19.9529 16.2943 19.9608 16.3473 19.9663C16.4033 19.9726 16.4674 19.9759 16.5449 19.9759C16.6224 19.9759 16.7193 19.9761 16.8392 19.9761Z" fill="#4D4D4D"/>
<path d="M24.6488 21.7694H22.224L24.2718 13.117H26.7131L24.6488 21.7694ZM25.8287 12.0628C25.4903 12.0628 25.1834 11.9617 24.9112 11.759C24.6367 11.5575 24.5007 11.2473 24.5007 10.8293C24.5007 10.5993 24.5473 10.3836 24.6395 10.1801C24.7332 9.97696 24.8555 9.80208 25.0089 9.65339C25.162 9.50592 25.3394 9.38811 25.5409 9.29935C25.7436 9.212 25.9592 9.16833 26.189 9.16833C26.5272 9.16833 26.8325 9.26949 27.1057 9.47221C27.378 9.67594 27.515 9.9861 27.515 10.4019C27.515 10.6326 27.4686 10.8492 27.3756 11.0523C27.2832 11.2554 27.1608 11.4303 27.0074 11.579C26.8555 11.7267 26.6765 11.8441 26.4754 11.932C26.2725 12.0208 26.0577 12.0628 25.8287 12.0628Z" fill="#4D4D4D"/>
<path d="M28.8381 10.9612L31.3778 10.5662L30.7541 13.1166H33.474L32.9829 15.123H30.2794L29.5592 18.1495C29.4929 18.4018 29.4553 18.6374 29.4447 18.8564C29.4328 19.0764 29.4605 19.2653 29.5261 19.4243C29.5912 19.5838 29.7083 19.7066 29.8782 19.7936C30.0473 19.8819 30.2895 19.9264 30.6071 19.9264C30.8686 19.9264 31.1235 19.9014 31.3699 19.8519C31.6148 19.8031 31.863 19.7353 32.1143 19.6465L32.2951 21.5226C31.9674 21.6432 31.6126 21.747 31.2303 21.8343C30.8474 21.9229 30.3941 21.9656 29.8701 21.9656C29.1168 21.9656 28.5328 21.8532 28.1168 21.6296C27.7013 21.4043 27.4075 21.0966 27.2318 20.707C27.0584 20.3189 26.9809 19.8714 27.0026 19.3672C27.025 18.8619 27.1009 18.3307 27.2318 17.7713L28.8381 10.9612Z" fill="#4D4D4D"/>
<path d="M33.3672 18.3143C33.3672 17.569 33.4874 16.8662 33.7275 16.2083C33.9672 15.5498 34.3125 14.974 34.7606 14.4798C35.207 13.988 35.7509 13.5984 36.3912 13.3124C37.0284 13.028 37.7418 12.8846 38.5281 12.8846C39.0203 12.8846 39.4598 12.9314 39.8466 13.025C40.235 13.1195 40.5863 13.2415 40.9041 13.3947L40.0679 15.304C39.8494 15.2151 39.6227 15.1367 39.3882 15.0656C39.1536 14.993 38.8671 14.9581 38.5283 14.9581C37.719 14.9581 37.0791 15.2382 36.603 15.7966C36.1286 16.3554 35.8897 17.1075 35.8897 18.051C35.8897 18.6102 36.0099 19.0624 36.251 19.4083C36.4909 19.7542 36.9341 19.9263 37.5776 19.9263C37.8952 19.9263 38.2016 19.893 38.4951 19.828C38.7909 19.7621 39.052 19.6793 39.282 19.5814L39.4631 21.5387C39.1564 21.6581 38.8182 21.7659 38.4472 21.8604C38.0754 21.9516 37.6328 21.9989 37.1196 21.9989C36.4421 21.9989 35.8687 21.8994 35.3996 21.7034C34.9303 21.5043 34.5425 21.2401 34.2371 20.9053C33.93 20.5698 33.7095 20.1779 33.5732 19.7282C33.4368 19.2789 33.3672 18.8069 33.3672 18.3143Z" fill="#4D4D4D"/>
<path d="M44.1389 21.9989C43.5601 21.9989 43.0574 21.9104 42.631 21.7351C42.2058 21.5598 41.8537 21.3138 41.5751 20.9949C41.2962 20.6776 41.0874 20.3016 40.9444 19.8684C40.8014 19.4353 40.7326 18.9558 40.7326 18.4303C40.7326 17.7711 40.838 17.1122 41.051 16.4551C41.263 15.7966 41.5775 15.2049 41.9938 14.679C42.4069 14.1523 42.9165 13.7217 43.5164 13.3859C44.1158 13.0524 44.8052 12.8846 45.5795 12.8846C46.1477 12.8846 46.6478 12.9734 47.0801 13.1487C47.5103 13.3236 47.8647 13.5716 48.1449 13.8889C48.422 14.2078 48.6326 14.5821 48.7742 15.016C48.9168 15.4482 48.9872 15.929 48.9872 16.4549C48.9872 17.112 48.8832 17.7709 48.6769 18.4301C48.4704 19.086 48.1639 19.6791 47.7593 20.2062C47.3556 20.7321 46.8507 21.1625 46.2442 21.4968C45.6386 21.8311 44.9363 21.9989 44.1389 21.9989ZM45.3507 14.9583C44.9913 14.9583 44.6735 15.0631 44.4014 15.2701C44.1283 15.4795 43.899 15.7428 43.7141 16.0603C43.5272 16.3792 43.3886 16.7269 43.2949 17.1049C43.2021 17.4837 43.1566 17.8418 43.1566 18.1821C43.1566 18.7311 43.2448 19.1587 43.4181 19.4664C43.5939 19.7725 43.9097 19.9265 44.3687 19.9265C44.7293 19.9265 45.0455 19.8225 45.3192 19.6133C45.5907 19.4055 45.8203 19.142 46.0066 18.8239C46.1923 18.5066 46.332 18.1579 46.4257 17.7793C46.5173 17.4017 46.564 17.0415 46.564 16.7019C46.564 16.1543 46.4763 15.7257 46.3013 15.4184C46.1265 15.1123 45.8093 14.9583 45.3507 14.9583Z" fill="#4D4D4D"/>
<path d="M51.6294 21.7694H49.2026L51.2503 13.117H53.6929L51.6294 21.7694ZM52.8075 12.0628C52.4693 12.0628 52.1626 11.9617 51.8908 11.759C51.6177 11.5575 51.4805 11.2473 51.4805 10.8293C51.4805 10.5993 51.5277 10.3836 51.6201 10.1801C51.7126 9.97696 51.8357 9.80208 51.9891 9.65339C52.1414 9.50592 52.3204 9.38811 52.5215 9.29935C52.723 9.212 52.9386 9.16833 53.1676 9.16833C53.5066 9.16833 53.8129 9.26949 54.0855 9.47221C54.3584 9.67594 54.4962 9.9861 54.4962 10.4019C54.4962 10.6326 54.4472 10.8492 54.3556 11.0523C54.264 11.2554 54.1408 11.4303 53.988 11.579C53.8343 11.7267 53.6575 11.8441 53.456 11.932C53.2529 12.0208 53.0377 12.0628 52.8075 12.0628Z" fill="#4D4D4D"/>
<path d="M55.4405 13.5104C55.6245 13.4564 55.8301 13.3914 56.0536 13.3207C56.2779 13.25 56.5285 13.1842 56.8085 13.1249C57.0854 13.0637 57.398 13.0142 57.7416 12.9758C58.0853 12.9366 58.4769 12.9175 58.912 12.9175C60.1909 12.9175 61.0724 13.2914 61.5591 14.0371C62.0454 14.7828 62.1296 15.8032 61.814 17.0967L60.6986 21.7685H58.2579L59.3389 17.195C59.4048 16.9094 59.4566 16.6334 59.4948 16.3636C59.5335 16.0963 59.5312 15.8607 59.4861 15.6568C59.443 15.4553 59.3415 15.2904 59.1839 15.1626C59.0239 15.0369 58.7822 14.9737 58.4543 14.9737C58.1381 14.9737 57.8165 15.0078 57.4882 15.0736L55.8988 21.7683H53.4571L55.4405 13.5104Z" fill="#4D4D4D"/>
</g>
<defs>
<clipPath id="clip0_17_168">
<rect width="62" height="13" fill="white" transform="translate(0 9)"/>
</clipPath>
</defs>
</svg>
