<svg width="704" height="181" viewBox="0 0 704 181" fill="none" xmlns="http://www.w3.org/2000/svg">
<path d="M77.7672 90.1202V6.05526H64.9998V2.78638H107.019V6.05526H94.2518V86.8513H107.019V90.1202H77.7672Z" fill="#0995C6"/>
<path d="M205.869 68.8728C205.236 70.7231 204.519 72.5413 203.713 74.321C202.928 76.2115 201.992 78.0339 200.912 79.7692C199.988 81.2969 198.885 82.7055 197.626 83.9643C194.977 86.63 191.722 88.5948 188.144 89.6847C184.545 90.7765 180.803 91.3091 177.047 91.2648C171.421 91.3389 165.865 89.9906 160.885 87.3421C156.035 84.7182 151.72 81.187 148.172 76.9361C144.602 72.6146 141.78 67.7152 139.822 62.444C137.842 57.2265 136.82 51.6879 136.805 46.0996C136.762 40.1256 137.746 34.1895 139.714 28.5566C141.777 23.0092 144.888 17.9206 148.872 13.5741C152.544 9.412 156.993 6.02388 161.963 3.60404C167.011 1.18961 172.54 -0.0218789 178.124 0.0627404C181.782 0.0348164 185.421 0.60515 188.899 1.75166C192.283 2.96129 195.409 4.81011 198.111 7.19981L203.497 1.75166H206.407V26.7042H202.583C202.29 24.9515 201.876 23.2219 201.343 21.5284C200.671 19.7765 199.899 18.0664 199.025 16.4071C198.268 14.7614 197.328 13.208 196.225 11.7763C195.107 10.3819 193.801 9.15318 192.346 8.126C190.134 6.69356 187.766 5.52358 185.289 4.63918C182.821 3.813 180.239 3.39001 177.64 3.38612C173.872 3.24471 170.141 4.16924 166.865 6.05571C164.11 7.7951 161.817 10.1891 160.185 13.0294C158.411 16.0533 157.189 19.375 156.576 22.836C156 26.4389 155.712 30.0827 155.714 33.7323C155.714 36.6743 155.714 40.2701 155.39 44.6286C155.175 48.8936 155.175 53.1668 155.39 57.4318C155.572 61.6627 156.095 65.8718 156.953 70.017C157.611 73.7316 159.084 77.25 161.263 80.3139C163.004 82.7485 165.294 84.7281 167.942 86.0889C170.506 87.3903 173.318 88.1152 176.185 88.2137C182.119 88.5043 187.967 86.6934 192.724 83.0925C195.766 80.7737 198.161 77.6947 199.672 74.1575C201.194 70.7241 202.437 67.171 203.39 63.5337H207.214C206.924 65.3808 206.491 67.2022 205.922 68.9818" fill="#0995C6"/>
<path d="M420.555 75.7921C419.084 78.8203 416.924 81.4528 414.253 83.474C410.916 85.8112 407.138 87.4251 403.156 88.214C399.158 88.9852 395.102 89.3864 391.034 89.4124H358.011V5.51099H345.136V2.02417H388.233C392.203 2.04066 396.165 2.36853 400.084 3.00483C404.07 3.59603 407.896 4.98519 411.343 7.09095C413.858 8.64496 415.921 10.8442 417.323 13.4653C418.688 15.9383 419.462 18.6993 419.586 21.5285C419.653 24.3346 419.119 27.1221 418.023 29.7008C416.81 32.4302 414.961 34.8226 412.636 36.6745C410.109 38.9607 407.136 40.6868 403.908 41.7411C400.671 42.7843 397.357 43.5677 393.998 44.0838C397.223 44.4148 400.415 45.0345 403.533 45.9362C406.764 46.8198 409.849 48.1781 412.69 49.9678C415.432 51.6369 417.784 53.8857 419.586 56.5602C421.457 59.3731 422.417 62.705 422.333 66.0943C422.448 69.4194 421.841 72.7297 420.555 75.7921ZM401.377 15.8625C400.997 13.6002 400.071 11.4674 398.684 9.65158C397.363 8.04405 395.601 6.86858 393.62 6.27372C391.483 5.61458 389.278 5.21227 387.047 5.07514C384.731 5.07514 382.469 5.07514 380.206 5.07514C377.943 5.07514 376.004 5.07514 374.442 5.07514V42.6129C378.751 42.6129 382.63 42.6129 385.97 42.6129C388.939 42.6025 391.873 41.9718 394.59 40.7605C397.001 39.5359 398.908 37.4912 399.977 34.9855C401.416 31.1644 402.057 27.0837 401.862 22.9996C401.856 20.66 401.639 18.326 401.215 16.026L401.377 15.8625ZM394.375 47.1349C392.233 46.3826 390.007 45.9066 387.748 45.7184C385.435 45.5275 383.111 45.5275 380.799 45.7184C378.428 45.7184 376.327 45.7184 374.442 45.7184V86.1435H391.519C393.765 86.1872 395.962 85.4785 397.768 84.1277C399.515 82.6535 400.898 80.7882 401.808 78.6795C402.808 76.3488 403.497 73.8937 403.854 71.3791C404.152 68.7543 404.152 66.1041 403.854 63.4793C403.615 60.9845 403.129 58.5205 402.402 56.1243C401.794 54.1326 400.805 52.2812 399.491 50.6761C398.044 49.0032 396.185 47.7444 394.105 47.0258" fill="#0995C6"/>
<path d="M532.707 28.448C530.724 23.2197 527.844 18.3873 524.196 14.1738C520.801 10.156 516.713 6.79614 512.13 4.25814C507.537 1.72623 502.433 0.283094 497.207 0.0377042C491.982 -0.207686 486.768 0.751088 481.962 2.84162C476.356 5.30449 471.38 9.03163 467.416 13.738C459.516 22.4311 455.218 33.8587 455.404 45.6641C455.218 57.4695 459.516 68.8971 467.416 77.5902C471.38 82.2964 476.356 86.0237 481.962 88.4864C486.819 90.5284 492.062 91.4586 497.315 91.2105C502.483 91.0039 507.541 89.646 512.13 87.2334C516.809 84.7231 520.991 81.3617 524.466 77.3177C528.101 73.1153 530.981 68.303 532.978 63.0981C535.112 57.5783 536.19 51.6994 536.157 45.773C536.19 39.8644 535.111 34.0034 532.978 28.5024L532.707 28.448ZM516.816 61.1913C516.795 64.7156 516.487 68.2321 515.9 71.7062C515.322 75.1604 513.875 78.4061 511.698 81.1315C509.883 83.6342 507.369 85.5314 504.481 86.5797C501.599 87.566 498.578 88.0631 495.538 88.0507C491.971 88.179 488.427 87.4508 485.193 85.9259C482.567 84.5744 480.323 82.5681 478.676 80.0963C476.998 77.5387 475.845 74.6674 475.281 71.6518C474.618 68.2425 474.294 64.7748 474.312 61.3002V30.1369C474.322 26.6456 474.646 23.1625 475.281 19.7309C475.88 16.2502 477.326 12.9742 479.485 10.1966C481.273 7.71339 483.747 5.81845 486.595 4.74847C489.461 3.79408 492.466 3.33365 495.484 3.38644C499.038 3.25605 502.569 4.00407 505.773 5.56569C508.348 6.90474 510.538 8.89404 512.13 11.3407C513.825 13.8947 514.998 16.7661 515.577 19.7854C516.286 23.1886 516.629 26.6591 516.601 30.1369L516.816 61.1913Z" fill="#0995C6"/>
<path d="M596.819 89.4125V86.1435H610.071L589.761 53.1279L565.089 89.5215H560.563L587.446 49.7499L560.726 5.29306H550.867V2.02417H579.203V5.29306L597.25 35.3124L617.667 5.29306H617.828V2.02417H634.259V5.29306H622.084L599.35 38.7447L629.303 86.1435H639V89.4125H596.819Z" fill="#0995C6"/>
<path d="M301.603 79.0065C299.503 81.7263 296.653 83.755 293.414 84.836C289.788 85.9576 285.997 86.4367 282.208 86.2525H267.825V46.1542C271.758 46.1542 275.691 46.1542 279.569 45.8817C282.666 45.6393 285.782 45.9342 288.781 46.7535C291.734 47.4954 294.354 49.223 296.215 51.6568C298.015 54.4018 298.972 57.6247 298.964 60.9186H302.788V32.0435H299.071C299.071 32.4793 299.071 32.9151 299.071 33.2421C298.96 33.8155 298.761 34.3673 298.478 34.8765L297.455 36.3475C296.97 36.9195 296.521 37.5199 296.107 38.1454C294.65 40.0597 292.569 41.3912 290.236 41.9046C287.915 42.671 285.507 43.129 283.07 43.2666C280.218 43.4308 277.357 43.4308 274.505 43.2666C271.704 43.2666 269.495 42.9397 267.933 42.9397V5.51099C273.32 5.51099 278.114 5.51099 282.316 5.51099C286.104 5.35414 289.89 5.83278 293.522 6.9275C296.761 8.00846 299.611 10.0373 301.71 12.7571C304.196 16.3637 305.937 20.4403 306.828 24.743H310.761L309.845 2.02417H238.627V5.51099H251.394V86.1435H238.627V89.4124H309.845L310.653 68.1102H306.397C305.526 72.0268 303.897 75.7303 301.603 79.0065Z" fill="#0995C6"/>
<path d="M19.88 159.68H8.76L6.92 165H1.04L11.08 137.04H17.6L27.64 165H21.72L19.88 159.68ZM18.36 155.2L14.32 143.52L10.28 155.2H18.36ZM50.3928 137.08V141.6H42.9528V165H37.3528V141.6H29.9128V137.08H50.3928ZM60.0788 160.56H69.2788V165H54.4788V137.08H60.0788V160.56ZM89.9581 159.68H78.8381L76.9981 165H71.1181L81.1581 137.04H87.6781L97.7181 165H91.7981L89.9581 159.68ZM88.4381 155.2L84.3981 143.52L80.3581 155.2H88.4381ZM125.351 165H119.751L107.071 145.84V165H101.471V137.04H107.071L119.751 156.24V137.04H125.351V165ZM149.885 137.08V141.6H142.445V165H136.845V141.6H129.405V137.08H149.885ZM171.091 159.68H159.971L158.131 165H152.251L162.291 137.04H168.811L178.851 165H172.931L171.091 159.68ZM169.571 155.2L165.531 143.52L161.491 155.2H169.571Z" fill="#0995C6"/>
<path d="M308.274 137.08V165H302.674V146.84L295.194 165H290.954L283.434 146.84V165H277.834V137.08H284.194L293.074 157.84L301.954 137.08H308.274ZM319.411 137.08V165H313.811V137.08H319.411ZM342.064 159.68H330.944L329.104 165H323.224L333.264 137.04H339.784L349.824 165H343.904L342.064 159.68ZM340.544 155.2L336.504 143.52L332.464 155.2H340.544ZM384.016 137.08V165H378.416V146.84L370.936 165H366.696L359.176 146.84V165H353.576V137.08H359.936L368.816 157.84L377.696 137.08H384.016ZM395.153 137.08V165H389.553V137.08H395.153Z" fill="#0995C6"/>
<path d="M520.042 165H514.442L501.762 145.84V165H496.162V137.04H501.762L514.442 156.24V137.04H520.042V165ZM531.176 141.6V148.6H540.576V153.04H531.176V160.44H541.776V165H525.576V137.04H541.776V141.6H531.176ZM584.185 137.08L576.385 165H569.785L564.545 145.12L559.065 165L552.505 165.04L544.985 137.08H550.985L555.905 158.76L561.585 137.08H567.825L573.185 158.64L578.145 137.08H584.185ZM619.573 137.08L610.133 155.28V165H604.533V155.28L595.053 137.08H601.373L607.373 149.84L613.333 137.08H619.573ZM635.763 165.28C633.15 165.28 630.75 164.667 628.563 163.44C626.376 162.213 624.643 160.52 623.363 158.36C622.083 156.173 621.443 153.707 621.443 150.96C621.443 148.24 622.083 145.8 623.363 143.64C624.643 141.453 626.376 139.747 628.563 138.52C630.75 137.293 633.15 136.68 635.763 136.68C638.403 136.68 640.803 137.293 642.963 138.52C645.15 139.747 646.87 141.453 648.123 143.64C649.403 145.8 650.043 148.24 650.043 150.96C650.043 153.707 649.403 156.173 648.123 158.36C646.87 160.52 645.15 162.213 642.963 163.44C640.776 164.667 638.376 165.28 635.763 165.28ZM635.763 160.28C637.443 160.28 638.923 159.907 640.203 159.16C641.483 158.387 642.483 157.293 643.203 155.88C643.923 154.467 644.283 152.827 644.283 150.96C644.283 149.093 643.923 147.467 643.203 146.08C642.483 144.667 641.483 143.587 640.203 142.84C638.923 142.093 637.443 141.72 635.763 141.72C634.083 141.72 632.59 142.093 631.283 142.84C630.003 143.587 629.003 144.667 628.283 146.08C627.563 147.467 627.203 149.093 627.203 150.96C627.203 152.827 627.563 154.467 628.283 155.88C629.003 157.293 630.003 158.387 631.283 159.16C632.59 159.907 634.083 160.28 635.763 160.28ZM668.609 165L662.449 154.12H659.809V165H654.209V137.08H664.689C666.849 137.08 668.689 137.467 670.209 138.24C671.729 138.987 672.863 140.013 673.609 141.32C674.383 142.6 674.769 144.04 674.769 145.64C674.769 147.48 674.236 149.147 673.169 150.64C672.103 152.107 670.516 153.12 668.409 153.68L675.089 165H668.609ZM659.809 149.92H664.489C666.009 149.92 667.143 149.56 667.889 148.84C668.636 148.093 669.009 147.067 669.009 145.76C669.009 144.48 668.636 143.493 667.889 142.8C667.143 142.08 666.009 141.72 664.489 141.72H659.809V149.92ZM695.594 165L685.434 152.56V165H679.834V137.08H685.434V149.6L695.594 137.08H702.354L690.834 150.92L702.674 165H695.594Z" fill="#0995C6"/>
<rect x="225" y="129" width="5" height="44" fill="#0995C6"/>
<rect x="443" y="129" width="5" height="44" fill="#0995C6"/>
</svg>
