<svg width="62" height="31" viewBox="0 0 62 31" fill="none" xmlns="http://www.w3.org/2000/svg">
<rect width="62" height="31" fill="white"/>
<path d="M29.7568 7.28261L26.4163 22.7571H22.3758L25.7166 7.28261H29.7568ZM46.7547 17.2747L48.8811 11.4637L50.1049 17.2747H46.7547ZM51.2641 22.7571H55L51.7361 7.28261H48.29C47.5134 7.28261 46.8586 7.72881 46.5688 8.41689L40.5065 22.7571H44.7497L45.592 20.446H50.7748L51.2641 22.7571ZM40.7169 17.7052C40.7345 13.6212 35.0192 13.395 35.0575 11.5702C35.0698 11.0157 35.6037 10.4251 36.7706 10.2741C37.3491 10.2003 38.9456 10.1404 40.7552 10.9667L41.463 7.68391C40.4911 7.33552 39.2403 7 37.6839 7C33.6898 7 30.8801 9.1022 30.8576 12.1149C30.8319 14.3427 32.8647 15.5849 34.393 16.3269C35.9687 17.0853 36.4966 17.5715 36.4889 18.2492C36.478 19.2874 35.2325 19.7472 34.0726 19.7646C32.0403 19.7959 30.8622 19.2202 29.9232 18.7866L29.1898 22.179C30.1354 22.6078 31.8776 22.9809 33.6817 23C37.928 23 40.7043 20.9225 40.7169 17.7052ZM23.9835 7.28261L17.4372 22.7571H13.167L9.94531 10.4074C9.75001 9.64793 9.57966 9.3688 8.98568 9.0479C8.01411 8.52514 6.41029 8.03613 5 7.73194L5.09554 7.28261H11.9703C12.846 7.28261 13.6338 7.86002 13.8344 8.85961L15.5362 17.8148L19.739 7.28261H23.9835Z" fill="#1434CB"/>
</svg>
