<svg xmlns="http://www.w3.org/2000/svg" width="24" height="24" viewBox="0 0 6.35 6.35" id="protection"><path d="M3.176 290.915a.26.26 0 0 0-.106.022l-1.851.794a.265.265 0 0 0-.16.253v2.617a.25.25 0 0 0 0 .019c0 .592.299 1.022.685 1.32.386.298.856.504 1.3.76a.264.264 0 0 0 .263 0c.443-.256.912-.462 1.298-.76.387-.298.686-.728.686-1.32v-2.558c.002-.158-.01-.267-.16-.33l-1.852-.795a.264.264 0 0 0-.103-.022zm0 .553 1.586.68v2.473c0 .43-.168.66-.479.9-.277.214-.689.413-1.107.646-.419-.233-.831-.432-1.11-.646-.31-.24-.478-.47-.478-.9v-2.472zm.804 1.695h-.028a.268.268 0 0 0-.139.056l-.875.656-.367-.368c-.249-.26-.634.123-.375.374l.53.53c.092.093.24.103.345.025l1.059-.794a.265.265 0 0 0-.15-.48z" color="#000" font-family="sans-serif" font-weight="400" overflow="visible" transform="translate(0 -290.65)" style="line-height:normal;font-variant-ligatures:normal;font-variant-position:normal;font-variant-caps:normal;font-variant-numeric:normal;font-variant-alternates:normal;font-feature-settings:normal;text-indent:0;text-align:start;text-decoration-line:none;text-decoration-style:solid;text-decoration-color:#000;text-transform:none;text-orientation:mixed;shape-padding:0;isolation:auto;mix-blend-mode:normal"></path></svg>