<svg width="62" height="31" viewBox="0 0 62 31" fill="none" xmlns="http://www.w3.org/2000/svg">
<path d="M46.5 0C55.06 0 62 6.93997 62 15.5C62 24.06 55.0597 31 46.5 31C37.9403 31 31 24.0619 31 15.5C31 6.93811 37.939 0 46.5 0Z" fill="#53AE94"/>
<path d="M48.4131 13.4347V11.129H53.6859V7.61572H39.3279V11.129H44.6013V13.4329C40.3156 13.6297 37.0931 14.4785 37.0931 15.4953C37.0931 16.5121 40.3171 17.3609 44.6013 17.559V24.9447H48.4143V17.5584C52.6923 17.3609 55.9083 16.5127 55.9083 15.4969C55.9083 14.481 52.6923 13.6328 48.4143 13.4354M48.4143 16.9328V16.9309C48.3068 16.9377 47.754 16.9709 46.5233 16.9709C45.5394 16.9709 44.8472 16.943 44.6032 16.9303V16.9334C40.8169 16.7657 37.9906 16.1063 37.9906 15.3174C37.9906 14.5284 40.8172 13.87 44.6032 13.702V16.2765C44.8512 16.2936 45.5605 16.3354 46.5395 16.3354C47.7153 16.3354 48.3065 16.2864 48.415 16.2765V13.702C52.1939 13.8703 55.0136 14.5303 55.0136 15.3164C55.0136 16.1026 52.1926 16.7629 48.415 16.9312" fill="white"/>
</svg>
