<svg xmlns="http://www.w3.org/2000/svg" viewBox="0 0 48 48" id="call"><path d="M37.63 27.34a5 5 0 0 0-7.07 0l-2.13 2.12a3 3 0 0 1-4.24 0l-5.65-5.65a3 3 0 0 1 0-4.24c2-2 3.58-3.14 3.58-5.66 0-2.76-1.15-3.22-9.24-11.32a5 5 0 0 0-7.07 0L4.39 4a15 15 0 0 0 0 21.21l18.39 18.4a15 15 0 0 0 21.21 0l1.42-1.42a5 5 0 0 0 0-7.07zM44 40.78a16.74 16.74 0 0 1-4.69 3.79l-8-8A1 1 0 0 0 29.85 38l7.45 7.4a13 13 0 0 1-13.11-3.21L5.81 23.81A13 13 0 0 1 2.6 10.7l7.45 7.45a1 1 0 0 0 1.41-1.41l-8-8A16.78 16.78 0 0 1 7.22 4a3 3 0 0 1 4.24 0c8.32 8.32 8.66 8.23 8.66 9.9s-1.09 2.33-3 4.24a5 5 0 0 0 0 7.07l5.66 5.66a5 5 0 0 0 7.07 0L32 28.76a3.08 3.08 0 0 1 4.24 0L44 36.54a3 3 0 0 1 0 4.24zM36 19a1 1 0 0 0 2 0c0-8.06-10-10.78-10-8a1 1 0 0 0 1 1 7 7 0 0 1 7 7zM29 0a1 1 0 0 0 0 2 17 17 0 0 1 17 17 1 1 0 0 0 2 0A19 19 0 0 0 29 0z"></path></svg>