<svg xmlns="http://www.w3.org/2000/svg" enable-background="new 0 0 512 512" viewBox="0 0 512 512" id="delivery-time"><path fill="none" stroke="#231F20" stroke-linecap="round" stroke-linejoin="round" stroke-miterlimit="10" stroke-width="15" d="
			M325.55,368.91c0,45.65,37.01,82.66,82.66,82.66c19.06,0,36.61-6.45,50.59-17.29V495H18V108h440.8v195.55
			c-13.98-10.84-31.53-17.29-50.59-17.29C362.56,286.26,325.55,323.26,325.55,368.91z"></path><rect width="51.886" height="103.106" x="212.457" y="108" fill="none" stroke="#231F20" stroke-linecap="round" stroke-linejoin="round" stroke-miterlimit="10" stroke-width="15"></rect><polygon fill="none" stroke="#231F20" stroke-linecap="round" stroke-linejoin="round" stroke-miterlimit="10" stroke-width="15" points="390.985 18 85.815 18 18 108 458.801 108"></polygon><polygon fill="none" stroke="#231F20" stroke-linecap="round" stroke-linejoin="round" stroke-miterlimit="10" stroke-width="15" points="256.361 18 220.44 18 212.457 108 264.344 108"></polygon><path fill="none" stroke="#231F20" stroke-linecap="round" stroke-linejoin="round" stroke-miterlimit="10" stroke-width="15" d="
			M458.8,303.55c-13.98-10.84-31.53-17.29-50.59-17.29c-45.65,0-82.66,37-82.66,82.65c0,45.65,37.01,82.66,82.66,82.66
			c19.06,0,36.61-6.45,50.59-17.29c19.51-15.12,32.07-38.78,32.07-65.37C490.87,342.32,478.31,318.66,458.8,303.55z"></path><line x1="45" x2="144" y1="459" y2="459" fill="none" stroke="#231F20" stroke-linecap="round" stroke-linejoin="round" stroke-miterlimit="10" stroke-width="15"></line><polyline fill="none" stroke="#231F20" stroke-linecap="round" stroke-linejoin="round" stroke-miterlimit="10" stroke-width="15" points="63 432 63 360 45 378"></polyline><polyline fill="none" stroke="#231F20" stroke-linecap="round" stroke-linejoin="round" stroke-miterlimit="10" stroke-width="15" points="144 378 126 360 126 369 126 432"></polyline><line x1="126" x2="108" y1="360" y2="378" fill="none" stroke="#231F20" stroke-linecap="round" stroke-linejoin="round" stroke-miterlimit="10" stroke-width="15"></line><line x1="63" x2="81" y1="360" y2="378" fill="none" stroke="#231F20" stroke-linecap="round" stroke-linejoin="round" stroke-miterlimit="10" stroke-width="15"></line><polyline fill="none" stroke="#231F20" stroke-linecap="round" stroke-linejoin="round" stroke-miterlimit="10" stroke-width="15" points="408.21 324.024 408.21 374.197 432 396"></polyline></svg>