<svg width="24" height="24" viewBox="0 0 25 24" fill="none" xmlns="http://www.w3.org/2000/svg">
<path d="M2.24756 6.99805L11.9335 12.6034L21.5536 7.03092" stroke="currentColor" stroke-linecap="round" stroke-linejoin="round"></path>
<path d="M11.9336 22.5425V12.5933" stroke="currentColor" stroke-linecap="round" stroke-linejoin="round"></path>
<path d="M22.4751 8.89578V15.1045C22.4751 15.1593 22.4751 15.2031 22.4642 15.258C21.6963 14.5888 20.7091 14.194 19.6121 14.194C18.581 14.194 17.6267 14.556 16.8698 15.1593C15.8606 15.96 15.2244 17.1996 15.2244 18.5817C15.2244 19.4044 15.4547 20.1832 15.8606 20.8414C15.9593 21.0169 16.08 21.1815 16.2116 21.335L14.2043 22.4429C12.9538 23.145 10.9134 23.145 9.66294 22.4429L3.80532 19.196C2.47803 18.461 1.39209 16.6182 1.39209 15.1045V8.89578C1.39209 7.38201 2.47803 5.53918 3.80532 4.80424L9.66294 1.55729C10.9134 0.855252 12.9538 0.855252 14.2043 1.55729L20.0619 4.80424C21.3892 5.53918 22.4751 7.38201 22.4751 8.89578Z" stroke="currentColor" stroke-linecap="round" stroke-linejoin="round"></path>
<path d="M24.0001 18.5816C24.0001 19.8979 23.4187 21.0716 22.5083 21.8724C21.7294 22.5525 20.7202 22.9693 19.6123 22.9693C17.1881 22.9693 15.2246 21.0058 15.2246 18.5816C15.2246 17.1994 15.8608 15.9599 16.87 15.1592C17.6269 14.5558 18.5812 14.1938 19.6123 14.1938C22.0366 14.1938 24.0001 16.1574 24.0001 18.5816Z" stroke="currentColor" stroke-miterlimit="10" stroke-linecap="round" stroke-linejoin="round"></path>
<path d="M19.8868 17.2104V18.8558L18.5156 19.6785" stroke="currentColor" stroke-miterlimit="10" stroke-linecap="round" stroke-linejoin="round"></path>
</svg>