<svg width="62" height="36" viewBox="0 0 62 36" fill="none" xmlns="http://www.w3.org/2000/svg">
<rect width="62" height="36" fill="#010101"/>
<path d="M37.2432 8.60272H25.3516V27.7445H37.2432V8.60272Z" fill="#F16122"/>
<path d="M26.5793 18.1737C26.5793 14.2904 28.4243 10.8319 31.2975 8.60279C29.1962 6.9727 26.5449 6 23.6634 6C16.8416 6 11.3113 11.4505 11.3113 18.1737C11.3113 24.8969 16.8416 30.3474 23.6634 30.3474C26.5449 30.3474 29.1962 29.3749 31.2975 27.7446C28.4243 25.5157 26.5793 22.0572 26.5793 18.1737Z" fill="#E91D25"/>
<path d="M51.2835 18.1737C51.2835 24.8969 45.7532 30.3474 38.9314 30.3474C36.0499 30.3474 33.3986 29.3749 31.2973 27.7446C34.1705 25.5155 36.0153 22.057 36.0153 18.1737C36.0153 14.2904 34.1703 10.8319 31.2973 8.60279C33.3986 6.9727 36.0496 6 38.9314 6C45.7534 6 51.2835 11.4505 51.2835 18.1737Z" fill="#F79E1D"/>
</svg>
