<svg width="62" height="36" viewBox="0 0 62 36" fill="none" xmlns="http://www.w3.org/2000/svg">
<rect width="62" height="36" fill="#006FCF"/>
<path fill-rule="evenodd" clip-rule="evenodd" d="M61.9465 19.495H58.7242C57.7518 19.495 57.0454 19.7272 56.5451 20.0882V19.495H51.7789C51.0167 19.495 50.1221 19.6834 49.6989 20.0882V19.495H41.1877V20.0882C40.5104 19.601 39.3674 19.495 38.8399 19.495H33.2258V20.0882C32.69 19.5708 31.4982 19.495 30.7719 19.495H24.4888L23.051 21.0463L21.7044 19.495H12.3188V29.6309H21.5277L23.0093 28.055L24.4049 29.6309L30.0813 29.6359V27.2516H30.6394C31.3926 27.2632 32.2809 27.2329 33.0646 26.8952V29.6307H37.7466V26.9889H37.9725C38.2607 26.9889 38.2891 27.0008 38.2891 27.2879V29.6305H52.5123C53.4153 29.6305 54.3592 29.4 54.8819 28.9818V29.6305H59.3934C60.3323 29.6305 61.2491 29.4992 61.9467 29.1632C61.9467 -26.2934 61.9465 42.7144 61.9465 19.495Z" fill="white"/>
<path fill-rule="evenodd" clip-rule="evenodd" d="M2.97511 17.1289L3.64589 15.5158H5.14761L5.81663 17.1289H11.67V15.8956L12.1924 17.1341H15.231L15.7535 15.8772V17.1289H30.3001L30.2933 14.481H30.5748C30.7719 14.4878 30.8294 14.506 30.8294 14.8304V17.1289H38.353V16.5125C38.9598 16.8367 39.9037 17.1289 41.1457 17.1289H44.3109L44.9883 15.5158H46.49L47.1524 17.1289H53.2518V15.5966L54.1755 17.1289H59.0632V7H54.226V8.19623L53.5487 7H48.5852V8.19623L47.9632 7H41.2587C40.1364 7 39.1499 7.15618 38.353 7.59144V7H33.7263V7.59144C33.2192 7.14282 32.5282 7 31.7599 7H14.8569L13.7227 9.61612L12.558 7H7.23399V8.19623L6.64912 7H2.10857L0 11.8158V17.1289H2.97511Z" fill="white"/>
<path fill-rule="evenodd" clip-rule="evenodd" d="M30.7165 25.7569C32.2384 25.7569 33.7485 25.3402 33.7485 23.3223C33.7485 21.3106 32.196 20.9292 30.8143 20.9292H25.2507L23.036 23.3103L20.8939 20.9292H13.891V28.1933H20.7877L23.0158 25.7886L25.1598 28.1933H28.544V25.7569H30.7165ZM28.544 24.2816H30.794C31.4631 24.2816 31.8792 23.9506 31.8792 23.3224C31.8792 22.6871 31.4429 22.4317 30.8143 22.4317H28.544V24.2816ZM19.9063 26.6795H15.6254V25.2342H19.4479V23.7521H15.6254V22.4315H19.9906L21.8951 24.5484L19.9063 26.6795ZM26.8098 27.5327L24.1366 24.5738L26.8098 21.7089V27.5327Z" fill="#006FCF"/>
<path fill-rule="evenodd" clip-rule="evenodd" d="M41.1947 25.4274C41.0462 25.2158 40.7294 24.9602 40.3418 24.8176C40.8001 24.6362 41.5757 24.0445 41.5759 22.8851C41.5759 22.0564 41.2303 21.603 40.6808 21.272C40.1094 20.968 39.4674 20.9292 38.5859 20.9292H34.5661V28.1933H36.3156V25.5402H38.1763C38.8115 25.5402 39.1993 25.6024 39.4537 25.8627C39.7451 26.1667 39.74 26.7214 39.7361 27.1479C39.7356 27.1952 39.7352 27.2409 39.7352 27.2845V28.1933H41.4832V26.7533C41.4762 26.113 41.4406 25.782 41.1947 25.4274ZM39.2903 23.9136C39.0574 24.0514 38.7694 24.0632 38.4306 24.0632H36.3154V22.4317H38.4593C38.7694 22.4317 39.0796 22.4383 39.2903 22.5629C39.5159 22.6806 39.6508 22.9055 39.6508 23.2163C39.6508 23.5272 39.5159 23.7776 39.2903 23.9136Z" fill="#006FCF"/>
<path d="M55.0014 24.3622C55.3404 24.712 55.5221 25.1536 55.5221 25.9012C55.5221 27.4639 54.5429 28.1933 52.7869 28.1933H49.3957V26.6357H52.7733C53.1035 26.6357 53.3377 26.5921 53.4845 26.4558C53.6043 26.3435 53.6902 26.1803 53.6902 25.982C53.6902 25.7704 53.5972 25.6024 53.4777 25.5017C53.3446 25.3908 53.1609 25.3404 52.8577 25.3404C52.7511 25.3368 52.6427 25.3339 52.5332 25.3309C50.9711 25.2886 49.1903 25.2403 49.1903 23.0921C49.1903 22.0385 49.8542 20.9294 51.6796 20.9294H55.1701V22.4755H51.9762C51.6596 22.4755 51.4537 22.4873 51.2786 22.6067C51.0879 22.7243 51.0172 22.8989 51.0172 23.1293C51.0172 23.4034 51.1791 23.5898 51.3981 23.6704C51.5818 23.7341 51.7791 23.7528 52.0757 23.7528L53.013 23.7779C53.9582 23.801 54.607 23.9639 55.0014 24.3622Z" fill="#006FCF"/>
<path d="M61.9467 22.475H58.7734C58.4566 22.475 58.2461 22.4868 58.0688 22.6062C57.8851 22.7239 57.8144 22.8984 57.8144 23.1289C57.8144 23.4029 57.9695 23.5893 58.1951 23.6699C58.3788 23.7337 58.5761 23.7523 58.8661 23.7523L59.8098 23.7775C60.762 23.8009 61.3976 23.9641 61.7852 24.3621C61.8447 24.4089 61.8842 24.4605 61.9243 24.5129L61.9351 24.5271L61.9421 24.536L61.9467 24.542V27.2642C61.5237 27.8808 60.6996 28.1934 59.5839 28.1934H56.2215V26.6357H59.5703C59.9025 26.6357 60.1349 26.5921 60.2749 26.4559C60.3962 26.3435 60.4808 26.1803 60.4808 25.9821C60.4808 25.7704 60.3962 25.6024 60.2681 25.5017C60.1418 25.3908 59.9579 25.3405 59.6547 25.3405C59.5477 25.3368 59.439 25.3339 59.3293 25.3309C57.7617 25.2886 55.9802 25.2405 55.9802 23.0921C55.9802 22.0385 56.6512 20.9294 58.4783 20.9294H61.9465L61.9467 22.475Z" fill="#006FCF"/>
<path d="M42.5414 20.9292H48.3525V22.4314H44.2753V23.7521H48.253V25.2342H44.2753V26.6795L48.3525 26.6861V28.1933H42.5414V20.9292Z" fill="#006FCF"/>
<path fill-rule="evenodd" clip-rule="evenodd" d="M5.58395 12.558L4.39224 9.66278L3.20734 12.558H5.58395ZM31.8373 11.4052C31.598 11.55 31.315 11.5548 30.976 11.5548H28.8608V9.9417H31.0048C31.3082 9.9417 31.6248 9.95528 31.8304 10.0727C32.0563 10.1785 32.196 10.4037 32.196 10.7147C32.196 11.0321 32.0631 11.2875 31.8373 11.4052ZM46.9266 12.558L45.7217 9.66278L44.5234 12.558H46.9266ZM18.7991 15.6917H17.0142L17.0076 10.0039L14.4829 15.6917H12.9542L10.4229 9.99882V15.6917H6.88156L6.21254 14.0718H2.5873L1.91147 15.6917H0.0204163L3.13834 8.42932H5.72522L8.68648 15.3053V8.42932H11.5282L13.8069 13.356L15.9 8.42932H18.7989V15.6917H18.7991ZM25.9132 15.6917H20.0968V8.42932H25.9132V9.94165H21.838V11.2507H25.8154V12.7394H21.838V14.1897H25.9132V15.6917ZM34.1141 10.3852C34.1141 11.5431 33.339 12.1413 32.8872 12.321C33.2682 12.4655 33.5936 12.721 33.7485 12.9326C33.9944 13.2938 34.0368 13.6164 34.0368 14.265V15.6917H32.2806L32.274 14.7759C32.274 14.3389 32.316 13.7104 31.9992 13.361C31.7447 13.1056 31.3569 13.0502 30.7301 13.0502H28.861V15.6917H27.12V8.42932H31.1247C32.0145 8.42932 32.6702 8.45276 33.2331 8.77717C33.7839 9.10159 34.1141 9.57517 34.1141 10.3852ZM36.9005 15.6917H35.1239V8.42932H36.9005V15.6917ZM57.5112 15.6917H55.0438L51.7435 10.2409V15.6917H48.1976L47.52 14.0718H43.9031L43.2457 15.6917H41.2084C40.362 15.6917 39.2905 15.5051 38.6837 14.8885C38.0718 14.2718 37.7534 13.4366 37.7534 12.1159C37.7534 11.0389 37.9437 10.0542 38.692 9.27617C39.2549 8.69656 40.1364 8.42932 41.3362 8.42932H43.0219V9.98546H41.3716C40.7362 9.98546 40.3774 10.0796 40.0318 10.4157C39.735 10.7215 39.5313 11.2995 39.5313 12.0607C39.5313 12.8388 39.6864 13.3998 40.0101 13.7663C40.2781 14.0537 40.7652 14.1408 41.2235 14.1408H42.0055L44.4594 8.42954H47.0683L50.0161 15.2987V8.42954H52.6672L55.7278 13.4874V8.42954H57.5112V15.6917Z" fill="#006FCF"/>
</svg>
