<svg width="62" height="36" viewBox="0 0 62 36" fill="none" xmlns="http://www.w3.org/2000/svg">
<rect width="62" height="36" fill="#F7931A"/>
<path d="M11.1362 15.2191C11.6996 15.2191 12.1864 15.3204 12.5954 15.5195C13.0064 15.7205 13.3455 15.9913 13.6176 16.3318C13.8859 16.6741 14.0857 17.0742 14.2147 17.5326C14.3428 17.9924 14.407 18.4867 14.407 19.0158C14.407 19.8286 14.2587 20.5964 13.9593 21.3202C13.6599 22.0451 13.2537 22.6739 12.737 23.2102C12.2207 23.7459 11.611 24.1682 10.908 24.4802C10.206 24.7924 9.44286 24.9485 8.62346 24.9485C8.51751 24.9485 8.33122 24.9454 8.06808 24.94C7.80493 24.9345 7.50249 24.9073 7.16379 24.8613C6.82291 24.8135 6.4625 24.7429 6.08189 24.6483C5.70151 24.5554 5.34022 24.4252 5 24.26L8.04224 11.424L10.7671 11L9.67778 15.555C9.91096 15.4495 10.1459 15.3677 10.3804 15.3082C10.6151 15.2496 10.8669 15.2191 11.1362 15.2191ZM8.85057 22.7779C9.26092 22.7779 9.6476 22.6765 10.0108 22.4775C10.3752 22.2782 10.6895 22.0092 10.9529 21.6741C11.2163 21.3375 11.4247 20.9583 11.5767 20.5347C11.7287 20.1111 11.8055 19.6692 11.8055 19.2094C11.8055 18.6445 11.7115 18.2039 11.5241 17.8854C11.3368 17.5682 10.99 17.4086 10.4865 17.4086C10.3215 17.4086 10.109 17.4402 9.8454 17.4967C9.58095 17.5566 9.34429 17.6811 9.13217 17.8684L7.97233 22.7057C8.04224 22.7182 8.10412 22.7299 8.15688 22.7411C8.20855 22.753 8.26565 22.7615 8.32254 22.7674C8.38268 22.7742 8.45151 22.7777 8.53466 22.7777C8.61782 22.7777 8.72182 22.7779 8.85057 22.7779Z" fill="white"/>
<path d="M17.2328 24.7027H14.6302L16.8281 15.4159H19.4485L17.2328 24.7027ZM18.4992 14.2843C18.136 14.2843 17.8066 14.1758 17.5144 13.9582C17.2198 13.7419 17.0739 13.409 17.0739 12.9603C17.0739 12.7135 17.1238 12.482 17.2228 12.2635C17.3233 12.0455 17.4547 11.8578 17.6193 11.6982C17.7836 11.54 17.974 11.4135 18.1903 11.3182C18.4078 11.2245 18.6393 11.1776 18.8859 11.1776C19.2489 11.1776 19.5766 11.2862 19.8699 11.5038C20.1621 11.7224 20.3091 12.0553 20.3091 12.5016C20.3091 12.7493 20.2594 12.9817 20.1595 13.1997C20.0603 13.4177 19.929 13.6054 19.7644 13.765C19.6013 13.9235 19.4092 14.0495 19.1934 14.1439C18.9756 14.2392 18.745 14.2843 18.4992 14.2843Z" fill="white"/>
<path d="M21.7293 13.102L24.4552 12.678L23.7858 15.4154H26.7052L26.178 17.569H23.2763L22.5033 20.8174C22.4321 21.0882 22.3917 21.3411 22.3804 21.5761C22.3676 21.8122 22.3974 22.015 22.4677 22.1857C22.5376 22.3568 22.6633 22.4887 22.8457 22.582C23.0272 22.6769 23.2871 22.7246 23.628 22.7246C23.9087 22.7246 24.1823 22.6978 24.4467 22.6446C24.7097 22.5923 24.9761 22.5195 25.2457 22.4242L25.4398 24.4378C25.0881 24.5673 24.7073 24.6787 24.2969 24.7724C23.8859 24.8675 23.3994 24.9133 22.837 24.9133C22.0285 24.9133 21.4017 24.7927 20.9551 24.5527C20.5091 24.3109 20.1938 23.9806 20.0052 23.5625C19.8191 23.1458 19.7359 22.6655 19.7592 22.1244C19.7833 21.582 19.8647 21.0119 20.0052 20.4115L21.7293 13.102Z" fill="white"/>
<path d="M26.5905 20.9942C26.5905 20.1943 26.7195 19.4399 26.9772 18.7338C27.2345 18.027 27.6051 17.4089 28.086 16.8785C28.5652 16.3506 29.1491 15.9325 29.8362 15.6255C30.5201 15.3203 31.2859 15.1664 32.1299 15.1664C32.6581 15.1664 33.1299 15.2165 33.545 15.317C33.9619 15.4184 34.339 15.5494 34.6801 15.7138L33.7825 17.7632C33.5481 17.6677 33.3047 17.5835 33.053 17.5072C32.8012 17.4294 32.4937 17.3919 32.1301 17.3919C31.2614 17.3919 30.5746 17.6925 30.0635 18.2919C29.5544 18.8916 29.298 19.6989 29.298 20.7116C29.298 21.3118 29.427 21.7971 29.6858 22.1684C29.9433 22.5397 30.419 22.7244 31.1096 22.7244C31.4505 22.7244 31.7794 22.6886 32.0945 22.6188C32.4119 22.5482 32.6922 22.4592 32.939 22.3542L33.1334 24.455C32.8042 24.5832 32.4412 24.6989 32.043 24.8003C31.6439 24.8982 31.1689 24.949 30.6181 24.949C29.8909 24.949 29.2754 24.8422 28.7719 24.6318C28.2682 24.4181 27.852 24.1345 27.5241 23.7752C27.1946 23.415 26.9579 22.9945 26.8116 22.5118C26.6652 22.0295 26.5905 21.5229 26.5905 20.9942Z" fill="white"/>
<path d="M38.152 24.949C37.5309 24.949 36.9913 24.8539 36.5336 24.6658C36.0773 24.4776 35.6993 24.2136 35.4003 23.8713C35.1009 23.5308 34.8768 23.1272 34.7233 22.6622C34.5698 22.1974 34.496 21.6827 34.496 21.1187C34.496 20.4112 34.6091 19.704 34.8377 18.9987C35.0653 18.2919 35.4029 17.6568 35.8497 17.0923C36.2931 16.527 36.84 16.0648 37.484 15.7044C38.1273 15.3465 38.8672 15.1664 39.6983 15.1664C40.3082 15.1664 40.8449 15.2617 41.3089 15.4498C41.7707 15.6375 42.1511 15.9037 42.4518 16.2443C42.7493 16.5865 42.9753 16.9883 43.1273 17.454C43.2803 17.918 43.3559 18.434 43.3559 18.9985C43.3559 19.7037 43.2443 20.411 43.0228 21.1184C42.8012 21.8224 42.4722 22.459 42.038 23.0248C41.6046 23.5892 41.0627 24.0512 40.4118 24.4101C39.7617 24.7689 39.0079 24.949 38.152 24.949ZM39.4528 17.3921C39.067 17.3921 38.7259 17.5046 38.4338 17.7268C38.1407 17.9515 37.8945 18.2341 37.6961 18.5749C37.4955 18.9171 37.3467 19.2904 37.2462 19.6961C37.1466 20.1027 37.0977 20.4871 37.0977 20.8523C37.0977 21.4416 37.1924 21.9005 37.3784 22.2308C37.5671 22.5593 37.906 22.7246 38.3987 22.7246C38.7858 22.7246 39.1251 22.613 39.4189 22.3884C39.7103 22.1654 39.9567 21.8826 40.1567 21.5412C40.356 21.2006 40.506 20.8263 40.6065 20.4199C40.7049 20.0146 40.755 19.6281 40.755 19.2636C40.755 18.6758 40.6608 18.2158 40.473 17.8859C40.2854 17.5574 39.945 17.3921 39.4528 17.3921Z" fill="white"/>
<path d="M46.1919 24.7027H43.5871L45.785 15.4159H48.4067L46.1919 24.7027ZM47.4563 14.2843C47.0933 14.2843 46.7642 14.1758 46.4724 13.9582C46.1793 13.7419 46.0321 13.409 46.0321 12.9603C46.0321 12.7135 46.0826 12.482 46.1819 12.2635C46.2811 12.0455 46.4133 11.8578 46.5779 11.6982C46.7414 11.54 46.9335 11.4135 47.1493 11.3182C47.3656 11.2245 47.597 11.1776 47.8428 11.1776C48.2067 11.1776 48.5354 11.2862 48.8281 11.5038C49.121 11.7224 49.2688 12.0553 49.2688 12.5016C49.2688 12.7493 49.2163 12.9817 49.1179 13.1997C49.0196 13.4177 48.8874 13.6054 48.7234 13.765C48.5584 13.9235 48.3687 14.0495 48.1524 14.1439C47.9344 14.2392 47.7034 14.2843 47.4563 14.2843Z" fill="white"/>
<path d="M50.2823 15.8382C50.4799 15.7802 50.7005 15.7104 50.9404 15.6345C51.1812 15.5587 51.4502 15.488 51.7507 15.4244C52.0479 15.3588 52.3834 15.3056 52.7523 15.2644C53.1212 15.2223 53.5415 15.2018 54.0085 15.2018C55.3811 15.2018 56.3273 15.6032 56.8497 16.4035C57.3716 17.2038 57.462 18.2991 57.1233 19.6875L55.9261 24.7018H53.3063L54.4666 19.793C54.5374 19.4865 54.593 19.1902 54.634 18.9006C54.6755 18.6137 54.6731 18.3608 54.6247 18.142C54.5784 17.9257 54.4694 17.7487 54.3003 17.6115C54.1286 17.4766 53.8691 17.4088 53.5172 17.4088C53.1778 17.4088 52.8326 17.4454 52.4802 17.516L50.7743 24.7016H48.1535L50.2823 15.8382Z" fill="white"/>
</svg>
