<svg width="62" height="36" viewBox="0 0 62 36" fill="none" xmlns="http://www.w3.org/2000/svg">
<rect width="62" height="36" fill="#123984"/>
<path d="M39.3901 12.0005H35.6561C35.4012 12.0005 35.1839 12.1861 35.1441 12.4383L33.6341 22.0119C33.6041 22.2008 33.7504 22.3711 33.9409 22.3711H35.857C36.035 22.3711 36.1873 22.2412 36.2151 22.0643L36.6437 19.3506C36.683 19.0979 36.9008 18.9122 37.1557 18.9122H38.3371C40.797 18.9122 42.2158 17.7222 42.587 15.3638C42.7546 14.3321 42.5935 13.5214 42.1104 12.9536C41.5803 12.3302 40.6397 12.0005 39.3901 12.0005ZM39.8209 15.497C39.6172 16.8367 38.5937 16.8367 37.6034 16.8367H37.0406L37.4363 14.3348C37.4598 14.1836 37.5897 14.0722 37.7431 14.0722H38.0014C38.675 14.0722 39.3115 14.0722 39.6402 14.4565C39.8362 14.6858 39.8957 15.0265 39.8209 15.497Z" fill="#10B2F7"/>
<path d="M50.5495 15.4539H48.7628C48.6094 15.4539 48.4789 15.5653 48.456 15.7165L48.3768 16.2165L48.2512 16.0353C47.8642 15.4736 47.0017 15.2858 46.1402 15.2858C44.1646 15.2858 42.4777 16.7821 42.1491 18.8811C41.9787 19.9282 42.2206 20.9294 42.8145 21.6276C43.3604 22.2696 44.1389 22.5371 45.0664 22.5371C46.6583 22.5371 47.541 21.5135 47.541 21.5135L47.4613 22.0103C47.4313 22.2003 47.5776 22.3706 47.7692 22.3706H49.3791C49.634 22.3706 49.8513 22.185 49.8912 21.9322L50.858 15.8131C50.8874 15.6248 50.7411 15.4539 50.5495 15.4539ZM48.0574 18.9335C47.886 19.9549 47.0743 20.6406 46.0403 20.6406C45.5222 20.6406 45.1063 20.4741 44.8399 20.1586C44.5756 19.8452 44.4763 19.3992 44.5593 18.9024C44.7214 17.8898 45.5446 17.1817 46.5627 17.1817C47.0704 17.1817 47.4831 17.3504 47.755 17.6687C48.0285 17.9902 48.1366 18.4389 48.0574 18.9335Z" fill="#10B2F7"/>
<path d="M52.6574 12.2631L51.125 22.012C51.095 22.2009 51.2413 22.3712 51.4318 22.3712H52.9724C53.2284 22.3712 53.4457 22.1856 53.485 21.9328L54.9961 12.3598C55.0261 12.1709 54.8798 12 54.6893 12H52.9642C52.8119 12.0005 52.6809 12.1119 52.6574 12.2631Z" fill="#10B2F7"/>
<path d="M12.76 12.0005H9.02652C8.77103 12.0005 8.55376 12.1861 8.5139 12.4383L7.00392 22.0119C6.97389 22.2008 7.1202 22.3711 7.31181 22.3711H9.09421C9.34969 22.3711 9.56697 22.1855 9.60682 21.9328L10.0141 19.3506C10.0534 19.0979 10.2712 18.9122 10.5261 18.9122H11.708C14.1673 18.9122 15.5867 17.7222 15.9574 15.3638C16.1244 14.3321 15.9645 13.5214 15.4813 12.9536C14.9507 12.3302 14.0096 12.0005 12.76 12.0005ZM13.1907 15.497C12.9865 16.8367 11.963 16.8367 10.9732 16.8367H10.4098L10.8051 14.3348C10.8286 14.1836 10.9596 14.0722 11.1124 14.0722H11.3706C12.0448 14.0722 12.6808 14.0722 13.0095 14.4565C13.2055 14.6858 13.2655 15.0265 13.1907 15.497Z" fill="white"/>
<path d="M23.9201 15.4538H22.1323C21.98 15.4538 21.8484 15.5651 21.8249 15.7164L21.7458 16.2164L21.6207 16.0352C21.2337 15.4734 20.3706 15.2856 19.5092 15.2856C17.5335 15.2856 15.8461 16.782 15.5175 18.881C15.3466 19.9281 15.5895 20.9293 16.1835 21.6275C16.7283 22.2695 17.5079 22.537 18.4354 22.537C20.0272 22.537 20.91 21.5134 20.91 21.5134L20.8303 22.0102C20.8002 22.2001 20.9465 22.3705 21.1371 22.3705H22.7475C23.0035 22.3705 23.2197 22.1848 23.2601 21.9321L24.2264 15.813C24.2569 15.6247 24.1112 15.4538 23.9201 15.4538ZM21.428 18.9334C21.2555 19.9548 20.4449 20.6405 19.4109 20.6405C18.8917 20.6405 18.4768 20.474 18.2104 20.1584C17.9462 19.8451 17.8458 19.3991 17.9298 18.9023C18.0909 17.8896 18.9152 17.1816 19.9333 17.1816C20.441 17.1816 20.8537 17.3503 21.1256 17.6685C21.398 17.9901 21.5061 18.4388 21.428 18.9334Z" fill="white"/>
<path d="M33.4419 15.4537H31.6453C31.4739 15.4537 31.3128 15.5389 31.2157 15.6814L28.7378 19.3313L27.6875 15.8239C27.6214 15.6044 27.4189 15.4537 27.1896 15.4537H25.4241C25.2096 15.4537 25.0605 15.6634 25.1288 15.8654L27.1077 21.6727L25.2472 24.2991C25.1009 24.506 25.2483 24.7904 25.5011 24.7904H27.2955C27.4658 24.7904 27.6252 24.7074 27.7218 24.5677L33.6974 15.9423C33.8404 15.736 33.6936 15.4537 33.4419 15.4537Z" fill="white"/>
</svg>
