<svg width="62" height="36" viewBox="0 0 62 36" fill="none" xmlns="http://www.w3.org/2000/svg">
<rect width="62" height="36" fill="#1434CB"/>
<path d="M29.7568 10.2826L26.4163 25.7571H22.3758L25.7166 10.2826H29.7568ZM46.7547 20.2747L48.8811 14.4637L50.1049 20.2747H46.7547ZM51.2641 25.7571H55L51.7361 10.2826H48.29C47.5134 10.2826 46.8586 10.7288 46.5688 11.4169L40.5065 25.7571H44.7497L45.592 23.446H50.7748L51.2641 25.7571ZM40.7169 20.7052C40.7345 16.6212 35.0192 16.395 35.0575 14.5702C35.0698 14.0157 35.6037 13.4251 36.7706 13.2741C37.3491 13.2003 38.9456 13.1404 40.7552 13.9667L41.463 10.6839C40.4911 10.3355 39.2403 10 37.6839 10C33.6898 10 30.8801 12.1022 30.8576 15.1149C30.8319 17.3427 32.8647 18.5849 34.393 19.3269C35.9687 20.0853 36.4966 20.5715 36.4889 21.2492C36.478 22.2874 35.2325 22.7472 34.0726 22.7646C32.0403 22.7959 30.8622 22.2202 29.9232 21.7866L29.1898 25.179C30.1354 25.6078 31.8776 25.9809 33.6817 26C37.928 26 40.7043 23.9225 40.7169 20.7052ZM23.9835 10.2826L17.4372 25.7571H13.167L9.94531 13.4074C9.75001 12.6479 9.57966 12.3688 8.98568 12.0479C8.01411 11.5251 6.41029 11.0361 5 10.7319L5.09554 10.2826H11.9703C12.846 10.2826 13.6338 10.86 13.8344 11.8596L15.5362 20.8148L19.739 10.2826H23.9835Z" fill="white"/>
</svg>
