<svg width="62" height="36" viewBox="0 0 62 36" fill="none" xmlns="http://www.w3.org/2000/svg">
<rect width="62" height="36" fill="#171C29"/>
<rect width="19" height="3" fill="url(#paint0_linear_109_115)"/>
<rect y="6" width="19" height="3" fill="url(#paint1_linear_109_115)"/>
<rect y="12" width="19" height="3" fill="url(#paint2_linear_109_115)"/>
<path d="M24.0694 23L21 12H23.4775L25.2531 19.6431H25.3422L27.3011 12H29.4224L31.3761 19.6592H31.4704L33.246 12H35.7235L32.6542 23H30.4438L28.401 15.8081H28.3172L26.2797 23H24.0694Z" fill="white"/>
<path d="M39.2054 12V23H36.9374V12H39.2054Z" fill="white"/>
<path d="M41.0713 23V12H45.3035C46.1136 12 46.805 12.1486 47.3777 12.4458C47.9539 12.7394 48.3921 13.1566 48.6924 13.6973C48.9962 14.2344 49.1481 14.8664 49.1481 15.5933C49.1481 16.3237 48.9944 16.9521 48.6871 17.4785C48.3799 18.0013 47.9346 18.4023 47.3515 18.6816C46.7718 18.9609 46.07 19.1006 45.2459 19.1006H42.4122V17.2314H44.8792C45.3122 17.2314 45.6719 17.1706 45.9582 17.0488C46.2446 16.9271 46.4576 16.7445 46.5973 16.501C46.7404 16.2575 46.812 15.9549 46.812 15.5933C46.812 15.228 46.7404 14.9201 46.5973 14.6694C46.4576 14.4188 46.2428 14.229 45.953 14.1001C45.6667 13.9676 45.3053 13.9014 44.8688 13.9014H43.3393V23H41.0713ZM46.8644 17.9941L49.5304 23H47.0268L44.4183 17.9941H46.8644Z" fill="white"/>
<path d="M50.7508 23V12H57.9791V13.9175H53.0188V16.5386H57.6072V18.4561H53.0188V21.0825H58V23H50.7508Z" fill="white"/>
<path d="M8 26.7039V25.6047H13.6763V26.7039H11.5603V31.9107H10.116V26.7039H8Z" fill="white"/>
<path d="M14.6111 31.9107V25.6047H17.3379C17.8598 25.6047 18.3053 25.6899 18.6743 25.8603C19.0455 26.0286 19.3278 26.2677 19.5213 26.5777C19.7171 26.8856 19.8149 27.2479 19.8149 27.6646C19.8149 28.0834 19.7159 28.4436 19.518 28.7454C19.32 29.0451 19.0331 29.275 18.6574 29.4351C18.2839 29.5952 17.8317 29.6753 17.3008 29.6753H15.475V28.6037H17.0645C17.3435 28.6037 17.5752 28.5688 17.7597 28.4991C17.9442 28.4293 18.0814 28.3246 18.1714 28.185C18.2637 28.0454 18.3098 27.8719 18.3098 27.6646C18.3098 27.4552 18.2637 27.2787 18.1714 27.135C18.0814 26.9913 17.9431 26.8825 17.7563 26.8086C17.5719 26.7327 17.339 26.6947 17.0578 26.6947H16.0724V31.9107H14.6111ZM18.3435 29.041L20.0613 31.9107H18.4482L16.7675 29.041H18.3435Z" fill="white"/>
<path d="M22.0389 31.9107H20.473L22.8589 25.6047H24.742L27.1246 31.9107H25.5587L23.8275 27.0457H23.7735L22.0389 31.9107ZM21.941 29.432H25.6397V30.4727H21.941V29.432Z" fill="white"/>
<path d="M33.7374 25.6047V31.9107H32.4752L29.4683 27.9417H29.4177V31.9107H27.9565V25.6047H29.2389L32.2221 29.5706H32.2829V25.6047H33.7374Z" fill="white"/>
<path d="M38.694 27.4183C38.667 27.1699 38.5511 26.977 38.3464 26.8394C38.1417 26.7019 37.8638 26.6331 37.5129 26.6331C37.2744 26.6331 37.073 26.6639 36.9088 26.7255C36.7445 26.785 36.6186 26.8682 36.5308 26.9749C36.4453 27.0816 36.4026 27.2028 36.4026 27.3382C36.3981 27.4511 36.4239 27.5497 36.4802 27.6338C36.5387 27.718 36.6186 27.7909 36.7198 27.8524C36.821 27.912 36.938 27.9643 37.0708 28.0095C37.2035 28.0526 37.3452 28.0895 37.496 28.1203L38.1169 28.2558C38.4184 28.3174 38.6951 28.3995 38.9471 28.5021C39.1991 28.6048 39.4173 28.731 39.6018 28.8809C39.7863 29.0307 39.9292 29.2072 40.0304 29.4105C40.1339 29.6137 40.1868 29.8467 40.189 30.1094C40.1868 30.4953 40.0788 30.8299 39.865 31.1132C39.6536 31.3944 39.3476 31.613 38.9471 31.769C38.5489 31.923 38.0686 32 37.5061 32C36.9482 32 36.4622 31.922 36.0482 31.766C35.6365 31.61 35.3148 31.379 35.0831 31.0732C34.8536 30.7653 34.7332 30.3845 34.722 29.9308H36.136C36.1517 30.1423 36.2181 30.3188 36.3351 30.4604C36.4543 30.6 36.6129 30.7057 36.8109 30.7776C37.0111 30.8474 37.2373 30.8823 37.4892 30.8823C37.7367 30.8823 37.9516 30.8494 38.1338 30.7837C38.3183 30.718 38.4612 30.6267 38.5624 30.5097C38.6636 30.3927 38.7143 30.2582 38.7143 30.1063C38.7143 29.9647 38.6681 29.8456 38.5759 29.7492C38.4859 29.6527 38.3532 29.5706 38.1777 29.5028C38.0044 29.4351 37.7918 29.3735 37.5399 29.3181L36.7873 29.1457C36.2046 29.0163 35.7445 28.8141 35.407 28.5391C35.0696 28.264 34.9019 27.8935 34.9042 27.4275C34.9019 27.0457 35.0133 26.7122 35.2383 26.4268C35.4655 26.1415 35.7771 25.9188 36.1731 25.7587C36.5691 25.5985 37.019 25.5185 37.523 25.5185C38.0359 25.5185 38.4837 25.5985 38.8661 25.7587C39.2508 25.9188 39.5501 26.1415 39.7638 26.4268C39.9775 26.7122 40.0878 27.0426 40.0945 27.4183H38.694Z" fill="white"/>
<path d="M41.1719 31.9107V25.6047H45.748V26.7039H42.6332V28.2065H45.4443V29.3058H42.6332V31.9107H41.1719Z" fill="white"/>
<path d="M46.7309 31.9107V25.6047H51.3881V26.7039H48.1922V28.2065H51.1485V29.3058H48.1922V30.8114H51.4016V31.9107H46.7309Z" fill="white"/>
<path d="M52.5498 31.9107V25.6047H55.2766C55.7985 25.6047 56.244 25.6899 56.613 25.8603C56.9842 26.0286 57.2666 26.2677 57.46 26.5777C57.6558 26.8856 57.7536 27.2479 57.7536 27.6646C57.7536 28.0834 57.6546 28.4436 57.4567 28.7454C57.2587 29.0451 56.9718 29.275 56.5961 29.4351C56.2226 29.5952 55.7704 29.6753 55.2395 29.6753H53.4137V28.6037H55.0032C55.2822 28.6037 55.5139 28.5688 55.6984 28.4991C55.8829 28.4293 56.0202 28.3246 56.1101 28.185C56.2024 28.0454 56.2485 27.8719 56.2485 27.6646C56.2485 27.4552 56.2024 27.2787 56.1101 27.135C56.0202 26.9913 55.8818 26.8825 55.6951 26.8086C55.5106 26.7327 55.2777 26.6947 54.9965 26.6947H54.0111V31.9107H52.5498ZM56.2823 29.041L58 31.9107H56.3869L54.7063 29.041H56.2823Z" fill="white"/>
<defs>
<linearGradient id="paint0_linear_109_115" x1="18.7602" y1="1.5" x2="-1.48054e-08" y2="1.5" gradientUnits="userSpaceOnUse">
<stop stop-color="white"/>
<stop offset="1" stop-color="white" stop-opacity="0"/>
</linearGradient>
<linearGradient id="paint1_linear_109_115" x1="18.7602" y1="7.5" x2="-1.48054e-08" y2="7.5" gradientUnits="userSpaceOnUse">
<stop stop-color="white"/>
<stop offset="1" stop-color="white" stop-opacity="0"/>
</linearGradient>
<linearGradient id="paint2_linear_109_115" x1="18.7602" y1="13.5" x2="-1.48054e-08" y2="13.5" gradientUnits="userSpaceOnUse">
<stop stop-color="white"/>
<stop offset="1" stop-color="white" stop-opacity="0"/>
</linearGradient>
</defs>
</svg>
