<svg width="32" height="24" viewBox="0 0 32 24" fill="none" xmlns="http://www.w3.org/2000/svg">
<path d="M32 0H0V24H32V0Z" fill="#003399"/>
<path d="M15.9006 2.80292L15.5045 4.02213L16.1141 4.22021L15.9006 2.80292Z" fill="#FFCC00"/>
<path d="M15.9006 2.80292L16.2968 4.02213L15.6872 4.22021L15.9006 2.80292Z" fill="#FFCC00"/>
<path d="M17.1199 3.68872H15.8379V4.3297L17.1199 3.68872Z" fill="#FFCC00"/>
<path d="M17.1199 3.68872L16.0827 4.44224L15.706 3.92367L17.1199 3.68872Z" fill="#FFCC00"/>
<path d="M16.6542 5.12201L16.258 3.90279L15.6484 4.10087L16.6542 5.12201Z" fill="#FFCC00"/>
<path d="M16.6542 5.12201L15.617 4.36849L15.9938 3.84993L16.6542 5.12201Z" fill="#FFCC00"/>
<path d="M14.6815 3.68872H15.9635V4.3297L14.6815 3.68872Z" fill="#FFCC00"/>
<path d="M14.6815 3.68872L15.7186 4.44224L16.0954 3.92367L14.6815 3.68872Z" fill="#FFCC00"/>
<path d="M15.1472 5.12201L15.5434 3.90279L16.153 4.10087L15.1472 5.12201Z" fill="#FFCC00"/>
<path d="M15.1472 5.12201L16.1843 4.36849L15.8076 3.84993L15.1472 5.12201Z" fill="#FFCC00"/>
<path d="M15.9006 18.1864L15.5045 19.4056L16.1141 19.6037L15.9006 18.1864Z" fill="#FFCC00"/>
<path d="M15.9006 18.1864L16.2968 19.4056L15.6872 19.6037L15.9006 18.1864Z" fill="#FFCC00"/>
<path d="M17.1199 19.0723H15.8379V19.7132L17.1199 19.0723Z" fill="#FFCC00"/>
<path d="M17.1199 19.0723L16.0827 19.8258L15.706 19.3072L17.1199 19.0723Z" fill="#FFCC00"/>
<path d="M16.6542 20.5055L16.258 19.2863L15.6484 19.4844L16.6542 20.5055Z" fill="#FFCC00"/>
<path d="M16.6542 20.5055L15.617 19.752L15.9938 19.2334L16.6542 20.5055Z" fill="#FFCC00"/>
<path d="M14.6815 19.0723H15.9635V19.7132L14.6815 19.0723Z" fill="#FFCC00"/>
<path d="M14.6815 19.0723L15.7186 19.8258L16.0954 19.3072L14.6815 19.0723Z" fill="#FFCC00"/>
<path d="M15.1472 20.5055L15.5434 19.2863L16.153 19.4844L15.1472 20.5055Z" fill="#FFCC00"/>
<path d="M15.1472 20.5055L16.1843 19.752L15.8076 19.2334L15.1472 20.5055Z" fill="#FFCC00"/>
<path d="M8.20898 10.4946L7.81284 11.7138L8.42244 11.9119L8.20898 10.4946Z" fill="#FFCC00"/>
<path d="M8.20898 10.4946L8.60513 11.7138L7.99552 11.9119L8.20898 10.4946Z" fill="#FFCC00"/>
<path d="M9.42822 11.3805H8.14626V12.0215L9.42822 11.3805Z" fill="#FFCC00"/>
<path d="M9.42822 11.3805L8.3911 12.134L8.01434 11.6154L9.42822 11.3805Z" fill="#FFCC00"/>
<path d="M8.9624 12.8138L8.56626 11.5946L7.95665 11.7926L8.9624 12.8138Z" fill="#FFCC00"/>
<path d="M8.9624 12.8138L7.92528 12.0603L8.30203 11.5417L8.9624 12.8138Z" fill="#FFCC00"/>
<path d="M6.98975 11.3805H8.2717V12.0215L6.98975 11.3805Z" fill="#FFCC00"/>
<path d="M6.98975 11.3805L8.02687 12.134L8.40363 11.6154L6.98975 11.3805Z" fill="#FFCC00"/>
<path d="M7.45544 12.8138L7.85159 11.5946L8.4612 11.7926L7.45544 12.8138Z" fill="#FFCC00"/>
<path d="M7.45544 12.8138L8.49257 12.0603L8.11581 11.5417L7.45544 12.8138Z" fill="#FFCC00"/>
<path d="M11.3014 6.15247L12.3385 5.39895L11.9618 4.88039L11.3014 6.15247Z" fill="#FFCC00"/>
<path d="M11.3014 6.15247L11.6975 4.93325L12.3071 5.13132L11.3014 6.15247Z" fill="#FFCC00"/>
<path d="M10.8356 4.71924L11.8727 5.47275L12.2495 4.95419L10.8356 4.71924Z" fill="#FFCC00"/>
<path d="M10.8356 4.71924H12.1175V5.36022L10.8356 4.71924Z" fill="#FFCC00"/>
<path d="M12.0548 3.83344L11.6587 5.05265L12.2683 5.25072L12.0548 3.83344Z" fill="#FFCC00"/>
<path d="M12.0548 3.83344L12.451 5.05265L11.8413 5.25072L12.0548 3.83344Z" fill="#FFCC00"/>
<path d="M12.8083 6.15247L11.7712 5.39895L12.148 4.88039L12.8083 6.15247Z" fill="#FFCC00"/>
<path d="M12.8083 6.15247L12.4122 4.93325L11.8026 5.13132L12.8083 6.15247Z" fill="#FFCC00"/>
<path d="M13.2739 4.71924L12.2368 5.47275L11.86 4.95419L13.2739 4.71924Z" fill="#FFCC00"/>
<path d="M13.2739 4.71924H11.992V5.36022L13.2739 4.71924Z" fill="#FFCC00"/>
<path d="M9.99304 8.9679L9.5969 7.74868L8.98729 7.94675L9.99304 8.9679Z" fill="#FFCC00"/>
<path d="M9.99304 8.9679L8.95592 8.21438L9.33267 7.69582L9.99304 8.9679Z" fill="#FFCC00"/>
<path d="M8.48596 8.9679L9.52309 8.21438L9.14633 7.69582L8.48596 8.9679Z" fill="#FFCC00"/>
<path d="M8.48596 8.9679L8.88211 7.74868L9.49172 7.94675L8.48596 8.9679Z" fill="#FFCC00"/>
<path d="M8.02026 7.53461L9.05739 8.28812L9.43415 7.76956L8.02026 7.53461Z" fill="#FFCC00"/>
<path d="M8.02026 7.53461H9.30222V8.17559L8.02026 7.53461Z" fill="#FFCC00"/>
<path d="M10.4586 7.53461L9.42149 8.28812L9.04473 7.76956L10.4586 7.53461Z" fill="#FFCC00"/>
<path d="M10.4586 7.53461H9.17666V8.17559L10.4586 7.53461Z" fill="#FFCC00"/>
<path d="M9.23938 6.64874L9.63553 7.86796L9.02592 8.06603L9.23938 6.64874Z" fill="#FFCC00"/>
<path d="M9.23938 6.64874L8.84323 7.86796L9.45284 8.06603L9.23938 6.64874Z" fill="#FFCC00"/>
<path d="M10.4586 15.2263H9.17666V15.8673L10.4586 15.2263Z" fill="#FFCC00"/>
<path d="M10.4586 15.2263L9.42149 15.9798L9.04473 15.4613L10.4586 15.2263Z" fill="#FFCC00"/>
<path d="M9.99304 16.6597L9.5969 15.4405L8.98729 15.6385L9.99304 16.6597Z" fill="#FFCC00"/>
<path d="M9.99304 16.6597L8.95592 15.9062L9.33267 15.3876L9.99304 16.6597Z" fill="#FFCC00"/>
<path d="M8.48596 16.6597L9.52309 15.9062L9.14633 15.3876L8.48596 16.6597Z" fill="#FFCC00"/>
<path d="M8.48596 16.6597L8.88211 15.4405L9.49172 15.6385L8.48596 16.6597Z" fill="#FFCC00"/>
<path d="M9.23938 14.3405L9.63553 15.5597L9.02592 15.7578L9.23938 14.3405Z" fill="#FFCC00"/>
<path d="M9.23938 14.3405L8.84323 15.5597L9.45284 15.7578L9.23938 14.3405Z" fill="#FFCC00"/>
<path d="M8.02026 15.2263H9.30222V15.8673L8.02026 15.2263Z" fill="#FFCC00"/>
<path d="M8.02026 15.2263L9.05739 15.9798L9.43415 15.4613L8.02026 15.2263Z" fill="#FFCC00"/>
<path d="M13.2739 18.0417H11.992V18.6827L13.2739 18.0417Z" fill="#FFCC00"/>
<path d="M13.2739 18.0417L12.2368 18.7952L11.86 18.2766L13.2739 18.0417Z" fill="#FFCC00"/>
<path d="M12.8083 19.475L12.4122 18.2558L11.8026 18.4538L12.8083 19.475Z" fill="#FFCC00"/>
<path d="M12.8083 19.475L11.7712 18.7215L12.148 18.2029L12.8083 19.475Z" fill="#FFCC00"/>
<path d="M11.3014 19.475L12.3385 18.7215L11.9618 18.2029L11.3014 19.475Z" fill="#FFCC00"/>
<path d="M11.3014 19.475L11.6975 18.2558L12.3071 18.4538L11.3014 19.475Z" fill="#FFCC00"/>
<path d="M12.0548 17.1559L12.451 18.3751L11.8413 18.5732L12.0548 17.1559Z" fill="#FFCC00"/>
<path d="M12.0548 17.1559L11.6587 18.3751L12.2683 18.5732L12.0548 17.1559Z" fill="#FFCC00"/>
<path d="M10.8356 18.0417H12.1175V18.6827L10.8356 18.0417Z" fill="#FFCC00"/>
<path d="M10.8356 18.0417L11.8727 18.7952L12.2495 18.2766L10.8356 18.0417Z" fill="#FFCC00"/>
<path d="M23.5924 10.4946L23.9886 11.7138L23.3789 11.9119L23.5924 10.4946Z" fill="#FFCC00"/>
<path d="M23.5924 10.4946L23.1963 11.7138L23.8059 11.9119L23.5924 10.4946Z" fill="#FFCC00"/>
<path d="M22.3732 11.3805H23.6551V12.0215L22.3732 11.3805Z" fill="#FFCC00"/>
<path d="M22.3732 11.3805L23.4103 12.134L23.7871 11.6154L22.3732 11.3805Z" fill="#FFCC00"/>
<path d="M22.839 12.8138L23.2351 11.5946L23.8447 11.7926L22.839 12.8138Z" fill="#FFCC00"/>
<path d="M22.839 12.8138L23.8761 12.0603L23.4994 11.5417L22.839 12.8138Z" fill="#FFCC00"/>
<path d="M24.8116 11.3805H23.5297V12.0215L24.8116 11.3805Z" fill="#FFCC00"/>
<path d="M24.8116 11.3805L23.7745 12.134L23.3978 11.6154L24.8116 11.3805Z" fill="#FFCC00"/>
<path d="M24.3459 12.8138L23.9498 11.5946L23.3402 11.7926L24.3459 12.8138Z" fill="#FFCC00"/>
<path d="M24.3459 12.8138L23.3088 12.0603L23.6856 11.5417L24.3459 12.8138Z" fill="#FFCC00"/>
<path d="M20.5 6.15247L19.4629 5.39895L19.8396 4.88039L20.5 6.15247Z" fill="#FFCC00"/>
<path d="M20.5 6.15247L20.1039 4.93325L19.4942 5.13132L20.5 6.15247Z" fill="#FFCC00"/>
<path d="M20.9658 4.71924L19.9287 5.47275L19.5519 4.95419L20.9658 4.71924Z" fill="#FFCC00"/>
<path d="M20.9658 4.71924H19.6839V5.36022L20.9658 4.71924Z" fill="#FFCC00"/>
<path d="M19.7466 3.83344L20.1427 5.05265L19.5331 5.25072L19.7466 3.83344Z" fill="#FFCC00"/>
<path d="M19.7466 3.83344L19.3504 5.05265L19.96 5.25072L19.7466 3.83344Z" fill="#FFCC00"/>
<path d="M18.993 6.15247L20.0302 5.39895L19.6534 4.88039L18.993 6.15247Z" fill="#FFCC00"/>
<path d="M18.993 6.15247L19.3892 4.93325L19.9988 5.13132L18.993 6.15247Z" fill="#FFCC00"/>
<path d="M18.5273 4.71924L19.5645 5.47275L19.9412 4.95419L18.5273 4.71924Z" fill="#FFCC00"/>
<path d="M18.5273 4.71924H19.8093V5.36022L18.5273 4.71924Z" fill="#FFCC00"/>
<path d="M21.8083 8.9679L22.2045 7.74868L22.8141 7.94675L21.8083 8.9679Z" fill="#FFCC00"/>
<path d="M21.8083 8.9679L22.8455 8.21438L22.4687 7.69582L21.8083 8.9679Z" fill="#FFCC00"/>
<path d="M23.3154 8.9679L22.2783 8.21438L22.6551 7.69582L23.3154 8.9679Z" fill="#FFCC00"/>
<path d="M23.3154 8.9679L22.9193 7.74868L22.3097 7.94675L23.3154 8.9679Z" fill="#FFCC00"/>
<path d="M23.7811 7.53461L22.744 8.28812L22.3672 7.76956L23.7811 7.53461Z" fill="#FFCC00"/>
<path d="M23.7811 7.53461H22.4992V8.17559L23.7811 7.53461Z" fill="#FFCC00"/>
<path d="M21.3428 7.53461L22.3799 8.28812L22.7567 7.76956L21.3428 7.53461Z" fill="#FFCC00"/>
<path d="M21.3428 7.53461H22.6247V8.17559L21.3428 7.53461Z" fill="#FFCC00"/>
<path d="M22.562 6.64874L22.1659 7.86796L22.7755 8.06603L22.562 6.64874Z" fill="#FFCC00"/>
<path d="M22.562 6.64874L22.9582 7.86796L22.3486 8.06603L22.562 6.64874Z" fill="#FFCC00"/>
<path d="M21.3428 15.2263H22.6247V15.8673L21.3428 15.2263Z" fill="#FFCC00"/>
<path d="M21.3428 15.2263L22.3799 15.9798L22.7567 15.4613L21.3428 15.2263Z" fill="#FFCC00"/>
<path d="M21.8083 16.6597L22.2045 15.4405L22.8141 15.6385L21.8083 16.6597Z" fill="#FFCC00"/>
<path d="M21.8083 16.6597L22.8455 15.9062L22.4687 15.3876L21.8083 16.6597Z" fill="#FFCC00"/>
<path d="M23.3154 16.6597L22.2783 15.9062L22.6551 15.3876L23.3154 16.6597Z" fill="#FFCC00"/>
<path d="M23.3154 16.6597L22.9193 15.4405L22.3097 15.6385L23.3154 16.6597Z" fill="#FFCC00"/>
<path d="M22.562 14.3405L22.1659 15.5597L22.7755 15.7578L22.562 14.3405Z" fill="#FFCC00"/>
<path d="M22.562 14.3405L22.9582 15.5597L22.3486 15.7578L22.562 14.3405Z" fill="#FFCC00"/>
<path d="M23.7811 15.2263H22.4992V15.8673L23.7811 15.2263Z" fill="#FFCC00"/>
<path d="M23.7811 15.2263L22.744 15.9798L22.3672 15.4613L23.7811 15.2263Z" fill="#FFCC00"/>
<path d="M18.5273 18.0417H19.8093V18.6827L18.5273 18.0417Z" fill="#FFCC00"/>
<path d="M18.5273 18.0417L19.5645 18.7952L19.9412 18.2766L18.5273 18.0417Z" fill="#FFCC00"/>
<path d="M18.993 19.475L19.3892 18.2558L19.9988 18.4538L18.993 19.475Z" fill="#FFCC00"/>
<path d="M18.993 19.475L20.0302 18.7215L19.6534 18.2029L18.993 19.475Z" fill="#FFCC00"/>
<path d="M20.5 19.475L19.4629 18.7215L19.8396 18.2029L20.5 19.475Z" fill="#FFCC00"/>
<path d="M20.5 19.475L20.1039 18.2558L19.4942 18.4538L20.5 19.475Z" fill="#FFCC00"/>
<path d="M19.7466 17.1559L19.3504 18.3751L19.96 18.5732L19.7466 17.1559Z" fill="#FFCC00"/>
<path d="M19.7466 17.1559L20.1427 18.3751L19.5331 18.5732L19.7466 17.1559Z" fill="#FFCC00"/>
<path d="M20.9658 18.0417H19.6839V18.6827L20.9658 18.0417Z" fill="#FFCC00"/>
<path d="M20.9658 18.0417L19.9287 18.7952L19.5519 18.2766L20.9658 18.0417Z" fill="#FFCC00"/>
</svg>
