<svg width="62" height="30" viewBox="0 0 62 30" fill="none" xmlns="http://www.w3.org/2000/svg">
<rect width="62" height="30" fill="#171C29"/>
<rect x="7" y="6.15387" width="14.4906" height="1.84615" fill="url(#paint0_linear_120_105)"/>
<rect x="7" y="9.84619" width="14.4906" height="1.84615" fill="url(#paint1_linear_120_105)"/>
<rect x="7" y="13.5385" width="14.4906" height="1.84615" fill="url(#paint2_linear_120_105)"/>
<path d="M26.762 15.3846L24.2076 6.15387H26.2694L27.7471 12.5676H27.8212L29.4515 6.15387H31.2169L32.8429 12.5812H32.9213L34.3991 6.15387H36.4609L33.9065 15.3846H32.0669L30.3669 9.34948H30.2972L28.6015 15.3846H26.762Z" fill="white"/>
<path d="M39.3586 6.15387V15.3846H37.4711V6.15387H39.3586Z" fill="white"/>
<path d="M40.9115 15.3846V6.15387H44.4336C45.1078 6.15387 45.6832 6.27857 46.1598 6.52797C46.6393 6.77436 47.004 7.12442 47.2539 7.57815C47.5068 8.02887 47.6332 8.55922 47.6332 9.16919C47.6332 9.78218 47.5053 10.3095 47.2496 10.7512C46.9938 11.1899 46.6233 11.5265 46.138 11.7608C45.6556 11.9952 45.0715 12.1124 44.3857 12.1124H42.0274V10.5439H44.0805C44.4409 10.5439 44.7402 10.4928 44.9785 10.3906C45.2168 10.2885 45.3941 10.1352 45.5103 9.93091C45.6295 9.72659 45.689 9.47268 45.689 9.16919C45.689 8.8627 45.6295 8.60429 45.5103 8.39395C45.3941 8.18362 45.2154 8.02436 44.9741 7.91619C44.7359 7.80501 44.4351 7.74942 44.0718 7.74942H42.799V15.3846H40.9115ZM45.7326 11.1839L47.9514 15.3846H45.8678L43.6969 11.1839H45.7326Z" fill="white"/>
<path d="M48.9671 15.3846V6.15387H54.9826V7.76294H50.8545V9.96246H54.6731V11.5715H50.8545V13.7756H55V15.3846H48.9671Z" fill="white"/>
<g opacity="0.7">
<path d="M7 19.3357V18.2398H12.3445V19.3357H10.3522V24.5264H8.99225V19.3357H7Z" fill="white"/>
<path d="M13.2246 24.5264V18.2398H15.792C16.2834 18.2398 16.7028 18.3247 17.0502 18.4946C17.3998 18.6624 17.6656 18.9008 17.8478 19.2098C18.0321 19.5168 18.1242 19.878 18.1242 20.2934C18.1242 20.7109 18.031 21.07 17.8446 21.3708C17.6582 21.6696 17.3881 21.8988 17.0344 22.0584C16.6827 22.218 16.2569 22.2978 15.757 22.2978H14.038V21.2296H15.5346C15.7973 21.2296 16.0155 21.1948 16.1892 21.1253C16.3629 21.0557 16.4921 20.9513 16.5768 20.8122C16.6636 20.673 16.7071 20.5001 16.7071 20.2934C16.7071 20.0847 16.6636 19.9087 16.5768 19.7654C16.4921 19.6222 16.3618 19.5137 16.186 19.44C16.0123 19.3643 15.793 19.3265 15.5282 19.3265H14.6004V24.5264H13.2246ZM16.7388 21.6655L18.3562 24.5264H16.8373L15.255 21.6655H16.7388Z" fill="white"/>
<path d="M20.2181 24.5264H18.7438L20.9903 18.2398H22.7633L25.0065 24.5264H23.5322L21.9022 19.6764H21.8513L20.2181 24.5264ZM20.126 22.0553H23.6085V23.0929H20.126V22.0553Z" fill="white"/>
<path d="M31.2327 18.2398V24.5264H30.0444L27.2133 20.5697H27.1656V24.5264H25.7898V18.2398H26.9972L29.8061 22.1935H29.8633V18.2398H31.2327Z" fill="white"/>
<path d="M35.8996 20.0478C35.8742 19.8002 35.7651 19.6078 35.5723 19.4707C35.3796 19.3336 35.1179 19.2651 34.7875 19.2651C34.563 19.2651 34.3734 19.2958 34.2187 19.3572C34.0641 19.4165 33.9455 19.4994 33.8629 19.6058C33.7824 19.7122 33.7421 19.8329 33.7421 19.968C33.7379 20.0806 33.7622 20.1788 33.8152 20.2627C33.8703 20.3466 33.9455 20.4192 34.0408 20.4806C34.1361 20.54 34.2463 20.5922 34.3712 20.6372C34.4962 20.6802 34.6297 20.717 34.7716 20.7477L35.3563 20.8828C35.6401 20.9441 35.9007 21.026 36.1379 21.1283C36.3752 21.2306 36.5806 21.3565 36.7543 21.5059C36.928 21.6553 37.0625 21.8313 37.1579 22.0339C37.2553 22.2365 37.3051 22.4687 37.3072 22.7307C37.3051 23.1154 37.2034 23.449 37.0022 23.7314C36.803 24.0117 36.515 24.2297 36.1379 24.3852C35.763 24.5387 35.3107 24.6154 34.7811 24.6154C34.2558 24.6154 33.7983 24.5376 33.4085 24.3821C33.0208 24.2266 32.7179 23.9964 32.4997 23.6915C32.2837 23.3845 32.1703 23.0049 32.1598 22.5526H33.4911C33.5059 22.7634 33.5684 22.9394 33.6786 23.0806C33.7908 23.2198 33.9402 23.3251 34.1266 23.3968C34.3151 23.4663 34.528 23.5011 34.7653 23.5011C34.9983 23.5011 35.2006 23.4684 35.3721 23.4029C35.5458 23.3374 35.6804 23.2464 35.7757 23.1297C35.871 23.0131 35.9187 22.879 35.9187 22.7276C35.9187 22.5864 35.8752 22.4677 35.7884 22.3715C35.7037 22.2753 35.5787 22.1935 35.4134 22.126C35.2503 22.0584 35.0502 21.997 34.8129 21.9418L34.1043 21.7699C33.5557 21.641 33.1225 21.4394 32.8048 21.1652C32.487 20.8909 32.3292 20.5216 32.3313 20.057C32.3292 19.6764 32.4341 19.3439 32.6459 19.0594C32.8598 18.775 33.1532 18.5529 33.5261 18.3933C33.8989 18.2337 34.3225 18.1539 34.797 18.1539C35.28 18.1539 35.7015 18.2337 36.0616 18.3933C36.4239 18.5529 36.7056 18.775 36.9068 19.0594C37.1081 19.3439 37.2119 19.6733 37.2182 20.0478H35.8996Z" fill="white"/>
<path d="M38.2326 24.5264V18.2398H42.5412V19.3357H39.6085V20.8336H42.2553V21.9295H39.6085V24.5264H38.2326Z" fill="white"/>
<path d="M43.4667 24.5264V18.2398H47.8515V19.3357H44.8425V20.8336H47.6259V21.9295H44.8425V23.4305H47.8642V24.5264H43.4667Z" fill="white"/>
<path d="M48.9454 24.5264V18.2398H51.5127C52.0042 18.2398 52.4236 18.3247 52.771 18.4946C53.1205 18.6624 53.3864 18.9008 53.5685 19.2098C53.7528 19.5168 53.845 19.878 53.845 20.2934C53.845 20.7109 53.7518 21.07 53.5654 21.3708C53.3789 21.6696 53.1089 21.8988 52.7551 22.0584C52.4035 22.218 51.9777 22.2978 51.4778 22.2978H49.7588V21.2296H51.2554C51.518 21.2296 51.7362 21.1948 51.9099 21.1253C52.0836 21.0557 52.2128 20.9513 52.2976 20.8122C52.3844 20.673 52.4278 20.5001 52.4278 20.2934C52.4278 20.0847 52.3844 19.9087 52.2976 19.7654C52.2128 19.6222 52.0826 19.5137 51.9067 19.44C51.733 19.3643 51.5138 19.3265 51.249 19.3265H50.3212V24.5264H48.9454ZM52.4596 21.6655L54.0769 24.5264H52.5581L50.9757 21.6655H52.4596Z" fill="white"/>
</g>
<defs>
<linearGradient id="paint0_linear_120_105" x1="21.3077" y1="7.07695" x2="7" y2="7.07695" gradientUnits="userSpaceOnUse">
<stop stop-color="white"/>
<stop offset="1" stop-color="white" stop-opacity="0"/>
</linearGradient>
<linearGradient id="paint1_linear_120_105" x1="21.3077" y1="10.7693" x2="7" y2="10.7693" gradientUnits="userSpaceOnUse">
<stop stop-color="white"/>
<stop offset="1" stop-color="white" stop-opacity="0"/>
</linearGradient>
<linearGradient id="paint2_linear_120_105" x1="21.3077" y1="14.4615" x2="7" y2="14.4615" gradientUnits="userSpaceOnUse">
<stop stop-color="white"/>
<stop offset="1" stop-color="white" stop-opacity="0"/>
</linearGradient>
</defs>
</svg>
