<svg width="24" height="24" viewBox="0 0 24 24" fill="none" xmlns="http://www.w3.org/2000/svg">
<path d="M20.0314 22.744H20.1814H22.85V23.85H1.15V22.744H2.50972H2.65972V22.594V14.306H3.96857H4.11857V14.156V0.15H19.8814V22.594H20.0304V22.744H20.0314ZM5.42949 1.256H5.27949V1.406V14.156V14.306H5.42949H6.88937H7.03937V14.156V2.962H16.9606V22.594V22.744H17.1106H18.5705H18.7205V22.594V1.406V1.256H18.5705H5.42949ZM6.88937 15.412H6.73937V15.562V16.969V17.119H6.88937H8.35029H8.50029V16.969V15.562V15.412H8.35029H6.88937ZM8.19925 14.156V14.306L8.34922 14.306L12.5799 14.307V22.594V22.744H12.7299H15.6507H15.8007V22.594V12.704V12.554H15.6507H14.3409V11.448H15.6507H15.8007V11.298V4.22V4.07H15.6507H8.34925H8.19925V4.22V14.156ZM3.96961 15.412H3.81961V15.562V22.594V22.744H3.96961H11.269H11.419V22.594V15.562V15.412H11.269H9.80914H9.65914V15.562V18.225H5.57949V15.562V15.412H5.42949H3.96961Z" fill="#171C29" stroke="white" stroke-width="0.3"/>
</svg>
