<svg width="62" height="31" viewBox="0 0 62 31" fill="none" xmlns="http://www.w3.org/2000/svg">
<path d="M10.9105 8H7.85776C7.85776 10.497 6.70784 12.7757 4.70913 14.2767L3.50449 15.1772L8.18631 21.5358H12.0331L7.72084 15.6821C9.76059 13.6626 10.9105 10.9336 10.9105 8Z" fill="black"/>
<path d="M3.12121 8H0V21.5358H3.12121V8Z" fill="black"/>
<path d="M15.8801 8H12.9368V21.5358H15.8801V8Z" fill="black"/>
<path d="M41.6983 11.916C40.5762 11.916 39.5083 12.2571 38.7961 13.2259V12.1753H36.0036V21.5357H38.8371V16.6235C38.8371 15.2045 39.7958 14.5086 40.9456 14.5086C42.1774 14.5086 42.8897 15.2453 42.8897 16.6099V21.5493H45.6961V15.5865C45.6961 13.4033 43.9575 11.916 41.6983 11.916Z" fill="black"/>
<path d="M24.7781 12.1753V12.7756C23.9842 12.2298 23.0258 11.916 21.9854 11.916C19.2475 11.916 17.0298 14.1265 17.0298 16.8554C17.0298 19.5845 19.2475 21.7949 21.9854 21.7949C23.0258 21.7949 23.9842 21.4811 24.7781 20.9353V21.5357H27.5845V12.1753H24.7781ZM22.2181 19.257C20.808 19.257 19.6719 18.179 19.6719 16.8554C19.6719 15.5319 20.808 14.4539 22.2181 14.4539C23.6281 14.4539 24.7644 15.5319 24.7644 16.8554C24.7644 18.179 23.6281 19.257 22.2181 19.257Z" fill="black"/>
<path d="M31.9377 13.3897V12.1753H29.0629V21.5357H31.9513V17.1693C31.9513 15.6957 33.5531 14.9043 34.6619 14.9043C34.6756 14.9043 34.6893 14.9043 34.6893 14.9043V12.1753C33.5531 12.1753 32.4989 12.6666 31.9377 13.3897Z" fill="black"/>
<path d="M54.4299 12.1753V12.7756C53.6356 12.2298 52.6775 11.916 51.6373 11.916C48.899 11.916 46.6814 14.1265 46.6814 16.8554C46.6814 19.5845 48.899 21.7949 51.6373 21.7949C52.6775 21.7949 53.6356 21.4811 54.4299 20.9353V21.5357H57.2363V12.1753H54.4299ZM51.8699 19.257C50.4598 19.257 49.3238 18.179 49.3238 16.8554C49.3238 15.5319 50.4598 14.4539 51.8699 14.4539C53.28 14.4539 54.416 15.5319 54.416 16.8554C54.4299 18.179 53.28 19.257 51.8699 19.257Z" fill="black"/>
<path d="M60.2343 18.22C59.2623 18.22 58.468 19.0115 58.468 19.9802C58.468 20.949 59.2623 21.7404 60.2343 21.7404C61.2063 21.7404 62 20.949 62 19.9802C62 18.9978 61.2063 18.22 60.2343 18.22Z" fill="black"/>
</svg>
