<svg width="24" height="24" viewBox="0 0 24 24" fill="none" xmlns="http://www.w3.org/2000/svg">
<mask id="path-1-inside-1_3_63" fill="white">
<path fill-rule="evenodd" clip-rule="evenodd" d="M23.465 12.9045L23.963 12.9425C24.0118 12.3155 24.0118 11.6856 23.963 11.0585L23.465 11.0965L22.967 11.1355C23.0118 11.7113 23.0118 12.2897 22.967 12.8655L23.465 12.9045ZM23.185 9.31453L23.671 9.19753C23.5246 8.58644 23.3299 7.9879 23.089 7.40753L22.628 7.59853L22.166 7.79053C22.384 8.31753 22.563 8.86553 22.698 9.43053L23.185 9.31453ZM21.807 5.99053L22.233 5.72853C21.903 5.19153 21.533 4.68253 21.125 4.20653L20.745 4.53053L20.365 4.85553C20.739 5.29353 21.079 5.75953 21.381 6.25253L21.807 5.99053ZM19.47 3.25553L19.795 2.87553C19.317 2.46701 18.8078 2.09654 18.272 1.76753L18.01 2.19353L17.748 2.61953C18.241 2.92153 18.708 3.26153 19.145 3.63553L19.47 3.25553ZM16.403 1.37253L16.594 0.911533C16.0136 0.670623 15.4151 0.476015 14.804 0.329533L14.687 0.815533L14.571 1.30253C15.136 1.43753 15.684 1.61653 16.211 1.83453L16.403 1.37253ZM12.904 0.535533L12.942 0.0365329C12.3149 -0.0121776 11.6851 -0.0121776 11.058 0.0365329L11.096 0.535533L11.135 1.03353C11.7108 0.988789 12.2892 0.988789 12.865 1.03353L12.904 0.535533ZM9.314 0.815533L9.197 0.330533C8.581 0.478533 7.982 0.673533 7.407 0.912533L7.598 1.37353L7.79 1.83553C8.32177 1.61521 8.87015 1.43732 9.43 1.30353L9.314 0.815533ZM4.207 2.87553C4.683 2.46753 5.192 2.09753 5.729 1.76753L5.991 2.19353L6.253 2.61953C5.76151 2.92119 5.29442 3.2609 4.856 3.63553L4.531 3.25553L4.207 2.87553ZM3.255 4.53053L2.875 4.20653C2.467 4.68253 2.097 5.19153 1.767 5.72853L2.193 5.99053L2.619 6.25253C2.921 5.75953 3.261 5.29253 3.635 4.85553L3.255 4.53053ZM1.372 7.59853L0.911 7.40753C0.670074 7.98791 0.475466 8.58644 0.329 9.19753L0.815 9.31453L1.302 9.43053C1.437 8.86553 1.616 8.31753 1.834 7.79053L1.372 7.59853ZM0 12.0005C0 11.6835 0.012 11.3685 0.036 11.0585L0.535 11.0965L1.033 11.1355C0.988256 11.7113 0.988256 12.2897 1.033 12.8655L0.535 12.9045L0.036 12.9425C0.012 12.6325 0 12.3175 0 12.0005ZM0.815 14.6865L0.329 14.8035C0.477 15.4195 0.672 16.0185 0.911 16.5935L1.372 16.4025L1.834 16.2105C1.61368 15.6788 1.43579 15.1304 1.302 14.5705L0.815 14.6865ZM2.193 18.0095L1.767 18.2715C2.097 18.8085 2.467 19.3175 2.875 19.7945L3.255 19.4695L3.635 19.1445C3.26037 18.7061 2.92066 18.239 2.619 17.7475L2.193 18.0095ZM4.531 20.7455L4.207 21.1255C4.683 21.5335 5.192 21.9045 5.729 22.2335L5.991 21.8075L6.253 21.3815C5.76151 21.0799 5.29441 20.7402 4.856 20.3655L4.531 20.7455ZM7.598 22.6285L7.407 23.0895C7.982 23.3295 8.581 23.5235 9.197 23.6715L9.314 23.1855L9.43 22.6985C8.87016 22.5647 8.32178 22.3869 7.79 22.1665L7.598 22.6285ZM11.096 23.4655L11.058 23.9635C11.6851 24.0123 12.3149 24.0123 12.942 23.9635L12.904 23.4655L12.865 22.9675C12.2892 23.0124 11.7108 23.0124 11.135 22.9675L11.096 23.4655ZM14.686 23.1855L14.803 23.6715C15.4141 23.5251 16.0126 23.3305 16.593 23.0895L16.402 22.6285L16.21 22.1665C15.6782 22.3869 15.1298 22.5647 14.57 22.6985L14.686 23.1855ZM18.009 21.8075L18.271 22.2335C18.808 21.9035 19.317 21.5335 19.794 21.1255L19.469 20.7455L19.144 20.3655C18.7056 20.7402 18.2385 21.0799 17.747 21.3815L18.009 21.8075ZM20.745 19.4695L21.125 19.7945C21.533 19.3175 21.904 18.8085 22.233 18.2715L21.807 18.0095L21.381 17.7475C21.0793 18.239 20.7396 18.7061 20.365 19.1445L20.745 19.4695ZM22.628 16.4025L23.089 16.5935C23.329 16.0185 23.523 15.4195 23.671 14.8035L23.185 14.6865L22.698 14.5705C22.5642 15.1304 22.3863 15.6788 22.166 16.2105L22.628 16.4025ZM12 3.00053C14.404 3.00053 16.664 3.93653 18.364 5.63653C19.2023 6.47032 19.867 7.46211 20.3195 8.55449C20.7719 9.64687 21.0032 10.8182 21 12.0005C21.0032 13.1829 20.7719 14.3542 20.3194 15.4465C19.8669 16.5389 19.2023 17.5307 18.364 18.3645C17.5302 19.2028 16.5384 19.8675 15.446 20.3199C14.3536 20.7724 13.1824 21.0037 12 21.0005C10.8176 21.0038 9.64634 20.7725 8.55396 20.32C7.46158 19.8675 6.46979 19.2029 5.636 18.3645C4.79765 17.5307 4.133 16.539 3.68053 15.4466C3.22806 14.3542 2.99676 13.1829 3 12.0005C3 9.59653 3.936 7.33653 5.636 5.63653C6.46975 4.79814 7.46154 4.13346 8.55393 3.68099C9.64632 3.22852 10.8176 2.99723 12 3.00053ZM16.318 15.8435H18.952C19.504 14.8485 19.849 13.7235 19.927 12.5275H16.933C16.8872 13.6565 16.6801 14.7732 16.318 15.8435ZM9.277 16.8985C9.947 18.1645 10.877 19.1995 12 19.8685C13.123 19.1995 14.053 18.1645 14.723 16.8985H9.277ZM8.123 12.5285C8.177 13.7025 8.413 14.8265 8.8 15.8435H15.2C15.587 14.8265 15.823 13.7035 15.877 12.5275L8.123 12.5285ZM7.067 12.5285H4.073C4.14894 13.692 4.48193 14.8242 5.048 15.8435H7.682C7.31989 14.7732 7.11279 13.6575 7.067 12.5285ZM7.682 8.15753H5.048C4.48179 9.17717 4.14879 10.3097 4.073 11.4735H7.067C7.117 10.3115 7.329 9.19153 7.682 8.15753ZM14.723 7.10253C14.053 5.83653 13.123 4.80153 12 4.13253C10.877 4.80153 9.947 5.83653 9.277 7.10253H14.723ZM15.877 11.4725C15.8282 10.3387 15.5997 9.21974 15.2 8.15753H8.8C8.40021 9.22006 8.17169 10.3393 8.123 11.4735L15.877 11.4725ZM16.933 11.4725H19.927C19.851 10.309 19.518 9.17688 18.952 8.15753H16.318C16.671 9.19153 16.883 10.3105 16.933 11.4725ZM13.927 4.29253C14.727 5.06253 15.394 6.01953 15.896 7.10253H18.252C17.162 5.71199 15.6405 4.72344 13.927 4.29253ZM8.105 7.10253C8.605 6.01953 9.273 5.06253 10.073 4.29253C8.35954 4.72351 6.83805 5.71204 5.748 7.10253H8.105ZM10.073 19.7095C9.273 18.9375 8.606 17.9805 8.105 16.8985H5.748C6.83805 18.289 8.35954 19.2786 10.073 19.7095ZM15.895 16.8985C15.395 17.9805 14.727 18.9385 13.927 19.7085C15.6405 19.2776 17.1619 18.289 18.252 16.8985H15.895Z"/>
</mask>
<path fill-rule="evenodd" clip-rule="evenodd" d="M23.465 12.9045L23.963 12.9425C24.0118 12.3155 24.0118 11.6856 23.963 11.0585L23.465 11.0965L22.967 11.1355C23.0118 11.7113 23.0118 12.2897 22.967 12.8655L23.465 12.9045ZM23.185 9.31453L23.671 9.19753C23.5246 8.58644 23.3299 7.9879 23.089 7.40753L22.628 7.59853L22.166 7.79053C22.384 8.31753 22.563 8.86553 22.698 9.43053L23.185 9.31453ZM21.807 5.99053L22.233 5.72853C21.903 5.19153 21.533 4.68253 21.125 4.20653L20.745 4.53053L20.365 4.85553C20.739 5.29353 21.079 5.75953 21.381 6.25253L21.807 5.99053ZM19.47 3.25553L19.795 2.87553C19.317 2.46701 18.8078 2.09654 18.272 1.76753L18.01 2.19353L17.748 2.61953C18.241 2.92153 18.708 3.26153 19.145 3.63553L19.47 3.25553ZM16.403 1.37253L16.594 0.911533C16.0136 0.670623 15.4151 0.476015 14.804 0.329533L14.687 0.815533L14.571 1.30253C15.136 1.43753 15.684 1.61653 16.211 1.83453L16.403 1.37253ZM12.904 0.535533L12.942 0.0365329C12.3149 -0.0121776 11.6851 -0.0121776 11.058 0.0365329L11.096 0.535533L11.135 1.03353C11.7108 0.988789 12.2892 0.988789 12.865 1.03353L12.904 0.535533ZM9.314 0.815533L9.197 0.330533C8.581 0.478533 7.982 0.673533 7.407 0.912533L7.598 1.37353L7.79 1.83553C8.32177 1.61521 8.87015 1.43732 9.43 1.30353L9.314 0.815533ZM4.207 2.87553C4.683 2.46753 5.192 2.09753 5.729 1.76753L5.991 2.19353L6.253 2.61953C5.76151 2.92119 5.29442 3.2609 4.856 3.63553L4.531 3.25553L4.207 2.87553ZM3.255 4.53053L2.875 4.20653C2.467 4.68253 2.097 5.19153 1.767 5.72853L2.193 5.99053L2.619 6.25253C2.921 5.75953 3.261 5.29253 3.635 4.85553L3.255 4.53053ZM1.372 7.59853L0.911 7.40753C0.670074 7.98791 0.475466 8.58644 0.329 9.19753L0.815 9.31453L1.302 9.43053C1.437 8.86553 1.616 8.31753 1.834 7.79053L1.372 7.59853ZM0 12.0005C0 11.6835 0.012 11.3685 0.036 11.0585L0.535 11.0965L1.033 11.1355C0.988256 11.7113 0.988256 12.2897 1.033 12.8655L0.535 12.9045L0.036 12.9425C0.012 12.6325 0 12.3175 0 12.0005ZM0.815 14.6865L0.329 14.8035C0.477 15.4195 0.672 16.0185 0.911 16.5935L1.372 16.4025L1.834 16.2105C1.61368 15.6788 1.43579 15.1304 1.302 14.5705L0.815 14.6865ZM2.193 18.0095L1.767 18.2715C2.097 18.8085 2.467 19.3175 2.875 19.7945L3.255 19.4695L3.635 19.1445C3.26037 18.7061 2.92066 18.239 2.619 17.7475L2.193 18.0095ZM4.531 20.7455L4.207 21.1255C4.683 21.5335 5.192 21.9045 5.729 22.2335L5.991 21.8075L6.253 21.3815C5.76151 21.0799 5.29441 20.7402 4.856 20.3655L4.531 20.7455ZM7.598 22.6285L7.407 23.0895C7.982 23.3295 8.581 23.5235 9.197 23.6715L9.314 23.1855L9.43 22.6985C8.87016 22.5647 8.32178 22.3869 7.79 22.1665L7.598 22.6285ZM11.096 23.4655L11.058 23.9635C11.6851 24.0123 12.3149 24.0123 12.942 23.9635L12.904 23.4655L12.865 22.9675C12.2892 23.0124 11.7108 23.0124 11.135 22.9675L11.096 23.4655ZM14.686 23.1855L14.803 23.6715C15.4141 23.5251 16.0126 23.3305 16.593 23.0895L16.402 22.6285L16.21 22.1665C15.6782 22.3869 15.1298 22.5647 14.57 22.6985L14.686 23.1855ZM18.009 21.8075L18.271 22.2335C18.808 21.9035 19.317 21.5335 19.794 21.1255L19.469 20.7455L19.144 20.3655C18.7056 20.7402 18.2385 21.0799 17.747 21.3815L18.009 21.8075ZM20.745 19.4695L21.125 19.7945C21.533 19.3175 21.904 18.8085 22.233 18.2715L21.807 18.0095L21.381 17.7475C21.0793 18.239 20.7396 18.7061 20.365 19.1445L20.745 19.4695ZM22.628 16.4025L23.089 16.5935C23.329 16.0185 23.523 15.4195 23.671 14.8035L23.185 14.6865L22.698 14.5705C22.5642 15.1304 22.3863 15.6788 22.166 16.2105L22.628 16.4025ZM12 3.00053C14.404 3.00053 16.664 3.93653 18.364 5.63653C19.2023 6.47032 19.867 7.46211 20.3195 8.55449C20.7719 9.64687 21.0032 10.8182 21 12.0005C21.0032 13.1829 20.7719 14.3542 20.3194 15.4465C19.8669 16.5389 19.2023 17.5307 18.364 18.3645C17.5302 19.2028 16.5384 19.8675 15.446 20.3199C14.3536 20.7724 13.1824 21.0037 12 21.0005C10.8176 21.0038 9.64634 20.7725 8.55396 20.32C7.46158 19.8675 6.46979 19.2029 5.636 18.3645C4.79765 17.5307 4.133 16.539 3.68053 15.4466C3.22806 14.3542 2.99676 13.1829 3 12.0005C3 9.59653 3.936 7.33653 5.636 5.63653C6.46975 4.79814 7.46154 4.13346 8.55393 3.68099C9.64632 3.22852 10.8176 2.99723 12 3.00053ZM16.318 15.8435H18.952C19.504 14.8485 19.849 13.7235 19.927 12.5275H16.933C16.8872 13.6565 16.6801 14.7732 16.318 15.8435ZM9.277 16.8985C9.947 18.1645 10.877 19.1995 12 19.8685C13.123 19.1995 14.053 18.1645 14.723 16.8985H9.277ZM8.123 12.5285C8.177 13.7025 8.413 14.8265 8.8 15.8435H15.2C15.587 14.8265 15.823 13.7035 15.877 12.5275L8.123 12.5285ZM7.067 12.5285H4.073C4.14894 13.692 4.48193 14.8242 5.048 15.8435H7.682C7.31989 14.7732 7.11279 13.6575 7.067 12.5285ZM7.682 8.15753H5.048C4.48179 9.17717 4.14879 10.3097 4.073 11.4735H7.067C7.117 10.3115 7.329 9.19153 7.682 8.15753ZM14.723 7.10253C14.053 5.83653 13.123 4.80153 12 4.13253C10.877 4.80153 9.947 5.83653 9.277 7.10253H14.723ZM15.877 11.4725C15.8282 10.3387 15.5997 9.21974 15.2 8.15753H8.8C8.40021 9.22006 8.17169 10.3393 8.123 11.4735L15.877 11.4725ZM16.933 11.4725H19.927C19.851 10.309 19.518 9.17688 18.952 8.15753H16.318C16.671 9.19153 16.883 10.3105 16.933 11.4725ZM13.927 4.29253C14.727 5.06253 15.394 6.01953 15.896 7.10253H18.252C17.162 5.71199 15.6405 4.72344 13.927 4.29253ZM8.105 7.10253C8.605 6.01953 9.273 5.06253 10.073 4.29253C8.35954 4.72351 6.83805 5.71204 5.748 7.10253H8.105ZM10.073 19.7095C9.273 18.9375 8.606 17.9805 8.105 16.8985H5.748C6.83805 18.289 8.35954 19.2786 10.073 19.7095ZM15.895 16.8985C15.395 17.9805 14.727 18.9385 13.927 19.7085C15.6405 19.2776 17.1619 18.289 18.252 16.8985H15.895Z" fill="#171C29" stroke="white" stroke-width="0.4" mask="url(#path-1-inside-1_3_63)"/>
</svg>
