<svg width="62" height="31" viewBox="0 0 62 31" fill="none" xmlns="http://www.w3.org/2000/svg">
<path fill-rule="evenodd" clip-rule="evenodd" d="M55.7566 10.0815C54.9031 10.398 54.4454 11.1714 54.5083 12.1917C54.5188 12.3638 54.6767 12.4843 55.3706 12.8502C55.71 13.0291 55.7703 13.0442 55.8903 12.9803C56.0904 12.8737 56.1097 12.8209 56.111 12.3776C56.1119 11.8848 56.2038 11.7171 56.4707 11.7211C56.5996 11.7231 57.1655 12.0226 58.4112 12.7476C60.3227 13.8599 60.4361 13.9526 60.2299 14.2315C60.1094 14.3945 56.6224 16.4303 56.4637 16.4303C56.243 16.4303 56.1264 16.2009 56.0983 15.712C56.0543 14.9377 55.7074 14.3925 55.0518 14.0665C54.7325 13.908 54.6169 13.8812 54.2427 13.8792C53.6917 13.8764 53.7062 13.8695 51.2733 15.2742C49.1609 16.4937 48.9384 16.6677 48.7106 17.277C48.5558 17.6909 48.5734 18.3314 48.7506 18.7287C48.9841 19.2515 49.1912 19.4041 51.3933 20.676C52.5392 21.338 53.5796 21.9106 53.7049 21.9485C54.0404 22.05 54.7193 21.9949 55.035 21.8406C55.666 21.5319 56.0675 20.8992 56.0983 20.1652C56.108 19.9282 56.0961 19.7045 56.071 19.6681C56.0464 19.6316 55.7958 19.4665 55.5139 19.301C54.7554 18.8557 54.5179 18.8956 54.5175 19.4683C54.5171 19.9586 54.4322 20.2015 54.2383 20.2698C54.0905 20.3218 53.992 20.2795 53.2005 19.8241C52.7199 19.5474 51.9548 19.1073 51.501 18.8462C51.0468 18.585 50.5921 18.3082 50.4906 18.231C50.2804 18.0716 50.2474 17.8674 50.4061 17.7087C50.5517 17.5635 54.0237 15.5683 54.1305 15.5683C54.3535 15.5683 54.4559 15.7547 54.4942 16.2291C54.5799 17.307 55.203 17.991 56.2254 18.1305C56.651 18.1886 57.0573 18.0366 58.1153 17.4232C60.9075 15.8044 61.3327 15.5497 61.48 15.4076C61.5679 15.3228 61.7214 15.0855 61.8216 14.8804C61.9817 14.5518 62.0028 14.4525 61.9997 14.0466C61.9958 13.4706 61.8498 13.1078 61.4734 12.738C61.2914 12.559 60.5808 12.1134 59.2427 11.3395C58.1623 10.715 57.1567 10.1568 57.0076 10.0992C56.6849 9.97457 56.0684 9.9659 55.7566 10.0815ZM9.54819 10.1892C8.64989 10.3903 8.35282 10.8565 8.35282 12.0654V12.7527H7.8974H7.44203V13.471V14.1892H7.8974H8.35282V16.7175V19.2459H9.14972H9.94666V16.7175V14.1892H10.9997H12.0528V16.0463C12.0528 18.0372 12.0788 18.265 12.3527 18.6753C12.4288 18.7892 12.619 18.9406 12.8103 19.0393C13.1135 19.1958 13.1947 19.2103 13.9046 19.2346L14.6713 19.2608V18.542V17.8231L14.3273 17.798C14.0484 17.7777 13.954 17.7434 13.8292 17.6175L13.6752 17.4621L13.6577 15.8257L13.6402 14.1892H14.1558H14.6713V13.471V12.7527H14.159H13.6467V11.977V11.2012H12.8498H12.0528V11.977V12.7527H10.9997H9.94666L9.94983 12.3648C9.95607 11.6215 10.165 11.3739 10.7863 11.3738L11.0851 11.3736V10.7415V10.1095L10.4732 10.1143C10.1367 10.117 9.72039 10.1506 9.54819 10.1892ZM2.48967 12.7152C0.358181 13.2141 -0.649476 15.7154 0.448806 17.7811C1.01406 18.8443 2.28784 19.4887 3.47925 19.3143C4.03338 19.2331 4.52508 19.0037 4.86625 18.667L5.10814 18.4282V18.837V19.2459H5.90509H6.70203V15.9993V12.7527H5.90509H5.10814V13.1239V13.4951L4.74287 13.216C4.54201 13.0625 4.22932 12.8809 4.04803 12.8125C3.64129 12.6588 2.92231 12.6139 2.48967 12.7152ZM18.0014 12.6956C15.9442 13.0095 14.7428 15.1867 15.4699 17.283C15.6143 17.6996 16.0324 18.3188 16.3423 18.5751C17.3601 19.4171 18.9316 19.5875 20.176 18.991C20.7318 18.7246 21.3137 18.1513 21.5583 17.6292C21.8349 17.039 21.8618 17.0623 20.9045 17.0623C20.4505 17.0623 20.0791 17.085 20.0791 17.1127C20.0791 17.2222 19.6369 17.623 19.3781 17.7481C19.0054 17.9283 18.4832 17.9652 18.0609 17.8413C17.6348 17.7162 17.1855 17.285 17.0437 16.8648C16.9912 16.7094 16.9483 16.548 16.9483 16.5062C16.9483 16.4444 17.411 16.4303 19.4327 16.4303H21.9172L21.8865 15.8699C21.7701 13.7354 20.1044 12.3746 18.0014 12.6956ZM25.2306 12.6882C24.9421 12.7654 24.5976 12.9688 24.4446 13.1524C24.3644 13.2486 24.2843 13.3273 24.2666 13.3273C24.249 13.3273 24.2345 13.1973 24.2345 13.0384V12.7495L23.4518 12.7655L22.6691 12.7815L22.6544 16.0136L22.6396 19.2459H23.4656H24.2914V17.2451C24.2914 15.5798 24.3067 15.1926 24.3823 14.9353C24.5973 14.2048 25.2354 13.9754 26.0685 14.3292C26.1849 14.3787 26.2937 14.4191 26.3104 14.4191C26.3271 14.4191 26.3407 14.058 26.3407 13.6167C26.3407 12.8723 26.3324 12.8098 26.2265 12.7525C26.0758 12.6711 25.4465 12.6305 25.2306 12.6882ZM30.2968 12.6751C29.6483 12.8114 29.321 12.9703 28.92 13.3434L28.6745 13.5718V13.1623V12.7527H27.8776H27.0807V17.3209V21.8891H27.9061H28.7314V20.2158V18.5425L28.9858 18.7528C30.3627 19.8918 32.5629 19.3221 33.4159 17.6057C33.6825 17.0694 33.765 16.6825 33.7648 15.9706C33.7647 15.3803 33.7461 15.2566 33.5904 14.8119C33.2929 13.9623 32.6656 13.2398 31.9467 12.9188C31.4681 12.7051 30.6964 12.5911 30.2968 12.6751ZM36.843 12.7231C36.3783 12.8268 36.0511 12.9795 35.6567 13.2766C34.1038 14.4456 33.9186 16.9369 35.2755 18.4014C35.9878 19.1697 37.1306 19.5259 38.0813 19.2759C38.5496 19.1527 38.8548 18.9933 39.192 18.6954L39.4901 18.4325V18.8391V19.2459H40.2874H41.085L41.0701 16.0136L41.0555 12.7815L40.2728 12.7655L39.4901 12.7495V13.1246C39.4901 13.3309 39.4748 13.4997 39.4559 13.4997C39.4374 13.4997 39.3072 13.3975 39.1665 13.2726C38.5562 12.7305 37.7084 12.53 36.843 12.7231ZM41.7098 12.7844C41.7098 12.8019 42.2771 14.0754 42.9701 15.6144C43.6635 17.1535 44.2303 18.4385 44.2303 18.4701C44.2299 18.5017 44.0632 18.8767 43.8596 19.3033C43.6556 19.73 43.3166 20.4411 43.1059 20.8835C42.8953 21.3259 42.6988 21.7332 42.6697 21.7885C42.6205 21.8823 42.6781 21.8891 43.5334 21.8891H44.4502L44.9827 20.783C46.9478 16.7018 48.7818 12.8854 48.8073 12.8245C48.8311 12.7688 48.6323 12.7527 47.9195 12.7527C47.0199 12.7527 47.0001 12.7554 46.9508 12.882C46.9231 12.9531 46.6844 13.4638 46.421 14.0169C46.1576 14.5699 45.7917 15.3457 45.6079 15.7407C45.4246 16.1358 45.257 16.4798 45.2364 16.5054C45.2157 16.5309 45.1067 16.3369 44.9945 16.0744C44.882 15.8119 44.5825 15.1187 44.3284 14.534C44.0746 13.9493 43.8011 13.3094 43.7216 13.1119L43.5764 12.7527H42.6434C42.1298 12.7527 41.7098 12.767 41.7098 12.7844ZM19.0628 14.1675C19.4775 14.2849 19.824 14.5784 20.0009 14.9618C20.0745 15.1215 20.1351 15.2847 20.1354 15.3241C20.1359 15.3799 19.7802 15.3959 18.5451 15.3959H16.9542L17.0176 15.2092C17.1959 14.6836 17.6002 14.2955 18.1437 14.128C18.3809 14.055 18.7163 14.0693 19.0628 14.1675ZM4.09178 14.3239C4.43872 14.4953 4.73359 14.7918 4.90926 15.1457C5.05687 15.4431 5.07622 15.5421 5.07626 15.9993C5.07635 16.5969 4.97082 16.8975 4.6256 17.2831C3.9921 17.991 2.86958 18.0269 2.18591 17.3612C2.06582 17.2442 1.90023 17.0192 1.81804 16.8612C1.68775 16.6108 1.66823 16.5037 1.66638 16.028C1.66449 15.5438 1.68235 15.4451 1.82402 15.1538C2.0084 14.7747 2.39152 14.4077 2.73582 14.2806C3.05756 14.1617 3.81225 14.1859 4.09178 14.3239ZM31.0235 14.2798C31.3862 14.4045 31.7676 14.7609 31.9587 15.1538C32.0997 15.4437 32.1184 15.546 32.1182 16.028C32.1181 16.4895 32.0974 16.6139 31.9841 16.8325C31.5986 17.5766 30.8615 17.9611 30.1134 17.8085C29.5037 17.684 29.1304 17.3781 28.852 16.775C28.6703 16.3812 28.6496 15.68 28.8087 15.3097C29.0242 14.8084 29.4125 14.4136 29.8415 14.2596C30.0992 14.1671 30.7271 14.1778 31.0235 14.2798ZM38.4937 14.3463C38.7853 14.5 39.0588 14.7734 39.2487 15.1007C39.3719 15.3127 39.4031 15.4495 39.4229 15.8618C39.4712 16.8866 39.0188 17.551 38.1081 17.7922C37.7695 17.8818 37.7194 17.8819 37.3624 17.7929C36.5163 17.5821 36.0142 16.9236 36.0111 16.0203C36.0093 15.5265 36.0863 15.2505 36.3171 14.923C36.5366 14.6113 36.7151 14.4603 37.0524 14.301C37.3857 14.1436 38.1556 14.1678 38.4937 14.3463Z" fill="black"/>
</svg>
