<svg xmlns="http://www.w3.org/2000/svg" version="1.0" width="700.000000pt" height="700.000000pt" viewBox="0 0 700.000000 700.000000" preserveAspectRatio="xMidYMid meet">
  <metadata>
  Created by potrace 1.14, written by Peter Selinger 2001-2017
  </metadata>
  <g transform="translate(0.000000,700.000000) scale(0.100000,-0.100000)" fill="#000000" stroke="none">
  <path d="M0 3500 l0 -3500 3500 0 3500 0 0 3500 0 3500 -3500 0 -3500 0 0 -3500z m2510 2080 l0 -80 -315 0 -315 0 0 -2000 0 -2000 315 0 315 0 0 -85 0 -85 -717 2 -718 3 -3 2083 -2 2082 -310 0 -310 0 0 80 0 80 1030 0 1030 0 0 -80z m2695 70 c276 -26 453 -64 611 -129 267 -110 425 -251 527 -471 73 -156 82 -201 81 -390 0 -150 -3 -173 -28 -255 -56 -183 -157 -335 -307 -461 -166 -140 -288 -207 -489 -267 -126 -38 -334 -87 -371 -87 -50 0 0 -18 82 -29 120 -16 350 -74 467 -117 330 -122 582 -326 705 -571 117 -230 113 -615 -8 -871 -148 -312 -453 -529 -862 -611 -255 -52 -286 -54 -1275 -58 l-928 -4 0 2080 0 2081 -315 0 -315 0 0 85 0 85 1163 0 c660 0 1205 -5 1262 -10z"/>
  <path d="M4220 4580 l0 -932 353 5 c375 5 406 8 559 62 291 102 431 385 429 872 0 95 -5 212 -11 260 -6 49 -13 112 -16 141 -4 62 -49 182 -93 251 -46 71 -132 148 -204 182 -35 16 -108 41 -163 56 -98 26 -104 27 -476 31 l-378 3 0 -931z"/>
  <path d="M4448 3502 l-228 -2 0 -1006 0 -1006 463 4 c444 4 465 5 528 26 209 69 345 254 425 577 35 141 43 377 19 565 -61 480 -216 706 -545 794 -169 45 -282 53 -662 48z"/>
  </g>
  </svg>