<svg width="24" height="24" viewBox="0 0 24 24" fill="none" xmlns="http://www.w3.org/2000/svg">
<path d="M18.4681 4V4.42092C17.9129 4.51952 17.4927 4.69396 17.2074 4.94422C16.7987 5.31585 16.3168 5.88465 16.0007 6.65063L9.56863 19.7786H9.14068L2.68355 6.47999C2.38282 5.79744 1.97399 5.38031 1.85062 5.22862C1.65784 4.99353 1.42073 4.80961 1.13929 4.67688C0.857836 4.54417 0.478074 4.45885 0 4.42092V4H6.28296V4.42092C5.55813 4.48919 5.21256 4.61053 4.99666 4.78495C4.78075 4.9594 4.6728 5.18313 4.67281 5.45614C4.6728 5.83536 4.85015 6.42691 5.20486 7.23081L9.97345 16.2748L14.6358 7.34457C14.9982 6.46483 15.2989 5.85432 15.2989 5.51302C15.2989 5.2931 15.1871 5.08264 14.9635 4.88165C14.7399 4.68068 14.4868 4.53848 13.9548 4.45504C13.9162 4.44747 13.8507 4.4361 13.7582 4.42092V4H18.4681Z" fill="black"/>
<path d="M24 4V4.42092C23.4448 4.51952 23.0246 4.69396 22.7393 4.94422C22.3306 5.31585 21.8487 5.88465 21.5326 6.65063L15.8877 19.7786H15.4597L9.49457 6.47999C9.19384 5.79744 8.78501 5.38031 8.66164 5.22862C8.46886 4.99353 8.23175 4.80961 7.95031 4.67688C7.66886 4.54417 7.4139 4.45885 6.93582 4.42092V4H13.094V4.42092C12.3691 4.48919 12.0236 4.61053 11.8077 4.78495C11.5918 4.9594 11.4838 5.18313 11.4838 5.45614C11.4838 5.83536 11.6612 6.42691 12.0159 7.23081L16.2925 16.2748L20.1678 7.34457C20.5302 6.46483 20.8308 5.85432 20.8308 5.51302C20.8308 5.2931 20.719 5.08264 20.4954 4.88165C20.2718 4.68068 19.8939 4.53848 19.3619 4.45504C19.3233 4.44747 19.2578 4.4361 19.1653 4.42092V4H24Z" fill="black"/>
</svg>
