<svg width="493" height="127" viewBox="0 0 493 127" fill="none" xmlns="http://www.w3.org/2000/svg">
<path d="M39.739 1.352V2.472C38.9176 2.84533 38.0216 3.592 37.051 4.712C36.0803 5.79467 35.203 7.456 34.419 9.696L23.051 41.056C22.6776 41.0187 22.267 41 21.819 41C21.4083 40.9627 20.9976 40.944 20.587 40.944C20.1763 40.944 19.747 40.9627 19.299 41C18.8883 41 18.4963 41.0187 18.123 41.056L3.67497 6.056C3.1523 4.712 2.57364 3.79733 1.93897 3.312C1.34164 2.78933 0.781635 2.50933 0.258969 2.472V1.352C1.49097 1.38933 2.9283 1.42667 4.57097 1.464C6.25097 1.50133 7.93097 1.52 9.61097 1.52C11.4403 1.52 13.139 1.50133 14.707 1.464C16.3123 1.42667 17.6003 1.38933 18.571 1.352V2.472C17.3763 2.50933 16.443 2.64 15.771 2.864C15.1363 3.088 14.763 3.536 14.651 4.208C14.5763 4.84266 14.8003 5.832 15.323 7.176L25.459 32.544L24.227 34.112L31.283 14.736C32.3656 11.712 32.9256 9.32267 32.963 7.568C33.0003 5.776 32.6083 4.488 31.787 3.704C30.9656 2.92 29.8083 2.50933 28.315 2.472V1.352C29.659 1.38933 30.8723 1.42667 31.955 1.464C33.075 1.50133 34.251 1.52 35.483 1.52C36.267 1.52 37.0323 1.50133 37.779 1.464C38.5256 1.42667 39.179 1.38933 39.739 1.352ZM56.2332 1.296L69.7852 36.296C70.3452 37.6027 70.9238 38.5173 71.5212 39.04C72.1558 39.5627 72.7158 39.8427 73.2012 39.88V41C72.0065 40.9253 70.5692 40.888 68.8892 40.888C67.2465 40.8507 65.5665 40.832 63.8492 40.832C62.0572 40.832 60.3585 40.8507 58.7532 40.888C57.1478 40.888 55.8598 40.9253 54.8892 41V39.88C56.7932 39.8053 58.0065 39.488 58.5292 38.928C59.0518 38.3307 58.9398 37.08 58.1932 35.176L48.8972 9.752L50.0172 8.072L41.8412 29.184C40.9825 31.424 40.4598 33.2347 40.2732 34.616C40.0865 35.9973 40.1798 37.0613 40.5532 37.808C40.9265 38.5547 41.5052 39.0773 42.2892 39.376C43.1105 39.6747 44.0812 39.8427 45.2012 39.88V41C43.8945 40.9253 42.6812 40.888 41.5612 40.888C40.4785 40.8507 39.3025 40.832 38.0332 40.832C37.2865 40.832 36.5212 40.8507 35.7372 40.888C34.9905 40.888 34.3372 40.9253 33.7772 41V39.88C34.5985 39.7307 35.4198 39.208 36.2412 38.312C37.0998 37.416 37.9398 35.8667 38.7612 33.664L51.3612 1.296C52.1078 1.37067 52.9105 1.408 53.7692 1.408C54.6652 1.408 55.4865 1.37067 56.2332 1.296ZM59.1452 24.872V25.992H42.4572L43.0172 24.872H59.1452ZM92.2499 1.352V2.472C90.9806 2.50933 90.0099 2.65867 89.3379 2.92C88.7032 3.144 88.2739 3.592 88.0499 4.264C87.8259 4.89866 87.7139 5.90666 87.7139 7.288V35.96C87.7139 37.0427 87.7886 37.864 87.9379 38.424C88.1246 38.9467 88.4419 39.3013 88.8899 39.488C89.3379 39.6373 90.0099 39.712 90.9059 39.712H93.2019C94.3219 39.712 95.4419 39.376 96.5619 38.704C97.6819 38.032 98.7272 37.0987 99.6979 35.904C100.669 34.672 101.509 33.272 102.218 31.704C102.927 30.0987 103.431 28.3813 103.73 26.552H105.018C104.906 27.8587 104.85 29.5387 104.85 31.592C104.85 32.5253 104.869 33.8693 104.906 35.624C104.943 37.3413 105.055 39.1333 105.242 41C103.338 40.9253 101.191 40.888 98.8019 40.888C96.4126 40.8507 94.2846 40.832 92.4179 40.832C91.4472 40.832 90.2152 40.832 88.7219 40.832C87.2286 40.832 85.6046 40.8507 83.8499 40.888C82.0952 40.888 80.3219 40.9067 78.5299 40.944C76.7379 40.944 75.0579 40.9627 73.4899 41V39.88C74.6472 39.8053 75.5059 39.656 76.0659 39.432C76.6632 39.208 77.0552 38.76 77.2419 38.088C77.4659 37.416 77.5779 36.408 77.5779 35.064V7.288C77.5779 5.90666 77.4659 4.89866 77.2419 4.264C77.0552 3.592 76.6632 3.144 76.0659 2.92C75.5059 2.65867 74.6472 2.50933 73.4899 2.472V1.352C74.4979 1.38933 75.8419 1.42667 77.5219 1.464C79.2019 1.50133 80.9939 1.52 82.8979 1.52C84.6526 1.52 86.3699 1.50133 88.0499 1.464C89.7299 1.42667 91.1299 1.38933 92.2499 1.352ZM138.739 1.352C138.59 3.10667 138.478 4.80533 138.403 6.448C138.366 8.09067 138.347 9.34133 138.347 10.2C138.347 10.9467 138.366 11.6747 138.403 12.384C138.44 13.0933 138.478 13.672 138.515 14.12H137.227C136.816 11.208 136.144 8.912 135.211 7.232C134.315 5.552 133.195 4.376 131.851 3.704C130.544 2.99466 129.088 2.64 127.483 2.64H125.971C124.963 2.64 124.179 2.73333 123.619 2.92C123.096 3.06933 122.742 3.40533 122.555 3.928C122.406 4.45067 122.331 5.272 122.331 6.392V35.96C122.331 37.0427 122.406 37.864 122.555 38.424C122.742 38.9467 123.096 39.3013 123.619 39.488C124.179 39.6373 124.963 39.712 125.971 39.712H128.267C129.723 39.712 131.104 39.3387 132.411 38.592C133.755 37.808 134.95 36.5013 135.995 34.672C137.04 32.8053 137.824 30.2853 138.347 27.112H139.635C139.523 28.3813 139.467 30.024 139.467 32.04C139.467 32.936 139.486 34.2053 139.523 35.848C139.56 37.4907 139.672 39.208 139.859 41C137.955 40.9253 135.808 40.888 133.419 40.888C131.03 40.8507 128.902 40.832 127.035 40.832C126.064 40.832 124.832 40.832 123.339 40.832C121.846 40.832 120.222 40.8507 118.467 40.888C116.712 40.888 114.939 40.9067 113.147 40.944C111.355 40.944 109.675 40.9627 108.107 41V39.88C109.264 39.8053 110.123 39.656 110.683 39.432C111.28 39.208 111.672 38.76 111.859 38.088C112.083 37.416 112.195 36.408 112.195 35.064V7.288C112.195 5.90666 112.083 4.89866 111.859 4.264C111.672 3.592 111.28 3.144 110.683 2.92C110.123 2.65867 109.264 2.50933 108.107 2.472V1.352C109.712 1.38933 111.392 1.42667 113.147 1.464C114.939 1.464 116.694 1.48266 118.411 1.52C120.166 1.52 121.79 1.52 123.283 1.52C124.814 1.52 126.064 1.52 127.035 1.52C128.752 1.52 130.694 1.52 132.859 1.52C135.062 1.48266 137.022 1.42667 138.739 1.352ZM130.283 20.504C130.283 20.504 130.283 20.6907 130.283 21.064C130.283 21.4373 130.283 21.624 130.283 21.624H120.651C120.651 21.624 120.651 21.4373 120.651 21.064C120.651 20.6907 120.651 20.504 120.651 20.504H130.283ZM131.907 13.112C131.758 15.24 131.683 16.864 131.683 17.984C131.72 19.104 131.739 20.1307 131.739 21.064C131.739 21.9973 131.758 23.024 131.795 24.144C131.832 25.264 131.926 26.888 132.075 29.016H130.787C130.6 27.672 130.208 26.44 129.611 25.32C129.014 24.2 128.211 23.304 127.203 22.632C126.195 21.96 124.963 21.624 123.507 21.624V20.504C124.59 20.504 125.542 20.28 126.363 19.832C127.184 19.3467 127.875 18.7307 128.435 17.984C129.032 17.2373 129.518 16.4347 129.891 15.576C130.264 14.7173 130.507 13.896 130.619 13.112H131.907ZM181.501 1.352V2.472C180.381 2.65867 179.522 3.01333 178.925 3.536C178.327 4.05866 177.917 4.86133 177.693 5.944C177.506 7.02667 177.413 8.55733 177.413 10.536V41.056C176.927 40.9813 176.405 40.944 175.845 40.944C175.285 40.944 174.687 40.9813 174.053 41.056L149.469 12.104V30.92C149.469 33.1973 149.581 34.952 149.805 36.184C150.029 37.3787 150.533 38.2373 151.317 38.76C152.101 39.2827 153.333 39.656 155.013 39.88V41C154.303 40.9253 153.351 40.888 152.157 40.888C150.999 40.8507 149.898 40.832 148.853 40.832C148.031 40.832 147.173 40.8507 146.277 40.888C145.418 40.888 144.69 40.9253 144.093 41V39.88C145.287 39.656 146.165 39.3013 146.725 38.816C147.322 38.2933 147.714 37.4907 147.901 36.408C148.087 35.288 148.181 33.7573 148.181 31.816V7.288C148.181 5.90666 148.087 4.89866 147.901 4.264C147.714 3.592 147.322 3.144 146.725 2.92C146.127 2.65867 145.25 2.50933 144.093 2.472V1.352C144.69 1.38933 145.418 1.42667 146.277 1.464C147.173 1.50133 148.031 1.52 148.853 1.52C149.786 1.52 150.682 1.50133 151.541 1.464C152.399 1.42667 153.183 1.38933 153.893 1.352L176.125 26.776V11.432C176.125 9.15466 176.013 7.41866 175.789 6.224C175.602 4.992 175.117 4.11466 174.333 3.592C173.586 3.032 172.335 2.65867 170.581 2.472V1.352C171.327 1.38933 172.279 1.42667 173.437 1.464C174.631 1.50133 175.733 1.52 176.741 1.52C177.637 1.52 178.514 1.50133 179.373 1.464C180.231 1.42667 180.941 1.38933 181.501 1.352ZM219.892 1.352C219.743 3.40533 219.631 5.384 219.556 7.288C219.519 9.192 219.5 10.648 219.5 11.656C219.5 12.4773 219.519 13.2427 219.556 13.952C219.594 14.6613 219.631 15.2773 219.668 15.8H218.38C217.634 12.4773 216.738 9.864 215.692 7.96C214.647 6.01867 213.452 4.656 212.108 3.872C210.802 3.05066 209.383 2.64 207.852 2.64H207.18V34.616C207.18 36.1467 207.33 37.2853 207.628 38.032C207.964 38.7787 208.562 39.2827 209.42 39.544C210.316 39.768 211.604 39.88 213.284 39.88V41C212.052 40.9627 210.391 40.9253 208.3 40.888C206.247 40.8507 204.1 40.832 201.86 40.832C199.658 40.832 197.586 40.8507 195.644 40.888C193.703 40.9253 192.135 40.9627 190.94 41V39.88C192.62 39.88 193.908 39.768 194.804 39.544C195.7 39.2827 196.298 38.7787 196.596 38.032C196.895 37.2853 197.044 36.1467 197.044 34.616V2.64H196.428C194.86 2.64 193.423 3.05066 192.116 3.872C190.81 4.656 189.634 6 188.588 7.904C187.543 9.808 186.628 12.44 185.844 15.8H184.556C184.631 15.2773 184.668 14.6613 184.668 13.952C184.706 13.2427 184.724 12.4773 184.724 11.656C184.724 10.648 184.687 9.192 184.612 7.288C184.575 5.384 184.482 3.40533 184.332 1.352C186.087 1.38933 188.01 1.42667 190.1 1.464C192.228 1.50133 194.338 1.52 196.428 1.52C198.519 1.52 200.423 1.52 202.14 1.52C203.858 1.52 205.762 1.52 207.852 1.52C209.98 1.52 212.09 1.50133 214.18 1.464C216.271 1.42667 218.175 1.38933 219.892 1.352ZM241.263 1.352V2.472C240.106 2.50933 239.228 2.65867 238.631 2.92C238.034 3.144 237.642 3.592 237.455 4.264C237.268 4.89866 237.175 5.90666 237.175 7.288V35.064C237.175 36.408 237.268 37.416 237.455 38.088C237.679 38.76 238.071 39.208 238.631 39.432C239.228 39.656 240.106 39.8053 241.263 39.88V41C240.218 40.9253 238.874 40.888 237.231 40.888C235.626 40.8507 234.002 40.832 232.359 40.832C230.455 40.832 228.663 40.8507 226.983 40.888C225.303 40.888 223.959 40.9253 222.951 41V39.88C224.108 39.8053 224.967 39.656 225.527 39.432C226.124 39.208 226.516 38.76 226.703 38.088C226.927 37.416 227.039 36.408 227.039 35.064V7.288C227.039 5.90666 226.927 4.89866 226.703 4.264C226.516 3.592 226.124 3.144 225.527 2.92C224.967 2.65867 224.108 2.50933 222.951 2.472V1.352C223.959 1.38933 225.303 1.42667 226.983 1.464C228.663 1.50133 230.455 1.52 232.359 1.52C234.002 1.52 235.626 1.50133 237.231 1.464C238.874 1.42667 240.218 1.38933 241.263 1.352ZM282.18 1.352V2.472C281.06 2.65867 280.202 3.01333 279.604 3.536C279.007 4.05866 278.596 4.86133 278.372 5.944C278.186 7.02667 278.092 8.55733 278.092 10.536V41.056C277.607 40.9813 277.084 40.944 276.524 40.944C275.964 40.944 275.367 40.9813 274.732 41.056L250.148 12.104V30.92C250.148 33.1973 250.26 34.952 250.484 36.184C250.708 37.3787 251.212 38.2373 251.996 38.76C252.78 39.2827 254.012 39.656 255.692 39.88V41C254.983 40.9253 254.031 40.888 252.836 40.888C251.679 40.8507 250.578 40.832 249.532 40.832C248.711 40.832 247.852 40.8507 246.956 40.888C246.098 40.888 245.37 40.9253 244.772 41V39.88C245.967 39.656 246.844 39.3013 247.404 38.816C248.002 38.2933 248.394 37.4907 248.58 36.408C248.767 35.288 248.86 33.7573 248.86 31.816V7.288C248.86 5.90666 248.767 4.89866 248.58 4.264C248.394 3.592 248.002 3.144 247.404 2.92C246.807 2.65867 245.93 2.50933 244.772 2.472V1.352C245.37 1.38933 246.098 1.42667 246.956 1.464C247.852 1.50133 248.711 1.52 249.532 1.52C250.466 1.52 251.362 1.50133 252.22 1.464C253.079 1.42667 253.863 1.38933 254.572 1.352L276.804 26.776V11.432C276.804 9.15466 276.692 7.41866 276.468 6.224C276.282 4.992 275.796 4.11466 275.012 3.592C274.266 3.032 273.015 2.65867 271.26 2.472V1.352C272.007 1.38933 272.959 1.42667 274.116 1.464C275.311 1.50133 276.412 1.52 277.42 1.52C278.316 1.52 279.194 1.50133 280.052 1.464C280.911 1.42667 281.62 1.38933 282.18 1.352ZM316.036 1.352C315.887 3.10667 315.775 4.80533 315.7 6.448C315.663 8.09067 315.644 9.34133 315.644 10.2C315.644 10.9467 315.663 11.6747 315.7 12.384C315.737 13.0933 315.775 13.672 315.812 14.12H314.524C314.113 11.208 313.441 8.912 312.508 7.232C311.612 5.552 310.492 4.376 309.148 3.704C307.841 2.99466 306.385 2.64 304.78 2.64H303.268C302.26 2.64 301.476 2.73333 300.916 2.92C300.393 3.06933 300.039 3.40533 299.852 3.928C299.703 4.45067 299.628 5.272 299.628 6.392V35.96C299.628 37.0427 299.703 37.864 299.852 38.424C300.039 38.9467 300.393 39.3013 300.916 39.488C301.476 39.6373 302.26 39.712 303.268 39.712H305.564C307.02 39.712 308.401 39.3387 309.708 38.592C311.052 37.808 312.247 36.5013 313.292 34.672C314.337 32.8053 315.121 30.2853 315.644 27.112H316.932C316.82 28.3813 316.764 30.024 316.764 32.04C316.764 32.936 316.783 34.2053 316.82 35.848C316.857 37.4907 316.969 39.208 317.156 41C315.252 40.9253 313.105 40.888 310.716 40.888C308.327 40.8507 306.199 40.832 304.332 40.832C303.361 40.832 302.129 40.832 300.636 40.832C299.143 40.832 297.519 40.8507 295.764 40.888C294.009 40.888 292.236 40.9067 290.444 40.944C288.652 40.944 286.972 40.9627 285.404 41V39.88C286.561 39.8053 287.42 39.656 287.98 39.432C288.577 39.208 288.969 38.76 289.156 38.088C289.38 37.416 289.492 36.408 289.492 35.064V7.288C289.492 5.90666 289.38 4.89866 289.156 4.264C288.969 3.592 288.577 3.144 287.98 2.92C287.42 2.65867 286.561 2.50933 285.404 2.472V1.352C287.009 1.38933 288.689 1.42667 290.444 1.464C292.236 1.464 293.991 1.48266 295.708 1.52C297.463 1.52 299.087 1.52 300.58 1.52C302.111 1.52 303.361 1.52 304.332 1.52C306.049 1.52 307.991 1.52 310.156 1.52C312.359 1.48266 314.319 1.42667 316.036 1.352ZM307.58 20.504C307.58 20.504 307.58 20.6907 307.58 21.064C307.58 21.4373 307.58 21.624 307.58 21.624H297.948C297.948 21.624 297.948 21.4373 297.948 21.064C297.948 20.6907 297.948 20.504 297.948 20.504H307.58ZM309.204 13.112C309.055 15.24 308.98 16.864 308.98 17.984C309.017 19.104 309.036 20.1307 309.036 21.064C309.036 21.9973 309.055 23.024 309.092 24.144C309.129 25.264 309.223 26.888 309.372 29.016H308.084C307.897 27.672 307.505 26.44 306.908 25.32C306.311 24.2 305.508 23.304 304.5 22.632C303.492 21.96 302.26 21.624 300.804 21.624V20.504C301.887 20.504 302.839 20.28 303.66 19.832C304.481 19.3467 305.172 18.7307 305.732 17.984C306.329 17.2373 306.815 16.4347 307.188 15.576C307.561 14.7173 307.804 13.896 307.916 13.112H309.204ZM326.262 0.567997C327.195 0.567997 328.016 0.754664 328.726 1.128C329.472 1.464 330.051 1.94933 330.462 2.584C330.872 3.10666 331.19 3.816 331.414 4.712C331.675 5.608 331.806 6.56 331.806 7.568C331.806 9.43466 331.32 11.1893 330.35 12.832C329.379 14.4373 327.886 15.7067 325.87 16.64L325.366 15.632C326.374 15.184 327.27 14.5307 328.054 13.672C328.875 12.776 329.379 11.8427 329.566 10.872C329.864 9.93866 329.902 9.04267 329.678 8.184C328.782 9.192 327.55 9.696 325.982 9.696C324.6 9.696 323.48 9.304 322.622 8.52C321.763 7.69866 321.334 6.56 321.334 5.104C321.334 3.76 321.782 2.67733 322.678 1.856C323.611 0.99733 324.806 0.567997 326.262 0.567997ZM350.279 0.623999C352.594 0.623999 354.386 0.866666 355.655 1.352C356.924 1.8 358.007 2.28533 358.903 2.808C359.351 3.06933 359.706 3.27467 359.967 3.424C360.266 3.536 360.546 3.592 360.807 3.592C361.18 3.592 361.442 3.38666 361.591 2.976C361.778 2.56533 361.927 1.94933 362.039 1.128H363.327C363.29 1.87467 363.234 2.752 363.159 3.76C363.122 4.768 363.084 6.112 363.047 7.792C363.047 9.43466 363.047 11.6187 363.047 14.344H361.759C361.61 12.328 361.143 10.3867 360.359 8.52C359.575 6.65333 358.492 5.104 357.111 3.872C355.767 2.64 354.106 2.024 352.127 2.024C350.41 2.024 348.991 2.50933 347.871 3.48C346.751 4.41333 346.191 5.75733 346.191 7.512C346.191 8.93067 346.546 10.1627 347.255 11.208C347.964 12.216 349.028 13.2427 350.447 14.288C351.903 15.3333 353.732 16.6213 355.935 18.152C357.69 19.3093 359.258 20.4667 360.639 21.624C362.02 22.7813 363.122 24.088 363.943 25.544C364.802 27 365.231 28.7547 365.231 30.808C365.231 33.272 364.559 35.3253 363.215 36.968C361.871 38.5733 360.098 39.7867 357.895 40.608C355.692 41.392 353.284 41.784 350.671 41.784C348.244 41.784 346.303 41.56 344.847 41.112C343.428 40.664 342.215 40.1973 341.207 39.712C340.386 39.1893 339.751 38.928 339.303 38.928C338.93 38.928 338.65 39.1333 338.463 39.544C338.314 39.9547 338.183 40.5707 338.071 41.392H336.783C336.858 40.4587 336.895 39.376 336.895 38.144C336.932 36.8747 336.951 35.2507 336.951 33.272C336.988 31.2933 337.007 28.7733 337.007 25.712H338.295C338.444 28.2507 338.855 30.6213 339.527 32.824C340.236 35.0267 341.3 36.8187 342.719 38.2C344.175 39.544 346.098 40.216 348.487 40.216C349.831 40.216 351.007 39.992 352.015 39.544C353.023 39.096 353.826 38.4427 354.423 37.584C355.02 36.688 355.319 35.6053 355.319 34.336C355.319 32.768 354.964 31.4053 354.255 30.248C353.546 29.0907 352.575 28.008 351.343 27C350.111 25.9547 348.674 24.9093 347.031 23.864C345.276 22.7067 343.634 21.5307 342.103 20.336C340.572 19.1413 339.34 17.816 338.407 16.36C337.511 14.8667 337.063 13.0747 337.063 10.984C337.063 8.59467 337.679 6.63467 338.911 5.104C340.143 3.57333 341.767 2.45333 343.783 1.744C345.836 0.997332 348.002 0.623999 350.279 0.623999ZM399.794 1.352C407.41 1.352 413.047 3.032 416.706 6.392C420.402 9.71466 422.25 14.4933 422.25 20.728C422.25 24.7973 421.335 28.3627 419.506 31.424C417.714 34.448 415.101 36.8 411.666 38.48C408.231 40.16 404.106 41 399.29 41C398.693 41 397.909 40.9813 396.938 40.944C395.967 40.9067 394.941 40.888 393.858 40.888C392.813 40.8507 391.861 40.832 391.002 40.832C389.247 40.832 387.53 40.8507 385.85 40.888C384.17 40.888 382.826 40.9253 381.818 41V39.88C382.975 39.8053 383.834 39.656 384.394 39.432C384.991 39.208 385.383 38.76 385.57 38.088C385.794 37.416 385.906 36.408 385.906 35.064V7.288C385.906 5.90666 385.794 4.89866 385.57 4.264C385.383 3.592 384.991 3.144 384.394 2.92C383.834 2.65867 382.975 2.50933 381.818 2.472V1.352C382.826 1.38933 384.17 1.44533 385.85 1.52C387.53 1.55733 389.21 1.55733 390.89 1.52C392.234 1.48266 393.765 1.44533 395.482 1.408C397.199 1.37067 398.637 1.352 399.794 1.352ZM400.186 2.36C398.469 2.36 397.349 2.67733 396.826 3.312C396.303 3.94667 396.042 5.23467 396.042 7.176V35.176C396.042 37.1173 396.303 38.4053 396.826 39.04C397.386 39.6747 398.525 39.992 400.242 39.992C403.079 39.992 405.338 39.264 407.018 37.808C408.698 36.3147 409.893 34.1493 410.602 31.312C411.349 28.4747 411.722 25.0213 411.722 20.952C411.722 16.7707 411.33 13.3173 410.546 10.592C409.762 7.82933 408.511 5.776 406.794 4.432C405.114 3.05066 402.911 2.36 400.186 2.36ZM444.132 1.296L457.684 36.296C458.244 37.6027 458.822 38.5173 459.42 39.04C460.054 39.5627 460.614 39.8427 461.1 39.88V41C459.905 40.9253 458.468 40.888 456.788 40.888C455.145 40.8507 453.465 40.832 451.748 40.832C449.956 40.832 448.257 40.8507 446.652 40.888C445.046 40.888 443.758 40.9253 442.788 41V39.88C444.692 39.8053 445.905 39.488 446.428 38.928C446.95 38.3307 446.838 37.08 446.092 35.176L436.796 9.752L437.916 8.072L429.74 29.184C428.881 31.424 428.358 33.2347 428.172 34.616C427.985 35.9973 428.078 37.0613 428.452 37.808C428.825 38.5547 429.404 39.0773 430.188 39.376C431.009 39.6747 431.98 39.8427 433.1 39.88V41C431.793 40.9253 430.58 40.888 429.46 40.888C428.377 40.8507 427.201 40.832 425.932 40.832C425.185 40.832 424.42 40.8507 423.636 40.888C422.889 40.888 422.236 40.9253 421.676 41V39.88C422.497 39.7307 423.318 39.208 424.14 38.312C424.998 37.416 425.838 35.8667 426.66 33.664L439.26 1.296C440.006 1.37067 440.809 1.408 441.668 1.408C442.564 1.408 443.385 1.37067 444.132 1.296ZM447.044 24.872V25.992H430.356L430.916 24.872H447.044ZM492.576 1.296V2.416C491.754 2.78933 490.877 3.51733 489.944 4.6C489.048 5.64533 488.058 7.232 486.976 9.36L476.616 29.856H473.424L460.32 5.608C459.685 4.376 459.088 3.55466 458.528 3.144C457.968 2.696 457.482 2.472 457.072 2.472V1.296C458.154 1.408 459.274 1.50133 460.432 1.576C461.589 1.61333 462.858 1.632 464.24 1.632C466.032 1.632 467.954 1.59467 470.008 1.52C472.061 1.44533 473.946 1.37067 475.664 1.296V2.472C474.73 2.472 473.872 2.528 473.088 2.64C472.341 2.752 471.8 2.976 471.464 3.312C471.165 3.648 471.202 4.208 471.576 4.992L480.256 21.624L478.072 24.48L483.336 13.952C484.792 11.0773 485.576 8.81867 485.688 7.176C485.837 5.496 485.482 4.30133 484.624 3.592C483.802 2.84533 482.645 2.45333 481.152 2.416V1.296C482.496 1.33333 483.709 1.37067 484.792 1.408C485.912 1.44533 487.088 1.464 488.32 1.464C489.104 1.464 489.869 1.44533 490.616 1.408C491.362 1.37067 492.016 1.33333 492.576 1.296ZM481.04 20V35.064C481.04 36.408 481.133 37.416 481.32 38.088C481.544 38.76 481.936 39.208 482.496 39.432C483.093 39.656 483.97 39.8053 485.128 39.88V41C484.082 40.9253 482.701 40.888 480.984 40.888C479.304 40.8507 477.642 40.832 476 40.832C474.17 40.832 472.416 40.8507 470.736 40.888C469.093 40.888 467.786 40.9253 466.816 41V39.88C467.973 39.8053 468.832 39.656 469.392 39.432C469.989 39.208 470.381 38.76 470.568 38.088C470.792 37.416 470.904 36.408 470.904 35.064V23.584L476.392 27.056L481.04 20ZM164.614 62.994C168.169 62.994 170.921 63.3667 172.87 64.112C174.819 64.8 176.482 65.5453 177.858 66.348C178.546 66.7493 179.091 67.0647 179.492 67.294C179.951 67.466 180.381 67.552 180.782 67.552C181.355 67.552 181.757 67.2367 181.986 66.606C182.273 65.9753 182.502 65.0293 182.674 63.768H184.652C184.595 64.9147 184.509 66.262 184.394 67.81C184.337 69.358 184.279 71.422 184.222 74.002C184.222 76.5247 184.222 79.8787 184.222 84.064H182.244C182.015 80.968 181.298 77.9867 180.094 75.12C178.89 72.2533 177.227 69.874 175.106 67.982C173.042 66.09 170.491 65.144 167.452 65.144C164.815 65.144 162.636 65.8893 160.916 67.38C159.196 68.8133 158.336 70.8773 158.336 73.572C158.336 75.7507 158.881 77.6427 159.97 79.248C161.059 80.796 162.693 82.3727 164.872 83.978C167.108 85.5833 169.917 87.5613 173.3 89.912C175.995 91.6893 178.403 93.4667 180.524 95.244C182.645 97.0213 184.337 99.028 185.598 101.264C186.917 103.5 187.576 106.195 187.576 109.348C187.576 113.132 186.544 116.285 184.48 118.808C182.416 121.273 179.693 123.137 176.31 124.398C172.927 125.602 169.229 126.204 165.216 126.204C161.489 126.204 158.508 125.86 156.272 125.172C154.093 124.484 152.23 123.767 150.682 123.022C149.421 122.219 148.446 121.818 147.758 121.818C147.185 121.818 146.755 122.133 146.468 122.764C146.239 123.395 146.038 124.341 145.866 125.602H143.888C144.003 124.169 144.06 122.506 144.06 120.614C144.117 118.665 144.146 116.171 144.146 113.132C144.203 110.093 144.232 106.223 144.232 101.522H146.21C146.439 105.421 147.07 109.061 148.102 112.444C149.191 115.827 150.825 118.579 153.004 120.7C155.24 122.764 158.193 123.796 161.862 123.796C163.926 123.796 165.732 123.452 167.28 122.764C168.828 122.076 170.061 121.073 170.978 119.754C171.895 118.378 172.354 116.715 172.354 114.766C172.354 112.358 171.809 110.265 170.72 108.488C169.631 106.711 168.14 105.048 166.248 103.5C164.356 101.895 162.149 100.289 159.626 98.684C156.931 96.9067 154.409 95.1007 152.058 93.266C149.707 91.4313 147.815 89.396 146.382 87.16C145.006 84.8667 144.318 82.1147 144.318 78.904C144.318 75.2347 145.264 72.2247 147.156 69.874C149.048 67.5233 151.542 65.8033 154.638 64.714C157.791 63.5673 161.117 62.994 164.614 62.994ZM222.409 64.026L243.221 117.776C244.081 119.783 244.969 121.187 245.887 121.99C246.861 122.793 247.721 123.223 248.467 123.28V125C246.632 124.885 244.425 124.828 241.845 124.828C239.322 124.771 236.742 124.742 234.105 124.742C231.353 124.742 228.744 124.771 226.279 124.828C223.813 124.828 221.835 124.885 220.345 125V123.28C223.269 123.165 225.132 122.678 225.935 121.818C226.737 120.901 226.565 118.98 225.419 116.056L211.143 77.012L212.863 74.432L200.307 106.854C198.988 110.294 198.185 113.075 197.899 115.196C197.612 117.317 197.755 118.951 198.329 120.098C198.902 121.245 199.791 122.047 200.995 122.506C202.256 122.965 203.747 123.223 205.467 123.28V125C203.46 124.885 201.597 124.828 199.877 124.828C198.214 124.771 196.408 124.742 194.459 124.742C193.312 124.742 192.137 124.771 190.933 124.828C189.786 124.828 188.783 124.885 187.923 125V123.28C189.184 123.051 190.445 122.248 191.707 120.872C193.025 119.496 194.315 117.117 195.577 113.734L214.927 64.026C216.073 64.1407 217.306 64.198 218.625 64.198C220.001 64.198 221.262 64.1407 222.409 64.026ZM226.881 100.232V101.952H201.253L202.113 100.232H226.881ZM277.72 64.112V65.832C275.771 65.8893 274.28 66.1187 273.248 66.52C272.273 66.864 271.614 67.552 271.27 68.584C270.926 69.5587 270.754 71.1067 270.754 73.228V117.26C270.754 118.923 270.869 120.184 271.098 121.044C271.385 121.847 271.872 122.391 272.56 122.678C273.248 122.907 274.28 123.022 275.656 123.022H279.182C280.902 123.022 282.622 122.506 284.342 121.474C286.062 120.442 287.667 119.009 289.158 117.174C290.649 115.282 291.939 113.132 293.028 110.724C294.117 108.259 294.891 105.621 295.35 102.812H297.328C297.156 104.819 297.07 107.399 297.07 110.552C297.07 111.985 297.099 114.049 297.156 116.744C297.213 119.381 297.385 122.133 297.672 125C294.748 124.885 291.451 124.828 287.782 124.828C284.113 124.771 280.845 124.742 277.978 124.742C276.487 124.742 274.595 124.742 272.302 124.742C270.009 124.742 267.515 124.771 264.82 124.828C262.125 124.828 259.402 124.857 256.65 124.914C253.898 124.914 251.318 124.943 248.91 125V123.28C250.687 123.165 252.006 122.936 252.866 122.592C253.783 122.248 254.385 121.56 254.672 120.528C255.016 119.496 255.188 117.948 255.188 115.884V73.228C255.188 71.1067 255.016 69.5587 254.672 68.584C254.385 67.552 253.783 66.864 252.866 66.52C252.006 66.1187 250.687 65.8893 248.91 65.832V64.112C250.458 64.1693 252.522 64.2267 255.102 64.284C257.682 64.3413 260.434 64.37 263.358 64.37C266.053 64.37 268.69 64.3413 271.27 64.284C273.85 64.2267 276 64.1693 277.72 64.112ZM349.114 64.112C348.885 66.8067 348.713 69.4153 348.598 71.938C348.541 74.4607 348.512 76.3813 348.512 77.7C348.512 78.8467 348.541 79.9647 348.598 81.054C348.656 82.1433 348.713 83.032 348.77 83.72H346.792C346.162 79.248 345.13 75.722 343.696 73.142C342.32 70.562 340.6 68.756 338.536 67.724C336.53 66.6347 334.294 66.09 331.828 66.09H329.506C327.958 66.09 326.754 66.2333 325.894 66.52C325.092 66.7493 324.547 67.2653 324.26 68.068C324.031 68.8707 323.916 70.132 323.916 71.852V117.26C323.916 118.923 324.031 120.184 324.26 121.044C324.547 121.847 325.092 122.391 325.894 122.678C326.754 122.907 327.958 123.022 329.506 123.022H333.032C335.268 123.022 337.39 122.449 339.396 121.302C341.46 120.098 343.295 118.091 344.9 115.282C346.506 112.415 347.71 108.545 348.512 103.672H350.49C350.318 105.621 350.232 108.144 350.232 111.24C350.232 112.616 350.261 114.565 350.318 117.088C350.376 119.611 350.548 122.248 350.834 125C347.91 124.885 344.614 124.828 340.944 124.828C337.275 124.771 334.007 124.742 331.14 124.742C329.65 124.742 327.758 124.742 325.464 124.742C323.171 124.742 320.677 124.771 317.982 124.828C315.288 124.828 312.564 124.857 309.812 124.914C307.06 124.914 304.48 124.943 302.072 125V123.28C303.85 123.165 305.168 122.936 306.028 122.592C306.946 122.248 307.548 121.56 307.834 120.528C308.178 119.496 308.35 117.948 308.35 115.884V73.228C308.35 71.1067 308.178 69.5587 307.834 68.584C307.548 67.552 306.946 66.864 306.028 66.52C305.168 66.1187 303.85 65.8893 302.072 65.832V64.112C304.538 64.1693 307.118 64.2267 309.812 64.284C312.564 64.284 315.259 64.3127 317.896 64.37C320.591 64.37 323.085 64.37 325.378 64.37C327.729 64.37 329.65 64.37 331.14 64.37C333.778 64.37 336.759 64.37 340.084 64.37C343.467 64.3127 346.477 64.2267 349.114 64.112ZM336.128 93.524C336.128 93.524 336.128 93.8107 336.128 94.384C336.128 94.9573 336.128 95.244 336.128 95.244H321.336C321.336 95.244 321.336 94.9573 321.336 94.384C321.336 93.8107 321.336 93.524 321.336 93.524H336.128ZM338.622 82.172C338.393 85.44 338.278 87.934 338.278 89.654C338.336 91.374 338.364 92.9507 338.364 94.384C338.364 95.8173 338.393 97.394 338.45 99.114C338.508 100.834 338.651 103.328 338.88 106.596H336.902C336.616 104.532 336.014 102.64 335.096 100.92C334.179 99.2 332.946 97.824 331.398 96.792C329.85 95.76 327.958 95.244 325.722 95.244V93.524C327.385 93.524 328.847 93.18 330.108 92.492C331.37 91.7467 332.43 90.8007 333.29 89.654C334.208 88.5073 334.953 87.2747 335.526 85.956C336.1 84.6373 336.472 83.376 336.644 82.172H338.622Z" fill="#D23E6B"/>
</svg>
