<svg width="399" height="247" viewBox="0 0 399 247" fill="none" xmlns="http://www.w3.org/2000/svg">
<mask id="mask0_307_230" style="mask-type:alpha" maskUnits="userSpaceOnUse" x="0" y="0" width="399" height="247">
<rect width="399" height="247" fill="#3840FF"/>
</mask>
<g mask="url(#mask0_307_230)">
<ellipse opacity="0.4" cx="199" cy="144.5" rx="200" ry="108.5" fill="url(#paint0_radial_307_230)"/>
<path d="M72.572 200.52C65.012 200.52 58.292 199.75 52.412 198.21C46.532 196.81 41.562 194.85 37.502 192.33C33.582 189.81 30.572 186.87 28.472 183.51C26.372 180.01 25.322 176.3 25.322 172.38C25.322 166.92 26.862 162.58 29.942 159.36C33.162 156 37.292 154.32 42.332 154.32C47.792 154.32 51.992 156 54.932 159.36C57.872 162.58 59.342 166.57 59.342 171.33C59.342 173.71 58.572 176.02 57.032 178.26C55.632 180.5 53.952 182.46 51.992 184.14V185.4C53.812 185.96 55.912 186.45 58.292 186.87C60.812 187.15 63.262 187.29 65.642 187.29C74.602 187.29 81.602 184.98 86.642 180.36C91.682 175.74 94.202 168.32 94.202 158.1V152.64C94.202 134.58 85.942 125.55 69.422 125.55C64.382 125.55 59.972 126.81 56.192 129.33C52.412 131.71 49.612 134.51 47.792 137.73L32.462 134.58L38.132 51.42H123.392V82.08H50.732L47.372 126.39H48.422C49.682 124.15 51.222 121.84 53.042 119.46C55.002 117.08 57.382 114.98 60.182 113.16C63.122 111.2 66.552 109.66 70.472 108.54C74.392 107.28 78.942 106.65 84.122 106.65C98.262 106.65 109.462 110.64 117.722 118.62C126.122 126.46 130.322 137.59 130.322 152.01C130.322 167.27 125.212 179.17 114.992 187.71C104.912 196.25 90.772 200.52 72.572 200.52ZM205 185.4C209.62 185.4 213.26 184.42 215.92 182.46C218.58 180.5 220.54 177.63 221.8 173.85C223.06 169.93 223.83 165.17 224.11 159.57C224.53 153.97 224.74 147.46 224.74 140.04V109.38C224.74 102.1 224.53 95.66 224.11 90.06C223.83 84.32 223.06 79.56 221.8 75.78C220.54 71.86 218.58 68.92 215.92 66.96C213.26 65 209.62 64.02 205 64.02C200.38 64.02 196.74 65 194.08 66.96C191.42 68.92 189.46 71.86 188.2 75.78C186.94 79.56 186.1 84.32 185.68 90.06C185.4 95.66 185.26 102.1 185.26 109.38V140.04C185.26 147.46 185.4 153.97 185.68 159.57C186.1 165.17 186.94 169.93 188.2 173.85C189.46 177.63 191.42 180.5 194.08 182.46C196.74 184.42 200.38 185.4 205 185.4ZM205 200.52C186.24 200.52 172.24 194.01 163 180.99C153.76 167.83 149.14 149.07 149.14 124.71C149.14 100.35 153.76 81.66 163 68.64C172.24 55.48 186.24 48.9 205 48.9C223.76 48.9 237.76 55.48 247 68.64C256.24 81.66 260.86 100.35 260.86 124.71C260.86 149.07 256.24 167.83 247 180.99C237.76 194.01 223.76 200.52 205 200.52Z" fill="#C93C66"/>
<path d="M373.137 0.379561C361.306 2.19967 353.571 13.1203 354.481 24.496C351.751 13.1203 340.83 5.38485 329.454 7.65998C317.624 9.48009 309.433 20.8558 311.253 33.1415C317.169 69.0886 364.946 86.3796 364.946 86.3796C364.946 86.3796 404.534 54.9827 398.618 18.5806C396.343 6.2949 384.967 -1.89557 373.137 0.379561Z" fill="url(#paint1_linear_307_230)"/>
<path d="M300.46 94.3795C302.526 94.3795 304.156 93.6251 305.348 92.1163C306.54 90.5282 307.136 87.9077 307.136 84.2548V70.9141C307.136 67.2613 306.54 64.6805 305.348 63.1717C304.156 61.5836 302.526 60.7895 300.46 60.7895C298.393 60.7895 296.764 61.5836 295.572 63.1717C294.38 64.6805 293.783 67.2613 293.783 70.9141V84.2548C293.783 87.9077 294.38 90.5282 295.572 92.1163C296.764 93.6251 298.393 94.3795 300.46 94.3795ZM355.54 133.211C357.607 133.211 359.236 132.456 360.428 130.947C361.62 129.359 362.217 126.739 362.217 123.086V109.745C362.217 106.092 361.62 103.512 360.428 102.003C359.236 100.415 357.607 99.6205 355.54 99.6205C353.474 99.6205 351.844 100.415 350.652 102.003C349.46 103.512 348.864 106.092 348.864 109.745V123.086C348.864 126.739 349.46 129.359 350.652 130.947C351.844 132.456 353.474 133.211 355.54 133.211ZM300.46 101.169C293.704 101.169 288.418 99.1837 284.603 95.2133C280.868 91.2428 279 85.3666 279 77.5845C279 69.8024 280.868 63.9261 284.603 59.9557C288.418 55.9852 293.704 54 300.46 54C307.216 54 312.461 55.9852 316.197 59.9557C320.012 63.9261 321.92 69.8024 321.92 77.5845C321.92 85.3666 320.012 91.2428 316.197 95.2133C312.461 99.1837 307.216 101.169 300.46 101.169ZM355.54 140C348.784 140 343.499 138.015 339.684 134.044C335.948 130.074 334.08 124.198 334.08 116.416C334.08 108.633 335.948 102.757 339.684 98.7867C343.499 94.8162 348.784 92.831 355.54 92.831C362.296 92.831 367.542 94.8162 371.277 98.7867C375.092 102.757 377 108.633 377 116.416C377 124.198 375.092 130.074 371.277 134.044C367.542 138.015 362.296 140 355.54 140ZM351.487 55.4294H361.024L304.513 138.571H294.976L351.487 55.4294Z" fill="#171C29"/>
<path d="M295.531 194.208C296.573 194.208 297.547 194.037 298.454 193.695C299.362 193.354 300.151 192.824 300.823 192.107C301.529 191.389 302.083 190.467 302.486 189.339C302.89 188.212 303.091 186.862 303.091 185.291V173.709C303.091 172.138 302.89 170.788 302.486 169.661C302.083 168.533 301.529 167.611 300.823 166.893C300.151 166.176 299.362 165.646 298.454 165.305C297.547 164.963 296.573 164.792 295.531 164.792C294.49 164.792 293.515 164.963 292.608 165.305C291.701 165.646 290.894 166.176 290.189 166.893C289.517 167.611 288.979 168.533 288.576 169.661C288.173 170.788 287.971 172.138 287.971 173.709V185.291C287.971 186.862 288.173 188.212 288.576 189.339C288.979 190.467 289.517 191.389 290.189 192.107C290.894 192.824 291.701 193.354 292.608 193.695C293.515 194.037 294.49 194.208 295.531 194.208ZM295.531 198C293.179 198 290.995 197.59 288.979 196.77C286.963 195.95 285.216 194.771 283.738 193.234C282.259 191.663 281.1 189.732 280.26 187.443C279.42 185.12 279 182.472 279 179.5C279 176.528 279.42 173.897 280.26 171.608C281.1 169.285 282.259 167.355 283.738 165.817C285.216 164.246 286.963 163.05 288.979 162.23C290.995 161.41 293.179 161 295.531 161C297.883 161 300.067 161.41 302.083 162.23C304.099 163.05 305.847 164.246 307.325 165.817C308.803 167.355 309.963 169.285 310.803 171.608C311.643 173.897 312.063 176.528 312.063 179.5C312.063 182.472 311.643 185.12 310.803 187.443C309.963 189.732 308.803 191.663 307.325 193.234C305.847 194.771 304.099 195.95 302.083 196.77C300.067 197.59 297.883 198 295.531 198Z" fill="#171C29"/>
<path d="M316.738 194.003H320.266V164.997H316.738V161.615H344.811V171.147H338.964V165.305H328.431V177.655H335.084V174.58H338.813V184.42H335.084V181.345H328.431V194.003H333.219V197.385H316.738V194.003Z" fill="#171C29"/>
<path d="M348.927 194.003H352.455V164.997H348.927V161.615H377V171.147H371.154V165.305H360.62V177.655H367.273V174.58H371.002V184.42H367.273V181.345H360.62V194.003H365.408V197.385H348.927V194.003Z" fill="#171C29"/>
<path d="M56.4421 182.287C46.7117 180.854 38.0153 187.519 36.0013 196.624C36.5855 187.08 29.8623 178.403 20.3802 177.436C10.6498 176.003 1.48677 182.913 -0.0306135 192.949C-4.00699 222.456 29.3776 247.489 29.3776 247.489C29.3776 247.489 68.0077 232.514 72.0932 202.652C73.2531 192.506 66.2816 183.363 56.4421 182.287Z" fill="url(#paint2_linear_307_230)"/>
</g>
<defs>
<radialGradient id="paint0_radial_307_230" cx="0" cy="0" r="1" gradientUnits="userSpaceOnUse" gradientTransform="translate(199 144.5) rotate(90) scale(108.5 200)">
<stop stop-color="#F33E58" stop-opacity="0.65"/>
<stop offset="0.510417" stop-color="#F78BAB" stop-opacity="0.34"/>
<stop offset="1" stop-color="#F9A9CB" stop-opacity="0"/>
</radialGradient>
<linearGradient id="paint1_linear_307_230" x1="332.349" y1="1.04163" x2="386.902" y2="67.8298" gradientUnits="userSpaceOnUse">
<stop stop-color="#FC7EA3"/>
<stop offset="0.96875" stop-color="#D43060"/>
</linearGradient>
<linearGradient id="paint2_linear_307_230" x1="24.2419" y1="172.964" x2="50.713" y2="238.442" gradientUnits="userSpaceOnUse">
<stop stop-color="#F8B4D3"/>
<stop offset="0.6713" stop-color="#F779A9"/>
<stop offset="0.96875" stop-color="#F75D98"/>
</linearGradient>
</defs>
</svg>
