<svg width="2907" height="642" viewBox="0 0 2907 642" fill="none" xmlns="http://www.w3.org/2000/svg">
<path opacity="0.3" fill-rule="evenodd" clip-rule="evenodd" d="M4 304.51V3.73547H129.714C150.036 3.73547 167.814 7.00722 182.879 13.7627C198.147 20.4844 209.911 29.9808 217.824 42.3752C225.95 54.6684 229.979 68.5924 229.979 83.9788C229.979 101.894 225.088 117.277 215.008 129.751C208.535 137.994 200.585 144.585 191.23 149.543C202.224 154.195 211.701 161.515 219.599 171.44C230.957 185.713 236.654 202.146 236.654 220.531C236.654 236.991 232.503 251.752 224.08 264.628C215.918 277.253 204.056 287.026 188.783 294.039C173.436 301.086 155.501 304.51 135.137 304.51H4ZM219.41 261.621C227.198 249.723 231.091 236.026 231.091 220.531C231.091 203.375 225.807 188.157 215.238 174.875C206.782 164.249 196.456 156.899 184.262 152.826C181.215 151.809 178.051 150.996 174.77 150.387C177.974 149.384 181.039 148.229 183.964 146.923C194.753 142.109 203.647 135.239 210.649 126.314C219.827 114.969 224.416 100.858 224.416 83.9788C224.416 69.5903 220.662 56.7237 213.152 45.379C205.921 34.0342 195.074 25.1798 180.611 18.8157C166.427 12.4516 149.461 9.26949 129.714 9.26949H9.56255V298.976H135.137C154.884 298.976 171.989 295.655 186.452 289.014C200.914 282.374 211.9 273.242 219.41 261.621ZM156.168 237.466L156.205 237.435C162.772 232.029 166.288 224.311 166.288 213.475C166.288 202.386 162.648 194.372 155.773 188.673L155.732 188.638L155.691 188.603C148.619 182.506 138.778 179.164 125.542 179.164H73.5319V246.126H126.793C140.157 246.126 149.68 242.998 156.131 237.497L156.168 237.466ZM67.9694 251.66V173.63H125.542C139.726 173.63 150.991 177.227 159.334 184.421C167.678 191.339 171.85 201.023 171.85 213.475C171.85 225.65 167.817 235.058 159.752 241.699C151.964 248.339 140.978 251.66 126.793 251.66H67.9694ZM437.564 247.371V304.51H272.078V3.73547H341.61V247.371H437.564ZM336.048 252.905V9.26949H277.641V298.976H432.002V252.905H336.048ZM666.874 298.976L647.683 243.774H531.704L512.513 298.976H451.186L555.901 8.85442H623.903L728.618 298.976H666.874ZM535.666 249.308L516.475 304.51H443.278L551.988 3.3204H627.816L736.526 304.51H662.912L643.721 249.308H535.666ZM767.934 74.5956L767.94 74.586C781.493 51.0608 799.865 32.7645 823.012 19.8088C846.436 6.57632 872.562 0 901.261 0C934.805 0 964.429 8.57465 989.919 25.8648C1015.45 43.1865 1033.28 67.1749 1043.38 97.6006L1045.79 104.87H967.432L965.917 101.73C959.683 88.8098 950.972 79.3255 939.815 73.0184L939.791 73.0048L939.767 72.991C928.774 66.6327 915.86 63.3646 900.844 63.3646C884.8 63.3646 870.653 67.1464 858.246 74.6037L858.231 74.6126L858.217 74.6213C846.108 81.7982 836.518 92.0615 829.452 105.586C822.692 119.057 819.213 135.043 819.213 153.708C819.213 172.072 822.683 188.074 829.463 201.849C836.525 215.357 846.113 225.763 858.232 233.217C870.636 240.401 884.789 244.05 900.844 244.05C915.854 244.05 928.763 240.785 939.753 234.432C950.952 227.843 959.68 218.197 965.917 205.27L967.432 202.13H1045.77L1043.39 209.385C1033.29 240.082 1015.47 264.219 989.919 281.55L989.913 281.554L989.907 281.558C964.678 298.58 935.051 307 901.261 307C872.58 307 846.467 300.57 823.048 287.626L823.012 287.606L822.976 287.586C799.867 274.367 781.509 256.094 767.954 232.854L767.941 232.832L767.929 232.81C754.61 209.478 748.012 183.062 748.012 153.708C748.012 124.353 754.61 97.9368 767.929 74.6051L767.934 74.5956ZM942.563 239.208C930.603 246.126 916.697 249.584 900.844 249.584C883.878 249.584 868.72 245.711 855.37 237.963C842.298 229.939 832.007 218.732 824.497 204.344C817.266 189.679 813.65 172.8 813.65 153.708C813.65 134.338 817.266 117.46 824.497 103.071C832.007 88.6827 842.298 77.6147 855.37 69.867C868.72 61.8427 883.878 57.8305 900.844 57.8305C916.697 57.8305 930.603 61.2893 942.563 68.2068C954.8 75.1244 964.257 85.5007 970.932 99.3357H1038.1C1037.48 97.4652 1036.83 95.6205 1036.15 93.8017C1026.15 67.1019 1009.7 45.9804 986.785 30.4371C962.31 13.8351 933.802 5.53402 901.261 5.53402C873.448 5.53402 848.277 11.8982 825.749 24.6264C803.499 37.0779 785.838 54.6485 772.766 77.338C759.972 99.7508 753.575 125.207 753.575 153.708C753.575 182.208 759.972 207.664 772.766 230.077C785.838 252.49 803.499 270.06 825.749 282.789C848.277 295.24 873.448 301.466 901.261 301.466C934.08 301.466 962.588 293.303 986.785 276.978C1009.71 261.425 1026.17 240.165 1036.17 213.198C1036.84 211.38 1037.48 209.535 1038.1 207.664H970.932C964.257 221.499 954.8 232.014 942.563 239.208ZM1249.72 304.51L1151.96 185.419V304.51H1082.42V3.73547H1151.96V123.579L1249.71 3.73547H1334.73L1209.97 152.859L1338.15 304.51H1249.72ZM1202.71 152.877L1322.87 9.26949H1252.36L1146.39 139.181V9.26949H1087.99V298.976H1146.39V169.895L1252.36 298.976H1326.2L1202.71 152.877ZM1649.4 3.73547V61.7044H1528V124.931H1621.03V182.069H1528V304.51H1458.47V3.73547H1649.4ZM1522.44 176.535H1615.47V130.465H1522.44V56.1703H1643.84V9.26949H1464.03V298.976H1522.44V176.535ZM1832.2 304.51L1767.95 191.616H1749.22V304.51H1679.69V3.73547H1794.56C1817.72 3.73547 1837.81 7.85734 1854.62 16.3577C1871.3 24.5173 1883.99 35.8643 1892.39 50.461C1900.99 64.6522 1905.25 80.5768 1905.25 98.0906C1905.25 118.333 1899.33 136.752 1887.53 153.189L1887.52 153.208L1887.5 153.227C1876.73 167.962 1861.36 178.427 1841.77 184.809L1912.77 304.51H1832.2ZM1833.36 181.516C1835.24 181.019 1837.07 180.489 1838.87 179.923C1858.12 173.874 1872.83 163.89 1883 149.972C1894.13 134.477 1899.69 117.183 1899.69 98.0906C1899.69 81.4885 1895.66 66.5466 1887.59 53.265C1879.81 39.7066 1867.98 29.0536 1852.13 21.306C1836.28 13.2816 1817.09 9.26949 1794.56 9.26949H1685.25V298.976H1743.66V186.082H1771.2L1835.44 298.976H1903.03L1833.36 181.516ZM1824.11 72.6417L1824.07 72.6055C1817.72 66.5093 1807.55 62.9495 1792.47 62.9495H1749.22V136.967H1792.47C1807.52 136.967 1817.68 133.421 1824.04 127.345C1830.52 120.872 1834.05 111.772 1834.05 99.3357C1834.05 87.1722 1830.53 78.5688 1824.15 72.6772L1824.11 72.6417ZM1827.93 131.295C1820.15 138.766 1808.33 142.501 1792.47 142.501H1743.66V57.4155H1792.47C1808.33 57.4155 1820.15 61.151 1827.93 68.6219C1835.72 75.8161 1839.62 86.0541 1839.62 99.3357C1839.62 112.894 1835.72 123.547 1827.93 131.295ZM2016.49 3.73547V304.51H1946.96V3.73547H2016.49ZM2063.07 304.51V3.73547H2170.43C2201.75 3.73547 2229.49 9.82988 2253.5 22.1997C2277.78 34.5729 2296.53 52.3337 2309.59 75.4254C2322.94 98.2397 2329.52 124.672 2329.52 154.538C2329.52 184.422 2322.93 210.868 2309.57 233.692C2296.49 256.23 2277.75 273.691 2253.49 286.046C2229.49 298.416 2201.75 304.51 2170.43 304.51H2063.07ZM2250.94 281.128C2274.31 269.23 2292.25 252.49 2304.76 230.907C2317.56 209.048 2323.95 183.591 2323.95 154.538C2323.95 125.484 2317.56 100.027 2304.76 78.1681C2292.25 56.032 2274.31 39.0148 2250.94 27.1167C2227.86 15.2186 2201.02 9.26949 2170.43 9.26949H2068.63V298.976H2170.43C2201.02 298.976 2227.86 293.027 2250.94 281.128ZM2235.28 87.8435L2235.27 87.8273C2219.89 72.0259 2197.86 63.7796 2168.34 63.7796H2132.6V244.05H2168.34C2197.91 244.05 2219.97 236.05 2235.33 220.768C2250.7 205.477 2258.73 183.668 2258.73 154.538C2258.73 125.413 2250.7 103.44 2235.3 87.8595L2235.28 87.8435ZM2127.04 249.584V58.2456H2168.34C2198.93 58.2456 2222.57 66.8233 2239.26 83.9788C2255.95 100.858 2264.29 124.377 2264.29 154.538C2264.29 184.698 2255.95 208.079 2239.26 224.681C2222.57 241.283 2198.93 249.584 2168.34 249.584H2127.04ZM2565.42 298.976L2546.23 243.774H2430.25L2411.06 298.976H2349.73L2454.45 8.85442H2522.45L2627.17 298.976H2565.42ZM2434.21 249.308L2415.02 304.51H2341.83L2450.54 3.3204H2526.36L2635.07 304.51H2561.46L2542.27 249.308H2434.21ZM2907 3.73547L2804.95 199.468V304.51H2735.42V199.473L2632.94 3.73547H2711.56L2770.59 128.63L2829.23 3.73547H2907ZM2770.6 141.671L2708.03 9.26949H2642.11L2740.98 198.118V298.976H2799.39V198.118L2897.85 9.26949H2832.77L2770.6 141.671ZM73.5319 123.27H121.37C134.507 123.27 143.769 120.395 149.933 115.421C155.94 110.307 159.195 102.998 159.195 92.6949C159.195 82.3653 155.924 75.0455 149.887 69.9293C143.727 64.7095 134.49 61.7044 121.37 61.7044H73.5319V123.27ZM121.37 128.804C135.276 128.804 145.984 125.761 153.494 119.673C161.003 113.309 164.758 104.316 164.758 92.6949C164.758 81.0734 161.003 72.0806 153.494 65.7165C145.984 59.3524 135.276 56.1703 121.37 56.1703H67.9694V128.804H121.37ZM589.694 76.0928L547.557 197.288H631.83L589.694 76.0928ZM624.02 191.754L589.694 93.0223L555.367 191.754H624.02ZM2488.24 76.0928L2446.1 197.288H2530.38L2488.24 76.0928ZM2488.24 93.0223L2453.91 191.754H2522.57L2488.24 93.0223ZM2010.93 298.976H1952.52V9.26949H2010.93V298.976Z" fill="url(#paint0_linear_33_133)"/>
<path opacity="0.3" fill-rule="evenodd" clip-rule="evenodd" d="M4 639.493V336.76H129.714C150.036 336.76 167.814 340.053 182.879 346.852C198.147 353.618 209.911 363.176 217.824 375.651C225.95 388.025 229.979 402.039 229.979 417.526C229.979 435.558 225.088 451.041 215.008 463.597C208.535 471.893 200.585 478.527 191.23 483.517C202.224 488.2 211.701 495.567 219.599 505.557C230.957 519.923 236.654 536.463 236.654 554.968C236.654 571.535 232.503 586.393 224.08 599.352C215.918 612.059 204.056 621.896 188.783 628.955C173.436 636.047 155.501 639.493 135.137 639.493H4ZM219.41 596.325C227.198 584.35 231.091 570.564 231.091 554.968C231.091 537.7 225.807 522.383 215.238 509.014C206.782 498.319 196.456 490.921 184.262 486.822C181.215 485.798 178.051 484.979 174.77 484.367C177.974 483.357 181.039 482.195 183.964 480.881C194.753 476.034 203.647 469.12 210.649 460.137C219.827 448.718 224.416 434.515 224.416 417.526C224.416 403.044 220.662 390.093 213.152 378.675C205.921 367.256 195.074 358.344 180.611 351.938C166.427 345.533 149.461 342.33 129.714 342.33H9.56255V633.923H135.137C154.884 633.923 171.989 630.581 186.452 623.897C200.914 617.213 211.9 608.023 219.41 596.325ZM156.168 572.013L156.205 571.982C162.772 566.54 166.288 558.772 166.288 547.866C166.288 536.705 162.648 528.638 155.773 522.902L155.732 522.867L155.691 522.832C148.619 516.695 138.778 513.331 125.542 513.331H73.5319V580.729H126.793C140.157 580.729 149.68 577.581 156.131 572.044L156.168 572.013ZM67.9694 586.299V507.761H125.542C139.726 507.761 150.991 511.382 159.334 518.623C167.678 525.585 171.85 535.333 171.85 547.866C171.85 560.12 167.817 569.589 159.752 576.273C151.964 582.957 140.978 586.299 126.793 586.299H67.9694ZM437.564 581.982V639.493H272.078V336.76H341.61V581.982H437.564ZM336.048 587.553V342.33H277.641V633.923H432.002V587.553H336.048ZM666.874 633.923L647.683 578.362H531.704L512.513 633.923H451.186L555.901 341.912H623.903L728.618 633.923H666.874ZM535.666 583.932L516.475 639.493H443.278L551.988 336.342H627.816L736.526 639.493H662.912L643.721 583.932H535.666ZM767.934 408.082L767.94 408.072C781.493 384.393 799.865 365.978 823.012 352.938C846.436 339.619 872.562 333 901.261 333C934.805 333 964.429 341.631 989.919 359.033C1015.45 376.468 1033.28 400.612 1043.38 431.236L1045.79 438.553H967.432L965.917 435.393C959.683 422.388 950.972 412.842 939.815 406.494L939.791 406.48L939.767 406.467C928.774 400.067 915.86 396.777 900.844 396.777C884.8 396.777 870.653 400.584 858.246 408.09L858.231 408.099L858.217 408.107C846.108 415.331 836.518 425.661 829.452 439.274C822.692 452.832 819.213 468.923 819.213 487.709C819.213 506.193 822.683 522.299 829.463 536.164C836.525 549.76 846.113 560.234 858.232 567.737C870.636 574.967 884.789 578.64 900.844 578.64C915.854 578.64 928.763 575.354 939.753 568.959C950.952 562.328 959.68 552.619 965.917 539.607L967.432 536.447H1045.77L1043.39 543.749C1033.29 574.646 1015.47 598.941 989.919 616.384L989.913 616.388L989.907 616.392C964.678 633.525 935.051 642 901.261 642C872.58 642 846.467 635.528 823.048 622.5L823.012 622.48L822.976 622.46C799.867 609.154 781.509 590.762 767.954 567.371L767.941 567.349L767.929 567.327C754.61 543.843 748.012 517.255 748.012 487.709C748.012 458.163 754.61 431.575 767.929 408.091L767.934 408.082ZM942.563 573.767C930.603 580.729 916.697 584.21 900.844 584.21C883.878 584.21 868.72 580.311 855.37 572.513C842.298 564.437 832.007 553.157 824.497 538.675C817.266 523.914 813.65 506.926 813.65 487.709C813.65 468.214 817.266 451.225 824.497 436.743C832.007 422.26 842.298 411.12 855.37 403.322C868.72 395.246 883.878 391.207 900.844 391.207C916.697 391.207 930.603 394.689 942.563 401.651C954.8 408.614 964.257 419.058 970.932 432.983H1038.1C1037.48 431.1 1036.83 429.243 1036.15 427.413C1026.15 400.539 1009.7 379.28 986.785 363.635C962.31 346.925 933.802 338.57 901.261 338.57C873.448 338.57 848.277 344.976 825.749 357.787C803.499 370.32 785.838 388.004 772.766 410.842C759.972 433.401 753.575 459.023 753.575 487.709C753.575 516.395 759.972 542.017 772.766 564.576C785.838 587.135 803.499 604.82 825.749 617.631C848.277 630.164 873.448 636.43 901.261 636.43C934.08 636.43 962.588 628.214 986.785 611.782C1009.71 596.128 1026.17 574.73 1036.17 547.587C1036.84 545.757 1037.48 543.9 1038.1 542.017H970.932C964.257 555.942 954.8 566.525 942.563 573.767ZM1249.72 639.493L1151.96 519.627V639.493H1082.42V336.76H1151.96V457.384L1249.71 336.76H1334.73L1209.97 486.855L1338.15 639.493H1249.72ZM1202.71 486.873L1322.87 342.33H1252.36L1146.39 473.087V342.33H1087.99V633.923H1146.39V504.001L1252.36 633.923H1326.2L1202.71 486.873ZM1649.4 336.76V395.106H1528V458.744H1621.03V516.256H1528V639.493H1458.47V336.76H1649.4ZM1522.44 510.685H1615.47V464.315H1522.44V389.536H1643.84V342.33H1464.03V633.923H1522.44V510.685ZM1832.2 639.493L1767.95 525.864H1749.22V639.493H1679.69V336.76H1794.56C1817.72 336.76 1837.81 340.909 1854.62 349.464C1871.3 357.677 1883.99 369.098 1892.39 383.79C1900.99 398.073 1905.25 414.102 1905.25 431.73C1905.25 452.104 1899.33 470.643 1887.53 487.187L1887.52 487.206L1887.5 487.225C1876.73 502.056 1861.36 512.589 1841.77 519.013L1912.77 639.493H1832.2ZM1833.36 515.699C1835.24 515.199 1837.07 514.664 1838.87 514.095C1858.12 508.007 1872.83 497.958 1883 483.949C1894.13 468.353 1899.69 450.946 1899.69 431.73C1899.69 415.019 1895.66 399.98 1887.59 386.612C1879.81 372.965 1867.98 362.243 1852.13 354.445C1836.28 346.368 1817.09 342.33 1794.56 342.33H1685.25V633.923H1743.66V520.294H1771.2L1835.44 633.923H1903.03L1833.36 515.699ZM1824.11 406.115L1824.07 406.079C1817.72 399.943 1807.55 396.36 1792.47 396.36H1749.22V470.859H1792.47C1807.52 470.859 1817.68 467.29 1824.04 461.175C1830.52 454.66 1834.05 445.5 1834.05 432.983C1834.05 420.74 1830.53 412.081 1824.15 406.151L1824.11 406.115ZM1827.93 465.15C1820.15 472.67 1808.33 476.429 1792.47 476.429H1743.66V390.79H1792.47C1808.33 390.79 1820.15 394.549 1827.93 402.069C1835.72 409.31 1839.62 419.615 1839.62 432.983C1839.62 446.63 1835.72 457.352 1827.93 465.15ZM2016.49 336.76V639.493H1946.96V336.76H2016.49ZM2063.07 639.493V336.76H2170.43C2201.75 336.76 2229.49 342.894 2253.5 355.344C2277.78 367.798 2296.53 385.675 2309.59 408.917C2322.94 431.88 2329.52 458.484 2329.52 488.544C2329.52 518.623 2322.93 545.242 2309.57 568.214C2296.49 590.899 2277.75 608.474 2253.49 620.91C2229.49 633.36 2201.75 639.493 2170.43 639.493H2063.07ZM2250.94 615.96C2274.31 603.984 2292.25 587.135 2304.76 565.411C2317.56 543.41 2323.95 517.787 2323.95 488.544C2323.95 459.301 2317.56 433.679 2304.76 411.677C2292.25 389.397 2274.31 372.269 2250.94 360.293C2227.86 348.318 2201.02 342.33 2170.43 342.33H2068.63V633.923H2170.43C2201.02 633.923 2227.86 627.936 2250.94 615.96ZM2235.28 421.416L2235.27 421.399C2219.89 405.495 2197.86 397.195 2168.34 397.195H2132.6V578.64H2168.34C2197.91 578.64 2219.97 570.588 2235.33 555.206C2250.7 539.815 2258.73 517.864 2258.73 488.544C2258.73 459.23 2250.7 437.114 2235.3 421.432L2235.28 421.416ZM2127.04 584.21V391.625H2168.34C2198.93 391.625 2222.57 400.259 2239.26 417.526C2255.95 434.515 2264.29 458.187 2264.29 488.544C2264.29 518.901 2255.95 542.435 2239.26 559.145C2222.57 575.855 2198.93 584.21 2168.34 584.21H2127.04ZM2565.42 633.923L2546.23 578.362H2430.25L2411.06 633.923H2349.73L2454.45 341.912H2522.45L2627.17 633.923H2565.42ZM2434.21 583.932L2415.02 639.493H2341.83L2450.54 336.342H2526.36L2635.07 639.493H2561.46L2542.27 583.932H2434.21ZM2907 336.76L2804.95 533.767V639.493H2735.42V533.773L2632.94 336.76H2711.56L2770.59 462.468L2829.23 336.76H2907ZM2770.6 475.594L2708.03 342.33H2642.11L2740.98 532.409V633.923H2799.39V532.409L2897.85 342.33H2832.77L2770.6 475.594ZM73.5319 457.073H121.37C134.507 457.073 143.769 454.179 149.933 449.173C155.94 444.025 159.195 436.669 159.195 426.299C159.195 415.902 155.924 408.534 149.887 403.385C143.727 398.131 134.49 395.106 121.37 395.106H73.5319V457.073ZM121.37 462.644C135.276 462.644 145.984 459.58 153.494 453.453C161.003 447.047 164.758 437.996 164.758 426.299C164.758 414.602 161.003 405.55 153.494 399.145C145.984 392.739 135.276 389.536 121.37 389.536H67.9694V462.644H121.37ZM589.694 409.589L547.557 531.573H631.83L589.694 409.589ZM624.02 526.003L589.694 426.628L555.367 526.003H624.02ZM2488.24 409.589L2446.1 531.573H2530.38L2488.24 409.589ZM2488.24 426.628L2453.91 526.003H2522.57L2488.24 426.628ZM2010.93 633.923H1952.52V342.33H2010.93V633.923Z" fill="url(#paint1_linear_33_133)"/>
<path opacity="0.8" fill-rule="evenodd" clip-rule="evenodd" d="M4 388.51V87.7355H129.714C150.036 87.7355 167.814 91.0072 182.879 97.7627C198.147 104.484 209.911 113.981 217.824 126.375C225.95 138.668 229.979 152.592 229.979 167.979C229.979 185.894 225.088 201.277 215.008 213.751C208.535 221.994 200.585 228.585 191.23 233.543C202.224 238.195 211.701 245.515 219.599 255.44C230.957 269.713 236.654 286.146 236.654 304.531C236.654 320.991 232.503 335.752 224.08 348.628C215.918 361.253 204.056 371.026 188.783 378.039C173.436 385.086 155.501 388.51 135.137 388.51H4ZM219.41 345.621C227.198 333.723 231.091 320.026 231.091 304.531C231.091 287.375 225.807 272.157 215.238 258.875C206.782 248.249 196.456 240.899 184.262 236.826C181.215 235.809 178.051 234.996 174.77 234.387C177.974 233.384 181.039 232.229 183.964 230.923C194.753 226.109 203.647 219.239 210.649 210.314C219.827 198.969 224.416 184.858 224.416 167.979C224.416 153.59 220.662 140.724 213.152 129.379C205.921 118.034 195.074 109.18 180.611 102.816C166.427 96.4516 149.461 93.2695 129.714 93.2695H9.56255V382.976H135.137C154.884 382.976 171.989 379.655 186.452 373.014C200.914 366.374 211.9 357.242 219.41 345.621ZM156.168 321.466L156.205 321.435C162.772 316.029 166.288 308.311 166.288 297.475C166.288 286.386 162.648 278.372 155.773 272.673L155.732 272.638L155.691 272.603C148.619 266.506 138.778 263.164 125.542 263.164H73.5319V330.126H126.793C140.157 330.126 149.68 326.998 156.131 321.497L156.168 321.466ZM67.9694 335.66V257.63H125.542C139.726 257.63 150.991 261.227 159.334 268.421C167.678 275.339 171.85 285.023 171.85 297.475C171.85 309.65 167.817 319.058 159.752 325.699C151.964 332.339 140.978 335.66 126.793 335.66H67.9694ZM437.564 331.371V388.51H272.078V87.7355H341.61V331.371H437.564ZM336.048 336.905V93.2695H277.641V382.976H432.002V336.905H336.048ZM666.874 382.976L647.683 327.774H531.704L512.513 382.976H451.186L555.901 92.8544H623.903L728.618 382.976H666.874ZM535.666 333.308L516.475 388.51H443.278L551.988 87.3204H627.816L736.526 388.51H662.912L643.721 333.308H535.666ZM767.934 158.596L767.94 158.586C781.493 135.061 799.865 116.764 823.012 103.809C846.436 90.5763 872.562 84 901.261 84C934.805 84 964.429 92.5747 989.919 109.865C1015.45 127.187 1033.28 151.175 1043.38 181.601L1045.79 188.87H967.432L965.917 185.73C959.683 172.81 950.972 163.325 939.815 157.018L939.791 157.005L939.767 156.991C928.774 150.633 915.86 147.365 900.844 147.365C884.8 147.365 870.653 151.146 858.246 158.604L858.231 158.613L858.217 158.621C846.108 165.798 836.518 176.061 829.452 189.586C822.692 203.057 819.213 219.043 819.213 237.708C819.213 256.072 822.683 272.074 829.463 285.849C836.525 299.357 846.113 309.763 858.232 317.217C870.636 324.401 884.789 328.05 900.844 328.05C915.854 328.05 928.763 324.785 939.753 318.432C950.952 311.843 959.68 302.197 965.917 289.27L967.432 286.13H1045.77L1043.39 293.385C1033.29 324.082 1015.47 348.219 989.919 365.55L989.913 365.554L989.907 365.558C964.678 382.58 935.051 391 901.261 391C872.58 391 846.467 384.57 823.048 371.626L823.012 371.606L822.976 371.586C799.867 358.367 781.509 340.094 767.954 316.854L767.941 316.832L767.929 316.81C754.61 293.478 748.012 267.062 748.012 237.708C748.012 208.353 754.61 181.937 767.929 158.605L767.934 158.596ZM942.563 323.208C930.603 330.126 916.697 333.584 900.844 333.584C883.878 333.584 868.72 329.711 855.37 321.963C842.298 313.939 832.007 302.732 824.497 288.344C817.266 273.679 813.65 256.8 813.65 237.708C813.65 218.338 817.266 201.46 824.497 187.071C832.007 172.683 842.298 161.615 855.37 153.867C868.72 145.843 883.878 141.831 900.844 141.831C916.697 141.831 930.603 145.289 942.563 152.207C954.8 159.124 964.257 169.501 970.932 183.336H1038.1C1037.48 181.465 1036.83 179.62 1036.15 177.802C1026.15 151.102 1009.7 129.98 986.785 114.437C962.31 97.8351 933.802 89.534 901.261 89.534C873.448 89.534 848.277 95.8982 825.749 108.626C803.499 121.078 785.838 138.648 772.766 161.338C759.972 183.751 753.575 209.207 753.575 237.708C753.575 266.208 759.972 291.664 772.766 314.077C785.838 336.49 803.499 354.06 825.749 366.789C848.277 379.24 873.448 385.466 901.261 385.466C934.08 385.466 962.588 377.303 986.785 360.978C1009.71 345.425 1026.17 324.165 1036.17 297.198C1036.84 295.38 1037.48 293.535 1038.1 291.664H970.932C964.257 305.499 954.8 316.014 942.563 323.208ZM1249.72 388.51L1151.96 269.419V388.51H1082.42V87.7355H1151.96V207.579L1249.71 87.7355H1334.73L1209.97 236.859L1338.15 388.51H1249.72ZM1202.71 236.877L1322.87 93.2695H1252.36L1146.39 223.181V93.2695H1087.99V382.976H1146.39V253.895L1252.36 382.976H1326.2L1202.71 236.877ZM1649.4 87.7355V145.704H1528V208.931H1621.03V266.069H1528V388.51H1458.47V87.7355H1649.4ZM1522.44 260.535H1615.47V214.465H1522.44V140.17H1643.84V93.2695H1464.03V382.976H1522.44V260.535ZM1832.2 388.51L1767.95 275.616H1749.22V388.51H1679.69V87.7355H1794.56C1817.72 87.7355 1837.81 91.8573 1854.62 100.358C1871.3 108.517 1883.99 119.864 1892.39 134.461C1900.99 148.652 1905.25 164.577 1905.25 182.091C1905.25 202.333 1899.33 220.752 1887.53 237.189L1887.52 237.208L1887.5 237.227C1876.73 251.962 1861.36 262.427 1841.77 268.809L1912.77 388.51H1832.2ZM1833.36 265.516C1835.24 265.019 1837.07 264.489 1838.87 263.923C1858.12 257.874 1872.83 247.89 1883 233.972C1894.13 218.477 1899.69 201.183 1899.69 182.091C1899.69 165.488 1895.66 150.547 1887.59 137.265C1879.81 123.707 1867.98 113.054 1852.13 105.306C1836.28 97.2816 1817.09 93.2695 1794.56 93.2695H1685.25V382.976H1743.66V270.082H1771.2L1835.44 382.976H1903.03L1833.36 265.516ZM1824.11 156.642L1824.07 156.606C1817.72 150.509 1807.55 146.95 1792.47 146.95H1749.22V220.967H1792.47C1807.52 220.967 1817.68 217.421 1824.04 211.345C1830.52 204.872 1834.05 195.772 1834.05 183.336C1834.05 171.172 1830.53 162.569 1824.15 156.677L1824.11 156.642ZM1827.93 215.295C1820.15 222.766 1808.33 226.501 1792.47 226.501H1743.66V141.416H1792.47C1808.33 141.416 1820.15 145.151 1827.93 152.622C1835.72 159.816 1839.62 170.054 1839.62 183.336C1839.62 196.894 1835.72 207.547 1827.93 215.295ZM2016.49 87.7355V388.51H1946.96V87.7355H2016.49ZM2063.07 388.51V87.7355H2170.43C2201.75 87.7355 2229.49 93.8299 2253.5 106.2C2277.78 118.573 2296.53 136.334 2309.59 159.425C2322.94 182.24 2329.52 208.672 2329.52 238.538C2329.52 268.422 2322.93 294.868 2309.57 317.692C2296.49 340.23 2277.75 357.691 2253.49 370.046C2229.49 382.416 2201.75 388.51 2170.43 388.51H2063.07ZM2250.94 365.128C2274.31 353.23 2292.25 336.49 2304.76 314.907C2317.56 293.048 2323.95 267.591 2323.95 238.538C2323.95 209.484 2317.56 184.027 2304.76 162.168C2292.25 140.032 2274.31 123.015 2250.94 111.117C2227.86 99.2186 2201.02 93.2695 2170.43 93.2695H2068.63V382.976H2170.43C2201.02 382.976 2227.86 377.027 2250.94 365.128ZM2235.28 171.843L2235.27 171.827C2219.89 156.026 2197.86 147.78 2168.34 147.78H2132.6V328.05H2168.34C2197.91 328.05 2219.97 320.05 2235.33 304.768C2250.7 289.477 2258.73 267.668 2258.73 238.538C2258.73 209.413 2250.7 187.44 2235.3 171.859L2235.28 171.843ZM2127.04 333.584V142.246H2168.34C2198.93 142.246 2222.57 150.823 2239.26 167.979C2255.95 184.858 2264.29 208.377 2264.29 238.538C2264.29 268.698 2255.95 292.079 2239.26 308.681C2222.57 325.283 2198.93 333.584 2168.34 333.584H2127.04ZM2565.42 382.976L2546.23 327.774H2430.25L2411.06 382.976H2349.73L2454.45 92.8544H2522.45L2627.17 382.976H2565.42ZM2434.21 333.308L2415.02 388.51H2341.83L2450.54 87.3204H2526.36L2635.07 388.51H2561.46L2542.27 333.308H2434.21ZM2907 87.7355L2804.95 283.468V388.51H2735.42V283.473L2632.94 87.7355H2711.56L2770.59 212.63L2829.23 87.7355H2907ZM2770.6 225.671L2708.03 93.2695H2642.11L2740.98 282.118V382.976H2799.39V282.118L2897.85 93.2695H2832.77L2770.6 225.671ZM73.5319 207.27H121.37C134.507 207.27 143.769 204.395 149.933 199.421C155.94 194.307 159.195 186.998 159.195 176.695C159.195 166.365 155.924 159.046 149.887 153.929C143.727 148.71 134.49 145.704 121.37 145.704H73.5319V207.27ZM121.37 212.804C135.276 212.804 145.984 209.761 153.494 203.673C161.003 197.309 164.758 188.316 164.758 176.695C164.758 165.073 161.003 156.081 153.494 149.717C145.984 143.352 135.276 140.17 121.37 140.17H67.9694V212.804H121.37ZM589.694 160.093L547.557 281.288H631.83L589.694 160.093ZM624.02 275.754L589.694 177.022L555.367 275.754H624.02ZM2488.24 160.093L2446.1 281.288H2530.38L2488.24 160.093ZM2488.24 177.022L2453.91 275.754H2522.57L2488.24 177.022ZM2010.93 382.976H1952.52V93.2695H2010.93V382.976Z" fill="url(#paint2_linear_33_133)"/>
<path opacity="0.8" fill-rule="evenodd" clip-rule="evenodd" d="M4 552.493V249.76H129.714C150.036 249.76 167.814 253.053 182.879 259.852C198.147 266.618 209.911 276.176 217.824 288.651C225.95 301.025 229.979 315.039 229.979 330.526C229.979 348.558 225.088 364.041 215.008 376.597C208.535 384.893 200.585 391.527 191.23 396.517C202.224 401.2 211.701 408.567 219.599 418.557C230.957 432.923 236.654 449.463 236.654 467.968C236.654 484.535 232.503 499.393 224.08 512.352C215.918 525.059 204.056 534.896 188.783 541.955C173.436 549.047 155.501 552.493 135.137 552.493H4ZM219.41 509.325C227.198 497.35 231.091 483.564 231.091 467.968C231.091 450.7 225.807 435.383 215.238 422.014C206.782 411.319 196.456 403.921 184.262 399.822C181.215 398.798 178.051 397.979 174.77 397.367C177.974 396.357 181.039 395.195 183.964 393.881C194.753 389.034 203.647 382.12 210.649 373.137C219.827 361.718 224.416 347.515 224.416 330.526C224.416 316.044 220.662 303.093 213.152 291.675C205.921 280.256 195.074 271.344 180.611 264.938C166.427 258.533 149.461 255.33 129.714 255.33H9.56255V546.923H135.137C154.884 546.923 171.989 543.581 186.452 536.897C200.914 530.213 211.9 521.023 219.41 509.325ZM156.168 485.013L156.205 484.982C162.772 479.54 166.288 471.772 166.288 460.866C166.288 449.705 162.648 441.638 155.773 435.902L155.732 435.867L155.691 435.832C148.619 429.695 138.778 426.331 125.542 426.331H73.5319V493.729H126.793C140.157 493.729 149.68 490.581 156.131 485.044L156.168 485.013ZM67.9694 499.299V420.761H125.542C139.726 420.761 150.991 424.382 159.334 431.623C167.678 438.585 171.85 448.333 171.85 460.866C171.85 473.12 167.817 482.589 159.752 489.273C151.964 495.957 140.978 499.299 126.793 499.299H67.9694ZM437.564 494.982V552.493H272.078V249.76H341.61V494.982H437.564ZM336.048 500.553V255.33H277.641V546.923H432.002V500.553H336.048ZM666.874 546.923L647.683 491.362H531.704L512.513 546.923H451.186L555.901 254.912H623.903L728.618 546.923H666.874ZM535.666 496.932L516.475 552.493H443.278L551.988 249.342H627.816L736.526 552.493H662.912L643.721 496.932H535.666ZM767.934 321.082L767.94 321.072C781.493 297.393 799.865 278.978 823.012 265.938C846.436 252.619 872.562 246 901.261 246C934.805 246 964.429 254.631 989.919 272.033C1015.45 289.468 1033.28 313.612 1043.38 344.236L1045.79 351.553H967.432L965.917 348.393C959.683 335.388 950.972 325.842 939.815 319.494L939.791 319.48L939.767 319.467C928.774 313.067 915.86 309.777 900.844 309.777C884.8 309.777 870.653 313.584 858.246 321.09L858.231 321.099L858.217 321.107C846.108 328.331 836.518 338.661 829.452 352.274C822.692 365.832 819.213 381.923 819.213 400.709C819.213 419.193 822.683 435.299 829.463 449.164C836.525 462.76 846.113 473.234 858.232 480.737C870.636 487.967 884.789 491.64 900.844 491.64C915.854 491.64 928.763 488.354 939.753 481.959C950.952 475.328 959.68 465.619 965.917 452.607L967.432 449.447H1045.77L1043.39 456.749C1033.29 487.646 1015.47 511.941 989.919 529.384L989.913 529.388L989.907 529.392C964.678 546.525 935.051 555 901.261 555C872.58 555 846.467 548.528 823.048 535.5L823.012 535.48L822.976 535.46C799.867 522.154 781.509 503.762 767.954 480.371L767.941 480.349L767.929 480.327C754.61 456.843 748.012 430.255 748.012 400.709C748.012 371.163 754.61 344.575 767.929 321.091L767.934 321.082ZM942.563 486.767C930.603 493.729 916.697 497.21 900.844 497.21C883.878 497.21 868.72 493.311 855.37 485.513C842.298 477.437 832.007 466.157 824.497 451.675C817.266 436.914 813.65 419.926 813.65 400.709C813.65 381.214 817.266 364.225 824.497 349.743C832.007 335.26 842.298 324.12 855.37 316.322C868.72 308.246 883.878 304.207 900.844 304.207C916.697 304.207 930.603 307.689 942.563 314.651C954.8 321.614 964.257 332.058 970.932 345.983H1038.1C1037.48 344.1 1036.83 342.243 1036.15 340.413C1026.15 313.539 1009.7 292.28 986.785 276.635C962.31 259.925 933.802 251.57 901.261 251.57C873.448 251.57 848.277 257.976 825.749 270.787C803.499 283.32 785.838 301.004 772.766 323.842C759.972 346.401 753.575 372.023 753.575 400.709C753.575 429.395 759.972 455.017 772.766 477.576C785.838 500.135 803.499 517.82 825.749 530.631C848.277 543.164 873.448 549.43 901.261 549.43C934.08 549.43 962.588 541.214 986.785 524.782C1009.71 509.128 1026.17 487.73 1036.17 460.587C1036.84 458.757 1037.48 456.9 1038.1 455.017H970.932C964.257 468.942 954.8 479.525 942.563 486.767ZM1249.72 552.493L1151.96 432.627V552.493H1082.42V249.76H1151.96V370.384L1249.71 249.76H1334.73L1209.97 399.855L1338.15 552.493H1249.72ZM1202.71 399.873L1322.87 255.33H1252.36L1146.39 386.087V255.33H1087.99V546.923H1146.39V417.001L1252.36 546.923H1326.2L1202.71 399.873ZM1649.4 249.76V308.106H1528V371.744H1621.03V429.256H1528V552.493H1458.47V249.76H1649.4ZM1522.44 423.685H1615.47V377.315H1522.44V302.536H1643.84V255.33H1464.03V546.923H1522.44V423.685ZM1832.2 552.493L1767.95 438.864H1749.22V552.493H1679.69V249.76H1794.56C1817.72 249.76 1837.81 253.909 1854.62 262.464C1871.3 270.677 1883.99 282.098 1892.39 296.79C1900.99 311.073 1905.25 327.102 1905.25 344.73C1905.25 365.104 1899.33 383.643 1887.53 400.187L1887.52 400.206L1887.5 400.225C1876.73 415.056 1861.36 425.589 1841.77 432.013L1912.77 552.493H1832.2ZM1833.36 428.699C1835.24 428.199 1837.07 427.664 1838.87 427.095C1858.12 421.007 1872.83 410.958 1883 396.949C1894.13 381.353 1899.69 363.946 1899.69 344.73C1899.69 328.019 1895.66 312.98 1887.59 299.612C1879.81 285.965 1867.98 275.243 1852.13 267.445C1836.28 259.368 1817.09 255.33 1794.56 255.33H1685.25V546.923H1743.66V433.294H1771.2L1835.44 546.923H1903.03L1833.36 428.699ZM1824.11 319.115L1824.07 319.079C1817.72 312.943 1807.55 309.36 1792.47 309.36H1749.22V383.859H1792.47C1807.52 383.859 1817.68 380.29 1824.04 374.175C1830.52 367.66 1834.05 358.5 1834.05 345.983C1834.05 333.74 1830.53 325.081 1824.15 319.151L1824.11 319.115ZM1827.93 378.15C1820.15 385.67 1808.33 389.429 1792.47 389.429H1743.66V303.79H1792.47C1808.33 303.79 1820.15 307.549 1827.93 315.069C1835.72 322.31 1839.62 332.615 1839.62 345.983C1839.62 359.63 1835.72 370.352 1827.93 378.15ZM2016.49 249.76V552.493H1946.96V249.76H2016.49ZM2063.07 552.493V249.76H2170.43C2201.75 249.76 2229.49 255.894 2253.5 268.344C2277.78 280.798 2296.53 298.675 2309.59 321.917C2322.94 344.88 2329.52 371.484 2329.52 401.544C2329.52 431.623 2322.93 458.242 2309.57 481.214C2296.49 503.899 2277.75 521.474 2253.49 533.91C2229.49 546.36 2201.75 552.493 2170.43 552.493H2063.07ZM2250.94 528.96C2274.31 516.984 2292.25 500.135 2304.76 478.411C2317.56 456.41 2323.95 430.787 2323.95 401.544C2323.95 372.301 2317.56 346.679 2304.76 324.677C2292.25 302.397 2274.31 285.269 2250.94 273.293C2227.86 261.318 2201.02 255.33 2170.43 255.33H2068.63V546.923H2170.43C2201.02 546.923 2227.86 540.936 2250.94 528.96ZM2235.28 334.416L2235.27 334.399C2219.89 318.495 2197.86 310.195 2168.34 310.195H2132.6V491.64H2168.34C2197.91 491.64 2219.97 483.588 2235.33 468.206C2250.7 452.815 2258.73 430.864 2258.73 401.544C2258.73 372.23 2250.7 350.114 2235.3 334.432L2235.28 334.416ZM2127.04 497.21V304.625H2168.34C2198.93 304.625 2222.57 313.259 2239.26 330.526C2255.95 347.515 2264.29 371.187 2264.29 401.544C2264.29 431.901 2255.95 455.435 2239.26 472.145C2222.57 488.855 2198.93 497.21 2168.34 497.21H2127.04ZM2565.42 546.923L2546.23 491.362H2430.25L2411.06 546.923H2349.73L2454.45 254.912H2522.45L2627.17 546.923H2565.42ZM2434.21 496.932L2415.02 552.493H2341.83L2450.54 249.342H2526.36L2635.07 552.493H2561.46L2542.27 496.932H2434.21ZM2907 249.76L2804.95 446.767V552.493H2735.42V446.773L2632.94 249.76H2711.56L2770.59 375.468L2829.23 249.76H2907ZM2770.6 388.594L2708.03 255.33H2642.11L2740.98 445.409V546.923H2799.39V445.409L2897.85 255.33H2832.77L2770.6 388.594ZM73.5319 370.073H121.37C134.507 370.073 143.769 367.179 149.933 362.173C155.94 357.025 159.195 349.669 159.195 339.299C159.195 328.902 155.924 321.534 149.887 316.385C143.727 311.131 134.49 308.106 121.37 308.106H73.5319V370.073ZM121.37 375.644C135.276 375.644 145.984 372.58 153.494 366.453C161.003 360.047 164.758 350.996 164.758 339.299C164.758 327.602 161.003 318.55 153.494 312.145C145.984 305.739 135.276 302.536 121.37 302.536H67.9694V375.644H121.37ZM589.694 322.589L547.557 444.573H631.83L589.694 322.589ZM624.02 439.003L589.694 339.628L555.367 439.003H624.02ZM2488.24 322.589L2446.1 444.573H2530.38L2488.24 322.589ZM2488.24 339.628L2453.91 439.003H2522.57L2488.24 339.628ZM2010.93 546.923H1952.52V255.33H2010.93V546.923Z" fill="url(#paint3_linear_33_133)"/>
<path fill-rule="evenodd" clip-rule="evenodd" d="M0 472.745V168.373H146.502C176.636 168.373 202.156 175.056 221.368 190.154C241.374 205.664 251.058 227.606 251.058 254.112C251.058 272.918 245.999 289.69 235.143 303.515C231.477 308.208 227.369 312.356 222.848 315.962C229.275 320.502 234.988 326.05 239.927 332.608C251.514 347.383 257.33 364.516 257.33 383.477C257.33 410.612 247.773 433.233 227.919 449.564C208.38 465.636 182.062 472.745 150.814 472.745H0ZM228.825 341.139C223.57 334.132 217.254 328.511 209.878 324.276C204.05 320.93 197.56 318.449 190.408 316.834C197.473 314.872 203.817 312.058 209.441 308.393C215.051 304.736 219.945 300.233 224.121 294.882C232.745 283.905 237.058 270.315 237.058 254.112C237.058 231.375 228.956 213.734 212.753 201.19C196.811 188.645 174.727 182.373 146.502 182.373H14.0006V458.744H150.814C180.085 458.744 202.822 452.08 219.025 438.751C235.228 425.423 243.33 406.998 243.33 383.477C243.33 367.535 238.495 353.423 228.825 341.139ZM147.491 363.844L147.359 363.726C145.848 362.374 142.51 360.628 135.133 360.628H104.836V382.805H135.525C143.582 382.805 147.016 381.066 148.291 379.998C149.092 379.327 150.534 377.73 150.534 372.501C150.534 367.261 149.045 365.165 147.627 363.96L147.491 363.844ZM90.8357 396.806V346.628H135.133C144.542 346.628 151.729 348.849 156.694 353.292C161.921 357.735 164.535 364.138 164.535 372.501C164.535 388.704 154.865 396.806 135.525 396.806H90.8357ZM453.69 385.941V409.797L541.699 168.373H649.904L760.428 472.745H649.183L634.286 427.663H556.52L541.623 472.745H263.003V168.373H367.839V385.941H453.69ZM439.69 458.744V399.942H353.838V182.373H277.003V458.744H439.69ZM531.504 458.744L546.401 413.662H644.405L659.302 458.744H740.449L640.093 182.373H551.497L450.749 458.744H531.504ZM760.589 240.855L760.603 240.828C773.33 217.109 791.397 198.574 814.627 185.493C837.903 172.123 864.392 165.628 893.681 165.628C930.807 165.628 962.992 175.668 989.341 196.439C1015.67 216.93 1032.45 244.867 1039.87 279.396L1043.51 296.338H934.618L930.821 288.344C926.883 280.054 921.679 274.256 915.333 270.336L915.253 270.286L915.174 270.236C909.068 266.351 901.684 264.192 892.505 264.192C878.58 264.192 868.387 268.981 860.523 278.373C852.726 287.735 848.095 301.097 848.095 319.971C848.095 339.063 852.707 352.71 860.522 362.35C868.34 371.44 878.531 376.141 892.505 376.141C901.684 376.141 909.068 373.983 915.174 370.097L915.253 370.047L915.333 369.997C921.679 366.078 926.883 360.279 930.821 351.989L934.618 343.996H1043.51L1039.87 360.937C1032.45 395.473 1015.67 423.515 989.38 444.255L989.342 444.285L989.304 444.315C962.949 464.813 930.779 474.705 893.681 474.705C864.422 474.705 837.956 468.355 814.686 455.266L814.629 455.234L814.571 455.201C791.422 441.89 773.374 423.407 760.637 399.96L760.589 399.87L760.541 399.78C748.118 376.088 742.083 349.37 742.083 319.971C742.083 290.812 748.126 264.331 760.574 240.883L760.589 240.855ZM849.775 371.325C839.322 358.519 834.095 341.401 834.095 319.971C834.095 298.802 839.322 281.945 849.775 269.401C860.49 256.595 874.734 250.192 892.505 250.192C904.004 250.192 914.066 252.936 922.69 258.424C931.576 263.912 938.501 271.883 943.467 282.337H1026.18C1025.15 277.515 1023.92 272.848 1022.49 268.337C1014.57 243.258 1000.64 222.967 980.709 207.462C957.188 188.907 928.178 179.629 893.681 179.629C866.501 179.629 842.458 185.64 821.55 197.662C800.643 209.422 784.439 226.017 772.94 247.448C761.702 268.617 756.083 292.791 756.083 319.971C756.083 347.412 761.702 371.847 772.94 393.278C784.439 414.446 800.643 431.042 821.55 443.064C842.458 454.824 866.501 460.704 893.681 460.704C928.178 460.704 957.188 451.557 980.709 433.263C1000.65 417.535 1014.57 397.113 1022.49 371.997C1023.92 367.482 1025.15 362.815 1026.18 357.996H943.467C938.501 368.45 931.576 376.421 922.69 381.909C914.066 387.397 904.004 390.141 892.505 390.141C874.734 390.141 860.49 383.869 849.775 371.325ZM1218.84 472.745L1153.4 381.254V472.745H1048.57V168.373H1153.4V258.159L1218.08 168.373H1342.01L1229.84 316.487L1346.93 472.745H1218.84ZM1212.32 316.442L1313.85 182.373H1225.25L1139.4 301.546V182.373H1062.57V458.744H1139.4V337.611L1226.04 458.744H1318.94L1212.32 316.442ZM104.836 278.137H129.645C137.744 278.137 141.215 276.413 142.497 275.356C143.261 274.726 144.654 273.248 144.654 268.225C144.654 262.792 143.165 261.076 142.326 260.362C141.057 259.281 137.658 257.528 129.645 257.528H104.836V278.137ZM129.645 292.138C148.985 292.138 158.654 284.167 158.654 268.225C158.654 251.76 148.985 243.528 129.645 243.528H90.8357V292.138H129.645ZM595.403 265.48L566.002 354.86H625.196L595.403 265.48ZM595.491 310.018L585.346 340.859H605.771L595.491 310.018Z" fill="#17ADE1"/>
<path fill-rule="evenodd" clip-rule="evenodd" d="M185.967 336.5L185.012 297.409C195.306 294.55 202.732 289.519 208.228 282.477L208.248 282.452L208.268 282.426C213.666 275.556 216.897 266.557 216.897 254.112C216.897 236.83 211.095 225.403 200.411 217.132L200.348 217.083L200.285 217.034C189.059 208.2 171.946 202.534 146.502 202.534H34.1613V438.584H150.814C177.237 438.584 194.817 432.559 206.217 423.182C217.164 414.177 223.169 401.794 223.169 383.477C223.169 371.962 219.796 362.263 212.984 353.61L212.838 353.425L212.697 353.236C206.341 344.762 197.8 339.172 185.967 336.5ZM212.753 201.19C196.811 188.646 174.727 182.373 146.502 182.373H14.0005V458.744H150.814C180.085 458.744 202.821 452.08 219.025 438.752C235.228 425.423 243.33 406.998 243.33 383.477C243.33 367.535 238.495 353.423 228.825 341.14C225.026 336.074 220.673 331.733 215.766 328.116C208.521 322.777 200.068 319.016 190.408 316.835C199.948 314.185 208.174 309.982 215.087 304.227C218.4 301.469 221.411 298.354 224.121 294.882C232.745 283.905 237.057 270.315 237.057 254.112C237.057 231.375 228.956 213.735 212.753 201.19ZM353.838 399.942V182.373H277.003V458.744H439.69V399.942H353.838ZM419.529 420.103H333.678V202.534H297.164V438.584H419.529V420.103ZM450.749 458.744H531.504L546.401 413.663H644.405L659.301 458.744H740.449L640.093 182.373H551.497L450.749 458.744ZM565.606 202.534L479.557 438.584H516.933L531.83 393.502H658.976L673.873 438.584H711.679L625.965 202.534H595.672L653.168 375.021H538.146L594.885 202.534H565.606ZM70.6748 312.298V223.367H129.645C141.7 223.367 154.502 225.864 164.471 234.351C175.061 243.367 178.815 255.96 178.815 268.225C178.815 280.44 174.923 292.898 164.226 301.716C154.275 309.919 141.577 312.298 129.645 312.298H70.6748ZM90.8356 396.806V346.628H135.133C144.542 346.628 151.729 348.849 156.694 353.292C161.921 357.735 164.535 364.138 164.535 372.501C164.535 388.704 154.865 396.806 135.525 396.806H90.8356ZM169.946 338.097C160.034 329.337 147.389 326.467 135.133 326.467H70.6748V416.967H135.525C147.519 416.967 160.269 414.529 170.23 406.183C180.874 397.265 184.695 384.739 184.695 372.501C184.695 359.719 180.514 347.189 169.946 338.097ZM821.55 197.662C800.643 209.422 784.439 226.018 772.94 247.448C761.702 268.617 756.083 292.791 756.083 319.971C756.083 347.412 761.702 371.848 772.94 393.278C784.439 414.447 800.643 431.042 821.55 443.064C842.458 454.824 866.501 460.704 893.681 460.704C928.178 460.704 957.188 451.557 980.708 433.263C998.99 418.841 1012.22 400.473 1020.4 378.157C1022.74 371.761 1024.67 365.041 1026.18 357.996H943.467C938.501 368.45 931.576 376.421 922.69 381.909C914.066 387.397 904.004 390.142 892.505 390.142C874.733 390.142 860.49 383.869 849.775 371.325C839.321 358.519 834.095 341.401 834.095 319.971C834.095 298.802 839.321 281.945 849.775 269.401C860.49 256.595 874.733 250.192 892.505 250.192C904.004 250.192 914.066 252.936 922.69 258.424C931.576 263.913 938.501 271.884 943.467 282.337H1026.18C1024.67 275.286 1022.74 268.565 1020.39 262.176C1012.21 239.915 998.984 221.677 980.708 207.462C957.188 188.907 928.178 179.629 893.681 179.629C866.501 179.629 842.458 185.64 821.55 197.662ZM1139.4 182.373H1062.57V458.744H1139.4V337.612L1226.04 458.744H1318.94L1212.32 316.443L1313.85 182.373H1225.25L1139.4 301.546V182.373ZM1119.24 202.534H1082.73V438.584H1119.24V202.534ZM1151.27 319.556L1235.58 202.534H1273.29L1187.08 316.378L1278.65 438.584H1236.4L1151.27 319.556ZM998.651 262.176C991.659 246.443 981.525 233.638 968.331 223.376L968.276 223.334L968.222 223.291C948.784 207.957 924.367 199.79 893.681 199.79C869.571 199.79 849.077 205.09 831.6 215.139L831.517 215.187L831.434 215.234C813.924 225.083 800.438 238.856 790.725 256.944C781.244 274.821 776.244 295.66 776.244 319.971C776.244 344.533 781.24 365.639 790.727 383.784C800.423 401.582 813.921 415.402 831.516 425.538C849.005 435.356 869.533 440.544 893.681 440.544C924.404 440.544 948.844 432.485 968.275 417.393C981.517 406.933 991.671 393.976 998.669 378.157H955.08C949.338 386.531 942.132 393.575 933.401 398.99C921.177 406.737 907.299 410.302 892.505 410.302C869.352 410.302 849.314 401.826 834.445 384.419L834.3 384.248L834.157 384.074C819.99 366.719 813.934 344.652 813.934 319.971C813.934 295.506 820.015 273.621 834.287 256.494L834.3 256.479L834.313 256.463C849.132 238.753 869.203 230.031 892.505 230.031C907.299 230.031 921.177 233.597 933.401 241.344C942.132 246.759 949.339 253.803 955.08 262.176H998.651ZM129.645 292.138C148.985 292.138 158.654 284.167 158.654 268.225C158.654 251.76 148.985 243.528 129.645 243.528H90.8356V292.138H129.645ZM595.403 265.481L566.002 354.86H625.196L595.403 265.481Z" fill="#17ADE1"/>
<path fill-rule="evenodd" clip-rule="evenodd" d="M186.954 332.13L186.211 301.726C197.353 298.631 205.627 293.092 211.76 285.234L211.775 285.214L211.791 285.194C217.906 277.411 221.377 267.392 221.377 254.112C221.377 235.618 215.064 222.81 203.153 213.589L203.104 213.551L203.056 213.513C190.781 203.854 172.564 198.054 146.502 198.054H29.6811V443.064H150.814C177.87 443.064 196.595 436.897 209.063 426.642C221.178 416.676 227.649 402.95 227.649 383.477C227.649 370.978 223.951 360.299 216.504 350.839L216.391 350.695L216.281 350.548C209.247 341.17 199.758 335.021 186.954 332.13ZM212.753 201.19C196.811 188.646 174.727 182.373 146.502 182.373H14.0005V458.744H150.814C180.085 458.744 202.821 452.08 219.025 438.752C235.228 425.423 243.33 406.998 243.33 383.477C243.33 367.535 238.495 353.423 228.825 341.14C223.978 334.677 218.23 329.394 211.58 325.29C205.321 321.427 198.264 318.609 190.408 316.835C198.167 314.679 205.058 311.497 211.079 307.287C216.009 303.84 220.356 299.705 224.121 294.882C232.745 283.905 237.057 270.315 237.057 254.112C237.057 231.375 228.956 213.735 212.753 201.19ZM75.155 307.818V227.847H129.645C141.17 227.847 152.739 230.247 161.567 237.762C170.878 245.689 174.335 256.856 174.335 268.225C174.335 279.497 170.77 290.515 161.376 298.259C152.562 305.525 141.075 307.818 129.645 307.818H75.155ZM135.525 396.806C154.865 396.806 164.535 388.704 164.535 372.501C164.535 364.138 161.921 357.735 156.694 353.292C151.729 348.849 144.542 346.628 135.133 346.628H90.8356V396.806H135.525ZM75.155 330.947H135.133C146.752 330.947 158.186 333.671 167 341.473C176.384 349.533 180.215 360.703 180.215 372.501C180.215 383.82 176.706 394.913 167.353 402.749C158.531 410.14 147.002 412.487 135.525 412.487H75.155V330.947ZM338.158 415.623V198.054H292.684V443.064H424.009V415.623H338.158ZM439.69 399.942H353.838V182.373H277.003V458.744H439.69V399.942ZM531.504 458.744L546.401 413.663H644.405L659.301 458.744H740.449L640.093 182.373H551.497L450.749 458.744H531.504ZM473.155 443.064H520.171L535.068 397.982H655.738L670.634 443.064H718.072L629.104 198.054H562.471L473.155 443.064ZM646.952 370.541H544.336L595.304 215.598L646.952 370.541ZM821.55 197.662C800.643 209.422 784.439 226.018 772.94 247.448C761.702 268.617 756.083 292.791 756.083 319.971C756.083 347.412 761.702 371.848 772.94 393.278C784.439 414.447 800.643 431.042 821.55 443.064C842.458 454.824 866.501 460.704 893.681 460.704C928.178 460.704 957.188 451.557 980.708 433.263C1000.2 417.888 1013.95 398.025 1021.95 373.677C1023.61 368.642 1025.02 363.415 1026.18 357.996H943.467C938.501 368.45 931.576 376.421 922.69 381.909C914.066 387.397 904.004 390.142 892.505 390.142C874.733 390.142 860.49 383.869 849.775 371.325C839.321 358.519 834.095 341.401 834.095 319.971C834.095 298.802 839.321 281.945 849.775 269.401C860.49 256.595 874.733 250.192 892.505 250.192C904.004 250.192 914.066 252.936 922.69 258.424C931.576 263.913 938.501 271.884 943.467 282.337H1026.18C1025.02 276.914 1023.61 271.688 1021.95 266.657C1013.94 242.351 1000.2 222.619 980.708 207.462C957.188 188.907 928.178 179.629 893.681 179.629C866.501 179.629 842.458 185.64 821.55 197.662ZM1005.33 266.657C998.073 247.395 986.628 231.931 971.081 219.84L971.039 219.807L970.996 219.773C950.652 203.723 925.214 195.31 893.681 195.31C868.889 195.31 847.606 200.768 829.366 211.256L829.302 211.292L829.238 211.329C810.974 221.602 796.885 236.001 786.774 254.83C776.902 273.439 771.764 295.02 771.764 319.971C771.764 345.174 776.899 367.02 786.774 385.894C796.872 404.441 810.97 418.878 829.302 429.433C847.55 439.682 868.859 445.024 893.681 445.024C925.242 445.024 950.697 436.724 971.037 420.921C986.622 408.615 998.079 393.001 1005.33 373.677H952.676C947.053 382.449 939.854 389.72 931.02 395.195C919.596 402.439 906.566 405.822 892.505 405.822C870.548 405.822 851.798 397.836 837.852 381.509L837.739 381.376L837.628 381.241C824.286 364.897 818.414 343.929 818.414 319.971C818.414 296.238 824.305 275.471 837.729 259.362L837.749 259.338C851.656 242.718 870.432 234.511 892.505 234.511C906.565 234.511 919.594 237.894 931.018 245.137C939.853 250.613 947.053 257.884 952.676 266.657H1005.33ZM1139.4 182.373H1062.57V458.744H1139.4V337.612L1226.04 458.744H1318.94L1212.32 316.443L1313.85 182.373H1225.25L1139.4 301.546V182.373ZM1233.28 198.054L1145.76 319.547L1234.1 443.064H1287.6L1192.68 316.393L1282.3 198.054H1233.28ZM1123.72 198.054H1078.25V443.064H1123.72V198.054ZM129.645 292.138C148.985 292.138 158.654 284.167 158.654 268.225C158.654 251.76 148.985 243.528 129.645 243.528H90.8356V292.138H129.645ZM595.403 265.481L566.002 354.86H625.196L595.403 265.481Z" fill="black"/>
<path fill-rule="evenodd" clip-rule="evenodd" d="M3.36011 469.385V171.733H146.502C176.177 171.733 200.872 178.317 219.3 192.802C238.393 207.6 247.698 228.511 247.698 254.112C247.698 272.294 242.818 288.303 232.497 301.444C228.011 307.188 222.83 312.081 216.999 316.131C224.778 320.901 231.559 327.075 237.263 334.656C248.389 348.832 253.97 365.241 253.97 383.477C253.97 409.745 244.762 431.358 225.784 446.969C207.046 462.382 181.588 469.385 150.814 469.385H3.36011ZM228.825 341.139C222.718 332.996 215.179 326.726 206.209 322.327C201.36 319.949 196.093 318.118 190.408 316.834C196.024 315.274 201.186 313.176 205.891 310.54C213.01 306.552 219.086 301.332 224.121 294.882C232.745 283.905 237.058 270.315 237.058 254.112C237.058 231.375 228.956 213.734 212.753 201.19C196.811 188.645 174.727 182.373 146.502 182.373H14.0005V458.744H150.814C180.085 458.744 202.821 452.08 219.025 438.751C235.228 425.423 243.33 406.998 243.33 383.477C243.33 367.535 238.495 353.423 228.825 341.139ZM149.7 361.312L149.599 361.222C147.259 359.128 142.997 357.268 135.133 357.268H101.476V386.165H135.525C143.969 386.165 148.319 384.358 150.449 382.573C152.218 381.091 153.894 378.419 153.894 372.501C153.894 366.511 152.135 363.382 149.803 361.399L149.7 361.312ZM90.8356 396.806V346.628H135.133C144.542 346.628 151.729 348.849 156.694 353.292C161.921 357.735 164.535 364.138 164.535 372.501C164.535 388.704 154.865 396.806 135.525 396.806H90.8356ZM450.33 389.301V428.825L544.051 171.733H647.549L755.633 469.385H651.611L636.714 424.303H554.091L539.195 469.385H266.363V171.733H364.479V389.301H450.33ZM439.69 458.744V399.942H353.838V182.373H277.003V458.744H439.69ZM546.401 413.662H644.405L659.301 458.744H740.449L640.093 182.373H551.497L450.749 458.744H531.504L546.401 413.662ZM763.553 242.438L763.564 242.417C775.997 219.247 793.616 201.177 816.289 188.412C838.997 175.366 864.899 168.989 893.681 168.989C930.174 168.989 961.596 178.844 987.266 199.082C1012.92 219.046 1029.32 246.269 1036.59 280.102L1039.35 292.978H936.741L933.856 286.902C929.671 278.093 924.054 271.773 917.099 267.477L917.038 267.439L916.977 267.401C910.267 263.131 902.241 260.832 892.505 260.832C877.657 260.832 866.492 266.008 857.944 276.219C849.509 286.344 844.735 300.545 844.735 319.971C844.735 339.626 849.496 354.105 857.942 364.503C866.455 374.422 877.618 379.501 892.505 379.501C902.241 379.501 910.267 377.202 916.977 372.932L917.038 372.894L917.099 372.856C924.054 368.56 929.671 362.24 933.856 353.431L936.741 347.356H1039.35L1036.59 360.231C1029.31 394.068 1012.92 421.402 987.299 441.617L987.27 441.64L987.241 441.662C961.566 461.631 930.155 471.345 893.681 471.345C864.921 471.345 839.036 465.108 816.333 452.338L816.29 452.313L816.246 452.288C793.634 439.286 776.03 421.257 763.59 398.357L763.553 398.288L763.517 398.219C751.378 375.071 745.443 348.9 745.443 319.971C745.443 291.287 751.385 265.359 763.542 242.458L763.553 242.438ZM849.775 371.325C839.321 358.519 834.094 341.401 834.094 319.971C834.094 298.802 839.321 281.945 849.775 269.401C860.49 256.595 874.733 250.192 892.505 250.192C904.004 250.192 914.066 252.936 922.69 258.424C931.576 263.912 938.501 271.883 943.467 282.337H1026.18C1025.4 278.702 1024.51 275.155 1023.51 271.697C1015.79 245.065 1001.53 223.653 980.708 207.462C957.187 188.907 928.178 179.629 893.681 179.629C866.501 179.629 842.458 185.64 821.55 197.662C800.642 209.422 784.439 226.017 772.94 247.448C761.702 268.617 756.083 292.791 756.083 319.971C756.083 347.412 761.702 371.847 772.94 393.278C784.439 414.446 800.642 431.042 821.55 443.064C842.458 454.824 866.501 460.704 893.681 460.704C928.178 460.704 957.187 451.557 980.708 433.263C1001.53 416.84 1015.79 395.297 1023.51 368.637C1024.51 365.176 1025.4 361.629 1026.18 357.996H943.467C938.501 368.45 931.576 376.421 922.69 381.909C914.066 387.397 904.004 390.141 892.505 390.141C874.733 390.141 860.49 383.869 849.775 371.325ZM1220.57 469.385L1150.04 370.779V469.385H1051.93V171.733H1150.04V268.572L1219.8 171.733H1335.25L1225.64 316.476L1340.21 469.385H1220.57ZM1212.32 316.442L1313.85 182.373H1225.25L1139.4 301.546V182.373H1062.57V458.744H1139.4V337.611L1226.04 458.744H1318.94L1212.32 316.442ZM101.476 281.497H129.645C138.121 281.497 142.499 279.708 144.634 277.949C146.375 276.514 148.014 273.955 148.014 268.225C148.014 262.12 146.302 259.334 144.504 257.804C142.379 255.994 138.056 254.168 129.645 254.168H101.476V281.497ZM129.645 292.137C148.985 292.137 158.654 284.166 158.654 268.225C158.654 251.76 148.985 243.528 129.645 243.528H90.8356V292.137H129.645ZM595.403 265.48L566.002 354.86H625.196L595.403 265.48ZM595.47 299.329L580.703 344.22H610.433L595.47 299.329Z" fill="#0D1720"/>
<path fill-rule="evenodd" clip-rule="evenodd" d="M188.681 324.482L188.309 309.28C200.937 305.773 210.692 299.344 217.94 290.058L217.948 290.048L217.956 290.038C225.326 280.658 229.217 268.854 229.217 254.112C229.217 233.497 222.01 218.272 207.953 207.39L207.928 207.371L207.904 207.351C193.796 196.25 173.645 190.214 146.502 190.214H21.8408V450.904H150.814C178.977 450.904 199.708 444.489 214.044 432.697C228.203 421.05 235.489 404.974 235.489 383.477C235.489 369.257 231.223 356.861 222.665 345.989L222.608 345.917L222.553 345.844C214.332 334.882 203.184 327.757 188.681 324.482ZM212.753 201.19C196.811 188.646 174.727 182.373 146.502 182.373H14.0005V458.744H150.814C180.085 458.744 202.821 452.08 219.025 438.752C235.228 425.423 243.33 406.998 243.33 383.477C243.33 367.535 238.495 353.423 228.825 341.14C221.963 331.99 213.292 325.203 202.815 320.781C198.928 319.14 194.792 317.825 190.408 316.835C194.739 315.631 198.8 314.108 202.59 312.265C211.148 308.102 218.325 302.308 224.121 294.882C232.745 283.905 237.057 270.315 237.057 254.112C237.057 231.375 228.956 213.735 212.753 201.19ZM82.9953 299.978V235.687H129.645C140.243 235.687 149.653 237.916 156.484 243.732C163.557 249.754 166.495 258.424 166.495 268.225C166.495 277.846 163.504 286.345 156.389 292.209C149.565 297.835 140.195 299.978 129.645 299.978H82.9953ZM135.525 396.806C154.865 396.806 164.535 388.704 164.535 372.501C164.535 364.138 161.921 357.735 156.694 353.292C151.729 348.849 144.542 346.628 135.133 346.628H90.8356V396.806H135.525ZM82.9953 338.788H135.133C145.642 338.788 154.955 341.258 161.847 347.383C169.154 353.635 172.375 362.424 172.375 372.501C172.375 382.211 169.411 390.796 162.317 396.739C155.489 402.46 146.099 404.646 135.525 404.646H82.9953V338.788ZM345.998 407.782V190.214H284.844V450.904H431.85V407.782H345.998ZM546.401 413.663H644.405L659.301 458.744H740.449L640.093 182.373H551.497L450.749 458.744H531.504L546.401 413.663ZM525.838 450.904L540.734 405.822H650.071L664.968 450.904H729.26L634.598 190.214H556.984L461.952 450.904H525.838ZM353.838 399.942V182.373H277.003V458.744H439.69V399.942H353.838ZM636.074 362.701H555.169L595.354 240.539L636.074 362.701ZM821.55 197.662C800.643 209.422 784.439 226.018 772.94 247.448C761.702 268.617 756.083 292.791 756.083 319.971C756.083 347.412 761.702 371.848 772.94 393.278C784.439 414.447 800.643 431.042 821.55 443.064C842.458 454.824 866.501 460.704 893.681 460.704C928.178 460.704 957.188 451.557 980.708 433.263C1002.25 416.269 1016.78 393.793 1024.29 365.837C1024.98 363.269 1025.61 360.656 1026.18 357.996H943.467C938.501 368.45 931.576 376.421 922.69 381.909C914.066 387.397 904.004 390.142 892.505 390.142C874.733 390.142 860.49 383.869 849.775 371.325C839.321 358.519 834.095 341.401 834.095 319.971C834.095 298.802 839.321 281.945 849.775 269.401C860.49 256.595 874.733 250.192 892.505 250.192C904.004 250.192 914.066 252.936 922.69 258.424C931.576 263.913 938.501 271.884 943.467 282.337H1026.18C1025.61 279.677 1024.98 277.063 1024.29 274.497C1016.78 246.562 1002.25 224.217 980.708 207.462C957.188 188.907 928.178 179.629 893.681 179.629C866.501 179.629 842.458 185.64 821.55 197.662ZM1016.15 274.497C1008.91 249.038 995.462 228.87 975.895 213.651L975.874 213.634L975.852 213.618C953.92 196.315 926.696 187.469 893.681 187.469C867.695 187.469 845.032 193.204 825.458 204.459L825.426 204.477L825.394 204.495C805.806 215.513 790.659 231.012 779.854 251.145C769.301 271.032 763.924 293.908 763.924 319.971C763.924 346.293 769.301 369.434 779.857 389.586C790.656 409.444 805.807 424.96 825.427 436.249C845.005 447.253 867.68 452.864 893.681 452.864C926.713 452.864 953.946 444.139 975.877 427.089C995.461 411.63 1008.91 391.32 1016.16 365.837H948.239C942.898 375.38 935.784 383.026 926.854 388.553C916.829 394.919 905.284 397.982 892.505 397.982C872.641 397.982 856.144 390.853 843.814 376.417L843.757 376.351L843.702 376.283C831.804 361.708 826.254 342.665 826.254 319.971C826.254 297.52 831.813 278.708 843.752 264.382L843.762 264.369C856.073 249.656 872.583 242.352 892.505 242.352C905.284 242.352 916.83 245.415 926.854 251.781C935.785 257.307 942.898 264.954 948.239 274.497H1016.15ZM1139.4 182.373H1062.57V458.744H1139.4V337.612L1226.04 458.744H1318.94L1212.32 316.443L1313.85 182.373H1225.25L1139.4 301.546V182.373ZM1229.27 190.214L1136.11 319.53L1230.07 450.904H1303.27L1202.5 316.418L1298.08 190.214H1229.27ZM1131.56 190.214H1070.41V450.904H1131.56V190.214ZM90.8356 243.528H129.645C148.985 243.528 158.654 251.76 158.654 268.225C158.654 284.167 148.985 292.138 129.645 292.138H90.8356V243.528ZM595.403 265.481L566.002 354.86H625.196L595.403 265.481Z" fill="white"/>
<path d="M1654.95 175.413V222.133H1534.8V296.14H1626.88V342.033H1534.8V464H1477V175.413H1654.95Z" fill="white"/>
<path d="M1844.58 464L1780.99 351.542H1753.74V464H1695.94V175.413H1804.11C1826.41 175.413 1845.4 179.41 1861.09 187.403C1876.78 195.121 1888.48 205.733 1896.19 219.239C1904.17 232.469 1908.16 247.353 1908.16 263.891C1908.16 282.91 1902.65 300.137 1891.64 315.572C1880.63 330.732 1864.26 341.206 1842.51 346.994L1911.46 464H1844.58ZM1753.74 308.13H1802.05C1817.74 308.13 1829.44 304.409 1837.14 296.967C1844.85 289.249 1848.7 278.638 1848.7 265.132C1848.7 251.901 1844.85 241.703 1837.14 234.536C1829.44 227.094 1817.74 223.373 1802.05 223.373H1753.74V308.13Z" fill="white"/>
<path d="M2018.24 175.413V464H1960.44V175.413H2018.24Z" fill="white"/>
<path d="M2176.1 175.413C2206.37 175.413 2232.94 181.34 2255.78 193.192C2278.9 205.044 2296.66 221.995 2309.04 244.046C2321.7 265.821 2328.04 291.179 2328.04 320.12C2328.04 349.062 2321.7 374.42 2309.04 396.195C2296.66 417.694 2278.9 434.37 2255.78 446.222C2232.94 458.074 2206.37 464 2176.1 464H2075.35V175.413H2176.1ZM2174.03 414.8C2204.31 414.8 2227.71 406.531 2244.22 389.993C2260.74 373.455 2268.99 350.164 2268.99 320.12C2268.99 290.076 2260.74 266.648 2244.22 249.834C2227.71 232.745 2204.31 224.2 2174.03 224.2H2133.16V414.8H2174.03Z" fill="white"/>
<path d="M2548.02 409.011H2433.24L2414.24 464H2353.55L2457.18 175H2524.48L2628.12 464H2567.01L2548.02 409.011ZM2532.33 362.705L2490.63 241.979L2448.93 362.705H2532.33Z" fill="white"/>
<path d="M2896 175.413L2798.56 363.532V464H2740.76V363.532L2642.9 175.413H2708.14L2770.07 307.303L2831.59 175.413H2896Z" fill="white"/>
<defs>
<linearGradient id="paint0_linear_33_133" x1="1453.71" y1="5.53402" x2="1453.71" y2="301.466" gradientUnits="userSpaceOnUse">
<stop stop-color="#0995C6"/>
<stop offset="0.276042" stop-color="#0995C6" stop-opacity="0"/>
</linearGradient>
<linearGradient id="paint1_linear_33_133" x1="1453.74" y1="636.569" x2="1453.74" y2="374.776" gradientUnits="userSpaceOnUse">
<stop stop-color="#0995C6"/>
<stop offset="0.276042" stop-color="#0995C6" stop-opacity="0"/>
</linearGradient>
<linearGradient id="paint2_linear_33_133" x1="1453.71" y1="89.534" x2="1453.71" y2="385.466" gradientUnits="userSpaceOnUse">
<stop stop-color="#0995C6"/>
<stop offset="0.276042" stop-color="#0995C6" stop-opacity="0"/>
</linearGradient>
<linearGradient id="paint3_linear_33_133" x1="1453.74" y1="549.569" x2="1453.74" y2="287.776" gradientUnits="userSpaceOnUse">
<stop stop-color="#0995C6"/>
<stop offset="0.276042" stop-color="#0995C6" stop-opacity="0"/>
</linearGradient>
</defs>
</svg>
