<svg width="145" height="23" viewBox="0 0 145 23" fill="none" xmlns="http://www.w3.org/2000/svg">
<path d="M12.7617 0L16.3216 7.71781L24.7617 8.71852L18.5217 14.4891L20.1781 22.8254L12.7617 18.674L5.3453 22.8254L7.00171 14.4891L0.761719 8.71852L9.20186 7.71781L12.7617 0Z" fill="#FBBC05"/>
<path d="M72.7617 0L76.3216 7.71781L84.7617 8.71852L78.5217 14.4891L80.1781 22.8254L72.7617 18.674L65.3453 22.8254L67.0017 14.4891L60.7617 8.71852L69.2019 7.71781L72.7617 0Z" fill="#FBBC05"/>
<path d="M42.7617 0L46.3216 7.71781L54.7617 8.71852L48.5217 14.4891L50.1781 22.8254L42.7617 18.674L35.3453 22.8254L37.0017 14.4891L30.7617 8.71852L39.2019 7.71781L42.7617 0Z" fill="#FBBC05"/>
<path d="M102.762 0L106.322 7.71781L114.762 8.71852L108.522 14.4891L110.178 22.8254L102.762 18.674L95.3453 22.8254L97.0017 14.4891L90.7617 8.71852L99.2019 7.71781L102.762 0Z" fill="#FBBC05"/>
<path d="M132.762 0L136.322 7.71781L144.762 8.71852L138.522 14.4891L140.178 22.8254L132.762 18.674L125.345 22.8254L127.002 14.4891L120.762 8.71852L129.202 7.71781L132.762 0Z" fill="#FBBC05"/>
</svg>
