<svg width="270" height="89" viewBox="0 0 270 89" fill="none" xmlns="http://www.w3.org/2000/svg">
<path d="M115.39 46.71C115.39 59.48 105.4 68.89 93.14 68.89C80.88 68.89 70.89 59.48 70.89 46.71C70.89 33.85 80.88 24.53 93.14 24.53C105.4 24.53 115.39 33.85 115.39 46.71ZM105.65 46.71C105.65 38.73 99.86 33.27 93.14 33.27C86.42 33.27 80.63 38.73 80.63 46.71C80.63 54.61 86.42 60.15 93.14 60.15C99.86 60.15 105.65 54.6 105.65 46.71Z" fill="#EA4335"/>
<path d="M163.39 46.71C163.39 59.48 153.4 68.89 141.14 68.89C128.88 68.89 118.89 59.48 118.89 46.71C118.89 33.86 128.88 24.53 141.14 24.53C153.4 24.53 163.39 33.85 163.39 46.71ZM153.65 46.71C153.65 38.73 147.86 33.27 141.14 33.27C134.42 33.27 128.63 38.73 128.63 46.71C128.63 54.61 134.42 60.15 141.14 60.15C147.86 60.15 153.65 54.6 153.65 46.71Z" fill="#FBBC05"/>
<path d="M209.39 25.87V65.69C209.39 82.07 199.73 88.76 188.31 88.76C177.56 88.76 171.09 81.57 168.65 75.69L177.13 72.16C178.64 75.77 182.34 80.03 188.3 80.03C195.61 80.03 200.14 75.52 200.14 67.03V63.84H199.8C197.62 66.53 193.42 68.88 188.12 68.88C177.03 68.88 166.87 59.22 166.87 46.79C166.87 34.27 177.03 24.53 188.12 24.53C193.41 24.53 197.61 26.88 199.8 29.49H200.14V25.88H209.39V25.87ZM200.83 46.79C200.83 38.98 195.62 33.27 188.99 33.27C182.27 33.27 176.64 38.98 176.64 46.79C176.64 54.52 182.27 60.15 188.99 60.15C195.62 60.15 200.83 54.52 200.83 46.79Z" fill="#4285F4"/>
<path d="M224.64 2.53V67.53H215.14V2.53H224.64Z" fill="#34A853"/>
<path d="M261.66 54.01L269.22 59.05C266.78 62.66 260.9 68.88 250.74 68.88C238.14 68.88 228.73 59.14 228.73 46.7C228.73 33.51 238.22 24.52 249.65 24.52C261.16 24.52 266.79 33.68 268.63 38.63L269.64 41.15L239.99 53.43C242.26 57.88 245.79 60.15 250.74 60.15C255.7 60.15 259.14 57.71 261.66 54.01ZM238.39 46.03L258.21 37.8C257.12 35.03 253.84 33.1 249.98 33.1C245.03 33.1 238.14 37.47 238.39 46.03Z" fill="#EA4335"/>
<path d="M34.93 40.94V31.53H66.64C66.95 33.17 67.11 35.11 67.11 37.21C67.11 44.27 65.18 53 58.96 59.22C52.91 65.52 45.18 68.88 34.94 68.88C15.96 68.88 0 53.42 0 34.44C0 15.46 15.96 0 34.94 0C45.44 0 52.92 4.12 58.54 9.49L51.9 16.13C47.87 12.35 42.41 9.41 34.93 9.41C21.07 9.41 10.23 20.58 10.23 34.44C10.23 48.3 21.07 59.47 34.93 59.47C43.92 59.47 49.04 55.86 52.32 52.58C54.98 49.92 56.73 46.12 57.42 40.93L34.93 40.94Z" fill="#4285F4"/>
</svg>
