<svg xmlns="http://www.w3.org/2000/svg" width="1460" height="272" viewBox="0 0 1460 272" fill="none">
<path d="M1459.87 226.84C1459.87 240.893 1455.79 251.887 1447.63 259.82C1439.47 267.527 1428.7 271.38 1415.33 271.38C1404 271.38 1393.57 268.093 1384.05 261.52L1387.79 254.72C1395.5 259.707 1402.64 262.2 1409.21 262.2C1424.85 262.2 1432.67 253.587 1432.67 236.36C1432.67 229.333 1427.23 209.047 1416.35 175.5L1394.25 107.5C1387.68 87.3266 1384.39 68.4 1384.39 50.72C1384.39 35.9867 1388.24 23.9733 1395.95 14.68C1403.66 5.15999 1414.54 0.399994 1428.59 0.399994C1439.02 0.399994 1447.86 3.00666 1455.11 8.21999L1451.71 15.36C1445.14 11.28 1439.02 9.23998 1433.35 9.23998C1425.87 9.23998 1419.98 11.7333 1415.67 16.72C1411.36 21.48 1409.21 27.8267 1409.21 35.76C1409.21 45.5067 1414.76 66.8133 1425.87 99.68L1448.99 168.02C1456.24 189.327 1459.87 208.933 1459.87 226.84Z" fill="#FFE4A0"/>
<path d="M1373.27 269H1340.97L1331.45 210.86H1295.07L1285.55 269H1275.01L1320.23 0.399994H1328.05L1373.27 269ZM1330.09 202.7L1313.09 97.98L1296.43 202.7H1330.09Z" fill="#FFE4A0"/>
<path d="M1259.19 269H1227.91V120.42L1199.01 231.94H1191.19L1161.27 118.38V269H1151.75V2.77998H1162.63L1206.83 168.7L1248.31 2.77998H1259.19V269Z" fill="#FFE4A0"/>
<path d="M1136.01 10.6H1106.77V269H1075.49V10.6H1045.91V2.77998H1136.01V10.6Z" fill="#FFE4A0"/>
<path d="M1036.53 226.84C1036.53 240.893 1032.45 251.887 1024.29 259.82C1016.13 267.527 1005.36 271.38 991.989 271.38C980.656 271.38 970.229 268.093 960.709 261.52L964.449 254.72C972.156 259.707 979.296 262.2 985.869 262.2C1001.51 262.2 1009.33 253.587 1009.33 236.36C1009.33 229.333 1003.89 209.047 993.009 175.5L970.909 107.5C964.336 87.3266 961.049 68.4 961.049 50.72C961.049 35.9867 964.902 23.9733 972.609 14.68C980.316 5.15999 991.196 0.399994 1005.25 0.399994C1015.68 0.399994 1024.52 3.00666 1031.77 8.21999L1028.37 15.36C1021.8 11.28 1015.68 9.23998 1010.01 9.23998C1002.53 9.23998 996.636 11.7333 992.329 16.72C988.022 21.48 985.869 27.8267 985.869 35.76C985.869 45.5067 991.422 66.8133 1002.53 99.68L1025.65 168.02C1032.9 189.327 1036.53 208.933 1036.53 226.84Z" fill="#FFE4A0"/>
<path d="M939.315 269H908.035V2.77998H939.315V269Z" fill="#FFE4A0"/>
<path d="M885.332 269H854.052C851.559 263.56 850.312 256.647 850.312 248.26V172.78C850.312 149.887 844.532 138.44 832.972 138.44H822.772V269H791.492V2.77998H833.312C848.272 2.77998 860.286 7.65332 869.352 17.4C877.512 26.24 881.592 37.2333 881.592 50.38V91.86C881.592 102.74 878.079 112.373 871.052 120.76C864.026 129.147 855.072 134.133 844.192 135.72C854.846 136.627 863.685 141.273 870.712 149.66C877.965 157.82 881.592 167.34 881.592 178.22V249.28C881.592 256.987 882.839 263.56 885.332 269ZM850.312 110.22V30.32C850.312 16.04 844.532 8.89999 832.972 8.89999H822.772V132.32H832.972C844.532 132.32 850.312 124.953 850.312 110.22Z" fill="#FFE4A0"/>
<path d="M765.049 269H733.769V139.46H706.229V269H674.949V2.77998H706.229V131.3H733.769V2.77998H765.049V269Z" fill="#FFE4A0"/>
<path d="M658.685 262.2C651.205 268.32 642.932 271.38 633.865 271.38C620.492 271.38 609.385 266.847 600.545 257.78C591.932 248.713 587.625 236.813 587.625 222.08V49.7C587.625 34.5133 591.932 22.5 600.545 13.66C609.385 4.81999 620.492 0.399994 633.865 0.399994C642.932 0.399994 651.205 3.45999 658.685 9.57999L654.265 16.38C646.558 10.94 639.758 8.21999 633.865 8.21999C623.892 8.21999 618.905 15.2467 618.905 29.3V242.14C618.905 256.42 623.892 263.56 633.865 263.56C639.758 263.56 646.558 260.84 654.265 255.4L658.685 262.2Z" fill="#FFE4A0"/>
<path d="M531.052 2.77998L501.812 148.3V269H470.532V148.3L440.612 2.77998H474.272L497.052 127.22L521.532 2.77998H531.052Z" fill="#FFE4A0"/>
<path d="M428.789 269H397.509C395.016 263.56 393.769 256.647 393.769 248.26V172.78C393.769 149.887 387.989 138.44 376.429 138.44H366.229V269H334.949V2.77998H376.769C391.729 2.77998 403.743 7.65332 412.809 17.4C420.969 26.24 425.049 37.2333 425.049 50.38V91.86C425.049 102.74 421.536 112.373 414.509 120.76C407.483 129.147 398.529 134.133 387.649 135.72C398.303 136.627 407.143 141.273 414.169 149.66C421.423 157.82 425.049 167.34 425.049 178.22V249.28C425.049 256.987 426.296 263.56 428.789 269ZM393.769 110.22V30.32C393.769 16.04 387.989 8.89999 376.429 8.89999H366.229V132.32H376.429C387.989 132.32 393.769 124.953 393.769 110.22Z" fill="#FFE4A0"/>
<path d="M312.246 269H280.966C278.473 263.56 277.226 256.647 277.226 248.26V172.78C277.226 149.887 271.446 138.44 259.886 138.44H249.686V269H218.406V2.77998H260.226C275.186 2.77998 287.2 7.65332 296.266 17.4C304.426 26.24 308.506 37.2333 308.506 50.38V91.86C308.506 102.74 304.993 112.373 297.966 120.76C290.94 129.147 281.986 134.133 271.106 135.72C281.76 136.627 290.6 141.273 297.626 149.66C304.88 157.82 308.506 167.34 308.506 178.22V249.28C308.506 256.987 309.753 263.56 312.246 269ZM277.226 110.22V30.32C277.226 16.04 271.446 8.89999 259.886 8.89999H249.686V132.32H259.886C271.446 132.32 277.226 124.953 277.226 110.22Z" fill="#FFE4A0"/>
<path d="M205.122 269H134.402V2.77998H200.362V10.6H165.682V131.3H193.562V139.46H165.682V261.18H205.122V269Z" fill="#FFE4A0"/>
<path d="M108.034 269H76.7537V120.42L47.8537 231.94H40.0338L10.1137 118.38V269H0.59375V2.77998H11.4738L55.6737 168.7L97.1537 2.77998H108.034V269Z" fill="#FFE4A0"/>
</svg>