<svg xmlns="http://www.w3.org/2000/svg" width="531" height="471" viewBox="0 0 531 471" fill="none">
<path d="M530.459 0.779968L501.219 146.3V267H469.939V146.3L440.019 0.779968H473.679L496.459 125.22L520.939 0.779968H530.459Z" fill="#FFDC84"/>
<path d="M428.195 267H396.915C394.422 261.56 393.175 254.647 393.175 246.26V170.78C393.175 147.887 387.395 136.44 375.835 136.44H365.635V267H334.355V0.779968H376.175C391.135 0.779968 403.149 5.65331 412.215 15.4C420.375 24.24 424.455 35.2333 424.455 48.38V89.86C424.455 100.74 420.942 110.373 413.915 118.76C406.889 127.147 397.935 132.133 387.055 133.72C397.709 134.627 406.549 139.273 413.575 147.66C420.829 155.82 424.455 165.34 424.455 176.22V247.28C424.455 254.987 425.702 261.56 428.195 267ZM393.175 108.22V28.32C393.175 14.04 387.395 6.89997 375.835 6.89997H365.635V130.32H375.835C387.395 130.32 393.175 122.953 393.175 108.22Z" fill="#FFDC84"/>
<path d="M311.653 267H280.373C277.879 261.56 276.633 254.647 276.633 246.26V170.78C276.633 147.887 270.852 136.44 259.292 136.44H249.093V267H217.812V0.779968H259.632C274.592 0.779968 286.606 5.65331 295.673 15.4C303.833 24.24 307.913 35.2333 307.913 48.38V89.86C307.913 100.74 304.399 110.373 297.373 118.76C290.346 127.147 281.392 132.133 270.512 133.72C281.166 134.627 290.006 139.273 297.033 147.66C304.286 155.82 307.913 165.34 307.913 176.22V247.28C307.913 254.987 309.159 261.56 311.653 267ZM276.633 108.22V28.32C276.633 14.04 270.852 6.89997 259.292 6.89997H249.093V130.32H259.292C270.852 130.32 276.633 122.953 276.633 108.22Z" fill="#FFDC84"/>
<path d="M204.529 267H133.809V0.779968H199.769V8.59997H165.089V129.3H192.969V137.46H165.089V259.18H204.529V267Z" fill="#FFDC84"/>
<path d="M107.44 267H76.16V118.42L47.26 229.94H39.44L9.52 116.38V267H0V0.779968H10.88L55.08 166.7L96.56 0.779968H107.44V267Z" fill="#FFDC84"/>
<path d="M530 442.991C530 451.531 527.521 458.21 522.563 463.031C517.604 467.714 511.062 470.055 502.936 470.055C496.05 470.055 489.714 468.058 483.93 464.064L486.202 459.932C490.885 462.962 495.223 464.477 499.218 464.477C508.721 464.477 513.473 459.243 513.473 448.776C513.473 444.506 510.167 432.18 503.556 411.796L490.128 370.477C486.133 358.219 484.136 346.719 484.136 335.976C484.136 327.023 486.478 319.724 491.16 314.077C495.843 308.292 502.454 305.4 510.993 305.4C517.329 305.4 522.7 306.984 527.108 310.152L525.042 314.49C521.048 312.011 517.329 310.771 513.886 310.771C509.341 310.771 505.76 312.286 503.143 315.316C500.526 318.209 499.218 322.065 499.218 326.886C499.218 332.808 502.592 345.755 509.341 365.725L523.389 407.251C527.796 420.197 530 432.111 530 442.991Z" fill="#FFDC84"/>
<path d="M477.383 468.609H457.756L451.972 433.281H429.866L424.082 468.609H417.677L445.154 305.4H449.906L477.383 468.609ZM451.145 428.323L440.816 364.692L430.693 428.323H451.145Z" fill="#FFDC84"/>
<path d="M408.059 468.609H389.053V378.328L371.492 446.09H366.741L348.561 377.088V468.609H342.776V306.846H349.387L376.244 407.664L401.448 306.846H408.059V468.609Z" fill="#FFDC84"/>
<path d="M333.211 311.598H315.444V468.609H296.438V311.598H278.464V306.846H333.211V311.598Z" fill="#FFDC84"/>
<path d="M272.767 442.991C272.767 451.531 270.288 458.21 265.329 463.031C260.371 467.714 253.829 470.055 245.703 470.055C238.816 470.055 232.481 468.058 226.696 464.064L228.969 459.932C233.652 462.962 237.99 464.477 241.984 464.477C251.488 464.477 256.239 459.243 256.239 448.776C256.239 444.506 252.934 432.18 246.323 411.796L232.894 370.477C228.9 358.219 226.903 346.719 226.903 335.976C226.903 327.023 229.244 319.724 233.927 314.077C238.61 308.292 245.221 305.4 253.76 305.4C260.096 305.4 265.467 306.984 269.874 310.152L267.808 314.49C263.814 312.011 260.096 310.771 256.652 310.771C252.107 310.771 248.526 312.286 245.909 315.316C243.293 318.209 241.984 322.065 241.984 326.886C241.984 332.808 245.359 345.755 252.107 365.725L266.156 407.251C270.563 420.197 272.767 432.111 272.767 442.991Z" fill="#FFDC84"/>
<path d="M213.697 468.609H194.69V306.846H213.697V468.609Z" fill="#FFDC84"/>
<path d="M180.895 468.609H161.889C160.374 465.303 159.616 461.103 159.616 456.007V410.143C159.616 396.232 156.104 389.277 149.08 389.277H142.882V468.609H123.875V306.846H149.286C158.377 306.846 165.676 309.807 171.185 315.73C176.144 321.101 178.623 327.781 178.623 335.769V360.974C178.623 367.585 176.488 373.438 172.218 378.534C167.949 383.63 162.508 386.66 155.897 387.624C162.371 388.175 167.742 390.999 172.012 396.095C176.419 401.053 178.623 406.837 178.623 413.448V456.627C178.623 461.309 179.38 465.303 180.895 468.609ZM159.616 372.13V323.58C159.616 314.903 156.104 310.565 149.08 310.565H142.882V385.558H149.08C156.104 385.558 159.616 381.082 159.616 372.13Z" fill="#FFDC84"/>
<path d="M107.808 468.609H88.8012V389.897H72.0672V468.609H53.0605V306.846H72.0672V384.939H88.8012V306.846H107.808V468.609Z" fill="#FFDC84"/>
<path d="M43.1781 464.477C38.633 468.196 33.6059 470.055 28.0967 470.055C19.9707 470.055 13.222 467.301 7.85056 461.791C2.61685 456.282 0 449.051 0 440.099V335.356C0 326.128 2.61685 318.829 7.85056 313.457C13.222 308.086 19.9707 305.4 28.0967 305.4C33.6059 305.4 38.633 307.259 43.1781 310.978L40.4923 315.11C35.8096 311.804 31.6777 310.152 28.0967 310.152C22.0367 310.152 19.0066 314.421 19.0066 322.96V452.288C19.0066 460.965 22.0367 465.303 28.0967 465.303C31.6777 465.303 35.8096 463.651 40.4923 460.345L43.1781 464.477Z" fill="#FFDC84"/>
</svg>