<svg width="356" height="174" viewBox="0 0 356 174" fill="none" xmlns="http://www.w3.org/2000/svg">
<path d="M89 29H356L311.5 87L356 145H89V29Z" fill="#00734B"/>
<path d="M87 0L99.2488 9.664L113.884 4.25808L122.547 17.2342L138.137 16.6155L142.366 31.6335L157.384 35.8627L156.766 51.4525L169.742 60.1155L164.336 74.7512L174 87L164.336 99.2488L169.742 113.884L156.766 122.547L157.384 138.137L142.366 142.366L138.137 157.384L122.547 156.766L113.884 169.742L99.2488 164.336L87 174L74.7512 164.336L60.1155 169.742L51.4525 156.766L35.8627 157.384L31.6335 142.366L16.6155 138.137L17.2342 122.547L4.25808 113.884L9.664 99.2488L0 87L9.664 74.7512L4.25808 60.1155L17.2342 51.4525L16.6155 35.8627L31.6335 31.6335L35.8627 16.6155L51.4525 17.2342L60.1155 4.25808L74.7512 9.664L87 0Z" fill="#E51621"/>
<path d="M35.4353 69.144V62.592C42.5753 62.592 44.1713 59.148 45.5993 55.2H51.8153V114H42.5753V69.144H35.4353ZM71.512 68.724V100.476C71.512 104.676 73.36 106.272 76.3 106.272C79.24 106.272 81.088 104.676 81.088 100.476V68.724C81.088 64.524 79.24 62.928 76.3 62.928C73.36 62.928 71.512 64.524 71.512 68.724ZM62.272 99.888V69.312C62.272 59.904 67.228 54.528 76.3 54.528C85.372 54.528 90.328 59.904 90.328 69.312V99.888C90.328 109.296 85.372 114.672 76.3 114.672C67.228 114.672 62.272 109.296 62.272 99.888ZM101.709 63.768V83.928C101.709 86.532 102.801 87.624 104.733 87.624C106.581 87.624 107.757 86.532 107.757 83.928V63.768C107.757 61.164 106.581 60.072 104.733 60.072C102.801 60.072 101.709 61.164 101.709 63.768ZM95.8287 83.508V64.188C95.8287 58.14 98.9367 54.78 104.733 54.78C110.529 54.78 113.637 58.14 113.637 64.188V83.508C113.637 89.556 110.529 92.916 104.733 92.916C98.9367 92.916 95.8287 89.556 95.8287 83.508ZM104.733 114L127.917 55.2H133.377L110.193 114H104.733ZM130.857 85.272V105.432C130.857 108.036 131.949 109.128 133.881 109.128C135.729 109.128 136.905 108.036 136.905 105.432V85.272C136.905 82.668 135.729 81.576 133.881 81.576C131.949 81.576 130.857 82.668 130.857 85.272ZM124.977 105.012V85.692C124.977 79.644 128.085 76.284 133.881 76.284C139.677 76.284 142.785 79.644 142.785 85.692V105.012C142.785 111.06 139.677 114.42 133.881 114.42C128.085 114.42 124.977 111.06 124.977 105.012Z" fill="white"/>
<circle cx="87" cy="87" r="72" stroke="white" stroke-width="2" stroke-dasharray="12 12"/>
<path d="M182.974 71.696C182.974 63.632 186.934 59.024 194.638 59.024C202.342 59.024 206.302 63.632 206.302 71.696V73.28H198.814V71.192C198.814 67.592 197.374 66.224 194.854 66.224C192.334 66.224 190.894 67.592 190.894 71.192C190.894 81.56 206.374 83.504 206.374 97.904C206.374 105.968 202.342 110.576 194.566 110.576C186.79 110.576 182.758 105.968 182.758 97.904V94.808H190.246V98.408C190.246 102.008 191.83 103.304 194.35 103.304C196.87 103.304 198.454 102.008 198.454 98.408C198.454 88.04 182.974 86.096 182.974 71.696ZM231.36 59.6L239.424 110H231.432L230.064 100.856H220.344L218.976 110H211.704L219.768 59.6H231.36ZM225.168 68.528L221.352 94.016H228.984L225.168 68.528ZM245.992 110V59.6H253.912V102.8H266.944V110H245.992ZM281.19 66.8V80.84H292.062V88.04H281.19V102.8H294.87V110H273.27V59.6H294.87V66.8H281.19Z" fill="white"/>
</svg>
