<svg width="356" height="174" viewBox="0 0 356 174" fill="none" xmlns="http://www.w3.org/2000/svg">
<path d="M89 29H356L311.5 87L356 145H89V29Z" fill="#00734B"/>
<path d="M87 0L99.2488 9.664L113.884 4.25808L122.547 17.2342L138.137 16.6155L142.366 31.6335L157.384 35.8627L156.766 51.4525L169.742 60.1155L164.336 74.7512L174 87L164.336 99.2488L169.742 113.884L156.766 122.547L157.384 138.137L142.366 142.366L138.137 157.384L122.547 156.766L113.884 169.742L99.2488 164.336L87 174L74.7512 164.336L60.1155 169.742L51.4525 156.766L35.8627 157.384L31.6335 142.366L16.6155 138.137L17.2342 122.547L4.25808 113.884L9.664 99.2488L0 87L9.664 74.7512L4.25808 60.1155L17.2342 51.4525L16.6155 35.8627L31.6335 31.6335L35.8627 16.6155L51.4525 17.2342L60.1155 4.25808L74.7512 9.664L87 0Z" fill="#E51621"/>
<path d="M60.4433 99.888C60.4433 109.296 55.3193 114.672 45.9953 114.672C36.6713 114.672 31.5473 109.296 31.5473 99.888V95.268C31.5473 89.64 33.2273 85.272 37.2593 83.004C33.3953 80.904 31.5473 76.956 31.5473 71.16V69.312C31.5473 59.904 36.6713 54.528 45.9953 54.528C55.3193 54.528 60.4433 59.904 60.4433 69.312V71.16C60.4433 76.956 58.5113 80.904 54.7313 83.004C58.7633 85.272 60.4433 89.64 60.4433 95.268V99.888ZM40.7873 99.636C40.7873 104.844 43.0553 106.272 45.9953 106.272C48.9353 106.272 51.1193 104.844 51.2033 99.636V94.176C51.2033 89.556 49.2713 87.54 45.9953 87.54C42.7193 87.54 40.7873 89.556 40.7873 94.176V99.636ZM40.7873 69.648V72.924C40.7873 77.628 42.9713 79.14 45.9953 79.14C48.9353 79.14 51.2033 77.628 51.2033 72.924V69.648C51.2033 64.356 48.9353 62.928 45.9953 62.928C43.0553 62.928 40.7873 64.356 40.7873 69.648ZM74.512 68.724V100.476C74.512 104.676 76.36 106.272 79.3 106.272C82.24 106.272 84.088 104.676 84.088 100.476V68.724C84.088 64.524 82.24 62.928 79.3 62.928C76.36 62.928 74.512 64.524 74.512 68.724ZM65.272 99.888V69.312C65.272 59.904 70.228 54.528 79.3 54.528C88.372 54.528 93.328 59.904 93.328 69.312V99.888C93.328 109.296 88.372 114.672 79.3 114.672C70.228 114.672 65.272 109.296 65.272 99.888ZM104.709 63.768V83.928C104.709 86.532 105.801 87.624 107.733 87.624C109.581 87.624 110.757 86.532 110.757 83.928V63.768C110.757 61.164 109.581 60.072 107.733 60.072C105.801 60.072 104.709 61.164 104.709 63.768ZM98.8287 83.508V64.188C98.8287 58.14 101.937 54.78 107.733 54.78C113.529 54.78 116.637 58.14 116.637 64.188V83.508C116.637 89.556 113.529 92.916 107.733 92.916C101.937 92.916 98.8287 89.556 98.8287 83.508ZM107.733 114L130.917 55.2H136.377L113.193 114H107.733ZM133.857 85.272V105.432C133.857 108.036 134.949 109.128 136.881 109.128C138.729 109.128 139.905 108.036 139.905 105.432V85.272C139.905 82.668 138.729 81.576 136.881 81.576C134.949 81.576 133.857 82.668 133.857 85.272ZM127.977 105.012V85.692C127.977 79.644 131.085 76.284 136.881 76.284C142.677 76.284 145.785 79.644 145.785 85.692V105.012C145.785 111.06 142.677 114.42 136.881 114.42C131.085 114.42 127.977 111.06 127.977 105.012Z" fill="white"/>
<circle cx="87" cy="87" r="72" stroke="white" stroke-width="2" stroke-dasharray="12 12"/>
<path d="M182.974 71.696C182.974 63.632 186.934 59.024 194.638 59.024C202.342 59.024 206.302 63.632 206.302 71.696V73.28H198.814V71.192C198.814 67.592 197.374 66.224 194.854 66.224C192.334 66.224 190.894 67.592 190.894 71.192C190.894 81.56 206.374 83.504 206.374 97.904C206.374 105.968 202.342 110.576 194.566 110.576C186.79 110.576 182.758 105.968 182.758 97.904V94.808H190.246V98.408C190.246 102.008 191.83 103.304 194.35 103.304C196.87 103.304 198.454 102.008 198.454 98.408C198.454 88.04 182.974 86.096 182.974 71.696ZM231.36 59.6L239.424 110H231.432L230.064 100.856H220.344L218.976 110H211.704L219.768 59.6H231.36ZM225.168 68.528L221.352 94.016H228.984L225.168 68.528ZM245.992 110V59.6H253.912V102.8H266.944V110H245.992ZM281.19 66.8V80.84H292.062V88.04H281.19V102.8H294.87V110H273.27V59.6H294.87V66.8H281.19Z" fill="white"/>
</svg>
