<svg width="485" height="534" viewBox="0 0 485 534" fill="none" xmlns="http://www.w3.org/2000/svg">
<mask id="mask0_66_60" style="mask-type:alpha" maskUnits="userSpaceOnUse" x="1" y="21" width="484" height="489">
<rect x="1" y="21.696" width="484" height="487.315" fill="url(#paint0_radial_66_60)"/>
</mask>
<g mask="url(#mask0_66_60)">
<path d="M108.556 25.011V509.011" stroke="#0995C6" stroke-opacity="0.19"/>
<path d="M189.222 25.011V509.011" stroke="#0995C6" stroke-opacity="0.71"/>
<path d="M323.667 25.011V509.011" stroke="#0995C6" stroke-opacity="0.19"/>
<path d="M431.222 25.011V509.011" stroke="#0995C6" stroke-opacity="0.19"/>
<path d="M27.8889 25.011V509.011" stroke="#0995C6" stroke-opacity="0.19"/>
<path d="M135.444 25.011V509.011" stroke="#0995C6" stroke-opacity="0.19"/>
<path d="M243 25.011V509.011" stroke="#0995C6" stroke-opacity="0.19"/>
<path d="M350.556 25.011V509.011" stroke="#0995C6" stroke-opacity="0.19"/>
<path d="M458.111 25.011V509.011" stroke="#0995C6" stroke-opacity="0.19"/>
<path d="M54.7777 25.011V509.011" stroke="#0995C6" stroke-opacity="0.19"/>
<path d="M162.333 25.011V509.011" stroke="#0995C6" stroke-opacity="0.19"/>
<path d="M269.889 25.011V509.011" stroke="#0995C6" stroke-opacity="0.19"/>
<path d="M377.444 25.011V509.011" stroke="#0995C6" stroke-opacity="0.19"/>
<path d="M81.6666 25.011V509.011" stroke="#0995C6" stroke-opacity="0.71"/>
<path d="M216.111 25.011V509.011" stroke="#0995C6" stroke-opacity="0.19"/>
<path d="M296.778 25.011V509.011" stroke="#0995C6" stroke-opacity="0.71"/>
<path d="M404.333 25.011V509.011" stroke="#0995C6" stroke-opacity="0.71"/>
<path d="M485 132.567L0.999982 132.567" stroke="#0995C6" stroke-opacity="0.19"/>
<path d="M485 213.233L0.999982 213.233" stroke="#0995C6" stroke-opacity="0.71"/>
<path d="M485 347.678L0.999982 347.678" stroke="#0995C6" stroke-opacity="0.19"/>
<path d="M485 455.233L0.999982 455.233" stroke="#0995C6" stroke-opacity="0.19"/>
<path d="M485 51.9L0.999982 51.9" stroke="#0995C6" stroke-opacity="0.19"/>
<path d="M485 159.456L0.999982 159.456" stroke="#0995C6" stroke-opacity="0.19"/>
<path d="M485 267.011L0.999982 267.011" stroke="#0995C6" stroke-opacity="0.19"/>
<path d="M485 374.567L0.999982 374.567" stroke="#0995C6" stroke-opacity="0.19"/>
<path d="M485 482.122L0.999982 482.122" stroke="#0995C6" stroke-opacity="0.19"/>
<path d="M485 78.7888L0.999982 78.7888" stroke="#0995C6" stroke-opacity="0.19"/>
<path d="M485 186.344L0.999982 186.344" stroke="#0995C6" stroke-opacity="0.19"/>
<path d="M485 293.9L0.999982 293.9" stroke="#0995C6" stroke-opacity="0.19"/>
<path d="M485 401.456L0.999982 401.456" stroke="#0995C6" stroke-opacity="0.19"/>
<path d="M485 105.678L0.999982 105.678" stroke="#0995C6" stroke-opacity="0.71"/>
<path d="M485 240.122L0.999982 240.122" stroke="#0995C6" stroke-opacity="0.19"/>
<path d="M485 320.789L0.999982 320.789" stroke="#0995C6" stroke-opacity="0.71"/>
<path d="M485 428.344L0.999982 428.344" stroke="#0995C6" stroke-opacity="0.71"/>
</g>
<path d="M228.808 148.959C222.715 139.434 220.049 129.147 217.003 118.48C214.337 108.574 201.77 86.8576 193.011 75.0469C189.964 70.8561 185.394 67.4272 180.063 66.2842C166.734 63.2363 154.167 65.9032 141.6 71.237C119.131 81.5237 73.8127 114.289 89.4265 144.768C92.4731 150.483 117.227 188.201 121.035 203.821C127.509 228.586 122.939 255.636 123.32 281.924C123.32 294.116 124.843 306.307 128.652 317.737C130.175 322.309 138.172 339.072 141.98 357.36C142.361 359.265 142.742 361.17 143.885 363.075C151.501 378.695 165.211 389.744 173.589 405.365C174.35 407.269 175.493 409.174 177.016 410.317C182.348 414.889 197.2 409.555 200.627 395.459C202.912 385.934 200.627 368.409 196.438 360.789C189.583 347.835 177.397 345.168 174.731 323.071C173.97 315.07 179.682 309.355 185.014 304.021C186.918 301.735 189.203 299.45 191.488 297.926C198.723 293.735 207.863 296.021 216.241 296.021C226.904 296.021 236.806 291.449 247.088 289.925C258.513 288.02 270.699 289.163 282.124 287.639C293.929 286.115 306.116 280.781 311.067 270.494C315.256 261.732 315.636 249.54 311.447 240.777C307.258 232.014 299.261 227.062 292.406 219.823C275.269 201.535 258.513 183.248 241.376 164.96C237.187 159.627 232.617 154.674 228.808 148.959Z" fill="url(#paint1_linear_66_60)"/>
<path d="M395.398 305.143C390.436 302.095 382.42 296.761 377.457 293.713C371.35 289.904 357.99 278.855 353.409 273.522C349.21 268.569 349.21 270.474 342.721 264.759C331.651 255.235 323.253 256.759 308.747 236.186C298.823 225.899 268.667 251.425 290.806 268.95C292.333 270.474 344.248 309.715 352.264 312.381C360.28 315.429 364.861 319.62 372.113 324.192C380.511 329.525 385.855 329.906 394.635 330.287C400.743 330.287 409.522 328.001 410.667 321.906C412.576 312 400.743 308.572 395.398 305.143Z" fill="url(#paint2_linear_66_60)"/>
<path d="M277.694 299.844C279.599 303.266 282.649 305.547 286.079 306.687C311.997 315.431 305.899 307.447 320.764 322.654C334.866 337.1 345.92 337.86 352.78 345.464C359.26 352.307 364.596 357.249 371.838 361.431C379.08 365.992 385.941 370.935 391.658 377.017C398.519 383.86 404.236 388.802 413.002 391.083C418.72 392.604 425.199 389.943 427.486 384.62C431.679 375.116 421.769 367.893 417.195 363.331C413.002 359.15 409.572 353.447 405.379 349.265C400.424 344.323 394.326 340.522 388.99 335.96C377.936 326.075 376.412 318.092 370.695 310.869C360.785 297.563 342.108 293.001 331.436 280.076C324.956 272.092 327.243 271.332 313.141 256.505C311.997 255.365 310.473 253.844 308.948 253.084C302.85 250.423 287.985 254.985 281.124 270.571C276.931 279.695 272.739 290.72 277.694 299.844Z" fill="url(#paint3_linear_66_60)"/>
<path d="M301.044 280.787C304.11 288.762 305.643 297.117 307.176 305.472C308.709 314.966 310.625 324.081 312.924 333.575C317.523 352.943 323.655 371.932 329.403 391.3C332.086 399.655 331.703 408.769 333.619 417.124C335.535 426.239 338.601 435.353 342.816 444.088C345.116 449.025 347.798 453.962 347.798 459.278C347.798 472.57 328.637 469.912 323.655 467.254C309.092 458.899 305.643 435.353 302.961 429.277C297.212 414.466 293.38 411.807 292.23 395.857C291.464 387.882 288.398 379.907 284.182 372.691C281.5 368.134 242.411 313.447 240.878 310.789C239.345 308.13 221.716 293.699 248.159 273.192C254.291 268.255 291.081 252.684 301.044 280.787Z" fill="url(#paint4_linear_66_60)"/>
<path d="M164.66 308.982C161.223 321.213 163.896 316.244 172.682 317.773C177.648 318.538 182.232 319.302 186.434 319.684C196.747 321.213 206.679 325.036 215.083 331.151C228.452 340.707 240.294 351.792 249.462 358.672C259.775 366.699 268.943 370.521 276.965 377.401C302.94 410.655 315.163 417.153 337.701 428.62C353.362 436.647 366.35 425.562 366.35 416.771C366.35 403.775 335.027 383.135 322.039 363.641C312.871 349.881 317.455 348.734 282.313 321.596C271.235 313.187 261.303 303.249 253.281 291.399C242.968 276.492 242.968 269.994 230.362 265.79C215.465 260.821 198.275 264.261 184.906 273.052C174.592 280.697 168.098 296.751 164.66 308.982Z" fill="#9FDBF0"/>
<path fill-rule="evenodd" clip-rule="evenodd" d="M89.6245 151.784C88.1816 153.475 86.8363 155.144 85.5923 156.786C80.6805 163.269 77.4172 169.235 75.9086 174.358C74.4001 179.48 74.7259 183.439 76.4745 186.327C78.3517 189.427 82.0914 191.65 88.0008 192.585C93.8931 193.518 101.541 193.091 110.498 191.263C128.385 187.613 150.857 178.511 173.592 164.746L176.551 169.634C153.408 183.647 130.323 193.05 111.64 196.862C102.312 198.765 93.9223 199.308 87.1073 198.229C80.3093 197.153 74.6721 194.383 71.5864 189.286C68.7145 184.543 68.653 178.767 70.4271 172.744C72.2011 166.72 75.8903 160.129 81.0376 153.335C82.353 151.599 83.7682 149.843 85.2776 148.074L89.6245 151.784Z" fill="#171C29"/>
<path fill-rule="evenodd" clip-rule="evenodd" d="M171.092 169.202L145.332 159.241L147.393 153.911L178.483 165.933L167.148 195.247L161.818 193.186L171.092 169.202Z" fill="#171C29"/>
<path fill-rule="evenodd" clip-rule="evenodd" d="M227.238 94.7654C222.913 93.0566 217.205 92.1379 210.332 92.1083L210.356 86.3941C217.657 86.4255 224.133 87.3941 229.338 89.451C234.562 91.5154 238.68 94.7545 240.855 99.386C244.978 108.167 240.878 118.997 232.732 129.455C224.419 140.127 211.171 151.405 194.716 161.691L191.687 156.845C207.789 146.78 220.453 135.92 228.224 125.943C236.162 115.753 238.317 107.425 235.682 101.815C234.3 98.8717 231.543 96.4667 227.238 94.7654Z" fill="#171C29"/>
<defs>
<radialGradient id="paint0_radial_66_60" cx="0" cy="0" r="1" gradientUnits="userSpaceOnUse" gradientTransform="translate(243 265.354) rotate(90) scale(243.658 242)">
<stop offset="0.359375" stop-color="#D9D9D9"/>
<stop offset="1" stop-color="#D9D9D9" stop-opacity="0"/>
</radialGradient>
<linearGradient id="paint1_linear_66_60" x1="209.032" y1="314.194" x2="214.726" y2="395.586" gradientUnits="userSpaceOnUse">
<stop stop-color="#9FDBF0"/>
<stop offset="0.3316" stop-color="#9BDAF0"/>
<stop offset="0.7346" stop-color="#71CDEC"/>
<stop offset="1" stop-color="#39B3DD"/>
</linearGradient>
<linearGradient id="paint2_linear_66_60" x1="299.486" y1="258.161" x2="402.617" y2="312.968" gradientUnits="userSpaceOnUse">
<stop stop-color="#9FDBF0"/>
<stop offset="0.2644" stop-color="#72CBEA"/>
<stop offset="0.5701" stop-color="#5EC4E6"/>
<stop offset="0.8951" stop-color="#43BEE8"/>
<stop offset="1" stop-color="#3BC0ED"/>
</linearGradient>
<linearGradient id="paint3_linear_66_60" x1="284.506" y1="285.207" x2="497.826" y2="389.578" gradientUnits="userSpaceOnUse">
<stop stop-color="#9FDBF0"/>
<stop offset="0.2644" stop-color="#90D9F1"/>
<stop offset="0.5701" stop-color="#6BC8E8"/>
<stop offset="0.8951" stop-color="#46BBE2"/>
<stop offset="1" stop-color="#38B6E1"/>
</linearGradient>
<linearGradient id="paint4_linear_66_60" x1="290.597" y1="283.713" x2="290.972" y2="362.765" gradientUnits="userSpaceOnUse">
<stop stop-color="#9FDBF0"/>
<stop offset="0.2644" stop-color="#8BD4ED"/>
<stop offset="0.5701" stop-color="#70CAE9"/>
<stop offset="0.8951" stop-color="#45BAE2"/>
<stop offset="1" stop-color="#28B2E1"/>
</linearGradient>
</defs>
</svg>
