<svg width="399" height="247" viewBox="0 0 399 247" fill="none" xmlns="http://www.w3.org/2000/svg">
<mask id="mask0_2341_206" style="mask-type:alpha" maskUnits="userSpaceOnUse" x="0" y="0" width="399" height="247">
<rect width="399" height="247" fill="#3840FF"/>
</mask>
<g mask="url(#mask0_2341_206)">
<ellipse opacity="0.4" cx="199" cy="144.5" rx="200" ry="108.5" fill="url(#paint0_radial_2341_206)"/>
<path d="M79.082 200.52C70.542 200.52 62.842 199.68 55.982 198C49.122 196.18 43.242 193.52 38.342 190.02C33.582 186.52 29.872 182.18 27.212 177C24.692 171.68 23.432 165.59 23.432 158.73C23.432 152.71 24.482 147.53 26.582 143.19C28.822 138.85 31.692 135.21 35.192 132.27C38.692 129.33 42.682 127.09 47.162 125.55C51.782 123.87 56.402 122.82 61.022 122.4V120.72C57.382 120.3 53.532 119.32 49.472 117.78C45.552 116.24 41.912 114.07 38.552 111.27C35.192 108.47 32.392 105.04 30.152 100.98C28.052 96.92 27.002 92.02 27.002 86.28C27.002 73.96 31.692 64.65 41.072 58.35C50.452 52.05 63.122 48.9 79.082 48.9C95.042 48.9 107.712 52.05 117.092 58.35C126.472 64.65 131.162 73.96 131.162 86.28C131.162 92.02 130.042 96.92 127.802 100.98C125.702 105.04 122.972 108.47 119.612 111.27C116.252 114.07 112.542 116.24 108.482 117.78C104.562 119.32 100.782 120.3 97.142 120.72V122.4C101.762 122.82 106.312 123.87 110.792 125.55C115.412 127.09 119.472 129.33 122.972 132.27C126.472 135.21 129.272 138.85 131.372 143.19C133.612 147.53 134.732 152.71 134.732 158.73C134.732 165.59 133.402 171.68 130.742 177C128.222 182.18 124.512 186.52 119.612 190.02C114.852 193.52 109.042 196.18 102.182 198C95.322 199.68 87.622 200.52 79.082 200.52ZM79.082 186.03C83.282 186.03 86.712 185.47 89.372 184.35C92.032 183.09 94.062 181.34 95.462 179.1C97.002 176.72 97.982 173.92 98.402 170.7C98.962 167.34 99.242 163.56 99.242 159.36V154.95C99.242 150.75 98.962 147.04 98.402 143.82C97.982 140.46 97.002 137.66 95.462 135.42C94.062 133.04 92.032 131.29 89.372 130.17C86.712 128.91 83.282 128.28 79.082 128.28C74.882 128.28 71.452 128.91 68.792 130.17C66.132 131.29 64.032 133.04 62.492 135.42C61.092 137.66 60.112 140.46 59.552 143.82C59.132 147.04 58.922 150.75 58.922 154.95V159.36C58.922 163.56 59.132 167.34 59.552 170.7C60.112 173.92 61.092 176.72 62.492 179.1C64.032 181.34 66.132 183.09 68.792 184.35C71.452 185.47 74.882 186.03 79.082 186.03ZM79.082 114.63C83.002 114.63 86.082 114.07 88.322 112.95C90.562 111.83 92.242 110.22 93.362 108.12C94.622 106.02 95.392 103.5 95.672 100.56C95.952 97.62 96.092 94.4 96.092 90.9V87.12C96.092 83.62 95.952 80.4 95.672 77.46C95.392 74.52 94.622 72 93.362 69.9C92.242 67.8 90.562 66.19 88.322 65.07C86.082 63.95 83.002 63.39 79.082 63.39C75.162 63.39 72.082 63.95 69.842 65.07C67.602 66.19 65.852 67.8 64.592 69.9C63.472 72 62.772 74.52 62.492 77.46C62.212 80.4 62.072 83.62 62.072 87.12V90.9C62.072 94.4 62.212 97.62 62.492 100.56C62.772 103.5 63.472 106.02 64.592 108.12C65.852 110.22 67.602 111.83 69.842 112.95C72.082 114.07 75.162 114.63 79.082 114.63ZM205 185.4C209.62 185.4 213.26 184.42 215.92 182.46C218.58 180.5 220.54 177.63 221.8 173.85C223.06 169.93 223.83 165.17 224.11 159.57C224.53 153.97 224.74 147.46 224.74 140.04V109.38C224.74 102.1 224.53 95.66 224.11 90.06C223.83 84.32 223.06 79.56 221.8 75.78C220.54 71.86 218.58 68.92 215.92 66.96C213.26 65 209.62 64.02 205 64.02C200.38 64.02 196.74 65 194.08 66.96C191.42 68.92 189.46 71.86 188.2 75.78C186.94 79.56 186.1 84.32 185.68 90.06C185.4 95.66 185.26 102.1 185.26 109.38V140.04C185.26 147.46 185.4 153.97 185.68 159.57C186.1 165.17 186.94 169.93 188.2 173.85C189.46 177.63 191.42 180.5 194.08 182.46C196.74 184.42 200.38 185.4 205 185.4ZM205 200.52C186.24 200.52 172.24 194.01 163 180.99C153.76 167.83 149.14 149.07 149.14 124.71C149.14 100.35 153.76 81.66 163 68.64C172.24 55.48 186.24 48.9 205 48.9C223.76 48.9 237.76 55.48 247 68.64C256.24 81.66 260.86 100.35 260.86 124.71C260.86 149.07 256.24 167.83 247 180.99C237.76 194.01 223.76 200.52 205 200.52Z" fill="#C93C66"/>
<path d="M373.137 0.379561C361.306 2.19967 353.571 13.1203 354.481 24.496C351.751 13.1203 340.83 5.38485 329.454 7.65998C317.624 9.48009 309.433 20.8558 311.253 33.1415C317.169 69.0886 364.946 86.3796 364.946 86.3796C364.946 86.3796 404.534 54.9827 398.618 18.5806C396.343 6.2949 384.967 -1.89557 373.137 0.379561Z" fill="url(#paint1_linear_2341_206)"/>
<path d="M300.46 94.3795C302.526 94.3795 304.156 93.6251 305.348 92.1163C306.54 90.5282 307.136 87.9077 307.136 84.2548V70.9141C307.136 67.2613 306.54 64.6805 305.348 63.1717C304.156 61.5836 302.526 60.7895 300.46 60.7895C298.393 60.7895 296.764 61.5836 295.572 63.1717C294.38 64.6805 293.783 67.2613 293.783 70.9141V84.2548C293.783 87.9077 294.38 90.5282 295.572 92.1163C296.764 93.6251 298.393 94.3795 300.46 94.3795ZM355.54 133.211C357.607 133.211 359.236 132.456 360.428 130.947C361.62 129.359 362.217 126.739 362.217 123.086V109.745C362.217 106.092 361.62 103.512 360.428 102.003C359.236 100.415 357.607 99.6205 355.54 99.6205C353.474 99.6205 351.844 100.415 350.652 102.003C349.46 103.512 348.864 106.092 348.864 109.745V123.086C348.864 126.739 349.46 129.359 350.652 130.947C351.844 132.456 353.474 133.211 355.54 133.211ZM300.46 101.169C293.704 101.169 288.418 99.1837 284.603 95.2133C280.868 91.2428 279 85.3666 279 77.5845C279 69.8024 280.868 63.9261 284.603 59.9557C288.418 55.9852 293.704 54 300.46 54C307.216 54 312.461 55.9852 316.197 59.9557C320.012 63.9261 321.92 69.8024 321.92 77.5845C321.92 85.3666 320.012 91.2428 316.197 95.2133C312.461 99.1837 307.216 101.169 300.46 101.169ZM355.54 140C348.784 140 343.499 138.015 339.684 134.044C335.948 130.074 334.08 124.198 334.08 116.416C334.08 108.633 335.948 102.757 339.684 98.7867C343.499 94.8162 348.784 92.831 355.54 92.831C362.296 92.831 367.542 94.8162 371.277 98.7867C375.092 102.757 377 108.633 377 116.416C377 124.198 375.092 130.074 371.277 134.044C367.542 138.015 362.296 140 355.54 140ZM351.487 55.4294H361.024L304.513 138.571H294.976L351.487 55.4294Z" fill="#171C29"/>
<path d="M295.531 194.208C296.573 194.208 297.547 194.037 298.454 193.695C299.362 193.354 300.151 192.824 300.823 192.107C301.529 191.389 302.083 190.467 302.486 189.339C302.89 188.212 303.091 186.862 303.091 185.291V173.709C303.091 172.138 302.89 170.788 302.486 169.661C302.083 168.533 301.529 167.611 300.823 166.893C300.151 166.176 299.362 165.646 298.454 165.305C297.547 164.963 296.573 164.792 295.531 164.792C294.49 164.792 293.515 164.963 292.608 165.305C291.701 165.646 290.894 166.176 290.189 166.893C289.517 167.611 288.979 168.533 288.576 169.661C288.173 170.788 287.971 172.138 287.971 173.709V185.291C287.971 186.862 288.173 188.212 288.576 189.339C288.979 190.467 289.517 191.389 290.189 192.107C290.894 192.824 291.701 193.354 292.608 193.695C293.515 194.037 294.49 194.208 295.531 194.208ZM295.531 198C293.179 198 290.995 197.59 288.979 196.77C286.963 195.95 285.216 194.771 283.738 193.234C282.259 191.663 281.1 189.732 280.26 187.443C279.42 185.12 279 182.472 279 179.5C279 176.528 279.42 173.897 280.26 171.608C281.1 169.285 282.259 167.355 283.738 165.817C285.216 164.246 286.963 163.05 288.979 162.23C290.995 161.41 293.179 161 295.531 161C297.883 161 300.067 161.41 302.083 162.23C304.099 163.05 305.847 164.246 307.325 165.817C308.803 167.355 309.963 169.285 310.803 171.608C311.643 173.897 312.063 176.528 312.063 179.5C312.063 182.472 311.643 185.12 310.803 187.443C309.963 189.732 308.803 191.663 307.325 193.234C305.847 194.771 304.099 195.95 302.083 196.77C300.067 197.59 297.883 198 295.531 198Z" fill="#171C29"/>
<path d="M316.738 194.003H320.266V164.997H316.738V161.615H344.811V171.147H338.964V165.305H328.431V177.655H335.084V174.58H338.813V184.42H335.084V181.345H328.431V194.003H333.219V197.385H316.738V194.003Z" fill="#171C29"/>
<path d="M348.927 194.003H352.455V164.997H348.927V161.615H377V171.147H371.154V165.305H360.62V177.655H367.273V174.58H371.002V184.42H367.273V181.345H360.62V194.003H365.408V197.385H348.927V194.003Z" fill="#171C29"/>
<path d="M56.4421 182.287C46.7117 180.854 38.0153 187.519 36.0013 196.624C36.5855 187.08 29.8623 178.403 20.3802 177.436C10.6498 176.003 1.48677 182.913 -0.0306135 192.949C-4.00699 222.456 29.3776 247.489 29.3776 247.489C29.3776 247.489 68.0077 232.514 72.0932 202.652C73.2531 192.506 66.2816 183.363 56.4421 182.287Z" fill="url(#paint2_linear_2341_206)"/>
</g>
<defs>
<radialGradient id="paint0_radial_2341_206" cx="0" cy="0" r="1" gradientUnits="userSpaceOnUse" gradientTransform="translate(199 144.5) rotate(90) scale(108.5 200)">
<stop stop-color="#F33E58" stop-opacity="0.65"/>
<stop offset="0.510417" stop-color="#F78BAB" stop-opacity="0.34"/>
<stop offset="1" stop-color="#F9A9CB" stop-opacity="0"/>
</radialGradient>
<linearGradient id="paint1_linear_2341_206" x1="332.349" y1="1.04163" x2="386.902" y2="67.8298" gradientUnits="userSpaceOnUse">
<stop stop-color="#FC7EA3"/>
<stop offset="0.96875" stop-color="#D43060"/>
</linearGradient>
<linearGradient id="paint2_linear_2341_206" x1="24.2419" y1="172.964" x2="50.713" y2="238.442" gradientUnits="userSpaceOnUse">
<stop stop-color="#F8B4D3"/>
<stop offset="0.6713" stop-color="#F779A9"/>
<stop offset="0.96875" stop-color="#F75D98"/>
</linearGradient>
</defs>
</svg>
