<svg width="1161" height="704" viewBox="0 0 1161 704" fill="none" xmlns="http://www.w3.org/2000/svg">
<g clip-path="url(#clip0_421_34)">
<path d="M243.1 506.2C243.928 506.2 244.6 505.529 244.6 504.7C244.6 503.872 243.928 503.2 243.1 503.2C242.271 503.2 241.6 503.872 241.6 504.7C241.6 505.529 242.271 506.2 243.1 506.2Z" fill="white"/>
<path d="M995 539.7C995.828 539.7 996.5 539.029 996.5 538.2C996.5 537.372 995.828 536.7 995 536.7C994.172 536.7 993.5 537.372 993.5 538.2C993.5 539.029 994.172 539.7 995 539.7Z" fill="white"/>
<path d="M1038 182.1C1038.83 182.1 1039.5 181.429 1039.5 180.6C1039.5 179.772 1038.83 179.1 1038 179.1C1037.17 179.1 1036.5 179.772 1036.5 180.6C1036.5 181.429 1037.17 182.1 1038 182.1Z" fill="white"/>
<path d="M934.801 400.8C935.629 400.8 936.301 400.128 936.301 399.3C936.301 398.471 935.629 397.8 934.801 397.8C933.972 397.8 933.301 398.471 933.301 399.3C933.301 400.128 933.972 400.8 934.801 400.8Z" fill="white"/>
<path d="M469.6 296.4C470.428 296.4 471.1 295.728 471.1 294.9C471.1 294.071 470.428 293.4 469.6 293.4C468.771 293.4 468.1 294.071 468.1 294.9C468.1 295.728 468.771 296.4 469.6 296.4Z" fill="white"/>
<path d="M812.801 152.1C813.629 152.1 814.301 151.429 814.301 150.6C814.301 149.772 813.629 149.1 812.801 149.1C811.972 149.1 811.301 149.772 811.301 150.6C811.301 151.429 811.972 152.1 812.801 152.1Z" fill="white"/>
<path d="M854.199 625C855.028 625 855.699 624.328 855.699 623.5C855.699 622.672 855.028 622 854.199 622C853.371 622 852.699 622.672 852.699 623.5C852.699 624.328 853.371 625 854.199 625Z" fill="white"/>
<path d="M381.501 624.2C381.501 625.6 380.301 626.8 378.901 626.8C377.501 626.8 376.301 625.6 376.301 624.2C376.301 622.7 377.501 621.6 378.901 621.6C380.301 621.6 381.501 622.8 381.501 624.2Z" fill="white"/>
<path d="M5.3 31.9999C5.3 33.4999 4.1 34.5999 2.7 34.5999C1.2 34.6999 0 33.4999 0 31.9999C0 30.5999 1.2 29.3999 2.6 29.3999C4.1 29.3999 5.3 30.5999 5.3 31.9999Z" fill="white"/>
<path d="M755.8 365.4C755.8 366.8 754.6 368 753.2 368C751.8 368 750.6 366.8 750.6 365.4C750.6 364 751.8 362.8 753.2 362.8C754.7 362.8 755.8 364 755.8 365.4Z" fill="white"/>
<path d="M97.3992 363.5C97.3992 364.9 96.1992 366.1 94.7992 366.1C93.3992 366.1 92.1992 364.9 92.1992 363.5C92.1992 362.1 93.3992 360.9 94.7992 360.9C96.1992 360.9 97.3992 362.1 97.3992 363.5Z" fill="white"/>
<path d="M385.3 436.5C385.3 438.4 383.8 439.9 381.9 439.9C380 439.9 378.5 438.4 378.5 436.5C378.5 434.6 380 433.1 381.9 433.1C383.8 433.1 385.3 434.7 385.3 436.5Z" fill="white"/>
<path d="M34.8 541.6C34.8 543.5 33.3 545 31.4 545C29.5 545 28 543.5 28 541.6C28 539.7 29.5 538.2 31.4 538.2C33.3 538.2 34.8 539.7 34.8 541.6Z" fill="white"/>
<path d="M811.101 448.7C811.101 450.6 809.601 452.1 807.701 452.1C805.801 452.1 804.301 450.6 804.301 448.7C804.301 446.8 805.801 445.3 807.701 445.3C809.601 445.3 811.101 446.8 811.101 448.7Z" fill="white"/>
<path d="M1044.5 318C1044.5 319.9 1043 321.4 1041.1 321.4C1039.2 321.4 1037.7 319.9 1037.7 318C1037.7 316.1 1039.2 314.6 1041.1 314.6C1043 314.6 1044.5 316.1 1044.5 318Z" fill="white"/>
<path d="M1117.6 463.2C1117.6 465.1 1116.1 466.6 1114.2 466.6C1112.3 466.6 1110.8 465.1 1110.8 463.2C1110.8 461.3 1112.3 459.8 1114.2 459.8C1116.1 459.8 1117.6 461.3 1117.6 463.2Z" fill="white"/>
<path d="M714.8 668.7C714.8 670.6 713.3 672.1 711.4 672.1C709.5 672.1 708 670.6 708 668.7C708 666.8 709.5 665.3 711.4 665.3C713.3 665.3 714.8 666.9 714.8 668.7Z" fill="white"/>
<path d="M16.8996 214.7C16.8996 216.6 15.3996 218.1 13.4996 218.1C11.5996 218.1 10.0996 216.6 10.0996 214.7C10.0996 212.8 11.5996 211.3 13.4996 211.3C15.3996 211.3 16.8996 212.8 16.8996 214.7Z" fill="white"/>
<path d="M224.601 133.2C224.601 135.1 223.101 136.6 221.201 136.6C219.301 136.6 217.801 135.1 217.801 133.2C217.801 131.3 219.301 129.8 221.201 129.8C223.001 129.8 224.601 131.4 224.601 133.2Z" fill="white"/>
<path d="M341.2 321.4C341.2 323.3 339.7 324.8 337.8 324.8C335.9 324.8 334.4 323.3 334.4 321.4C334.4 319.5 335.9 318 337.8 318C339.7 318 341.2 319.5 341.2 321.4Z" fill="white"/>
<path d="M489.9 160C489.9 161.9 488.4 163.4 486.5 163.4C484.6 163.4 483.1 161.9 483.1 160C483.1 158.1 484.6 156.6 486.5 156.6C488.4 156.6 489.9 158.1 489.9 160Z" fill="white"/>
<path d="M1077.7 5.6C1077.7 8.7 1075.2 11.2 1072.1 11.2C1069 11.2 1066.5 8.7 1066.5 5.6C1066.5 2.5 1069 0 1072.1 0C1075.2 0 1077.7 2.5 1077.7 5.6Z" fill="white"/>
<path d="M172.7 227.9H128.5L153.2 217.5L153 216.8L128.2 227.2L159.5 195.9L158.9 195.3L127.7 226.6L138.3 202L137.6 201.7L127 226.4V182.1H126.2V226.4L115.8 201.6L115.2 201.9L125.5 226.6L94.2 195.3L93.7 195.9L125 227.2L100.1 217L99.8 217.7L124.7 227.9H80.5V228.6H124.7L99.9 239L100.2 239.7L125 229.3L93.7 260.6L94.2 261.1L125.5 229.9L114.8 254.5L115.5 254.8L126.2 230V274.4H127V230.1L137.3 254.9L138 254.6L127.7 229.8L158.9 261.1L159.5 260.6L128.2 229.3L153 239.5L153.3 238.8L128.5 228.6H172.7V227.9Z" fill="url(#paint0_linear_421_34)"/>
<path d="M289.2 375.8H245L269.8 365.5L269.5 364.8L244.7 375.1L276 343.8L275.5 343.3L244.2 374.5L254.9 350L254.2 349.7L243.5 374.4V330.1H242.7V374.3L232.4 349.5L231.7 349.8L242 374.6L210.8 343.3L210.2 343.8L241.5 375.1L216.7 364.9L216.4 365.6L241.2 375.8H197V376.6H241.2L216.4 386.9L216.7 387.6L241.5 377.3L210.2 408.6L210.8 409.1L242 377.9L231.4 402.4L232 402.7L242.7 378V422.3H243.5V378.1L253.8 402.9L254.5 402.6L244.2 377.8L275.5 409.1L276 408.6L244.7 377.3L269.6 387.5L269.8 386.8L245 376.6H289.2V375.8Z" fill="url(#paint1_linear_421_34)"/>
<path d="M974.101 167.6H929.801L954.601 157.2L954.301 156.5L929.601 166.9L960.801 135.6L960.301 135.1L929.101 166.3L939.701 141.7L939.001 141.4L928.301 166.2V121.8H927.601V166.1L917.201 141.3L916.501 141.6L926.901 166.4L895.601 135.1L895.101 135.6L926.401 166.9L901.501 156.7L901.201 157.4L926.101 167.6H881.801V168.3H926.101L901.301 178.7L901.601 179.4L926.301 169L895.101 200.3L895.601 200.9L926.801 169.6L916.201 194.2L916.901 194.5L927.601 169.8V214.1H928.301V169.8L938.701 194.6L939.401 194.3L929.001 169.6L960.301 200.9L960.801 200.3L929.501 169L954.401 179.2L954.701 178.5L929.901 168.3H974.101V167.6Z" fill="url(#paint2_linear_421_34)"/>
<path d="M763.7 286.8H719.5L744.3 276.5L744 275.8L719.2 286.1L750.5 254.9L750 254.3L718.7 285.6L729.3 261L728.7 260.7L718 285.4V241.1H717.2V285.3L706.9 260.6L706.2 260.8L716.5 285.6L685.2 254.3L684.7 254.9L716 286.2L691.2 276L690.9 276.6L715.7 286.8H671.5V287.6H715.7L690.9 298L691.2 298.6L716 288.3L684.7 319.6L685.2 320.1L716.5 288.9L705.8 313.5L706.5 313.8L717.2 289V333.3H718V289.1L728.3 313.9L729 313.6L718.7 288.8L750 320.1L750.5 319.6L719.2 288.3L744 298.5L744.3 297.8L719.5 287.6H763.7V286.8Z" fill="url(#paint3_linear_421_34)"/>
<path d="M963.3 544.6H919.1L943.9 534.3L943.6 533.6L918.8 543.9L950.1 512.7L949.6 512.1L918.3 543.4L929 518.8L928.3 518.5L917.6 543.2V498.9H916.8V543.1L906.5 518.3L905.8 518.6L916.1 543.4L884.9 512.1L884.3 512.7L915.6 544L890.8 533.7L890.5 534.4L915.3 544.6H871.1V545.4H915.3L890.5 555.7L890.8 556.4L915.6 546.1L884.3 577.4L884.9 577.9L916.1 546.7L905.5 571.2L906.2 571.5L916.8 546.8V591.1H917.6V546.9L927.9 571.7L928.6 571.4L918.3 546.6L949.6 577.9L950.1 577.4L918.8 546.1L943.7 556.3L943.9 555.6L919.1 545.4H963.3V544.6Z" fill="url(#paint4_linear_421_34)"/>
<path d="M626.3 657.5H582L606.8 647.1L606.5 646.4L581.8 656.8L613 625.5L612.5 625L581.3 656.2L591.9 631.6L591.2 631.3L580.5 656V611.7H579.8V656L569.4 631.2L568.7 631.5L579.1 656.2L547.8 625L547.3 625.5L578.6 656.8L553.7 646.6L553.4 647.3L578.2 657.5H534V658.2H578.3L553.5 668.6L553.8 669.3L578.5 658.9L547.3 690.2L547.8 690.7L579 659.5L568.4 684.1L569.1 684.4L579.8 659.6V704H580.5V659.7L590.9 684.5L591.6 684.2L581.2 659.4L612.5 690.7L613 690.2L581.7 658.9L606.6 669.1L606.9 668.4L582 658.2H626.3V657.5Z" fill="url(#paint5_linear_421_34)"/>
<path d="M161.101 575.9H116.801L141.601 565.5L141.301 564.8L116.601 575.2L147.801 543.9L147.301 543.4L116.101 574.6L126.701 550L126.001 549.7L115.301 574.4V530.1H114.601V574.4L104.201 549.6L103.501 549.9L113.901 574.7L82.6008 543.4L82.1008 543.9L113.401 575.2L88.5008 565L88.2008 565.7L113.001 575.9H68.8008V576.6H113.101L88.3008 587L88.6008 587.7L113.301 577.3L82.1008 608.6L82.6008 609.1L113.801 577.9L103.201 602.5L103.901 602.8L114.601 578.1V622.4H115.301V578.1L125.701 602.9L126.401 602.6L116.001 577.9L147.301 609.1L147.801 608.6L116.501 577.3L141.401 587.5L141.701 586.8L116.801 576.6H161.101V575.9Z" fill="url(#paint6_linear_421_34)"/>
<path d="M1160.3 78.9001H1116L1140.8 68.5001L1140.5 67.8001L1115.8 78.2001L1147 46.9001L1146.5 46.4001L1115.3 77.6001L1125.9 53.0001L1125.2 52.7001L1114.5 77.5001V33.1001H1113.8V77.4001L1103.4 52.6001L1102.7 52.9001L1113.1 77.7001L1081.8 46.4001L1081.3 46.9001L1112.6 78.2001L1087.7 68.0001L1087.4 68.7001L1112.3 78.9001H1068V79.6001H1112.3L1087.5 90.0001L1087.8 90.7001L1112.6 80.3001L1081.3 111.6L1081.8 112.1L1113 80.9001L1102.4 105.5L1103.1 105.8L1113.8 81.1001V125.4H1114.5V81.1001L1124.9 105.9L1125.6 105.6L1115.2 80.9001L1146.5 112.1L1147 111.6L1115.8 80.3001L1140.6 90.5001L1140.9 89.8001L1116.1 79.6001H1160.3V78.9001Z" fill="url(#paint7_linear_421_34)"/>
</g>
<defs>
<linearGradient id="paint0_linear_421_34" x1="80.4541" y1="228.232" x2="172.708" y2="228.232" gradientUnits="userSpaceOnUse">
<stop stop-color="#596D99"/>
<stop offset="1" stop-color="#2C354F"/>
</linearGradient>
<linearGradient id="paint1_linear_421_34" x1="196.982" y1="376.198" x2="289.236" y2="376.198" gradientUnits="userSpaceOnUse">
<stop stop-color="#596D99"/>
<stop offset="1" stop-color="#2C354F"/>
</linearGradient>
<linearGradient id="paint2_linear_421_34" x1="881.831" y1="167.97" x2="974.086" y2="167.97" gradientUnits="userSpaceOnUse">
<stop stop-color="#596D99"/>
<stop offset="1" stop-color="#2C354F"/>
</linearGradient>
<linearGradient id="paint3_linear_421_34" x1="671.472" y1="287.22" x2="763.726" y2="287.22" gradientUnits="userSpaceOnUse">
<stop stop-color="#596D99"/>
<stop offset="1" stop-color="#2C354F"/>
</linearGradient>
<linearGradient id="paint4_linear_421_34" x1="871.086" y1="545.015" x2="963.34" y2="545.015" gradientUnits="userSpaceOnUse">
<stop stop-color="#596D99"/>
<stop offset="1" stop-color="#2C354F"/>
</linearGradient>
<linearGradient id="paint5_linear_421_34" x1="534.018" y1="657.833" x2="626.272" y2="657.833" gradientUnits="userSpaceOnUse">
<stop stop-color="#596D99"/>
<stop offset="1" stop-color="#2C354F"/>
</linearGradient>
<linearGradient id="paint6_linear_421_34" x1="68.8148" y1="576.261" x2="161.069" y2="576.261" gradientUnits="userSpaceOnUse">
<stop stop-color="#596D99"/>
<stop offset="1" stop-color="#2C354F"/>
</linearGradient>
<linearGradient id="paint7_linear_421_34" x1="1068.04" y1="79.2677" x2="1160.29" y2="79.2677" gradientUnits="userSpaceOnUse">
<stop stop-color="#596D99"/>
<stop offset="1" stop-color="#2C354F"/>
</linearGradient>
<clipPath id="clip0_421_34">
<rect width="1161" height="704" fill="white"/>
</clipPath>
</defs>
</svg>
