<svg width="{% if width %}{{width}}{% else %}100%{% endif %}" height="{% if height %}{{height}}{% else %}100%{% endif %}" viewbox="0 0 278 178" fill="none" xmlns="http://www.w3.org/2000/svg"
  style="user-select: auto;">
  <mask id="mask0_36_137" style="mask-type: alpha; user-select: auto;" maskunits="userSpaceOnUse"
    x="0" y="0" width="278" height="178">
    <rect width="278" height="178" fill="#E63D3D" style="user-select: auto;"></rect>
  </mask>
  <g mask="url(#mask0_36_137)" style="user-select: auto;">
    <path class="svgShipTrailer"
      d="M58 90.5V38C58 29.1634 65.1634 22 74 22H186C194.837 22 202 29.1634 202 38V111C202 119.837 194.837 127 186 127H137.5"
      stroke="currentColor" stroke-width="10" stroke-linecap="round" stroke-linejoin="round"
      style="user-select: auto;"></path>
    <path d="M82 105H50" stroke="currentColor" stroke-width="10" stroke-linecap="round"
      stroke-linejoin="round" style="user-select: auto;"></path>
    <path d="M74 118H42" stroke="currentColor" stroke-width="10" stroke-linecap="round"
      stroke-linejoin="round" style="user-select: auto;"></path>
    <path class="svgShipBody"
      d="M58 131.062V131.062C58 137.655 63.3447 143 69.9378 143H92M274 102.212L255.392 61.9223M274 102.212H233C229.686 102.212 227 99.5261 227 96.2124V61.9223M274 102.212V122.606M202 47H240.824C245.504 47 249.756 49.7202 251.718 53.9685L255.392 61.9223M255.392 61.9223H227M217.5 61.9223H227M274 122.606V131C274 137.627 268.627 143 262 143H241M274 122.606H263.5M209 143H124.5"
      stroke="currentColor" stroke-width="10" stroke-linecap="round" stroke-linejoin="round"
      style="user-select: auto;"></path>
    <circle cx="225" cy="153" r="19" stroke="currentColor" stroke-width="10" stroke-linecap="round"
      stroke-linejoin="round" style="user-select: auto;"></circle>
    <path
      d="M215.341 150.412C216.77 145.077 222.254 141.911 227.588 143.341C232.923 144.77 236.089 150.254 234.659 155.588C233.23 160.923 227.746 164.089 222.412 162.659"
      stroke="currentColor" stroke-width="3" stroke-linecap="round" stroke-linejoin="round"
      style="user-select: auto;"></path>
    <circle cx="108" cy="153" r="19" stroke="currentColor" stroke-width="10" stroke-linecap="round"
      stroke-linejoin="round" style="user-select: auto;"></circle>
    <path
      d="M118 153C118 158.523 113.523 163 108 163C102.477 163 98 158.523 98 153C98 147.477 102.477 143 108 143"
      stroke="currentColor" stroke-width="3" stroke-linecap="round" stroke-linejoin="round"
      style="user-select: auto;"></path>
    <path class="svgShipRoad" d="M4 173H62.2367M93.5 173H155M186.5 173H245.5" stroke="currentColor"
      stroke-width="10" stroke-linecap="round" stroke-linejoin="round" style="user-select: auto;"></path>
    <path class="svgShipRoad" d="M280 173H338.237M369.5 173H431M462.5 173H521.5"
      stroke="currentColor" stroke-width="10" stroke-linecap="round" stroke-linejoin="round"
      style="user-select: auto;"></path>
  </g>
</svg>