<svg width="18" height="18" viewbox="0 0 24 24" fill="none" xmlns="http://www.w3.org/2000/svg">
  <path d="M12.0114 21.5756L3.04512 12.4811L2.67571 12.1064C1.59668 10.99 0.992952 9.48387 1.00006 7.91446C1.00718 6.34356 1.62569 4.84185 2.71665 3.73528C3.80715 2.62919 5.28114 2.00722 6.81716 2.00006C8.35171 1.99291 9.82985 2.59994 10.9299 3.69379L11.2993 4.06844L12.0104 4.78972L12.7225 4.06945L13.0907 3.69706C14.1922 2.61252 15.667 2.01311 17.1963 2.0238C18.7275 2.03451 20.1959 2.6561 21.2831 3.75872C22.3708 4.8618 22.989 6.35776 22.9999 7.92377C23.0107 9.48753 22.4148 10.9902 21.3453 12.1082L20.9777 12.4811L12.0114 21.5756Z" stroke="currentColor" stroke-width="1.5"></path>
</svg>