<svg width="{% if width %}{{width}}{% else %}18{% endif %}"  height="{% if height %}{{height}}{% else %}18{% endif %}" viewbox="0 0 24 24" fill="none" xmlns="http://www.w3.org/2000/svg">
  <path d="M22.0883 17.0789V6.92111C22.0883 6.77493 22.0488 6.63139 21.9738 6.50521C21.8988 6.37903 21.7911 6.27476 21.6616 6.2031L12.4545 1.1058C12.3292 1.03644 12.1879 1 12.0441 1C11.9004 1 11.7591 1.03644 11.6338 1.1058L2.42666 6.2031C2.29721 6.27476 2.18947 6.37903 2.1145 6.50521C2.03952 6.63139 2 6.77493 2 6.92111V17.0789C2 17.2251 2.03952 17.3686 2.1145 17.4948C2.18947 17.621 2.29721 17.7252 2.42666 17.7969L11.6338 22.8942C11.7591 22.9636 11.9004 23 12.0441 23C12.1879 23 12.3292 22.9636 12.4545 22.8942L21.6616 17.7969C21.7911 17.7252 21.8988 17.621 21.9738 17.4948C22.0488 17.3686 22.0883 17.2251 22.0883 17.0789Z" stroke="currentColor" stroke-width="1.3" stroke-linecap="round" stroke-linejoin="round"></path>
  <path d="M17.1731 14.524V9.1693L7.02207 3.65896" stroke="currentColor" stroke-width="1.3" stroke-linecap="round" stroke-linejoin="round"></path>
  <path d="M21.9729 6.50387L12.1434 12L2.11591 6.50284" stroke="currentColor" stroke-width="1.3" stroke-linecap="round" stroke-linejoin="round"></path>
  <path d="M12.1434 12L12.0452 23" stroke="currentColor" stroke-width="1.3" stroke-linecap="round" stroke-linejoin="round"></path>
</svg>