<svg width="24" height="24" viewBox="0 0 138 138" fill="none" xmlns="http://www.w3.org/2000/svg">
  <rect width="138" height="138" rx="69" fill="#0095C6"/>
  <path d="M41.3242 94.771V44.3474H33.6899V42.3867H58.8153V44.3474H51.1811V92.8102H58.8153V94.771H41.3242Z" fill="white"/>
  <path d="M103.928 86.6276C103.048 88.4437 101.756 90.0225 100.158 91.2346C98.1624 92.6363 95.9025 93.6042 93.5206 94.0773C91.1293 94.5399 88.7031 94.7805 86.2695 94.7961H66.5165V44.4779H58.8154V42.3867H84.5944C86.9689 42.3966 89.3388 42.5932 91.6832 42.9748C94.0671 43.3294 96.3559 44.1625 98.4179 45.4254C99.9221 46.3574 101.156 47.6763 101.995 49.2483C102.811 50.7315 103.274 52.3873 103.348 54.0841C103.388 55.7669 103.069 57.4387 102.413 58.9852C101.688 60.6221 100.582 62.0569 99.1911 63.1675C97.6796 64.5387 95.9012 65.5738 93.9706 66.2062C92.0339 66.8318 90.0516 67.3016 88.0425 67.6112C89.9718 67.8096 91.881 68.1813 93.7459 68.7221C95.6786 69.252 97.524 70.0666 99.2233 71.14C100.864 72.141 102.27 73.4896 103.348 75.0936C104.467 76.7806 105.042 78.7788 104.992 80.8115C105.06 82.8057 104.697 84.7909 103.928 86.6276ZM92.4564 50.686C92.2291 49.3292 91.6751 48.0501 90.8456 46.9611C90.0557 45.997 89.0015 45.2921 87.8166 44.9353C86.5384 44.54 85.2193 44.2987 83.8849 44.2165C82.4994 44.2165 81.1462 44.2165 79.7929 44.2165C78.439 44.2165 77.2795 44.2165 76.3447 44.2165V66.729C78.9225 66.729 81.2427 66.729 83.2404 66.729C85.0168 66.7228 86.7718 66.3445 88.3966 65.618C89.8391 64.8837 90.9797 63.6574 91.6188 62.1546C92.4798 59.863 92.8634 57.4157 92.7467 54.9663C92.7427 53.5632 92.6133 52.1634 92.3598 50.784L92.4564 50.686ZM88.2679 69.4409C86.987 68.9898 85.6552 68.7044 84.304 68.5914C82.9206 68.477 81.5304 68.477 80.1477 68.5914C78.7293 68.5914 77.4727 68.5914 76.3447 68.5914V92.8356H86.5599C87.9031 92.8618 89.2174 92.4368 90.2977 91.6267C91.3425 90.7426 92.17 89.6239 92.7146 88.3592C93.3127 86.9614 93.7245 85.489 93.9384 83.9809C94.1161 82.4067 94.1161 80.8174 93.9384 79.2432C93.7949 77.747 93.5045 76.2692 93.0693 74.8322C92.7058 73.6377 92.1144 72.5273 91.3284 71.5648C90.4627 70.5614 89.3509 69.8065 88.1069 69.3756" fill="white"/>
  <rect x="49.9551" y="43.4409" width="18.1224" height="1.02911" fill="white"/>
  </svg>
  