<svg class="svg_pass-hide" width="{% if width %}{{width}}{% else %}24{% endif %}" height="{% if height %}{{height}}{% else %}24{% endif %}" viewBox="0 0 24 24" fill="none" xmlns="http://www.w3.org/2000/svg">
  <path d="M4.5 3.75L19.5 20.25" stroke="currentColor" stroke-width="1.5" stroke-linecap="round" stroke-linejoin="round"/>
  <path d="M14.5225 14.7748C13.7866 15.4437 12.8151 15.7929 11.8217 15.7456C10.8283 15.6982 9.89443 15.2582 9.22545 14.5223C8.55647 13.7864 8.2072 12.815 8.25446 11.8216C8.30172 10.8282 8.74164 9.89426 9.47746 9.22522M6.93698 6.43066C3.11486 8.36618 1.5 12 1.5 12C1.5 12 4.5 18.7493 12 18.7493C13.7572 18.7633 15.4926 18.3585 17.0623 17.5685M19.5571 15.8531C21.6011 14.0224 22.5 12 22.5 12C22.5 12 19.5 5.24928 12 5.24928C11.3504 5.24822 10.7019 5.30103 10.061 5.40717M12.7057 8.31637C13.5027 8.46942 14.2287 8.87677 14.7746 9.47731C15.3205 10.0779 15.657 10.8392 15.7336 11.6472" stroke="currentColor" stroke-width="1.5" stroke-linecap="round" stroke-linejoin="round"/>
  </svg>
