<svg width="24" height="24" viewBox="0 0 24 24" fill="none" xmlns="http://www.w3.org/2000/svg">
  <path fill-rule="evenodd" clip-rule="evenodd"
    d="M5 1C2.79086 1 1 2.79086 1 5V19C1 21.2091 2.79086 23 5 23H19C21.2091 23 23 21.2091 23 19V5C23 2.79086 21.2091 1 19 1H5ZM6 6.5964C6 6.23886 6.2727 6 6.55305 6H11V18H9C8.44772 18 8 18.4477 8 19C8 19.5523 8.44772 20 9 20H12H15C15.5523 20 16 19.5523 16 19C16 18.4477 15.5523 18 15 18H13V6H17.4469C17.7286 6 18 6.24019 18 6.5964V8C18 8.55228 18.4477 9 19 9C19.5523 9 20 8.55228 20 8V6.5964C20 5.19426 18.8909 4 17.4469 4H6.55305C5.1228 4 4 5.18017 4 6.5964V8C4 8.55228 4.44772 9 5 9C5.55228 9 6 8.55228 6 8V6.5964Z"
    fill="currentColor" />
</svg>
  