<svg width="{% if width %}{{width}}{% else %}20{% endif %}"  height="{% if height %}{{height}}{% else %}20{% endif %}" viewbox="0 0 24 24" fill="none" xmlns="http://www.w3.org/2000/svg">
  <path
    d="M8.34999 9.99952C8.35028 12.0187 9.97943 13.6495 11.9991 13.65C12.4788 13.6506 12.954 13.5566 13.3973 13.3733C13.8406 13.19 14.2434 12.9209 14.5825 12.5817C14.9217 12.2424 15.1906 11.8395 15.3737 11.3962C15.5568 10.953 15.6507 10.478 15.65 9.99848M8.34999 9.99952C8.3494 9.52004 8.44341 9.04516 8.62664 8.60208C8.80991 8.15888 9.07884 7.75622 9.41802 7.41715C9.75719 7.07809 10.16 6.80929 10.6032 6.62616C11.0463 6.44311 11.5211 6.34926 12.0005 6.34999C14.0201 6.35026 15.6497 7.9809 15.65 9.99848M8.34999 9.99952C8.34999 9.99963 8.34999 9.99974 8.34999 9.99986L8.99999 9.99899H8.34999C8.34999 9.99916 8.34999 9.99934 8.34999 9.99952ZM15.65 9.99848C15.65 9.99829 15.65 9.9981 15.65 9.9979L15 9.99899H15.65C15.65 9.99882 15.65 9.99865 15.65 9.99848ZM6.08932 4.04479L6.08932 4.04479L6.09098 4.04317C7.67013 2.50204 9.7913 1.64263 11.9978 1.65L12.0022 1.64999C14.2087 1.64263 16.3299 2.50204 17.909 4.04317L18.363 3.57799L17.9107 4.04479C18.6818 4.79203 19.2951 5.6865 19.7141 6.67517C20.1331 7.66384 20.3494 8.72658 20.35 9.80037L20.35 9.8022C20.3578 12.0893 19.4773 14.2902 17.8941 15.9408C17.894 15.9409 17.894 15.941 17.8939 15.941L12 22.0628L6.10609 15.941C6.10598 15.9409 6.10587 15.9408 6.10576 15.9407C4.52267 14.2901 3.64222 12.0893 3.64999 9.8022L3.64999 9.80037C3.65063 8.72658 3.86686 7.66384 4.28588 6.67517C4.7049 5.6865 5.31816 4.79203 6.08932 4.04479Z"
    stroke="currentColor" stroke-width="1"></path>
</svg>