<svg class="logo-svg" width="100%" height="100%" viewbox="0 0 203 52" fill="none"
  xmlns="http://www.w3.org/2000/svg">
  <path
    d="M199.602 51.1542C199.088 51.1542 198.628 51.0708 198.221 50.904C197.814 50.7373 197.487 50.4904 197.24 50.1635C197 49.8366 196.873 49.443 196.86 48.9827H198.681C198.708 49.2429 198.798 49.443 198.951 49.5831C199.105 49.7165 199.305 49.7833 199.552 49.7833C199.805 49.7833 200.005 49.7266 200.152 49.6131C200.299 49.4931 200.372 49.3296 200.372 49.1228C200.372 48.9494 200.312 48.8059 200.192 48.6925C200.079 48.5791 199.935 48.4857 199.762 48.4123C199.595 48.3389 199.355 48.2555 199.041 48.1621C198.588 48.022 198.217 47.8819 197.931 47.7418C197.644 47.6018 197.397 47.3949 197.19 47.1214C196.983 46.8479 196.88 46.491 196.88 46.0507C196.88 45.3969 197.117 44.8865 197.59 44.5196C198.064 44.146 198.681 43.9592 199.442 43.9592C200.216 43.9592 200.839 44.146 201.313 44.5196C201.787 44.8865 202.04 45.4002 202.073 46.0607H200.222C200.209 45.8339 200.125 45.6571 199.972 45.5303C199.819 45.3969 199.622 45.3302 199.382 45.3302C199.175 45.3302 199.008 45.3869 198.881 45.5003C198.755 45.607 198.691 45.7638 198.691 45.9706C198.691 46.1974 198.798 46.3742 199.011 46.501C199.225 46.6277 199.558 46.7645 200.012 46.9113C200.466 47.0647 200.833 47.2115 201.113 47.3516C201.4 47.4917 201.647 47.6951 201.853 47.962C202.06 48.2289 202.164 48.5724 202.164 48.9927C202.164 49.393 202.06 49.7566 201.853 50.0835C201.653 50.4104 201.36 50.6705 200.973 50.864C200.586 51.0575 200.129 51.1542 199.602 51.1542Z"
    fill="currentColor"></path>
  <path
    d="M188.354 45.4302V46.8512H190.645V48.1721H188.354V49.7132H190.946V51.0841H186.643V44.0593H190.946V45.4302H188.354Z"
    fill="currentColor"></path>
  <path
    d="M180.405 44.0593V51.0841H178.693V48.1921H176.032V51.0841H174.32V44.0593H176.032V46.8112H178.693V44.0593H180.405Z"
    fill="currentColor"></path>
  <path
    d="M161.403 47.5617C161.403 46.8679 161.553 46.2508 161.854 45.7104C162.154 45.1634 162.571 44.7398 163.104 44.4396C163.645 44.1327 164.255 43.9792 164.936 43.9792C165.77 43.9792 166.484 44.1994 167.077 44.6397C167.671 45.08 168.068 45.6804 168.268 46.441H166.387C166.247 46.1474 166.047 45.9239 165.786 45.7705C165.533 45.617 165.243 45.5403 164.916 45.5403C164.389 45.5403 163.962 45.7238 163.635 46.0907C163.308 46.4576 163.145 46.948 163.145 47.5617C163.145 48.1755 163.308 48.6658 163.635 49.0327C163.962 49.3997 164.389 49.5831 164.916 49.5831C165.243 49.5831 165.533 49.5064 165.786 49.353C166.047 49.1995 166.247 48.976 166.387 48.6825H168.268C168.068 49.443 167.671 50.0434 167.077 50.4838C166.484 50.9174 165.77 51.1342 164.936 51.1342C164.255 51.1342 163.645 50.9841 163.104 50.6839C162.571 50.377 162.154 49.9534 161.854 49.413C161.553 48.8726 161.403 48.2555 161.403 47.5617Z"
    fill="currentColor"></path>
  <path d="M155.832 44.0593V45.4302H153.97V51.0841H152.259V45.4302H150.398V44.0593H155.832Z"
    fill="currentColor"></path>
  <path
    d="M142.769 49.8433H140.148L139.727 51.0841H137.936L140.478 44.0593H142.459L145.001 51.0841H143.19L142.769 49.8433ZM142.329 48.5224L141.458 45.9506L140.598 48.5224H142.329Z"
    fill="currentColor"></path>
  <path
    d="M132.535 44.0593L130.703 51.0841H128.632L127.511 46.4609L126.35 51.0841H124.279L122.498 44.0593H124.329L125.34 49.1728L126.59 44.0593H128.472L129.673 49.1728L130.693 44.0593H132.535Z"
    fill="currentColor"></path>
  <path
    d="M108.13 51.0842L107.48 50.4538C106.832 50.9475 106.059 51.1943 105.158 51.1943C104.618 51.1943 104.147 51.1076 103.747 50.9341C103.347 50.754 103.036 50.5038 102.816 50.1836C102.603 49.8567 102.496 49.4764 102.496 49.0428C102.496 48.6025 102.613 48.2056 102.846 47.852C103.087 47.4917 103.443 47.1982 103.917 46.9714C103.744 46.7579 103.62 46.5544 103.547 46.3609C103.473 46.1608 103.437 45.944 103.437 45.7105C103.437 45.3769 103.523 45.0734 103.697 44.7999C103.87 44.5263 104.121 44.3129 104.447 44.1594C104.781 43.9993 105.175 43.9193 105.628 43.9193C106.089 43.9193 106.479 44.0026 106.799 44.1694C107.119 44.3362 107.359 44.5597 107.52 44.8399C107.68 45.1201 107.753 45.427 107.74 45.7605H106.129C106.135 45.5804 106.089 45.4436 105.989 45.3502C105.895 45.2502 105.768 45.2001 105.608 45.2001C105.448 45.2001 105.315 45.2468 105.208 45.3402C105.101 45.4336 105.048 45.5537 105.048 45.7005C105.048 45.8406 105.091 45.9873 105.178 46.1408C105.271 46.2942 105.415 46.471 105.608 46.6712L107.319 48.3423C107.333 48.309 107.349 48.2689 107.369 48.2222C107.396 48.1755 107.423 48.1222 107.45 48.0621L107.82 47.4317H109.531L109.051 48.3023C108.871 48.6959 108.664 49.0695 108.43 49.4231L110.121 51.0842H108.13ZM105.238 49.8133C105.685 49.8133 106.082 49.6866 106.429 49.4331L104.868 47.922C104.387 48.1689 104.147 48.5024 104.147 48.9227C104.147 49.1762 104.244 49.3897 104.437 49.5632C104.638 49.7299 104.904 49.8133 105.238 49.8133Z"
    fill="currentColor"></path>
  <path
    d="M87.0144 51.1542C86.5007 51.1542 86.0404 51.0708 85.6334 50.904C85.2265 50.7373 84.8996 50.4904 84.6527 50.1635C84.4126 49.8366 84.2858 49.443 84.2725 48.9827H86.0937C86.1204 49.2429 86.2105 49.443 86.3639 49.5831C86.5174 49.7165 86.7175 49.7833 86.9643 49.7833C87.2178 49.7833 87.418 49.7266 87.5647 49.6131C87.7115 49.4931 87.7849 49.3296 87.7849 49.1228C87.7849 48.9494 87.7249 48.8059 87.6048 48.6925C87.4914 48.5791 87.3479 48.4857 87.1745 48.4123C87.0077 48.3389 86.7675 48.2555 86.454 48.1621C86.0003 48.022 85.6301 47.8819 85.3432 47.7418C85.0563 47.6018 84.8095 47.3949 84.6027 47.1214C84.3959 46.8479 84.2925 46.491 84.2925 46.0507C84.2925 45.3969 84.5293 44.8865 85.003 44.5196C85.4766 44.146 86.0937 43.9592 86.8543 43.9592C87.6281 43.9592 88.2519 44.146 88.7255 44.5196C89.1992 44.8865 89.4527 45.4002 89.4861 46.0607H87.6348C87.6214 45.8339 87.5381 45.6571 87.3846 45.5303C87.2312 45.3969 87.0344 45.3302 86.7942 45.3302C86.5874 45.3302 86.4206 45.3869 86.2939 45.5003C86.1671 45.607 86.1037 45.7638 86.1037 45.9706C86.1037 46.1974 86.2105 46.3742 86.424 46.501C86.6374 46.6277 86.971 46.7645 87.4246 46.9113C87.8783 47.0647 88.2452 47.2115 88.5254 47.3516C88.8123 47.4917 89.0591 47.6951 89.2659 47.962C89.4727 48.2289 89.5761 48.5724 89.5761 48.9927C89.5761 49.393 89.4727 49.7566 89.2659 50.0835C89.0658 50.4104 88.7722 50.6705 88.3853 50.864C87.9984 51.0575 87.5414 51.1542 87.0144 51.1542Z"
    fill="currentColor"></path>
  <path
    d="M74.8301 44.0593C75.5706 44.0593 76.2177 44.206 76.7714 44.4996C77.3251 44.7931 77.7521 45.2067 78.0523 45.7404C78.3592 46.2675 78.5126 46.8779 78.5126 47.5717C78.5126 48.2588 78.3592 48.8693 78.0523 49.403C77.7521 49.9367 77.3218 50.3503 76.7614 50.6438C76.2077 50.9374 75.5639 51.0841 74.8301 51.0841H72.1982V44.0593H74.8301ZM74.72 49.6031C75.3671 49.6031 75.8708 49.4263 76.231 49.0727C76.5913 48.7192 76.7714 48.2188 76.7714 47.5717C76.7714 46.9246 76.5913 46.4209 76.231 46.0607C75.8708 45.7004 75.3671 45.5203 74.72 45.5203H73.9094V49.6031H74.72Z"
    fill="currentColor"></path>
  <path
    d="M65.9545 51.0841H64.2433L61.3814 46.7511V51.0841H59.6702V44.0593H61.3814L64.2433 48.4123V44.0593H65.9545V51.0841Z"
    fill="currentColor"></path>
  <path
    d="M50.122 51.1542C49.4616 51.1542 48.8545 51.0008 48.3008 50.6939C47.7537 50.387 47.3167 49.9601 46.9899 49.413C46.6696 48.8593 46.5095 48.2389 46.5095 47.5517C46.5095 46.8646 46.6696 46.2475 46.9899 45.7004C47.3167 45.1534 47.7537 44.7264 48.3008 44.4195C48.8545 44.1127 49.4616 43.9592 50.122 43.9592C50.7825 43.9592 51.3862 44.1127 51.9333 44.4195C52.487 44.7264 52.9206 45.1534 53.2342 45.7004C53.5544 46.2475 53.7145 46.8646 53.7145 47.5517C53.7145 48.2389 53.5544 48.8593 53.2342 49.413C52.914 49.9601 52.4803 50.387 51.9333 50.6939C51.3862 51.0008 50.7825 51.1542 50.122 51.1542ZM50.122 49.5931C50.6824 49.5931 51.1294 49.4063 51.4629 49.0327C51.8032 48.6591 51.9733 48.1655 51.9733 47.5517C51.9733 46.9313 51.8032 46.4376 51.4629 46.0707C51.1294 45.6971 50.6824 45.5103 50.122 45.5103C49.555 45.5103 49.1013 45.6938 48.7611 46.0607C48.4275 46.4276 48.2607 46.9246 48.2607 47.5517C48.2607 48.1721 48.4275 48.6692 48.7611 49.0427C49.1013 49.4097 49.555 49.5931 50.122 49.5931Z"
    fill="currentColor"></path>
  <path
    d="M40.5659 44.0593V51.0841H38.8547V46.8712L37.2836 51.0841H35.9026L34.3215 46.8612V51.0841H32.6104V44.0593H34.6318L36.6031 48.9226L38.5545 44.0593H40.5659Z"
    fill="currentColor"></path>
  <path
    d="M24.6019 49.8433H21.9801L21.5598 51.0841H19.7686L22.3103 44.0593H24.2917L26.8334 51.0841H25.0222L24.6019 49.8433ZM24.1616 48.5224L23.291 45.9506L22.4304 48.5224H24.1616Z"
    fill="currentColor"></path>
  <path d="M13.9851 44.0593V51.0841H12.2739V44.0593H13.9851Z" fill="currentColor"></path>
  <path
    d="M2.63182 44.0593C3.37234 44.0593 4.01945 44.206 4.57317 44.4996C5.12688 44.7931 5.55385 45.2067 5.85405 45.7404C6.16093 46.2675 6.31437 46.8779 6.31437 47.5717C6.31437 48.2588 6.16093 48.8693 5.85405 49.403C5.55385 49.9367 5.12355 50.3503 4.56316 50.6438C4.00944 50.9374 3.36566 51.0841 2.63182 51.0841H0V44.0593H2.63182ZM2.52175 49.6031C3.16886 49.6031 3.67254 49.4263 4.03279 49.0727C4.39304 48.7192 4.57317 48.2188 4.57317 47.5717C4.57317 46.9246 4.39304 46.4209 4.03279 46.0607C3.67254 45.7004 3.16886 45.5203 2.52175 45.5203H1.71119V49.6031H2.52175Z"
    fill="currentColor"></path>
  <path d="M4.4931 31.518V2.11778H0V0.974548H14.7872V2.11778H10.2942V30.3747H14.7872V31.518H4.4931Z"
    fill="currentColor"></path>
  <path
    d="M49.5742 24.087C49.3515 24.7341 49.0991 25.3701 48.8156 25.9925C48.5392 26.6537 48.2099 27.2909 47.8298 27.8979C47.5047 28.4321 47.1165 28.9248 46.6734 29.365C45.7412 30.2973 44.5957 30.9845 43.3365 31.3656C42.0701 31.7475 40.7532 31.9338 39.4314 31.9183C37.4515 31.9441 35.4962 31.4727 33.7437 30.5464C32.0369 29.6287 30.5184 28.3937 29.2697 26.907C28.0134 25.3957 27.0203 23.6822 26.3312 21.8387C25.6345 20.014 25.2749 18.077 25.2695 16.1225C25.2545 14.0332 25.6006 11.9571 26.2933 9.98718C27.0193 8.04707 28.114 6.26742 29.5161 4.74731C30.8084 3.29169 32.374 2.10676 34.1231 1.26047C35.8995 0.41606 37.8452 -0.00763607 39.8104 0.021958C41.0977 0.0121921 42.3783 0.211656 43.6023 0.612628C44.7931 1.03567 45.8933 1.68226 46.8441 2.51802L48.7395 0.612628H49.7636V9.33933H48.4179C48.3148 8.72635 48.169 8.12145 47.9815 7.52919C47.745 6.91649 47.4734 6.31842 47.1657 5.73811C46.8993 5.16256 46.5686 4.61928 46.1804 4.11856C45.7869 3.6309 45.3274 3.20118 44.8153 2.84193C44.0369 2.34097 43.2036 1.93179 42.3319 1.62249C41.4633 1.33355 40.5546 1.18561 39.64 1.18425C38.314 1.13479 37.001 1.45813 35.8482 2.1179C34.8786 2.72621 34.0717 3.56347 33.4973 4.55682C32.873 5.61436 32.443 6.77608 32.2273 7.9865C32.0245 9.24655 31.9233 10.5209 31.9239 11.7972C31.9239 12.8262 31.9239 14.0837 31.8099 15.6081C31.7342 17.0997 31.7342 18.5942 31.8099 20.0858C31.8739 21.5654 32.0581 23.0375 32.3599 24.4872C32.5915 25.7863 33.1098 27.0168 33.8767 28.0883C34.4894 28.9398 35.2953 29.6321 36.2271 30.1081C37.1295 30.5632 38.1191 30.8167 39.128 30.8512C41.2163 30.9528 43.2743 30.3195 44.9483 29.0601C46.0189 28.2492 46.8617 27.1723 47.3935 25.9353C47.929 24.7345 48.3665 23.4919 48.7019 22.2198H50.0476C49.9455 22.8657 49.7932 23.5028 49.5929 24.1252"
    fill="currentColor"></path>
  <path
    d="M125.126 26.5069C124.608 27.5659 123.848 28.4866 122.908 29.1935C121.734 30.0109 120.404 30.5754 119.003 30.8513C117.596 31.121 116.169 31.2612 114.737 31.2704H103.115V1.92733H98.585V0.707886H113.751C115.148 0.713653 116.543 0.828319 117.921 1.05085C119.325 1.25761 120.671 1.74345 121.884 2.4799C122.769 3.02339 123.495 3.79253 123.989 4.70922C124.469 5.5741 124.742 6.53971 124.785 7.52918C124.808 8.51056 124.62 9.48543 124.235 10.3873C123.808 11.3419 123.157 12.1785 122.339 12.8262C121.45 13.6257 120.403 14.2295 119.267 14.5982C118.129 14.963 116.962 15.237 115.78 15.4175C116.915 15.5333 118.038 15.7499 119.135 16.0654C120.272 16.3743 121.358 16.8494 122.358 17.4753C123.323 18.059 124.151 18.8455 124.785 19.7809C125.443 20.7646 125.781 21.9299 125.751 23.1153C125.792 24.2782 125.579 25.4358 125.126 26.5069ZM118.377 5.54759C118.243 4.7564 117.917 4.01049 117.429 3.37543C116.964 2.81323 116.344 2.40213 115.647 2.19408C114.895 1.96357 114.119 1.82286 113.334 1.77491C112.519 1.77491 111.723 1.77491 110.927 1.77491C110.13 1.77491 109.448 1.77491 108.898 1.77491V14.9031C110.415 14.9031 111.779 14.9031 112.954 14.9031C114 14.8994 115.032 14.6788 115.989 14.2553C116.837 13.827 117.508 13.1118 117.884 12.2355C118.391 10.8992 118.617 9.47201 118.548 8.04367C118.546 7.22543 118.469 6.40916 118.32 5.60477L118.377 5.54759ZM115.913 16.4846C115.159 16.2214 114.375 16.055 113.581 15.9892C112.767 15.9224 111.949 15.9224 111.135 15.9892C110.301 15.9892 109.561 15.9892 108.898 15.9892V30.1271H114.908C115.698 30.1424 116.471 29.8945 117.107 29.4221C117.722 28.9065 118.208 28.2542 118.528 27.5167C118.881 26.7016 119.123 25.8429 119.249 24.9636C119.353 24.0456 119.353 23.1187 119.249 22.2007C119.164 21.3282 118.993 20.4664 118.738 19.6285C118.524 18.9318 118.176 18.2844 117.713 17.723C117.204 17.138 116.549 16.6977 115.817 16.4464"
    fill="currentColor"></path>
  <path
    d="M164.594 9.94914C163.895 8.12063 162.882 6.43058 161.598 4.95699C160.404 3.55184 158.965 2.37679 157.352 1.48917C155.736 0.603675 153.939 0.0989643 152.1 0.0131436C150.261 -0.0726772 148.427 0.262637 146.735 0.993763C144.763 1.8551 143.011 3.1586 141.616 4.80457C138.836 7.84483 137.324 11.8414 137.389 15.9702C137.324 20.0988 138.836 24.0955 141.616 27.1358C143.011 28.7816 144.763 30.0852 146.735 30.9464C148.444 31.6606 150.29 31.986 152.139 31.8992C153.957 31.827 155.737 31.352 157.352 30.5082C158.999 29.6303 160.47 28.4548 161.693 27.0404C162.973 25.5707 163.986 23.8877 164.689 22.0674C165.439 20.1369 165.819 18.0808 165.807 16.0083C165.819 13.9418 165.439 11.892 164.689 9.96816L164.594 9.94914ZM159.001 21.4006C158.994 22.6331 158.886 23.8629 158.678 25.0779C158.475 26.2859 157.966 27.4211 157.2 28.3742C156.561 29.2495 155.677 29.913 154.66 30.2797C153.646 30.6246 152.583 30.7984 151.513 30.7941C150.258 30.8389 149.011 30.5843 147.872 30.051C146.948 29.5784 146.159 28.8767 145.579 28.0122C144.989 27.1177 144.583 26.1136 144.384 25.0588C144.151 23.8666 144.037 22.6538 144.044 21.4385V10.5398C144.047 9.31878 144.16 8.10063 144.384 6.90048C144.595 5.68318 145.103 4.53745 145.864 3.56603C146.493 2.69758 147.364 2.03486 148.366 1.66065C149.374 1.32686 150.432 1.16584 151.493 1.1843C152.744 1.13871 153.987 1.40031 155.115 1.94646C156.021 2.41477 156.791 3.11049 157.352 3.96617C157.948 4.85938 158.362 5.8636 158.565 6.91954C158.815 8.10975 158.935 9.3235 158.925 10.5398L159.001 21.4006Z"
    fill="currentColor"></path>
  <path
    d="M187.156 31.2704V30.1271H191.819L184.672 18.5805L175.99 31.3085H174.397L183.857 17.3991L174.454 1.85112H170.984V0.707886H180.957V1.85112L187.307 12.3499L194.492 1.85112H194.549V0.707886H200.331V1.85112H196.047L188.046 13.5502L198.587 30.1271H202V31.2704H187.156Z"
    fill="currentColor"></path>
  <path
    d="M83.2645 27.6311C82.5255 28.5822 81.5226 29.2918 80.3827 29.6698C79.1067 30.0621 77.7725 30.2296 76.4392 30.1652H71.3775V16.1415C72.7616 16.1415 74.1457 16.1415 75.5104 16.0463C76.6003 15.9615 77.6969 16.0646 78.7523 16.3512C79.7915 16.6106 80.7135 17.2148 81.3684 18.066C82.0018 19.026 82.3386 20.1532 82.3358 21.3052H83.6815V11.2066H82.3735C82.3735 11.359 82.3735 11.5115 82.3735 11.6258C82.3344 11.8263 82.2644 12.0193 82.1648 12.1974L81.8047 12.7119C81.6341 12.9118 81.4761 13.1218 81.3304 13.3407C80.8177 14.0101 80.0853 14.4758 79.2643 14.6554C78.4475 14.9234 77.6001 15.0835 76.7425 15.1317C75.7388 15.1891 74.732 15.1891 73.7283 15.1317C72.7426 15.1317 71.9652 15.0174 71.4155 15.0174V1.92733C73.3113 1.92733 74.9984 1.92733 76.4771 1.92733C77.8102 1.87248 79.1426 2.03988 80.4207 2.42273C81.5606 2.80079 82.5635 3.51033 83.3021 4.46153C84.177 5.72288 84.7897 7.14859 85.1033 8.65339H86.4876L86.165 0.707886H61.1023V1.92733H65.5952V30.1271H61.1023V31.2704H86.165L86.4494 23.8203H84.9516C84.6451 25.19 84.0718 26.4853 83.2645 27.6311Z"
    fill="currentColor"></path>
</svg>