<svg width="96" height="96" viewBox="0 0 96 96" fill="none" xmlns="http://www.w3.org/2000/svg">
<circle cx="48" cy="48" r="48" fill="#0EACE3"/>
<path d="M26.069 68.6443V28.5587H20V27H39.9741V28.5587H33.9051V67.0856H39.9741V68.6443H26.069Z" fill="white"/>
<path d="M75.838 62.1705C75.1386 63.6143 74.1113 64.8694 72.8409 65.833C71.2544 66.9473 69.4578 67.7168 67.5642 68.0929C65.6632 68.4606 63.7344 68.6519 61.7997 68.6643H46.0966V28.6624H39.9744V27H60.4681C62.3558 27.0079 64.2398 27.1642 66.1035 27.4675C67.9987 27.7494 69.8182 28.4117 71.4575 29.4157C72.6533 30.1566 73.6342 31.2051 74.3011 32.4548C74.9499 33.6339 75.3183 34.9503 75.3769 36.2991C75.4089 37.637 75.1551 38.966 74.6338 40.1954C74.0569 41.4968 73.1778 42.6374 72.0722 43.5203C70.8706 44.6103 69.4568 45.4333 67.9219 45.9359C66.3823 46.4333 64.8065 46.8068 63.2093 47.0529C64.743 47.2107 66.2608 47.5062 67.7433 47.936C69.2798 48.3573 70.7469 49.0049 72.0978 49.8582C73.4017 50.654 74.5202 51.7261 75.3769 53.0012C76.2667 54.3424 76.7235 55.9309 76.6836 57.5469C76.7379 59.1322 76.4495 60.7104 75.838 62.1705ZM66.7182 33.5977C66.5375 32.5191 66.0971 31.5023 65.4377 30.6365C64.8097 29.8701 63.9716 29.3097 63.0296 29.0261C62.0135 28.7118 60.9649 28.52 59.904 28.4546C58.8026 28.4546 57.7268 28.4546 56.651 28.4546C55.5747 28.4546 54.6529 28.4546 53.9098 28.4546V46.3516C55.959 46.3516 57.8036 46.3516 59.3917 46.3516C60.8039 46.3466 62.199 46.0459 63.4908 45.4684C64.6375 44.8846 65.5443 43.9097 66.0523 42.715C66.7368 40.8933 67.0418 38.9477 66.949 37.0005C66.9458 35.885 66.8429 34.7723 66.6414 33.6757L66.7182 33.5977ZM63.3884 48.5075C62.3702 48.1489 61.3114 47.9219 60.2372 47.8322C59.1374 47.7412 58.0323 47.7412 56.933 47.8322C55.8055 47.8322 54.8065 47.8322 53.9098 47.8322V67.1058H62.0306C63.0984 67.1266 64.1433 66.7887 65.0021 66.1447C65.8327 65.4418 66.4905 64.5525 66.9234 63.5472C67.399 62.4359 67.7263 61.2654 67.8964 60.0665C68.0376 58.8151 68.0376 57.5515 67.8964 56.3001C67.7823 55.1107 67.5514 53.9359 67.2055 52.7935C66.9165 51.8438 66.4463 50.9611 65.8215 50.1959C65.1333 49.3983 64.2494 48.7982 63.2605 48.4556" fill="white"/>
<rect x="32.9304" y="27.8381" width="14.4069" height="0.818121" fill="white"/>
</svg>
