<svg xmlns="http://www.w3.org/2000/svg" width="512" height="512" viewBox="0 0 512 512" fill="none">
	<path fill-rule="evenodd" clip-rule="evenodd"
		d="M256.003 380.623C232.661 398.969 204.63 410.379 175.111 413.547C145.591 416.715 115.776 411.514 89.0726 398.539C62.3693 385.563 39.8554 365.336 24.1042 340.17C8.353 315.004 0 285.914 0 256.225C0 226.536 8.353 197.446 24.1042 172.28C39.8554 147.114 62.3693 126.887 89.0726 113.912C115.776 100.936 145.591 95.7353 175.111 98.9037C204.629 102.072 232.661 113.481 256.002 131.827C279.342 113.481 307.374 102.072 336.892 98.9036C366.41 95.7353 396.225 100.936 422.928 113.912C449.631 126.888 472.144 147.114 487.894 172.28C503.644 197.447 511.996 226.536 511.995 256.225C511.996 285.913 503.644 315.003 487.894 340.169C472.144 365.335 449.631 385.562 422.928 398.538C396.225 411.513 366.41 416.714 336.892 413.546C307.374 410.378 279.343 398.969 256.003 380.623ZM195.571 256.225C195.549 232.265 200.979 208.613 211.449 187.061C221.919 165.51 237.154 146.623 256.002 131.83C274.833 146.638 290.057 165.528 300.525 187.076C310.993 208.624 316.432 232.268 316.432 256.225C316.432 280.181 310.993 303.825 300.525 325.374C290.057 346.922 274.833 365.812 256.001 380.62C237.154 365.827 221.919 346.94 211.449 325.389C200.979 303.837 195.549 280.186 195.571 256.225ZM281.888 378.943C299.193 389.08 318.513 395.481 338.599 397.637C365.133 400.485 391.933 395.81 415.935 384.147C439.937 372.483 460.174 354.302 474.331 331.681C488.489 309.06 495.996 282.911 495.995 256.225C495.996 229.539 488.489 203.39 474.331 180.769C460.174 158.148 439.937 139.966 415.935 128.303C391.933 116.639 365.133 111.964 338.599 114.812C318.513 116.968 299.193 123.369 281.888 133.507C295.349 147.076 306.522 162.804 314.916 180.084C326.443 203.811 332.432 229.846 332.432 256.225C332.432 282.604 326.443 308.638 314.916 332.365C306.522 349.645 295.349 365.373 281.888 378.943Z"
		fill="black" />
	<path d="M496.905 349.171V354.265H495.783V349.171H493.729V348.134H498.959V349.171H496.905Z" fill="black" />
	<path
		d="M507.06 348.124V354.265H505.929V349.622L504.199 353.626H503.026L501.296 349.632V354.265H500.164V348.124H501.768L503.613 352.348L505.457 348.124H507.06Z"
		fill="black" />
</svg>