<svg width="1842" height="322" viewBox="0 0 1842 322" fill="none" xmlns="http://www.w3.org/2000/svg">
	<rect width="322" height="322" rx="20" fill="#07927B" />
	<mask id="mask0_15_142" style="mask-type:alpha" maskUnits="userSpaceOnUse" x="36" y="43" width="251" height="239">
		<path fill-rule="evenodd" clip-rule="evenodd"
			d="M191.454 134.42L161.929 43.5508L132.404 134.42H36.8584L42.8891 138.802L43.1404 138.456L219.512 266.737L219.327 266.991L239.227 281.449L209.702 190.58L287 134.42H191.454ZM150.26 233.767L109.707 204.272L84.6312 281.449L150.26 233.767Z"
			fill="#07927B" />
	</mask>
	<g mask="url(#mask0_15_142)">
		<path fill-rule="evenodd" clip-rule="evenodd"
			d="M191.454 134.42L161.929 43.5508L132.404 134.42H36.8584L42.8891 138.802L43.1404 138.456L219.512 266.737L219.327 266.991L239.227 281.449L209.702 190.58L287 134.42H191.454ZM150.26 233.767L109.707 204.272L84.6312 281.449L150.26 233.767Z"
			fill="white" />
		<path
			d="M237.375 290.88L41.6331 148.722C39.7976 147.389 37.6009 146.644 35.3332 146.587C24.2833 146.305 19.5404 160.496 28.5392 166.914L225.487 307.397C232.126 312.133 241.36 307.526 241.568 299.373C241.654 296.024 240.086 292.848 237.375 290.88Z"
			fill="#006454" fill-opacity="0.2" />
	</g>
	<rect x="380" width="322" height="322" rx="20" fill="#07927B" />
	<mask id="mask1_15_142" style="mask-type:alpha" maskUnits="userSpaceOnUse" x="416" y="43" width="251" height="239">
		<path fill-rule="evenodd" clip-rule="evenodd"
			d="M571.454 134.42L541.929 43.5508L512.404 134.42H416.858L422.889 138.802L423.14 138.456L599.512 266.737L599.327 266.991L619.227 281.449L589.702 190.58L667 134.42H571.454ZM530.26 233.767L489.707 204.272L464.631 281.449L530.26 233.767Z"
			fill="#07927B" />
	</mask>
	<g mask="url(#mask1_15_142)">
		<path fill-rule="evenodd" clip-rule="evenodd"
			d="M571.454 134.42L541.929 43.5508L512.404 134.42H416.858L422.889 138.802L423.14 138.456L599.512 266.737L599.327 266.991L619.227 281.449L589.702 190.58L667 134.42H571.454ZM530.26 233.767L489.707 204.272L464.631 281.449L530.26 233.767Z"
			fill="white" />
		<path
			d="M617.375 290.88L421.633 148.722C419.798 147.389 417.601 146.644 415.333 146.587C404.283 146.305 399.54 160.496 408.539 166.914L605.487 307.397C612.126 312.133 621.36 307.526 621.568 299.373C621.654 296.024 620.086 292.848 617.375 290.88Z"
			fill="#006454" fill-opacity="0.2" />
	</g>
	<rect x="760" width="322" height="322" rx="20" fill="#07927B" />
	<mask id="mask2_15_142" style="mask-type:alpha" maskUnits="userSpaceOnUse" x="796" y="43" width="251" height="239">
		<path fill-rule="evenodd" clip-rule="evenodd"
			d="M951.454 134.42L921.929 43.5508L892.404 134.42H796.858L802.889 138.802L803.14 138.456L979.512 266.737L979.327 266.991L999.227 281.449L969.702 190.58L1047 134.42H951.454ZM910.26 233.767L869.707 204.272L844.631 281.449L910.26 233.767Z"
			fill="#07927B" />
	</mask>
	<g mask="url(#mask2_15_142)">
		<path fill-rule="evenodd" clip-rule="evenodd"
			d="M951.454 134.42L921.929 43.5508L892.404 134.42H796.858L802.889 138.802L803.14 138.456L979.512 266.737L979.327 266.991L999.227 281.449L969.702 190.58L1047 134.42H951.454ZM910.26 233.767L869.707 204.272L844.631 281.449L910.26 233.767Z"
			fill="white" />
		<path
			d="M997.375 290.88L801.633 148.722C799.798 147.389 797.601 146.644 795.333 146.587C784.283 146.305 779.54 160.496 788.539 166.914L985.487 307.397C992.126 312.133 1001.36 307.526 1001.57 299.373C1001.65 296.024 1000.09 292.848 997.375 290.88Z"
			fill="#006454" fill-opacity="0.2" />
	</g>
	<rect x="1140" width="322" height="322" rx="20" fill="#07927B" />
	<mask id="mask3_15_142" style="mask-type:alpha" maskUnits="userSpaceOnUse" x="1176" y="43" width="251" height="239">
		<path fill-rule="evenodd" clip-rule="evenodd"
			d="M1331.45 134.42L1301.93 43.5508L1272.4 134.42H1176.86L1182.89 138.802L1183.14 138.456L1359.51 266.737L1359.33 266.991L1379.23 281.449L1349.7 190.58L1427 134.42H1331.45ZM1290.26 233.767L1249.71 204.272L1224.63 281.449L1290.26 233.767Z"
			fill="#07927B" />
	</mask>
	<g mask="url(#mask3_15_142)">
		<path fill-rule="evenodd" clip-rule="evenodd"
			d="M1331.45 134.42L1301.93 43.5508L1272.4 134.42H1176.86L1182.89 138.802L1183.14 138.456L1359.51 266.737L1359.33 266.991L1379.23 281.449L1349.7 190.58L1427 134.42H1331.45ZM1290.26 233.767L1249.71 204.272L1224.63 281.449L1290.26 233.767Z"
			fill="white" />
		<path
			d="M1377.38 290.88L1181.63 148.722C1179.8 147.389 1177.6 146.644 1175.33 146.587C1164.28 146.305 1159.54 160.496 1168.54 166.914L1365.49 307.397C1372.13 312.133 1381.36 307.526 1381.57 299.373C1381.65 296.024 1380.09 292.848 1377.38 290.88Z"
			fill="#006454" fill-opacity="0.2" />
	</g>
	<rect x="1520" width="322" height="322" rx="20" fill="#07927B" />
	<mask id="mask4_15_142" style="mask-type:alpha" maskUnits="userSpaceOnUse" x="1556" y="43" width="251" height="239">
		<path fill-rule="evenodd" clip-rule="evenodd"
			d="M1711.45 134.42L1681.93 43.5508L1652.4 134.42H1556.86L1562.89 138.802L1563.14 138.456L1739.51 266.737L1739.33 266.991L1759.23 281.449L1729.7 190.58L1807 134.42H1711.45ZM1670.26 233.767L1629.71 204.272L1604.63 281.449L1670.26 233.767Z"
			fill="#07927B" />
	</mask>
	<g mask="url(#mask4_15_142)">
		<path fill-rule="evenodd" clip-rule="evenodd"
			d="M1711.45 134.42L1681.93 43.5508L1652.4 134.42H1556.86L1562.89 138.802L1563.14 138.456L1739.51 266.737L1739.33 266.991L1759.23 281.449L1729.7 190.58L1807 134.42H1711.45ZM1670.26 233.767L1629.71 204.272L1604.63 281.449L1670.26 233.767Z"
			fill="white" />
		<path
			d="M1757.38 290.88L1561.63 148.722C1559.8 147.389 1557.6 146.644 1555.33 146.587C1544.28 146.305 1539.54 160.496 1548.54 166.914L1745.49 307.397C1752.13 312.133 1761.36 307.526 1761.57 299.373C1761.65 296.024 1760.09 292.848 1757.38 290.88Z"
			fill="#006454" fill-opacity="0.2" />
	</g>
</svg>