<svg xmlns="http://www.w3.org/2000/svg" width="98" height="23" viewBox="0 0 98 23" fill="none">
  <path fill-rule="evenodd" clip-rule="evenodd"
    d="M30.6699 3.71503C30.3109 2.37166 29.2528 1.31382 27.9094 0.954784C25.4745 0.302246 15.7111 0.302246 15.7111 0.302246C15.7111 0.302246 5.94775 0.302246 3.51288 0.954784C2.16951 1.31382 1.11142 2.37166 0.752378 3.71503C0.100098 6.1499 0.100098 11.2301 0.100098 11.2301C0.100098 11.2301 0.100098 16.3104 0.752378 18.745C1.11142 20.0886 2.16951 21.1467 3.51288 21.5055C5.94775 22.158 15.7111 22.158 15.7111 22.158C15.7111 22.158 25.4745 22.158 27.9094 21.5055C29.2528 21.1467 30.3109 20.0883 30.6699 18.745C31.3224 16.3104 31.3224 11.2301 31.3224 11.2301C31.3224 11.2301 31.3224 6.1499 30.6699 3.71503Z"
    fill="#FF0000" />
  <path fill-rule="evenodd" clip-rule="evenodd"
    d="M12.5894 15.9135L20.701 11.2301L12.5894 6.54639V15.9135Z" fill="white" />
  <path fill-rule="evenodd" clip-rule="evenodd"
    d="M45.4192 20.1852C44.8014 19.7689 44.3622 19.121 44.1021 18.2425C43.8415 17.3646 43.7112 16.196 43.7112 14.737V12.7501C43.7112 11.2764 43.8597 10.0929 44.1578 9.20004C44.4552 8.30694 44.9204 7.65569 45.5531 7.24628C46.1856 6.83713 47.0157 6.63229 48.0427 6.63229C49.0548 6.63229 49.8659 6.84072 50.4763 7.25759C51.0867 7.67419 51.5331 8.3257 51.8161 9.21109C52.0985 10.0967 52.2404 11.2764 52.2404 12.7503V14.7372C52.2404 16.1962 52.1027 17.3684 51.8274 18.2541C51.5519 19.1395 51.1052 19.7874 50.4876 20.1965C49.8698 20.606 49.0325 20.8105 47.9757 20.8105C46.889 20.81 46.0368 20.6018 45.4192 20.1852ZM48.8801 18.0415C49.051 17.5954 49.1368 16.866 49.1368 15.8537V11.5886C49.1368 10.6064 49.051 9.8883 48.8801 9.43417C48.7086 8.9803 48.4072 8.7531 47.9757 8.7531C47.5588 8.7531 47.2648 8.9803 47.0939 9.43417C46.9225 9.8883 46.8371 10.6064 46.8371 11.5886V15.8537C46.8371 16.8657 46.9186 17.5951 47.0826 18.0415C47.2463 18.4882 47.5439 18.711 47.9757 18.711C48.4072 18.711 48.7086 18.4882 48.8801 18.0415ZM92.8422 14.7699V15.4617C92.8422 16.3402 92.8679 16.9989 92.9203 17.4378C92.9722 17.8771 93.0799 18.197 93.2444 18.398C93.4081 18.5985 93.6605 18.6995 94.0033 18.6995C94.4647 18.6995 94.7808 18.5209 94.9519 18.1634C95.1228 17.8059 95.2161 17.2109 95.231 16.3772L97.8882 16.5334C97.9034 16.6529 97.9106 16.8167 97.9106 17.0243C97.9106 18.2901 97.5644 19.2353 96.8723 19.8604C96.1807 20.4854 95.2012 20.7979 93.9363 20.7979C92.4181 20.7979 91.3536 20.3217 90.7432 19.3687C90.1326 18.4163 89.8278 16.9428 89.8278 14.948V12.5586C89.8278 10.5043 90.1436 9.00497 90.7766 8.0597C91.4091 7.11469 92.4921 6.64206 94.0257 6.64206C95.082 6.64206 95.8936 6.83558 96.4593 7.22238C97.0247 7.60969 97.4231 8.21262 97.6536 9.03093C97.8844 9.84975 98 10.9813 98 12.4249V14.7694H92.8422V14.7699ZM93.2328 9.00908C93.0768 9.20261 92.972 9.51898 92.9201 9.95795C92.8676 10.3972 92.8419 11.0631 92.8419 11.9562V12.9387H95.0969V11.9562C95.0969 11.0782 95.0671 10.4121 95.0075 9.95795C94.9481 9.50408 94.8404 9.1841 94.6836 8.99803C94.5274 8.8117 94.2855 8.71867 93.9581 8.71867C93.6307 8.71867 93.3891 8.81607 93.2328 9.00908ZM37.9162 14.5134L34.4106 1.85327H37.4695L38.6975 7.5917C39.0103 9.006 39.2408 10.2116 39.3896 11.2088H39.4791C39.5831 10.4943 39.8139 9.29616 40.1712 7.61405L41.4439 1.85327H44.5027L40.9527 14.5134V20.5869H37.9162V14.5134ZM62.1889 6.90009V20.5869H59.7774L59.5093 18.9123H59.4425C58.7874 20.1775 57.8048 20.81 56.4951 20.81C55.5871 20.81 54.9171 20.5127 54.4856 19.9169C54.0539 19.3217 53.8382 18.3911 53.8382 17.1261V6.89984H56.9192V16.9472C56.9192 17.5579 56.9865 17.993 57.1202 18.2533C57.2541 18.5142 57.4772 18.6442 57.7899 18.6442C58.058 18.6442 58.3147 18.5628 58.5602 18.3985C58.8059 18.2348 58.9881 18.0266 59.1074 17.7735V6.89984H62.1889V6.90009ZM77.9937 6.90009V20.5869H75.5822L75.3141 18.9123H75.2473C74.592 20.1775 73.6097 20.81 72.3 20.81C71.392 20.81 70.722 20.5127 70.2904 19.9169C69.8587 19.3217 69.643 18.3911 69.643 17.1261V6.89984H72.724V16.9472C72.724 17.5579 72.7911 17.993 72.9247 18.2533C73.0589 18.5142 73.282 18.6442 73.5948 18.6442C73.8628 18.6442 74.1196 18.5628 74.365 18.3985C74.6107 18.2348 74.7927 18.0266 74.9122 17.7735V6.89984H77.9937V6.90009Z"
    fill="#282828" />
  <path fill-rule="evenodd" clip-rule="evenodd"
    d="M70.5614 4.3323H67.5027V20.5869H64.4883V4.3323H61.4297V1.85374H70.5614V4.3323ZM88.1912 9.08793C88.0051 8.22491 87.7039 7.59961 87.287 7.21231C86.8702 6.82577 86.2965 6.63199 85.5677 6.63199C85.002 6.63199 84.4736 6.7921 83.9825 7.11207C83.4913 7.43205 83.1117 7.85277 82.8439 8.37372H82.8213L82.8216 1.16162H79.8516V20.5869H82.3967L82.7095 19.2918H82.7768C83.0148 19.7532 83.3716 20.1181 83.8486 20.3862C84.3245 20.654 84.8532 20.7879 85.434 20.7879C86.4754 20.7879 87.2423 20.3078 87.7332 19.3476C88.2243 18.3874 88.47 16.8881 88.47 14.8482V12.6827C88.4703 11.1499 88.3775 9.95122 88.1912 9.08793ZM85.3669 14.6709C85.3669 15.6683 85.3261 16.4499 85.2438 17.0153C85.1621 17.5812 85.0244 17.9832 84.8308 18.2206C84.6373 18.4591 84.3764 18.5781 84.0495 18.5781C83.7966 18.5781 83.5622 18.519 83.3466 18.3995C83.1305 18.2805 82.9557 18.1022 82.8218 17.8637V10.0936C82.9254 9.72171 83.1043 9.41639 83.3577 9.17814C83.6103 8.94041 83.8856 8.82091 84.1837 8.82091C84.4962 8.82091 84.738 8.94375 84.9095 9.18919C85.0804 9.43489 85.1996 9.8479 85.2665 10.4287C85.3335 11.0091 85.3672 11.8351 85.3672 12.9068V14.6709H85.3669Z"
    fill="#282828" />
</svg>