<svg xmlns="http://www.w3.org/2000/svg" width="100%" height="100%" viewBox="0 0 512 512" fill="none">
  <path
    d="M512 259.08C512 222.671 494.364 193.942 460.658 193.942C426.809 193.942 406.329 222.671 406.329 258.796C406.329 301.604 430.507 323.222 465.209 323.222C482.133 323.222 494.933 319.382 504.604 313.978V285.533C494.933 290.369 483.84 293.356 469.76 293.356C455.964 293.356 443.733 288.52 442.169 271.738H511.716C511.716 269.889 512 262.493 512 259.08ZM441.742 245.569C441.742 229.498 451.556 222.813 460.516 222.813C469.191 222.813 478.436 229.498 478.436 245.569H441.742ZM351.431 193.942C337.493 193.942 328.533 200.484 323.556 205.036L321.707 196.218H290.418V362.049L325.973 354.511L326.116 314.262C331.236 317.96 338.773 323.222 351.289 323.222C376.747 323.222 399.929 302.742 399.929 257.658C399.787 216.413 376.32 193.942 351.431 193.942ZM342.898 291.933C334.507 291.933 329.529 288.947 326.116 285.249L325.973 232.484C329.671 228.36 334.791 225.516 342.898 225.516C355.84 225.516 364.8 240.022 364.8 258.653C364.8 277.711 355.982 291.933 342.898 291.933ZM241.493 185.551L277.191 177.871V149L241.493 156.538V185.551ZM241.493 196.36H277.191V320.804H241.493V196.36ZM203.236 206.884L200.96 196.36H170.24V320.804H205.796V236.467C214.187 225.516 228.409 227.507 232.818 229.071V196.36C228.267 194.653 211.627 191.524 203.236 206.884ZM132.124 165.498L97.4222 172.893L97.28 286.813C97.28 307.862 113.067 323.364 134.116 323.364C145.778 323.364 154.311 321.231 159.004 318.671V289.8C154.453 291.649 131.982 298.191 131.982 277.142V226.653H159.004V196.36H131.982L132.124 165.498ZM35.9822 232.484C35.9822 226.938 40.5333 224.804 48.0711 224.804C58.88 224.804 72.5333 228.076 83.3422 233.907V200.484C71.5378 195.791 59.8756 193.942 48.0711 193.942C19.2 193.942 0 209.018 0 234.191C0 273.444 54.0444 267.187 54.0444 284.111C54.0444 290.653 48.3556 292.787 40.3911 292.787C28.5867 292.787 13.5111 287.951 1.56444 281.409V315.258C14.7911 320.947 28.16 323.364 40.3911 323.364C69.9733 323.364 90.3111 308.716 90.3111 283.258C90.1689 240.876 35.9822 248.413 35.9822 232.484Z"
    fill="currentColor" />
</svg>