<svg xmlns="http://www.w3.org/2000/svg" width="100%" height="100%" viewBox="0 0 512 512" fill="none">
  <path opacity="0.7"
    d="M345.495 188.005H305.665C302.946 188.005 300.628 189.985 300.203 192.675L284.097 294.794C283.776 296.809 285.337 298.626 287.369 298.626H307.808C309.706 298.626 311.331 297.24 311.628 295.353L316.199 266.407C316.618 263.711 318.942 261.731 321.661 261.731H334.262C360.501 261.731 375.635 249.037 379.595 223.881C381.382 212.876 379.664 204.228 374.511 198.172C368.857 191.522 358.824 188.005 345.495 188.005ZM350.089 225.302C347.917 239.592 336.999 239.592 326.436 239.592H320.433L324.654 212.905C324.905 211.292 326.29 210.104 327.927 210.104H330.681C337.867 210.104 344.656 210.104 348.162 214.203C350.252 216.649 350.887 220.282 350.089 225.302Z"
    fill="currentColor" />
  <path opacity="0.7"
    d="M464.528 224.843H445.47C443.833 224.843 442.442 226.03 442.197 227.643L441.353 232.977L440.013 231.044C435.885 225.052 426.684 223.049 417.496 223.049C396.422 223.049 378.429 239.01 374.923 261.4C373.107 272.568 375.686 283.248 382.022 290.695C387.845 297.543 396.148 300.396 406.042 300.396C423.022 300.396 432.438 289.478 432.438 289.478L431.587 294.777C431.267 296.804 432.828 298.62 434.872 298.62H452.044C454.763 298.62 457.081 296.641 457.506 293.945L467.818 228.674C468.133 226.665 466.572 224.843 464.528 224.843ZM437.946 261.959C436.118 272.853 427.459 280.167 416.43 280.167C410.904 280.167 406.467 278.391 403.625 275.025C400.807 271.683 399.747 266.926 400.632 261.627C402.362 250.825 411.143 243.272 422.003 243.272C427.418 243.272 431.82 245.072 434.72 248.467C437.638 251.896 438.791 256.683 437.946 261.959Z"
    fill="currentColor" />
  <path opacity="0.7"
    d="M487.012 190.807L470.667 294.794C470.347 296.809 471.907 298.626 473.94 298.626H490.372C493.103 298.626 495.421 296.646 495.84 293.95L511.958 191.837C512.278 189.823 510.718 188 508.686 188H490.285C488.66 188.006 487.263 189.194 487.012 190.807Z"
    fill="currentColor" />
  <path
    d="M61.4399 188.005H21.6162C18.891 188.005 16.5734 189.985 16.1483 192.675L0.0418073 294.794C-0.27846 296.809 1.28211 298.626 3.32599 298.626H22.3382C25.0634 298.626 27.381 296.646 27.806 293.95L32.15 266.407C32.5693 263.711 34.8927 261.731 37.612 261.731H50.2189C76.4517 261.731 91.5916 249.037 95.5454 223.881C97.3273 212.876 95.6211 204.228 90.4677 198.172C84.8077 191.522 74.7688 188.005 61.4399 188.005ZM66.0343 225.302C63.8564 239.592 52.9383 239.592 42.3811 239.592H36.3717L40.5876 212.905C40.838 211.292 42.2355 210.104 43.866 210.104H46.6203C53.8117 210.104 60.5955 210.104 64.101 214.203C66.1915 216.649 66.832 220.282 66.0343 225.302Z"
    fill="currentColor" />
  <path
    d="M180.481 224.843H161.411C159.786 224.843 158.383 226.03 158.132 227.643L157.288 232.977L155.955 231.044C151.826 225.052 142.62 223.049 133.431 223.049C112.357 223.049 94.3585 239.01 90.853 261.4C89.0304 272.568 91.6217 283.248 97.9571 290.695C103.769 297.543 112.084 300.396 121.977 300.396C138.957 300.396 148.373 289.478 148.373 289.478L147.523 294.777C147.203 296.804 148.763 298.62 150.795 298.62H167.973C170.704 298.62 173.01 296.641 173.441 293.945L183.748 228.674C184.074 226.665 182.519 224.843 180.481 224.843ZM153.899 261.959C152.059 272.853 143.412 280.167 132.383 280.167C126.845 280.167 122.42 278.391 119.578 275.025C116.76 271.683 115.688 266.926 116.585 261.627C118.303 250.825 127.096 243.272 137.956 243.272C143.371 243.272 147.773 245.072 150.673 248.467C153.579 251.896 154.732 256.683 153.899 261.959Z"
    fill="currentColor" />
  <path
    d="M282.047 224.842H262.883C261.055 224.842 259.337 225.75 258.3 227.27L231.87 266.203L220.666 228.79C219.961 226.449 217.801 224.842 215.355 224.842H196.524C194.235 224.842 192.646 227.078 193.373 229.232L214.482 291.178L194.637 319.192C193.077 321.399 194.649 324.433 197.345 324.433H216.485C218.302 324.433 220.002 323.548 221.033 322.057L284.772 230.053C286.298 227.852 284.731 224.842 282.047 224.842Z"
    fill="currentColor" />
</svg>