<svg width="24" height="24" viewBox="0 0 24 24" fill="none" xmlns="http://www.w3.org/2000/svg">
  <path
    d="M5 9.00391C4.5858 9.00391 4.25 9.33969 4.25 9.7539V15.75C4.25 16.164 4.5854 16.4997 4.9994 16.5L9.9994 16.5039C10.1984 16.5041 10.3893 16.4251 10.5301 16.2844C10.6709 16.1438 10.75 15.9529 10.75 15.7539V9.7539C10.75 9.55499 10.671 9.36423 10.5303 9.22358C10.3897 9.08292 10.1989 9.00391 10 9.00391H5Z"
    fill="currentColor" />
  <path
    d="M14 3C13.5858 3 13.25 3.33579 13.25 3.75V15.75C13.25 16.1642 13.5858 16.5 14 16.5H19C19.4142 16.5 19.75 16.1642 19.75 15.75V3.75C19.75 3.55109 19.671 3.36032 19.5303 3.21967C19.3897 3.07902 19.1989 3 19 3H14Z"
    fill="currentColor" />
  <path fill-rule="evenodd" clip-rule="evenodd" d="M22 18.5H2V20.5H22V18.5Z" fill="currentColor" />
</svg>