<svg width="24" height="24" viewBox="0 0 24 24" fill="none" xmlns="http://www.w3.org/2000/svg">
  <path
    d="M19 9.00391C19.4142 9.00391 19.75 9.33969 19.75 9.7539V15.75C19.75 16.164 19.4146 16.4997 19.0006 16.5L14.0006 16.5039C13.8016 16.5041 13.6107 16.4251 13.4699 16.2844C13.3291 16.1438 13.25 15.9529 13.25 15.7539V9.7539C13.25 9.55499 13.329 9.36423 13.4697 9.22358C13.6103 9.08292 13.8011 9.00391 14 9.00391H19Z"
    fill="currentColor" />
  <path
    d="M10 3C10.4142 3 10.75 3.33579 10.75 3.75V15.75C10.75 16.1642 10.4142 16.5 10 16.5H5C4.58579 16.5 4.25 16.1642 4.25 15.75V3.75C4.25 3.55109 4.32902 3.36032 4.46967 3.21967C4.61032 3.07902 4.80109 3 5 3H10Z"
    fill="currentColor" />
  <path fill-rule="evenodd" clip-rule="evenodd" d="M2 18.5H22V20.5H2V18.5Z" fill="currentColor" />
</svg>