<svg width="154" height="154" viewBox="0 0 154 154" fill="none" xmlns="http://www.w3.org/2000/svg">
<path d="M77 2L114.5 12.0481L141.952 39.5L152 77L141.952 114.5L114.5 141.952L77 152L39.5 141.952L12.0481 114.5L2 77L12.0481 39.5L39.5 12.0481L77 2Z" stroke="#171C29" stroke-width="2"/>
<path d="M77 30.9287L116.899 53.9644V100.036L77 123.072L37.101 100.036V53.9644L77 30.9287Z" stroke="#171C29" stroke-width="2"/>
<path d="M39.5 12.1787L77 30.9287" stroke="#171C29" stroke-width="2"/>
<path d="M39.5 12.1787L77 30.9287" stroke="#171C29" stroke-width="2"/>
<path d="M77 30.9287L114.5 12.1787" stroke="#171C29" stroke-width="2"/>
<path d="M77 2V30.3929" stroke="#171C29" stroke-width="2"/>
<path d="M39.5 141.821L77 123.071" stroke="#171C29" stroke-width="2"/>
<path d="M77 123.071L114.5 141.821" stroke="#171C29" stroke-width="2"/>
<path d="M77 152V123.607" stroke="#171C29" stroke-width="2"/>
<path d="M117.179 53.9643L141.821 39.5" stroke="#171C29" stroke-width="2"/>
<path d="M117.179 100.572L141.821 115.036" stroke="#171C29" stroke-width="2"/>
<path d="M152 76.4639H117.179" stroke="#171C29" stroke-width="2"/>
<path d="M36.8214 53.9643L12.1786 39.5" stroke="#171C29" stroke-width="2"/>
<path d="M36.8214 100.572L12.1786 115.036" stroke="#171C29" stroke-width="2"/>
<path d="M1.99998 76.4639H36.8214" stroke="#171C29" stroke-width="2"/>
<path d="M117.179 53.4287C117.179 53.4287 130.571 54.5001 130.571 77.0001C130.571 99.5001 117.179 100.572 117.179 100.572" stroke="#171C29" stroke-width="2"/>
<path d="M37.8929 53.4287C37.8929 53.4287 24.5 54.5001 24.5 77.0001C24.5 99.5001 37.8929 100.572 37.8929 100.572" stroke="#171C29" stroke-width="2"/>
<path d="M77.5358 2.53516L94.6786 21.2852" stroke="#171C29" stroke-width="2"/>
<path d="M77.0001 2.53516L59.8572 21.2852" stroke="#171C29" stroke-width="2"/>
<path d="M77.0001 150.394L94.1429 131.644" stroke="#171C29" stroke-width="2"/>
<path d="M77.0001 150.394L59.8572 131.644" stroke="#171C29" stroke-width="2"/>
<path d="M130.571 75.9277L147.714 58.7849" stroke="#171C29" stroke-width="2"/>
<path d="M130.571 76.999L147.714 94.1419" stroke="#171C29" stroke-width="2"/>
<path d="M24.5 75.9277L7.35714 58.7849" stroke="#171C29" stroke-width="2"/>
<path d="M24.5 76.999L7.35714 94.1419" stroke="#171C29" stroke-width="2"/>
<path d="M117.179 53.9641L95.2143 21.8213L140.75 39.4999" stroke="#171C29" stroke-width="2" stroke-linejoin="bevel"/>
<path d="M36.2857 53.9641L58.25 21.8213L12.7143 39.4999" stroke="#171C29" stroke-width="2" stroke-linejoin="bevel"/>
<path d="M117.179 99.5007L95.2143 131.644L140.75 113.965" stroke="#171C29" stroke-width="2" stroke-linejoin="bevel"/>
<path d="M36.2857 99.5007L58.25 131.644L12.7143 113.965" stroke="#171C29" stroke-width="2" stroke-linejoin="bevel"/>
</svg>
