<svg width="485" height="534" viewBox="0 0 485 534" fill="none" xmlns="http://www.w3.org/2000/svg">
<mask id="mask0_63_2" style="mask-type:alpha" maskUnits="userSpaceOnUse" x="1" y="21" width="484" height="489">
<rect x="1" y="21.696" width="484" height="487.315" fill="url(#paint0_radial_63_2)"/>
</mask>
<g mask="url(#mask0_63_2)">
<path d="M108.556 25.011V509.011" stroke="#0995C6" stroke-opacity="0.19"/>
<path d="M189.222 25.011V509.011" stroke="#0995C6" stroke-opacity="0.71"/>
<path d="M323.667 25.011V509.011" stroke="#0995C6" stroke-opacity="0.19"/>
<path d="M431.222 25.011V509.011" stroke="#0995C6" stroke-opacity="0.19"/>
<path d="M27.8889 25.011V509.011" stroke="#0995C6" stroke-opacity="0.19"/>
<path d="M135.444 25.011V509.011" stroke="#0995C6" stroke-opacity="0.19"/>
<path d="M243 25.011V509.011" stroke="#0995C6" stroke-opacity="0.19"/>
<path d="M350.556 25.011V509.011" stroke="#0995C6" stroke-opacity="0.19"/>
<path d="M458.111 25.011V509.011" stroke="#0995C6" stroke-opacity="0.19"/>
<path d="M54.7777 25.011V509.011" stroke="#0995C6" stroke-opacity="0.19"/>
<path d="M162.333 25.011V509.011" stroke="#0995C6" stroke-opacity="0.19"/>
<path d="M269.889 25.011V509.011" stroke="#0995C6" stroke-opacity="0.19"/>
<path d="M377.444 25.011V509.011" stroke="#0995C6" stroke-opacity="0.19"/>
<path d="M81.6666 25.011V509.011" stroke="#0995C6" stroke-opacity="0.71"/>
<path d="M216.111 25.011V509.011" stroke="#0995C6" stroke-opacity="0.19"/>
<path d="M296.778 25.011V509.011" stroke="#0995C6" stroke-opacity="0.71"/>
<path d="M404.333 25.011V509.011" stroke="#0995C6" stroke-opacity="0.71"/>
<path d="M485 132.567L0.999982 132.567" stroke="#0995C6" stroke-opacity="0.19"/>
<path d="M485 213.233L0.999982 213.233" stroke="#0995C6" stroke-opacity="0.71"/>
<path d="M485 347.678L0.999982 347.678" stroke="#0995C6" stroke-opacity="0.19"/>
<path d="M485 455.233L0.999982 455.233" stroke="#0995C6" stroke-opacity="0.19"/>
<path d="M485 51.9L0.999982 51.9" stroke="#0995C6" stroke-opacity="0.19"/>
<path d="M485 159.456L0.999982 159.456" stroke="#0995C6" stroke-opacity="0.19"/>
<path d="M485 267.011L0.999982 267.011" stroke="#0995C6" stroke-opacity="0.19"/>
<path d="M485 374.567L0.999982 374.567" stroke="#0995C6" stroke-opacity="0.19"/>
<path d="M485 482.122L0.999982 482.122" stroke="#0995C6" stroke-opacity="0.19"/>
<path d="M485 78.7888L0.999982 78.7888" stroke="#0995C6" stroke-opacity="0.19"/>
<path d="M485 186.344L0.999982 186.344" stroke="#0995C6" stroke-opacity="0.19"/>
<path d="M485 293.9L0.999982 293.9" stroke="#0995C6" stroke-opacity="0.19"/>
<path d="M485 401.456L0.999982 401.456" stroke="#0995C6" stroke-opacity="0.19"/>
<path d="M485 105.678L0.999982 105.678" stroke="#0995C6" stroke-opacity="0.71"/>
<path d="M485 240.122L0.999982 240.122" stroke="#0995C6" stroke-opacity="0.19"/>
<path d="M485 320.789L0.999982 320.789" stroke="#0995C6" stroke-opacity="0.71"/>
<path d="M485 428.344L0.999982 428.344" stroke="#0995C6" stroke-opacity="0.71"/>
</g>
<path d="M303.83 331.727C306.19 328.594 308.786 325.149 311.146 322.016C316.573 314.812 322.314 307.844 326.88 300.48C331.445 293.117 333.895 284.651 334.307 275.632C334.963 262.378 336.551 253.753 336.967 242.773C337.537 232.891 338.181 225.519 337.417 216.105C336.954 212.81 336.49 209.515 335.713 205.983C330.809 189.03 333.825 172.643 333.911 169.271C334.996 139.153 289.127 167.448 296.499 203.937C297.353 208.018 299.07 212.257 299.688 216.651C301.859 228.107 298.225 240.1 292.085 250.205C287.24 241.645 282.396 233.085 279.984 223.902C279.362 221.47 278.427 218.801 277.255 216.445C275.771 213.853 273.501 211.652 270.995 209.764C255.805 197.338 236.603 190.237 217.23 189.881C212.995 189.637 208.837 189.941 204.838 189.384C195.901 187.56 188.31 179.386 186.761 170.363C186.22 166.518 186.151 162.047 183.568 159.61C182.238 158.117 180.2 157.563 178.475 157.246C162.402 154.465 153.503 170.839 145.243 181.802C140.523 188.067 136.194 195.117 132.332 203.501C129.732 208.908 128.857 214.632 128.844 220.515C128.895 232.829 127.686 248.122 128.376 255.026C130.295 274.639 132.457 290.018 133.685 302.727C134.994 314.025 137.401 325.168 140.907 336.157C141.919 339.375 149.18 355.157 140.332 383.845C135.673 398.503 133.6 413.637 131.421 441.948C130.859 447.907 134.455 453.563 139.625 456.476C156.939 466.083 201.615 481.083 244.077 468.391C249.179 466.833 253.654 464.803 257.662 461.439C267.329 452.518 267.668 440.989 267.462 427.576C267.59 404.594 274.228 382.097 284.783 361.57C289.825 351.619 296.514 341.437 303.83 331.727Z" fill="url(#paint1_linear_63_2)"/>
<path d="M196.569 132.578C205.129 127.733 237.19 136.666 238.117 143.257C239.044 149.848 238.388 163.102 236.178 169.294C231.201 185.676 208.46 219.12 206.963 222.411C199.239 239.179 147.08 238.674 148.701 214.362C149.023 210.676 151.473 202.21 157.532 193.517C170.044 174.954 185.653 138.594 196.569 132.578Z" fill="url(#paint2_linear_63_2)"/>
<path d="M229.626 116.727C238.503 110.157 271.041 116.503 271.809 123.956C272.577 131.409 271.603 146.389 269.548 153.679C264.095 172.649 240.397 213.227 238.663 216.832C230.541 236.737 177.82 242.191 179.763 214.194C180.008 209.958 183.088 200.004 188.915 189.663C201.749 167.415 218.706 124.703 229.626 116.727Z" fill="url(#paint3_linear_63_2)"/>
<path d="M296.366 157.188C297.726 144.955 298.944 89.8948 298.905 71.6974C298.84 65.2654 300.874 31.9341 279.699 30.7115C262.209 29.8107 263.175 54.5988 257.85 86.4326C251.174 126.578 244.395 177.939 240.68 191.344C236.175 207.1 227.589 223.71 233.36 238.861C239.131 254.011 251.888 267.06 271.639 274.084C278.693 276.452 297.204 276.649 297.929 267.866C298.011 266.454 293.574 250.836 291.973 229.497C290.621 201.963 295.087 168.01 296.366 157.188Z" fill="url(#paint4_linear_63_2)"/>
<path fill-rule="evenodd" clip-rule="evenodd" d="M244.771 129.552C244.425 129.639 244.081 129.727 243.74 129.817C242.676 130.098 241.638 130.395 240.626 130.707C233.556 132.887 227.893 135.767 224.06 138.988C220.219 142.215 218.478 145.537 218.478 148.69C218.478 153.758 223.107 159.298 232.839 163.742C242.311 168.067 255.603 170.82 270.442 170.82V176.703C254.957 176.703 240.796 173.843 230.396 169.094C220.257 164.464 212.595 157.469 212.595 148.69C212.595 143.187 215.658 138.364 220.275 134.484C224.9 130.599 231.349 127.411 238.893 125.086C239.983 124.749 241.099 124.431 242.238 124.13C242.603 124.033 242.97 123.939 243.34 123.846L244.771 129.552ZM307.869 127.163C307.272 126.918 306.324 126.575 305.295 126.287C304.31 126.012 303.011 125.719 301.817 125.719V131.601C302.191 131.601 302.866 131.717 303.712 131.953C304.508 132.176 305.242 132.444 305.64 132.607L305.64 132.607L305.66 132.615C306.347 132.892 307.016 133.176 307.667 133.468C310.053 134.535 312.184 135.693 314.036 136.918C319.787 140.722 322.406 144.845 322.406 148.69H328.289C328.289 141.97 323.751 136.291 317.281 132.011C315.125 130.585 312.705 129.277 310.069 128.098C309.352 127.777 308.618 127.465 307.869 127.163Z" fill="#171C29"/>
<path fill-rule="evenodd" clip-rule="evenodd" d="M254.873 154.033L274.601 173.761L254.873 193.489L250.714 189.329L266.282 173.761L250.714 158.193L254.873 154.033Z" fill="#171C29"/>
<defs>
<radialGradient id="paint0_radial_63_2" cx="0" cy="0" r="1" gradientUnits="userSpaceOnUse" gradientTransform="translate(243 265.354) rotate(90) scale(243.658 242)">
<stop offset="0.359375" stop-color="#D9D9D9"/>
<stop offset="1" stop-color="#D9D9D9" stop-opacity="0"/>
</radialGradient>
<linearGradient id="paint1_linear_63_2" x1="284.994" y1="238.594" x2="345.467" y2="179.625" gradientUnits="userSpaceOnUse">
<stop stop-color="#9EDAEF"/>
<stop offset="0.3316" stop-color="#82D3EF"/>
<stop offset="0.7346" stop-color="#39B4DF"/>
<stop offset="1" stop-color="#37AFD9"/>
</linearGradient>
<linearGradient id="paint2_linear_63_2" x1="177.075" y1="222.402" x2="215.818" y2="142.515" gradientUnits="userSpaceOnUse">
<stop offset="0.0001" stop-color="#9FDBF0"/>
<stop offset="0.2644" stop-color="#87CEE6"/>
<stop offset="0.5701" stop-color="#75C8E4"/>
<stop offset="0.8951" stop-color="#64C1E1"/>
<stop offset="1" stop-color="#2CA7D1"/>
</linearGradient>
<linearGradient id="paint3_linear_63_2" x1="209.34" y1="231.419" x2="253.058" y2="92.0222" gradientUnits="userSpaceOnUse">
<stop stop-color="#9FDBF0"/>
<stop offset="0.2644" stop-color="#7FCBE6"/>
<stop offset="0.5701" stop-color="#5BBEDF"/>
<stop offset="1" stop-color="#0995C6"/>
</linearGradient>
<linearGradient id="paint4_linear_63_2" x1="265.824" y1="235.029" x2="282.07" y2="15.7739" gradientUnits="userSpaceOnUse">
<stop stop-color="#9FDBF0"/>
<stop offset="0.3705" stop-color="#6FC9E8"/>
<stop offset="0.7981" stop-color="#3BB6E0"/>
<stop offset="1" stop-color="#19AEE1"/>
</linearGradient>
</defs>
</svg>
