<svg width="760" height="248" viewBox="0 0 760 248" fill="none" xmlns="http://www.w3.org/2000/svg">
<path fill-rule="evenodd" clip-rule="evenodd" d="M231.444 1.95668C235.299 3.14668 240.516 5.85269 244.235 8.59169L250.517 13.2157L246.19 15.4227L241.863 17.6297L236.274 14.2647C233.2 12.4137 228.993 10.4437 226.925 9.88668C224.556 9.24868 204.94 8.97968 173.905 9.15968L124.645 9.44568L118.997 12.0937C112.116 15.3197 106.144 21.1117 102.429 28.1617C99.6744 33.3897 99.6424 33.6687 99.3244 54.6957L99.0034 75.9457H94.5744H90.1454V56.0347C90.1454 39.5717 90.4614 35.1127 91.9684 30.2847C96.2574 16.5447 107.105 5.96768 121.645 1.34968C124.644 0.397682 138.073 0.0626838 175.29 0.0126838C222.303 -0.0503162 225.279 0.0526841 231.444 1.95668ZM267.808 10.6157C265.191 13.2327 173.421 77.8687 172.588 77.6827C171.114 77.3527 132.677 37.9457 133.829 37.9457C134.344 37.9457 143.063 42.0347 153.205 47.0337C169.788 55.2057 171.947 56.0217 174.645 55.1387C176.295 54.5977 197.895 44.2137 222.645 32.0617C247.395 19.9097 267.833 9.96268 268.062 9.95668C268.291 9.95068 268.177 10.2467 267.808 10.6157ZM259.85 30.7467C261.237 35.3157 261.587 40.4117 261.613 56.4457L261.645 76.4457L257.395 76.7527L253.145 77.0607L253.085 60.2527C253.031 44.9187 252.653 40.3327 250.713 31.4457C250.14 28.8237 250.472 28.1777 253.351 26.3187C255.163 25.1487 256.977 24.3837 257.382 24.6197C257.787 24.8547 258.898 27.6117 259.85 30.7467ZM618.145 55.4577C618.145 56.2897 616.345 65.3397 614.145 75.5687C611.945 85.7977 610.145 94.6287 610.145 95.1927C610.145 95.7577 612.403 94.1067 615.163 91.5257C623.922 83.3327 633.418 80.8367 641.145 84.6977C645.348 86.7967 649.145 93.6397 649.145 99.1147C649.145 102.808 640.674 145.281 639.587 147.041C639.279 147.539 635.904 147.946 632.086 147.946C626.907 147.946 625.145 147.601 625.145 146.589C625.145 145.842 626.945 136.608 629.145 126.069C633.728 104.113 634.023 99.8237 631.145 96.9457C625.954 91.7547 614.142 98.0987 608.588 109.059C606.733 112.718 599.152 143.341 599.146 147.196C599.146 147.608 595.77 147.946 591.645 147.946C587.37 147.946 584.145 147.521 584.145 146.958C584.145 145.398 603.295 55.5327 603.805 54.6957C604.057 54.2837 607.386 53.9457 611.204 53.9457C616.732 53.9457 618.145 54.2537 618.145 55.4577ZM53.9484 59.4747C63.5834 61.6747 63.3964 61.4467 61.8154 69.0097C61.0754 72.5497 60.0594 75.3367 59.5574 75.2027C59.0554 75.0697 56.1704 74.0717 53.1454 72.9857C42.0604 69.0057 31.0184 70.7927 27.4984 77.1357C24.0214 83.4007 27.0664 89.7277 37.1824 97.2567C46.4224 104.135 51.1124 108.863 53.2424 113.446C55.3744 118.033 55.6784 125.436 53.9694 131.139C52.3844 136.429 46.2364 143.191 40.4154 146.046C31.5574 150.391 5.8014 148.799 0.494404 143.578C-0.845596 142.26 0.800425 129.946 2.31643 129.946C2.80943 129.946 5.40741 131.059 8.09041 132.418C16.4984 136.679 27.7044 137.416 33.8444 134.113C39.2354 131.213 40.7414 124.076 37.1914 118.253C36.1204 116.497 31.6294 112.527 27.2114 109.432C14.3134 100.394 10.1454 94.1687 10.1454 83.9457C10.1454 64.4767 29.2084 53.8267 53.9484 59.4747ZM337.789 85.4457C338.418 99.7457 339.016 115.496 339.118 120.446C339.22 125.396 339.52 128.771 339.784 127.946C340.049 127.121 347.759 111.259 356.918 92.6957L373.569 58.9457H381.357C388.764 58.9457 389.145 59.0557 389.153 61.1957C389.157 62.4337 390.05 76.4957 391.136 92.4457C392.223 108.396 393.124 123.246 393.138 125.446C393.162 129.169 393.499 128.683 398.005 118.446C400.668 112.396 407.737 96.5337 413.716 83.1957L424.585 58.9457H432.365C436.644 58.9457 440.151 59.2837 440.159 59.6957C440.166 60.1077 430.614 80.1497 418.932 104.233L397.692 148.02L389.669 147.733L381.645 147.446L379.475 120.446C378.281 105.596 377.268 90.3857 377.225 86.6447L377.145 79.8437L360.156 113.895L343.167 147.946H334.656C327.221 147.946 326.143 147.725 326.133 146.196C326.127 145.233 325.004 127.571 323.638 106.946C322.273 86.3207 321.153 67.0647 321.15 64.1537L321.145 58.8617L328.895 59.1537L336.645 59.4457L337.789 85.4457ZM526.129 67.1957C526.121 67.8837 525.462 71.1457 524.665 74.4457C522.09 85.1087 521.998 84.9457 530.614 84.9457C536.145 84.9457 537.974 85.2697 537.663 86.1957C537.432 86.8837 536.754 89.3577 536.156 91.6957L535.068 95.9457H527.674C521.498 95.9457 520.194 96.2337 519.757 97.6957C518.383 102.3 513.145 129.37 513.145 131.867C513.145 136.342 515.359 137.504 521.468 136.237C524.315 135.647 526.719 135.227 526.809 135.305C527.627 136.008 524.175 146.35 522.881 147.074C521.955 147.592 518.338 148.283 514.843 148.61C503.399 149.678 498.145 145.236 498.145 134.49C498.145 130.04 501.35 112.163 504.651 98.1957C505.15 96.0857 504.864 95.9457 500.056 95.9457C495.025 95.9457 494.941 95.8967 495.585 93.3287C495.946 91.8897 496.497 89.4367 496.809 87.8777C497.332 85.2627 497.771 85.0187 502.463 84.7437L507.55 84.4457L509.147 76.9457L510.744 69.4457L516.695 67.7757C524.035 65.7157 526.149 65.5857 526.129 67.1957ZM224.087 84.0267C226.859 84.6207 229.387 85.5277 229.704 86.0407C230.322 87.0407 228.325 97.9457 227.524 97.9457C227.261 97.9457 225.825 97.3147 224.332 96.5427C216.665 92.5777 205.891 94.1247 204.572 99.3797C203.319 104.373 204.804 106.529 213.141 111.822C224.238 118.867 227.543 125.041 225.091 134.145C221.966 145.751 206.1 151.712 188.444 147.914C180.892 146.289 180.745 146.092 182.204 139.575C182.896 136.479 183.729 133.961 184.054 133.979C184.379 133.997 187.12 134.882 190.145 135.946C199.635 139.284 208.129 138.269 210.284 133.54C212.12 129.512 210.557 126.154 205.366 122.969C192.488 115.067 189.145 110.975 189.145 103.11C189.145 94.0477 195.049 86.9487 205.139 83.8797C208.905 82.7347 218.403 82.8077 224.087 84.0267ZM272.952 84.0817C275.533 84.7067 277.959 85.4937 278.344 85.8317C278.728 86.1697 278.472 88.9207 277.775 91.9457C276.873 95.8607 276.095 97.3317 275.076 97.0517C274.289 96.8347 271.272 95.9707 268.372 95.1307C261.853 93.2427 256.688 94.2977 253.873 98.0917C250.816 102.212 252.496 105.617 260.059 110.628C271.426 118.159 274.145 121.79 274.145 129.436C274.145 141.629 264.313 148.946 247.929 148.946C241.094 148.946 232.456 147.405 230.77 145.885C229.826 145.034 230.708 137.24 231.979 135.203C232.58 134.24 234.03 134.408 238.425 135.953C248.502 139.495 257.155 138.225 259 132.933C260.418 128.866 258.526 126.055 251.118 121.227C239.444 113.617 236.283 108.065 238.292 98.6977C240.903 86.5197 256.264 80.0417 272.952 84.0817ZM486.474 84.8567C488.58 85.3597 490.494 85.9617 490.727 86.1947C490.96 86.4277 489.127 96.1487 486.653 107.799C484.179 119.448 481.631 133.247 480.99 138.463L479.824 147.946H472.346H464.867L465.416 141.898L465.964 135.85L462.451 140.359C456.191 148.394 445.109 151.34 437.129 147.09C426.056 141.193 423.784 120.712 432.312 103.667C437.171 93.9537 446.26 86.6667 456.891 83.9607C461.139 82.8787 480.668 83.4707 486.474 84.8567ZM580.963 84.4847C584.255 85.4617 586.145 86.5767 586.145 87.5417C586.145 88.9597 584.096 98.1227 583.646 98.7137C583.534 98.8607 581.463 98.0827 579.044 96.9857C563.94 90.1327 548.819 102.679 548.813 122.068C548.811 128.451 551.27 133.69 555.2 135.679C559.171 137.689 566.123 137.17 572.023 134.423L577.4 131.92L576.708 135.183C576.327 136.978 575.766 139.881 575.459 141.636C575.007 144.227 574.128 145.142 570.774 146.51C565.384 148.708 554.746 149.467 549.44 148.031C534.535 143.998 529.034 123.821 537.575 104.509C544.94 87.8537 563.487 79.2947 580.963 84.4847ZM699.364 83.9897C703.793 85.2197 708.655 89.0977 710.681 93.0147C714.043 99.5167 711.362 110.519 705.377 114.78C701.434 117.589 691.396 120.804 684.483 121.473C669.544 122.919 670.145 122.711 670.145 126.431C670.145 130.697 673.989 135.409 678.753 136.982C684.005 138.715 690.496 137.48 702.323 132.494C703.868 131.844 703.896 132.241 702.679 137.475C701.952 140.603 700.747 143.75 700.001 144.468C697.736 146.65 688.163 148.946 681.33 148.946C672.097 148.946 667.383 147.237 662.094 141.97C656.321 136.223 654.734 130.99 655.329 119.664C656.228 102.542 666.114 89.1837 681.431 84.3967C686.592 82.7837 694.385 82.6067 699.364 83.9897ZM757.257 84.7607C759.828 85.7757 759.853 85.8797 758.884 91.6187C758.343 94.8237 757.838 97.5257 757.762 97.6227C757.686 97.7207 755.153 96.9477 752.134 95.9057C742.923 92.7267 736.935 93.8147 734.385 99.1327C732.442 103.184 734.28 106.426 740.869 110.574C751.983 117.571 755.155 121.814 755.129 129.646C755.091 140.715 746.334 147.918 731.901 148.754C723.338 149.25 712.258 147.404 711.47 145.351C711.199 144.645 711.487 141.617 712.109 138.621L713.24 133.173L717.374 135.171C722.621 137.706 732.087 138.627 736.045 136.987C739.735 135.459 741.461 131.216 739.774 127.821C739.124 126.515 735.265 123.196 731.197 120.446C722.9 114.837 720.386 111.948 719.192 106.655C717.105 97.4007 723.14 87.6097 732.852 84.4937C738.147 82.7947 752.675 82.9547 757.257 84.7607ZM78.5034 88.6957C78.8444 90.7587 79.1304 96.4957 79.1394 101.446C79.1474 106.396 79.4414 115.429 79.7924 121.519L80.4304 132.592L87.6104 118.019C91.5594 110.004 96.7594 99.2837 99.1664 94.1957L103.542 84.9457H110.706H117.871L118.486 94.1957C118.824 99.2837 119.398 110.304 119.762 118.687L120.424 133.927L131.053 109.687L141.682 85.4457L148.913 85.1517C152.891 84.9907 156.145 85.1057 156.145 85.4077C156.145 85.7107 149.169 99.9057 140.642 116.952L125.139 147.946H117.703H110.268L109.742 143.696C109.454 141.358 108.965 134.721 108.656 128.946C108.347 123.171 107.814 114.869 107.473 110.497L106.852 102.549L95.4944 125.247L84.1364 147.946H76.7134H69.2894L68.7114 142.696C68.3934 139.809 67.4604 128.221 66.6384 116.946C65.8154 105.671 64.8734 93.8577 64.5454 90.6957L63.9494 84.9457H70.9164H77.8834L78.5034 88.6957ZM178.145 85.3487C178.145 85.5697 176.12 95.4887 173.645 107.391C171.17 119.293 169.145 130.346 169.145 131.953C169.145 135.522 172.107 137.404 176.38 136.549L179.371 135.951L178.678 140.576C177.645 147.465 177.455 147.677 171.664 148.4C161.514 149.669 155.157 146.155 153.718 138.482C153.141 135.407 156.34 117.138 162.174 90.1957L163.311 84.9457H170.728C174.807 84.9457 178.145 85.1267 178.145 85.3487ZM459.272 95.3947C448.669 98.8197 441.202 112.566 442.36 126.528C442.925 133.337 445.872 136.946 450.869 136.946C457.91 136.946 464.095 131.043 468.004 120.591C469.913 115.489 474.488 95.9547 473.91 95.3767C472.723 94.1907 462.962 94.2027 459.272 95.3947ZM681.971 96.2007C679.95 97.4357 677.351 99.6567 676.194 101.138C674.236 103.645 671.145 110.023 671.145 111.558C671.145 112.909 686.091 111.063 690.312 109.192C695.27 106.994 696.708 105.536 697.66 101.741C698.189 99.6357 697.779 98.4887 695.786 96.4957C692.507 93.2167 687.046 93.0997 681.971 96.2007ZM533.332 161.922C545.364 165.638 554.921 174.033 560.48 185.766C563.462 192.061 563.645 193.109 563.645 203.946C563.645 214.811 563.468 215.819 560.444 222.205C554.523 234.703 542.854 244.215 530.145 246.901C526.069 247.762 486.184 247.983 376.093 247.755L227.541 247.446L220.018 243.728C210.702 239.123 203.293 231.591 198.846 222.205C195.822 215.819 195.645 214.811 195.645 203.946C195.645 193.109 195.828 192.061 198.81 185.766C204.273 174.233 213.089 166.323 225.001 162.262L231.645 159.998L379.29 159.972C523.552 159.947 527.081 159.991 533.332 161.922ZM398.199 175.062C387.938 176.803 379.714 183.706 376.55 193.232C374.241 200.183 374.942 211.945 378.043 218.286C382.571 227.544 393.55 232.658 406.754 231.659C416.627 230.912 418.168 229.981 417.131 225.386C416.685 223.407 416.168 221.658 415.982 221.499C415.797 221.34 412.945 221.658 409.645 222.206C401.957 223.482 395.934 221.935 391.558 217.559C382.507 208.508 385.519 190.03 396.816 185.31C400.552 183.749 409.85 183.503 413.444 184.87C415.678 185.719 415.97 185.475 417.056 181.849C417.706 179.68 417.987 177.499 417.68 177.002C416.452 175.015 405.124 173.887 398.199 175.062ZM233.895 175.612L231.145 176.079V203.427V230.775L238.488 231.463C253.562 232.876 267.657 228.448 273.004 220.621C276.955 214.837 278.513 209.555 278.513 201.946C278.513 193.767 276.829 188.709 272.516 183.935C266.971 177.797 260.566 175.585 247.645 175.348C241.595 175.236 235.408 175.355 233.895 175.612ZM338.645 181.857C333.923 183.358 333.628 183.654 333.335 187.196C333.068 190.42 332.682 190.946 330.585 190.946C328.405 190.946 328.145 191.372 328.145 194.946C328.145 198.546 328.395 198.946 330.645 198.946C333.117 198.946 333.146 199.045 333.205 207.696C333.289 220.105 334.386 225.641 337.346 228.602C340.02 231.276 346.198 232.652 350.585 231.551C352.795 230.996 353.145 230.364 353.145 226.927C353.145 223.254 352.932 222.945 350.395 222.931C345.132 222.901 344.673 221.924 344.307 209.984L343.968 198.946H349.057H354.145V195.001V191.056L349.395 190.751L344.645 190.446L344.145 185.357L343.645 180.268L338.645 181.857ZM259.782 186.525C264.868 190.322 266.525 193.543 266.968 200.5C267.881 214.847 260.478 222.922 246.395 222.94L242.145 222.946V203.337V183.727L249.594 184.104C255.118 184.382 257.752 185.008 259.782 186.525ZM294.313 192.092C291.777 193.347 288.875 195.908 287.313 198.268C284.939 201.856 284.645 203.252 284.645 210.946C284.645 218.517 284.956 220.052 287.145 223.286C290.376 228.06 298.015 231.953 304.091 231.924C312.182 231.885 320.508 226.442 323.144 219.467C325.878 212.234 324.065 201.047 319.274 195.59C314.198 189.806 302.3 188.138 294.313 192.092ZM432.529 191.805C417.451 198.849 417.727 223.45 432.959 230.188C442.138 234.248 453.456 230.965 458.962 222.647C461.28 219.146 461.645 217.562 461.645 211.02C461.645 201.75 459.526 196.888 453.849 193.132C448.506 189.595 438.581 188.978 432.529 191.805ZM482.895 192.324C479.364 194.736 479.145 194.771 479.145 192.916C479.145 191.219 478.453 190.946 474.145 190.946H469.145V210.946V230.946H474.645H480.145V217.581C480.145 205.574 480.356 203.948 482.218 201.581C484.279 198.96 488.272 198.103 490.832 199.732C493.242 201.264 494.145 206.381 494.145 218.511V230.946H499.069H503.994L504.319 217.048C504.6 205.066 504.908 202.86 506.55 201.048C507.598 199.892 509.623 198.953 511.05 198.961C517.019 198.997 518.145 201.999 518.145 217.88V230.946H523.752H529.359L528.963 215.696C528.534 199.179 527.697 196.098 522.53 192.034C517.872 188.371 509.788 189.336 504.451 194.192L502.258 196.189L499.871 193.414C497.941 191.17 496.445 190.555 492.064 190.201C487.467 189.829 486.076 190.151 482.895 192.324ZM308.2 198.976C309.259 199.542 310.804 201.32 311.635 202.926C313.405 206.349 313.63 215.129 312.028 218.262C306.711 228.658 295.145 223.677 295.145 210.992C295.145 200.906 301.272 195.267 308.2 198.976ZM447.646 200.541C452.499 205.778 451.853 217.67 446.486 221.892C436.502 229.746 427.115 211.266 435.828 200.911C439.144 196.97 444.19 196.812 447.646 200.541Z" fill="#182947"/>
</svg>
