<svg width="1274" height="835" viewBox="0 0 1274 835" fill="none" xmlns="http://www.w3.org/2000/svg">
<path fill-rule="evenodd" clip-rule="evenodd" d="M509.072 212.69C512.402 213.717 516.908 216.054 520.121 218.419L525.547 222.411L521.809 224.317L518.072 226.223L513.244 223.317C510.589 221.719 506.955 220.018 505.169 219.537C503.123 218.986 486.179 218.754 459.373 218.909L416.824 219.156L411.946 221.442C406.002 224.228 400.844 229.229 397.635 235.317C395.256 239.831 395.228 240.072 394.953 258.228L394.676 276.576H390.85H387.025V259.384C387.025 245.169 387.298 241.319 388.599 237.15C392.304 225.286 401.674 216.153 414.233 212.165C416.823 211.343 428.423 211.054 460.569 211.011C501.177 210.957 503.747 211.045 509.072 212.69ZM540.482 220.166C538.222 222.426 458.955 278.237 458.235 278.076C456.962 277.791 423.762 243.765 424.757 243.765C425.202 243.765 432.733 247.295 441.493 251.612C455.817 258.668 457.682 259.373 460.012 258.61C461.437 258.143 480.094 249.177 501.472 238.684C522.85 228.191 540.504 219.602 540.702 219.597C540.899 219.592 540.801 219.848 540.482 220.166ZM533.608 237.549C534.806 241.494 535.109 245.894 535.131 259.739L535.159 277.008L531.488 277.273L527.817 277.539L527.765 263.026C527.718 249.786 527.392 245.826 525.716 238.152C525.221 235.888 525.508 235.33 527.995 233.725C529.56 232.715 531.127 232.054 531.477 232.258C531.826 232.461 532.786 234.842 533.608 237.549ZM843.088 258.886C843.088 259.604 841.533 267.418 839.633 276.251C837.733 285.083 836.178 292.708 836.178 293.195C836.178 293.683 838.128 292.258 840.512 290.029C848.078 282.955 856.28 280.8 862.955 284.133C866.585 285.946 869.865 291.855 869.865 296.582C869.865 299.771 862.548 336.445 861.609 337.965C861.343 338.395 858.428 338.746 855.13 338.746C850.656 338.746 849.134 338.448 849.134 337.574C849.134 336.929 850.689 328.956 852.589 319.856C856.548 300.898 856.803 297.194 854.317 294.709C849.833 290.227 839.631 295.705 834.833 305.169C833.231 308.328 826.683 334.77 826.678 338.098C826.678 338.454 823.762 338.746 820.199 338.746C816.506 338.746 813.72 338.379 813.72 337.893C813.72 336.546 830.261 258.95 830.702 258.228C830.92 257.872 833.795 257.58 837.093 257.58C841.868 257.58 843.088 257.846 843.088 258.886ZM355.759 262.354C364.082 264.254 363.92 264.057 362.555 270.587C361.915 273.644 361.038 276.051 360.604 275.935C360.171 275.82 357.679 274.958 355.066 274.021C345.491 270.584 335.953 272.127 332.913 277.604C329.91 283.013 332.54 288.477 341.278 294.978C349.259 300.917 353.31 304.999 355.15 308.957C356.991 312.917 357.254 319.309 355.778 324.234C354.409 328.802 349.098 334.64 344.07 337.105C336.419 340.857 314.172 339.483 309.588 334.974C308.431 333.836 309.853 323.204 311.162 323.204C311.588 323.204 313.832 324.165 316.149 325.338C323.412 329.017 333.091 329.654 338.394 326.802C343.051 324.298 344.352 318.135 341.285 313.107C340.36 311.591 336.481 308.163 332.665 305.491C321.524 297.687 317.924 292.311 317.924 283.484C317.924 266.673 334.39 257.477 355.759 262.354ZM600.929 284.779C601.472 297.127 601.989 310.727 602.077 315.001C602.165 319.275 602.424 322.189 602.652 321.477C602.881 320.764 609.54 307.068 617.452 291.039L631.834 261.897H638.561C644.959 261.897 645.288 261.992 645.295 263.84C645.298 264.909 646.069 277.051 647.008 290.824C647.946 304.596 648.725 317.418 648.737 319.318C648.758 322.533 649.049 322.113 652.941 313.274C655.241 308.05 661.347 294.353 666.511 282.836L675.899 261.897H682.619C686.315 261.897 689.345 262.189 689.352 262.545C689.358 262.901 681.107 280.206 671.017 301.001L652.67 338.81L645.74 338.562L638.81 338.314L636.935 315.001C635.904 302.178 635.029 289.045 634.992 285.815L634.923 279.942L620.248 309.344L605.574 338.746H598.223C591.801 338.746 590.869 338.555 590.861 337.235C590.856 336.403 589.886 321.153 588.706 303.344C587.527 285.535 586.559 268.908 586.557 266.394L586.552 261.825L593.246 262.077L599.941 262.329L600.929 284.779ZM763.609 269.021C763.602 269.615 763.033 272.432 762.344 275.281C760.12 284.488 760.041 284.348 767.483 284.348C772.26 284.348 773.84 284.627 773.571 285.427C773.372 286.021 772.786 288.157 772.27 290.176L771.33 293.846H764.943C759.609 293.846 758.482 294.094 758.105 295.357C756.918 299.332 752.394 322.706 752.394 324.862C752.394 328.726 754.306 329.73 759.583 328.636C762.042 328.126 764.118 327.764 764.196 327.831C764.903 328.438 761.921 337.368 760.803 337.993C760.003 338.44 756.879 339.037 753.86 339.319C743.976 340.242 739.437 336.406 739.437 327.127C739.437 323.285 742.206 307.849 745.057 295.788C745.488 293.967 745.241 293.846 741.088 293.846C736.742 293.846 736.67 293.803 737.226 291.586C737.538 290.343 738.014 288.225 738.283 286.879C738.735 284.621 739.114 284.411 743.167 284.173L747.561 283.916L748.94 277.44L750.32 270.964L755.46 269.522C761.8 267.743 763.626 267.631 763.609 269.021ZM502.718 283.554C505.112 284.067 507.296 284.85 507.57 285.293C508.103 286.157 506.378 295.573 505.687 295.573C505.459 295.573 504.219 295.028 502.929 294.361C496.307 290.938 487.001 292.273 485.862 296.811C484.779 301.122 486.062 302.984 493.263 307.554C502.848 313.637 505.703 318.968 503.585 326.829C500.886 336.851 487.181 341.998 471.931 338.718C465.408 337.315 465.281 337.145 466.541 331.518C467.139 328.845 467.858 326.671 468.139 326.686C468.42 326.702 470.787 327.466 473.4 328.384C481.597 331.267 488.934 330.39 490.795 326.307C492.381 322.829 491.031 319.929 486.547 317.179C475.424 310.356 472.536 306.823 472.536 300.032C472.536 292.207 477.636 286.077 486.351 283.427C489.604 282.438 497.808 282.501 502.718 283.554ZM544.925 283.602C547.155 284.141 549.25 284.821 549.583 285.113C549.914 285.404 549.693 287.78 549.091 290.392C548.312 293.772 547.64 295.042 546.76 294.801C546.08 294.613 543.474 293.867 540.969 293.142C535.338 291.512 530.877 292.423 528.446 295.699C525.805 299.256 527.256 302.196 533.789 306.523C543.607 313.026 545.956 316.161 545.956 322.763C545.956 333.292 537.463 339.61 523.312 339.61C517.408 339.61 509.947 338.279 508.49 336.966C507.675 336.232 508.437 329.502 509.535 327.743C510.054 326.911 511.306 327.056 515.102 328.391C523.806 331.449 531.281 330.352 532.874 325.783C534.099 322.271 532.465 319.844 526.066 315.675C515.983 309.104 513.252 304.31 514.987 296.222C517.243 285.707 530.511 280.113 544.925 283.602ZM729.356 284.271C731.175 284.705 732.829 285.225 733.03 285.426C733.231 285.627 731.648 294.021 729.511 304.081C727.374 314.139 725.173 326.054 724.62 330.558L723.612 338.746H717.153H710.693L711.167 333.524L711.641 328.302L708.606 332.195C703.199 339.133 693.627 341.677 686.734 338.007C677.17 332.915 675.207 315.23 682.574 300.513C686.771 292.126 694.621 285.834 703.804 283.497C707.473 282.563 724.341 283.074 729.356 284.271ZM810.972 283.949C813.815 284.793 815.448 285.756 815.448 286.589C815.448 287.814 813.678 295.725 813.289 296.236C813.193 296.363 811.404 295.691 809.314 294.744C796.268 288.826 783.207 299.66 783.202 316.401C783.2 321.913 785.324 326.437 788.719 328.154C792.149 329.889 798.154 329.441 803.25 327.069L807.894 324.908L807.297 327.726C806.968 329.276 806.483 331.782 806.218 333.298C805.827 335.535 805.068 336.325 802.171 337.506C797.515 339.404 788.327 340.059 783.744 338.819C770.869 335.337 766.118 317.915 773.495 301.24C779.857 286.859 795.877 279.468 810.972 283.949ZM913.242 283.522C917.067 284.584 921.267 287.933 923.017 291.315C925.921 296.929 923.605 306.429 918.435 310.108C915.03 312.534 906.359 315.31 900.388 315.888C887.484 317.136 888.004 316.957 888.004 320.169C888.004 323.852 891.324 327.921 895.439 329.279C899.975 330.775 905.582 329.709 915.797 325.404C917.132 324.843 917.156 325.185 916.105 329.705C915.477 332.406 914.436 335.123 913.792 335.743C911.835 337.627 903.567 339.61 897.665 339.61C889.69 339.61 885.618 338.134 881.049 333.586C876.063 328.624 874.692 324.105 875.206 314.326C875.983 299.541 884.522 288.007 897.752 283.874C902.21 282.481 908.941 282.328 913.242 283.522ZM963.247 284.188C965.468 285.064 965.489 285.154 964.652 290.109C964.185 292.877 963.749 295.21 963.683 295.294C963.618 295.378 961.43 294.711 958.822 293.811C950.866 291.066 945.694 292.006 943.491 296.598C941.813 300.096 943.401 302.895 949.092 306.477C958.692 312.518 961.431 316.182 961.409 322.945C961.376 332.502 953.812 338.722 941.346 339.444C933.949 339.872 924.379 338.278 923.698 336.505C923.464 335.896 923.713 333.281 924.25 330.694L925.227 325.99L928.798 327.715C933.33 329.904 941.506 330.699 944.925 329.283C948.112 327.964 949.603 324.3 948.146 321.369C947.585 320.241 944.251 317.375 940.738 315.001C933.571 310.158 931.4 307.663 930.368 303.093C928.566 295.102 933.778 286.648 942.167 283.957C946.741 282.49 959.289 282.628 963.247 284.188ZM376.969 287.586C377.264 289.367 377.511 294.321 377.518 298.595C377.525 302.869 377.779 310.669 378.082 315.927L378.633 325.488L384.835 312.905C388.246 305.984 392.738 296.728 394.817 292.335L398.596 284.348H404.784H410.973L411.504 292.335C411.796 296.728 412.292 306.244 412.606 313.482L413.178 326.641L422.359 305.711L431.54 284.779L437.786 284.525C441.222 284.386 444.032 284.486 444.032 284.746C444.032 285.008 438.007 297.265 430.642 311.984L417.251 338.746H410.828H404.406L403.952 335.076C403.703 333.058 403.28 327.327 403.014 322.34C402.747 317.354 402.286 310.185 401.992 306.41L401.455 299.547L391.645 319.146L381.835 338.746H375.423H369.01L368.511 334.213C368.236 331.72 367.431 321.714 366.721 311.979C366.01 302.243 365.196 292.043 364.913 289.312L364.398 284.348H370.416H376.433L376.969 287.586ZM463.035 284.696C463.035 284.886 461.286 293.451 459.148 303.728C457.01 314.005 455.261 323.549 455.261 324.937C455.261 328.018 457.82 329.643 461.511 328.905L464.094 328.389L463.495 332.382C462.603 338.331 462.439 338.514 457.437 339.138C448.67 340.234 443.179 337.2 441.936 330.574C441.438 327.919 444.201 312.144 449.24 288.881L450.222 284.348H456.629C460.152 284.348 463.035 284.504 463.035 284.696ZM705.86 293.37C696.702 296.327 690.252 308.197 691.253 320.252C691.741 326.132 694.286 329.248 698.602 329.248C704.684 329.248 710.026 324.151 713.403 315.126C715.052 310.721 719.003 293.853 718.504 293.354C717.479 292.33 709.048 292.341 705.86 293.37ZM898.218 294.066C896.473 295.132 894.228 297.05 893.228 298.329C891.537 300.494 888.867 306.001 888.867 307.326C888.867 308.493 901.777 306.899 905.423 305.283C909.705 303.385 910.947 302.127 911.77 298.85C912.227 297.032 911.873 296.041 910.151 294.321C907.319 291.489 902.602 291.388 898.218 294.066ZM769.83 350.814C780.223 354.022 788.478 361.271 793.28 371.402C795.855 376.838 796.013 377.743 796.013 387.1C796.013 396.482 795.86 397.352 793.248 402.866C788.134 413.658 778.055 421.871 767.078 424.19C763.557 424.934 729.106 425.124 634.014 424.928L505.701 424.661L499.203 421.45C491.156 417.474 484.757 410.97 480.916 402.866C478.304 397.352 478.151 396.482 478.151 387.1C478.151 377.743 478.309 376.838 480.885 371.402C485.603 361.444 493.218 354.614 503.507 351.107L509.246 349.153L636.775 349.13C761.383 349.108 764.431 349.146 769.83 350.814ZM653.108 362.16C644.245 363.663 637.142 369.624 634.409 377.849C632.414 383.851 633.02 394.007 635.698 399.482C639.609 407.476 649.093 411.892 660.498 411.029C669.026 410.384 670.357 409.58 669.461 405.613C669.076 403.904 668.629 402.394 668.468 402.256C668.309 402.119 665.845 402.394 662.995 402.867C656.354 403.969 651.152 402.633 647.372 398.854C639.554 391.039 642.156 375.084 651.914 371.009C655.141 369.661 663.172 369.448 666.276 370.629C668.206 371.362 668.458 371.151 669.396 368.02C669.958 366.147 670.2 364.264 669.935 363.835C668.874 362.119 659.09 361.145 653.108 362.16ZM511.19 362.635L508.814 363.038V386.652V410.266L515.157 410.86C528.177 412.08 540.352 408.257 544.97 401.498C548.383 396.504 549.729 391.943 549.729 385.373C549.729 378.311 548.274 373.943 544.549 369.821C539.759 364.521 534.227 362.611 523.066 362.407C517.84 362.31 512.496 362.413 511.19 362.635ZM601.668 368.027C597.589 369.323 597.335 369.579 597.082 372.637C596.851 375.421 596.517 375.875 594.706 375.875C592.823 375.875 592.599 376.243 592.599 379.329C592.599 382.437 592.815 382.783 594.758 382.783C596.893 382.783 596.918 382.868 596.969 390.338C597.042 401.053 597.989 405.833 600.546 408.39C602.856 410.699 608.192 411.887 611.981 410.936C613.89 410.457 614.193 409.911 614.193 406.943C614.193 403.772 614.009 403.505 611.817 403.493C607.271 403.467 606.875 402.623 606.559 392.314L606.266 382.783H610.662H615.056V379.376V375.97L610.953 375.707L606.851 375.443L606.419 371.049L605.987 366.655L601.668 368.027ZM533.55 372.058C537.943 375.336 539.374 378.117 539.757 384.125C540.545 396.513 534.151 403.485 521.987 403.501L518.316 403.506V386.574V369.642L524.75 369.967C529.521 370.207 531.796 370.748 533.55 372.058ZM563.376 376.865C561.186 377.948 558.679 380.16 557.33 382.197C555.279 385.295 555.025 386.501 555.025 393.144C555.025 399.682 555.294 401.007 557.185 403.799C559.975 407.922 566.574 411.283 571.822 411.258C578.81 411.224 586.002 406.525 588.279 400.502C590.641 394.256 589.074 384.597 584.936 379.885C580.552 374.891 570.275 373.45 563.376 376.865ZM682.761 376.617C669.737 382.699 669.976 403.941 683.132 409.759C691.061 413.265 700.837 410.43 705.593 403.248C707.595 400.225 707.91 398.857 707.91 393.208C707.91 385.204 706.08 381.006 701.176 377.763C696.561 374.708 687.988 374.176 682.761 376.617ZM726.265 377.065C723.215 379.148 723.026 379.178 723.026 377.576C723.026 376.111 722.428 375.875 718.707 375.875H714.388V393.144V410.414H719.139H723.89V398.873C723.89 388.506 724.072 387.102 725.68 385.058C727.46 382.795 730.909 382.055 733.121 383.461C735.202 384.784 735.982 389.203 735.982 399.676V410.414H740.235H744.489L744.77 398.413C745.013 388.067 745.279 386.162 746.697 384.598C747.602 383.6 749.352 382.789 750.584 382.796C755.74 382.827 756.712 385.419 756.712 399.132V410.414H761.556H766.399L766.057 397.246C765.686 382.984 764.963 380.324 760.5 376.814C756.477 373.652 749.494 374.485 744.884 378.678L742.99 380.402L740.928 378.006C739.261 376.068 737.969 375.537 734.185 375.232C730.214 374.911 729.013 375.189 726.265 377.065ZM575.371 382.809C576.286 383.297 577.62 384.833 578.338 386.219C579.867 389.175 580.061 396.756 578.677 399.461C574.085 408.438 564.095 404.137 564.095 393.184C564.095 384.475 569.387 379.606 575.371 382.809ZM695.818 384.16C700.01 388.682 699.452 398.95 694.816 402.596C686.193 409.377 678.085 393.421 685.611 384.479C688.475 381.076 692.833 380.94 695.818 384.16Z" fill="#BBBDC1"/>
<path d="M1034.33 624H1022.01L1001.42 592.824V624H989.109V573.456H1001.42L1022.01 604.776V573.456H1034.33V624Z" fill="#BBBDC1"/>
<path d="M956.412 624.504C951.66 624.504 947.292 623.4 943.308 621.192C939.372 618.984 936.228 615.912 933.876 611.976C931.572 607.992 930.42 603.528 930.42 598.584C930.42 593.64 931.572 589.2 933.876 585.264C936.228 581.328 939.372 578.256 943.308 576.048C947.292 573.84 951.66 572.736 956.412 572.736C961.164 572.736 965.508 573.84 969.444 576.048C973.428 578.256 976.548 581.328 978.804 585.264C981.108 589.2 982.26 593.64 982.26 598.584C982.26 603.528 981.108 607.992 978.804 611.976C976.5 615.912 973.38 618.984 969.444 621.192C965.508 623.4 961.164 624.504 956.412 624.504ZM956.412 613.272C960.444 613.272 963.66 611.928 966.06 609.24C968.508 606.552 969.732 603 969.732 598.584C969.732 594.12 968.508 590.568 966.06 587.928C963.66 585.24 960.444 583.896 956.412 583.896C952.332 583.896 949.068 585.216 946.62 587.856C944.22 590.496 943.02 594.072 943.02 598.584C943.02 603.048 944.22 606.624 946.62 609.312C949.068 611.952 952.332 613.272 956.412 613.272Z" fill="#BBBDC1"/>
<path d="M899.81 624.504C895.058 624.504 890.69 623.4 886.706 621.192C882.77 618.984 879.626 615.912 877.274 611.976C874.97 607.992 873.818 603.528 873.818 598.584C873.818 593.64 874.97 589.2 877.274 585.264C879.626 581.328 882.77 578.256 886.706 576.048C890.69 573.84 895.058 572.736 899.81 572.736C904.562 572.736 908.906 573.84 912.842 576.048C916.826 578.256 919.946 581.328 922.202 585.264C924.506 589.2 925.658 593.64 925.658 598.584C925.658 603.528 924.506 607.992 922.202 611.976C919.898 615.912 916.778 618.984 912.842 621.192C908.906 623.4 904.562 624.504 899.81 624.504ZM899.81 613.272C903.842 613.272 907.058 611.928 909.458 609.24C911.906 606.552 913.13 603 913.13 598.584C913.13 594.12 911.906 590.568 909.458 587.928C907.058 585.24 903.842 583.896 899.81 583.896C895.73 583.896 892.466 585.216 890.018 587.856C887.618 590.496 886.418 594.072 886.418 598.584C886.418 603.048 887.618 606.624 890.018 609.312C892.466 611.952 895.73 613.272 899.81 613.272Z" fill="#BBBDC1"/>
<path d="M849.897 624.504C846.201 624.504 842.889 623.904 839.961 622.704C837.033 621.504 834.681 619.728 832.905 617.376C831.177 615.024 830.265 612.192 830.169 608.88H843.273C843.465 610.752 844.113 612.192 845.217 613.2C846.321 614.16 847.761 614.64 849.537 614.64C851.361 614.64 852.801 614.232 853.857 613.416C854.913 612.552 855.441 611.376 855.441 609.888C855.441 608.64 855.009 607.608 854.145 606.792C853.329 605.976 852.297 605.304 851.049 604.776C849.849 604.248 848.121 603.648 845.865 602.976C842.601 601.968 839.937 600.96 837.873 599.952C835.809 598.944 834.033 597.456 832.545 595.488C831.057 593.52 830.313 590.952 830.313 587.784C830.313 583.08 832.017 579.408 835.425 576.768C838.833 574.08 843.273 572.736 848.745 572.736C854.313 572.736 858.801 574.08 862.209 576.768C865.617 579.408 867.441 583.104 867.681 587.856H854.361C854.265 586.224 853.665 584.952 852.561 584.04C851.457 583.08 850.041 582.6 848.313 582.6C846.825 582.6 845.625 583.008 844.713 583.824C843.801 584.592 843.345 585.72 843.345 587.208C843.345 588.84 844.113 590.112 845.649 591.024C847.185 591.936 849.585 592.92 852.849 593.976C856.113 595.08 858.753 596.136 860.769 597.144C862.833 598.152 864.609 599.616 866.097 601.536C867.585 603.456 868.329 605.928 868.329 608.952C868.329 611.832 867.585 614.448 866.097 616.8C864.657 619.152 862.545 621.024 859.761 622.416C856.977 623.808 853.689 624.504 849.897 624.504Z" fill="#BBBDC1"/>
<path d="M795.06 589.44C794.148 587.76 792.828 586.488 791.1 585.624C789.42 584.712 787.428 584.256 785.124 584.256C781.14 584.256 777.948 585.576 775.548 588.216C773.148 590.808 771.948 594.288 771.948 598.656C771.948 603.312 773.196 606.96 775.692 609.6C778.236 612.192 781.716 613.488 786.132 613.488C789.156 613.488 791.7 612.72 793.764 611.184C795.876 609.648 797.412 607.44 798.372 604.56H782.748V595.488H809.532V606.936C808.62 610.008 807.06 612.864 804.852 615.504C802.692 618.144 799.932 620.28 796.572 621.912C793.212 623.544 789.42 624.36 785.196 624.36C780.204 624.36 775.74 623.28 771.804 621.12C767.916 618.912 764.868 615.864 762.66 611.976C760.5 608.088 759.42 603.648 759.42 598.656C759.42 593.664 760.5 589.224 762.66 585.336C764.868 581.4 767.916 578.352 771.804 576.192C775.692 573.984 780.132 572.88 785.124 572.88C791.172 572.88 796.26 574.344 800.388 577.272C804.564 580.2 807.324 584.256 808.668 589.44H795.06Z" fill="#BBBDC1"/>
<path d="M752.583 624H740.271L719.679 592.824V624H707.367V573.456H719.679L740.271 604.776V573.456H752.583V624Z" fill="#BBBDC1"/>
<path d="M698.445 573.456V624H686.133V573.456H698.445Z" fill="#BBBDC1"/>
<path d="M677.279 573.456V624H664.967V593.688L653.663 624H643.727L632.351 593.616V624H620.039V573.456H634.583L648.767 608.448L662.807 573.456H677.279Z" fill="#BBBDC1"/>
<path d="M587.342 624.504C582.59 624.504 578.222 623.4 574.238 621.192C570.302 618.984 567.158 615.912 564.806 611.976C562.502 607.992 561.35 603.528 561.35 598.584C561.35 593.64 562.502 589.2 564.806 585.264C567.158 581.328 570.302 578.256 574.238 576.048C578.222 573.84 582.59 572.736 587.342 572.736C592.094 572.736 596.438 573.84 600.374 576.048C604.358 578.256 607.478 581.328 609.734 585.264C612.038 589.2 613.19 593.64 613.19 598.584C613.19 603.528 612.038 607.992 609.734 611.976C607.43 615.912 604.31 618.984 600.374 621.192C596.438 623.4 592.094 624.504 587.342 624.504ZM587.342 613.272C591.374 613.272 594.59 611.928 596.99 609.24C599.438 606.552 600.662 603 600.662 598.584C600.662 594.12 599.438 590.568 596.99 587.928C594.59 585.24 591.374 583.896 587.342 583.896C583.262 583.896 579.998 585.216 577.55 587.856C575.15 590.496 573.95 594.072 573.95 598.584C573.95 603.048 575.15 606.624 577.55 609.312C579.998 611.952 583.262 613.272 587.342 613.272Z" fill="#BBBDC1"/>
<path d="M506.506 598.656C506.506 593.664 507.586 589.224 509.746 585.336C511.906 581.4 514.906 578.352 518.746 576.192C522.634 573.984 527.026 572.88 531.922 572.88C537.922 572.88 543.058 574.464 547.33 577.632C551.602 580.8 554.458 585.12 555.898 590.592H542.362C541.354 588.48 539.914 586.872 538.042 585.768C536.218 584.664 534.13 584.112 531.778 584.112C527.986 584.112 524.914 585.432 522.562 588.072C520.21 590.712 519.034 594.24 519.034 598.656C519.034 603.072 520.21 606.6 522.562 609.24C524.914 611.88 527.986 613.2 531.778 613.2C534.13 613.2 536.218 612.648 538.042 611.544C539.914 610.44 541.354 608.832 542.362 606.72H555.898C554.458 612.192 551.602 616.512 547.33 619.68C543.058 622.8 537.922 624.36 531.922 624.36C527.026 624.36 522.634 623.28 518.746 621.12C514.906 618.912 511.906 615.864 509.746 611.976C507.586 608.088 506.506 603.648 506.506 598.656Z" fill="#BBBDC1"/>
<path d="M460.638 624.504C455.886 624.504 451.518 623.4 447.534 621.192C443.598 618.984 440.454 615.912 438.102 611.976C435.798 607.992 434.646 603.528 434.646 598.584C434.646 593.64 435.798 589.2 438.102 585.264C440.454 581.328 443.598 578.256 447.534 576.048C451.518 573.84 455.886 572.736 460.638 572.736C465.39 572.736 469.734 573.84 473.67 576.048C477.654 578.256 480.774 581.328 483.03 585.264C485.334 589.2 486.486 593.64 486.486 598.584C486.486 603.528 485.334 607.992 483.03 611.976C480.726 615.912 477.606 618.984 473.67 621.192C469.734 623.4 465.39 624.504 460.638 624.504ZM460.638 613.272C464.67 613.272 467.886 611.928 470.286 609.24C472.734 606.552 473.958 603 473.958 598.584C473.958 594.12 472.734 590.568 470.286 587.928C467.886 585.24 464.67 583.896 460.638 583.896C456.558 583.896 453.294 585.216 450.846 587.856C448.446 590.496 447.246 594.072 447.246 598.584C447.246 603.048 448.446 606.624 450.846 609.312C453.294 611.952 456.558 613.272 460.638 613.272Z" fill="#BBBDC1"/>
<path d="M430.555 573.456V583.32H417.163V624H404.851V583.32H391.459V573.456H430.555Z" fill="#BBBDC1"/>
<path d="M361.498 624.504C356.746 624.504 352.378 623.4 348.394 621.192C344.458 618.984 341.314 615.912 338.962 611.976C336.658 607.992 335.506 603.528 335.506 598.584C335.506 593.64 336.658 589.2 338.962 585.264C341.314 581.328 344.458 578.256 348.394 576.048C352.378 573.84 356.746 572.736 361.498 572.736C366.25 572.736 370.594 573.84 374.53 576.048C378.514 578.256 381.634 581.328 383.89 585.264C386.194 589.2 387.346 593.64 387.346 598.584C387.346 603.528 386.194 607.992 383.89 611.976C381.586 615.912 378.466 618.984 374.53 621.192C370.594 623.4 366.25 624.504 361.498 624.504ZM361.498 613.272C365.53 613.272 368.746 611.928 371.146 609.24C373.594 606.552 374.818 603 374.818 598.584C374.818 594.12 373.594 590.568 371.146 587.928C368.746 585.24 365.53 583.896 361.498 583.896C357.418 583.896 354.154 585.216 351.706 587.856C349.306 590.496 348.106 594.072 348.106 598.584C348.106 603.048 349.306 606.624 351.706 609.312C354.154 611.952 357.418 613.272 361.498 613.272Z" fill="#BBBDC1"/>
<path d="M328.706 573.456V624H316.394V603.192H297.242V624H284.93V573.456H297.242V593.256H316.394V573.456H328.706Z" fill="#BBBDC1"/>
<path d="M278.52 589.728C278.52 592.656 277.848 595.344 276.504 597.792C275.16 600.192 273.096 602.136 270.312 603.624C267.528 605.112 264.072 605.856 259.944 605.856H252.312V624H240V573.456H259.944C263.976 573.456 267.384 574.152 270.168 575.544C272.952 576.936 275.04 578.856 276.432 581.304C277.824 583.752 278.52 586.56 278.52 589.728ZM259.008 596.064C261.36 596.064 263.112 595.512 264.264 594.408C265.416 593.304 265.992 591.744 265.992 589.728C265.992 587.712 265.416 586.152 264.264 585.048C263.112 583.944 261.36 583.392 259.008 583.392H252.312V596.064H259.008Z" fill="#BBBDC1"/>
</svg>
