<svg width="356" height="174" viewBox="0 0 356 174" fill="none" xmlns="http://www.w3.org/2000/svg">
<path d="M89 29H356L311.5 87L356 145H89V29Z" fill="#00734B"/>
<path d="M87 0L99.2488 9.664L113.884 4.25808L122.547 17.2342L138.137 16.6155L142.366 31.6335L157.384 35.8627L156.766 51.4525L169.742 60.1155L164.336 74.7512L174 87L164.336 99.2488L169.742 113.884L156.766 122.547L157.384 138.137L142.366 142.366L138.137 157.384L122.547 156.766L113.884 169.742L99.2488 164.336L87 174L74.7512 164.336L60.1155 169.742L51.4525 156.766L35.8627 157.384L31.6335 142.366L16.6155 138.137L17.2342 122.547L4.25808 113.884L9.664 99.2488L0 87L9.664 74.7512L4.25808 60.1155L17.2342 51.4525L16.6155 35.8627L31.6335 31.6335L35.8627 16.6155L51.4525 17.2342L60.1155 4.25808L74.7512 9.664L87 0Z" fill="#E51621"/>
<path d="M59.8553 69.312V99.384C59.8553 109.296 55.3193 114.672 45.7433 114.672C36.6713 114.672 31.9673 109.296 31.9673 99.888V98.376H40.7033V100.476C40.7033 104.676 42.5513 106.272 45.4913 106.272C48.7673 106.272 50.6153 104.676 50.6153 99.048V88.296C49.0193 91.656 46.1633 93.504 42.0473 93.504C35.2433 93.504 31.7993 88.716 31.7993 80.064V69.312C31.7993 59.904 36.7553 54.528 45.8273 54.528C54.8993 54.528 59.8553 59.904 59.8553 69.312ZM45.8273 85.104C48.7673 85.104 50.6153 83.508 50.6153 79.308V68.724C50.6153 64.524 48.7673 63.012 45.8273 63.012C42.8873 63.012 41.0393 64.524 41.0393 68.724V79.308C41.0393 83.508 42.8873 85.104 45.8273 85.104ZM74.512 68.724V100.476C74.512 104.676 76.36 106.272 79.3 106.272C82.24 106.272 84.088 104.676 84.088 100.476V68.724C84.088 64.524 82.24 62.928 79.3 62.928C76.36 62.928 74.512 64.524 74.512 68.724ZM65.272 99.888V69.312C65.272 59.904 70.228 54.528 79.3 54.528C88.372 54.528 93.328 59.904 93.328 69.312V99.888C93.328 109.296 88.372 114.672 79.3 114.672C70.228 114.672 65.272 109.296 65.272 99.888ZM104.709 63.768V83.928C104.709 86.532 105.801 87.624 107.733 87.624C109.581 87.624 110.757 86.532 110.757 83.928V63.768C110.757 61.164 109.581 60.072 107.733 60.072C105.801 60.072 104.709 61.164 104.709 63.768ZM98.8287 83.508V64.188C98.8287 58.14 101.937 54.78 107.733 54.78C113.529 54.78 116.637 58.14 116.637 64.188V83.508C116.637 89.556 113.529 92.916 107.733 92.916C101.937 92.916 98.8287 89.556 98.8287 83.508ZM107.733 114L130.917 55.2H136.377L113.193 114H107.733ZM133.857 85.272V105.432C133.857 108.036 134.949 109.128 136.881 109.128C138.729 109.128 139.905 108.036 139.905 105.432V85.272C139.905 82.668 138.729 81.576 136.881 81.576C134.949 81.576 133.857 82.668 133.857 85.272ZM127.977 105.012V85.692C127.977 79.644 131.085 76.284 136.881 76.284C142.677 76.284 145.785 79.644 145.785 85.692V105.012C145.785 111.06 142.677 114.42 136.881 114.42C131.085 114.42 127.977 111.06 127.977 105.012Z" fill="white"/>
<circle cx="87" cy="87" r="72" stroke="white" stroke-width="2" stroke-dasharray="12 12"/>
<path d="M181.974 83.696C181.974 75.632 185.934 71.024 193.638 71.024C201.342 71.024 205.302 75.632 205.302 83.696V85.28H197.814V83.192C197.814 79.592 196.374 78.224 193.854 78.224C191.334 78.224 189.894 79.592 189.894 83.192C189.894 93.56 205.374 95.504 205.374 109.904C205.374 117.968 201.342 122.576 193.566 122.576C185.79 122.576 181.758 117.968 181.758 109.904V106.808H189.246V110.408C189.246 114.008 190.83 115.304 193.35 115.304C195.87 115.304 197.454 114.008 197.454 110.408C197.454 100.04 181.974 98.096 181.974 83.696ZM230.36 71.6L238.424 122H230.432L229.064 112.856H219.344L217.976 122H210.704L218.768 71.6H230.36ZM224.168 80.528L220.352 106.016H227.984L224.168 80.528ZM244.992 122V71.6H252.912V114.8H265.944V122H244.992ZM280.19 78.8V92.84H291.062V100.04H280.19V114.8H293.87V122H272.27V71.6H293.87V78.8H280.19Z" fill="white"/>
<path d="M203.974 61L201.234 50.86V61H199.254V47H202.014L204.274 55.38V47H206.234V61H203.974ZM210.809 49V52.9H213.829V54.9H210.809V59H214.609V61H208.609V47H214.609V49H210.809ZM222.453 61L221.653 53.54L220.853 61H217.833L216.273 47H218.413L219.593 58.04L220.653 47H222.773L223.873 58.12L225.013 47H226.933L225.373 61H222.453ZM234.808 61V56.36L232.028 47H234.328L236.008 53.38L237.688 47H239.788L237.008 56.36V61H234.808ZM243.677 49V52.9H246.697V54.9H243.677V59H247.477V61H241.477V47H247.477V49H243.677ZM254.521 47L256.761 61H254.541L254.161 58.46H251.461L251.081 61H249.061L251.301 47H254.521ZM252.801 49.48L251.741 56.56H253.861L252.801 49.48ZM265.425 61H263.185C263.065 60.64 262.985 60.42 262.985 59.28V57.08C262.985 55.78 262.545 55.3 261.545 55.3H260.785V61H258.585V47H261.905C264.185 47 265.165 48.06 265.165 50.22V51.32C265.165 52.76 264.705 53.7 263.725 54.16C264.825 54.62 265.185 55.68 265.185 57.14V59.3C265.185 59.98 265.205 60.48 265.425 61ZM261.845 49H260.785V53.3H261.645C262.465 53.3 262.965 52.94 262.965 51.82V50.44C262.965 49.44 262.625 49 261.845 49ZM268.272 49.12H267.432V47H269.552V48.9L268.592 51.12H267.692L268.272 49.12ZM271.565 50.36C271.565 48.12 272.665 46.84 274.805 46.84C276.945 46.84 278.045 48.12 278.045 50.36V50.8H275.965V50.22C275.965 49.22 275.565 48.84 274.865 48.84C274.165 48.84 273.765 49.22 273.765 50.22C273.765 53.1 278.065 53.64 278.065 57.64C278.065 59.88 276.945 61.16 274.785 61.16C272.625 61.16 271.505 59.88 271.505 57.64V56.78H273.585V57.78C273.585 58.78 274.025 59.14 274.725 59.14C275.425 59.14 275.865 58.78 275.865 57.78C275.865 54.9 271.565 54.36 271.565 50.36Z" fill="white"/>
</svg>
