<svg width="92" height="92" viewBox="0 0 92 92" fill="none" xmlns="http://www.w3.org/2000/svg">
<rect width="92" height="92" fill="#33CCFF"/>
<path d="M75.7331 26.9468C73.7923 27.7828 71.7519 28.3649 69.6623 28.6788C70.6392 28.5112 72.0767 26.7512 72.6489 26.0388C73.5182 24.9642 74.1807 23.7375 74.6027 22.421C74.6027 22.3232 74.7004 22.1835 74.6027 22.1137C74.5535 22.0868 74.4983 22.0727 74.4422 22.0727C74.3861 22.0727 74.3309 22.0868 74.2817 22.1137C72.0128 23.3435 69.5979 24.2821 67.0944 24.9074C67.0071 24.9341 66.9143 24.9364 66.8258 24.9143C66.7373 24.8922 66.6564 24.8463 66.592 24.7817C66.3971 24.5494 66.1873 24.3301 65.964 24.1251C64.9428 23.2094 63.7843 22.46 62.5308 21.9042C60.8387 21.2094 59.011 20.9084 57.1857 21.0242C55.4146 21.1361 53.6854 21.6116 52.1057 22.421C50.5501 23.2744 49.183 24.4337 48.0864 25.8293C46.9329 27.2657 46.1001 28.9327 45.6441 30.7182C45.268 32.4166 45.2254 34.1719 45.5185 35.8865C45.5185 36.1798 45.5185 36.2218 45.2673 36.1798C35.3167 34.7132 27.1524 31.1792 20.4815 23.5943C20.1884 23.2591 20.0349 23.2591 19.7977 23.5943C16.8948 28.0084 18.3044 34.9925 21.9329 38.4427C22.4214 38.9037 22.9238 39.3507 23.4541 39.7697C21.7905 39.6515 20.1674 39.2003 18.6812 38.4427C18.4021 38.2611 18.2485 38.3589 18.2346 38.6942C18.195 39.1589 18.195 39.6262 18.2346 40.091C18.5258 42.3184 19.4028 44.4284 20.776 46.2053C22.1491 47.9821 23.9692 49.3621 26.0499 50.2041C26.5572 50.4215 27.0857 50.5854 27.627 50.693C26.0868 50.9965 24.5072 51.0437 22.9517 50.8327C22.6168 50.7628 22.4912 50.9444 22.6168 51.2657C24.6683 56.853 29.1202 58.5572 32.3859 59.507C32.8325 59.5769 33.2791 59.5769 33.7815 59.6886C33.7815 59.6886 33.7815 59.6886 33.6978 59.7724C32.7348 61.5324 28.8411 62.7197 27.0548 63.3344C23.7942 64.5066 20.3178 64.9546 16.8669 64.6474C16.3226 64.5636 16.197 64.5775 16.0575 64.6474C15.9179 64.7172 16.0575 64.8709 16.211 65.0106C16.9088 65.4715 17.6066 65.8766 18.3323 66.2677C20.4927 67.4471 22.7768 68.384 25.1428 69.0614C37.3961 72.4417 51.1846 69.9554 60.3816 60.8061C67.6108 53.6263 70.1508 43.7228 70.1508 33.8052C70.1508 33.4281 70.6113 33.2046 70.8765 33.009C72.7054 31.5827 74.3178 29.8983 75.6634 28.0084C75.8964 27.7266 76.0158 27.3679 75.9983 27.0026C75.9983 26.7931 75.9983 26.835 75.7331 26.9468Z" fill="white"/>
</svg>
