<svg width="61" height="24" viewBox="0 0 61 24" fill="none" xmlns="http://www.w3.org/2000/svg">
<path fill-rule="evenodd" clip-rule="evenodd" d="M4.92933 13.5236C3.30538 13.5236 1.42275 14.2997 0.402394 15.1044L1.33652 17.0589C2.15568 16.3116 3.47783 15.6793 4.67064 15.6793C5.80597 15.6793 6.42393 16.0529 6.42393 16.8146C6.42393 17.332 6.00717 17.5907 5.23112 17.6913C2.29939 18.0649 0 18.8697 0 21.126C0 22.908 1.27904 24.0002 3.26226 24.0002C4.68501 24.0002 5.94968 23.2098 6.55327 22.1751V23.7128H9.19757V17.2601C9.19757 14.6014 7.34369 13.5236 4.92933 13.5236ZM3.93771 21.9308C3.19041 21.9308 2.81676 21.5715 2.81676 20.9679C2.81676 19.8469 4.06705 19.4733 6.35208 19.229C6.36645 20.7236 5.34609 21.9308 3.93771 21.9308ZM34.1316 15.4781V13.811H31.4873V23.7128H34.3185V18.9416C34.3185 16.6709 35.6837 16.0098 36.6466 16.0098C37.0202 16.0098 37.5232 16.1248 37.8538 16.3691L38.3711 13.7535C37.94 13.5667 37.4801 13.5236 37.1065 13.5236C35.655 13.5236 34.7352 14.1703 34.1316 15.4781ZM51.5064 13.5236C50.0118 13.5236 48.8909 14.4146 48.3016 15.2625C47.7555 14.1559 46.6202 13.5236 45.2406 13.5236C43.746 13.5236 42.7112 14.3571 42.2226 15.3056V13.811H39.4921V23.7128H42.3232V18.611C42.3232 16.7859 43.2861 15.9092 44.1771 15.9092C44.9819 15.9092 45.7292 16.4266 45.7292 17.7775V23.7128H48.5747V18.611C48.5747 16.7571 49.5088 15.9092 50.4429 15.9092C51.1903 15.9092 51.9807 16.4553 51.9807 17.7631V23.7128H54.8118V16.8721C54.8118 14.6446 53.3172 13.5236 51.5064 13.5236ZM19.1999 13.0781V13.811H14.9029V12.805C14.9029 11.4973 15.6502 11.1236 16.297 11.1236C16.6706 11.1236 17.1592 11.2098 17.5616 11.4398L18.4383 9.44218C17.9209 9.14039 17.073 8.86734 15.9377 8.86734C14.1269 8.86734 12.0718 9.88769 12.0718 13.0925V13.8254H10.4335V16.0098H12.0718V23.7128H14.9029V15.9955H19.1999V23.7128H22.0311V15.9955H24.6035V13.811H22.0311V12.805C22.0311 11.4973 22.7784 11.1236 23.4251 11.1236C24.1436 11.1236 24.6897 11.4398 24.6897 11.4398L25.5664 9.44218C25.5664 9.44218 24.6754 8.86734 23.0658 8.86734C21.2694 8.85297 19.1999 9.87332 19.1999 13.0781ZM26.2849 13.811H29.1161V23.7128H26.2849V13.811Z" fill="#060809"/>
<path fill-rule="evenodd" clip-rule="evenodd" d="M42.7831 0C35.1376 0 28.3256 5.30298 26.3999 12.1293H29.1735C30.7831 7.04189 36.2586 2.58682 42.7831 2.58682C50.716 2.58682 57.5567 8.62273 57.5567 18.0215C57.5567 20.1341 57.2836 22.0311 56.7663 23.7125H59.4537L59.4824 23.6263C59.9279 21.8874 60.1435 20.0047 60.1435 18.0215C60.1435 7.54489 52.5124 0 42.7831 0Z" fill="#0FA0EA"/>
</svg>
