<svg width="300" height="120" viewBox="0 0 300 120" fill="none" xmlns="http://www.w3.org/2000/svg">
<rect width="300" height="120" fill="#B2FCE4"/>
<g clip-path="url(#clip0_16_112)">
<path d="M38.8924 61.9998C38.8924 57.7755 35.5344 54.8067 31.4096 54.8067C27.2847 54.8067 23.9267 57.8256 23.9267 61.9998C23.9267 66.124 27.2847 69.1931 31.4096 69.1931C35.5386 69.1891 38.8924 66.224 38.8924 61.9998ZM38.9514 74.5726V71.3032C36.9164 73.5675 33.887 74.973 30.2593 74.973C22.7217 74.973 17 69.4394 17 61.9998C17 54.6064 22.9408 48.9766 30.4279 48.9766C33.9503 48.9766 36.9207 50.3859 38.9556 52.5963V49.4271H45.7222V74.5726H38.9514Z" fill="black"/>
<path d="M78.5904 68.989C76.2225 68.989 75.5652 68.1841 75.5652 66.0739V54.9105H79.9133V49.4271H75.5652V43.2929H68.6301V49.4271H59.6978V47.8984C59.6978 45.7843 60.5785 44.9795 63.0012 44.9795H64.5222V40.1006H61.1852C55.4635 40.1006 52.7669 41.8103 52.7669 47.0396V49.4233H48.916V54.9067H52.7669V74.5687H59.7022V54.9067H68.6343V67.2291C68.6343 72.3583 70.779 74.5726 76.3911 74.5726H79.9681V68.989H78.5904Z" fill="black"/>
<path d="M103.462 59.7356C102.969 56.4662 100.049 54.5061 96.6402 54.5061C93.2274 54.5061 90.4214 56.4161 89.7093 59.7356H103.462ZM89.6503 63.6594C90.1475 67.3793 93.0631 69.4934 96.7498 69.4934C99.6654 69.4934 101.924 68.2341 103.242 66.224H110.342C108.69 71.5535 103.462 74.973 96.5855 74.973C88.2767 74.973 82.4456 69.6435 82.4456 62.0498C82.4456 54.4561 88.6097 48.9727 96.754 48.9727C104.953 48.9727 110.894 54.5063 110.894 62.0498C110.894 62.6044 110.839 63.155 110.73 63.6594H89.6503Z" fill="black"/>
<path d="M154.987 61.9998C154.987 57.9256 151.629 54.8067 147.504 54.8067C143.379 54.8067 140.021 57.8256 140.021 61.9998C140.021 66.124 143.379 69.1931 147.504 69.1931C151.629 69.1891 154.987 66.0739 154.987 61.9998ZM133.195 49.4271H139.962V52.6964C141.997 50.3821 145.022 48.9766 148.654 48.9766C156.082 48.9766 161.913 54.5601 161.913 61.9497C161.913 69.3431 155.972 74.9768 148.49 74.9768C145.022 74.9768 142.161 73.7176 140.181 71.6075V84.9196H133.195V49.4271Z" fill="black"/>
<path d="M186.304 61.9998C186.304 57.7755 182.95 54.8067 178.821 54.8067C174.696 54.8067 171.338 57.8256 171.338 61.9998C171.338 66.124 174.696 69.1931 178.821 69.1931C182.95 69.1891 186.304 66.224 186.304 61.9998ZM186.364 74.5726V71.3032C184.329 73.5675 181.298 74.973 177.671 74.973C170.133 74.973 164.412 69.4394 164.412 61.9998C164.412 54.6064 170.353 48.9766 177.836 48.9766C181.358 48.9766 184.329 50.3859 186.364 52.5963V49.4271H193.131V74.5726H186.364Z" fill="black"/>
<path d="M120.997 51.8916C120.997 51.8916 122.721 48.9766 126.938 48.9766C128.742 48.9766 129.909 49.5426 129.909 49.5426V55.958C129.909 55.958 127.364 54.5216 125.025 54.8104C122.687 55.0993 121.208 57.0631 121.217 59.6893V74.5764H114.231V49.4309H120.997V51.8916Z" fill="black"/>
<path d="M224.733 49.4268L207.648 84.8383H200.444L207.151 71.1488L195.81 49.4268H203.975L210.611 63.9403L217.42 49.4268H224.733Z" fill="black"/>
<path d="M279.271 48.8568L262.334 39.923C257.361 37.3007 251.147 40.5777 251.147 45.8262V46.7427C251.147 47.5706 251.631 48.3369 252.415 48.749L255.613 50.4356C256.552 50.9323 257.723 50.3124 257.723 49.3227V47.0431C257.723 45.9033 259.073 45.1909 260.151 45.7608L274.821 53.5008C275.901 54.0707 275.901 55.4955 274.821 56.0616L260.151 63.8016C259.073 64.3715 257.723 63.6591 257.723 62.5193V61.3062C257.723 56.0577 251.509 52.7769 246.534 55.403L229.596 64.3368C224.624 66.9592 224.624 73.5209 229.596 76.1432L246.534 85.077C251.505 87.6993 257.723 84.4223 257.723 79.1738V78.2573C257.723 77.4293 257.24 76.6669 256.456 76.251L253.258 74.5605C252.319 74.0638 251.147 74.6838 251.147 75.6735V77.9531C251.147 79.093 249.8 79.8052 248.72 79.2353L234.049 71.4953C232.971 70.9254 232.971 69.5007 234.049 68.9308L248.72 61.1907C249.8 60.6208 251.147 61.3332 251.147 62.473V63.6861C251.147 68.9346 257.361 72.2155 262.334 69.5893L279.271 60.6555C284.243 58.0408 284.243 51.4791 279.271 48.8568Z" fill="black"/>
</g>
<defs>
<clipPath id="clip0_16_112">
<rect width="266" height="47" fill="white" transform="translate(17 39)"/>
</clipPath>
</defs>
</svg>
