<svg width="300" height="120" viewBox="0 0 300 120" fill="none" xmlns="http://www.w3.org/2000/svg">
<rect width="300" height="120" fill="#FFC500"/>
<path d="M140.862 60.4835V75.0712H137.538V60.4835C137.538 56.0475 135.748 54.0001 131.827 54.0001C127.224 54.0001 124.752 57.4124 124.752 60.8248V75.1565H121.428V51.0997H124.752V53.7442C126.372 52.038 128.929 50.7584 131.997 50.7584C137.708 50.7584 140.862 54.256 140.862 60.4835ZM180.667 50.7584C177.513 50.7584 175.041 52.038 173.422 53.7442V40.5215H170.097V75.0712H173.422V60.7394C173.422 57.3271 175.808 53.9148 180.496 53.9148C184.417 53.9148 186.207 55.9622 186.207 60.3982V75.0712H189.531V60.4835C189.531 54.256 186.377 50.7584 180.667 50.7584ZM230.529 62.9574V63.2987C230.529 70.2939 225.585 75.4977 219.022 75.4977C212.63 75.4977 207.516 70.1233 207.516 63.2987V62.9574C207.516 56.0475 212.459 50.7584 219.108 50.7584C225.756 50.8437 230.529 55.8769 230.529 62.9574ZM227.12 63.2987V62.9574C227.12 57.6684 223.796 54.0001 219.108 54.0001C214.42 54.0001 210.925 57.7537 210.925 63.0428V63.384C210.925 68.5878 214.334 72.3413 219.022 72.3413C223.796 72.256 227.12 68.5878 227.12 63.2987ZM244.934 50.7584C241.78 50.7584 239.308 52.038 237.689 53.7442V51.0997H234.365V75.1565H237.689V60.7394C237.689 57.3271 240.075 53.9148 244.763 53.9148C248.684 53.9148 250.474 55.9622 250.474 60.3982V75.0712H253.798V60.4835C253.798 54.256 250.645 50.7584 244.934 50.7584ZM155.693 72.256C151.005 72.256 147.595 68.5025 147.595 63.2987V62.9574C147.595 57.7537 151.005 53.9148 155.778 53.9148C159.017 53.9148 161.659 55.7063 162.938 58.5214H166.518C164.983 53.8295 160.892 50.7584 155.778 50.7584C149.215 50.7584 144.186 55.9622 144.186 62.9574V63.2987C144.186 70.1233 149.215 75.4977 155.693 75.4977C161.233 75.4977 165.665 71.7442 166.859 66.2845H163.364C162.341 69.9527 159.443 72.256 155.693 72.256ZM205.044 50.7584C201.89 50.7584 199.418 52.038 197.799 53.7442V51.0997H194.475V75.1565H197.799V60.7394C197.799 57.3271 200.185 53.9148 204.873 53.9148C205.726 53.9148 206.578 54.0001 207.26 54.256V50.929C206.493 50.8437 205.811 50.7584 205.044 50.7584ZM86.908 61.2513C81.5382 60.3982 80.6006 59.3745 80.6006 57.4977C80.6006 55.4504 82.7315 54.0001 85.8852 54.0001C89.1242 54.0001 90.9993 55.1944 91.5107 57.7537V57.9243H95.0906L95.0054 57.4977C94.3235 53.2324 91.0846 50.929 85.9705 50.929C80.8564 50.929 77.1912 53.7442 77.1912 57.5831C77.1912 62.6162 81.453 63.7252 86.1409 64.493C90.5732 65.2608 91.9369 65.8579 91.9369 68.5025C91.9369 70.8911 89.7208 72.4266 86.3114 72.4266C81.6235 72.4266 80.2597 69.9527 79.8335 67.82H76.2537C76.6798 72.5972 80.5154 75.583 86.3114 75.583C91.6812 75.583 95.4316 72.5972 95.4316 68.4172C95.5168 63.1281 91.4255 62.0191 86.908 61.2513ZM274.084 51.0997L266.839 70.8058L258.316 51.0997H254.821L264.964 74.9859L261.81 84.3697H265.305L277.494 51.0997H274.084ZM115.121 51.0997L107.876 70.8058L99.3524 51.0997H95.8577L106.001 74.9859L102.847 84.3697H106.342L118.53 51.0997H115.121Z" fill="#343741"/>
<path d="M33.4839 63.1279H23V90.2558H33.4839V63.1279ZM48.9115 36V90.2558H38.4275V36H48.9115ZM64.2538 36V63.1279H53.8551V36H64.2538Z" fill="#343741"/>
</svg>
