<svg width="300" height="120" viewBox="0 0 300 120" fill="none" xmlns="http://www.w3.org/2000/svg">
<rect width="300" height="120" fill="#494AF4"/>
<path fill-rule="evenodd" clip-rule="evenodd" d="M62.2115 65.4236C56.5412 65.4236 49.9677 68.134 46.405 70.9447L49.6667 77.7707C52.5269 75.1608 57.1434 72.9523 61.3082 72.9523C65.2724 72.9523 67.4301 74.2573 67.4301 76.9175C67.4301 78.7244 65.9749 79.6278 63.2652 79.9791C53.0287 81.2841 45 84.0948 45 91.9749C45 98.1986 49.466 102.013 56.3907 102.013C61.3584 102.013 65.7742 99.2526 67.8817 95.6388V101.009H77.1147V78.4734C77.1147 69.188 70.6416 65.4236 62.2115 65.4236ZM58.7491 94.7856C56.1398 94.7856 54.8351 93.5308 54.8351 91.4228C54.8351 87.5078 59.2007 86.2029 67.1792 85.3496C67.2294 90.5695 63.6667 94.7856 58.7491 94.7856ZM164.176 72.2497V66.4275H154.943V101.009H164.828V84.3458C164.828 76.4156 169.595 74.1067 172.957 74.1067C174.262 74.1067 176.018 74.5083 177.172 75.3615L178.979 66.2267C177.473 65.5742 175.867 65.4236 174.563 65.4236C169.495 65.4236 166.283 67.6823 164.176 72.2497ZM224.842 65.4236C219.624 65.4236 215.71 68.5355 213.652 71.4968C211.746 67.6321 207.781 65.4236 202.964 65.4236C197.746 65.4236 194.133 68.3347 192.427 71.6474V66.4275H182.893V101.009H192.778V83.1914C192.778 76.8171 196.14 73.7554 199.251 73.7554C202.061 73.7554 204.67 75.5623 204.67 80.2803V101.009H214.606V83.1914C214.606 76.7167 217.867 73.7554 221.129 73.7554C223.738 73.7554 226.498 75.6627 226.498 80.2301V101.009H236.384V77.1182C236.384 69.3386 231.165 65.4236 224.842 65.4236ZM112.039 63.8677V66.4275H97.0359V62.9141C97.0359 58.3467 99.6452 57.0417 101.903 57.0417C103.208 57.0417 104.914 57.3428 106.319 58.1459L109.38 51.1693C107.573 50.1153 104.613 49.1617 100.649 49.1617C94.3262 49.1617 87.1505 52.7252 87.1505 63.9179V66.4777H81.4301V74.1067H87.1505V101.009H97.0359V74.0566H112.039V101.009H121.925V74.0566H130.907V66.4275H121.925V62.9141C121.925 58.3467 124.534 57.0417 126.792 57.0417C129.301 57.0417 131.208 58.1459 131.208 58.1459L134.269 51.1693C134.269 51.1693 131.158 49.1617 125.538 49.1617C119.265 49.1115 112.039 52.675 112.039 63.8677ZM136.778 66.4275H146.663V101.009H136.778V66.4275Z" fill="white"/>
<path fill-rule="evenodd" clip-rule="evenodd" d="M194.384 18.1934C167.688 18.1934 143.903 36.714 137.179 60.5548H146.864C152.484 42.7871 171.602 27.2278 194.384 27.2278C222.082 27.2278 245.968 48.3082 245.968 81.1333C245.968 88.5114 245.014 95.1367 243.208 101.009H252.591L252.692 100.708C254.247 94.6348 255 88.0597 255 81.1333C255 44.5438 228.355 18.1934 194.384 18.1934Z" fill="white"/>
</svg>
