<svg width="300" height="120" viewBox="0 0 300 120" fill="none" xmlns="http://www.w3.org/2000/svg">
<rect width="300" height="120" fill="#DD1E25"/>
<path d="M170.954 47.0507C170.057 48.8285 168.113 49.3134 164.824 49.3134H157.947V28.9496C157.947 26.5253 158.395 26.2021 161.086 26.2021H163.18V22.8081H146.285V26.2021H147.78C150.172 26.2021 151.518 26.5253 151.518 29.1112V46.8891C151.518 49.475 150.471 49.7982 148.079 49.7982H146.435V53.1922H175.439V40.9093H172.15C172.15 43.6568 171.851 45.5962 170.954 47.0507ZM134.026 49.3134H125.055V38.8082H127.148C130.737 38.8082 131.185 39.4547 131.335 44.7881H134.624V29.4344H131.335C131.036 33.9597 130.587 35.2526 126.999 35.2526H124.906V26.2021H132.83C138.511 26.2021 140.006 27.3334 140.305 34.4446H143.445V22.6465H101.882V26.0404H103.825C105.47 26.0404 106.217 26.3637 106.217 27.3334C106.217 27.8182 106.217 28.6263 105.918 29.596L100.387 45.1113H100.088C97.546 37.3537 94.2568 28.6263 94.2568 28.6263C94.1073 28.1415 93.9578 27.6566 93.9578 27.3334C93.9578 26.3637 94.5558 26.0404 95.9014 26.0404H98.2935V22.6465H83.3428V26.0404H85.2864C87.6785 26.0404 88.4261 27.3334 88.7251 29.7576L83.1933 44.9497H82.7448C80.2032 36.7072 76.914 28.4647 76.914 28.4647C76.7645 27.9799 76.7645 27.6566 76.7645 27.495C76.7645 26.5253 77.3625 26.0404 79.0071 26.0404H80.3527V22.6465H66V26.0404H66.598C68.6911 26.0404 70.0367 27.495 71.0832 30.0809L79.4556 53.0306H84.6884L90.8182 36.0607L97.247 52.869H102.33L110.404 29.7576C111.301 27.0101 112.198 26.0404 114.44 26.0404H114.889C117.281 26.0404 118.626 26.3637 118.626 28.7879V46.7275C118.626 49.3134 117.281 49.475 114.889 49.475H113.244V52.869H144.043V40.586H140.754C140.305 46.7275 139.109 49.3134 134.026 49.3134ZM201.154 47.0507C200.257 48.8285 198.314 49.3134 195.025 49.3134H188.147V28.9496C188.147 26.5253 188.596 26.2021 191.287 26.2021H193.38V22.8081H176.486V26.2021H178.28C180.672 26.2021 181.868 26.5253 181.868 29.1112V46.8891C181.868 49.475 180.821 49.7982 178.28 49.7982H177.831V53.1922H205.64V40.9093H202.35C202.35 43.6568 202.051 45.5962 201.154 47.0507ZM223.73 34.4446L217.899 33.3132C215.208 32.8284 213.115 32.5051 213.115 30.2425C213.115 27.8182 215.358 25.7172 218.647 25.5556C223.281 25.394 228.664 27.1718 229.262 33.1516H232.401V22.4849H229.86L228.514 25.0707C225.524 22.4849 221.487 22 218.497 22C212.218 22 207.583 25.7172 207.733 31.2122C207.882 36.2223 210.274 38.485 217.451 39.9396L222.235 40.9093C225.524 41.5557 229.411 41.2325 228.963 45.1113C228.664 48.5053 225.524 49.6366 221.039 49.475C215.956 49.1518 212.218 46.7275 211.321 40.9093H208.032V53.0306H210.872L211.769 49.7982C212.666 50.7679 217.002 53.5154 221.637 53.5154C229.112 53.5154 234.195 51.0912 234.195 44.1416C234.345 36.8688 229.71 35.5759 223.73 34.4446Z" fill="#FCB827"/>
<path d="M84.8879 80.1643H82.6453V71.1137H89.6721C92.9613 71.1137 94.9049 71.4369 95.9514 73.2147C96.699 74.8309 97.1475 76.9319 97.1475 79.3562H100.437V67.5581H71.5818V70.9521H73.2264C75.6185 70.9521 76.5155 71.2753 76.5155 73.6996V91.6391C76.5155 94.225 75.6185 94.3866 73.2264 94.3866H71.5818V97.7806H88.9246V94.3866H85.6354C83.2433 94.3866 82.7948 94.0634 82.7948 91.6391V83.7199H85.0374C88.4761 83.7199 89.0741 84.6896 89.0741 89.8613H91.7652V74.6693H89.2236C88.9246 79.5178 88.4761 80.1643 84.8879 80.1643ZM159.193 89.2148C159.342 92.7704 159.193 94.225 157.548 94.225C156.651 94.225 156.053 93.4169 155.904 91.6391V89.6997C155.605 85.6593 155.007 83.7199 149.923 82.4269C155.306 81.6188 158.445 79.0329 158.445 74.6693C158.445 69.8207 155.156 67.3965 147.98 67.3965H128.693V70.7904H130.936C133.328 70.7904 133.777 71.1137 133.777 73.5379V91.4775C133.777 93.7401 132.431 94.3866 130.787 94.3866H128.843C127.198 94.3866 126.301 93.7401 125.554 91.4775L116.583 67.5581H109.706L100.287 91.4775C99.3901 93.5785 98.7921 94.3866 96.5495 94.3866H95.2039V97.7806H109.856V94.3866H106.865C105.37 94.3866 104.623 94.3866 104.623 93.4169C104.623 93.0937 104.772 92.6088 104.922 91.9623L106.267 88.2451H117.181L118.377 91.8007C118.638 92.2368 118.793 92.7372 118.826 93.2553C118.826 94.225 118.078 94.5482 116.434 94.5482H113.444V97.9422H145.289V94.5482H142.747C140.355 94.5482 139.907 94.225 139.907 91.8007V83.7199H142.747C147.531 83.7199 149.176 84.6896 149.325 89.8613L149.475 93.4169C149.624 97.619 152.166 98.7503 156.053 98.7503C159.492 98.7503 161.735 96.4876 161.735 90.9926V89.3765H159.193V89.2148ZM107.912 84.6896L112.098 73.0531L116.434 84.6896H107.912ZM146.186 80.1643H140.056V70.9521H146.036C150.073 70.9521 151.867 71.9218 151.867 75.4774C152.017 78.8713 150.073 80.1643 146.186 80.1643ZM180.722 85.336H182.067C184.759 85.336 185.207 85.336 185.207 87.4371V89.0532C185.207 92.6088 181.768 94.5482 178.031 94.5482C172.798 94.5482 169.957 90.1846 169.957 82.4269C169.957 74.6693 173.546 70.6288 178.031 70.6288C182.666 70.6288 185.506 72.7299 186.852 77.2551H189.692V67.0732H187.45L185.955 70.144C183.862 67.7197 180.273 66.9116 176.984 66.9116C173.097 66.9116 169.509 68.3662 167.117 70.9521C164.276 74.0228 162.931 77.74 162.931 82.4269C162.931 87.1138 164.426 91.1543 167.266 94.225C169.808 97.1341 173.097 98.5887 176.984 98.5887C180.273 98.5887 184.011 97.619 186.553 95.3563L188.048 97.9422H190.29V87.7603C190.29 85.1744 190.589 85.336 192.683 85.336H193.729V81.7804H180.722V85.336ZM212.567 66.9116C203.297 66.9116 196.121 73.0531 196.121 82.5885C196.121 92.124 203.297 98.4271 212.716 98.4271C221.986 98.4271 229.013 92.124 229.013 82.5885C228.863 73.0531 221.836 66.9116 212.567 66.9116ZM221.986 82.7501C221.986 90.6694 217.949 94.8715 212.567 94.8715C207.035 94.8715 202.998 90.6694 202.998 82.7501C202.998 74.8309 207.185 70.6288 212.567 70.6288C217.949 70.6288 221.986 74.8309 221.986 82.7501Z" fill="#FCB827"/>
</svg>
