<svg width="300" height="120" viewBox="0 0 300 120" fill="none" xmlns="http://www.w3.org/2000/svg">
<rect width="300" height="120" fill="#FFA8CD"/>
<path fill-rule="evenodd" clip-rule="evenodd" d="M48.3612 85.0185H37V33H48.3612V85.0185ZM76.7374 33H65.6191C65.6191 42.5728 61.4292 51.3592 54.1246 57.1073L49.7198 60.5725L66.7868 85.0205H80.8195L65.1153 62.5244C72.5597 54.7377 76.7374 44.2615 76.7374 33ZM94.8607 85.0041H84.1314V33.0101H94.8607V85.0041ZM127.29 49.0378V51.3385C124.394 49.2633 120.899 48.0438 117.129 48.0438C107.151 48.0438 99.0629 56.5402 99.0629 67.0217C99.0629 77.5031 107.151 86 117.129 86C120.899 86 124.394 84.7805 127.29 82.7058V85.0041H137.541V49.0378H127.29ZM127.256 67.0217C127.256 72.1323 123.097 76.2759 117.967 76.2759C112.838 76.2759 108.679 72.1323 108.679 67.0217C108.679 61.911 112.838 57.7688 117.967 57.7688C123.097 57.7688 127.256 61.911 127.256 67.0217ZM235.435 51.3385V49.0378H245.686V85.0041H235.435V82.7058C232.539 84.7805 229.044 86 225.273 86C215.295 86 207.207 77.5031 207.207 67.0217C207.207 56.5402 215.295 48.0438 225.273 48.0438C229.044 48.0438 232.539 49.2633 235.435 51.3385ZM226.112 76.2759C231.242 76.2759 235.4 72.1323 235.4 67.0217C235.4 61.911 231.242 57.7688 226.112 57.7688C220.982 57.7688 216.823 61.911 216.823 67.0217C216.823 72.1323 220.982 76.2759 226.112 76.2759ZM250.134 79.005C250.134 75.2728 253.015 72.2475 256.567 72.2475C260.119 72.2475 263 75.2728 263 79.005C263 82.7367 260.119 85.7625 256.567 85.7625C253.015 85.7625 250.134 82.7367 250.134 79.005ZM188.992 48.0703C184.897 48.0703 181.022 49.4059 178.431 53.0904V49.0397H168.224V85.0041H178.556V66.1038C178.556 60.6342 182.047 57.9563 186.251 57.9563C190.756 57.9563 193.346 60.7831 193.346 66.0291V85.0041H203.585V62.1322C203.585 53.7625 197.25 48.0703 188.992 48.0703ZM153.399 49.0383V53.7225C155.454 50.9126 159.282 49.0402 163.446 49.0402V59.5063L163.413 59.5048L163.388 59.5039L163.362 59.5024L163.324 59.5014C159.268 59.5014 153.422 62.5465 153.422 68.2122V85.0041H142.904V49.0383H153.399Z" fill="#060809"/>
</svg>
