<svg width="62" height="11" viewBox="0 0 62 11" fill="none" xmlns="http://www.w3.org/2000/svg">
<g clip-path="url(#clip0_15_17)">
<path d="M5.10275 5.38295C5.10275 4.3943 4.32006 3.69945 3.35863 3.69945C2.39719 3.69945 1.6145 4.40601 1.6145 5.38295C1.6145 6.34818 2.39719 7.06648 3.35863 7.06648C4.32103 7.06556 5.10275 6.3716 5.10275 5.38295ZM5.11649 8.32552V7.56034C4.64216 8.0903 3.93607 8.41923 3.09052 8.41923C1.33363 8.41923 0 7.12414 0 5.38295C0 3.65258 1.3847 2.33496 3.1298 2.33496C3.95082 2.33496 4.64317 2.66482 5.11747 3.18213V2.4404H6.69466V8.32552H5.11649Z" fill="black"/>
<path d="M14.3556 7.01893C13.8036 7.01893 13.6504 6.83055 13.6504 6.33668V3.72397H14.6639V2.44062H13.6504V1.00494H12.034V2.44062H9.95202V2.08282C9.95202 1.58804 10.1573 1.39968 10.722 1.39968H11.0765V0.257812H10.2987C8.96506 0.257812 8.33655 0.657963 8.33655 1.88185V2.43971H7.43896V3.72308H8.33655V8.32481H9.95303V3.72308H12.035V6.60703C12.035 7.80749 12.5348 8.32573 13.8429 8.32573H14.6767V7.01893H14.3556Z" fill="black"/>
<path d="M20.1526 4.85296C20.0377 4.08779 19.3572 3.62905 18.5627 3.62905C17.7672 3.62905 17.1132 4.07608 16.9472 4.85296H20.1526ZM16.9335 5.77132C17.0493 6.64191 17.7289 7.1367 18.5882 7.1367C19.2678 7.1367 19.7942 6.84197 20.1015 6.37153H21.7563C21.3713 7.61886 20.1526 8.41916 18.5499 8.41916C16.6133 8.41916 15.2542 7.17183 15.2542 5.39459C15.2542 3.61734 16.6909 2.33398 18.5892 2.33398C20.5003 2.33398 21.885 3.62909 21.885 5.39459C21.885 5.52439 21.8722 5.65326 21.8467 5.77132H16.9335Z" fill="black"/>
<path d="M32.1622 5.38295C32.1622 4.42942 31.3795 3.69945 30.418 3.69945C29.4566 3.69945 28.6739 4.40601 28.6739 5.38295C28.6739 6.34818 29.4566 7.06648 30.418 7.06648C31.3795 7.06556 32.1622 6.33647 32.1622 5.38295ZM27.083 2.4404H28.6602V3.20556C29.1345 2.66391 29.8396 2.33496 30.6861 2.33496C32.4175 2.33496 33.7767 3.64175 33.7767 5.37124C33.7767 7.10161 32.392 8.42012 30.6479 8.42012C29.8396 8.42012 29.1728 8.12543 28.7113 7.63156V10.7472H27.083V2.4404Z" fill="black"/>
<path d="M39.4619 5.38295C39.4619 4.3943 38.6802 3.69945 37.7177 3.69945C36.7563 3.69945 35.9736 4.40601 35.9736 5.38295C35.9736 6.34818 36.7563 7.06648 37.7177 7.06648C38.6802 7.06556 39.4619 6.3716 39.4619 5.38295ZM39.4757 8.32552V7.56034C39.0014 8.0903 38.2951 8.41923 37.4495 8.41923C35.6927 8.41923 34.3591 7.12414 34.3591 5.38295C34.3591 3.65258 35.7438 2.33496 37.488 2.33496C38.3089 2.33496 39.0014 2.66482 39.4757 3.18213V2.4404H41.053V8.32552H39.4757Z" fill="black"/>
<path d="M24.24 3.0172C24.24 3.0172 24.6417 2.33496 25.6247 2.33496C26.045 2.33496 26.3171 2.46744 26.3171 2.46744V3.96892C26.3171 3.96892 25.7239 3.63274 25.1788 3.70034C24.6338 3.76793 24.2891 4.22756 24.2911 4.84221V8.32641H22.6628V2.44131H24.24V3.0172Z" fill="black"/>
<path d="M48.4191 2.44043L44.4369 10.7282H42.7576L44.3211 7.52432L41.6775 2.44043H43.5808L45.1275 5.8372L46.7144 2.44043H48.4191Z" fill="black"/>
<path d="M61.1309 2.30691L57.183 0.216028C56.0241 -0.397715 54.5757 0.369241 54.5757 1.59763V1.81213C54.5757 2.00589 54.6885 2.18524 54.8711 2.28167L55.6166 2.67641C55.8355 2.79268 56.1085 2.64758 56.1085 2.41596V1.88242C56.1085 1.61565 56.423 1.44893 56.6743 1.58231L60.0937 3.3938C60.3454 3.52719 60.3454 3.86064 60.0937 3.99314L56.6743 5.80463C56.423 5.93801 56.1085 5.77127 56.1085 5.50451V5.2206C56.1085 3.99222 54.6601 3.22437 53.5004 3.839L49.5526 5.92989C48.3936 6.54365 48.3936 8.07936 49.5526 8.69309L53.5004 10.784C54.659 11.3977 56.1085 10.6308 56.1085 9.40237V9.18787C56.1085 8.9941 55.9957 8.81565 55.8131 8.71832L55.0676 8.32267C54.8487 8.20643 54.5757 8.35152 54.5757 8.58316V9.11669C54.5757 9.38346 54.2616 9.55016 54.0098 9.41678L50.5905 7.60529C50.3391 7.47191 50.3391 7.13847 50.5905 7.00508L54.0098 5.19356C54.2616 5.06018 54.5757 5.22692 54.5757 5.49368V5.77759C54.5757 7.00597 56.0241 7.77384 57.183 7.15919L61.1309 5.0683C62.2898 4.45635 62.2898 2.92065 61.1309 2.30691Z" fill="black"/>
</g>
<defs>
<clipPath id="clip0_15_17">
<rect width="62" height="11" fill="white"/>
</clipPath>
</defs>
</svg>
