<svg width="65" height="15" viewBox="0 0 65 15" fill="none" xmlns="http://www.w3.org/2000/svg">
<path fill-rule="evenodd" clip-rule="evenodd" d="M3.26759 14.7222H0V0H3.26759V14.7222ZM11.4289 0H8.23117C8.23117 2.70927 7.02609 5.196 4.92523 6.82282L3.65835 7.80355L8.567 14.7228H12.603L8.08627 8.35596C10.2273 6.15218 11.4289 3.18723 11.4289 0ZM16.6414 14.7181H13.5555V0.00286362H16.6414V14.7181ZM25.9683 4.539V5.19014C25.1355 4.60282 24.1302 4.25768 23.0459 4.25768C20.1761 4.25768 17.8499 6.66232 17.8499 9.62877C17.8499 12.5952 20.1761 15 23.0459 15C24.1302 15 25.1355 14.6549 25.9683 14.0677V14.7181H28.9167V4.539H25.9683ZM25.9586 9.62877C25.9586 11.0752 24.7624 12.2479 23.2871 12.2479C21.8117 12.2479 20.6156 11.0752 20.6156 9.62877C20.6156 8.18236 21.8117 7.01004 23.2871 7.01004C24.7624 7.01004 25.9586 8.18236 25.9586 9.62877ZM57.0719 5.19014V4.539H60.0202V14.7181H57.0719V14.0677C56.2391 14.6549 55.2338 15 54.1493 15C51.2796 15 48.9534 12.5952 48.9534 9.62877C48.9534 6.66232 51.2796 4.25768 54.1493 4.25768C55.2338 4.25768 56.2391 4.60282 57.0719 5.19014ZM54.3906 12.2479C55.8661 12.2479 57.062 11.0752 57.062 9.62877C57.062 8.18236 55.8661 7.01004 54.3906 7.01004C52.9151 7.01004 51.7191 8.18236 51.7191 9.62877C51.7191 11.0752 52.9151 12.2479 54.3906 12.2479ZM61.2997 13.0203C61.2997 11.964 62.1281 11.1078 63.1498 11.1078C64.1715 11.1078 65 11.964 65 13.0203C65 14.0764 64.1715 14.9328 63.1498 14.9328C62.1281 14.9328 61.2997 14.0764 61.2997 13.0203ZM43.7144 4.26518C42.5367 4.26518 41.4222 4.64318 40.677 5.68596V4.53955H37.7414V14.7181H40.713V9.369C40.713 7.821 41.7171 7.06309 42.9261 7.06309C44.2219 7.06309 44.9669 7.86314 44.9669 9.34786V14.7181H47.9116V8.24496C47.9116 5.87618 46.0896 4.26518 43.7144 4.26518ZM33.4776 4.53914V5.86486C34.0685 5.06959 35.1697 4.53968 36.3671 4.53968V7.50177L36.3576 7.50136L36.3506 7.50109L36.343 7.50068L36.332 7.50041C35.1655 7.50041 33.4843 8.36223 33.4843 9.96573V14.7181H30.459V4.53914H33.4776Z" fill="#F4B6C7"/>
</svg>
