<svg width="91" height="20" viewBox="0 0 91 20" fill="none" xmlns="http://www.w3.org/2000/svg">
<path d="M11 0L14.2328 6.55041L21.4616 7.60081L16.2308 12.6996L17.4656 19.8992L11 16.5L4.53436 19.8992L5.76919 12.6996L0.53838 7.60081L7.76718 6.55041L11 0Z" fill="#EFBB42"/>
<path d="M33.9232 0L37.1561 6.55041L44.3849 7.60081L39.1541 12.6996L40.3889 19.8992L33.9232 16.5L27.4576 19.8992L28.6924 12.6996L23.4616 7.60081L30.6904 6.55041L33.9232 0Z" fill="#EFBB42"/>
<path d="M56.8465 0L60.0793 6.55041L67.3081 7.60081L62.0773 12.6996L63.3121 19.8992L56.8465 16.5L50.3808 19.8992L51.6157 12.6996L46.3849 7.60081L53.6137 6.55041L56.8465 0Z" fill="#EFBB42"/>
<path d="M79.7697 0L83.0025 6.55041L90.2313 7.60081L85.0005 12.6996L86.2353 19.8992L79.7697 16.5L73.3041 19.8992L74.5389 12.6996L69.3081 7.60081L76.5369 6.55041L79.7697 0Z" fill="#EFBB42"/>
</svg>
