<svg width="1684" height="322" viewBox="0 0 1684 322" fill="none" xmlns="http://www.w3.org/2000/svg">
<rect width="322" height="322" rx="20" fill="#07927B"/>
<mask id="mask0_13_141" style="mask-type:alpha" maskUnits="userSpaceOnUse" x="36" y="43" width="251" height="239">
<path fill-rule="evenodd" clip-rule="evenodd" d="M191.454 134.42L161.929 43.5508L132.404 134.42H36.8584L42.8891 138.802L43.1404 138.456L219.512 266.737L219.327 266.991L239.227 281.449L209.702 190.58L287 134.42H191.454ZM150.26 233.767L109.707 204.272L84.6312 281.449L150.26 233.767Z" fill="#07927B"/>
</mask>
<g mask="url(#mask0_13_141)">
<path fill-rule="evenodd" clip-rule="evenodd" d="M191.454 134.42L161.929 43.5508L132.404 134.42H36.8584L42.8891 138.802L43.1404 138.456L219.512 266.737L219.327 266.991L239.227 281.449L209.702 190.58L287 134.42H191.454ZM150.26 233.767L109.707 204.272L84.6312 281.449L150.26 233.767Z" fill="white"/>
<path d="M237.375 290.88L41.6331 148.722C39.7976 147.389 37.6009 146.644 35.3332 146.587C24.2833 146.305 19.5404 160.496 28.5392 166.914L225.487 307.397C232.126 312.133 241.36 307.526 241.568 299.373C241.654 296.024 240.086 292.848 237.375 290.88Z" fill="#006454" fill-opacity="0.47"/>
</g>
<rect x="340" width="322" height="322" rx="20" fill="#07927B"/>
<mask id="mask1_13_141" style="mask-type:alpha" maskUnits="userSpaceOnUse" x="376" y="43" width="251" height="239">
<path fill-rule="evenodd" clip-rule="evenodd" d="M531.454 134.42L501.929 43.5508L472.404 134.42H376.858L382.889 138.802L383.14 138.456L559.512 266.737L559.327 266.991L579.227 281.449L549.702 190.58L627 134.42H531.454ZM490.26 233.767L449.707 204.272L424.631 281.449L490.26 233.767Z" fill="#07927B"/>
</mask>
<g mask="url(#mask1_13_141)">
<path fill-rule="evenodd" clip-rule="evenodd" d="M531.454 134.42L501.929 43.5508L472.404 134.42H376.858L382.889 138.802L383.14 138.456L559.512 266.737L559.327 266.991L579.227 281.449L549.702 190.58L627 134.42H531.454ZM490.26 233.767L449.707 204.272L424.631 281.449L490.26 233.767Z" fill="white"/>
<path d="M577.375 290.88L381.633 148.722C379.798 147.389 377.601 146.644 375.333 146.587C364.283 146.305 359.54 160.496 368.539 166.914L565.487 307.397C572.126 312.133 581.36 307.526 581.568 299.373C581.654 296.024 580.086 292.848 577.375 290.88Z" fill="#006454" fill-opacity="0.47"/>
</g>
<rect x="680" width="322" height="322" rx="20" fill="#07927B"/>
<mask id="mask2_13_141" style="mask-type:alpha" maskUnits="userSpaceOnUse" x="716" y="43" width="251" height="239">
<path fill-rule="evenodd" clip-rule="evenodd" d="M871.454 134.42L841.929 43.5508L812.404 134.42H716.858L722.889 138.802L723.14 138.456L899.512 266.737L899.327 266.991L919.227 281.449L889.702 190.58L967 134.42H871.454ZM830.26 233.767L789.707 204.272L764.631 281.449L830.26 233.767Z" fill="#07927B"/>
</mask>
<g mask="url(#mask2_13_141)">
<path fill-rule="evenodd" clip-rule="evenodd" d="M871.454 134.42L841.929 43.5508L812.404 134.42H716.858L722.889 138.802L723.14 138.456L899.512 266.737L899.327 266.991L919.227 281.449L889.702 190.58L967 134.42H871.454ZM830.26 233.767L789.707 204.272L764.631 281.449L830.26 233.767Z" fill="white"/>
<path d="M917.375 290.88L721.633 148.722C719.798 147.389 717.601 146.644 715.333 146.587C704.283 146.305 699.54 160.496 708.539 166.914L905.487 307.397C912.126 312.133 921.36 307.526 921.568 299.373C921.654 296.024 920.086 292.848 917.375 290.88Z" fill="#006454" fill-opacity="0.47"/>
</g>
<rect x="1020" width="322" height="322" rx="20" fill="#07927B"/>
<mask id="mask3_13_141" style="mask-type:alpha" maskUnits="userSpaceOnUse" x="1056" y="43" width="251" height="239">
<path fill-rule="evenodd" clip-rule="evenodd" d="M1211.45 134.42L1181.93 43.5508L1152.4 134.42H1056.86L1062.89 138.802L1063.14 138.456L1239.51 266.737L1239.33 266.991L1259.23 281.449L1229.7 190.58L1307 134.42H1211.45ZM1170.26 233.767L1129.71 204.272L1104.63 281.449L1170.26 233.767Z" fill="#07927B"/>
</mask>
<g mask="url(#mask3_13_141)">
<path fill-rule="evenodd" clip-rule="evenodd" d="M1211.45 134.42L1181.93 43.5508L1152.4 134.42H1056.86L1062.89 138.802L1063.14 138.456L1239.51 266.737L1239.33 266.991L1259.23 281.449L1229.7 190.58L1307 134.42H1211.45ZM1170.26 233.767L1129.71 204.272L1104.63 281.449L1170.26 233.767Z" fill="white"/>
<path d="M1257.38 290.88L1061.63 148.722C1059.8 147.389 1057.6 146.644 1055.33 146.587C1044.28 146.305 1039.54 160.496 1048.54 166.914L1245.49 307.397C1252.13 312.133 1261.36 307.526 1261.57 299.373C1261.65 296.024 1260.09 292.848 1257.38 290.88Z" fill="#006454" fill-opacity="0.47"/>
</g>
<rect x="1362" width="322" height="322" rx="20" fill="#07927B"/>
<mask id="mask4_13_141" style="mask-type:alpha" maskUnits="userSpaceOnUse" x="1398" y="43" width="251" height="239">
<path fill-rule="evenodd" clip-rule="evenodd" d="M1553.45 134.42L1523.93 43.5508L1494.4 134.42H1398.86L1404.89 138.802L1405.14 138.456L1581.51 266.737L1581.33 266.991L1601.23 281.449L1571.7 190.58L1649 134.42H1553.45ZM1512.26 233.767L1471.71 204.272L1446.63 281.449L1512.26 233.767Z" fill="#07927B"/>
</mask>
<g mask="url(#mask4_13_141)">
<path fill-rule="evenodd" clip-rule="evenodd" d="M1553.45 134.42L1523.93 43.5508L1494.4 134.42H1398.86L1404.89 138.802L1405.14 138.456L1581.51 266.737L1581.33 266.991L1601.23 281.449L1571.7 190.58L1649 134.42H1553.45ZM1512.26 233.767L1471.71 204.272L1446.63 281.449L1512.26 233.767Z" fill="white"/>
<path d="M1599.38 290.88L1403.63 148.722C1401.8 147.389 1399.6 146.644 1397.33 146.587C1386.28 146.305 1381.54 160.496 1390.54 166.914L1587.49 307.397C1594.13 312.133 1603.36 307.526 1603.57 299.373C1603.65 296.024 1602.09 292.848 1599.38 290.88Z" fill="#006454" fill-opacity="0.47"/>
</g>
</svg>
