<svg width="92" height="92" viewBox="0 0 92 92" fill="none" xmlns="http://www.w3.org/2000/svg">
<rect width="92" height="92" fill="#FFFC00"/>
<path d="M36.9569 20.3751L45.4706 18.4104H48.7451L57.9138 22.9947L62.4981 32.8182V40.0222L68.3922 39.3673V41.332V44.6065L64.4628 45.9163L63.153 47.881L66.4275 54.43L74.9412 59.0143L72.9765 61.6339L67.0824 63.5986L65.7726 66.2183L64.4628 68.183H57.2589L53.9843 69.4928L46.7804 73.4222L42.1961 72.1124L36.9569 69.4928L33.0275 68.183H27.7883L25.8235 66.8732L23.8588 63.5986L20.5843 62.9437L17.9647 60.979V59.0143L21.2392 57.0496L27.1334 52.4653L28.4432 47.881L23.2039 44.6065L23.8588 41.332L25.8235 39.3673L29.753 40.0222L31.7177 28.2339L36.9569 20.3751Z" fill="white"/>
<path d="M45.9734 20.2057C54.0262 20.2083 60.734 26.9184 60.7437 34.9978C60.7461 36.8902 60.8043 38.6328 60.9111 40.2381C60.9769 41.2285 61.7999 41.9624 62.7437 41.9624C62.8827 41.9624 63.0243 41.9465 63.1665 41.9132L65.6891 41.3213C65.7965 41.296 65.9042 41.284 66.0107 41.284C66.6514 41.284 67.2413 41.7221 67.3852 42.3711C67.5885 43.2882 67.0752 44.2147 66.1874 44.5263L62.3581 46.0735C61.3914 46.4641 60.8721 47.5172 61.1444 48.5245C64.2165 59.8923 72.7973 58.7101 72.7973 60.1911C72.7973 62.0509 66.3296 62.3135 65.7452 62.8984C65.1609 63.4834 65.7199 66.3222 64.4143 66.8718C64.1682 66.9754 63.8186 67.0114 63.3921 67.0114C62.4087 67.0114 61.0179 66.8193 59.552 66.8193C58.2805 66.8193 56.9525 66.9639 55.785 67.5037C52.6878 68.9357 49.7017 71.6105 46.0001 71.6105C42.2984 71.6105 39.3123 68.9357 36.2151 67.5037C35.0474 66.9637 33.7197 66.8193 32.4481 66.8193C30.9824 66.8193 29.5913 67.0114 28.608 67.0114C28.1818 67.0114 27.8318 66.9753 27.5858 66.8718C26.2802 66.3222 26.8392 63.4834 26.2549 62.8984C25.6706 62.3135 19.2028 62.0507 19.2028 60.191C19.2028 58.7098 27.7836 59.8921 30.8558 48.5244C31.128 47.5172 30.6088 46.4641 29.6419 46.0734L25.8126 44.5262C24.9247 44.2146 24.4113 43.288 24.6148 42.371C24.7587 41.7219 25.3486 41.2837 25.9893 41.2839C26.0956 41.2839 26.2035 41.2959 26.3109 41.3212L28.8335 41.9131C28.9757 41.9464 29.1173 41.9623 29.2563 41.9623C30.2 41.9623 31.0231 41.2282 31.0889 40.2379C31.1957 38.6327 31.2541 36.8901 31.2564 34.9977C31.2661 26.9184 37.9205 20.2085 45.9734 20.2057ZM45.9744 17H45.9721C43.5685 17.0008 41.227 17.4842 39.0129 18.4369C36.8877 19.3513 34.975 20.6551 33.328 22.3122C31.6831 23.967 30.3887 25.8883 29.4806 28.0225C28.5364 30.2417 28.0563 32.5872 28.0533 34.9939C28.0519 36.1755 28.0274 37.3222 27.9803 38.4203L27.0417 38.2C26.6974 38.1192 26.3433 38.0782 25.9896 38.0781C24.9681 38.078 23.9605 38.4235 23.1524 39.0511C22.3093 39.7058 21.718 40.6381 21.4878 41.6764C20.9399 44.1477 22.3033 46.6426 24.6659 47.5199L27.4763 48.6553C25.6153 54.3724 22.1839 55.468 19.8731 56.2059C19.2599 56.4017 18.7303 56.5709 18.2261 56.8213C16.2169 57.8194 16 59.5103 16 60.191C16 61.4946 16.6165 62.6843 17.7361 63.5407C18.2935 63.9672 18.984 64.3191 19.847 64.6164C21.0232 65.0217 22.3867 65.279 23.4948 65.4852C23.5484 65.8961 23.6269 66.3376 23.7593 66.7825C24.3087 68.6304 25.4683 69.4579 26.3443 69.8265C27.1755 70.1764 28.0344 70.2168 28.608 70.2168C29.1692 70.2168 29.7623 70.1728 30.3903 70.1263C31.0641 70.0763 31.7608 70.0247 32.4481 70.0247C33.5132 70.0247 34.3061 70.1519 34.872 70.4135C35.649 70.7728 36.473 71.2573 37.3454 71.77C39.7742 73.1977 42.5269 74.8159 46.0001 74.8159C49.4732 74.8159 52.2258 73.1977 54.6546 71.77C55.527 71.2571 56.351 70.7728 57.1282 70.4135C57.694 70.1518 58.4869 70.0247 59.552 70.0247C60.2394 70.0247 60.936 70.0764 61.6097 70.1263C62.2377 70.1728 62.8308 70.2168 63.392 70.2168C63.9656 70.2168 64.8244 70.1764 65.6557 69.8265C66.5317 69.4579 67.6913 68.6304 68.2407 66.7825C68.3731 66.3376 68.4518 65.8961 68.5052 65.4852C69.6133 65.2788 70.977 65.0217 72.153 64.6164C73.0161 64.3191 73.7065 63.9672 74.2639 63.5407C75.3834 62.6843 76 61.4946 76 60.191C76 59.5103 75.7831 57.8194 73.7737 56.8214C73.2694 56.571 72.7398 56.4019 72.1267 56.2061C69.8159 55.4682 66.3844 54.3726 64.5234 48.6555L67.3337 47.52C69.6964 46.6427 71.0599 44.1477 70.5119 41.6764C70.2817 40.6381 69.6905 39.7058 68.8474 39.0511C68.0392 38.4237 67.0319 38.0781 66.0107 38.0781C65.657 38.0781 65.3029 38.1191 64.9583 38.1999L64.0196 38.4202C63.9724 37.3222 63.948 36.1755 63.9466 34.9937C63.9436 32.5851 63.4596 30.2373 62.5079 28.0151C61.5943 25.882 60.2928 23.9613 58.6396 22.3063C56.9866 20.6514 55.0685 19.349 52.9389 18.4354C50.7206 17.4838 48.3774 17.0009 45.9744 17Z" fill="#050505"/>
</svg>
