<svg width="92" height="92" viewBox="0 0 92 92" fill="none" xmlns="http://www.w3.org/2000/svg">
<rect width="92" height="92" fill="url(#paint0_linear_63_1383)"/>
<path d="M35.9972 46C35.9972 40.4774 40.4716 35.9992 45.9927 35.9992C51.5137 35.9992 55.9906 40.4774 55.9906 46C55.9906 51.5226 51.5137 56.0008 45.9927 56.0008C40.4716 56.0008 35.9972 51.5226 35.9972 46ZM30.5925 46C30.5925 54.508 37.4871 61.4046 45.9927 61.4046C54.4982 61.4046 61.3929 54.508 61.3929 46C61.3929 37.492 54.4982 30.5954 45.9927 30.5954C37.4871 30.5954 30.5925 37.492 30.5925 46ZM58.4036 29.9846C58.4033 30.6966 58.6141 31.3927 59.0093 31.9849C59.4045 32.577 59.9664 33.0387 60.6239 33.3114C61.2815 33.5842 62.0051 33.6557 62.7033 33.5171C63.4014 33.3785 64.0428 33.0359 64.5464 32.5326C65.0499 32.0293 65.3929 31.388 65.5321 30.6897C65.6712 29.9915 65.6002 29.2676 65.3281 28.6097C65.056 27.9517 64.5949 27.3893 64.0032 26.9935C63.4115 26.5977 62.7158 26.3863 62.004 26.386H62.0025C61.0484 26.3864 60.1335 26.7657 59.4587 27.4404C58.7839 28.1151 58.4044 29.0302 58.4036 29.9846ZM33.8762 70.4193C30.9521 70.2861 29.3628 69.7989 28.3067 69.3873C26.9064 68.842 25.9074 68.1926 24.8569 67.1433C23.8065 66.094 23.1563 65.0956 22.6136 63.695C22.2019 62.639 21.7148 61.0487 21.5819 58.1238C21.4365 54.9616 21.4075 54.0117 21.4075 46.0002C21.4075 37.9888 21.4389 37.0415 21.5819 33.8766C21.7151 30.9518 22.2057 29.3646 22.6136 28.3055C23.1587 26.9049 23.808 25.9055 24.8569 24.8548C25.9059 23.8041 26.904 23.1537 28.3067 22.6108C29.3624 22.199 30.9521 21.7118 33.8762 21.5788C37.0375 21.4334 37.9872 21.4043 45.9927 21.4043C53.9982 21.4043 54.9488 21.4358 58.1128 21.5788C61.0368 21.712 62.6235 22.2028 63.6823 22.6108C65.0825 23.1537 66.0816 23.8055 67.132 24.8548C68.1824 25.9041 68.8302 26.9049 69.3754 28.3055C69.7871 29.3615 70.2742 30.9518 70.4071 33.8766C70.5525 37.0415 70.5815 37.9888 70.5815 46.0002C70.5815 54.0117 70.5525 54.959 70.4071 58.1238C70.2739 61.0487 69.7845 62.6385 69.3754 63.695C68.8302 65.0956 68.181 66.095 67.132 67.1433C66.083 68.1916 65.0825 68.842 63.6823 69.3873C62.6266 69.7991 61.0368 70.2863 58.1128 70.4193C54.9515 70.5647 54.0018 70.5938 45.9927 70.5938C37.9836 70.5938 37.0365 70.5647 33.8762 70.4193ZM33.6279 16.1817C30.4351 16.3271 28.2534 16.8335 26.3481 17.5751C24.3749 18.341 22.7045 19.3684 21.0353 21.0354C19.3661 22.7025 18.3416 24.376 17.576 26.3498C16.8346 28.2568 16.3284 30.4379 16.183 33.6316C16.0352 36.8303 16.0013 37.853 16.0013 46C16.0013 54.147 16.0352 55.1697 16.183 58.3684C16.3284 61.5623 16.8346 63.7432 17.576 65.6502C18.3416 67.6228 19.3664 69.2982 21.0353 70.9646C22.7043 72.6309 24.3749 73.6569 26.3481 74.4249C28.257 75.1665 30.4351 75.6729 33.6279 75.8183C36.8273 75.9638 37.848 76 45.9927 76C54.1374 76 55.1597 75.9662 58.3575 75.8183C61.5505 75.6729 63.7308 75.1665 65.6372 74.4249C67.6092 73.6569 69.2808 72.6316 70.95 70.9646C72.6192 69.2975 73.6416 67.6228 74.4094 65.6502C75.1507 63.7432 75.6594 61.5621 75.8024 58.3684C75.9478 55.1673 75.9816 54.147 75.9816 46C75.9816 37.853 75.9478 36.8303 75.8024 33.6316C75.657 30.4377 75.1507 28.2556 74.4094 26.3498C73.6416 24.3772 72.6166 22.7051 70.95 21.0354C69.2835 19.3658 67.6092 18.341 65.6397 17.5751C63.7308 16.8335 61.5503 16.3247 58.3599 16.1817C55.1621 16.0362 54.1398 16 45.9951 16C37.8504 16 36.8273 16.0338 33.6279 16.1817Z" fill="white"/>
<defs>
<linearGradient id="paint0_linear_63_1383" x1="90.2318" y1="92" x2="-1.76824" y2="-2.47638e-06" gradientUnits="userSpaceOnUse">
<stop stop-color="#FBE18A"/>
<stop offset="0.21" stop-color="#FCBB45"/>
<stop offset="0.38" stop-color="#F75274"/>
<stop offset="0.52" stop-color="#D53692"/>
<stop offset="0.74" stop-color="#8F39CE"/>
<stop offset="1" stop-color="#5B4FE9"/>
</linearGradient>
</defs>
</svg>
