<svg width="512" height="512" viewBox="0 0 512 512" fill="none" xmlns="http://www.w3.org/2000/svg">
<rect width="512" height="512" fill="#29558F"/>
<mask id="mask0_154_39" style="mask-type:luminance" maskUnits="userSpaceOnUse" x="115" y="220" width="282" height="71">
<path d="M397 220.702H115V290.298H397V220.702Z" fill="white"/>
</mask>
<g mask="url(#mask0_154_39)">
<path d="M118.857 280.068C120.204 280.068 121.32 280.547 122.206 281.502C123.1 282.449 123.548 283.611 123.548 284.989C123.548 286.366 123.1 287.533 122.206 288.489C121.32 289.435 120.204 289.909 118.857 289.909H115V280.068H118.857ZM118.857 288.671C119.865 288.671 120.689 288.32 121.33 287.618C121.97 286.914 122.29 286.038 122.29 284.989C122.29 283.939 121.97 283.063 121.33 282.36C120.689 281.657 119.865 281.306 118.857 281.306H116.314V288.671H118.857Z" fill="white"/>
<path d="M132.77 280.068H134.084V289.909H132.77V280.068Z" fill="white"/>
<path d="M150.349 289.909L149.543 287.701H145.093L144.287 289.909H142.889L146.576 280.068H148.06L151.747 289.909H150.349ZM145.545 286.479H149.091L147.311 281.629L145.545 286.479Z" fill="white"/>
<path d="M169.797 280.068V289.909H168.497V282.219L165.262 287.575H165.092L161.857 282.233V289.909H160.543V280.068H162.026L165.177 285.27L168.314 280.068H169.797Z" fill="white"/>
<path d="M187.765 288.602C186.776 289.595 185.566 290.092 184.134 290.092C182.703 290.092 181.492 289.595 180.503 288.602C179.514 287.608 179.02 286.404 179.02 284.989C179.02 283.564 179.514 282.361 180.503 281.376C181.492 280.383 182.703 279.886 184.134 279.886C185.566 279.886 186.776 280.383 187.765 281.376C188.763 282.361 189.263 283.564 189.263 284.989C189.263 286.404 188.763 287.608 187.765 288.602ZM181.407 287.716C182.142 288.447 183.051 288.813 184.134 288.813C185.217 288.813 186.121 288.447 186.847 287.716C187.581 286.976 187.949 286.067 187.949 284.989C187.949 283.902 187.581 282.993 186.847 282.262C186.121 281.521 185.217 281.152 184.134 281.152C183.051 281.152 182.142 281.521 181.407 282.262C180.682 282.993 180.319 283.902 180.319 284.989C180.319 286.067 180.682 286.976 181.407 287.716Z" fill="white"/>
<path d="M204.616 280.068H205.93V289.909H204.871L199.784 282.557V289.909H198.471V280.068H199.53L204.616 287.407V280.068Z" fill="white"/>
<path d="M219.532 280.068C220.879 280.068 221.996 280.547 222.881 281.502C223.776 282.449 224.223 283.611 224.223 284.989C224.223 286.366 223.776 287.533 222.881 288.489C221.996 289.435 220.879 289.909 219.532 289.909H215.676V280.068H219.532ZM219.532 288.671C220.541 288.671 221.365 288.32 222.005 287.618C222.646 286.914 222.966 286.038 222.966 284.989C222.966 283.939 222.646 283.063 222.005 282.36C221.365 281.657 220.541 281.306 219.532 281.306H216.99V288.671H219.532Z" fill="white"/>
<path d="M236.282 290.092C235.358 290.092 234.567 289.876 233.908 289.445C233.258 289.014 232.801 288.424 232.537 287.674L233.668 287.027C234.054 288.218 234.935 288.813 236.31 288.813C236.989 288.813 237.506 288.677 237.864 288.405C238.222 288.124 238.401 287.754 238.401 287.295C238.401 286.826 238.222 286.474 237.864 286.24C237.506 286.006 236.908 285.758 236.069 285.495C235.655 285.364 235.34 285.261 235.123 285.186C234.906 285.102 234.634 284.98 234.304 284.821C233.983 284.652 233.743 284.483 233.583 284.314C233.423 284.136 233.277 283.906 233.145 283.625C233.022 283.344 232.961 283.026 232.961 282.67C232.961 281.817 233.263 281.142 233.866 280.645C234.469 280.139 235.203 279.886 236.069 279.886C236.851 279.886 237.53 280.083 238.104 280.476C238.689 280.871 239.126 281.391 239.418 282.037L238.316 282.67C237.892 281.657 237.143 281.152 236.069 281.152C235.533 281.152 235.1 281.283 234.77 281.545C234.441 281.808 234.275 282.164 234.275 282.613C234.275 283.044 234.431 283.373 234.742 283.597C235.053 283.823 235.589 284.057 236.352 284.3C236.625 284.385 236.819 284.446 236.932 284.483C237.045 284.521 237.219 284.586 237.454 284.68C237.699 284.773 237.878 284.848 237.991 284.905C238.104 284.961 238.255 285.041 238.444 285.144C238.641 285.247 238.787 285.345 238.881 285.439C238.975 285.533 239.084 285.65 239.207 285.79C239.339 285.921 239.433 286.057 239.489 286.198C239.546 286.338 239.593 286.503 239.631 286.69C239.678 286.868 239.701 287.06 239.701 287.266C239.701 288.129 239.386 288.818 238.754 289.333C238.124 289.839 237.299 290.092 236.282 290.092Z" fill="white"/>
<path d="M268.017 289.502L266.914 290.134L265.912 289.066C265.177 289.75 264.234 290.092 263.085 290.092C262.097 290.092 261.296 289.839 260.684 289.333C260.072 288.818 259.766 288.124 259.766 287.252C259.766 286.652 259.917 286.104 260.218 285.607C260.528 285.102 260.98 284.703 261.573 284.413C261.15 283.878 260.938 283.283 260.938 282.627C260.938 281.812 261.221 281.152 261.786 280.645C262.361 280.139 263.048 279.886 263.848 279.886C264.507 279.886 265.106 280.064 265.642 280.421C266.18 280.777 266.566 281.268 266.802 281.896L265.699 282.529C265.558 282.098 265.322 281.76 264.993 281.517C264.673 281.273 264.3 281.152 263.877 281.152C263.424 281.152 263.038 281.288 262.718 281.559C262.408 281.831 262.252 282.182 262.252 282.613C262.252 282.923 262.323 283.204 262.464 283.457C262.615 283.7 262.836 283.977 263.128 284.286L265.827 287.154C266.062 286.667 266.232 286.072 266.335 285.369L267.465 286.015C267.334 286.793 267.08 287.491 266.703 288.11L268.017 289.502ZM263.113 288.855C263.895 288.855 264.546 288.625 265.063 288.166L262.393 285.313C261.941 285.5 261.607 285.762 261.39 286.1C261.183 286.437 261.08 286.793 261.08 287.168C261.08 287.693 261.258 288.105 261.616 288.405C261.974 288.705 262.474 288.855 263.113 288.855Z" fill="white"/>
<path d="M290.328 289.909L287.488 280.068H288.873L291.133 288.166L293.535 280.068H294.863L297.265 288.166L299.526 280.068H300.91L298.071 289.909H296.545L294.198 282.05L291.854 289.909H290.328Z" fill="white"/>
<path d="M315.899 289.909L315.094 287.701H310.643L309.838 289.909H308.439L312.127 280.068H313.61L317.298 289.909H315.899ZM311.095 286.479H314.642L312.862 281.629L311.095 286.479Z" fill="white"/>
<path d="M331.705 280.068V281.306H328.78V289.909H327.481V281.306H324.57V280.068H331.705Z" fill="white"/>
<path d="M344.718 290.092C343.219 290.092 341.982 289.6 341.002 288.616C340.031 287.632 339.547 286.423 339.547 284.989C339.547 283.555 340.031 282.346 341.002 281.362C341.982 280.378 343.219 279.886 344.718 279.886C345.622 279.886 346.45 280.102 347.204 280.533C347.967 280.964 348.561 281.545 348.984 282.276L347.841 282.936C347.558 282.393 347.134 281.962 346.568 281.643C346.013 281.315 345.396 281.152 344.718 281.152C343.578 281.152 342.645 281.517 341.919 282.248C341.205 282.979 340.847 283.893 340.847 284.989C340.847 286.076 341.205 286.985 341.919 287.716C342.645 288.447 343.578 288.813 344.718 288.813C345.396 288.813 346.013 288.653 346.568 288.335C347.134 288.007 347.558 287.576 347.841 287.042L348.984 287.688C348.57 288.419 347.982 289.005 347.219 289.445C346.456 289.876 345.622 290.092 344.718 290.092Z" fill="white"/>
<path d="M364.222 280.068H365.521V289.909H364.222V285.48H359.418V289.909H358.104V280.068H359.418V284.243H364.222V280.068Z" fill="white"/>
<path d="M376.58 288.671H381.171V289.909H375.266V280.068H381.101V281.306H376.58V284.328H380.747V285.551H376.58V288.671Z" fill="white"/>
<path d="M393.58 290.092C392.657 290.092 391.866 289.876 391.206 289.445C390.556 289.014 390.099 288.424 389.836 287.674L390.967 287.027C391.353 288.218 392.233 288.813 393.609 288.813C394.286 288.813 394.804 288.677 395.162 288.405C395.52 288.124 395.699 287.754 395.699 287.295C395.699 286.826 395.52 286.474 395.162 286.24C394.804 286.006 394.206 285.758 393.368 285.495C392.953 285.364 392.638 285.261 392.422 285.186C392.205 285.102 391.932 284.98 391.602 284.821C391.282 284.652 391.042 284.483 390.882 284.314C390.721 284.136 390.575 283.906 390.443 283.625C390.32 283.344 390.26 283.026 390.26 282.67C390.26 281.817 390.561 281.142 391.164 280.645C391.767 280.139 392.501 279.886 393.368 279.886C394.15 279.886 394.828 280.083 395.403 280.476C395.987 280.871 396.425 281.391 396.717 282.037L395.614 282.67C395.191 281.657 394.442 281.152 393.368 281.152C392.831 281.152 392.397 281.283 392.068 281.545C391.739 281.808 391.574 282.164 391.574 282.613C391.574 283.044 391.729 283.373 392.04 283.597C392.351 283.823 392.887 284.057 393.651 284.3C393.923 284.385 394.117 284.446 394.23 284.483C394.343 284.521 394.517 284.586 394.752 284.68C394.998 284.773 395.177 284.848 395.29 284.905C395.403 284.961 395.554 285.041 395.742 285.144C395.94 285.247 396.085 285.345 396.179 285.439C396.274 285.533 396.382 285.65 396.505 285.79C396.636 285.921 396.73 286.057 396.787 286.198C396.843 286.338 396.89 286.503 396.928 286.69C396.975 286.868 396.999 287.06 396.999 287.266C396.999 288.129 396.683 288.818 396.053 289.333C395.422 289.839 394.597 290.092 393.58 290.092Z" fill="white"/>
<path d="M121.273 264.873V223.67H115V222.068H135.644V223.67H129.371V263.27H135.644V264.873H121.273Z" fill="white"/>
<path d="M184.208 254.458C183.898 255.365 183.545 256.256 183.149 257.129C182.764 258.055 182.304 258.948 181.773 259.799C181.32 260.548 180.778 261.238 180.159 261.855C178.858 263.161 177.258 264.125 175.5 264.659C173.732 265.194 171.894 265.455 170.048 265.433C167.284 265.469 164.555 264.809 162.108 263.511C159.725 262.224 157.606 260.494 155.862 258.41C154.109 256.292 152.722 253.891 151.76 251.307C150.788 248.75 150.285 246.035 150.278 243.296C150.257 240.368 150.741 237.459 151.707 234.698C152.721 231.979 154.249 229.485 156.206 227.355C158.011 225.315 160.196 223.654 162.638 222.468C165.118 221.285 167.834 220.691 170.578 220.733C172.375 220.719 174.163 220.998 175.871 221.56C177.534 222.153 179.07 223.059 180.397 224.231L183.043 221.56H184.473V233.79H182.594C182.45 232.931 182.247 232.083 181.985 231.253C181.655 230.395 181.275 229.557 180.846 228.743C180.474 227.937 180.012 227.175 179.471 226.474C178.921 225.79 178.28 225.188 177.565 224.685C176.478 223.982 175.315 223.409 174.098 222.976C172.885 222.571 171.617 222.363 170.34 222.361C168.489 222.292 166.656 222.745 165.046 223.67C163.693 224.522 162.566 225.696 161.764 227.088C160.893 228.57 160.292 230.198 159.991 231.894C159.708 233.66 159.567 235.446 159.568 237.235C159.568 238.677 159.568 240.439 159.409 242.575C159.303 244.666 159.303 246.76 159.409 248.851C159.498 250.924 159.755 252.987 160.176 255.019C160.5 256.84 161.223 258.564 162.294 260.066C163.149 261.259 164.274 262.229 165.576 262.896C166.835 263.534 168.217 263.889 169.625 263.938C172.541 264.08 175.414 263.193 177.75 261.428C179.245 260.291 180.422 258.782 181.164 257.048C181.912 255.366 182.522 253.624 182.991 251.841H184.869C184.727 252.747 184.514 253.639 184.235 254.512" fill="white"/>
<path d="M289.682 257.85C288.959 259.334 287.898 260.624 286.586 261.615C284.946 262.76 283.089 263.551 281.134 263.938C279.169 264.316 277.176 264.512 275.178 264.525H258.954V223.403H252.629V221.694H273.802C275.752 221.702 277.699 221.863 279.624 222.174C281.583 222.464 283.462 223.145 285.156 224.177C286.391 224.939 287.404 226.017 288.094 227.301C288.764 228.514 289.144 229.867 289.205 231.253C289.238 232.629 288.976 233.995 288.437 235.259C287.842 236.597 286.933 237.769 285.791 238.677C284.549 239.797 283.089 240.643 281.503 241.16C279.912 241.671 278.285 242.056 276.634 242.308C278.219 242.471 279.787 242.774 281.319 243.216C282.906 243.649 284.422 244.315 285.817 245.192C287.165 246.01 288.32 247.113 289.205 248.423C290.124 249.802 290.597 251.435 290.555 253.096C290.611 254.726 290.313 256.349 289.682 257.85ZM280.259 228.476C280.072 227.368 279.618 226.322 278.936 225.432C278.287 224.644 277.421 224.068 276.449 223.777C275.399 223.454 274.316 223.256 273.219 223.189C272.081 223.189 270.97 223.189 269.858 223.189C268.746 223.189 267.795 223.189 267.026 223.189V241.588C269.144 241.588 271.049 241.588 272.69 241.588C274.149 241.582 275.59 241.273 276.925 240.68C278.11 240.079 279.047 239.077 279.572 237.849C280.278 235.976 280.594 233.976 280.498 231.974C280.494 230.828 280.389 229.684 280.18 228.557L280.259 228.476ZM276.819 243.804C275.767 243.435 274.674 243.202 273.564 243.11C272.428 243.016 271.285 243.016 270.15 243.11C268.985 243.11 267.953 243.11 267.026 243.11V262.923H275.417C276.519 262.944 277.599 262.597 278.486 261.935C279.345 261.213 280.024 260.298 280.472 259.265C280.963 258.122 281.301 256.919 281.477 255.687C281.622 254.4 281.622 253.101 281.477 251.815C281.359 250.592 281.12 249.384 280.763 248.21C280.465 247.234 279.978 246.326 279.333 245.539C278.622 244.72 277.709 244.103 276.687 243.75" fill="white"/>
<path d="M344.78 234.645C343.806 232.083 342.392 229.714 340.599 227.649C338.932 225.68 336.922 224.033 334.671 222.789C332.414 221.548 329.908 220.841 327.34 220.721C324.772 220.6 322.211 221.07 319.85 222.095C317.096 223.302 314.651 225.129 312.704 227.435C308.822 231.696 306.71 237.297 306.802 243.083C306.71 248.869 308.822 254.47 312.704 258.731C314.651 261.038 317.096 262.865 319.85 264.072C322.236 265.073 324.812 265.528 327.392 265.407C329.931 265.306 332.417 264.64 334.671 263.458C336.97 262.227 339.025 260.58 340.732 258.598C342.517 256.538 343.933 254.179 344.913 251.628C345.962 248.923 346.491 246.041 346.475 243.137C346.491 240.241 345.962 237.368 344.913 234.672L344.78 234.645ZM336.973 250.694C336.963 252.421 336.812 254.145 336.523 255.847C336.239 257.54 335.529 259.131 334.458 260.467C333.567 261.693 332.332 262.623 330.913 263.137C329.497 263.621 328.013 263.864 326.519 263.858C324.767 263.921 323.026 263.564 321.438 262.817C320.147 262.154 319.044 261.171 318.235 259.959C317.411 258.706 316.844 257.299 316.568 255.821C316.241 254.15 316.082 252.45 316.091 250.747V235.473C316.096 233.762 316.256 232.055 316.568 230.373C316.862 228.667 317.572 227.061 318.633 225.7C319.512 224.483 320.727 223.554 322.125 223.029C323.534 222.562 325.011 222.336 326.493 222.362C328.239 222.298 329.974 222.665 331.548 223.43C332.813 224.086 333.889 225.061 334.671 226.26C335.503 227.512 336.08 228.92 336.365 230.399C336.713 232.067 336.881 233.769 336.867 235.473L336.973 250.694Z" fill="white"/>
<path d="M376.277 264.525V262.923H382.788L372.809 246.741L360.689 264.579H358.465L371.672 245.086L358.545 223.296H353.701V221.694H367.623V223.296L376.489 238.009L386.52 223.296H386.599V221.694H394.672V223.296H388.69L377.521 239.692L392.237 262.923H397.001V264.525H376.277Z" fill="white"/>
<path d="M231.241 259.425C230.208 260.758 228.808 261.752 227.218 262.282C225.436 262.832 223.573 263.067 221.712 262.976H214.646V243.323C216.578 243.323 218.51 243.323 220.415 243.19C221.937 243.071 223.468 243.215 224.941 243.617C226.391 243.981 227.679 244.827 228.593 246.02C229.478 247.366 229.948 248.945 229.944 250.56H231.823V236.407H229.997C229.997 236.621 229.997 236.834 229.997 236.995C229.942 237.276 229.844 237.546 229.705 237.796L229.202 238.517C228.965 238.797 228.743 239.091 228.541 239.398C227.824 240.336 226.802 240.989 225.656 241.24C224.516 241.616 223.333 241.84 222.135 241.908C220.734 241.988 219.329 241.988 217.928 241.908C216.551 241.908 215.466 241.748 214.698 241.748V223.403C217.345 223.403 219.7 223.403 221.765 223.403C223.626 223.326 225.486 223.561 227.27 224.097C228.862 224.627 230.262 225.621 231.293 226.954C232.514 228.722 233.37 230.72 233.808 232.829H235.74L235.29 221.694H200.301V223.403H206.573V262.923H200.301V264.525H235.29L235.687 254.084H233.595C233.168 256.004 232.368 257.819 231.241 259.425Z" fill="white"/>
</g>
</svg>
