<svg width="512" height="127" viewBox="0 0 512 127" fill="none" xmlns="http://www.w3.org/2000/svg">
<path d="M7.00297 108.333C9.44846 108.333 11.475 109.206 13.0825 110.95C14.7071 112.677 15.5194 114.798 15.5194 117.312C15.5194 119.826 14.7071 121.955 13.0825 123.699C11.475 125.426 9.44846 126.29 7.00297 126.29H0V108.333H7.00297ZM7.00297 124.032C8.83281 124.032 10.3292 123.391 11.4921 122.109C12.6549 120.826 13.2364 119.227 13.2364 117.312C13.2364 115.396 12.6549 113.797 11.4921 112.515C10.3292 111.232 8.83281 110.591 7.00297 110.591H2.38563V124.032H7.00297Z" fill="#0779CB"/>
<path d="M32.2642 108.333H34.6498V126.29H32.2642V108.333Z" fill="#0779CB"/>
<path d="M64.1795 126.29L62.7173 122.262H54.637L53.1748 126.29H50.6353L57.3304 108.333H60.0239L66.719 126.29H64.1795ZM55.4578 120.031H61.8965L58.6643 111.181L55.4578 120.031Z" fill="#0779CB"/>
<path d="M99.4915 108.333V126.29H97.1316V112.258L91.2573 122.032H90.9495L85.0751 112.284V126.29H82.6895V108.333H85.3829L91.1034 117.825L96.798 108.333H99.4915Z" fill="#0779CB"/>
<path d="M132.113 123.904C130.317 125.717 128.119 126.623 125.52 126.623C122.921 126.623 120.723 125.717 118.927 123.904C117.132 122.091 116.234 119.894 116.234 117.312C116.234 114.712 117.132 112.515 118.927 110.719C120.723 108.906 122.921 108 125.52 108C128.119 108 130.317 108.906 132.113 110.719C133.925 112.515 134.832 114.712 134.832 117.312C134.832 119.894 133.925 122.091 132.113 123.904ZM120.569 122.288C121.903 123.622 123.553 124.289 125.52 124.289C127.487 124.289 129.128 123.622 130.445 122.288C131.779 120.937 132.446 119.278 132.446 117.312C132.446 115.328 131.779 113.669 130.445 112.335C129.128 110.984 127.487 110.309 125.52 110.309C123.553 110.309 121.903 110.984 120.569 112.335C119.252 113.669 118.594 115.328 118.594 117.312C118.594 119.278 119.252 120.937 120.569 122.288Z" fill="#0779CB"/>
<path d="M162.71 108.333H165.096V126.29H163.172L153.937 112.874V126.29H151.552V108.333H153.476L162.71 121.724V108.333Z" fill="#0779CB"/>
<path d="M189.792 108.333C192.237 108.333 194.264 109.206 195.871 110.95C197.496 112.677 198.308 114.798 198.308 117.312C198.308 119.826 197.496 121.955 195.871 123.699C194.264 125.426 192.237 126.29 189.792 126.29H182.789V108.333H189.792ZM189.792 124.032C191.622 124.032 193.118 123.391 194.281 122.109C195.444 120.826 196.025 119.227 196.025 117.312C196.025 115.396 195.444 113.797 194.281 112.515C193.118 111.232 191.622 110.591 189.792 110.591H185.175V124.032H189.792Z" fill="#0779CB"/>
<path d="M220.199 126.623C218.523 126.623 217.087 126.23 215.89 125.443C214.71 124.657 213.88 123.579 213.401 122.211L215.454 121.031C216.155 123.203 217.754 124.289 220.251 124.289C221.482 124.289 222.422 124.041 223.072 123.545C223.722 123.032 224.047 122.357 224.047 121.519C224.047 120.663 223.722 120.022 223.072 119.595C222.422 119.167 221.336 118.714 219.814 118.235C219.062 117.996 218.489 117.808 218.096 117.671C217.702 117.517 217.207 117.295 216.608 117.004C216.027 116.696 215.59 116.388 215.3 116.08C215.009 115.755 214.744 115.336 214.505 114.823C214.282 114.31 214.171 113.729 214.171 113.079C214.171 111.523 214.718 110.292 215.813 109.385C216.907 108.462 218.241 108 219.814 108C221.234 108 222.465 108.359 223.508 109.077C224.569 109.796 225.364 110.745 225.894 111.925L223.893 113.079C223.124 111.232 221.764 110.309 219.814 110.309C218.84 110.309 218.053 110.548 217.454 111.027C216.856 111.506 216.557 112.156 216.557 112.976C216.557 113.763 216.839 114.362 217.403 114.772C217.968 115.183 218.942 115.61 220.327 116.055C220.823 116.209 221.174 116.32 221.379 116.388C221.584 116.457 221.901 116.576 222.328 116.747C222.773 116.918 223.098 117.055 223.303 117.158C223.508 117.26 223.782 117.406 224.124 117.594C224.483 117.782 224.748 117.961 224.919 118.133C225.09 118.304 225.287 118.517 225.509 118.774C225.749 119.013 225.92 119.261 226.022 119.518C226.125 119.774 226.21 120.074 226.279 120.416C226.364 120.74 226.407 121.091 226.407 121.467C226.407 123.041 225.834 124.298 224.688 125.238C223.543 126.162 222.046 126.623 220.199 126.623Z" fill="#0779CB"/>
<path d="M277.817 125.546L275.816 126.7L273.995 124.751C272.661 125.999 270.95 126.623 268.864 126.623C267.068 126.623 265.615 126.162 264.503 125.238C263.392 124.298 262.836 123.032 262.836 121.442C262.836 120.347 263.11 119.347 263.657 118.44C264.221 117.517 265.042 116.79 266.119 116.26C265.35 115.285 264.965 114.199 264.965 113.002C264.965 111.514 265.478 110.309 266.504 109.385C267.547 108.462 268.796 108 270.249 108C271.446 108 272.532 108.325 273.507 108.975C274.482 109.625 275.183 110.522 275.611 111.668L273.61 112.823C273.353 112.036 272.926 111.42 272.327 110.976C271.746 110.531 271.07 110.309 270.301 110.309C269.48 110.309 268.779 110.557 268.197 111.053C267.633 111.549 267.351 112.19 267.351 112.976C267.351 113.541 267.479 114.054 267.735 114.516C268.009 114.96 268.411 115.465 268.941 116.029L273.841 121.262C274.268 120.373 274.576 119.287 274.764 118.004L276.816 119.184C276.577 120.604 276.115 121.878 275.431 123.006L277.817 125.546ZM268.915 124.366C270.335 124.366 271.515 123.947 272.455 123.109L267.607 117.902C266.786 118.244 266.179 118.723 265.786 119.338C265.41 119.954 265.222 120.604 265.222 121.288C265.222 122.245 265.546 122.998 266.196 123.545C266.846 124.092 267.753 124.366 268.915 124.366Z" fill="#0779CB"/>
<path d="M318.324 126.29L313.168 108.333H315.682L319.786 123.109L324.147 108.333H326.558L330.919 123.109L335.023 108.333H337.537L332.381 126.29H329.611L325.352 111.95L321.094 126.29H318.324Z" fill="#0779CB"/>
<path d="M364.753 126.29L363.291 122.262H355.21L353.748 126.29H351.209L357.904 108.333H360.597L367.292 126.29H364.753ZM356.031 120.031H362.47L359.238 111.181L356.031 120.031Z" fill="#0779CB"/>
<path d="M393.452 108.333V110.591H388.142V126.29H385.782V110.591H380.498V108.333H393.452Z" fill="#0779CB"/>
<path d="M417.078 126.623C414.358 126.623 412.11 125.725 410.331 123.93C408.57 122.134 407.689 119.928 407.689 117.312C407.689 114.695 408.57 112.489 410.331 110.693C412.11 108.898 414.358 108 417.078 108C418.719 108 420.224 108.393 421.592 109.18C422.977 109.967 424.055 111.027 424.824 112.361L422.747 113.566C422.234 112.575 421.464 111.788 420.438 111.206C419.429 110.608 418.309 110.309 417.078 110.309C415.008 110.309 413.315 110.976 411.998 112.31C410.699 113.643 410.049 115.311 410.049 117.312C410.049 119.295 410.699 120.954 411.998 122.288C413.315 123.622 415.008 124.289 417.078 124.289C418.309 124.289 419.429 123.998 420.438 123.417C421.464 122.818 422.234 122.032 422.747 121.057L424.824 122.237C424.072 123.571 423.003 124.64 421.618 125.443C420.233 126.23 418.719 126.623 417.078 126.623Z" fill="#0779CB"/>
<path d="M452.486 108.333H454.846V126.29H452.486V118.209H443.764V126.29H441.378V108.333H443.764V115.952H452.486V108.333Z" fill="#0779CB"/>
<path d="M474.926 124.032H483.263V126.29H472.54V108.333H483.135V110.591H474.926V116.106H482.493V118.338H474.926V124.032Z" fill="#0779CB"/>
<path d="M505.792 126.623C504.116 126.623 502.68 126.23 501.483 125.443C500.303 124.657 499.473 123.579 498.995 122.211L501.047 121.031C501.748 123.203 503.347 124.289 505.844 124.289C507.075 124.289 508.015 124.041 508.665 123.545C509.315 123.032 509.64 122.357 509.64 121.519C509.64 120.663 509.315 120.022 508.665 119.595C508.015 119.167 506.929 118.714 505.407 118.235C504.655 117.996 504.082 117.808 503.689 117.671C503.295 117.517 502.8 117.295 502.201 117.004C501.62 116.696 501.183 116.388 500.893 116.08C500.602 115.755 500.337 115.336 500.098 114.823C499.875 114.31 499.764 113.729 499.764 113.079C499.764 111.523 500.311 110.292 501.406 109.385C502.5 108.462 503.834 108 505.407 108C506.827 108 508.058 108.359 509.101 109.077C510.162 109.796 510.957 110.745 511.487 111.925L509.486 113.079C508.717 111.232 507.357 110.309 505.407 110.309C504.433 110.309 503.646 110.548 503.047 111.027C502.449 111.506 502.15 112.156 502.15 112.976C502.15 113.763 502.432 114.362 502.996 114.772C503.561 115.183 504.535 115.61 505.921 116.055C506.416 116.209 506.767 116.32 506.972 116.388C507.177 116.457 507.494 116.576 507.921 116.747C508.366 116.918 508.691 117.055 508.896 117.158C509.101 117.26 509.375 117.406 509.717 117.594C510.076 117.782 510.341 117.961 510.512 118.133C510.683 118.304 510.88 118.517 511.102 118.774C511.342 119.013 511.513 119.261 511.615 119.518C511.718 119.774 511.803 120.074 511.872 120.416C511.957 120.74 512 121.091 512 121.467C512 123.041 511.427 124.298 510.281 125.238C509.136 126.162 507.639 126.623 505.792 126.623Z" fill="#0779CB"/>
<path d="M11.3884 80.6037V5.41682H0V2.49316H37.4809V5.41682H26.0925V77.68H37.4809V80.6037H11.3884Z" fill="#0779CB"/>
<path d="M125.654 61.5995C125.09 63.2544 124.45 64.8806 123.731 66.4724C123.031 68.1632 122.196 69.7931 121.233 71.3452C120.409 72.7115 119.425 73.9714 118.302 75.0972C115.939 77.4814 113.035 79.2387 109.844 80.2135C106.634 81.19 103.296 81.6664 99.9452 81.6267C94.9268 81.693 89.9716 80.4871 85.5294 78.1183C81.2027 75.7715 77.3545 72.6132 74.1891 68.8113C71.0053 64.9462 68.4873 60.5642 66.741 55.8497C64.9754 51.1832 64.0635 46.2295 64.05 41.2314C64.0117 35.8883 64.8897 30.5791 66.6448 25.5411C68.4853 20.5795 71.2598 16.0283 74.8137 12.1409C78.0895 8.41834 82.0576 5.38803 86.4905 3.22375C90.9938 1.0643 95.9254 -0.0192397 100.906 0.0564431C104.169 0.0314681 107.415 0.541569 110.517 1.567C113.536 2.64888 116.324 4.30245 118.734 6.43977L123.539 1.567H126.134V23.8843H122.723C122.462 22.3167 122.093 20.7698 121.617 19.2551C121.018 17.6882 120.329 16.1587 119.55 14.6747C118.874 13.2028 118.036 11.8134 117.052 10.5329C116.055 9.28583 114.89 8.18685 113.592 7.26815C111.619 5.98699 109.507 4.94057 107.297 4.14957C105.096 3.41064 102.793 3.03232 100.474 3.02884C97.1136 2.90237 93.7853 3.72926 90.8633 5.4165C88.4056 6.9722 86.3601 9.11336 84.9048 11.6537C83.3224 14.3582 82.232 17.3291 81.6853 20.4246C81.1719 23.647 80.9148 26.906 80.9164 30.1702C80.9164 32.8015 80.9164 36.0175 80.6281 39.9157C80.4357 43.7303 80.4357 47.5522 80.6281 51.3668C80.7902 55.1509 81.2562 58.9155 82.0216 62.6229C82.6091 65.9452 83.9226 69.092 85.8659 71.8324C87.419 74.0098 89.4616 75.7804 91.8243 76.9975C94.1112 78.1614 96.6192 78.8098 99.1764 78.8979C104.47 79.1578 109.686 77.5381 113.929 74.3175C116.643 72.2436 118.779 69.4898 120.127 66.3261C121.484 63.2553 122.593 60.0775 123.443 56.8243H126.854C126.595 58.4763 126.209 60.1054 125.702 61.697" fill="#0779CB"/>
<path d="M317.152 67.788C315.84 70.4964 313.913 72.8509 311.53 74.6586C308.554 76.749 305.184 78.1924 301.632 78.898C298.066 79.5878 294.448 79.9466 290.819 79.9699H261.363V4.92913H249.879V1.81055H288.321C291.862 1.8253 295.396 2.11854 298.892 2.68764C302.447 3.21641 305.86 4.45886 308.935 6.34223C311.178 7.73213 313.018 9.69909 314.269 12.0434C315.486 14.2553 316.177 16.7247 316.287 19.2551C316.347 21.7648 315.871 24.258 314.893 26.5643C313.811 29.0055 312.162 31.1452 310.088 32.8015C307.834 34.8463 305.182 36.3901 302.303 37.3331C299.415 38.2661 296.459 38.9668 293.463 39.4284C296.34 39.7244 299.187 40.2787 301.968 41.0851C304.85 41.8754 307.602 43.0903 310.136 44.691C312.582 46.1838 314.68 48.1951 316.287 50.5871C317.956 53.103 318.813 56.083 318.738 59.1144C318.84 62.0883 318.299 65.049 317.152 67.788ZM300.045 14.1875C299.706 12.1641 298.88 10.2565 297.643 8.63244C296.465 7.19468 294.893 6.14335 293.126 5.61131C291.22 5.02178 289.253 4.66196 287.263 4.53931C285.197 4.53931 283.179 4.53931 281.161 4.53931C279.142 4.53931 277.413 4.53931 276.019 4.53931V38.1128C279.863 38.1128 283.323 38.1128 286.302 38.1128C288.951 38.1035 291.568 37.5394 293.991 36.456C296.142 35.3608 297.843 33.532 298.796 31.2909C300.08 27.8734 300.652 24.2236 300.478 20.5708C300.472 18.4783 300.279 16.3908 299.901 14.3337L300.045 14.1875ZM293.799 42.1572C291.889 41.4844 289.903 41.0587 287.888 40.8903C285.825 40.7196 283.752 40.7196 281.69 40.8903C279.575 40.8903 277.701 40.8903 276.019 40.8903V77.0462H291.252C293.255 77.0853 295.215 76.4514 296.826 75.2433C298.384 73.9248 299.618 72.2565 300.43 70.3705C301.322 68.2859 301.936 66.0901 302.255 63.841C302.52 61.4934 302.52 59.1231 302.255 56.7755C302.041 54.5442 301.608 52.3404 300.959 50.1973C300.417 48.4159 299.535 46.76 298.363 45.3245C297.072 43.8282 295.414 42.7024 293.559 42.0597" fill="#0779CB"/>
<path d="M417.19 25.4435C415.421 20.7674 412.852 16.4453 409.598 12.6768C406.57 9.08335 402.923 6.0783 398.835 3.80833C394.738 1.54382 390.186 0.253088 385.524 0.0336131C380.863 -0.185862 376.213 0.671657 371.926 2.54141C366.925 4.74418 362.487 8.0777 358.951 12.287C351.904 20.0621 348.07 30.2828 348.236 40.8415C348.07 51.4001 351.904 61.6209 358.951 69.3959C362.487 73.6051 366.925 76.9387 371.926 79.1414C376.258 80.9677 380.935 81.7997 385.62 81.5778C390.23 81.393 394.742 80.1785 398.835 78.0207C403.009 75.7755 406.739 72.7691 409.839 69.1522C413.081 65.3936 415.65 61.0895 417.431 56.4343C419.335 51.4974 420.296 46.2394 420.267 40.9389C420.296 35.6543 419.334 30.4122 417.431 25.4922L417.19 25.4435ZM403.015 54.7289C402.996 57.881 402.722 61.0261 402.198 64.1333C401.682 67.2227 400.392 70.1256 398.45 72.5632C396.831 74.8016 394.588 76.4984 392.012 77.436C389.442 78.3182 386.747 78.7628 384.035 78.7517C380.854 78.8664 377.692 78.2151 374.808 76.8513C372.465 75.6425 370.464 73.8481 368.995 71.6373C367.498 69.3498 366.469 66.7818 365.966 64.0846C365.375 61.0354 365.086 57.9339 365.102 54.8263V26.9541C365.111 23.8315 365.4 20.7162 365.966 17.647C366.501 14.5339 367.79 11.6039 369.716 9.11965C371.311 6.89868 373.518 5.20386 376.058 4.24688C378.615 3.39328 381.295 2.98148 383.987 3.02869C387.157 2.91207 390.307 3.5811 393.165 4.9778C395.462 6.17543 397.415 7.95464 398.835 10.1429C400.347 12.4272 401.393 14.9953 401.91 17.6958C402.542 20.7396 402.848 23.8436 402.823 26.9541L403.015 54.7289Z" fill="#0779CB"/>
<path d="M474.376 79.9699V77.0462H486.197L468.08 47.5173L446.073 80.0674H442.036L466.015 44.4961L442.181 4.73422H433.387V1.81055H458.663V4.73422L474.76 31.5833L492.972 4.73422H493.116V1.81055H507.772V4.73422H496.912L476.634 34.6531L503.351 77.0462H512.001V79.9699H474.376Z" fill="#0779CB"/>
<path d="M211.047 70.6629C209.174 73.0955 206.632 74.9099 203.743 75.8768C200.508 76.8799 197.127 77.3084 193.747 77.1437H180.918V41.2801C184.426 41.2801 187.934 41.2801 191.393 41.0364C194.156 40.8196 196.935 41.0833 199.61 41.8161C202.244 42.4797 204.581 44.0248 206.241 46.2016C207.847 48.6567 208.7 51.5392 208.693 54.4853H212.104V28.6596H208.789C208.789 29.0494 208.789 29.4392 208.789 29.7316C208.69 30.2445 208.512 30.738 208.26 31.1934L207.347 32.5091C206.915 33.0207 206.514 33.5577 206.145 34.1171C204.845 35.8292 202.989 37.0201 200.908 37.4793C198.838 38.1648 196.69 38.5744 194.516 38.6975C191.972 38.8443 189.42 38.8443 186.876 38.6975C184.378 38.6975 182.407 38.4051 181.014 38.4051V4.92913C185.819 4.92913 190.095 4.92913 193.843 4.92913C197.222 4.78885 200.599 5.21694 203.839 6.19605C206.728 7.16285 209.27 8.97738 211.143 11.41C213.36 14.6357 214.913 18.2818 215.708 22.1301H219.216L218.399 1.81055H154.873V4.92913H166.261V77.0462H154.873V79.9699H218.399L219.12 60.9174H215.323C214.546 64.4203 213.093 67.7327 211.047 70.6629Z" fill="#0779CB"/>
</svg>
