<svg width="3487" height="576" viewBox="0 0 3487 576" fill="none" xmlns="http://www.w3.org/2000/svg">
<mask id="mask0_23_1057" style="mask-type:alpha" maskUnits="userSpaceOnUse" x="0" y="0" width="3487" height="576">
<rect width="3487" height="576" fill="#D9D9D9"/>
</mask>
<g mask="url(#mask0_23_1057)">
<g opacity="0.7">
<path d="M3209.83 352.8V352.219L3209.67 351.662L3134.74 99.4004H3189.55L3234.96 271.869L3238.83 286.559L3242.7 271.869L3288.12 99.4004H3337.42L3262.5 351.662L3262.33 352.219V352.8V476.4H3209.83V352.8Z" stroke="url(#paint0_linear_23_1057)" stroke-width="8"/>
<path d="M3080.32 409.959L3079.81 406.55H3076.36H3002.11H2998.67L2998.16 409.959L2988.22 476.4H2940.8L3001.12 99.4004H3082.85L3143.17 476.4H3090.26L3080.32 409.959ZM3005.86 357.708L3005.17 362.3H3009.81H3068.11H3072.76L3072.07 357.708L3042.92 163.008H3035.01L3005.86 357.708Z" stroke="url(#paint1_linear_23_1057)" stroke-width="8"/>
<path d="M2823.79 476.4H2732.09V99.4004H2823.79C2853.56 99.4004 2874.83 107.28 2888.48 122.291L2888.5 122.309L2888.51 122.327C2902.62 137.462 2909.99 159.977 2909.99 190.55V385.25C2909.99 415.824 2902.62 438.339 2888.51 453.474L2888.5 453.492L2888.48 453.51C2874.83 468.521 2853.56 476.4 2823.79 476.4ZM2788.59 146.4H2784.59V150.4V425.4V429.4H2788.59H2822.69C2833.03 429.4 2841.66 426.392 2848.07 419.979C2854.73 413.32 2857.49 402.226 2857.49 388V187.8C2857.49 173.575 2854.73 162.481 2848.07 155.822C2841.66 149.409 2833.03 146.4 2822.69 146.4H2788.59Z" stroke="url(#paint2_linear_23_1057)" stroke-width="8"/>
<path d="M2627.35 99.4004H2679.85V476.4H2627.35V99.4004Z" stroke="url(#paint3_linear_23_1057)" stroke-width="8"/>
<path d="M2458.56 323.65V476.4H2406.06V99.4004H2493.36C2524.4 99.4004 2545.82 106.634 2558.66 120.155L2558.68 120.174L2558.7 120.193C2572 133.833 2579.01 154.825 2579.01 183.95V214.2C2579.01 252.901 2566.2 277.115 2541.7 288.683L2533.45 292.582L2541.91 296.008C2556.38 301.865 2565.96 311.363 2571.03 324.536L2571.05 324.595L2571.08 324.653C2576.68 337.96 2579.56 354.449 2579.56 374.25V433.65C2579.56 443.28 2579.93 451.851 2580.68 459.348L2580.68 459.359L2580.68 459.369C2581.27 464.971 2582.53 470.649 2584.44 476.4H2531.56C2531.09 474.861 2530.63 473.389 2530.16 471.986C2529.5 470.004 2528.81 467.467 2528.11 464.344C2527.77 461.177 2527.42 457.136 2527.06 452.207V452.2V452.169V452.139V452.109V452.079V452.048V452.018V451.987V451.957V451.926V451.896V451.865V451.835V451.804V451.774V451.743V451.712V451.682V451.651V451.62V451.589V451.558V451.528V451.497V451.466V451.435V451.404V451.373V451.342V451.311V451.28V451.249V451.217V451.186V451.155V451.124V451.093V451.061V451.03V450.999V450.967V450.936V450.904V450.873V450.841V450.81V450.778V450.747V450.715V450.683V450.652V450.62V450.588V450.556V450.525V450.493V450.461V450.429V450.397V450.365V450.333V450.301V450.269V450.237V450.205V450.173V450.141V450.109V450.076V450.044V450.012V449.98V449.947V449.915V449.883V449.85V449.818V449.785V449.753V449.72V449.688V449.655V449.622V449.59V449.557V449.524V449.492V449.459V449.426V449.393V449.36V449.328V449.295V449.262V449.229V449.196V449.163V449.13V449.097V449.063V449.03V448.997V448.964V448.931V448.897V448.864V448.831V448.797V448.764V448.731V448.697V448.664V448.63V448.597V448.563V448.53V448.496V448.462V448.429V448.395V448.361V448.327V448.294V448.26V448.226V448.192V448.158V448.124V448.09V448.056V448.022V447.988V447.954V447.92V447.886V447.852V447.817V447.783V447.749V447.715V447.68V447.646V447.612V447.577V447.543V447.508V447.474V447.439V447.405V447.37V447.335V447.301V447.266V447.231V447.197V447.162V447.127V447.092V447.057V447.023V446.988V446.953V446.918V446.883V446.848V446.813V446.778V446.743V446.707V446.672V446.637V446.602V446.566V446.531V446.496V446.461V446.425V446.39V446.354V446.319V446.283V446.248V446.212V446.177V446.141V446.105V446.07V446.034V445.998V445.963V445.927V445.891V445.855V445.819V445.783V445.747V445.711V445.675V445.639V445.603V445.567V445.531V445.495V445.459V445.423V445.386V445.35V445.314V445.277V445.241V445.205V445.168V445.132V445.095V445.059V445.022V444.986V444.949V444.913V444.876V444.839V444.803V444.766V444.729V444.692V444.656V444.619V444.582V444.545V444.508V444.471V444.434V444.397V444.36V444.323V444.286V444.249V444.211V444.174V444.137V444.1V444.062V444.025V443.988V443.95V443.913V443.876V443.838V443.801V443.763V443.726V443.688V443.65V443.613V443.575V443.537V443.5V443.462V443.424V443.386V443.348V443.31V443.273V443.235V443.197V443.159V443.121V443.083V443.045V443.006V442.968V442.93V442.892V442.854V442.815V442.777V442.739V442.7V442.662V442.624V442.585V442.547V442.508V442.47V442.431V442.393V442.354V442.315V442.277V442.238V442.199V442.161V442.122V442.083V442.044V442.005V441.966V441.927V441.888V441.849V441.81V441.771V441.732V441.693V441.654V441.615V441.576V441.536V441.497V441.458V441.419V441.379V441.34V441.3V441.261V441.222V441.182V441.143V441.103V441.063V441.024V440.984V440.944V440.905V440.865V440.825V440.785V440.746V440.706V440.666V440.626V440.586V440.546V440.506V440.466V440.426V440.386V440.346V440.306V440.266V440.225V440.185V440.145V440.105V440.064V440.024V439.984V439.943V439.903V439.862V439.822V439.781V439.741V439.7V439.66V439.619V439.578V439.538V439.497V439.456V439.415V439.374V439.334V439.293V439.252V439.211V439.17V439.129V439.088V439.047V439.006V438.965V438.924V438.882V438.841V438.8V438.759V438.717V438.676V438.635V438.593V438.552V438.511V438.469V438.428V438.386V438.345V438.303V438.261V438.22V438.178V438.136V438.095V438.053V438.011V437.969V437.927V437.886V437.844V437.802V437.76V437.718V437.676V437.634V437.592V437.55V437.507V437.465V437.423V437.381V437.339V437.296V437.254V437.212V437.169V437.127V437.084V437.042V437V436.957V436.914V436.872V436.829V436.787V436.744V436.701V436.659V436.616V436.573V436.53V436.487V436.445V436.402V436.359V436.316V436.273V436.23V436.187V436.144V436.1V436.057V436.014V435.971V435.928V435.885V435.841V435.798V435.755V435.711V435.668V435.624V435.581V435.537V435.494V435.45V435.407V435.363V435.32V435.276V435.232V435.189V435.145V435.101V435.057V435.013V434.969V434.926V434.882V434.838V434.794V434.75V434.706V434.662V434.617V434.573V434.529V434.485V434.441V434.396V434.352V434.308V434.264V434.219V434.175V434.13V434.086V434.041V433.997V433.952V433.908V433.863V433.819V433.774V433.729V433.684V433.64V433.595V433.55V433.505V433.46V433.416V433.371V433.326V433.281V433.236V433.191V433.146V433.1V372.6C2527.06 354.407 2523.95 340.523 2516.76 332.06C2509.48 323.489 2498.03 319.65 2483.46 319.65H2462.56H2458.56V323.65ZM2462.56 146.4H2458.56V150.4V268.65V272.65H2462.56H2486.21C2498.23 272.65 2508.12 269.544 2515.31 262.802C2523.19 255.764 2526.51 243.662 2526.51 227.95V190C2526.51 175.786 2523.93 164.575 2517.95 157.263C2512.17 149.756 2503.09 146.4 2491.71 146.4H2462.56Z" stroke="url(#paint4_linear_23_1057)" stroke-width="8"/>
<path d="M2269.5 266.45V270.45H2273.5H2347.6V317.45H2273.5H2269.5V321.45V476.4H2217V99.4004H2369.05V146.4H2273.5H2269.5V150.4V266.45Z" stroke="url(#paint5_linear_23_1057)" stroke-width="8"/>
</g>
<g opacity="0.4">
<path d="M3279.62 352.8V352.219L3279.45 351.662L3204.53 99.4004H3259.33L3304.75 271.869L3308.62 286.559L3312.48 271.869L3357.9 99.4004H3407.21L3332.28 351.662L3332.12 352.219V352.8V476.4H3279.62V352.8Z" stroke="url(#paint6_linear_23_1057)" stroke-width="8"/>
<path d="M3150.1 409.959L3149.59 406.55H3146.15H3071.9H3068.45L3067.94 409.959L3058 476.4H3010.59L3070.91 99.4004H3152.64L3212.96 476.4H3160.04L3150.1 409.959ZM3075.64 357.708L3074.95 362.3H3079.6H3137.9H3142.54L3141.85 357.708L3112.7 163.008H3104.79L3075.64 357.708Z" stroke="url(#paint7_linear_23_1057)" stroke-width="8"/>
<path d="M2893.57 476.4H2801.87V99.4004H2893.57C2923.34 99.4004 2944.62 107.28 2958.26 122.291L2958.28 122.309L2958.3 122.327C2972.4 137.462 2979.77 159.977 2979.77 190.55V385.25C2979.77 415.824 2972.4 438.339 2958.3 453.474L2958.28 453.492L2958.26 453.51C2944.62 468.521 2923.34 476.4 2893.57 476.4ZM2858.37 146.4H2854.37V150.4V425.4V429.4H2858.37H2892.47C2902.81 429.4 2911.44 426.392 2917.85 419.979C2924.51 413.32 2927.27 402.226 2927.27 388V187.8C2927.27 173.575 2924.51 162.481 2917.85 155.822C2911.44 149.409 2902.81 146.4 2892.47 146.4H2858.37Z" stroke="url(#paint8_linear_23_1057)" stroke-width="8"/>
<path d="M2697.13 99.4004H2749.63V476.4H2697.13V99.4004Z" stroke="url(#paint9_linear_23_1057)" stroke-width="8"/>
<path d="M2528.35 323.65V476.4H2475.85V99.4004H2563.15C2594.18 99.4004 2615.6 106.634 2628.45 120.155L2628.46 120.174L2628.48 120.193C2641.78 133.833 2648.8 154.825 2648.8 183.95V214.2C2648.8 252.901 2635.98 277.115 2611.49 288.683L2603.23 292.582L2611.7 296.008C2626.16 301.865 2635.75 311.363 2640.81 324.536L2640.83 324.595L2640.86 324.653C2646.46 337.96 2649.35 354.449 2649.35 374.25V433.65C2649.35 443.28 2649.72 451.851 2650.47 459.348L2650.47 459.359L2650.47 459.369C2651.06 464.971 2652.32 470.649 2654.22 476.4H2601.34C2600.87 474.861 2600.41 473.389 2599.94 471.986C2599.28 470.004 2598.6 467.467 2597.9 464.344C2597.55 461.177 2597.2 457.136 2596.85 452.207V452.2V452.169V452.139V452.109V452.079V452.048V452.018V451.987V451.957V451.926V451.896V451.865V451.835V451.804V451.774V451.743V451.712V451.682V451.651V451.62V451.589V451.558V451.528V451.497V451.466V451.435V451.404V451.373V451.342V451.311V451.28V451.249V451.217V451.186V451.155V451.124V451.093V451.061V451.03V450.999V450.967V450.936V450.904V450.873V450.841V450.81V450.778V450.747V450.715V450.683V450.652V450.62V450.588V450.556V450.525V450.493V450.461V450.429V450.397V450.365V450.333V450.301V450.269V450.237V450.205V450.173V450.141V450.109V450.076V450.044V450.012V449.98V449.947V449.915V449.883V449.85V449.818V449.785V449.753V449.72V449.688V449.655V449.622V449.59V449.557V449.524V449.492V449.459V449.426V449.393V449.36V449.328V449.295V449.262V449.229V449.196V449.163V449.13V449.097V449.063V449.03V448.997V448.964V448.931V448.897V448.864V448.831V448.797V448.764V448.731V448.697V448.664V448.63V448.597V448.563V448.53V448.496V448.462V448.429V448.395V448.361V448.327V448.294V448.26V448.226V448.192V448.158V448.124V448.09V448.056V448.022V447.988V447.954V447.92V447.886V447.852V447.817V447.783V447.749V447.715V447.68V447.646V447.612V447.577V447.543V447.508V447.474V447.439V447.405V447.37V447.335V447.301V447.266V447.231V447.197V447.162V447.127V447.092V447.057V447.023V446.988V446.953V446.918V446.883V446.848V446.813V446.778V446.743V446.707V446.672V446.637V446.602V446.566V446.531V446.496V446.461V446.425V446.39V446.354V446.319V446.283V446.248V446.212V446.177V446.141V446.105V446.07V446.034V445.998V445.963V445.927V445.891V445.855V445.819V445.783V445.747V445.711V445.675V445.639V445.603V445.567V445.531V445.495V445.459V445.423V445.386V445.35V445.314V445.277V445.241V445.205V445.168V445.132V445.095V445.059V445.022V444.986V444.949V444.913V444.876V444.839V444.803V444.766V444.729V444.692V444.656V444.619V444.582V444.545V444.508V444.471V444.434V444.397V444.36V444.323V444.286V444.249V444.211V444.174V444.137V444.1V444.062V444.025V443.988V443.95V443.913V443.876V443.838V443.801V443.763V443.726V443.688V443.65V443.613V443.575V443.537V443.5V443.462V443.424V443.386V443.348V443.31V443.273V443.235V443.197V443.159V443.121V443.083V443.045V443.006V442.968V442.93V442.892V442.854V442.815V442.777V442.739V442.7V442.662V442.624V442.585V442.547V442.508V442.47V442.431V442.393V442.354V442.315V442.277V442.238V442.199V442.161V442.122V442.083V442.044V442.005V441.966V441.927V441.888V441.849V441.81V441.771V441.732V441.693V441.654V441.615V441.576V441.536V441.497V441.458V441.419V441.379V441.34V441.3V441.261V441.222V441.182V441.143V441.103V441.063V441.024V440.984V440.944V440.905V440.865V440.825V440.785V440.746V440.706V440.666V440.626V440.586V440.546V440.506V440.466V440.426V440.386V440.346V440.306V440.266V440.225V440.185V440.145V440.105V440.064V440.024V439.984V439.943V439.903V439.862V439.822V439.781V439.741V439.7V439.66V439.619V439.578V439.538V439.497V439.456V439.415V439.374V439.334V439.293V439.252V439.211V439.17V439.129V439.088V439.047V439.006V438.965V438.924V438.882V438.841V438.8V438.759V438.717V438.676V438.635V438.593V438.552V438.511V438.469V438.428V438.386V438.345V438.303V438.261V438.22V438.178V438.136V438.095V438.053V438.011V437.969V437.927V437.886V437.844V437.802V437.76V437.718V437.676V437.634V437.592V437.55V437.507V437.465V437.423V437.381V437.339V437.296V437.254V437.212V437.169V437.127V437.084V437.042V437V436.957V436.914V436.872V436.829V436.787V436.744V436.701V436.659V436.616V436.573V436.53V436.487V436.445V436.402V436.359V436.316V436.273V436.23V436.187V436.144V436.1V436.057V436.014V435.971V435.928V435.885V435.841V435.798V435.755V435.711V435.668V435.624V435.581V435.537V435.494V435.45V435.407V435.363V435.32V435.276V435.232V435.189V435.145V435.101V435.057V435.013V434.969V434.926V434.882V434.838V434.794V434.75V434.706V434.662V434.617V434.573V434.529V434.485V434.441V434.396V434.352V434.308V434.264V434.219V434.175V434.13V434.086V434.041V433.997V433.952V433.908V433.863V433.819V433.774V433.729V433.684V433.64V433.595V433.55V433.505V433.46V433.416V433.371V433.326V433.281V433.236V433.191V433.146V433.1V372.6C2596.85 354.407 2593.74 340.523 2586.54 332.06C2579.26 323.489 2567.81 319.65 2553.25 319.65H2532.35H2528.35V323.65ZM2532.35 146.4H2528.35V150.4V268.65V272.65H2532.35H2556C2568.02 272.65 2577.91 269.544 2585.1 262.802C2592.98 255.764 2596.3 243.662 2596.3 227.95V190C2596.3 175.786 2593.72 164.575 2587.73 157.263C2581.96 149.756 2572.87 146.4 2561.5 146.4H2532.35Z" stroke="url(#paint10_linear_23_1057)" stroke-width="8"/>
<path d="M2339.28 266.45V270.45H2343.28H2417.38V317.45H2343.28H2339.28V321.45V476.4H2286.78V99.4004H2438.83V146.4H2343.28H2339.28V150.4V266.45Z" stroke="url(#paint11_linear_23_1057)" stroke-width="8"/>
</g>
<g opacity="0.2">
<path d="M3349.4 352.8V352.219L3349.23 351.662L3274.31 99.4004H3329.12L3374.53 271.869L3378.4 286.559L3382.27 271.869L3427.68 99.4004H3476.99L3402.06 351.662L3401.9 352.219V352.8V476.4H3349.4V352.8Z" stroke="url(#paint12_linear_23_1057)" stroke-width="8"/>
<path d="M3219.89 409.959L3219.38 406.55H3215.93H3141.68H3138.23L3137.72 409.959L3127.78 476.4H3080.37L3140.69 99.4004H3222.42L3282.74 476.4H3229.83L3219.89 409.959ZM3145.42 357.708L3144.74 362.3H3149.38H3207.68H3212.32L3211.64 357.708L3182.49 163.008H3174.57L3145.42 357.708Z" stroke="url(#paint13_linear_23_1057)" stroke-width="8"/>
<path d="M2963.36 476.4H2871.66V99.4004H2963.36C2993.12 99.4004 3014.4 107.28 3028.05 122.291L3028.06 122.309L3028.08 122.327C3042.18 137.462 3049.56 159.977 3049.56 190.55V385.25C3049.56 415.824 3042.18 438.339 3028.08 453.474L3028.06 453.492L3028.05 453.51C3014.4 468.521 2993.12 476.4 2963.36 476.4ZM2928.16 146.4H2924.16V150.4V425.4V429.4H2928.16H2962.26C2972.6 429.4 2981.22 426.392 2987.63 419.979C2994.29 413.32 2997.06 402.226 2997.06 388V187.8C2997.06 173.575 2994.29 162.481 2987.63 155.822C2981.22 149.409 2972.6 146.4 2962.26 146.4H2928.16Z" stroke="url(#paint14_linear_23_1057)" stroke-width="8"/>
<path d="M2766.92 99.4004H2819.42V476.4H2766.92V99.4004Z" stroke="url(#paint15_linear_23_1057)" stroke-width="8"/>
<path d="M2598.13 323.65V476.4H2545.63V99.4004H2632.93C2663.97 99.4004 2685.38 106.634 2698.23 120.155L2698.25 120.174L2698.26 120.193C2711.56 133.833 2718.58 154.825 2718.58 183.95V214.2C2718.58 252.901 2705.77 277.115 2681.27 288.683L2673.01 292.582L2681.48 296.008C2695.95 301.865 2705.53 311.363 2710.6 324.536L2710.62 324.595L2710.64 324.653C2716.25 337.96 2719.13 354.449 2719.13 374.25V433.65C2719.13 443.28 2719.5 451.851 2720.25 459.348L2720.25 459.359L2720.25 459.369C2720.84 464.971 2722.1 470.649 2724.01 476.4H2671.12C2670.66 474.861 2670.19 473.389 2669.72 471.986C2669.06 470.004 2668.38 467.467 2667.68 464.344C2667.33 461.177 2666.98 457.136 2666.63 452.207V452.2V452.169V452.139V452.109V452.079V452.048V452.018V451.987V451.957V451.926V451.896V451.865V451.835V451.804V451.774V451.743V451.712V451.682V451.651V451.62V451.589V451.558V451.528V451.497V451.466V451.435V451.404V451.373V451.342V451.311V451.28V451.249V451.217V451.186V451.155V451.124V451.093V451.061V451.03V450.999V450.967V450.936V450.904V450.873V450.841V450.81V450.778V450.747V450.715V450.683V450.652V450.62V450.588V450.556V450.525V450.493V450.461V450.429V450.397V450.365V450.333V450.301V450.269V450.237V450.205V450.173V450.141V450.109V450.076V450.044V450.012V449.98V449.947V449.915V449.883V449.85V449.818V449.785V449.753V449.72V449.688V449.655V449.622V449.59V449.557V449.524V449.492V449.459V449.426V449.393V449.36V449.328V449.295V449.262V449.229V449.196V449.163V449.13V449.097V449.063V449.03V448.997V448.964V448.931V448.897V448.864V448.831V448.797V448.764V448.731V448.697V448.664V448.63V448.597V448.563V448.53V448.496V448.462V448.429V448.395V448.361V448.327V448.294V448.26V448.226V448.192V448.158V448.124V448.09V448.056V448.022V447.988V447.954V447.92V447.886V447.852V447.817V447.783V447.749V447.715V447.68V447.646V447.612V447.577V447.543V447.508V447.474V447.439V447.405V447.37V447.335V447.301V447.266V447.231V447.197V447.162V447.127V447.092V447.057V447.023V446.988V446.953V446.918V446.883V446.848V446.813V446.778V446.743V446.707V446.672V446.637V446.602V446.566V446.531V446.496V446.461V446.425V446.39V446.354V446.319V446.283V446.248V446.212V446.177V446.141V446.105V446.07V446.034V445.998V445.963V445.927V445.891V445.855V445.819V445.783V445.747V445.711V445.675V445.639V445.603V445.567V445.531V445.495V445.459V445.423V445.386V445.35V445.314V445.277V445.241V445.205V445.168V445.132V445.095V445.059V445.022V444.986V444.949V444.913V444.876V444.839V444.803V444.766V444.729V444.692V444.656V444.619V444.582V444.545V444.508V444.471V444.434V444.397V444.36V444.323V444.286V444.249V444.211V444.174V444.137V444.1V444.062V444.025V443.988V443.95V443.913V443.876V443.838V443.801V443.763V443.726V443.688V443.65V443.613V443.575V443.537V443.5V443.462V443.424V443.386V443.348V443.31V443.273V443.235V443.197V443.159V443.121V443.083V443.045V443.006V442.968V442.93V442.892V442.854V442.815V442.777V442.739V442.7V442.662V442.624V442.585V442.547V442.508V442.47V442.431V442.393V442.354V442.315V442.277V442.238V442.199V442.161V442.122V442.083V442.044V442.005V441.966V441.927V441.888V441.849V441.81V441.771V441.732V441.693V441.654V441.615V441.576V441.536V441.497V441.458V441.419V441.379V441.34V441.3V441.261V441.222V441.182V441.143V441.103V441.063V441.024V440.984V440.944V440.905V440.865V440.825V440.785V440.746V440.706V440.666V440.626V440.586V440.546V440.506V440.466V440.426V440.386V440.346V440.306V440.266V440.225V440.185V440.145V440.105V440.064V440.024V439.984V439.943V439.903V439.862V439.822V439.781V439.741V439.7V439.66V439.619V439.578V439.538V439.497V439.456V439.415V439.374V439.334V439.293V439.252V439.211V439.17V439.129V439.088V439.047V439.006V438.965V438.924V438.882V438.841V438.8V438.759V438.717V438.676V438.635V438.593V438.552V438.511V438.469V438.428V438.386V438.345V438.303V438.261V438.22V438.178V438.136V438.095V438.053V438.011V437.969V437.927V437.886V437.844V437.802V437.76V437.718V437.676V437.634V437.592V437.55V437.507V437.465V437.423V437.381V437.339V437.296V437.254V437.212V437.169V437.127V437.084V437.042V437V436.957V436.914V436.872V436.829V436.787V436.744V436.701V436.659V436.616V436.573V436.53V436.487V436.445V436.402V436.359V436.316V436.273V436.23V436.187V436.144V436.1V436.057V436.014V435.971V435.928V435.885V435.841V435.798V435.755V435.711V435.668V435.624V435.581V435.537V435.494V435.45V435.407V435.363V435.32V435.276V435.232V435.189V435.145V435.101V435.057V435.013V434.969V434.926V434.882V434.838V434.794V434.75V434.706V434.662V434.617V434.573V434.529V434.485V434.441V434.396V434.352V434.308V434.264V434.219V434.175V434.13V434.086V434.041V433.997V433.952V433.908V433.863V433.819V433.774V433.729V433.684V433.64V433.595V433.55V433.505V433.46V433.416V433.371V433.326V433.281V433.236V433.191V433.146V433.1V372.6C2666.63 354.407 2663.52 340.523 2656.33 332.06C2649.04 323.489 2637.6 319.65 2623.03 319.65H2602.13H2598.13V323.65ZM2602.13 146.4H2598.13V150.4V268.65V272.65H2602.13H2625.78C2637.8 272.65 2647.69 269.544 2654.88 262.802C2662.76 255.764 2666.08 243.662 2666.08 227.95V190C2666.08 175.786 2663.5 164.575 2657.51 157.263C2651.74 149.756 2642.65 146.4 2631.28 146.4H2602.13Z" stroke="url(#paint16_linear_23_1057)" stroke-width="8"/>
<path d="M2409.07 266.45V270.45H2413.07H2487.17V317.45H2413.07H2409.07V321.45V476.4H2356.57V99.4004H2508.62V146.4H2413.07H2409.07V150.4V266.45Z" stroke="url(#paint17_linear_23_1057)" stroke-width="8"/>
</g>
<path opacity="0.5" d="M2553.5 -87L2555.84 -72.7733C2586.1 110.923 2730.08 254.899 2913.77 285.157L2928 287.5L2913.77 289.843C2730.08 320.101 2586.1 464.077 2555.84 647.773L2553.5 662L2551.16 647.773C2520.9 464.077 2376.92 320.101 2193.23 289.843L2179 287.5L2193.23 285.157C2376.92 254.899 2520.9 110.923 2551.16 -72.7733L2553.5 -87Z" fill="#FB2A45"/>
<path opacity="0.2" d="M457.5 -117L460.031 -101.634C492.713 96.7778 648.222 252.287 846.634 284.969L862 287.5L846.634 290.031C648.222 322.713 492.713 478.222 460.031 676.634L457.5 692L454.969 676.634C422.287 478.222 266.778 322.713 68.3664 290.031L53 287.5L68.3664 284.969C266.778 252.287 422.287 96.7779 454.969 -101.634L457.5 -117Z" fill="#FB2A45"/>
<path d="M3130.52 352.8L3054.07 95.4004H3117.32L3163.52 270.85L3209.72 95.4004H3267.47L3191.02 352.8V480.4H3130.52V352.8Z" fill="white"/>
<path d="M3072.55 480.4H3011.5L3001.05 410.55H2926.8L2916.35 480.4H2860.8L2922.4 95.4004H3010.95L3072.55 480.4ZM2934.5 358.3H2992.8L2963.65 163.6L2934.5 358.3Z" fill="white"/>
<path d="M2652.78 95.4004H2748.48C2778.91 95.4004 2801.46 103.467 2816.13 119.6C2831.16 135.734 2838.68 159.384 2838.68 190.55V385.25C2838.68 416.417 2831.16 440.067 2816.13 456.2C2801.46 472.334 2778.91 480.4 2748.48 480.4H2652.78V95.4004ZM2713.28 150.4V425.4H2747.38C2756.91 425.4 2764.43 422.65 2769.93 417.15C2775.43 411.65 2778.18 401.934 2778.18 388V187.8C2778.18 173.867 2775.43 164.15 2769.93 158.65C2764.43 153.15 2756.91 150.4 2747.38 150.4H2713.28Z" fill="white"/>
<path d="M2548.04 95.4004H2608.54V480.4H2548.04V95.4004Z" fill="white"/>
<path d="M2453.25 480.4C2452.51 477.834 2451.78 475.45 2451.05 473.25C2450.31 471.05 2449.58 468.3 2448.85 465C2448.48 461.7 2448.11 457.484 2447.75 452.35C2447.75 447.217 2447.75 440.8 2447.75 433.1V372.6C2447.75 354.634 2444.63 341.984 2438.4 334.65C2432.16 327.317 2422.08 323.65 2408.15 323.65H2387.25V480.4H2326.75V95.4004H2418.05C2449.58 95.4004 2472.31 102.734 2486.25 117.4C2500.55 132.067 2507.7 154.25 2507.7 183.95V214.2C2507.7 253.8 2494.5 279.834 2468.1 292.3C2483.5 298.534 2493.95 308.8 2499.45 323.1C2505.31 337.034 2508.25 354.084 2508.25 374.25V433.65C2508.25 443.184 2508.61 451.617 2509.35 458.95C2510.08 465.917 2511.91 473.067 2514.85 480.4H2453.25ZM2387.25 150.4V268.65H2410.9C2422.26 268.65 2431.06 265.717 2437.3 259.85C2443.9 253.984 2447.2 243.35 2447.2 227.95V190C2447.2 176.067 2444.63 165.984 2439.5 159.75C2434.73 153.517 2427.03 150.4 2416.4 150.4H2387.25Z" fill="white"/>
<path d="M2198.19 266.45H2276.29V321.45H2198.19V480.4H2137.69V95.4004H2297.74V150.4H2198.19V266.45Z" fill="white"/>
<path d="M1908.42 325.16L1904.49 314.907L1899.34 324.605L1880.64 359.805L1880.05 360.905V362.15V475.4H1829.55V100.4H1880.05V263.15L1889.57 265.285L1967.42 100.4H2016.73L1936.11 264.799L1935.14 266.781L1935.95 268.835L2017.41 475.4H1966.04L1908.42 325.16Z" fill="#F53A5F" fill-opacity="0.15" stroke="#FB2A45" stroke-width="10"/>
<path d="M1735.64 391.85V341.85H1782.84V388C1782.84 418.379 1775.34 441.024 1761.05 456.679L1761.05 456.683C1747.25 471.83 1726.42 479.8 1697.64 479.8C1668.9 479.8 1647.87 471.847 1633.69 456.68C1619.76 441.028 1612.44 418.379 1612.44 388V187.8C1612.44 157.386 1619.78 134.939 1633.69 119.67C1647.88 104.131 1668.9 96 1697.64 96C1726.39 96 1747.2 104.134 1761.01 119.627L1761.05 119.67L1761.09 119.712C1775.34 134.982 1782.84 157.413 1782.84 187.8V220.2H1735.64V183.95C1735.64 169.662 1732.7 158.218 1725.38 151.265C1718.77 144.283 1709.87 141 1699.29 141C1688.65 141 1679.6 144.319 1672.66 151.264C1665.71 158.213 1662.94 169.651 1662.94 183.95V391.85C1662.94 406.149 1665.71 417.587 1672.66 424.536L1672.71 424.593L1672.77 424.648C1679.74 431.174 1688.74 434.25 1699.29 434.25C1709.81 434.25 1718.69 431.194 1725.32 424.591C1732.68 417.644 1735.64 406.176 1735.64 391.85Z" fill="#F53A5F" fill-opacity="0.15" stroke="#FB2A45" stroke-width="10"/>
<path d="M1518.2 409.811L1517.56 405.55H1513.26H1439.01H1434.7L1434.06 409.811L1424.25 475.4H1378.87L1438.87 100.4H1518.89L1578.89 475.4H1528.01L1518.2 409.811ZM1441.76 357.56L1440.9 363.3H1446.71H1505.01H1510.81L1509.95 357.56L1480.8 162.86H1470.91L1441.76 357.56Z" fill="#F53A5F" fill-opacity="0.15" stroke="#FB2A45" stroke-width="10"/>
<path d="M1263.08 430.4H1357.63V475.4H1207.58V100.4H1258.08V425.4V430.4H1263.08Z" fill="#F53A5F" fill-opacity="0.15" stroke="#FB2A45" stroke-width="10"/>
<path d="M1135.02 120.844L1135.04 120.868L1135.06 120.891C1148.11 134.275 1155.09 154.969 1155.09 183.95V197.7C1155.09 217.02 1152.05 232.524 1146.25 244.466C1140.54 256.206 1131.52 264.933 1118.96 270.707L1108.09 275.701L1119.28 279.928C1134.71 285.758 1145.17 295.184 1151.15 308.146L1151.19 308.217L1151.22 308.286C1157.75 321.341 1161.14 337.756 1161.14 357.75V389.1C1161.14 417.946 1153.68 439.24 1139.49 453.785C1125.34 467.914 1103.92 475.4 1074.29 475.4H984.143V100.4H1070.44C1101.36 100.4 1122.44 107.609 1135.02 120.844ZM1039.64 302.15H1034.64V307.15V425.4V430.4H1039.64H1074.29C1085.39 430.4 1094.61 427.421 1100.99 420.624C1107.91 413.651 1110.64 402.028 1110.64 387.45V353.9C1110.64 335.78 1107.59 321.774 1099.98 313.672C1092.73 305.559 1081.11 302.15 1066.59 302.15H1039.64ZM1039.64 145.4H1034.64V150.4V252.15V257.15H1039.64H1063.29C1075.48 257.15 1085.64 254 1093.07 247.039C1101.27 239.71 1104.59 227.241 1104.59 211.45V190C1104.59 175.714 1102.01 164.222 1095.81 156.642C1089.78 148.816 1080.35 145.4 1068.79 145.4H1039.64Z" fill="#F53A5F" fill-opacity="0.15" stroke="#FB2A45" stroke-width="10"/>
<path d="M712.925 201.55V480.4H658.475V95.4004H734.375L796.525 325.85V95.4004H850.425V480.4H788.275L712.925 201.55Z" fill="white"/>
<path d="M554.287 95.4004H614.787V480.4H554.287V95.4004Z" fill="white"/>
<path d="M391.771 391.85C391.771 405.783 394.521 415.683 400.021 421.55C405.888 427.05 413.588 429.8 423.121 429.8C432.655 429.8 440.171 427.05 445.671 421.55C451.538 415.683 454.471 405.783 454.471 391.85V183.95C454.471 170.017 451.538 160.3 445.671 154.8C440.171 148.933 432.655 146 423.121 146C413.588 146 405.888 148.933 400.021 154.8C394.521 160.3 391.771 170.017 391.771 183.95V391.85ZM331.271 187.8C331.271 156.633 339.155 132.8 354.921 116.3C370.688 99.4333 393.421 91 423.121 91C452.821 91 475.555 99.4333 491.321 116.3C507.088 132.8 514.971 156.633 514.971 187.8V388C514.971 419.167 507.088 443.183 491.321 460.05C475.555 476.55 452.821 484.8 423.121 484.8C393.421 484.8 370.688 476.55 354.921 460.05C339.155 443.183 331.271 419.167 331.271 388V187.8Z" fill="white"/>
<path d="M179 425.4C182.3 425.767 185.783 425.95 189.45 425.95C193.117 425.95 196.6 425.95 199.9 425.95C209.433 425.95 217.5 423.567 224.1 418.8C231.067 414.034 234.55 404.134 234.55 389.1V95.4004H295.05V384.7C295.05 404.134 292.667 420.084 287.9 432.55C283.133 445.017 276.717 454.917 268.65 462.25C260.583 469.217 251.233 474.167 240.6 477.1C230.333 480.034 219.517 481.5 208.15 481.5C202.65 481.5 197.7 481.5 193.3 481.5C188.9 481.5 184.133 481.134 179 480.4V425.4Z" fill="white"/>
</g>
<defs>
<linearGradient id="paint0_linear_23_1057" x1="3129.38" y1="270.5" x2="3288.72" y2="270.5" gradientUnits="userSpaceOnUse">
<stop offset="0.89" stop-color="#F53A63" stop-opacity="0"/>
<stop offset="1" stop-color="#F53A56"/>
</linearGradient>
<linearGradient id="paint1_linear_23_1057" x1="2936.11" y1="270.5" x2="3094.21" y2="270.5" gradientUnits="userSpaceOnUse">
<stop offset="0.89" stop-color="#F53A63" stop-opacity="0"/>
<stop offset="1" stop-color="#F53A56"/>
</linearGradient>
<linearGradient id="paint2_linear_23_1057" x1="2728.09" y1="270.5" x2="2866.89" y2="270.5" gradientUnits="userSpaceOnUse">
<stop offset="0.89" stop-color="#F53A63" stop-opacity="0"/>
<stop offset="1" stop-color="#F53A56"/>
</linearGradient>
<linearGradient id="paint3_linear_23_1057" x1="2623.35" y1="270.5" x2="2668.52" y2="270.5" gradientUnits="userSpaceOnUse">
<stop offset="0.89" stop-color="#F53A63" stop-opacity="0"/>
<stop offset="1" stop-color="#F53A56"/>
</linearGradient>
<linearGradient id="paint4_linear_23_1057" x1="2402.06" y1="270.5" x2="2542.51" y2="270.5" gradientUnits="userSpaceOnUse">
<stop offset="0.89" stop-color="#F53A63" stop-opacity="0"/>
<stop offset="1" stop-color="#F53A56"/>
</linearGradient>
<linearGradient id="paint5_linear_23_1057" x1="2213" y1="270.5" x2="2332.5" y2="270.5" gradientUnits="userSpaceOnUse">
<stop offset="0.89" stop-color="#F53A63" stop-opacity="0"/>
<stop offset="1" stop-color="#F53A56"/>
</linearGradient>
<linearGradient id="paint6_linear_23_1057" x1="3199.17" y1="270.5" x2="3358.5" y2="270.5" gradientUnits="userSpaceOnUse">
<stop offset="0.89" stop-color="#F53A63" stop-opacity="0"/>
<stop offset="1" stop-color="#F53A56"/>
</linearGradient>
<linearGradient id="paint7_linear_23_1057" x1="3005.9" y1="270.5" x2="3164" y2="270.5" gradientUnits="userSpaceOnUse">
<stop offset="0.89" stop-color="#F53A63" stop-opacity="0"/>
<stop offset="1" stop-color="#F53A56"/>
</linearGradient>
<linearGradient id="paint8_linear_23_1057" x1="2797.87" y1="270.5" x2="2936.67" y2="270.5" gradientUnits="userSpaceOnUse">
<stop offset="0.89" stop-color="#F53A63" stop-opacity="0"/>
<stop offset="1" stop-color="#F53A56"/>
</linearGradient>
<linearGradient id="paint9_linear_23_1057" x1="2693.13" y1="270.5" x2="2738.31" y2="270.5" gradientUnits="userSpaceOnUse">
<stop offset="0.89" stop-color="#F53A63" stop-opacity="0"/>
<stop offset="1" stop-color="#F53A56"/>
</linearGradient>
<linearGradient id="paint10_linear_23_1057" x1="2471.85" y1="270.5" x2="2612.29" y2="270.5" gradientUnits="userSpaceOnUse">
<stop offset="0.89" stop-color="#F53A63" stop-opacity="0"/>
<stop offset="1" stop-color="#F53A56"/>
</linearGradient>
<linearGradient id="paint11_linear_23_1057" x1="2282.78" y1="270.5" x2="2402.28" y2="270.5" gradientUnits="userSpaceOnUse">
<stop offset="0.89" stop-color="#F53A63" stop-opacity="0"/>
<stop offset="1" stop-color="#F53A56"/>
</linearGradient>
<linearGradient id="paint12_linear_23_1057" x1="3268.95" y1="270.5" x2="3428.28" y2="270.5" gradientUnits="userSpaceOnUse">
<stop offset="0.89" stop-color="#F53A63" stop-opacity="0"/>
<stop offset="1" stop-color="#F53A56"/>
</linearGradient>
<linearGradient id="paint13_linear_23_1057" x1="3075.68" y1="270.5" x2="3233.78" y2="270.5" gradientUnits="userSpaceOnUse">
<stop offset="0.89" stop-color="#F53A63" stop-opacity="0"/>
<stop offset="1" stop-color="#F53A56"/>
</linearGradient>
<linearGradient id="paint14_linear_23_1057" x1="2867.66" y1="270.5" x2="3006.46" y2="270.5" gradientUnits="userSpaceOnUse">
<stop offset="0.89" stop-color="#F53A63" stop-opacity="0"/>
<stop offset="1" stop-color="#F53A56"/>
</linearGradient>
<linearGradient id="paint15_linear_23_1057" x1="2762.92" y1="270.5" x2="2808.09" y2="270.5" gradientUnits="userSpaceOnUse">
<stop offset="0.89" stop-color="#F53A63" stop-opacity="0"/>
<stop offset="1" stop-color="#F53A56"/>
</linearGradient>
<linearGradient id="paint16_linear_23_1057" x1="2541.63" y1="270.5" x2="2682.07" y2="270.5" gradientUnits="userSpaceOnUse">
<stop offset="0.89" stop-color="#F53A63" stop-opacity="0"/>
<stop offset="1" stop-color="#F53A56"/>
</linearGradient>
<linearGradient id="paint17_linear_23_1057" x1="2352.57" y1="270.5" x2="2472.07" y2="270.5" gradientUnits="userSpaceOnUse">
<stop offset="0.89" stop-color="#F53A63" stop-opacity="0"/>
<stop offset="1" stop-color="#F53A56"/>
</linearGradient>
</defs>
</svg>
