<svg width="12" height="12" viewbox="0 0 24 24" fill="none" xmlns="http://www.w3.org/2000/svg">
  <path
    d="M5.27477 13.9533L5.2735 13.9545C5.26212 13.9659 5.25076 13.9772 5.23943 13.9885C5.07981 14.1477 4.92636 14.3007 4.81797 14.4922C4.70957 14.6836 4.65731 14.8939 4.60294 15.1127C4.59894 15.1288 4.59493 15.1449 4.59088 15.1611L3.61966 19.046C3.61725 19.0557 3.61481 19.0654 3.61235 19.0752C3.57374 19.2293 3.53007 19.4035 3.51556 19.5518C3.49941 19.7169 3.5009 20.0162 3.74218 20.2574C3.98347 20.4986 4.2827 20.5002 4.44783 20.4841C4.5961 20.4696 4.77038 20.4259 4.92446 20.3873C4.93426 20.3848 4.94398 20.3824 4.95361 20.38L8.83849 19.4087C8.85468 19.4047 8.87083 19.4007 8.88693 19.3967C9.10571 19.3423 9.31602 19.2901 9.50747 19.1817C9.69892 19.0733 9.85193 18.9198 10.0111 18.7602C10.0228 18.7484 10.0345 18.7367 10.0463 18.7249L20.0096 8.76155L20.0365 8.73468C20.3468 8.42442 20.6211 8.15022 20.8124 7.89946C21.0198 7.62765 21.1854 7.31412 21.1854 6.92308C21.1854 6.53204 21.0198 6.21851 20.8124 5.94669C20.6211 5.69592 20.3468 5.4217 20.0365 5.11141L20.0096 5.0846L18.915 3.98995L18.8882 3.96311C18.5779 3.65278 18.3037 3.37853 18.0529 3.1872C17.7811 2.97981 17.4676 2.81421 17.0765 2.81421C16.6855 2.81421 16.372 2.97981 16.1001 3.1872C15.8494 3.37853 15.5752 3.65279 15.2649 3.96312L15.238 3.98995L5.27477 13.9533Z"
    stroke="currentColor" stroke-width="1.5"></path>
  <path d="M13.8086 4.96155L19.0394 10.1923" stroke="currentColor" stroke-width="1.5"></path>
</svg>