<svg width="150" height="150" viewBox="0 0 150 150" fill="none" xmlns="http://www.w3.org/2000/svg">
<circle cx="75" cy="75" r="75" fill="#0095C6"/>
<path d="M28.2871 118.91V37.1782H16V34H56.4387V37.1782H44.1516V115.732H56.4387V118.91H28.2871Z" fill="white"/>
<path d="M134.277 105.676C132.863 108.618 130.785 111.176 128.215 113.14C125.006 115.411 121.371 116.979 117.541 117.746C113.696 118.495 109.794 118.885 105.881 118.91H74.1164V37.3879H61.7324V34H103.187C107.006 34.016 110.816 34.3346 114.586 34.9528C118.42 35.5273 122.1 36.8771 125.416 38.9231C127.835 40.433 129.819 42.5699 131.168 45.1166C132.481 47.5196 133.226 50.2023 133.345 52.9512C133.409 55.6777 132.896 58.3863 131.841 60.8918C130.675 63.5438 128.896 65.8683 126.66 67.6677C124.229 69.8891 121.369 71.5662 118.265 72.5907C115.15 73.6043 111.963 74.3655 108.732 74.867C111.834 75.1885 114.905 75.7907 117.903 76.6668C121.011 77.5253 123.979 78.8452 126.712 80.5841C129.349 82.2058 131.612 84.3909 133.345 86.9895C135.144 89.7227 136.069 92.9601 135.988 96.2533C136.098 99.4841 135.514 102.7 134.277 105.676ZM115.83 47.4459C115.464 45.2478 114.573 43.1754 113.24 41.4111C111.969 39.8492 110.274 38.707 108.369 38.129C106.313 37.4886 104.192 37.0977 102.046 36.9645C99.8182 36.9645 97.6421 36.9645 95.4659 36.9645C93.2887 36.9645 91.4242 36.9645 89.9209 36.9645V73.4377C94.0662 73.4377 97.7973 73.4377 101.01 73.4377C103.866 73.4276 106.688 72.8148 109.301 71.6378C111.621 70.448 113.455 68.4613 114.483 66.0266C115.868 62.3139 116.484 58.3489 116.297 54.3806C116.29 52.1073 116.082 49.8395 115.674 47.6048L115.83 47.4459ZM109.094 77.8315C107.035 77.1005 104.893 76.6381 102.72 76.4551C100.495 76.2697 98.2599 76.2697 96.0364 76.4551C93.7556 76.4551 91.7348 76.4551 89.9209 76.4551V115.734H106.348C108.508 115.776 110.621 115.088 112.359 113.775C114.039 112.343 115.369 110.531 116.245 108.482C117.207 106.217 117.869 103.832 118.213 101.388C118.499 98.8378 118.499 96.2628 118.213 93.7124C117.982 91.2884 117.515 88.8942 116.815 86.566C116.231 84.6307 115.28 82.8318 114.016 81.2723C112.624 79.6468 110.836 78.4237 108.835 77.7255" fill="white"/>
</svg>
