<svg width="178" height="60" viewBox="0 0 178 60" fill="none" xmlns="http://www.w3.org/2000/svg">
<mask id="mask0_56_175" style="mask-type:alpha" maskUnits="userSpaceOnUse" x="0" y="0" width="178" height="60">
<rect width="178" height="60" fill="#484AF7"/>
</mask>
<g mask="url(#mask0_56_175)">
<rect width="178" height="60" fill="#484AF7"/>
<path fill-rule="evenodd" clip-rule="evenodd" d="M49.905 44.206C48.7921 44.206 48.2251 43.6579 48.2251 42.7568C48.2251 41.0769 50.0982 40.5122 53.5148 40.1488C53.5148 42.3874 52.0008 44.206 49.8945 44.206H49.905ZM51.375 31.6168C48.9328 31.6168 46.1251 32.7654 44.6006 33.9812L45.9928 36.9213C47.215 35.802 49.191 34.8444 50.9739 34.8444C52.6686 34.8444 53.6051 35.4114 53.6051 36.5536C53.6051 37.3201 52.9856 37.7087 51.8139 37.8619C47.4334 38.4289 44 39.6386 44 43.0131C44 45.6884 45.9046 47.3076 48.8803 47.3076C51.0054 47.3076 52.8953 46.1273 53.7941 44.5776V46.8875H57.7546V37.2088C57.7546 33.219 54.9848 31.6083 51.3771 31.6083L51.375 31.6168Z" fill="white"/>
<path fill-rule="evenodd" clip-rule="evenodd" d="M91.125 32.0512V46.8684H95.3628V39.7286C95.3628 36.3372 97.4164 35.3398 98.8466 35.3398C99.4903 35.3347 100.121 35.5212 100.659 35.8753L101.434 31.9588C100.833 31.7185 100.19 31.6021 99.5438 31.6166C97.366 31.6166 95.997 32.5804 95.0939 34.5418V32.0512H91.125Z" fill="white"/>
<path fill-rule="evenodd" clip-rule="evenodd" d="M121.072 31.6167C118.832 31.6167 117.156 32.9397 116.284 34.2165C115.476 32.568 113.765 31.6167 111.707 31.6167C109.468 31.6167 107.916 32.8599 107.2 34.2921V32.0514H103.114V46.8686H107.356V39.2395C107.356 36.5095 108.79 35.1887 110.127 35.1887C111.339 35.1887 112.452 35.9721 112.452 37.9942V46.8686H116.686V39.2395C116.686 36.4697 118.084 35.1887 119.485 35.1887C120.606 35.1887 121.795 36.0036 121.795 37.9647V46.8686H126.028V36.625C126.028 33.2967 123.788 31.6167 121.081 31.6167" fill="white"/>
<path fill-rule="evenodd" clip-rule="evenodd" d="M80.8123 32.0514H76.9737V30.5457C76.9737 28.5844 78.093 28.0258 79.0568 28.0258C79.7149 28.0344 80.3619 28.1962 80.9467 28.4983L82.2529 25.5101C82.2529 25.5101 80.9278 24.6449 78.5191 24.6449C75.8123 24.6449 72.7316 26.1716 72.7316 30.9615V32.0514H66.3164V30.5457C66.3164 28.5844 67.4335 28.0258 68.3996 28.0258C69.0588 28.0258 69.7079 28.188 70.2895 28.4983L71.5957 25.5101C70.8166 25.0544 69.563 24.6449 67.8642 24.6449C65.1572 24.6449 62.0766 26.1716 62.0766 30.9615V32.0514H59.6239V35.319H62.0829V46.8687H66.3164V35.319H72.7402V46.8687H76.9737V35.319H80.8123V32.0514Z" fill="white"/>
<path d="M87.5696 32.0513H83.3403V46.8621H87.5696V32.0513Z" fill="white"/>
<path fill-rule="evenodd" clip-rule="evenodd" d="M83.4958 29.5335H87.6391C90.0561 21.9338 98.2565 15.2539 108.009 15.2539C119.869 15.2539 130.119 24.2837 130.119 38.3407C130.155 41.2261 129.759 44.1007 128.943 46.8684H132.964L133.004 46.7298C133.682 43.9898 134.016 41.1759 133.999 38.3533C133.999 22.6772 122.576 11.3942 108.017 11.3942C96.5806 11.3942 86.3875 19.332 83.4981 29.5377L83.4958 29.5335Z" fill="white"/>
</g>
</svg>
