<svg width="364" height="56" viewBox="0 0 364 56" fill="none" xmlns="http://www.w3.org/2000/svg">
<path d="M364 0H0V56H364V0Z" fill="#627EEA"/>
<path d="M250.969 38.6292V17H255.11L264.318 32.264H262.124L271.177 17H275.287L275.348 38.6292H270.652L270.621 24.1994H271.486L264.256 36.3427H262L254.615 24.1994H255.666V38.6292H250.969Z" fill="white"/>
<path d="M234.992 39C231.922 39 229.523 38.1451 227.792 36.4354C226.062 34.7257 225.197 32.2846 225.197 29.1124V17H230.202V28.927C230.202 30.9869 230.625 32.47 231.469 33.3764C232.314 34.2828 233.498 34.736 235.023 34.736C236.547 34.736 237.731 34.2828 238.576 33.3764C239.421 32.47 239.843 30.9869 239.843 28.927V17H244.787V29.1124C244.787 32.2846 243.922 34.7257 242.191 36.4354C240.461 38.1451 238.061 39 234.992 39Z" fill="white"/>
<path d="M208.02 25.7135H218.433V29.6067H208.02V25.7135ZM208.391 34.6124H220.163V38.6292H203.416V17H219.762V21.0169H208.391V34.6124Z" fill="white"/>
<path d="M179.459 38.6292V17H188.821C190.757 17 192.426 17.3193 193.827 17.9579C195.227 18.5758 196.309 19.4719 197.071 20.6461C197.833 21.8202 198.214 23.221 198.214 24.8483C198.214 26.4551 197.833 27.8455 197.071 29.0197C196.309 30.1732 195.227 31.059 193.827 31.677C192.426 32.2949 190.757 32.6039 188.821 32.6039H182.24L184.464 30.4101V38.6292H179.459ZM193.209 38.6292L187.801 30.7809H193.147L198.616 38.6292H193.209ZM184.464 30.9663L182.24 28.618H188.543C190.088 28.618 191.242 28.2884 192.004 27.6292C192.766 26.9494 193.147 26.0225 193.147 24.8483C193.147 23.6536 192.766 22.7266 192.004 22.0674C191.242 21.4082 190.088 21.0787 188.543 21.0787H182.24L184.464 18.6994V30.9663Z" fill="white"/>
<path d="M162.097 25.7135H172.51V29.6067H162.097V25.7135ZM162.467 34.6124H174.24V38.6292H157.493V17H173.838V21.0169H162.467V34.6124Z" fill="white"/>
<path d="M146.134 17H151.14V38.6292H146.134V17ZM136.308 38.6292H131.302V17H136.308V38.6292ZM146.505 29.7612H135.937V25.5281H146.505V29.7612Z" fill="white"/>
<path d="M115.446 38.6292V21.0787H108.525V17H127.373V21.0787H120.452V38.6292H115.446Z" fill="white"/>
<path d="M93.6039 25.7135H104.017V29.6067H93.6039V25.7135ZM93.9747 34.6124H105.747V38.6292H89V17H105.346V21.0169H93.9747V34.6124Z" fill="white"/>
</svg>
