<svg xmlns="http://www.w3.org/2000/svg" enable-background="new 0 0 67 67" viewBox="0 0 67 67" id="pearl-bracelet"><path d="M15.6 13.6c0 0 .1 0 .1 0 .2 0 .4-.1.5-.4.2-.6.7-1 1.3-1 .3 0 .5-.2.5-.5s-.2-.5-.5-.5c-1.1 0-2 .7-2.3 1.8C15.2 13.3 15.3 13.6 15.6 13.6zM31 6c-1.3 0-2.4 1.1-2.4 2.4 0 .3.2.5.5.5 0 0 0 0 0 0 .3 0 .5-.2.5-.5C29.6 7.6 30.2 7 31 7c.8 0 1.4.7 1.4 1.4 0 .3.2.5.5.5.3 0 .5-.2.5-.5C33.4 7.1 32.4 6 31 6z"></path><path d="M17.6,20.6c3.1,0,5.9-2.1,6.7-5.1c1-3.7-1.2-7.5-4.9-8.5c-3.7-1-7.5,1.2-8.4,4.9C9.8,16.2,13,20.6,17.6,20.6z M12.8,12.4
		c0.7-2.6,3.4-4.2,6-3.5c2.6,0.7,4.2,3.4,3.5,6c-0.6,2.1-2.5,3.6-4.7,3.6C14.4,18.6,12,15.5,12.8,12.4z"></path><path d="M36.1,3.8c-2.5-2.8-6.9-3.1-9.7-0.5c-4.7,4.2-1.7,12,4.6,12C36.9,15.3,40.1,8.2,36.1,3.8z M31,13.3c-4.5,0-6.6-5.6-3.3-8.5
		c2-1.8,5.1-1.6,6.9,0.4C37.5,8.3,35.2,13.3,31,13.3z"></path><path d="M45.1 18.2c4.3 0 7.5-3.8 6.8-8-.5-3.4-3.4-5.8-6.8-5.8-4.2 0-7.5 3.8-6.8 8C38.8 15.7 41.7 18.2 45.1 18.2zM45.1 6.4c2.4 0 4.4 1.7 4.8 4.1.5 3-1.8 5.7-4.8 5.7-2.4 0-4.5-1.7-4.8-4.1C39.8 9.1 42.1 6.4 45.1 6.4zM53.4 42c-3.8 0-6.9 3.1-6.9 6.9 0 .8.2 1.6.4 2.4-.1-.1-.3-.2-.4-.3-1-.6-2.2-.9-3.4-.9-2.5 0-4.8 1.3-6 3.5-2.7 4.6.7 10.3 6 10.3 2.5 0 4.8-1.3 6-3.5 1.1-1.8 1.2-4 .5-5.8 1.1.8 2.4 1.2 3.9 1.2 3.8 0 6.9-3.1 6.9-6.9S57.2 42 53.4 42zM47.3 59.4c-.9 1.5-2.5 2.5-4.2 2.5-3.7 0-6.1-4.1-4.2-7.3.9-1.5 2.5-2.5 4.3-2.5.9 0 1.7.2 2.4.7C47.8 54.1 48.6 57.1 47.3 59.4zM53.4 53.8c-2.7 0-4.9-2.2-4.9-4.9 0-2.7 2.2-4.9 4.9-4.9 2.7 0 4.9 2.2 4.9 4.9C58.3 51.6 56.1 53.8 53.4 53.8zM16.6 45.3c-3.8-.4-7.2 2.4-7.6 6.1-.4 3.8 2.4 7.2 6.1 7.6 3.8.4 7.2-2.4 7.6-6.1C23.1 49.1 20.4 45.7 16.6 45.3zM20.7 52.7c-.3 2.7-2.7 4.7-5.4 4.4-2.7-.3-4.6-2.7-4.4-5.4.3-2.7 2.7-4.6 5.4-4.4C19.1 47.6 21 50 20.7 52.7z"></path><path d="M13.9 44.1c3.6-4.5.4-11.2-5.4-11.2-6.5 0-9.4 8.2-4.3 12.3C7.1 47.5 11.5 47.1 13.9 44.1zM5.5 43.6c-3.6-2.9-1.5-8.7 3.1-8.7 4.1 0 6.4 4.8 3.8 8C10.7 44.9 7.6 45.3 5.5 43.6zM58.4 28.5c-1.3 0-2.6.4-3.7 1.1-3.2 2.1-4.1 6.4-2 9.5 1.3 2 3.5 3.1 5.8 3.1 3.2 0 6-2.2 6.7-5.5C66.1 32.6 62.8 28.5 58.4 28.5zM63.2 36.5c-.5 2.3-2.5 3.9-4.8 3.9-4.9 0-6.7-6.4-2.7-9 .8-.5 1.7-.8 2.7-.8C61.5 30.5 63.9 33.4 63.2 36.5zM49 18.6c-2 4.6 1.3 9.7 6.3 9.7 2.7 0 5.2-1.6 6.3-4.1 2-4.6-1.3-9.7-6.3-9.7C52.6 14.5 50.1 16.1 49 18.6zM55.3 16.5c3.5 0 5.9 3.7 4.5 6.9-.8 1.8-2.5 2.9-4.5 2.9-3.5 0-5.9-3.7-4.5-6.9C51.6 17.6 53.4 16.5 55.3 16.5zM9.2 32.3c4.7 0 8-4.6 6.6-9-.9-2.9-3.6-4.8-6.6-4.8-4.7 0-8 4.6-6.6 9C3.6 30.4 6.2 32.3 9.2 32.3zM9.2 20.5c2.1 0 4 1.4 4.7 3.4 1 3.1-1.3 6.4-4.7 6.4-2.1 0-4-1.4-4.7-3.4C3.5 23.7 5.9 20.5 9.2 20.5zM28.7 51.7c-2.8 0-5.6 1.8-6.6 4.8-1.4 4.4 1.8 9 6.6 9 5.1 0 8.5-5.4 6.1-10C33.7 53.1 31.3 51.7 28.7 51.7zM28.7 63.5c-3.4 0-5.7-3.3-4.7-6.4.7-2.1 2.6-3.4 4.7-3.4 1.9 0 3.5 1 4.4 2.7C34.8 59.6 32.4 63.5 28.7 63.5z"></path><path d="M8.6 37.4c-.7 0-1.4.3-1.9.9-.4.5-.6 1.2-.5 1.8 0 .3.2.4.5.4 0 0 0 0 .1 0 .3 0 .5-.3.4-.6-.1-.4.1-.8.3-1.1.3-.3.7-.5 1.1-.5.3 0 .5-.2.5-.5S8.8 37.4 8.6 37.4zM7.4 26.4c.1 0 .1 0 .2 0 .3-.1.4-.4.3-.6C7.6 25.1 8 24.3 8.8 24 9 24 9.2 23.7 9.1 23.4 9 23.1 8.7 23 8.5 23.1c-1.3.4-2 1.8-1.5 3C7 26.3 7.2 26.4 7.4 26.4zM14.7 51.3c.2-.2.1-.5-.1-.7-.2-.2-.5-.1-.7.1-.6.9-.6 2.1.1 2.9.1.1.2.2.4.2.1 0 .2 0 .3-.1.2-.2.2-.5.1-.7C14.4 52.5 14.4 51.8 14.7 51.3zM27.6 56.5c-.8.4-1.1 1-1.2 1.4-.1.4-.2 1.1.1 1.8.1.2.3.3.4.3.1 0 .2 0 .2-.1.2-.1.3-.4.2-.7-.2-.4-.2-.9-.1-1.1.1-.2.2-.6.7-.8.2-.1.3-.4.2-.7C28.2 56.4 27.9 56.3 27.6 56.5zM42.2 54.7c-.5.2-1 .6-1.2 1-.3.5-.4 1.1-.3 1.7.1.2.3.4.5.4 0 0 .1 0 .1 0 .3-.1.4-.3.4-.6-.1-.3 0-.7.1-1 .2-.4.5-.5.7-.6.3-.1.4-.4.3-.6C42.7 54.8 42.5 54.6 42.2 54.7zM53.4 46.5c-.3 0-.5.2-.5.5s.2.5.5.5c.8 0 1.4.6 1.4 1.4 0 .3.2.5.5.5s.5-.2.5-.5C55.8 47.6 54.7 46.5 53.4 46.5zM58.4 33c-.3 0-.5.2-.5.5s.2.5.5.5c.5 0 .9.2 1.2.6.1.2.2.4.2.6 0 .3.2.4.5.4 0 0 0 0 .1 0 .3 0 .5-.3.4-.6 0-.4-.2-.7-.4-1C60 33.5 59.3 33 58.4 33zM55.3 20c.2 0 .4 0 .6.1.5.2.7.6.7.8.1.2.3.3.5.3.1 0 .1 0 .2 0 .3-.1.4-.4.3-.6-.1-.3-.5-1-1.3-1.3-.3-.1-.6-.2-1-.2-.3 0-.5.2-.5.5S55.1 20 55.3 20zM44.4 10.1c.5-.3 1.2-.2 1.6.2.1.1.2.1.3.1.1 0 .3-.1.4-.2.2-.2.2-.5 0-.7-.8-.7-1.9-.8-2.8-.4-.2.1-.3.4-.2.7C43.9 10.1 44.2 10.2 44.4 10.1z"></path></svg>