<svg width="185" height="25" viewBox="0 0 185 25" fill="none" xmlns="http://www.w3.org/2000/svg">
<path d="M13.8 2.5C13.8 0.5 11.9 0 10.4 0V0.3C11.3 0.3 12 0.6 12 1.3C12 1.7 11.7 2.3 10.8 2.3C10.1 2.3 8.6 1.9 7.5 1.5C6.2 1 5 0.6 4 0.6C2 0.6 0.6 2.1 0.6 3.8C0.6 5.3 1.7 5.8 2.1 6L2.2 5.8C2 5.6 1.7 5.4 1.7 4.8C1.7 4.4 2.1 3.7 3.1 3.7C4 3.7 5.2 4.1 6.8 4.6C8.2 5 9.7 5.3 10.5 5.4V8.5L9 9.8V9.9L10.5 11.2V15.5C9.7 16 8.8 16.1 8 16.1C6.5 16.1 5.2 15.7 4.1 14.5L8.2 12.5V5.6L3.2 7.8C3.6 6.5 4.7 5.6 5.8 5L5.7 4.7C2.7 5.5 0 8.3 0 11.7C0 15.7 3.3 18.7 7 18.7C11 18.7 13.6 15.5 13.6 12.2H13.4C12.8 13.5 11.9 14.7 10.8 15.3V11.2L12.4 9.9V9.8L10.8 8.5V5.4C12.3 5.4 13.8 4.4 13.8 2.5ZM5.1 13.5L3.9 14.1C3.2 13.2 2.8 12 2.8 10.3C2.8 9.6 2.8 8.8 3 8.2L5.1 7.3V13.5ZM15.7 15.8L14.4 16.8L14.6 17L15.2 16.5L17.4 18.5L20.4 16.5L20.3 16.3L19.5 16.8L18.5 15.8V9L19.3 8.4L21 9.8V15.9C21 19.7 20.2 20.3 18.5 20.9V21.2C21.3 21.3 23.9 20.4 23.9 15.5V8.9L24.8 8.2L24.6 8L23.8 8.6L21.3 6.5L18.5 8.6V0.4H18.3L14.8 2.8V3C15.2 3.2 15.8 3.4 15.8 4.5L15.7 15.8ZM34 14.7L31.5 16.6L29 14.6V13.4L33.7 10.2V10.1L31.3 6.5L26.1 9.3V15.9L25.1 16.7L25.3 16.9L26.2 16.2L29.6 18.7L34.1 15.1L34 14.7ZM29 13V8.1L29.2 8L31.4 11.5L29 13ZM53.1 1.6C53.1 1.3 53 1 52.9 0.7H52.7C52.4 1.5 52 1.9 51 1.9C50.1 1.9 49.5 1.4 49.1 1L46.2 4.3L46.4 4.5L47.4 3.6C48 4.1 48.5 4.5 49.9 4.6V12.9L44 2.8C43.5 2 42.8 0.9 41.4 0.9C39.8 0.9 38.4 2.3 38.6 4.5H38.9C39 3.9 39.3 3.2 40 3.2C40.5 3.2 41 3.7 41.3 4.2V7.5C39.5 7.5 38.3 8.3 38.3 9.8C38.3 10.6 38.7 11.8 39.9 12.1V11.9C39.7 11.7 39.6 11.5 39.6 11.2C39.6 10.7 40 10.3 40.7 10.3H41.2V14.5C39.1 14.5 37.4 15.7 37.4 17.7C37.4 19.6 39 20.5 40.8 20.4V20.2C39.7 20.1 39.2 19.6 39.2 18.9C39.2 18 39.8 17.6 40.6 17.6C41.4 17.6 42.1 18.1 42.6 18.7L45.5 15.5L45.3 15.3L44.6 16.1C43.5 15.1 42.9 14.8 41.6 14.6V4.6L49.6 18.6H50.2V4.6C51.7 4.5 53.1 3.3 53.1 1.6ZM60.4 14.7L57.9 16.6L55.4 14.6V13.4L60.1 10.2V10.1L57.7 6.5L52.5 9.3V15.9L51.5 16.7L51.7 16.9L52.6 16.2L56 18.7L60.5 15.1L60.4 14.7ZM55.4 13V8.1L55.6 8L57.8 11.5L55.4 13ZM76.7 7.6L76 8.1L74.1 6.5L71.9 8.5L72.8 9.4V16.9L70.4 15.4V9.2L71.2 8.7L68.9 6.5L66.7 8.5L67.6 9.4V16.6L67.3 16.8L65.2 15.3V9.3C65.2 7.9 64.5 7.5 63.7 7C63 6.5 62.6 6.2 62.6 5.5C62.6 4.9 63.2 4.6 63.5 4.4V4.2C62.7 4.2 60.6 5 60.6 6.9C60.6 7.9 61.1 8.3 61.6 8.8C62.1 9.3 62.6 9.7 62.6 10.6V16.4L61.5 17.2L61.7 17.4L62.7 16.6L65 18.6L67.5 16.9L70.3 18.6L75.6 15.5V8.8L76.9 7.8L76.7 7.6ZM95.3 2.1L94.3 3L92.1 1L88.8 3.4V1.2H88.5L88.6 17.4C88.3 17.4 87.4 17.2 86.7 17L86.5 3.5C86.5 2.5 85.8 1.1 84 1.1C82.2 1.1 81 2.5 81 3.9H81.3C81.4 3.3 81.7 2.8 82.3 2.8C82.9 2.8 83.4 3.2 83.4 4.5V8.4C81.6 8.5 80.5 9.5 80.5 10.8C80.5 11.6 80.9 12.8 82.1 12.8V12.6C81.7 12.4 81.6 12.1 81.6 11.9C81.6 11.3 82.1 11.1 82.9 11.1H83.3V17.3C81.8 17.8 81.2 18.9 81.2 20.1C81.2 21.8 82.5 23 84.5 23C85.9 23 87.1 22.8 88.3 22.5C89.3 22.3 90.6 22 91.2 22C92 22 92.3 22.4 92.3 22.9C92.3 23.6 92 23.9 91.6 24V24.2C93.2 23.9 94.2 22.9 94.2 21.4C94.2 19.9 92.7 19 91.1 19C90.3 19 88.6 19.3 87.4 19.5C86 19.8 84.6 20 84.2 20C83.5 20 82.7 19.7 82.7 18.7C82.7 17.9 83.4 17.2 85.1 17.2C86 17.2 87.1 17.3 88.2 17.6C89.4 17.9 90.5 18.2 91.5 18.2C93 18.2 94.3 17.7 94.3 15.6V3.3L95.5 2.3L95.3 2.1ZM91.2 8.2C90.9 8.5 90.5 8.8 90 8.8C89.5 8.8 89 8.5 88.8 8.2V3.8L89.8 3.1L91.2 4.4V8.2ZM91.2 11.2C91 11 90.5 10.7 90 10.7C89.5 10.7 89 11 88.8 11.2V8.6C89 8.8 89.5 9.1 90 9.1C90.5 9.1 91 8.8 91.2 8.6V11.2ZM91.2 15.9C91.2 16.7 90.7 17.5 89.6 17.5H88.8V11.6C89 11.4 89.5 11.1 90 11.1C90.5 11.1 90.9 11.4 91.2 11.6V15.9ZM104.9 8.8L101.7 6.5L96.8 9.3V15.8L95.8 16.6L95.9 16.8L96.7 16.2L99.9 18.6L104.9 15.6V8.8ZM99.5 15.1V7.9L102 9.7V16.8L99.5 15.1ZM114.4 6.7H114.2C113.9 6.9 113.6 7.1 113.3 7.1C112.9 7.1 112.4 6.9 112.2 6.6H112L110.3 8.5L108.6 6.6L105.6 8.6L105.7 8.8L106.5 8.3L107.5 9.4V15.7L106.2 16.7L106.4 16.9L107 16.4L109.4 18.4L112.5 16.3L112.4 16.1L111.5 16.6L110.3 15.6V8.6C110.8 9.1 111.4 9.6 112.1 9.6C113.5 9.7 114.3 8.3 114.4 6.7ZM126.4 16.3L123 18.6L118.4 11.6L121.7 6.5H121.9C122.3 6.9 122.9 7.3 123.6 7.3C124.3 7.3 124.8 6.9 125.1 6.5H125.3C125.2 8.5 123.8 9.7 122.8 9.7C121.8 9.7 121.3 9.2 120.7 8.9L120.4 9.4L125.4 16.8L126.4 16.2V16.3ZM115.4 15.8L114.1 16.8L114.3 17L114.9 16.5L117.1 18.5L120.1 16.5L119.9 16.3L119.1 16.8L118.1 15.8V0.4H118L114.4 2.8V3C114.8 3.2 115.4 3.3 115.4 4.5V15.8ZM143 2.5C143 0.5 141.1 0 139.6 0V0.3C140.5 0.3 141.2 0.6 141.2 1.3C141.2 1.7 140.9 2.3 140 2.3C139.3 2.3 137.8 1.9 136.7 1.5C135.4 1.1 134.2 0.7 133.2 0.7C131.2 0.7 129.8 2.2 129.8 3.9C129.8 5.4 130.9 5.9 131.3 6.1L131.4 5.9C131.1 5.7 130.8 5.5 130.8 4.9C130.8 4.5 131.2 3.8 132.2 3.8C133.1 3.8 134.3 4.2 135.9 4.7C137.3 5.1 138.8 5.4 139.6 5.5V8.6L138.1 9.9V10L139.6 11.3V15.6C138.8 16.1 137.9 16.2 137.1 16.2C135.6 16.2 134.3 15.8 133.2 14.6L137.3 12.6V5.6L132.3 7.8C132.8 6.5 133.9 5.6 134.9 4.9L134.8 4.7C131.8 5.5 129.1 8.2 129.1 11.6C129.1 15.6 132.4 18.6 136.1 18.6C140.1 18.6 142.7 15.4 142.7 12.1H142.5C141.9 13.4 141 14.6 139.9 15.2V11.1L141.5 9.8V9.7L140 8.4V5.4C141.5 5.4 143 4.4 143 2.5ZM134.3 13.5L133.1 14.1C132.4 13.2 132 12 132 10.3C132 9.6 132.1 8.8 132.3 8.2L134.4 7.3L134.3 13.5ZM146.5 1.5H146.4L144.4 3.2V3.3L146.1 5.2H146.3L148.3 3.5V3.4L146.5 1.5ZM149.5 16.3L148.7 16.8L147.7 15.8V8.9L148.7 8.2L148.5 8L147.8 8.6L146 6.5L143.1 8.5L143.3 8.8L144 8.3L144.9 9.4V15.9L143.6 16.9L143.7 17.1L144.4 16.6L146.6 18.6L149.6 16.6L149.5 16.3ZM166.2 16.2L165.5 16.7L164.4 15.7V8.9L165.4 8.1L165.2 7.9L164.4 8.6L162.1 6.5L159.1 8.6L156.8 6.5L154 8.6L152.2 6.5L149.3 8.5L149.4 8.8L150.1 8.3L151.1 9.4V15.9L150.3 16.7L152.6 18.6L154.8 16.6L153.9 15.7V8.9L154.8 8.3L156.3 9.7V15.7L155.5 16.5L157.8 18.4L160 16.4L159.1 15.5V8.9L159.9 8.4L161.5 9.8V15.8L160.8 16.5L163.1 18.6L166.2 16.5V16.2ZM174.9 14.7L172.4 16.6L169.9 14.6V13.4L174.6 10.2V10.1L172.2 6.5L167 9.3V16.1L170.5 18.6L175 15L174.9 14.7ZM169.9 13V8.1L170.1 8L172.3 11.5L169.9 13ZM184 12.1L182.1 10.6C183.4 9.5 183.9 8 183.9 7V6.4H183.7C183.5 6.9 183.1 7.4 182.3 7.4C181.5 7.4 181 7 180.5 6.4L176 8.9V12.5L177.7 13.8C176 15.3 175.7 16.3 175.7 17.1C175.7 18.1 176.2 18.8 177 19.1L177.1 18.9C176.9 18.7 176.7 18.6 176.7 18.1C176.7 17.8 177.1 17.3 177.9 17.3C178.9 17.3 179.5 18 179.8 18.3L184.1 15.7V12.1H184ZM182.9 9.1C182.2 10.3 180.7 11.5 179.8 12.1L178.7 11.2V7.7C179.1 8.7 180.2 9.5 181.3 9.5C182 9.5 182.4 9.4 182.9 9.1ZM181.2 17.1C180.7 16 179.5 15.2 178.3 15.2C178 15.2 177.2 15.2 176.4 15.7C176.9 14.9 178.2 13.5 179.9 12.5L181.1 13.5L181.2 17.1Z" fill="#131317"/>
</svg>
