<svg width="81" height="21" viewBox="0 0 81 21" fill="none" xmlns="http://www.w3.org/2000/svg">
<path fill-rule="evenodd" clip-rule="evenodd" d="M10.9157 20.8235H4.51185C1.55827 20.8235 0 18.617 0 15.2587V5.75056C0 2.39375 0.707158 0 4.97706 0H6.60896C9.62206 0 10.9368 2.39707 10.9368 5.78361V7.65463H6.0237V4.62685C6.0237 4.3617 5.80164 4.12201 5.5383 4.12201H5.47797C5.21463 4.12201 4.97143 4.3617 4.97143 4.62685V16.0261C4.97143 16.3503 5.2452 16.5541 5.50859 16.5541H10.8514L10.9157 20.8235ZM38.7707 0.213654V20.8235H33.8576V11.507L32.7318 20.8235H29.4353L28.2266 11.507V20.8235H23.3301L23.3137 0.213654H29.8219L31.0421 9.53597L32.2492 0.213654H38.7707ZM51.1626 0.213654H56.1341V16.5541H59.5555V20.8234H51.1627L51.1626 0.213654ZM80.9413 0.213654L78.31 10.165L81 20.8234H75.8537L74.918 15.5237L73.8356 20.8234H69.3613L72.052 10.8715L69.4199 0.213612H74.5667L75.4146 5.42485L76.4673 0.213612L80.9413 0.213654ZM16.4129 4.72319V16.2787C16.4129 16.5907 16.6644 16.8436 17.0015 16.8436C17.3115 16.8436 17.5625 16.5906 17.5625 16.2786V4.72311C17.5625 4.41105 17.3113 4.15779 16.9743 4.15779C16.6644 4.15779 16.4129 4.41113 16.4129 4.72319ZM22.5506 16.5837C22.5506 19.5572 21.1174 21 18.1637 21H15.8241C12.8707 21 11.4379 19.5572 11.4379 16.5837V4.45326C11.4379 1.47953 12.8707 0.03696 15.8241 0.03696H18.1636C21.1173 0.03696 22.5505 1.47958 22.5505 4.45326L22.5506 16.5837ZM44.5569 4.18664V9.06788L45.0726 9.07053C45.3575 9.07053 45.5882 8.81794 45.5882 8.50571V4.75146C45.5882 4.43961 45.3575 4.18664 45.0726 4.18664H44.5569ZM44.5738 12.7903V20.8235H39.6025V0.213654H46.0944C49.0478 0.213654 50.4808 1.65623 50.4808 4.62974V8.37417C50.4808 11.3479 49.0477 12.7903 46.0944 12.7903H44.5738ZM60.1134 0.15708H68.8968V4.43142H65.0907V8.20428H68.7508V12.4786H65.0907V16.5168H68.9555V20.7913H60.1134V0.15708Z" fill="#131317"/>
</svg>
