<svg width="172" height="60" viewBox="0 0 172 60" fill="none" xmlns="http://www.w3.org/2000/svg">
<path d="M89.1661 4.51202C90.7501 4.51202 92.0301 5.01602 93.0061 6.02402C93.9821 7.01603 94.4701 8.40802 94.4701 10.2V18H91.1101V10.656C91.1101 9.60003 90.8461 8.79203 90.3181 8.23203C89.7901 7.65602 89.0701 7.36802 88.1581 7.36802C87.2301 7.36802 86.4941 7.65602 85.9501 8.23203C85.4221 8.79203 85.1581 9.60003 85.1581 10.656V18H81.7981V4.70402H85.1581V6.36002C85.6061 5.78402 86.1741 5.33602 86.8621 5.01602C87.5661 4.68002 88.3341 4.51202 89.1661 4.51202Z" fill="white"/>
<path d="M72.3974 18.216C71.1174 18.216 69.9654 17.936 68.9414 17.376C67.9174 16.8 67.1094 15.992 66.5174 14.952C65.9414 13.912 65.6534 12.712 65.6534 11.352C65.6534 9.99198 65.9494 8.79198 66.5414 7.75198C67.1494 6.71198 67.9734 5.91198 69.0134 5.35198C70.0534 4.77598 71.2134 4.48798 72.4934 4.48798C73.7734 4.48798 74.9334 4.77598 75.9734 5.35198C77.0134 5.91198 77.8294 6.71198 78.4214 7.75198C79.0294 8.79198 79.3334 9.99198 79.3334 11.352C79.3334 12.712 79.0214 13.912 78.3974 14.952C77.7894 15.992 76.9574 16.8 75.9014 17.376C74.8614 17.936 73.6934 18.216 72.3974 18.216ZM72.3974 15.288C73.0054 15.288 73.5734 15.144 74.1014 14.856C74.6454 14.552 75.0774 14.104 75.3974 13.512C75.7174 12.92 75.8774 12.2 75.8774 11.352C75.8774 10.088 75.5414 9.11998 74.8694 8.44798C74.2134 7.75998 73.4054 7.41598 72.4454 7.41598C71.4854 7.41598 70.6774 7.75998 70.0214 8.44798C69.3814 9.11998 69.0614 10.088 69.0614 11.352C69.0614 12.616 69.3734 13.592 69.9974 14.28C70.6374 14.952 71.4374 15.288 72.3974 15.288Z" fill="white"/>
<path d="M55.3819 7.46402V13.896C55.3819 14.344 55.4859 14.672 55.6939 14.88C55.9179 15.072 56.2859 15.168 56.7979 15.168H58.3579V18H56.2459C53.4139 18 51.9979 16.624 51.9979 13.872V7.46402H50.4139V4.70402H51.9979V1.41602H55.3819V4.70402H58.3579V7.46402H55.3819Z" fill="white"/>
<path d="M34.3403 11.304C34.3403 9.95998 34.6043 8.76798 35.1323 7.72798C35.6763 6.68798 36.4043 5.88798 37.3163 5.32798C38.2443 4.76798 39.2763 4.48798 40.4123 4.48798C41.4043 4.48798 42.2683 4.68798 43.0043 5.08798C43.7563 5.48798 44.3563 5.99198 44.8043 6.59998V4.70398H48.1883V18H44.8043V16.056C44.3723 16.68 43.7723 17.2 43.0043 17.616C42.2523 18.016 41.3803 18.216 40.3883 18.216C39.2683 18.216 38.2443 17.928 37.3163 17.352C36.4043 16.776 35.6763 15.968 35.1323 14.928C34.6043 13.872 34.3403 12.664 34.3403 11.304ZM44.8043 11.352C44.8043 10.536 44.6443 9.83998 44.3243 9.26398C44.0043 8.67198 43.5723 8.22398 43.0283 7.91998C42.4843 7.59998 41.9003 7.43998 41.2763 7.43998C40.6523 7.43998 40.0763 7.59198 39.5483 7.89598C39.0203 8.19998 38.5883 8.64798 38.2523 9.23998C37.9323 9.81598 37.7723 10.504 37.7723 11.304C37.7723 12.104 37.9323 12.808 38.2523 13.416C38.5883 14.008 39.0203 14.464 39.5483 14.784C40.0923 15.104 40.6683 15.264 41.2763 15.264C41.9003 15.264 42.4843 15.112 43.0283 14.808C43.5723 14.488 44.0043 14.04 44.3243 13.464C44.6443 12.872 44.8043 12.168 44.8043 11.352Z" fill="white"/>
<path d="M26.8252 4.51199C27.8332 4.51199 28.7292 4.73599 29.5132 5.18399C30.2972 5.61599 30.9052 6.26399 31.3372 7.12799C31.7852 7.97599 32.0092 8.99999 32.0092 10.2V18H28.6492V10.656C28.6492 9.59999 28.3852 8.79199 27.8572 8.23199C27.3292 7.65599 26.6092 7.36799 25.6972 7.36799C24.7692 7.36799 24.0332 7.65599 23.4892 8.23199C22.9612 8.79199 22.6972 9.59999 22.6972 10.656V18H19.3372V0.23999H22.6972V6.35999C23.1292 5.78399 23.7052 5.33599 24.4252 5.01599C25.1452 4.67999 25.9452 4.51199 26.8252 4.51199Z" fill="white"/>
<path d="M0.0992432 9.59998C0.0992432 7.95198 0.467243 6.47998 1.20324 5.18398C1.95524 3.87198 2.97124 2.85598 4.25124 2.13598C5.54724 1.39998 6.99524 1.03198 8.59524 1.03198C10.4672 1.03198 12.1072 1.51198 13.5152 2.47198C14.9232 3.43198 15.9072 4.75998 16.4672 6.45598H12.6032C12.2192 5.65598 11.6752 5.05598 10.9712 4.65598C10.2832 4.25598 9.48324 4.05598 8.57124 4.05598C7.59524 4.05598 6.72324 4.28798 5.95524 4.75198C5.20324 5.19998 4.61124 5.83998 4.17924 6.67198C3.76324 7.50398 3.55524 8.47998 3.55524 9.59998C3.55524 10.704 3.76324 11.68 4.17924 12.528C4.61124 13.36 5.20324 14.008 5.95524 14.472C6.72324 14.92 7.59524 15.144 8.57124 15.144C9.48324 15.144 10.2832 14.944 10.9712 14.544C11.6752 14.128 12.2192 13.52 12.6032 12.72H16.4672C15.9072 14.432 14.9232 15.768 13.5152 16.728C12.1232 17.672 10.4832 18.144 8.59524 18.144C6.99524 18.144 5.54724 17.784 4.25124 17.064C2.97124 16.328 1.95524 15.312 1.20324 14.016C0.467243 12.72 0.0992432 11.248 0.0992432 9.59998Z" fill="white"/>
<path d="M158.01 35.832C158.586 35.0213 159.375 34.3493 160.378 33.816C161.402 33.2613 162.564 32.984 163.866 32.984C165.38 32.984 166.746 33.3573 167.962 34.104C169.199 34.8507 170.17 35.9173 170.874 37.304C171.599 38.6693 171.962 40.2587 171.962 42.072C171.962 43.8853 171.599 45.496 170.874 46.904C170.17 48.2907 169.199 49.368 167.962 50.136C166.746 50.904 165.38 51.288 163.866 51.288C162.564 51.288 161.412 51.0213 160.41 50.488C159.428 49.9547 158.628 49.2827 158.01 48.472V59.448H153.53V33.272H158.01V35.832ZM167.386 42.072C167.386 41.0053 167.162 40.088 166.714 39.32C166.287 38.5307 165.711 37.9333 164.986 37.528C164.282 37.1227 163.514 36.92 162.682 36.92C161.871 36.92 161.103 37.1333 160.378 37.56C159.674 37.9653 159.098 38.5627 158.65 39.352C158.223 40.1413 158.01 41.0693 158.01 42.136C158.01 43.2027 158.223 44.1307 158.65 44.92C159.098 45.7093 159.674 46.3173 160.378 46.744C161.103 47.1493 161.871 47.352 162.682 47.352C163.514 47.352 164.282 47.1387 164.986 46.712C165.711 46.2853 166.287 45.6773 166.714 44.888C167.162 44.0987 167.386 43.16 167.386 42.072Z" fill="white"/>
<path d="M136.322 35.832C136.898 35.0213 137.688 34.3493 138.69 33.816C139.714 33.2613 140.877 32.984 142.178 32.984C143.693 32.984 145.058 33.3573 146.274 34.104C147.512 34.8507 148.482 35.9173 149.186 37.304C149.912 38.6693 150.274 40.2587 150.274 42.072C150.274 43.8853 149.912 45.496 149.186 46.904C148.482 48.2907 147.512 49.368 146.274 50.136C145.058 50.904 143.693 51.288 142.178 51.288C140.877 51.288 139.725 51.0213 138.722 50.488C137.741 49.9547 136.941 49.2827 136.322 48.472V59.448H131.842V33.272H136.322V35.832ZM145.698 42.072C145.698 41.0053 145.474 40.088 145.026 39.32C144.6 38.5307 144.024 37.9333 143.298 37.528C142.594 37.1227 141.826 36.92 140.994 36.92C140.184 36.92 139.416 37.1333 138.69 37.56C137.986 37.9653 137.41 38.5627 136.962 39.352C136.536 40.1413 136.322 41.0693 136.322 42.136C136.322 43.2027 136.536 44.1307 136.962 44.92C137.41 45.7093 137.986 46.3173 138.69 46.744C139.416 47.1493 140.184 47.352 140.994 47.352C141.826 47.352 142.594 47.1387 143.298 46.712C144.024 46.2853 144.6 45.6773 145.026 44.888C145.474 44.0987 145.698 43.16 145.698 42.072Z" fill="white"/>
<path d="M122.632 46.744H113.736L112.264 51H107.56L115.592 28.632H120.808L128.84 51H124.104L122.632 46.744ZM121.416 43.16L118.184 33.816L114.952 43.16H121.416Z" fill="white"/>
<path d="M98.2826 51.288C96.8319 51.288 95.5306 51.032 94.3786 50.52C93.2266 49.9867 92.3092 49.272 91.6266 48.376C90.9652 47.48 90.6026 46.488 90.5386 45.4H95.0506C95.1359 46.0827 95.4666 46.648 96.0426 47.096C96.6399 47.544 97.3759 47.768 98.2506 47.768C99.1039 47.768 99.7652 47.5973 100.235 47.256C100.725 46.9147 100.971 46.4773 100.971 45.944C100.971 45.368 100.672 44.9413 100.075 44.664C99.4986 44.3653 98.5706 44.0453 97.2906 43.704C95.9679 43.384 94.8799 43.0533 94.0266 42.712C93.1946 42.3707 92.4692 41.848 91.8506 41.144C91.2532 40.44 90.9546 39.4907 90.9546 38.296C90.9546 37.3147 91.2319 36.4187 91.7866 35.608C92.3626 34.7973 93.1732 34.1573 94.2186 33.688C95.2852 33.2187 96.5332 32.984 97.9626 32.984C100.075 32.984 101.76 33.5173 103.019 34.584C104.277 35.6293 104.971 37.048 105.099 38.84H100.811C100.747 38.136 100.448 37.5813 99.9146 37.176C99.4026 36.7493 98.7092 36.536 97.8346 36.536C97.0239 36.536 96.3946 36.6853 95.9466 36.984C95.5199 37.2827 95.3066 37.6987 95.3066 38.232C95.3066 38.8293 95.6052 39.288 96.2026 39.608C96.7999 39.9067 97.7279 40.216 98.9866 40.536C100.267 40.856 101.323 41.1867 102.155 41.528C102.987 41.8693 103.701 42.4027 104.299 43.128C104.917 43.832 105.237 44.7707 105.259 45.944C105.259 46.968 104.971 47.8853 104.395 48.696C103.84 49.5067 103.029 50.1467 101.963 50.616C100.917 51.064 99.6906 51.288 98.2826 51.288Z" fill="white"/>
<path d="M84.3083 36.952V45.528C84.3083 46.1253 84.447 46.5627 84.7243 46.84C85.023 47.096 85.5137 47.224 86.1963 47.224H88.2763V51H85.4603C81.6843 51 79.7963 49.1653 79.7963 45.496V36.952H77.6843V33.272H79.7963V28.888H84.3083V33.272H88.2763V36.952H84.3083Z" fill="white"/>
<path d="M56.2528 42.072C56.2528 40.28 56.6048 38.6907 57.3088 37.304C58.0341 35.9173 59.0048 34.8507 60.2208 34.104C61.4581 33.3573 62.8341 32.984 64.3488 32.984C65.6715 32.984 66.8235 33.2507 67.8048 33.784C68.8075 34.3173 69.6075 34.9893 70.2048 35.8V33.272H74.7168V51H70.2048V48.408C69.6288 49.24 68.8288 49.9333 67.8048 50.488C66.8021 51.0213 65.6395 51.288 64.3168 51.288C62.8235 51.288 61.4581 50.904 60.2208 50.136C59.0048 49.368 58.0341 48.2907 57.3088 46.904C56.6048 45.496 56.2528 43.8853 56.2528 42.072ZM70.2048 42.136C70.2048 41.048 69.9915 40.12 69.5648 39.352C69.1381 38.5627 68.5621 37.9653 67.8368 37.56C67.1115 37.1333 66.3328 36.92 65.5008 36.92C64.6688 36.92 63.9008 37.1227 63.1968 37.528C62.4928 37.9333 61.9168 38.5307 61.4688 39.32C61.0421 40.088 60.8288 41.0053 60.8288 42.072C60.8288 43.1387 61.0421 44.0773 61.4688 44.888C61.9168 45.6773 62.4928 46.2853 63.1968 46.712C63.9221 47.1387 64.6901 47.352 65.5008 47.352C66.3328 47.352 67.1115 47.1493 67.8368 46.744C68.5621 46.3173 69.1381 45.72 69.5648 44.952C69.9915 44.1627 70.2048 43.224 70.2048 42.136Z" fill="white"/>
<path d="M46.2325 33.016C47.5765 33.016 48.7712 33.3147 49.8165 33.912C50.8619 34.488 51.6725 35.352 52.2485 36.504C52.8459 37.6347 53.1445 39 53.1445 40.6V51H48.6645V41.208C48.6645 39.8 48.3125 38.7227 47.6085 37.976C46.9045 37.208 45.9445 36.824 44.7285 36.824C43.4912 36.824 42.5099 37.208 41.7845 37.976C41.0805 38.7227 40.7285 39.8 40.7285 41.208V51H36.2485V27.32H40.7285V35.48C41.3045 34.712 42.0725 34.1147 43.0325 33.688C43.9925 33.24 45.0592 33.016 46.2325 33.016Z" fill="white"/>
<path d="M33.3233 28.664L27.0833 51H21.8033L17.6113 35.096L13.2273 51L7.97926 51.032L1.96326 28.664H6.76326L10.6993 46.008L15.2433 28.664H20.2353L24.5233 45.912L28.4913 28.664H33.3233Z" fill="white"/>
</svg>
