<svg width="70" height="70" viewBox="0 0 70 70" fill="none" xmlns="http://www.w3.org/2000/svg">
<path d="M7.83213 52.3434L8.16657 51.1425L7.55139 50.0582C4.95188 45.4764 3.46657 40.1792 3.46657 34.526C3.46657 17.1147 17.5812 3 34.9925 3C52.4039 3 66.5185 17.1147 66.5185 34.526C66.5185 51.9373 52.4039 66.0519 34.9925 66.0519C29.3076 66.0519 23.9826 64.5499 19.3831 61.9231L18.3142 61.3127L17.1246 61.6289L4.29668 65.0389L7.83213 52.3434Z" stroke="white" stroke-width="6"/>
<path fill-rule="evenodd" clip-rule="evenodd" d="M28.2477 20.5379C27.654 19.1984 27.0292 19.1713 26.4652 19.1481L24.9469 19.1292C24.4187 19.1292 23.5604 19.3305 22.8349 20.1358C22.1093 20.941 20.0624 22.8871 20.0624 26.8454C20.0624 30.8037 22.9008 34.6285 23.2963 35.1659C23.6919 35.7033 28.7759 44.0851 36.8272 47.3099C43.5179 49.9899 44.8793 49.4569 46.3322 49.3229C47.785 49.189 51.0185 47.3768 51.6782 45.4981C52.3378 43.6194 52.3382 42.0098 52.1405 41.6733C51.9427 41.3368 51.4145 41.1368 50.6217 40.7342C49.8289 40.3316 45.9354 38.3855 45.2094 38.1168C44.4834 37.8481 43.9556 37.7146 43.4269 38.5198C42.8983 39.325 41.3821 41.1364 40.9198 41.6733C40.4575 42.2103 39.9961 42.2777 39.2033 41.8755C38.4106 41.4733 35.8599 40.6235 32.8336 37.8826C30.479 35.7501 28.8896 33.1165 28.4269 32.3117C27.9642 31.5069 28.3778 31.0711 28.775 30.6702C29.1305 30.3096 29.5669 29.7306 29.9637 29.2611C30.3606 28.7915 30.4911 28.4558 30.7548 27.9197C31.0185 27.3837 30.8871 26.9128 30.6889 26.5106C30.4907 26.1084 28.9517 22.1291 28.2477 20.5379Z" fill="white"/>
</svg>
