<svg width="100%" height="100%" viewBox="0 0 149 149" fill="none" xmlns="http://www.w3.org/2000/svg">
  <path
    d="M15.4092 111.805L15.9666 109.803L14.9413 107.996C9.25085 97.9663 6 86.3704 6 74C6 35.8924 36.8924 5 75 5C113.108 5 144 35.8924 144 74C144 112.108 113.108 143 75 143C62.5602 143 50.9034 139.713 40.8348 133.962L39.0534 132.945L37.0707 133.472L7.16113 141.423L15.4092 111.805Z"
    fill="white" stroke="white" stroke-width="10"></path>
  <path fill-rule="evenodd" clip-rule="evenodd"
    d="M60.5436 44.0193C59.2711 41.1482 57.9321 41.09 56.7233 41.0403L53.4691 41C52.337 41 50.4975 41.4315 48.9424 43.1573C47.3873 44.8832 43 49.0543 43 57.5381C43 66.022 49.0837 74.2197 49.9314 75.3716C50.7791 76.5234 61.6758 94.4881 78.9322 101.4C93.2724 107.144 96.1905 106.002 99.3044 105.715C102.418 105.428 109.349 101.543 110.763 97.5168C112.176 93.4901 112.177 90.0403 111.753 89.319C111.33 88.5977 110.197 88.1691 108.498 87.3062C106.799 86.4432 98.4539 82.2721 96.8979 81.6962C95.3419 81.1203 94.2107 80.8342 93.0776 82.5601C91.9445 84.2859 88.6949 88.1682 87.7041 89.319C86.7132 90.4699 85.7242 90.6144 84.025 89.7524C82.3259 88.8904 76.8591 87.0689 70.3728 81.1944C65.3262 76.6237 61.9196 70.9791 60.9278 69.2542C59.936 67.5293 60.8225 66.5951 61.6739 65.7359C62.4358 64.963 63.3712 63.7221 64.2217 62.7157C65.0722 61.7092 65.352 60.9898 65.9172 59.8408C66.4823 58.6918 66.2007 57.6826 65.7759 56.8206C65.3511 55.9586 62.0526 47.4297 60.5436 44.0193Z"
    fill="#24A590"></path>
</svg>