<svg width="100%" height="100%" viewbox="0 0 284 317" fill="none" xmlns="http://www.w3.org/2000/svg">
  <path class="finger-path" id="path_11" d="M201.074 197.778H191.574C178.373 260.178 209.741 262.444 227.074 255.778L238.074 235.278L243.574 224.278L246.074 216.278L249.574 205.778L252.574 198.778L254.074 196.278L254.574 194.778L256.074 193.278L257.074 191.278L259.074 188.278L261.574 183.778L266.074 171.278L272.574 159.778L280.574 151.278C280.907 150.444 281.674 147.778 282.074 143.778C282.574 138.778 275.074 137.778 273.074 137.278C271.074 136.778 269.074 136.778 259.574 138.778C250.074 140.778 237.574 153.778 236.074 156.278C234.574 158.778 221.574 180.278 215.574 187.778C209.574 195.278 203.074 197.778 201.074 197.778Z" fill="url(#paint0_linear_710_642)"></path>
  <path class="finger-path" id="path_12" d="M165.098 106.5C165.098 110.5 167.764 132.833 169.098 143.5C158.698 170.7 139.098 160.5 130.598 152L129.598 137.5C129.431 132.5 129.098 121.6 129.098 118C129.098 114.4 128.431 102.833 128.098 97.5C127.598 90.8333 126.498 76.9 126.098 74.5C125.598 71.5 125.098 58 123.098 49C121.098 40 120.598 23 121.098 21C121.598 19 124.598 12.4998 130.598 11.9998C136.598 11.4998 144.098 17.9998 147.598 24.4998C151.098 30.9998 157.598 55.9998 159.598 64.9998C161.598 73.9998 165.098 101.5 165.098 106.5Z" fill="url(#paint1_linear_710_642)"></path>
  <path class="finger-path" id="path_13" d="M118.598 111.5C118.998 113.1 121.431 125.5 122.598 131.5C117.398 157.1 99.7643 156.167 91.5977 152.5L88.5977 134.5L83.0977 110.5L77.5977 88L75.5977 69L70.0977 40.5L65.5977 10.5L67.5977 5.50001C68.5977 3.50001 72.8977 9.29832e-06 82.0977 2.00001C91.2977 4.00001 97.2643 21.5 99.0977 30C102.431 41.5 109.598 66.2 111.598 73C114.098 81.5 118.098 109.5 118.598 111.5Z" fill="url(#paint2_linear_710_642)"></path>
  <path class="finger-path" id="path_14" d="M84.0977 125.5L89.5977 149.5C86.7977 170.7 69.0977 169.667 60.5977 166.5L53.5977 142.5L45.5977 118L41.0977 93L32.5977 66.4999C30.431 54.1666 29.0977 29.5999 41.0977 29.9999C53.0977 30.3999 58.431 46.8333 59.5977 54.9999L69.5977 81.4999L77.0977 104L84.0977 125.5Z" fill="url(#paint3_linear_710_642)"></path>
  <path class="finger-path" id="path_15" d="M53.5977 157.5C57.1977 165.1 59.7643 166.667 60.5977 166.5C60.5977 206.5 47.5977 212.5 41.0977 210.5L33.5977 183L27.5977 167L18.5977 149.5C16.5977 144.667 12.3977 134.1 11.5977 130.5C10.3977 128.5 7.43099 121.667 6.09766 118.5L1.59766 99.5C0.264324 95.8333 -0.202343 87.6 8.59766 84C17.3977 80.4 25.5977 95.5 28.5977 103.5C35.431 118.333 49.9977 149.9 53.5977 157.5Z" fill="url(#paint4_linear_710_642)"></path>
  <path class="no-touch" fill-rule="evenodd" clip-rule="evenodd" d="M282.189 147.907C282.208 148.232 282.858 148.193 282.839 147.868C282.867 147.332 282.914 146.802 282.961 146.28C283.216 143.419 283.448 140.811 280.414 139.007C277.026 136.926 272.813 136.331 268.819 136.113C259.457 135.631 250 142.268 243.159 147.9C235.076 154.586 229.73 163.391 224.856 172.43C222.149 177.356 219.37 182.157 215.775 186.419C212.233 190.483 205.184 198.085 199.054 197.082C198.656 196.976 198.404 197.121 198.278 197.194C198.2 197.239 198.142 197.208 198.062 197.165C198.013 197.139 197.956 197.108 197.88 197.088C197.681 197.034 197.555 197.107 197.428 197.18C197.157 197.001 196.686 196.768 196.487 196.714C196.397 196.69 196.289 196.65 196.171 196.607C195.766 196.458 195.232 196.261 194.841 196.487C193.99 195.621 193.134 194.774 192.285 193.933C190.291 191.959 188.335 190.022 186.564 187.977C186.418 187.725 186.292 187.797 186.166 187.87C185.484 186.688 184.722 185.51 183.951 184.319L183.95 184.318C183.157 183.093 182.354 181.851 181.616 180.573C179.047 175.832 177.182 170.853 175.894 165.709C175.44 163.955 174.977 162.195 174.512 160.429C172.455 152.621 170.371 144.708 168.935 136.757C167.189 127.11 166.553 117.413 165.917 107.716C165.237 97.3572 164.558 86.9992 162.524 76.7049C162.063 74.4171 161.61 72.117 161.156 69.8101L161.156 69.8074L161.154 69.8016C158.587 56.7652 155.977 43.5107 151.623 31.0202C148.33 21.8195 141.94 11.0426 130.865 11.381C130.865 11.381 130.739 11.4538 130.685 11.6528C123.896 12.713 121.029 18.2369 120.299 24.5463C120.158 24.5085 120.153 24.5613 120.144 24.6659C120.14 24.7087 120.135 24.7603 120.119 24.8181C120.087 24.9407 120.102 25.0357 120.123 25.1666C120.136 25.2481 120.151 25.3436 120.158 25.4685C120.11 26.8419 120.135 28.3416 120.16 29.8412C120.532 36.5861 121.746 43.1953 122.96 49.7977C124.122 56.1217 125.283 62.4394 125.7 68.8642C125.844 71.2564 125.957 73.6284 126.07 75.9884C126.294 80.6858 126.516 85.3351 126.969 89.9995C127.081 91.0748 127.195 92.1486 127.309 93.2214L127.312 93.244C127.988 99.6055 128.661 105.933 128.767 112.344C128.868 115.74 128.829 119.218 128.789 122.721C128.754 125.869 128.718 129.036 128.783 132.183C125.246 137.421 122.205 128.075 122.001 126.847C121.671 125.692 121.466 124.464 121.262 123.237C120.818 120.89 120.494 118.575 120.163 116.21L120.162 116.208L120.162 116.204C120.065 115.513 119.968 114.819 119.866 114.118C119.528 111.699 119.245 109.296 118.962 106.903L118.962 106.902C118.481 102.827 118.004 98.7848 117.268 94.7588C114.75 81.0735 110.752 67.7381 106.753 54.4028C105.577 50.4579 104.535 46.435 103.491 42.4019C101.345 34.111 99.1875 25.7768 95.8224 17.9877C93.8304 13.0818 91.2224 7.69067 87.1595 4.14913C83.9562 1.19845 81.0076 0.775691 77.1369 0.220718C76.6674 0.153397 76.1842 0.0841256 75.6855 0.00816496C75.4865 -0.0451569 75.1075 0.173379 75.3795 0.352853C75.5154 0.442598 75.6647 0.482584 75.814 0.522569C75.9632 0.562555 76.1124 0.602541 76.2484 0.692277C73.0305 0.363283 69.4395 1.42731 67.3734 3.9662C63.9575 7.95664 64.3965 13.0864 65.5385 17.978C66.5551 22.3909 67.2399 26.8717 67.9232 31.3423C68.3662 34.2414 68.8086 37.1363 69.3405 40.0056C70.6915 47.2995 72.2425 54.6468 73.7935 61.9941C74.9757 67.9361 75.5416 73.8183 76.107 79.6945L76.1073 79.6973C76.3457 82.1754 76.584 84.6528 76.8685 87.1327C77.5689 92.7467 79.0449 98.2316 80.5166 103.7C80.8959 105.11 81.275 106.518 81.6404 107.928C83.6624 115.508 85.5575 123.161 87.1274 130.833L87.1549 130.98C87.6268 133.513 88.0982 136.043 88.4984 138.452C88.4619 138.389 88.4122 138.375 88.3624 138.362C88.3127 138.349 88.2629 138.336 88.2264 138.273C88.1901 138.21 88.1222 138.165 88.0545 138.12C87.9865 138.075 87.9185 138.03 87.8824 137.967C86.1465 129.717 83.8344 121.632 80.9974 113.514C79.0163 107.748 77.067 101.963 75.1178 96.1793L75.1122 96.1628C73.1721 90.4054 71.2319 84.6482 69.2604 78.909C68.078 75.6047 66.8375 72.285 65.5901 68.9468C64.5219 66.0881 63.4487 63.2159 62.4025 60.3282C61.5855 58.0293 60.8633 55.6758 60.1377 53.3106C59.189 50.2187 58.2342 47.1069 57.0535 44.0716L56.9387 43.7762C55.578 40.2734 54.0263 36.279 51.0804 33.7265C49.3574 32.1983 47.5275 31.0681 45.5715 30.0107C44.7147 29.5554 43.7152 29.4338 42.7373 29.3148C42.3297 29.2652 41.9258 29.216 41.5374 29.1433C41.5914 28.9443 41.2465 28.6386 40.8674 28.8572L40.6154 29.0028C40.5394 28.9824 40.4741 28.9805 40.4182 28.9788C40.3279 28.9761 40.2626 28.9742 40.2175 28.8962C39.7465 28.6634 39.5135 29.1342 39.6595 29.3865C34.9724 31.7564 31.6045 34.3734 30.4374 39.9258C29.2694 45.4783 29.8585 52.0348 30.5884 57.6692C31.7359 66.584 34.3177 75.1318 36.9015 83.6861C38.4474 88.8039 39.9939 93.9241 41.2344 99.1266C42.1098 102.829 42.7277 106.595 43.3456 110.362C43.963 114.125 44.5803 117.888 45.4545 121.587C46.6946 127.143 48.7552 132.407 50.81 137.657L50.8108 137.659C51.5658 139.587 52.32 141.514 53.0325 143.453C55.6125 150.542 57.8665 157.652 59.4164 164.999L59.4894 165.125C57.0516 164.015 56.0366 161.23 55.0945 158.645C54.7142 157.602 54.3458 156.591 53.9004 155.736C52.1519 152.515 50.6566 149.221 49.1526 145.909L49.15 145.903C48.3824 144.212 47.6124 142.517 46.8054 140.824C45.4149 137.89 43.9901 134.977 42.5654 132.063C39.2434 125.269 35.9214 118.476 33.0325 111.433C32.8554 111.013 32.6785 110.593 32.5015 110.172C29.4827 103 26.4186 95.7205 21.7314 89.5285C19.9494 87.0248 17.7694 84.4145 14.6394 83.3623C13.5001 82.8992 12.2548 83.0506 11.0252 83.2C10.5941 83.2524 10.1645 83.3046 9.74246 83.3299C9.92144 83.0581 9.45047 82.8253 9.32446 82.8981C9.03601 82.9807 8.77881 83.0451 8.5216 83.1095C8.26428 83.1739 8.00699 83.2383 7.71844 83.3209C7.52877 83.1957 7.31332 83.1673 7.13281 83.1435C7.05447 83.1332 6.98269 83.1237 6.92245 83.1076C6.72345 83.0543 6.54345 83.3261 6.68945 83.5784C3.09845 84.6424 0.721432 86.3516 0.145443 90.8895C-0.417484 94.8116 0.784359 99.5797 1.86877 103.882C2.20413 105.212 2.52826 106.498 2.78546 107.701C4.11746 114.669 5.75546 121.293 9.07245 127.621C9.60144 128.829 10.3634 129.567 11.1794 130.105C12.8461 139.435 17.1602 147.967 21.4176 156.387L21.4182 156.388C22.936 159.39 24.4466 162.378 25.8274 165.383C28.9845 172.308 31.8894 179.378 33.8375 186.832C34.5138 189.401 35.15 191.995 35.7861 194.589C36.7401 198.478 37.6943 202.369 38.7845 206.18C41.4631 215.287 44.4306 224.376 47.3982 233.466C48.882 238.011 50.3657 242.556 51.8134 247.103C55.6804 259.337 59.9464 271.677 66.6085 282.634C67.7547 284.523 68.9365 286.411 70.1239 288.307C72.5372 292.162 74.974 296.054 77.1844 300.078C80.1013 305.388 81.5639 311.143 82.7709 317H85.1123C85.0535 316.709 84.9942 316.417 84.9344 316.125C83.6815 310.457 82.3004 304.861 79.3145 299.689C77.3087 296.02 75.0783 292.481 72.8481 288.943L72.8466 288.94C71.735 287.176 70.6233 285.413 69.5394 283.633C62.0764 271.288 57.2094 257.614 52.9924 243.9C51.2904 238.382 49.3844 232.921 47.4796 227.464C44.8495 219.93 42.2212 212.4 40.1334 204.729C39.5265 202.541 38.9366 200.359 38.3484 198.182C35.4666 187.518 32.625 177.003 28.0024 166.819C26.4586 163.487 24.7926 160.199 23.1266 156.911L23.1255 156.909C18.8857 148.54 14.645 140.171 12.4124 131.075C13.6064 131.395 14.9065 131.317 16.5135 130.895C16.9644 130.802 16.4744 130.244 16.1484 130.264C12.5184 130.677 10.8824 128.426 9.45944 125.379C8.56643 123.54 7.79843 121.628 7.23043 119.769C5.54443 114.518 4.56244 109.03 3.58044 103.541C3.42071 102.636 3.22152 101.706 3.01928 100.761C2.4707 98.198 1.89972 95.5306 2.03344 92.9952C2.12045 92.272 2.20746 91.5488 2.36746 90.9518C3.13455 90.7598 3.7099 90.398 4.31891 90.015C4.52685 89.8842 4.73871 89.751 4.96344 89.6212C5.99508 89.0259 7.10263 88.8028 8.31155 88.5593L8.44961 88.5315C8.50769 88.5197 8.56601 88.5079 8.62457 88.496L8.68145 88.4844C9.5943 88.3177 10.5179 88.3302 11.4417 88.3427C12.6734 88.3593 13.9051 88.376 15.1114 87.9679C14.9564 89.7394 15.2534 91.4185 15.7484 93.1509C16.7404 96.6158 17.3665 99.4496 16.5334 102.959C16.4086 103.031 16.4791 103.155 16.5504 103.281L16.5525 103.285C14.6655 105.552 12.2155 107.135 9.17645 106.534C8.77945 106.427 8.79846 106.752 8.94446 107.005C6.54751 105.533 5.32812 102.456 4.19409 99.594C3.72473 98.4096 3.26999 97.2621 2.75244 96.2806C2.60745 96.0282 2.28247 96.0478 2.42746 96.3001C2.66262 96.9384 2.89022 97.615 3.12356 98.3086C4.36074 101.986 5.75976 106.145 9.30844 107.635C9.55984 107.801 9.66937 107.473 9.52737 107.381C13.1355 108.946 16.8008 105.151 17.9745 101.959C18.1005 101.886 18.0275 101.76 17.8285 101.707C18.3154 99.2813 17.562 96.8287 16.8065 94.3696C16.0804 92.0057 15.3524 89.6359 15.7224 87.2785C15.7754 87.0795 15.1064 86.7934 15.1255 87.1186L15.1985 87.2447C13.907 87.4308 12.6895 87.3416 11.4115 87.248C11.1526 87.229 10.8914 87.2099 10.6264 87.1928C9.71197 87.1041 8.77926 87.2973 7.86255 87.4872C7.52917 87.5562 7.19793 87.6248 6.87045 87.6793C5.4743 87.9259 4.41696 88.5584 3.30227 89.2251C3.07644 89.3602 2.84826 89.4967 2.61444 89.6317C3.22043 87.7679 4.51645 86.5153 6.73346 85.4032C7.11245 85.1847 7.61746 84.8934 7.99545 84.6748C9.1181 84.9017 10.218 84.8787 11.2992 84.8562C13.3356 84.8136 15.3056 84.7725 17.2364 86.4045C20.6834 89.4609 23.3585 93.8037 25.5634 97.9136C28.1163 102.816 30.2285 107.922 32.3424 113.032C34.0766 117.224 35.8119 121.418 37.7924 125.506C39.2397 128.541 40.6521 131.597 42.0628 134.649C45.3107 141.676 48.5495 148.683 52.1824 155.382C52.7508 156.444 53.2401 157.659 53.7407 158.902C55.118 162.322 56.5801 165.952 60.0045 167.183C61.1129 173.576 61.3512 179.737 61.5973 186.098C61.6396 187.192 61.6822 188.292 61.7294 189.4C61.7684 190.05 62.7975 189.793 62.8314 189.269C64.8845 175.635 60.7884 160.674 56.4315 147.883C55.3982 144.746 54.1877 141.676 52.9764 138.604L52.9759 138.603C51.5672 135.03 50.1573 131.454 49.0234 127.768C47.3899 122.454 46.537 117.093 45.6746 111.673C45.4241 110.099 45.1728 108.519 44.9014 106.935C43.5727 99.2918 41.3526 91.9036 39.1327 84.5158C37.3564 78.6046 35.5801 72.6931 34.2604 66.6513C32.6754 59.8282 32.1394 53.0726 32.1085 46.0258C32.0984 45.8632 32.107 45.7321 32.1155 45.6011C32.124 45.4701 32.1324 45.339 32.1224 45.1765C32.1324 45.339 32.1919 45.5149 32.2514 45.6908C32.3109 45.8667 32.3704 46.0427 32.3804 46.2053L32.478 46.6051C33.3207 50.0633 34.3188 54.1587 36.8004 56.7742C37.1444 57.0798 37.4304 56.41 37.2855 56.1576L37.2125 56.0315C40.7744 56.6661 45.3464 56.718 48.4474 55.0961C50.2864 54.2025 52.7564 52.9447 52.7454 50.5957C52.7264 50.2706 52.4015 50.2901 52.2744 50.3629C52.4558 48.8609 52.3602 47.438 52.2629 45.9912L52.2628 45.9898C52.2196 45.3475 52.1761 44.7002 52.1564 44.0393C52.2184 41.8165 52.1555 39.6665 51.5674 37.4827C51.5475 37.1576 51.0963 37.2502 51.1154 37.5754C51.085 37.6896 51.072 37.7382 51.0804 37.7828C51.0865 37.8158 51.1045 37.8467 51.1354 37.9003C46.1945 36.0431 37.7824 34.0025 33.1204 37.872C33.1469 37.7727 33.2052 37.6548 33.2633 37.5374C33.3215 37.4197 33.3799 37.3017 33.4064 37.2022C34.674 34.4164 36.8455 33.0037 39.164 31.4954C39.6935 31.1509 40.2306 30.8015 40.7664 30.4296C41.6961 30.8526 42.6249 31.0805 43.5514 31.3079C44.898 31.6383 46.2397 31.9675 47.5715 32.8929C50.0905 34.6344 51.9794 36.7401 53.4554 39.5884C55.1169 42.8622 56.186 46.3227 57.2696 49.8304C57.7793 51.4802 58.2922 53.1404 58.8715 54.7967C60.3369 59.1657 61.9258 63.4929 63.5162 67.8241L63.5172 67.8268C65.7225 73.8328 67.9307 79.8465 69.8165 85.9897C71.7296 92.2237 73.9752 98.325 76.2278 104.446L76.2287 104.448C77.7966 108.708 79.3681 112.978 80.8334 117.309C84.4764 127.99 86.7465 138.623 88.8365 149.527C89.0024 150.105 90.1964 150.425 90.0844 149.648C89.5634 146.416 88.9174 143.257 88.2704 140.098C88.4695 140.151 88.6685 140.204 88.7955 140.131C88.9997 141.358 89.196 142.591 89.3922 143.823L89.393 143.828C89.9816 147.524 90.5703 151.219 91.3724 154.792C91.3914 155.117 92.3134 155.258 92.2214 154.806C92.0005 142.188 88.5396 129.057 85.2946 116.746L85.2885 116.724C84.9809 115.557 84.6752 114.397 84.3745 113.246C83.7666 110.87 83.0616 108.479 82.3534 106.077C80.877 101.071 79.386 96.014 78.7285 90.9371C78.281 87.8316 78.0907 84.6616 77.9005 81.4917L77.9004 81.4906C77.7102 78.3203 77.5199 75.1499 77.0724 72.044C76.1215 65.4439 74.7507 58.918 73.3799 52.3921C72.0092 45.8662 70.6384 39.3402 69.6874 32.7402C69.5145 31.6655 69.3556 30.5828 69.1966 29.5C68.8775 27.3264 68.5583 25.1527 68.1265 23.044C67.9637 22.319 67.7756 21.5766 67.5851 20.8244C67.1494 19.1048 66.6996 17.3292 66.5034 15.5705C67.3925 20.6079 69.5835 25.5672 73.8405 27.9876C79.2385 30.9269 86.4485 27.1002 88.1945 21.3826C88.2474 21.1836 88.0284 20.8051 87.8495 21.0769C87.7333 21.3116 87.599 21.515 87.4648 21.7182C87.3298 21.9227 87.1948 22.1271 87.0784 22.3633C87.9454 18.33 87.9585 13.1079 86.8215 9.3907C87.0204 9.44399 87.3994 9.2255 87.1274 9.046C81.2975 6.52422 72.8134 4.35755 67.2285 8.08662C68.9455 4.0676 72.9095 1.6106 78.0054 1.69631L78.1315 1.62348C79.9764 1.90437 81.8204 2.1853 83.4514 3.26219C86.4414 5.2365 88.5685 8.04582 90.4424 11.0008C94.5354 17.2165 96.8824 24.777 98.8115 31.9058C100.481 37.9005 102.205 43.892 103.931 49.8879L103.931 49.8905L103.934 49.898C106.42 58.5376 108.909 67.1862 111.24 75.8671C113.188 83.321 114.884 90.9206 116.129 98.6126C116.495 101.218 116.813 103.852 117.132 106.492L117.132 106.496L117.132 106.497C117.707 111.266 118.285 116.058 119.155 120.752C119.231 121.249 119.303 121.821 119.382 122.441L119.382 122.444L119.382 122.446C119.865 126.264 120.582 131.933 123.711 133.597C125.595 134.529 127.187 134.955 128.628 133.955C128.674 140.153 129.171 146.258 130.57 152.178C130.662 152.63 131.259 152.789 131.22 152.139C130.367 139.007 129.785 126.054 129.582 112.882C129.474 106.721 128.909 100.571 128.344 94.4207C127.779 88.2706 127.214 82.1203 127.105 75.9591C127.009 66.7926 125.448 57.8696 123.878 48.8925C123.414 46.244 122.95 43.5908 122.522 40.9252C122.456 40.542 122.389 40.1566 122.321 39.7693L122.318 39.7505C121.874 37.2054 121.414 34.5763 121.199 31.9326C121.602 33.2137 122.384 34.2763 123.398 34.8681L123.544 35.1204C129.286 38.3654 139.498 38.862 142.247 31.3872C142.3 31.1882 141.956 30.8825 141.902 31.0815C141.383 32.2222 140.719 33.1105 139.909 33.7466C142.077 29.6352 141.532 24.9035 140.482 20.4631C140.661 20.1913 140.695 19.6671 140.423 19.4876C136.385 17.4457 130.502 15.1229 125.848 16.9686C125.018 17.2795 124.063 17.6632 123.126 18.3721C125.028 15.2557 128.022 14.0317 131.918 12.6231C144.581 15.9095 149.385 27.4343 152.582 39.3819C156.882 55.5709 161.149 72.284 163.12 88.8086C163.825 94.6156 164.052 100.451 164.28 106.301C164.428 110.112 164.577 113.928 164.857 117.748C165.457 126.654 166.76 135.321 168.714 143.949L169.025 145.33C170.972 153.979 172.976 162.884 175.774 171.329C177.847 177.388 181.15 182.638 184.513 187.983C185.516 189.577 186.524 191.18 187.507 192.815C188.017 193.698 188.808 192.737 188.443 192.106C188.133 191.277 187.768 190.646 187.404 190.015C188.962 191.787 190.66 193.443 192.366 195.107C194.421 197.111 196.487 199.125 198.332 201.368C199.874 203.331 201.521 205.274 203.18 207.229L203.182 207.231C204.945 209.31 206.721 211.404 208.397 213.556C208.742 213.862 209.174 213.444 208.955 213.066C205.554 207.174 200.731 202.271 195.97 197.498C196.064 197.56 196.202 197.598 196.341 197.635L196.346 197.637C196.456 197.666 196.577 197.714 196.702 197.765C197.032 197.897 197.392 198.041 197.666 197.884C197.793 197.811 197.865 197.937 197.865 197.937C197.885 198.261 198.083 198.314 198.48 198.421L198.482 198.422C198.545 198.385 198.595 198.398 198.645 198.412C198.694 198.425 198.744 198.439 198.807 198.403C199.274 198.62 199.748 198.849 200.227 199.08C201.4 199.646 202.607 200.229 203.841 200.711C205.578 201.39 207.316 202.069 209.155 201.175C209.281 201.103 209.136 200.85 209.009 200.923C207.438 201.534 204.948 200.329 203.275 199.52C203.047 199.41 202.835 199.307 202.641 199.217C202.208 199.101 201.803 198.88 201.434 198.678C201.294 198.602 201.159 198.529 201.03 198.465C207.315 197.696 213.719 191.307 217.241 186.919C221.297 182.123 224.269 176.738 227.255 171.328C228.979 168.204 230.707 165.072 232.651 162.041C238.574 153.071 246.672 145.536 256.299 140.65C261.87 137.771 267.358 136.788 273.561 137.917L273.727 137.946C276.144 138.382 279.202 138.933 280.73 141.011C281.803 142.579 281.901 144.204 281.999 145.83C281.732 146.825 281.519 147.621 281.179 148.49C278.292 149.316 275.438 149.618 272.386 149.866C271.781 149.902 271.136 149.897 270.475 149.891C269.003 149.88 267.451 149.867 266.082 150.31C263.194 151.136 260.079 153.607 259.352 156.718C258.165 161.946 264.266 164.647 268.978 163.777C268.28 165.189 267.582 166.602 266.956 168.14C266.23 169.897 265.599 171.681 264.97 173.458C264.019 176.146 263.072 178.82 261.811 181.372C261.646 181.691 261.482 182.018 261.316 182.349L261.314 182.352L261.313 182.354C260.36 184.249 259.351 186.256 257.882 187.677C255.748 189.83 253.061 189.082 250.49 188.367C250.243 188.299 249.997 188.23 249.753 188.165C249.355 188.059 249.52 188.636 249.719 188.69C252.995 189.994 255.961 190.469 258.843 188.468C258.396 189.347 257.732 190.039 256.939 190.563C256.904 190.567 256.868 190.588 256.832 190.632C254.841 191.894 252.083 192.127 249.895 191.616C249.371 191.582 249.41 192.233 249.808 192.339C251.525 193.057 253.611 193.05 255.397 192.38C253.76 193.867 251.737 194.248 249.186 194.052C248.861 194.072 248.9 194.722 249.298 194.829C251.414 195.289 253.219 194.92 254.66 193.92C253.86 196.905 250.541 198.148 247.814 198.377C247.164 198.416 247.528 199.047 247.926 199.154C249.518 199.58 251.051 199.031 252.366 198.104C248.961 204.443 247.075 211.083 245.136 217.922C243.37 224.161 239.982 229.882 236.637 235.531L236.628 235.547C236.203 236.264 235.779 236.981 235.359 237.697C232.135 243.158 229.37 248.892 226.605 254.622C223.171 261.741 219.739 268.855 215.434 275.442C214.692 276.544 213.947 277.642 213.203 278.74C209.862 283.668 206.532 288.58 203.481 293.781C203.236 294.201 202.987 294.624 202.736 295.049C200.566 298.729 198.283 302.601 197.54 306.8C197.165 309.051 196.99 311.356 196.822 313.586L196.822 313.589C196.753 314.492 196.686 315.384 196.607 316.254C196.581 316.468 196.54 316.72 196.492 317H198.03C198.102 316.268 198.191 315.525 198.28 314.783C198.389 313.879 198.498 312.975 198.576 312.089C199.045 307.949 199.68 304.387 201.542 300.62C204.477 294.825 208.017 289.451 211.561 284.068C214.853 279.071 218.148 274.067 220.969 268.714C223.836 263.334 226.562 257.894 229.283 252.461L229.285 252.457C232.464 246.112 235.637 239.776 239.026 233.561C241.839 228.236 244.58 222.785 246.252 216.941C246.404 216.407 246.555 215.873 246.706 215.339L246.713 215.314C248.388 209.4 250.077 203.43 252.618 197.958L252.546 197.832C253.788 196.778 254.612 195.293 254.84 193.648C255.52 193.132 256.124 192.484 256.63 191.778C257.951 190.964 258.958 189.71 259.275 188.051C262.171 185.566 263.713 180.925 265.023 176.981C265.341 176.022 265.646 175.105 265.953 174.27C267.292 170.47 268.955 166.65 271.036 163.262L271.667 162.897C272.045 162.679 271.9 162.427 271.574 162.446C273.01 160.271 274.718 158.276 276.571 156.533C276.887 156.243 277.204 155.961 277.517 155.683C279.166 154.216 280.724 152.831 281.641 150.747C282.021 150.062 282.08 149.563 282.155 148.923C282.161 148.869 282.167 148.813 282.174 148.757C282.427 148.611 282.354 148.485 282.155 148.431C282.178 148.071 282.176 147.804 282.166 147.568L282.169 147.582C282.192 147.694 282.215 147.807 282.189 147.907ZM260.798 156.893C262.389 152.946 265.344 151.072 269.644 150.945L270.119 150.924C273.752 150.771 277.541 150.611 280.893 149.16C280.321 150.499 279.676 151.713 278.434 152.767C277.89 153.258 277.321 153.743 276.748 154.231C275.692 155.132 274.621 156.045 273.664 157.034C272.136 158.757 270.807 160.534 269.623 162.563C265.668 162.996 258.636 162.178 260.798 156.893ZM32.0735 42.1772C32.0684 41.0027 32.1354 39.9544 32.4025 38.9594C32.5284 38.8865 32.5285 38.8867 32.6014 39.0127C38.2924 34.8857 44.8934 36.1211 51.0095 37.9731C51.2686 39.3926 51.2388 40.8295 51.209 42.2664C51.194 42.986 51.1791 43.7056 51.2004 44.423C51.2308 44.9281 51.2674 45.4298 51.3038 45.9296C51.4316 47.6816 51.5577 49.412 51.4114 51.198L51.5574 51.4503C50.2815 53.028 47.6125 54.2325 45.8074 54.6019C42.7734 55.1755 39.9004 55.1522 36.8824 54.8765C35.6244 52.4066 34.4925 49.8639 33.6135 47.1755C33.4978 46.8079 33.3521 46.3884 33.1944 45.9343L33.1939 45.9327C32.8021 44.8047 32.3365 43.4639 32.0735 42.1772ZM66.6425 10.2756L66.4965 10.0233C66.6035 9.6253 66.6564 9.42629 66.6364 9.1011C72.3214 5.16988 78.9572 6.95571 85.1373 8.6189C85.3613 8.67919 85.5847 8.73931 85.8074 8.799C85.8841 9.33204 85.9675 9.8615 86.0505 10.3889C86.3303 12.1661 86.6068 13.9226 86.6144 15.7339C86.6775 17.591 86.4039 19.358 86.1302 21.1251C86.0392 21.7132 85.9481 22.3013 85.8694 22.8927L86.0154 23.145C82.6004 27.1354 76.5924 29.2582 72.1844 25.411C67.9024 21.491 66.7215 15.949 66.6425 10.2756ZM122.054 21.1776C122.041 20.9503 122.125 20.7491 122.194 20.5806C122.225 20.5081 122.252 20.4414 122.268 20.3816C124.135 17.7894 129.59 17.3314 131.833 17.719C133.526 17.9768 135.139 18.5329 136.775 19.0967C137.812 19.4541 138.858 19.8146 139.938 20.1042C140.016 20.6913 140.1 21.2694 140.182 21.8408L140.183 21.8457C140.738 25.6839 141.251 29.2255 139.617 33.2419C139.564 33.4409 139.583 33.7661 139.782 33.8194C137.91 35.2371 135.401 35.8446 132.926 35.9279C130.666 35.9748 128.728 35.3688 126.742 34.7476C125.807 34.4551 124.86 34.1591 123.864 33.9264C122.379 33.1018 121.592 30.8648 121.203 28.7343C121.047 26.1331 121.288 23.6384 122.054 21.1776Z" fill="#3B3C4D"></path>
  <path d="M209.348 276.919C206.263 282.064 201.673 286.06 197.773 290.667C192.776 296.58 188.25 302.725 184.612 309.535C184.379 310.006 183.816 309.322 183.923 308.924C186.604 302.498 190.718 297.095 195.104 291.871C197.17 289.332 199.237 286.793 201.576 284.434C204.094 281.803 207.029 279.603 209.003 276.613C209.057 276.414 209.401 276.72 209.348 276.919Z" fill="#3B3C4D"></path>
  <path d="M203.005 293.027C199.915 296.998 196.208 300.484 192.084 303.538C191.832 303.683 191.235 303.523 191.613 303.305C195.538 300.198 199.318 296.838 202.481 292.993C202.66 292.721 203.257 292.881 203.005 293.027Z" fill="#3B3C4D"></path>
  <path d="M144.7 66.4646C139.357 67.699 133.931 66.4583 128.753 68.2702C128.302 68.3626 127.865 67.6056 128.243 67.3871C133.363 64.5997 138.881 66.2917 144.535 65.8871C144.734 65.9404 144.953 66.3189 144.7 66.4646Z" fill="#3B3C4D"></path>
  <path d="M136.116 58.2992C135.863 58.4448 135.771 57.9935 135.897 57.9207C138.342 55.1633 143.362 58.3211 145.716 59.4851C146.114 59.5918 145.973 60.5139 145.575 60.4073C143.241 59.5684 138.42 56.4639 136.116 58.2992Z" fill="#3B3C4D"></path>
  <path d="M146.484 57.025C147.838 56.7479 148.979 57.2668 150.246 57.7129C150.644 57.8196 150.829 58.7222 150.232 58.5622C149.038 58.2423 147.897 57.7234 146.669 57.9276C146.145 57.8938 145.96 56.9912 146.484 57.025Z" fill="#3B3C4D"></path>
  <path d="M152.348 103.599C148.984 103.017 145.859 103.14 142.68 103.461C141.452 103.665 140.351 103.797 139.123 104.001C138.347 104.113 137.444 104.298 136.667 104.409C135.91 104.846 135.459 104.939 135.367 104.487C134.915 104.58 134.59 104.599 134.212 104.818C133.887 104.837 133.721 104.26 133.974 104.114C140.219 102.695 146.087 101.494 152.508 103.002C152.707 103.055 152.673 103.579 152.348 103.599Z" fill="#3B3C4D"></path>
  <path d="M151.698 100.44C146.193 97.8985 140.666 98.2304 134.905 99.033C134.255 99.072 133.818 98.315 134.72 98.1303C140.714 96.8569 146.732 97.083 152.202 100.148C152.275 100.275 151.897 100.493 151.698 100.44Z" fill="#3B3C4D"></path>
  <path d="M133.172 107.101C137.317 108.745 141.85 108.146 146.15 108.019C146.475 107.999 146.514 108.65 146.189 108.669C141.981 109.248 137.084 109.216 133.192 107.426C132.993 107.373 133.099 106.975 133.172 107.101Z" fill="#3B3C4D"></path>
  <path d="M155.944 108.083C150.3 110.836 143.157 113.614 137.235 110.641C137.036 110.588 137.07 110.064 137.342 110.243C143.244 112.891 150.115 109.933 155.725 107.704C155.977 107.558 156.269 108.063 155.944 108.083Z" fill="#3B3C4D"></path>
  <path d="M108.409 105.583C101.934 104.275 95.7422 105.495 89.4622 107.439C89.0112 107.531 88.5742 106.774 88.9522 106.555C90.6652 105.735 92.3252 105.113 94.1302 104.743C94.0572 104.617 94.1842 104.544 94.3102 104.472C95.8972 103.724 97.7022 103.354 99.3612 102.732C99.7402 102.514 100.031 103.019 99.6532 103.237C98.7702 103.747 97.7412 104.005 96.7852 104.388C100.667 103.829 104.535 104.119 108.244 105.006C108.821 104.841 108.933 105.617 108.409 105.583Z" fill="#3B3C4D"></path>
  <path d="M93.8062 112.333C97.2182 111.541 100.887 111.778 104.041 109.957C104.293 109.811 104.657 110.442 104.405 110.588C101.397 112.661 97.6012 112.497 94.0442 113.037C93.5932 113.129 93.4812 112.353 93.8062 112.333Z" fill="#3B3C4D"></path>
  <path d="M101.478 115.137C100.901 115.302 100.862 114.652 101.24 114.434C105.21 113.151 109.67 112.426 111.838 108.315C112.017 108.043 112.668 108.004 112.435 108.475C110.485 112.965 105.793 114.16 101.478 115.137Z" fill="#3B3C4D"></path>
  <path d="M104.852 118.067C103.193 118.689 101.494 118.661 99.7228 118.506C99.1988 118.472 99.3588 117.875 99.8828 117.909C101.455 118.01 103.028 118.112 104.488 117.437C104.741 117.291 105.357 117.776 104.852 118.067Z" fill="#3B3C4D"></path>
  <path d="M86.5444 96.8452C85.9664 97.0104 85.9614 95.8359 86.4124 95.7436C88.8684 95.3351 91.4164 95.378 93.7454 95.0424C94.0704 95.0228 94.1094 95.6732 93.8574 95.8188C91.4744 96.3535 88.8734 96.5096 86.5444 96.8452Z" fill="#3B3C4D"></path>
  <path d="M82.1016 48.9448C86.2896 48.0408 89.9776 48.6026 93.9776 49.9942C94.3756 50.1008 94.1626 50.8968 93.8906 50.7174C90.0366 49.5781 86.2416 49.4143 82.2856 49.8475C81.8346 49.9399 81.7766 48.9644 82.1016 48.9448Z" fill="#3B3C4D"></path>
  <path d="M86.6585 54.2194C84.5285 54.6083 82.3985 54.9973 80.2675 55.3862C79.9425 55.4057 79.7775 54.8282 80.1025 54.8087C82.1595 54.2936 84.3635 54.0308 86.4935 53.6419C86.7465 53.4962 87.1105 54.127 86.6585 54.2194Z" fill="#3B3C4D"></path>
  <path d="M78.7147 58.8088C78.3887 58.8283 78.0247 58.1975 78.4757 58.1052C81.9267 57.9633 91.9637 59.9062 93.4087 55.7077C93.4617 55.5087 93.7337 55.6882 93.6807 55.8872C92.9977 60.8232 81.9857 58.9388 78.7147 58.8088Z" fill="#3B3C4D"></path>
  <path d="M49.9997 82.7874C52.3087 82.1266 54.8377 81.8443 57.2937 81.4359C57.7447 81.3435 57.6577 82.0667 57.4047 82.2124C55.0227 82.747 52.6397 83.2816 50.1107 83.5639C49.6597 83.6562 49.5477 82.8798 49.9997 82.7874Z" fill="#3B3C4D"></path>
  <path d="M45.7642 85.0652C46.0892 85.0457 46.3072 85.4242 45.9822 85.4437C45.2062 85.5556 44.4292 85.6675 43.7792 85.7065C43.6532 85.7793 43.5072 85.527 43.6332 85.4542C44.4102 85.3423 45.1862 85.2304 45.7642 85.0652Z" fill="#3B3C4D"></path>
  <path d="M56.2403 84.5655C52.3153 87.6729 47.2923 87.7133 42.6283 87.2101C42.1043 87.1763 41.9193 86.2736 42.6423 86.3607C47.1073 86.8107 51.8783 86.9159 55.6243 84.0804C56.0023 83.8619 56.5463 84.2209 56.2403 84.5655Z" fill="#3B3C4D"></path>
  <path d="M38.3321 84.1399C40.2781 82.8484 42.5541 82.7117 44.6461 81.6725C44.8981 81.5268 45.4421 81.8858 45.0631 82.1043C43.1171 83.3959 40.8411 83.5325 38.8231 84.6979C38.5701 84.8436 38.0271 84.4846 38.3321 84.1399Z" fill="#3B3C4D"></path>
  <path d="M59.4685 127.449C61.9775 126.842 64.6325 126.487 67.1605 126.204C67.4855 126.185 67.5775 126.636 67.2525 126.656C64.7435 127.263 62.2345 127.871 59.5805 128.226C59.2555 128.245 59.0905 127.668 59.4685 127.449Z" fill="#3B3C4D"></path>
  <path d="M55.0471 128.824C55.2991 128.678 55.4251 128.605 55.6971 128.784C55.8961 128.838 55.9161 129.163 55.6631 129.309C54.7271 130.018 53.7171 130.6 52.7081 131.183C52.4561 131.329 51.9851 131.096 52.2911 130.751C53.2271 130.042 54.1101 129.532 55.0471 128.824Z" fill="#3B3C4D"></path>
  <path d="M65.6083 130.8C66.1133 130.509 66.5503 131.266 66.2443 131.61C63.5073 133.863 60.3683 134.835 56.9373 135.302C56.2863 135.341 55.9563 134.186 56.6063 134.147C59.8193 133.301 62.9783 132.655 65.6083 130.8Z" fill="#3B3C4D"></path>
  <path d="M72.5079 130.516C68.7339 135.051 64.6439 137.58 58.8489 138.907C58.5239 138.927 58.5579 138.403 58.8099 138.257C64.2599 136.624 68.4959 134.347 72.2899 130.138C72.5419 129.992 72.6349 130.444 72.5079 130.516Z" fill="#3B3C4D"></path>
  <path d="M63.8037 139.915C64.1817 139.697 64.5467 140.327 64.3667 140.599C63.0517 141.527 61.6447 142.003 60.0917 142.226C59.7667 142.246 59.5287 141.542 59.8537 141.523C61.3337 141.173 62.6147 140.77 63.8037 139.915Z" fill="#3B3C4D"></path>
  <path d="M60.2748 146.327C59.7508 146.293 59.5658 145.391 60.0898 145.425C63.3418 145.229 67.8938 144.956 69.8678 141.966C70.1008 141.495 70.6638 142.179 70.3588 142.524C68.4038 145.839 63.7978 146.312 60.2748 146.327Z" fill="#3B3C4D"></path>
  <path d="M65.6664 119.831C64.9434 119.744 64.1664 119.856 63.3904 119.968C61.7114 120.265 60.1974 121.139 58.8094 121.94C56.4124 123.324 54.2334 125.086 51.9094 126.596C51.4054 126.888 51.2204 125.985 51.5984 125.767C55.5774 122.46 62.5784 116.231 67.9614 120.02C68.0344 120.146 68.0344 120.146 68.1074 120.272C68.0544 120.471 68.0544 120.471 68.0014 120.67C68.0014 120.67 68.0014 120.67 67.8744 120.743C67.7484 120.816 67.6224 120.889 67.4234 120.835C67.2974 120.908 67.3504 120.709 67.3504 120.709C67.1124 120.006 66.5684 119.647 65.6664 119.831Z" fill="#3B3C4D"></path>
  <path d="M32.6835 158.557C30.7035 160.372 28.4185 162.533 27.8705 165.372C27.7645 165.77 27.3665 165.663 27.2735 165.212C26.9525 162.033 30.0675 159.562 32.1735 157.673C32.4785 157.329 32.9885 158.212 32.6835 158.557Z" fill="#3B3C4D"></path>
  <path d="M28.6876 165.911C30.0026 164.984 31.6276 164.886 32.7436 163.905C33.1226 163.687 33.7386 164.172 33.4336 164.516C32.3906 165.623 30.8566 166.172 29.3236 166.721C28.9986 166.741 28.3086 166.129 28.6876 165.911Z" fill="#3B3C4D"></path>
  <path d="M30.1734 171.108C34.7004 169.335 38.3014 166.247 39.7794 161.524C39.8864 161.126 40.5564 161.412 40.4494 161.81C38.9174 166.732 35.3904 169.946 30.5374 171.738C30.3384 171.685 29.8484 171.127 30.1734 171.108Z" fill="#3B3C4D"></path>
  <path d="M31.2604 167.453C30.1974 168.234 28.9894 168.764 27.6354 169.041C27.1844 169.133 27.2184 168.609 27.6694 168.517C28.8244 168.186 29.7804 167.803 30.7164 167.094C31.0224 166.749 31.7654 167.161 31.2604 167.453Z" fill="#3B3C4D"></path>
  <path d="M24.9874 130.367C23.4454 132.939 20.7033 134.018 18.0153 134.897C17.5633 134.989 17.3454 134.611 17.8494 134.32C20.2664 133.261 22.9013 132.58 24.3173 130.081C24.4973 129.809 25.2934 130.022 24.9874 130.367Z" fill="#3B3C4D"></path>
  <path d="M17.0968 131.558C17.2758 131.286 17.9458 131.572 17.7668 131.844C17.4078 132.388 16.7038 132.626 16.1458 133.116C15.8938 133.262 15.3498 132.903 15.6028 132.757C16.0338 132.34 16.6648 131.976 17.0968 131.558Z" fill="#3B3C4D"></path>
  <path d="M16.5928 140.595C16.1228 140.362 16.2628 139.44 16.8068 139.799C17.1508 140.105 17.4768 140.085 18.0008 140.119C18.3258 140.1 18.4908 140.677 18.2388 140.823C17.5878 140.862 17.1368 140.954 16.5928 140.595Z" fill="#3B3C4D"></path>
  <path d="M14.3424 113.971C15.9094 112.898 17.8214 112.131 18.6264 110.32C18.6804 110.121 19.1504 110.354 19.0974 110.553C18.2924 112.364 16.3464 113.655 14.6874 114.277C14.5074 114.549 14.1634 114.243 14.3424 113.971Z" fill="#3B3C4D"></path>
  <defs>
    <lineargradient id="paint0_linear_710_642" x1="184.598" y1="260.5" x2="254.598" y2="268" gradientunits="userSpaceOnUse">
      <stop stop-color="white" stop-opacity="0"></stop>
      <stop offset="1" stop-color="#EECCA1"></stop>
    </lineargradient>
    <lineargradient id="paint1_linear_710_642" x1="125.113" y1="142.63" x2="193.982" y2="103.678" gradientunits="userSpaceOnUse">
      <stop stop-color="white" stop-opacity="0"></stop>
      <stop offset="1" stop-color="#EECCA1"></stop>
    </lineargradient>
    <lineargradient id="paint2_linear_710_642" x1="70.5613" y1="135.428" x2="146" y2="86.2187" gradientunits="userSpaceOnUse">
      <stop stop-color="white" stop-opacity="0"></stop>
      <stop offset="1" stop-color="#EECCA1"></stop>
    </lineargradient>
    <lineargradient id="paint3_linear_710_642" x1="36.2529" y1="151.074" x2="107.473" y2="98.3561" gradientunits="userSpaceOnUse">
      <stop stop-color="white" stop-opacity="0"></stop>
      <stop offset="1" stop-color="#EECCA1"></stop>
    </lineargradient>
    <lineargradient id="paint4_linear_710_642" x1="6.06" y1="195.025" x2="73.3699" y2="139.746" gradientunits="userSpaceOnUse">
      <stop stop-color="white" stop-opacity="0"></stop>
      <stop offset="1" stop-color="#EECCA1"></stop>
    </lineargradient>
  </defs>
</svg>