<svg width="100%" height="100%" viewbox="0 0 284 317" fill="none" xmlns="http://www.w3.org/2000/svg">
  <path class="finger-path" id="path_21"
    d="M83.0239 197.778H92.5239C105.724 260.178 74.3571 262.444 57.0234 255.778L46.0234 235.278L40.5234 224.278L38.0234 216.278L34.5234 205.778L31.5234 198.778L30.0234 196.278L29.5234 194.778L28.0234 193.278L27.0234 191.278L25.0234 188.278L22.5234 183.778L18.0234 171.278L11.5234 159.778L3.52344 151.278C3.19025 150.444 2.42387 147.778 2.02387 143.778C1.52387 138.778 9.02387 137.778 11.0239 137.278C13.0239 136.778 15.0239 136.778 24.5239 138.778C34.0239 140.778 46.5239 153.778 48.0239 156.278C49.5239 158.778 62.5239 180.278 68.5239 187.778C74.5239 195.278 81.0239 197.778 83.0239 197.778Z"
    fill="url(#paint0_linear_712_647)"></path>
  <path class="finger-path" id="path_22"
    d="M118 106.5C118 110.5 115.333 132.833 114 143.5C124.4 170.7 144 160.5 152.5 152L153.5 137.5C153.667 132.5 154 121.6 154 118C154 114.4 154.667 102.833 155 97.5C155.5 90.8333 156.6 76.9 157 74.5C157.5 71.5 158 58 160 49C162 40 162.5 23 162 21C161.5 19 158.5 12.4998 152.5 11.9998C146.5 11.4998 139 17.9998 135.5 24.4998C132 30.9998 125.5 55.9998 123.5 64.9998C121.5 73.9998 118 101.5 118 106.5Z"
    fill="url(#paint1_linear_712_647)"></path>
  <path class="finger-path" id="path_23"
    d="M164.5 111.5C164.1 113.1 161.667 125.5 160.5 131.5C165.7 157.1 183.333 156.167 191.5 152.5L194.5 134.5L200 110.5L205.5 88L207.5 69L213 40.5L217.5 10.5L215.5 5.50001C214.5 3.50001 210.2 9.29832e-06 201 2.00001C191.8 4.00001 185.833 21.5 184 30C180.667 41.5 173.5 66.2 171.5 73C169 81.5 165 109.5 164.5 111.5Z"
    fill="url(#paint2_linear_712_647)"></path>
  <path class="finger-path" id="path_24"
    d="M199 125.5L193.5 149.5C196.3 170.7 214 169.667 222.5 166.5L229.5 142.5L237.5 118L242 93L250.5 66.4999C252.667 54.1666 254 29.5999 242 29.9999C230 30.3999 224.667 46.8333 223.5 54.9999L213.5 81.4999L206 104L199 125.5Z"
    fill="url(#paint3_linear_712_647)"></path>
  <path class="finger-path" id="path_25"
    d="M229.5 157.5C225.9 165.1 223.333 166.667 222.5 166.5C222.5 206.5 235.5 212.5 242 210.5L249.5 183L255.5 167L264.5 149.5C266.5 144.667 270.7 134.1 271.5 130.5C272.7 128.5 275.667 121.667 277 118.5L281.5 99.5C282.833 95.8333 283.3 87.6 274.5 84C265.7 80.4 257.5 95.5 254.5 103.5C247.667 118.333 233.1 149.9 229.5 157.5Z"
    fill="url(#paint4_linear_712_647)"></path>
  <path class="no-touch" fill-rule="evenodd" clip-rule="evenodd"
    d="M0.909058 147.907C0.889542 148.232 0.239243 148.193 0.258759 147.868C0.230476 147.332 0.183223 146.802 0.136749 146.28C-0.118042 143.419 -0.350327 140.811 2.68335 139.007C6.07157 136.926 10.2843 136.331 14.2786 136.113C23.6406 135.631 33.0974 142.268 39.9386 147.9C48.022 154.586 53.3674 163.391 58.242 172.43C60.9485 177.356 63.7278 182.157 67.3227 186.419C70.8643 190.483 77.9135 198.085 84.0435 197.082C84.4415 196.976 84.6938 197.121 84.82 197.194C84.8979 197.239 84.9556 197.208 85.0352 197.165C85.0844 197.139 85.142 197.108 85.218 197.088C85.4169 197.034 85.5432 197.107 85.6693 197.18C85.9411 197.001 86.412 196.768 86.611 196.714C86.7005 196.69 86.8084 196.65 86.9262 196.607C87.3319 196.458 87.8654 196.261 88.2563 196.487C89.1074 195.621 89.9633 194.774 90.8124 193.933C92.8064 191.959 94.7631 190.022 96.5337 187.977C96.6794 187.725 96.8056 187.797 96.9317 187.87C97.614 186.688 98.3758 185.51 99.1469 184.319L99.1475 184.318C99.9402 183.093 100.743 181.851 101.481 180.573C104.05 175.832 105.915 170.853 107.203 165.709C107.658 163.955 108.121 162.195 108.586 160.429C110.643 152.621 112.727 144.708 114.162 136.757C115.909 127.11 116.545 117.413 117.181 107.716C117.86 97.3572 118.54 86.9992 120.573 76.7049C121.034 74.4171 121.487 72.117 121.942 69.8101L121.942 69.8074L121.943 69.8016C124.51 56.7652 127.121 43.5107 131.474 31.0202C134.767 21.8195 141.157 11.0426 152.232 11.381C152.232 11.381 152.358 11.4538 152.412 11.6528C159.201 12.713 162.068 18.2369 162.798 24.5463C162.939 24.5085 162.944 24.5613 162.954 24.6659C162.958 24.7087 162.963 24.7603 162.978 24.8181C163.011 24.9407 162.996 25.0357 162.975 25.1666C162.962 25.2481 162.947 25.3436 162.939 25.4685C162.987 26.8419 162.962 28.3416 162.937 29.8412C162.566 36.5861 161.351 43.1953 160.138 49.7977C158.976 56.1217 157.815 62.4394 157.397 68.8642C157.254 71.2564 157.141 73.6284 157.028 75.9884C156.804 80.6858 156.582 85.3351 156.128 89.9995C156.017 91.0748 155.902 92.1486 155.788 93.2214L155.786 93.244C155.109 99.6055 154.436 105.933 154.33 112.344C154.23 115.74 154.269 119.218 154.308 122.721C154.344 125.869 154.38 129.036 154.314 132.183C157.851 137.421 160.892 128.075 161.096 126.847C161.426 125.692 161.631 124.464 161.835 123.237C162.279 120.89 162.604 118.575 162.935 116.21L162.935 116.208L162.936 116.204C163.033 115.513 163.13 114.819 163.231 114.118C163.569 111.699 163.853 109.296 164.136 106.903L164.136 106.902C164.617 102.827 165.094 98.7848 165.829 94.7588C168.347 81.0735 172.345 67.7381 176.344 54.4028C177.521 50.4579 178.562 46.435 179.606 42.4019C181.753 34.111 183.91 25.7768 187.275 17.9877C189.267 13.0818 191.875 7.69067 195.938 4.14913C199.141 1.19845 202.09 0.775691 205.961 0.220718C206.43 0.153397 206.913 0.0841256 207.412 0.00816496C207.611 -0.0451569 207.99 0.173379 207.718 0.352853C207.582 0.442598 207.433 0.482584 207.284 0.522569C207.134 0.562555 206.985 0.602541 206.849 0.692277C210.067 0.363283 213.658 1.42731 215.724 3.9662C219.14 7.95664 218.701 13.0864 217.559 17.978C216.543 22.3909 215.858 26.8717 215.174 31.3423C214.731 34.2414 214.289 37.1363 213.757 40.0056C212.406 47.2995 210.855 54.6468 209.304 61.9941C208.122 67.9361 207.556 73.8183 206.991 79.6945L206.99 79.6973C206.752 82.1754 206.514 84.6528 206.229 87.1327C205.529 92.7467 204.053 98.2316 202.581 103.7C202.202 105.11 201.823 106.518 201.457 107.928C199.435 115.508 197.54 123.161 195.97 130.833L195.943 130.98C195.471 133.513 194.999 136.043 194.599 138.452C194.636 138.389 194.685 138.375 194.735 138.362C194.785 138.349 194.835 138.336 194.871 138.273C194.908 138.21 194.975 138.165 195.043 138.12C195.111 138.075 195.179 138.03 195.215 137.967C196.951 129.717 199.263 121.632 202.1 113.514C204.081 107.748 206.031 101.963 207.98 96.1793L207.985 96.1628C209.926 90.4054 211.866 84.6482 213.837 78.909C215.02 75.6047 216.26 72.285 217.508 68.9468C218.576 66.0881 219.649 63.2159 220.695 60.3282C221.512 58.0293 222.234 55.6758 222.96 53.3106C223.909 50.2187 224.863 47.1069 226.044 44.0716L226.159 43.7762C227.52 40.2734 229.071 36.279 232.017 33.7265C233.74 32.1983 235.57 31.0681 237.526 30.0107C238.383 29.5554 239.382 29.4338 240.36 29.3148C240.768 29.2652 241.172 29.216 241.56 29.1433C241.506 28.9443 241.851 28.6386 242.23 28.8572L242.482 29.0028C242.558 28.9824 242.624 28.9805 242.679 28.9788C242.77 28.9761 242.835 28.9742 242.88 28.8962C243.351 28.6634 243.584 29.1342 243.438 29.3865C248.125 31.7564 251.493 34.3734 252.66 39.9258C253.828 45.4783 253.239 52.0348 252.509 57.6692C251.362 66.584 248.78 75.1318 246.196 83.6861C244.65 88.8039 243.104 93.9241 241.863 99.1266C240.988 102.829 240.37 106.595 239.752 110.362C239.135 114.125 238.517 117.888 237.643 121.587C236.403 127.143 234.343 132.407 232.288 137.657L232.287 137.659C231.532 139.587 230.778 141.514 230.065 143.453C227.485 150.542 225.231 157.652 223.681 164.999L223.608 165.125C226.046 164.015 227.061 161.23 228.003 158.645C228.383 157.602 228.752 156.591 229.197 155.736C230.946 152.515 232.441 149.221 233.945 145.909L233.948 145.903C234.715 144.212 235.485 142.517 236.292 140.824C237.683 137.89 239.108 134.977 240.532 132.063C243.854 125.269 247.176 118.476 250.065 111.433C250.242 111.013 250.419 110.593 250.596 110.172C253.615 103 256.679 95.7205 261.366 89.5285C263.148 87.0248 265.328 84.4145 268.458 83.3623C269.598 82.8992 270.843 83.0506 272.072 83.2C272.504 83.2524 272.933 83.3046 273.355 83.3299C273.176 83.0581 273.647 82.8253 273.773 82.8981C274.062 82.9807 274.319 83.0451 274.576 83.1095C274.833 83.1739 275.091 83.2383 275.379 83.3209C275.569 83.1957 275.784 83.1673 275.965 83.1435C276.043 83.1332 276.115 83.1237 276.175 83.1076C276.374 83.0543 276.554 83.3261 276.408 83.5784C279.999 84.6424 282.376 86.3516 282.952 90.8895C283.515 94.8116 282.313 99.5797 281.229 103.882C280.894 105.212 280.569 106.498 280.312 107.701C278.98 114.669 277.342 121.293 274.025 127.621C273.496 128.829 272.734 129.567 271.918 130.105C270.252 139.435 265.937 147.967 261.68 156.387L261.679 156.388C260.162 159.39 258.651 162.378 257.27 165.383C254.113 172.308 251.208 179.378 249.26 186.832C248.584 189.401 247.948 191.995 247.312 194.589C246.358 198.478 245.403 202.369 244.313 206.18C241.635 215.287 238.667 224.376 235.699 233.466C234.216 238.011 232.732 242.556 231.284 247.103C227.417 259.337 223.151 271.677 216.489 282.634C215.343 284.523 214.161 286.411 212.974 288.307C210.56 292.162 208.124 296.054 205.913 300.078C202.996 305.388 201.534 311.143 200.327 317H197.985C198.044 316.709 198.103 316.417 198.163 316.125C199.416 310.457 200.797 304.861 203.783 299.689C205.789 296.02 208.019 292.481 210.25 288.943L210.251 288.94C211.363 287.176 212.474 285.413 213.558 283.633C221.021 271.288 225.888 257.614 230.105 243.9C231.807 238.382 233.713 232.921 235.618 227.464C238.248 219.93 240.876 212.4 242.964 204.729C243.571 202.541 244.161 200.359 244.749 198.182C247.631 187.518 250.473 177.003 255.095 166.819C256.639 163.487 258.305 160.199 259.971 156.911L259.972 156.909C264.212 148.54 268.453 140.171 270.685 131.075C269.491 131.395 268.191 131.317 266.584 130.895C266.133 130.802 266.623 130.244 266.949 130.264C270.579 130.677 272.215 128.426 273.638 125.379C274.531 123.54 275.299 121.628 275.867 119.769C277.553 114.518 278.535 109.03 279.517 103.541C279.677 102.636 279.876 101.706 280.078 100.761C280.627 98.198 281.198 95.5306 281.064 92.9952C280.977 92.272 280.89 91.5488 280.73 90.9518C279.963 90.7598 279.388 90.398 278.779 90.015C278.571 89.8842 278.359 89.751 278.134 89.6212C277.103 89.0259 275.995 88.8028 274.786 88.5593L274.648 88.5315C274.59 88.5197 274.532 88.5079 274.473 88.496L274.416 88.4844C273.503 88.3177 272.58 88.3302 271.656 88.3427C270.424 88.3593 269.193 88.376 267.986 87.9679C268.141 89.7394 267.844 91.4185 267.349 93.1509C266.357 96.6158 265.731 99.4496 266.564 102.959C266.689 103.031 266.619 103.155 266.547 103.281L266.545 103.285C268.432 105.552 270.882 107.135 273.921 106.534C274.318 106.427 274.299 106.752 274.153 107.005C276.55 105.533 277.77 102.456 278.904 99.594C279.373 98.4096 279.828 97.2621 280.345 96.2806C280.49 96.0282 280.815 96.0478 280.67 96.3001C280.435 96.9384 280.207 97.615 279.974 98.3086C278.737 101.986 277.338 106.145 273.789 107.635C273.538 107.801 273.428 107.473 273.57 107.381C269.962 108.946 266.297 105.151 265.123 101.959C264.997 101.886 265.07 101.76 265.269 101.707C264.782 99.2813 265.536 96.8287 266.291 94.3696C267.017 92.0057 267.745 89.6359 267.375 87.2785C267.322 87.0795 267.991 86.7934 267.972 87.1186L267.899 87.2447C269.191 87.4308 270.408 87.3416 271.686 87.248C271.945 87.229 272.206 87.2099 272.471 87.1928C273.386 87.1041 274.318 87.2973 275.235 87.4872C275.568 87.5562 275.9 87.6248 276.227 87.6793C277.623 87.9259 278.681 88.5584 279.795 89.2251C280.021 89.3602 280.249 89.4967 280.483 89.6317C279.877 87.7679 278.581 86.5153 276.364 85.4032C275.985 85.1847 275.48 84.8934 275.102 84.6748C273.98 84.9017 272.88 84.8787 271.798 84.8562C269.762 84.8136 267.792 84.7725 265.861 86.4045C262.414 89.4609 259.739 93.8037 257.534 97.9136C254.981 102.816 252.869 107.922 250.755 113.032C249.021 117.224 247.286 121.418 245.305 125.506C243.858 128.541 242.446 131.597 241.035 134.649C237.787 141.676 234.548 148.683 230.915 155.382C230.347 156.444 229.858 157.659 229.357 158.902C227.98 162.322 226.518 165.952 223.093 167.183C221.985 173.576 221.746 179.737 221.5 186.098C221.458 187.192 221.415 188.292 221.368 189.4C221.329 190.05 220.3 189.793 220.266 189.269C218.213 175.635 222.309 160.674 226.666 147.883C227.699 144.746 228.91 141.676 230.121 138.604L230.122 138.603C231.53 135.03 232.94 131.454 234.074 127.768C235.708 122.454 236.561 117.093 237.423 111.673C237.674 110.099 237.925 108.519 238.196 106.935C239.525 99.2918 241.745 91.9036 243.965 84.5158C245.741 78.6046 247.518 72.6931 248.837 66.6513C250.422 59.8282 250.958 53.0726 250.989 46.0258C250.999 45.8632 250.991 45.7321 250.982 45.6011C250.974 45.4701 250.965 45.339 250.975 45.1765C250.965 45.339 250.906 45.5149 250.846 45.6908C250.787 45.8667 250.727 46.0427 250.717 46.2053L250.62 46.6051C249.777 50.0633 248.779 54.1587 246.297 56.7742C245.953 57.0798 245.667 56.41 245.812 56.1576L245.885 56.0315C242.323 56.6661 237.751 56.718 234.65 55.0961C232.811 54.2025 230.341 52.9447 230.352 50.5957C230.371 50.2706 230.696 50.2901 230.823 50.3629C230.642 48.8609 230.737 47.438 230.835 45.9912L230.835 45.9898C230.878 45.3475 230.922 44.7002 230.941 44.0393C230.879 41.8165 230.942 39.6665 231.53 37.4827C231.55 37.1576 232.001 37.2502 231.982 37.5754C232.013 37.6896 232.026 37.7382 232.017 37.7828C232.011 37.8158 231.993 37.8467 231.962 37.9003C236.903 36.0431 245.315 34.0025 249.977 37.872C249.951 37.7727 249.892 37.6548 249.834 37.5374C249.776 37.4197 249.718 37.3017 249.691 37.2022C248.424 34.4164 246.252 33.0037 243.934 31.4954C243.404 31.1509 242.867 30.8015 242.331 30.4296C241.402 30.8526 240.473 31.0805 239.546 31.3079C238.2 31.6383 236.858 31.9675 235.526 32.8929C233.007 34.6344 231.118 36.7401 229.642 39.5884C227.981 42.8622 226.912 46.3227 225.828 49.8304C225.318 51.4802 224.805 53.1404 224.226 54.7967C222.761 59.1657 221.172 63.4929 219.581 67.8241L219.58 67.8268C217.375 73.8328 215.167 79.8465 213.281 85.9897C211.368 92.2237 209.122 98.325 206.87 104.446L206.869 104.448C205.301 108.708 203.73 112.978 202.264 117.309C198.621 127.99 196.351 138.623 194.261 149.527C194.095 150.105 192.901 150.425 193.013 149.648C193.534 146.416 194.18 143.257 194.827 140.098C194.628 140.151 194.429 140.204 194.302 140.131C194.098 141.358 193.902 142.591 193.705 143.823L193.705 143.828C193.116 147.524 192.527 151.219 191.725 154.792C191.706 155.117 190.784 155.258 190.876 154.806C191.097 142.188 194.558 129.057 197.803 116.746L197.809 116.724C198.117 115.557 198.422 114.397 198.723 113.246C199.331 110.87 200.036 108.479 200.744 106.077C202.221 101.071 203.712 96.014 204.369 90.9371C204.817 87.8316 205.007 84.6616 205.197 81.4917L205.197 81.4906C205.387 78.3203 205.578 75.1499 206.025 72.044C206.976 65.4439 208.347 58.918 209.718 52.3921C211.088 45.8662 212.459 39.3402 213.41 32.7402C213.583 31.6655 213.742 30.5828 213.901 29.5C214.22 27.3264 214.539 25.1527 214.971 23.044C215.134 22.319 215.322 21.5766 215.513 20.8244C215.948 19.1048 216.398 17.3292 216.594 15.5705C215.705 20.6079 213.514 25.5672 209.257 27.9876C203.859 30.9269 196.649 27.1002 194.903 21.3826C194.85 21.1836 195.069 20.8051 195.248 21.0769C195.364 21.3116 195.499 21.515 195.633 21.7182C195.768 21.9227 195.903 22.1271 196.019 22.3633C195.152 18.33 195.139 13.1079 196.276 9.3907C196.077 9.44399 195.698 9.2255 195.97 9.046C201.8 6.52422 210.284 4.35755 215.869 8.08662C214.152 4.0676 210.188 1.6106 205.092 1.69631L204.966 1.62348C203.121 1.90437 201.277 2.1853 199.646 3.26219C196.656 5.2365 194.529 8.04582 192.655 11.0008C188.562 17.2165 186.215 24.777 184.286 31.9058C182.617 37.9005 180.893 43.892 179.167 49.8879L179.166 49.8905L179.164 49.898C176.678 58.5376 174.189 67.1862 171.857 75.8671C169.909 83.321 168.213 90.9206 166.968 98.6126C166.602 101.218 166.285 103.852 165.966 106.492L165.966 106.496L165.965 106.497C165.39 111.266 164.812 116.058 163.942 120.752C163.867 121.249 163.794 121.821 163.716 122.441L163.716 122.444L163.715 122.446C163.233 126.264 162.516 131.933 159.386 133.597C157.502 134.529 155.91 134.955 154.469 133.955C154.423 140.153 153.926 146.258 152.527 152.178C152.435 152.63 151.838 152.789 151.877 152.139C152.73 139.007 153.312 126.054 153.515 112.882C153.624 106.721 154.189 100.571 154.754 94.4207C155.319 88.2706 155.884 82.1203 155.992 75.9591C156.089 66.7926 157.65 57.8696 159.22 48.8925C159.683 46.244 160.148 43.5908 160.575 40.9252C160.641 40.542 160.709 40.1566 160.776 39.7693L160.779 39.7505C161.224 37.2054 161.683 34.5763 161.898 31.9326C161.495 33.2137 160.713 34.2763 159.699 34.8681L159.553 35.1204C153.811 38.3654 143.599 38.862 140.85 31.3872C140.797 31.1882 141.141 30.8825 141.195 31.0815C141.714 32.2222 142.378 33.1105 143.188 33.7466C141.02 29.6352 141.565 24.9035 142.615 20.4631C142.436 20.1913 142.402 19.6671 142.674 19.4876C146.712 17.4457 152.595 15.1229 157.249 16.9686C158.079 17.2795 159.034 17.6632 159.971 18.3721C158.069 15.2557 155.075 14.0317 151.179 12.6231C138.516 15.9095 133.712 27.4343 130.515 39.3819C126.215 55.5709 121.948 72.284 119.977 88.8086C119.273 94.6156 119.046 100.451 118.818 106.301C118.67 110.112 118.521 113.928 118.24 117.748C117.64 126.654 116.337 135.321 114.383 143.949L114.072 145.33C112.126 153.979 110.122 162.884 107.323 171.329C105.25 177.388 101.947 182.638 98.5842 187.983C97.5814 189.577 96.5732 191.18 95.5907 192.815C95.0808 193.698 94.29 192.737 94.6542 192.106C94.9651 191.277 95.3293 190.646 95.6935 190.015C94.136 191.787 92.4377 193.443 90.7313 195.107C88.677 197.111 86.6111 199.125 84.7652 201.368C83.2241 203.331 81.5763 205.274 79.9176 207.229L79.9159 207.231C78.1527 209.31 76.3764 211.404 74.7006 213.556C74.3559 213.862 73.9241 213.444 74.1426 213.066C77.5437 207.174 82.367 202.271 87.1281 197.498C87.0333 197.56 86.8953 197.598 86.7568 197.635L86.7514 197.637C86.6416 197.666 86.5206 197.714 86.3952 197.765C86.0659 197.897 85.7053 198.041 85.4312 197.884C85.3051 197.811 85.2322 197.937 85.2322 197.937C85.2127 198.261 85.0142 198.314 84.6175 198.421L84.6157 198.422C84.5525 198.385 84.5027 198.398 84.4528 198.412C84.4032 198.425 84.3535 198.439 84.2906 198.403C83.8232 198.62 83.3497 198.849 82.8705 199.08C81.6976 199.646 80.4907 200.229 79.257 200.711C77.5194 201.39 75.7817 202.069 73.9426 201.175C73.8165 201.103 73.9621 200.85 74.0883 200.923C75.6601 201.534 78.1497 200.329 79.8227 199.52C80.0505 199.41 80.2632 199.307 80.4563 199.217C80.8893 199.101 81.2943 198.88 81.6638 198.678C81.8037 198.602 81.9385 198.529 82.0678 198.465C75.7831 197.696 69.3789 191.307 65.8569 186.919C61.8003 182.123 58.8283 176.738 55.8428 171.328C54.1189 168.204 52.3905 165.072 50.4462 162.041C44.5233 153.071 36.4257 145.536 26.7984 140.65C21.2279 137.771 15.7392 136.788 9.53644 137.917L9.37085 137.946C6.95375 138.382 3.89555 138.933 2.36725 141.011C1.29419 142.579 1.19659 144.204 1.099 145.83C1.36561 146.825 1.57892 147.621 1.91837 148.49C4.80576 149.316 7.65936 149.618 10.7119 149.866C11.3167 149.902 11.9616 149.897 12.6228 149.891C14.0945 149.88 15.6467 149.867 17.0161 150.31C19.9035 151.136 23.0185 153.607 23.7455 156.718C24.9328 161.946 18.8315 164.647 14.1193 163.777C14.8177 165.189 15.5161 166.602 16.1417 168.14C16.8674 169.897 17.4985 171.681 18.1274 173.458C19.0789 176.146 20.0254 178.82 21.2867 181.372C21.4515 181.691 21.6159 182.018 21.782 182.349L21.7839 182.352L21.7847 182.354C22.7372 184.249 23.7463 186.256 25.2158 187.677C27.3492 189.83 30.0369 189.082 32.6073 188.367C32.8544 188.299 33.1004 188.23 33.3448 188.165C33.7428 188.059 33.5776 188.636 33.3786 188.69C30.1022 189.994 27.1368 190.469 24.2546 188.468C24.7021 189.347 25.3659 190.039 26.1584 190.563C26.1935 190.567 26.2299 190.588 26.2652 190.632C28.2569 191.894 31.0144 192.127 33.2029 191.616C33.7271 191.582 33.6881 192.233 33.2901 192.339C31.5731 193.057 29.487 193.05 27.7011 192.38C29.3375 193.867 31.3604 194.248 33.9117 194.052C34.2369 194.072 34.1978 194.722 33.7999 194.829C31.6837 195.289 29.8784 194.92 28.4373 193.92C29.2372 196.905 32.5564 198.148 35.2838 198.377C35.9341 198.416 35.5699 199.047 35.1719 199.154C33.5799 199.58 32.0465 199.031 30.7316 198.104C34.1365 204.443 36.0223 211.083 37.9614 217.922C39.7278 224.161 43.1157 229.882 46.4609 235.531L46.47 235.547C46.8949 236.264 47.319 236.981 47.7391 237.697C50.9623 243.158 53.728 248.892 56.4924 254.622C59.9265 261.741 63.3587 268.855 67.664 275.442C68.4061 276.544 69.1507 277.642 69.8947 278.74C73.2358 283.668 76.5658 288.58 79.6165 293.781C79.8617 294.201 80.111 294.624 80.3618 295.049C82.5318 298.729 84.8149 302.601 85.5575 306.8C85.9331 309.051 86.1074 311.356 86.2759 313.586L86.276 313.589C86.3443 314.492 86.4117 315.384 86.4911 316.254C86.5169 316.468 86.5577 316.72 86.6055 317H85.0681C84.9961 316.268 84.9067 315.525 84.8172 314.783C84.7083 313.879 84.5994 312.975 84.5221 312.089C84.0526 307.949 83.418 304.387 81.5556 300.62C78.6205 294.825 75.081 289.451 71.5362 284.068C68.2451 279.071 64.9495 274.067 62.1287 268.714C59.2612 263.334 56.5358 257.894 53.8147 252.461L53.8127 252.457C50.6339 246.112 47.4604 239.776 44.0714 233.561C41.2582 228.236 38.5179 222.785 36.8454 216.941C36.6937 216.407 36.5425 215.873 36.3913 215.339L36.3843 215.314C34.7101 209.4 33.0203 203.43 30.4792 197.958L30.5521 197.832C29.31 196.778 28.4854 195.293 28.2579 193.648C27.5772 193.132 26.9735 192.484 26.4673 191.778C25.1465 190.964 24.1399 189.71 23.8228 188.051C20.9266 185.566 19.3848 180.925 18.0746 176.981C17.7562 176.022 17.4515 175.105 17.1443 174.27C15.8061 170.47 14.1426 166.65 12.0617 163.262L11.4309 162.897C11.0524 162.679 11.1981 162.427 11.5232 162.446C10.0874 160.271 8.37973 158.276 6.52637 156.533C6.21038 156.243 5.89353 155.961 5.58032 155.683C3.93153 154.216 2.3735 152.831 1.45657 150.747C1.07658 150.062 1.0181 149.563 0.943054 148.923C0.936676 148.869 0.930191 148.813 0.92337 148.757C0.671043 148.611 0.743881 148.485 0.942871 148.431C0.919647 148.071 0.9216 147.804 0.931427 147.568L0.928589 147.582C0.905502 147.694 0.882401 147.807 0.909058 147.907ZM22.2992 156.893C20.7086 152.946 17.7536 151.072 13.4537 150.945L12.9782 150.924C9.34573 150.771 5.5566 150.611 2.2045 149.16C2.77674 150.499 3.42181 151.713 4.66391 152.767C5.20797 153.258 5.77663 153.743 6.34943 154.231C7.40608 155.132 8.47684 156.045 9.43326 157.034C10.9614 158.757 12.2907 160.534 13.4742 162.563C17.4294 162.996 24.462 162.178 22.2992 156.893ZM251.024 42.1772C251.029 41.0027 250.962 39.9544 250.695 38.9594C250.569 38.8865 250.569 38.8867 250.496 39.0127C244.805 34.8857 238.204 36.1211 232.088 37.9731C231.829 39.3926 231.859 40.8295 231.889 42.2664C231.904 42.986 231.919 43.7056 231.897 44.423C231.867 44.9281 231.83 45.4298 231.794 45.9296C231.666 47.6816 231.54 49.412 231.686 51.198L231.54 51.4503C232.816 53.028 235.485 54.2325 237.29 54.6019C240.324 55.1755 243.197 55.1522 246.215 54.8765C247.473 52.4066 248.605 49.8639 249.484 47.1755C249.6 46.8079 249.746 46.3884 249.903 45.9343L249.904 45.9327C250.296 44.8047 250.761 43.4639 251.024 42.1772ZM216.455 10.2756L216.601 10.0233C216.494 9.6253 216.441 9.42629 216.461 9.1011C210.776 5.16988 204.141 6.95571 197.96 8.6189C197.736 8.67919 197.513 8.73931 197.29 8.799C197.214 9.33204 197.13 9.8615 197.047 10.3889C196.767 12.1661 196.491 13.9226 196.483 15.7339C196.42 17.591 196.694 19.358 196.967 21.1251C197.059 21.7132 197.15 22.3013 197.228 22.8927L197.082 23.145C200.497 27.1354 206.505 29.2582 210.913 25.411C215.195 21.491 216.376 15.949 216.455 10.2756ZM161.043 21.1776C161.056 20.9503 160.973 20.7491 160.903 20.5806C160.873 20.5081 160.845 20.4414 160.829 20.3816C158.962 17.7894 153.507 17.3314 151.264 17.719C149.571 17.9768 147.958 18.5329 146.323 19.0967C145.286 19.4541 144.24 19.8146 143.159 20.1042C143.082 20.6913 142.998 21.2694 142.915 21.8408L142.915 21.8457C142.359 25.6839 141.847 29.2255 143.48 33.2419C143.533 33.4409 143.514 33.7661 143.315 33.8194C145.187 35.2371 147.696 35.8446 150.171 35.9279C152.432 35.9748 154.369 35.3688 156.355 34.7476C157.291 34.4551 158.237 34.1591 159.233 33.9264C160.718 33.1018 161.505 30.8648 161.894 28.7343C162.05 26.1331 161.809 23.6384 161.043 21.1776Z"
    fill="#3B3C4D"></path>
  <path
    d="M73.7497 276.919C76.8347 282.064 81.4245 286.06 85.325 290.667C90.322 296.58 94.848 302.725 98.4858 309.535C98.7186 310.006 99.2818 309.322 99.1751 308.924C96.4934 302.498 92.3796 297.095 87.9939 291.871C85.9273 289.332 83.8606 286.793 81.5221 284.434C79.0041 281.803 76.0686 279.603 74.0943 276.613C74.041 276.414 73.6963 276.72 73.7497 276.919Z"
    fill="#3B3C4D"></path>
  <path
    d="M80.0925 293.027C83.1827 296.998 86.8895 300.484 91.0137 303.538C91.2661 303.683 91.8631 303.523 91.4846 303.305C87.5593 300.198 83.7797 296.838 80.6167 292.993C80.4372 292.721 79.8402 292.881 80.0925 293.027Z"
    fill="#3B3C4D"></path>
  <path
    d="M138.397 66.4646C143.74 67.699 149.166 66.4583 154.344 68.2702C154.795 68.3626 155.232 67.6056 154.854 67.3871C149.734 64.5997 144.216 66.2917 138.562 65.8871C138.363 65.9404 138.144 66.3189 138.397 66.4646Z"
    fill="#3B3C4D"></path>
  <path
    d="M146.982 58.2992C147.235 58.4448 147.327 57.9935 147.201 57.9207C144.756 55.1633 139.736 58.3211 137.382 59.4851C136.984 59.5918 137.125 60.5139 137.523 60.4073C139.857 59.5684 144.678 56.4639 146.982 58.2992Z"
    fill="#3B3C4D"></path>
  <path
    d="M136.613 57.025C135.259 56.7479 134.118 57.2668 132.851 57.7129C132.453 57.8196 132.268 58.7222 132.865 58.5622C134.059 58.2423 135.2 57.7234 136.428 57.9276C136.952 57.8938 137.137 56.9912 136.613 57.025Z"
    fill="#3B3C4D"></path>
  <path
    d="M130.75 103.599C134.114 103.017 137.239 103.14 140.418 103.461C141.646 103.665 142.747 103.797 143.975 104.001C144.751 104.113 145.654 104.298 146.431 104.409C147.188 104.846 147.639 104.939 147.731 104.487C148.183 104.58 148.508 104.599 148.886 104.818C149.211 104.837 149.377 104.26 149.124 104.114C142.879 102.695 137.011 101.494 130.59 103.002C130.391 103.055 130.425 103.579 130.75 103.599Z"
    fill="#3B3C4D"></path>
  <path
    d="M131.4 100.44C136.905 97.8985 142.432 98.2304 148.193 99.033C148.843 99.072 149.28 98.315 148.378 98.1303C142.384 96.8569 136.366 97.083 130.896 100.148C130.823 100.275 131.201 100.493 131.4 100.44Z"
    fill="#3B3C4D"></path>
  <path
    d="M149.926 107.101C145.781 108.745 141.248 108.146 136.948 108.019C136.623 107.999 136.584 108.65 136.909 108.669C141.117 109.248 146.014 109.216 149.906 107.426C150.105 107.373 149.999 106.975 149.926 107.101Z"
    fill="#3B3C4D"></path>
  <path
    d="M127.154 108.083C132.798 110.836 139.941 113.614 145.863 110.641C146.062 110.588 146.028 110.064 145.756 110.243C139.854 112.891 132.983 109.933 127.373 107.704C127.121 107.558 126.829 108.063 127.154 108.083Z"
    fill="#3B3C4D"></path>
  <path
    d="M174.688 105.583C181.163 104.275 187.355 105.495 193.635 107.439C194.086 107.531 194.523 106.774 194.145 106.555C192.432 105.735 190.772 105.113 188.967 104.743C189.04 104.617 188.913 104.544 188.787 104.472C187.2 103.724 185.395 103.354 183.736 102.732C183.357 102.514 183.066 103.019 183.444 103.237C184.327 103.747 185.356 104.005 186.312 104.388C182.43 103.829 178.562 104.119 174.853 105.006C174.276 104.841 174.164 105.617 174.688 105.583Z"
    fill="#3B3C4D"></path>
  <path
    d="M189.291 112.333C185.879 111.541 182.21 111.778 179.056 109.957C178.804 109.811 178.44 110.442 178.692 110.588C181.7 112.661 185.496 112.497 189.053 113.037C189.504 113.129 189.616 112.353 189.291 112.333Z"
    fill="#3B3C4D"></path>
  <path
    d="M181.62 115.137C182.197 115.302 182.236 114.652 181.858 114.434C177.888 113.151 173.428 112.426 171.26 108.315C171.081 108.043 170.43 108.004 170.663 108.475C172.613 112.965 177.305 114.16 181.62 115.137Z"
    fill="#3B3C4D"></path>
  <path
    d="M178.246 118.067C179.905 118.689 181.604 118.661 183.375 118.506C183.899 118.472 183.739 117.875 183.215 117.909C181.643 118.01 180.07 118.112 178.61 117.437C178.357 117.291 177.741 117.776 178.246 118.067Z"
    fill="#3B3C4D"></path>
  <path
    d="M196.553 96.8452C197.131 97.0104 197.136 95.8359 196.685 95.7436C194.229 95.3351 191.681 95.378 189.352 95.0424C189.027 95.0228 188.988 95.6732 189.24 95.8188C191.623 96.3535 194.224 96.5096 196.553 96.8452Z"
    fill="#3B3C4D"></path>
  <path
    d="M200.996 48.9448C196.808 48.0408 193.12 48.6026 189.12 49.9942C188.722 50.1008 188.935 50.8968 189.207 50.7174C193.061 49.5781 196.856 49.4143 200.812 49.8475C201.263 49.9399 201.321 48.9644 200.996 48.9448Z"
    fill="#3B3C4D"></path>
  <path
    d="M196.439 54.2194C198.569 54.6083 200.699 54.9973 202.83 55.3862C203.155 55.4057 203.32 54.8282 202.995 54.8087C200.938 54.2936 198.734 54.0308 196.604 53.6419C196.351 53.4962 195.987 54.127 196.439 54.2194Z"
    fill="#3B3C4D"></path>
  <path
    d="M204.383 58.8088C204.709 58.8283 205.073 58.1975 204.622 58.1052C201.171 57.9633 191.134 59.9062 189.689 55.7077C189.636 55.5087 189.364 55.6882 189.417 55.8872C190.1 60.8232 201.112 58.9388 204.383 58.8088Z"
    fill="#3B3C4D"></path>
  <path
    d="M233.098 82.7874C230.789 82.1266 228.26 81.8443 225.804 81.4359C225.353 81.3435 225.44 82.0667 225.693 82.2124C228.075 82.747 230.458 83.2816 232.987 83.5639C233.438 83.6562 233.55 82.8798 233.098 82.7874Z"
    fill="#3B3C4D"></path>
  <path
    d="M237.333 85.0652C237.008 85.0457 236.79 85.4242 237.115 85.4437C237.891 85.5556 238.668 85.6675 239.318 85.7065C239.444 85.7793 239.59 85.527 239.464 85.4542C238.687 85.3423 237.911 85.2304 237.333 85.0652Z"
    fill="#3B3C4D"></path>
  <path
    d="M226.857 84.5655C230.782 87.6729 235.805 87.7133 240.469 87.2101C240.993 87.1763 241.178 86.2736 240.455 86.3607C235.99 86.8107 231.219 86.9159 227.473 84.0804C227.095 83.8619 226.551 84.2209 226.857 84.5655Z"
    fill="#3B3C4D"></path>
  <path
    d="M244.766 84.1399C242.82 82.8484 240.544 82.7117 238.452 81.6725C238.2 81.5268 237.656 81.8858 238.035 82.1043C239.981 83.3959 242.257 83.5325 244.275 84.6979C244.528 84.8436 245.071 84.4846 244.766 84.1399Z"
    fill="#3B3C4D"></path>
  <path
    d="M223.629 127.449C221.12 126.842 218.465 126.487 215.937 126.204C215.612 126.185 215.52 126.636 215.845 126.656C218.354 127.263 220.863 127.871 223.517 128.226C223.842 128.245 224.007 127.668 223.629 127.449Z"
    fill="#3B3C4D"></path>
  <path
    d="M228.051 128.824C227.799 128.678 227.673 128.605 227.401 128.784C227.202 128.838 227.182 129.163 227.435 129.309C228.371 130.018 229.381 130.6 230.39 131.183C230.642 131.329 231.113 131.096 230.807 130.751C229.871 130.042 228.988 129.532 228.051 128.824Z"
    fill="#3B3C4D"></path>
  <path
    d="M217.489 130.8C216.984 130.509 216.547 131.266 216.853 131.61C219.59 133.863 222.729 134.835 226.16 135.302C226.811 135.341 227.141 134.186 226.491 134.147C223.278 133.301 220.119 132.655 217.489 130.8Z"
    fill="#3B3C4D"></path>
  <path
    d="M210.59 130.516C214.364 135.051 218.454 137.58 224.249 138.907C224.574 138.927 224.54 138.403 224.288 138.257C218.838 136.624 214.602 134.347 210.808 130.138C210.556 129.992 210.463 130.444 210.59 130.516Z"
    fill="#3B3C4D"></path>
  <path
    d="M219.294 139.915C218.916 139.697 218.551 140.327 218.731 140.599C220.046 141.527 221.453 142.003 223.006 142.226C223.331 142.246 223.569 141.542 223.244 141.523C221.764 141.173 220.483 140.77 219.294 139.915Z"
    fill="#3B3C4D"></path>
  <path
    d="M222.823 146.327C223.347 146.293 223.532 145.391 223.008 145.425C219.756 145.229 215.204 144.956 213.23 141.966C212.997 141.495 212.434 142.179 212.739 142.524C214.694 145.839 219.3 146.312 222.823 146.327Z"
    fill="#3B3C4D"></path>
  <path
    d="M217.431 119.831C218.154 119.744 218.931 119.856 219.707 119.968C221.386 120.265 222.9 121.139 224.288 121.94C226.685 123.324 228.864 125.086 231.188 126.596C231.692 126.888 231.877 125.985 231.499 125.767C227.52 122.46 220.519 116.231 215.136 120.02C215.063 120.146 215.063 120.146 214.99 120.272C215.043 120.471 215.043 120.471 215.096 120.67C215.096 120.67 215.096 120.67 215.223 120.743C215.349 120.816 215.475 120.889 215.674 120.835C215.8 120.908 215.747 120.709 215.747 120.709C215.985 120.006 216.529 119.647 217.431 119.831Z"
    fill="#3B3C4D"></path>
  <path
    d="M250.414 158.557C252.394 160.372 254.679 162.533 255.227 165.372C255.333 165.77 255.731 165.663 255.824 165.212C256.145 162.033 253.03 159.562 250.924 157.673C250.619 157.329 250.109 158.212 250.414 158.557Z"
    fill="#3B3C4D"></path>
  <path
    d="M254.41 165.911C253.095 164.984 251.47 164.886 250.354 163.905C249.975 163.687 249.359 164.172 249.664 164.516C250.707 165.623 252.241 166.172 253.774 166.721C254.099 166.741 254.789 166.129 254.41 165.911Z"
    fill="#3B3C4D"></path>
  <path
    d="M252.924 171.108C248.397 169.335 244.796 166.247 243.318 161.524C243.211 161.126 242.541 161.412 242.648 161.81C244.18 166.732 247.707 169.946 252.56 171.738C252.759 171.685 253.249 171.127 252.924 171.108Z"
    fill="#3B3C4D"></path>
  <path
    d="M251.837 167.453C252.9 168.234 254.108 168.764 255.462 169.041C255.913 169.133 255.879 168.609 255.428 168.517C254.273 168.186 253.317 167.803 252.381 167.094C252.075 166.749 251.332 167.161 251.837 167.453Z"
    fill="#3B3C4D"></path>
  <path
    d="M258.11 130.367C259.652 132.939 262.394 134.018 265.082 134.897C265.534 134.989 265.752 134.611 265.248 134.32C262.831 133.261 260.196 132.58 258.78 130.081C258.6 129.809 257.804 130.022 258.11 130.367Z"
    fill="#3B3C4D"></path>
  <path
    d="M266.001 131.558C265.822 131.286 265.152 131.572 265.331 131.844C265.69 132.388 266.394 132.626 266.952 133.116C267.204 133.262 267.748 132.903 267.495 132.757C267.064 132.34 266.433 131.976 266.001 131.558Z"
    fill="#3B3C4D"></path>
  <path
    d="M266.505 140.595C266.975 140.362 266.835 139.44 266.291 139.799C265.947 140.105 265.621 140.085 265.097 140.119C264.772 140.1 264.607 140.677 264.859 140.823C265.51 140.862 265.961 140.954 266.505 140.595Z"
    fill="#3B3C4D"></path>
  <path
    d="M268.755 113.971C267.188 112.898 265.276 112.131 264.471 110.32C264.417 110.121 263.947 110.354 264 110.553C264.805 112.364 266.751 113.655 268.41 114.277C268.59 114.549 268.934 114.243 268.755 113.971Z"
    fill="#3B3C4D"></path>
  <defs>
    <lineargradient id="paint0_linear_712_647" x1="99.5" y1="260.5" x2="1.99999" y2="162.5"
      gradientunits="userSpaceOnUse">
      <stop stop-color="white" stop-opacity="0"></stop>
      <stop offset="1" stop-color="#EECCA1"></stop>
    </lineargradient>
    <lineargradient id="paint1_linear_712_647" x1="134" y1="154" x2="72.1534" y2="97.0576"
      gradientunits="userSpaceOnUse">
      <stop stop-color="white" stop-opacity="0"></stop>
      <stop offset="1" stop-color="#EECCA1"></stop>
    </lineargradient>
    <lineargradient id="paint2_linear_712_647" x1="182.5" y1="154" x2="117.148" y2="78.5499"
      gradientunits="userSpaceOnUse">
      <stop stop-color="white" stop-opacity="0"></stop>
      <stop offset="1" stop-color="#EECCA1"></stop>
    </lineargradient>
    <lineargradient id="paint3_linear_712_647" x1="217" y1="160.5" x2="163.307" y2="87.6384"
      gradientunits="userSpaceOnUse">
      <stop stop-color="white" stop-opacity="0"></stop>
      <stop offset="1" stop-color="#EECCA1"></stop>
    </lineargradient>
    <lineargradient id="paint4_linear_712_647" x1="261.5" y1="195" x2="206.664" y2="133.551"
      gradientunits="userSpaceOnUse">
      <stop stop-color="white" stop-opacity="0"></stop>
      <stop offset="1" stop-color="#EECCA1"></stop>
    </lineargradient>
  </defs>
</svg>