<svg xmlns="http://www.w3.org/2000/svg" width="24" height="24" viewBox="0 0 23 23" fill="none">
  <path
    d="M9.81449 0.518784C10.5769 -0.172928 11.7398 -0.172928 12.5022 0.518784L13.8368 1.72958C14.2246 2.0814 14.7348 2.26712 15.258 2.24687L17.0586 2.17717C18.0873 2.13735 18.9781 2.88488 19.1176 3.90482L19.3616 5.69017C19.4325 6.20893 19.704 6.6792 20.1178 6.99999L21.542 8.104C22.3555 8.73471 22.5575 9.87998 22.0087 10.7509L21.048 12.2754C20.7689 12.7184 20.6746 13.2532 20.7854 13.7649L21.1667 15.5261C21.3845 16.5322 20.8031 17.5393 19.8228 17.8537L18.107 18.4041C17.6084 18.564 17.1924 18.913 16.9484 19.3762L16.1084 20.9705C15.6286 21.8812 14.5358 22.279 13.5828 21.8897L11.9146 21.2084C11.4299 21.0104 10.8869 21.0104 10.4021 21.2084L8.73397 21.8897C7.78096 22.279 6.68815 21.8812 6.20831 20.9705L5.36837 19.3762C5.12431 18.913 4.70833 18.564 4.20977 18.4041L2.49392 17.8537C1.51367 17.5393 0.932202 16.5322 1.15004 15.5261L1.53135 13.7649C1.64215 13.2532 1.54785 12.7184 1.26872 12.2754L0.308056 10.7509C-0.240757 9.87998 -0.0388151 8.73471 0.774778 8.104L2.19892 6.99999C2.61273 6.6792 2.88424 6.20893 2.95515 5.69017L3.19918 3.90482C3.33859 2.88488 4.22945 2.13735 5.25811 2.17717L7.05872 2.24687C7.58191 2.26712 8.09218 2.0814 8.47995 1.72958L9.81449 0.518784Z"
    fill="currentColor" />
</svg>