<svg style="margin-left: 8px;" width="16" height="16" title="Edge Receipt Number" class="svgIcon-root" viewbox="0 0 11 13">
  <defs>
    <clippath id="a">
      <path fill="#fff" d="M0 0h10.33v13H0z"></path>
    </clippath>
  </defs>
  <g clip-path="url(#a)">
    <path fill="#333233" d="M9.8 2.47L7.91.59a1.85 1.85 0 00-1.3-.54H1.83A1.83 1.83 0 000 1.88v9.34a1.83 1.83 0 001.83 1.83H8.5a1.83 1.83 0 001.83-1.83V3.77c0-.486-.19-.953-.53-1.3zm-.71.71a.63.63 0 01.13.2H7.17A.16.16 0 017 3.22V1.16c.07.037.137.081.2.13l1.89 1.89zm-.59 8.87H1.83a.83.83 0 01-.83-.83V1.88a.83.83 0 01.83-.83H6v2.17a1.16 1.16 0 001.17 1.16h2.16v6.84a.83.83 0 01-.83.78v.05zm-.8-5.43h-.61l.1-.59a.5.5 0 00-.914-.353.49.49 0 00-.066.183l-.13.76H4.79l.1-.59a.5.5 0 00-.914-.353.49.49 0 00-.066.183l-.13.76h-.75a.5.5 0 00-.5.5.51.51 0 00.5.5h.58L3.4 8.88h-.77a.51.51 0 00-.5.5.5.5 0 00.5.5h.6l-.1.59a.49.49 0 00.41.57h.08a.5.5 0 00.5-.42l.12-.75h1.29l-.1.59a.49.49 0 00.41.57h.08a.5.5 0 00.5-.42l.12-.75h.75a.5.5 0 000-1h-.58l.21-1.26h.77a.5.5 0 00.5-.5.5.5 0 00-.49-.53v.05zm-2 2.26H4.42l.21-1.26h1.28L5.7 8.88z"></path>
  </g>
</svg>