<svg width="20" height="20" viewbox="0 0 240 240" fill="none" xmlns="http://www.w3.org/2000/svg">
  <path d="M0 120C0 186.274 53.7258 240 120 240C186.274 240 240 186.274 240 120C240 53.7258 186.274 0 120 0C53.7258 0 0 53.7258 0 120Z" fill="#F00073"></path>
  <path d="M120 62.6506C138.554 62.6506 141.084 62.6506 148.675 62.6506C155.422 62.6506 158.795 64.3374 161.325 65.1807C164.699 66.8675 167.229 67.7109 169.759 70.241C172.289 72.7711 173.976 75.3012 174.819 78.6747C175.663 81.2048 176.506 84.5783 177.349 91.3253C177.349 98.9157 177.349 100.602 177.349 120C177.349 139.398 177.349 141.084 177.349 148.675C177.349 155.422 175.663 158.795 174.819 161.325C173.133 164.699 172.289 167.229 169.759 169.759C167.229 172.289 164.699 173.976 161.325 174.819C158.795 175.663 155.422 176.506 148.675 177.349C141.084 177.349 139.398 177.349 120 177.349C100.602 177.349 98.9157 177.349 91.3253 177.349C84.5783 177.349 81.2048 175.663 78.6747 174.819C75.3012 173.133 72.7711 172.289 70.241 169.759C67.7109 167.229 66.0241 164.699 65.1807 161.325C64.3374 158.795 63.494 155.422 62.6506 148.675C62.6506 141.084 62.6506 139.398 62.6506 120C62.6506 100.602 62.6506 98.9157 62.6506 91.3253C62.6506 84.5783 64.3374 81.2048 65.1807 78.6747C66.8675 75.3012 67.7109 72.7711 70.241 70.241C72.7711 67.7109 75.3012 66.0241 78.6747 65.1807C81.2048 64.3374 84.5783 63.494 91.3253 62.6506C98.9157 62.6506 101.446 62.6506 120 62.6506ZM120 50C100.602 50 98.9157 50 91.3253 50C83.7349 50 78.6747 51.6868 74.4578 53.3735C70.241 55.0602 66.0241 57.5904 61.8072 61.8072C57.5904 66.0241 55.9036 69.3976 53.3735 74.4578C51.6868 78.6747 50.8434 83.7349 50 91.3253C50 98.9157 50 101.446 50 120C50 139.398 50 141.084 50 148.675C50 156.265 51.6868 161.325 53.3735 165.542C55.0602 169.759 57.5904 173.976 61.8072 178.193C66.0241 182.41 69.3976 184.096 74.4578 186.627C78.6747 188.313 83.7349 189.157 91.3253 190C98.9157 190 101.446 190 120 190C138.554 190 141.084 190 148.675 190C156.265 190 161.325 188.313 165.542 186.627C169.759 184.94 173.976 182.41 178.193 178.193C182.41 173.976 184.096 170.602 186.627 165.542C188.313 161.325 189.157 156.265 190 148.675C190 141.084 190 138.554 190 120C190 101.446 190 98.9157 190 91.3253C190 83.7349 188.313 78.6747 186.627 74.4578C184.94 70.241 182.41 66.0241 178.193 61.8072C173.976 57.5904 170.602 55.9036 165.542 53.3735C161.325 51.6868 156.265 50.8434 148.675 50C141.084 50 139.398 50 120 50Z" fill="white"></path>
  <path d="M120 83.7349C99.759 83.7349 83.7349 99.759 83.7349 120C83.7349 140.241 99.759 156.265 120 156.265C140.241 156.265 156.265 140.241 156.265 120C156.265 99.759 140.241 83.7349 120 83.7349ZM120 143.614C107.349 143.614 96.3855 133.494 96.3855 120C96.3855 107.349 106.506 96.3855 120 96.3855C132.651 96.3855 143.614 106.506 143.614 120C143.614 132.651 132.651 143.614 120 143.614Z" fill="white"></path>
  <path d="M157.108 91.3253C161.766 91.3253 165.542 87.5494 165.542 82.8916C165.542 78.2338 161.766 74.4578 157.108 74.4578C152.451 74.4578 148.675 78.2338 148.675 82.8916C148.675 87.5494 152.451 91.3253 157.108 91.3253Z" fill="white"></path>
</svg>