<svg width="16" height="16" viewBox="0 0 24 24" fill="none" xmlns="http://www.w3.org/2000/svg">
  <path
    d="M12.0001 13.5385C14.1243 13.5385 15.8462 11.8165 15.8462 9.69235C15.8462 7.56818 14.1243 5.84619 12.0001 5.84619C9.87592 5.84619 8.15393 7.56818 8.15393 9.69235C8.15393 11.8165 9.87592 13.5385 12.0001 13.5385Z"
    stroke="currentColor" stroke-width="1.5" stroke-linecap="round" stroke-linejoin="round"></path>
  <path
    d="M5.43079 19.5384C6.11731 18.4115 7.08219 17.4801 8.23265 16.8339C9.38311 16.1876 10.6805 15.8481 12 15.8481C13.3196 15.8481 14.6169 16.1876 15.7674 16.8339C16.9179 17.4801 17.8827 18.4115 18.5693 19.5384"
    stroke="currentColor" stroke-width="1.5" stroke-linecap="round" stroke-linejoin="round"></path>
  <path
    d="M12 22C17.5229 22 22 17.5229 22 12C22 6.47715 17.5229 2 12 2C6.47715 2 2 6.47715 2 12C2 17.5229 6.47715 22 12 22Z"
    stroke="currentColor" stroke-width="1.5" stroke-linecap="round" stroke-linejoin="round"></path>
</svg>