<svg width="20" height="20" viewbox="0 0 240 240" fill="none" xmlns="http://www.w3.org/2000/svg">
  <path d="M0 120C0 186.274 53.7258 240 120 240C186.274 240 240 186.274 240 120C240 53.7258 186.274 0 120 0C53.7258 0 0 53.7258 0 120Z" fill="#E60023"></path>
  <path d="M120.493 40C76.2218 40 40 76.2308 40 120.513C40 153.724 60.1232 181.904 88.2958 193.981C88.2958 187.942 88.2957 181.904 89.3018 175.865C91.3141 168.821 99.3634 131.583 99.3634 131.583C99.3634 131.583 96.3451 126.551 96.3451 118.5C96.3451 106.423 103.388 97.3654 111.437 97.3654C118.481 97.3654 122.505 102.397 122.505 109.442C122.505 116.487 117.474 127.558 115.462 137.622C113.45 145.673 119.487 152.718 128.542 152.718C143.635 152.718 153.696 133.596 153.696 109.442C153.696 91.3269 141.622 78.2436 120.493 78.2436C96.345 78.2436 81.2527 96.359 81.2527 116.487C81.2527 123.532 83.265 128.564 86.2835 132.59C87.2896 134.603 88.2957 134.603 87.2895 136.615C87.2895 137.622 86.2834 141.647 85.2772 142.654C84.2711 144.667 83.265 145.673 81.2527 144.667C70.1849 139.635 65.154 127.558 65.154 113.468C65.154 90.3205 84.271 63.1474 122.505 63.1474C153.696 63.1474 173.819 85.2885 173.819 109.442C173.819 140.641 156.715 164.795 130.554 164.795C121.499 164.795 113.45 159.763 110.431 154.731C110.431 154.731 105.4 172.846 104.394 176.872C102.382 182.91 99.3636 188.949 96.3451 193.981C103.388 195.994 111.437 197 119.487 197C163.758 197 199.98 160.769 199.98 116.487C200.986 76.2308 164.764 40 120.493 40Z" fill="white"></path>
</svg>