<svg width="42" height="42" viewBox="0 0 49 48" fill="none" xmlns="http://www.w3.org/2000/svg">
  <path
    d="M21.7236 0C26.9012 0 31.6558 1.81138 35.3882 4.835L31.6821 8.54105C28.9132 6.44599 25.4635 5.20325 21.7236 5.20325C12.5997 5.20325 5.20325 12.5997 5.20325 21.7236C5.20325 25.4635 6.44599 28.9132 8.54105 31.6821L4.835 35.3882C1.81138 31.6558 0 26.9012 0 21.7236C0 9.72598 9.72598 0 21.7236 0Z"
    fill="currentColor" />
  <path fill-rule="evenodd" clip-rule="evenodd"
    d="M10.0231 40.0301L4.70142 45.3518C3.68542 46.3678 2.03816 46.3678 1.02216 45.3518C0.00616505 44.3358 0.00616505 42.6886 1.02216 41.6726L41.5425 1.15224C42.5585 0.136244 44.2057 0.136244 45.2217 1.15224C46.2377 2.16824 46.2377 3.8155 45.2217 4.8315L40.0301 10.0231C42.1931 13.4003 43.4472 17.4155 43.4472 21.7236C43.4472 26.685 41.7839 31.2579 38.9847 34.9152L47.6282 43.5587C48.6442 44.5747 48.6442 46.222 47.6282 47.238C46.6122 48.254 44.965 48.254 43.949 47.238L35.3522 38.6412C31.6253 41.6474 26.8846 43.4472 21.7236 43.4472C17.4155 43.4472 13.4003 42.1931 10.0231 40.0301ZM36.2339 13.8194L13.8194 36.2339C16.1672 37.5155 18.8603 38.2439 21.7236 38.2439C30.8475 38.2439 38.2439 30.8475 38.2439 21.7236C38.2439 18.8603 37.5155 16.1672 36.2339 13.8194Z"
    fill="currentColor" />
</svg>