<svg width="20" height="20" viewbox="0 0 240 240" fill="none" xmlns="http://www.w3.org/2000/svg">
  <path d="M240 120C240 53.7258 186.274 0 120 0C53.7258 0 0 53.7258 0 120C0 186.274 53.7258 240 120 240C186.274 240 240 186.274 240 120Z" fill="white"></path>
  <path fill-rule="evenodd" clip-rule="evenodd" d="M198.974 121.833C198.974 116.114 198.461 110.614 197.508 105.334H121.538V136.536H164.949C163.079 146.619 157.396 155.162 148.853 160.882V181.121H174.922C190.175 167.078 198.974 146.399 198.974 121.833Z" fill="#4285F4"></path>
  <path fill-rule="evenodd" clip-rule="evenodd" d="M121.534 200.663C143.314 200.663 161.573 193.44 174.919 181.12L148.85 160.881C141.627 165.721 132.387 168.581 121.534 168.581C100.525 168.581 82.7427 154.392 76.3996 135.326H49.4507V156.225C62.7235 182.587 90.0024 200.663 121.534 200.663Z" fill="#34A853"></path>
  <path fill-rule="evenodd" clip-rule="evenodd" d="M76.4029 135.326C74.7897 130.486 73.873 125.316 73.873 120C73.873 114.683 74.7897 109.513 76.4029 104.674V83.7745H49.454C43.9909 94.664 40.8744 106.984 40.8744 120C40.8744 133.016 43.9909 145.335 49.454 156.225L76.4029 135.326Z" fill="#FBBC05"></path>
  <path fill-rule="evenodd" clip-rule="evenodd" d="M121.534 71.4189C133.377 71.4189 144.01 75.4887 152.37 83.4817L175.506 60.346C161.536 47.3299 143.277 39.3369 121.534 39.3369C90.0024 39.3369 62.7235 57.4128 49.4507 83.775L76.3996 104.674C82.7426 85.6083 100.525 71.4189 121.534 71.4189Z" fill="#EA4335"></path>
</svg>