<svg width="16" height="16" viewbox="0 0 24 24" fill="none" xmlns="http://www.w3.org/2000/svg">
  <path fill-rule="evenodd" clip-rule="evenodd" d="M12 1.79603L11.0524 2.42005C10.6024 2.71641 10.0686 2.85943 9.53067 2.82779L8.39802 2.76118L7.88938 3.7754C7.64781 4.25708 7.25708 4.64781 6.7754 4.88938L5.76118 5.39802L5.82779 6.53068C5.85943 7.06861 5.71641 7.60236 5.42005 8.0524L4.79603 9.00001L5.42005 9.94761C5.71641 10.3977 5.85943 10.9314 5.82779 11.4693L5.76118 12.602L6.7754 13.1106C7.25708 13.3522 7.64781 13.7429 7.88938 14.2246L8.39802 15.2388L9.53068 15.1722C10.0686 15.1406 10.6024 15.2836 11.0524 15.58L12 16.204L12.9476 15.58C13.3977 15.2836 13.9314 15.1406 14.4693 15.1722L15.602 15.2388L16.1106 14.2246C16.3522 13.7429 16.7429 13.3522 17.2246 13.1106L18.2388 12.602L18.1722 11.4693C18.1406 10.9314 18.2836 10.3977 18.58 9.94761L19.204 9.00001L18.58 8.0524C18.2836 7.60236 18.1406 7.06861 18.1722 6.53068L18.2388 5.39802L17.2246 4.88938C16.7429 4.64781 16.3522 4.25708 16.1106 3.7754L15.602 2.76118L14.4693 2.82779C13.9314 2.85943 13.3977 2.71641 12.9476 2.42005L12 1.79603ZM12.55 0.36218C12.2163 0.142416 11.7837 0.142416 11.45 0.36218L10.2274 1.16728C10.0474 1.28583 9.83391 1.34304 9.61874 1.33038L8.15739 1.24444C7.7585 1.22098 7.38393 1.43724 7.20479 1.79442L6.54855 3.10296C6.45192 3.29563 6.29563 3.45192 6.10296 3.54855L4.79442 4.20479C4.43724 4.38393 4.22098 4.7585 4.24444 5.15739L4.33038 6.61874C4.34304 6.83391 4.28583 7.04741 4.16728 7.22743L3.36218 8.45002C3.14242 8.78375 3.14242 9.21626 3.36218 9.54999L4.16728 10.7726C4.28583 10.9526 4.34304 11.1661 4.33038 11.3813L4.24444 12.8426C4.22098 13.2415 4.43724 13.6161 4.79442 13.7952L6.10296 14.4515C6.29563 14.5481 6.45192 14.7044 6.54855 14.8971L7.2048 16.2056C7.21871 16.2333 7.23381 16.2602 7.25 16.2862V22.2267C7.25 23.1338 8.18578 23.7388 9.01296 23.3666L12.1936 21.9353L14.941 23.309C15.7721 23.7246 16.75 23.1202 16.75 22.191V16.2863C16.7662 16.2602 16.7813 16.2333 16.7952 16.2056L17.4515 14.8971C17.5481 14.7044 17.7044 14.5481 17.8971 14.4515L19.2056 13.7952C19.5628 13.6161 19.779 13.2415 19.7556 12.8426L19.6696 11.3813C19.657 11.1661 19.7142 10.9526 19.8327 10.7726L20.6378 9.54999C20.8576 9.21626 20.8576 8.78375 20.6378 8.45002L19.8327 7.22743C19.7142 7.04741 19.657 6.83391 19.6696 6.61874L19.7556 5.15739C19.779 4.75849 19.5628 4.38393 19.2056 4.20479L17.8971 3.54855C17.7044 3.45192 17.5481 3.29563 17.4515 3.10296L16.7952 1.79442C16.6161 1.43724 16.2415 1.22098 15.8426 1.24444L14.3813 1.33038C14.1661 1.34304 13.9526 1.28583 13.7726 1.16728L12.55 0.36218ZM15.25 16.7207L14.3813 16.6696C14.1661 16.657 13.9526 16.7142 13.7726 16.8327L12.55 17.6378C12.2163 17.8576 11.7837 17.8576 11.45 17.6378L10.2274 16.8327C10.0474 16.7142 9.83391 16.657 9.61874 16.6696L8.75 16.7207V21.8401L12.2275 20.2752L15.25 21.7865V16.7207ZM12 12.5C13.933 12.5 15.5 10.933 15.5 9C15.5 7.067 13.933 5.5 12 5.5C10.067 5.5 8.5 7.067 8.5 9C8.5 10.933 10.067 12.5 12 12.5ZM12 14C14.7614 14 17 11.7614 17 9C17 6.23858 14.7614 4 12 4C9.23858 4 7 6.23858 7 9C7 11.7614 9.23858 14 12 14Z" fill="currentColor"></path>
</svg>