<svg width="16" height="16" viewBox="0 0 24 24" fill="none" xmlns="http://www.w3.org/2000/svg">
  <path d="M11.9999 21.1229C16.6666 21.1229 20 19.3852 20 15.5175C20 11.3134 18 8.51067 13.9999 6.40863L15.5733 4.27855C15.6532 4.13881 15.6966 3.97932 15.699 3.81628C15.7013 3.65323 15.6627 3.49243 15.5869 3.35015C15.5111 3.20788 15.4008 3.0892 15.2673 3.00614C15.1338 2.92308 14.9818 2.8786 14.8266 2.8772H9.17325C9.0181 2.8786 8.86607 2.92308 8.73256 3.00614C8.59904 3.0892 8.4888 3.20788 8.413 3.35015C8.33719 3.49243 8.29852 3.65323 8.30091 3.81628C8.30329 3.97932 8.34664 4.13881 8.42658 4.27855L9.99992 6.42264C5.99989 8.5387 3.99988 11.3414 3.99988 15.5455C3.99988 19.3852 7.33323 21.1229 11.9999 21.1229Z" stroke="currentColor" stroke-width="1.5" stroke-linecap="round" stroke-linejoin="round"></path>
  <path d="M13.8437 11.7273C13.7803 11.5384 13.6824 11.3667 13.5581 11.2204C13.2936 10.9094 12.9092 10.7136 12.4814 10.7136H11.3634C10.6512 10.7136 10.074 11.3213 10.074 12.0709C10.074 12.7087 10.4959 13.2604 11.0878 13.3967L12.7901 13.7887C13.4532 13.9414 13.9259 14.56 13.9259 15.2745C13.9259 16.1143 13.2792 16.7956 12.4814 16.7956H11.5184C10.8895 16.7956 10.3545 16.3725 10.1562 15.7819" stroke="currentColor" stroke-width="1.5" stroke-linecap="round" stroke-linejoin="round"></path>
  <path d="M12 10.7136V9.19312" stroke="currentColor" stroke-width="1.5" stroke-linecap="round" stroke-linejoin="round"></path>
  <path d="M12 18.3162V16.7957" stroke="currentColor" stroke-width="1.5" stroke-linecap="round" stroke-linejoin="round"></path>
  </svg>