<svg style="margin-right: 6px;" width="16" height="16" viewbox="0 0 24 24" fill="none" xmlns="http://www.w3.org/2000/svg">
  <path d="M12.0011 13.3001C11.8711 13.3001 11.7411 13.2701 11.6211 13.2001L2.79106 8.0901C2.44106 7.8801 2.31106 7.4201 2.52106 7.0601C2.73106 6.7001 3.19106 6.5801 3.55106 6.7901L12.0011 11.6801L20.4011 6.8201C20.7611 6.6101 21.2211 6.7401 21.4311 7.0901C21.6411 7.4501 21.5111 7.9101 21.1611 8.1201L12.3911 13.2001C12.2611 13.2601 12.1311 13.3001 12.0011 13.3001Z" fill="currentColor"></path>
  <path d="M12.001 22.36C11.591 22.36 11.251 22.02 11.251 21.61V12.54C11.251 12.13 11.591 11.79 12.001 11.79C12.411 11.79 12.751 12.13 12.751 12.54V21.61C12.751 22.02 12.411 22.36 12.001 22.36Z" fill="currentColor"></path>
  <path d="M12.0009 22.75C11.1209 22.75 10.2509 22.56 9.56087 22.18L4.22087 19.21C2.77087 18.41 1.64087 16.48 1.64087 14.82V9.17C1.64087 7.51 2.77087 5.59 4.22087 4.78L9.56087 1.82C10.9309 1.06 13.0709 1.06 14.4409 1.82L19.7809 4.79C21.2309 5.59 22.3609 7.52 22.3609 9.18V14.83C22.3609 16.49 21.2309 18.41 19.7809 19.22L14.4409 22.18C13.7509 22.56 12.8809 22.75 12.0009 22.75ZM12.0009 2.75C11.3709 2.75 10.7509 2.88 10.2909 3.13L4.95087 6.1C3.99087 6.63 3.14087 8.07 3.14087 9.17V14.82C3.14087 15.92 3.99087 17.36 4.95087 17.9L10.2909 20.87C11.2009 21.38 12.8009 21.38 13.7109 20.87L19.0509 17.9C20.0109 17.36 20.8609 15.93 20.8609 14.82V9.17C20.8609 8.07 20.0109 6.63 19.0509 6.09L13.7109 3.12C13.2509 2.88 12.6309 2.75 12.0009 2.75Z" fill="currentColor"></path>
</svg>