<svg width="20" height="20" viewbox="0 0 240 240" fill="none" xmlns="http://www.w3.org/2000/svg">
  <path d="M0 120C0 186.274 53.7258 240 120 240C186.274 240 240 186.274 240 120C240 53.7258 186.274 0 120 0C53.7258 0 0 53.7258 0 120Z" fill="#1877F2"></path>
  <path d="M194 120C194 79.3 160.7 46 120 46C79.3 46 46 79.3 46 120C46 157 72.825 187.525 107.975 193.075V141.275H89.475V120H107.975V103.35C107.975 84.85 119.075 74.675 135.725 74.675C144.05 74.675 152.375 76.525 152.375 76.525V95.025H143.125C133.875 95.025 131.1 100.575 131.1 106.125V120H151.45L147.75 141.275H130.175V194C167.175 188.45 194 157 194 120Z" fill="white"></path>
</svg>