<svg width="16" height="16" viewbox="0 0 24 24" fill="none" xmlns="http://www.w3.org/2000/svg">
  <path fill-rule="evenodd" clip-rule="evenodd" d="M5.25 3.5C5.25 2.80964 5.80964 2.25 6.5 2.25H17.5C18.1904 2.25 18.75 2.80964 18.75 3.5V6.25H5.25V3.5ZM20.25 3.5V6.25H21.5C22.4665 6.25 23.25 7.0335 23.25 8V18.5C23.25 19.4665 22.4665 20.25 21.5 20.25H20.25V21.5C20.25 22.4665 19.4665 23.25 18.5 23.25H5.5C4.5335 23.25 3.75 22.4665 3.75 21.5V20.25H2.5C1.5335 20.25 0.75 19.4665 0.75 18.5V8C0.75 7.0335 1.5335 6.25 2.5 6.25H3.75V3.5C3.75 1.98122 4.98122 0.75 6.5 0.75H17.5C19.0188 0.75 20.25 1.98122 20.25 3.5ZM21.5 18.75H20.25V17C20.25 15.4812 19.0188 14.25 17.5 14.25H6.5C4.98122 14.25 3.75 15.4812 3.75 17V18.75H2.5C2.36193 18.75 2.25 18.6381 2.25 18.5V8C2.25 7.86193 2.36193 7.75 2.5 7.75H21.5C21.6381 7.75 21.75 7.86193 21.75 8V18.5C21.75 18.6381 21.6381 18.75 21.5 18.75ZM5.25 17C5.25 16.3096 5.80964 15.75 6.5 15.75H17.5C18.1904 15.75 18.75 16.3096 18.75 17V21.5C18.75 21.6381 18.6381 21.75 18.5 21.75H5.5C5.36193 21.75 5.25 21.6381 5.25 21.5V17ZM15.5 9.75C15.0858 9.75 14.75 10.0858 14.75 10.5C14.75 10.9142 15.0858 11.25 15.5 11.25H19.5C19.9142 11.25 20.25 10.9142 20.25 10.5C20.25 10.0858 19.9142 9.75 19.5 9.75H15.5Z" fill="currentColor"></path>
</svg>