<svg style="margin-left: 8px;" width="16" height="16" title="Assigned to a vendor on" class="svgIcon-root" viewbox="0 0 13 14">
  <defs>
    <clippath id="a">
      <path fill="#fff" d="M0 0h13v13.67H0z"></path>
    </clippath>
  </defs>
  <g clip-path="url(#a)">
    <path fill="#333233" d="M11.16 1.33h-1.5V.51a.5.5 0 00-1 0v.83H4.31V.51a.5.5 0 00-1 0v.83h-1.5A1.84 1.84 0 00-.02 3.18v8.66a1.84 1.84 0 001.83 1.84h9.33a1.85 1.85 0 001.84-1.84V3.18a1.85 1.85 0 00-1.82-1.85zm-9.33 1h1.48v.84a.5.5 0 001 0v-.84h4.33v.84a.51.51 0 00.5.5.5.5 0 00.5-.5v-.84h1.5a.85.85 0 01.84.84v1.5h-11v-1.5a.84.84 0 01.85-.84zm9.33 10.34H1.83a.84.84 0 01-.83-.84V5.67h11v6.16a.85.85 0 01-.84.84zm-8-5.52a.65.65 0 00-.47.2.6.6 0 00-.19.47.66.66 0 00.66.67.67.67 0 100-1.34zm3.33 0a.67.67 0 10.016 1.34.67.67 0 00-.016-1.34zm3.34 0a.63.63 0 00-.47.2.65.65 0 00-.2.47.67.67 0 10.67-.67zM3.16 9.82a.65.65 0 00-.47.2.59.59 0 00-.19.47.66.66 0 00.66.66.67.67 0 100-1.33zm3.33 0a.67.67 0 10.01 0h-.01z"></path>
  </g>
</svg>