<svg width="20" height="20" viewbox="0 0 240 240" fill="none" xmlns="http://www.w3.org/2000/svg">
  <path d="M0 120C0 53.7258 53.7258 0 120 0C186.274 0 240 53.7258 240 120C240 186.274 186.274 240 120 240C53.7258 240 0 186.274 0 120Z" fill="black"></path>
  <path d="M106.178 104.472V98.7821C104.229 98.5217 102.247 98.3589 100.2 98.3589C75.7998 98.3269 55.948 118.195 55.948 142.649C55.948 157.639 63.4208 170.907 74.8575 178.939C67.4822 171.037 62.966 160.403 62.966 148.762C62.966 124.666 82.2654 105.025 106.178 104.472Z" fill="#25F4EE"></path>
  <path d="M107.251 168.988C118.135 168.988 127.038 160.306 127.428 149.51L127.46 53.0292H145.07C144.712 51.0456 144.518 48.997 144.518 46.9158H120.475L120.442 143.397C120.052 154.193 111.15 162.875 100.265 162.875C96.8864 162.875 93.7023 162.029 90.8756 160.534C94.5145 165.639 100.493 168.988 107.251 168.988Z" fill="#25F4EE"></path>
  <path d="M177.984 85.7746V80.4095C171.258 80.4095 165.02 78.4257 159.756 74.9787C164.435 80.3444 170.771 84.2467 177.984 85.7746Z" fill="#25F4EE"></path>
  <path d="M159.756 74.9787C154.622 69.0931 151.536 61.4188 151.536 53.0292H145.103C146.76 62.1993 152.218 70.0687 159.756 74.9787Z" fill="#FE2C55"></path>
  <path d="M100.233 122.39C89.0884 122.39 80.0236 131.462 80.0236 142.616C80.0236 150.388 84.4422 157.151 90.8754 160.533C88.4711 157.217 87.0415 153.152 87.0415 148.729C87.0415 137.576 96.1064 128.503 107.251 128.503C109.33 128.503 111.344 128.861 113.229 129.446V104.863C111.279 104.602 109.298 104.44 107.251 104.44C106.893 104.44 106.568 104.472 106.211 104.472V123.333C104.294 122.747 102.312 122.39 100.233 122.39Z" fill="#FE2C55"></path>
  <path d="M177.982 85.7747V104.472C165.506 104.472 153.939 100.473 144.517 93.709V142.649C144.517 167.07 124.665 186.971 100.232 186.971C90.8098 186.971 82.0374 183.979 74.8569 178.939C82.9471 187.621 94.4812 193.084 107.25 193.084C131.65 193.084 151.535 173.216 151.535 148.762V99.8224C160.957 106.586 172.523 110.586 185 110.586V86.5229C182.563 86.5229 180.224 86.2625 177.982 85.7747Z" fill="#FE2C55"></path>
  <path d="M144.517 142.649V93.709C153.939 100.473 165.506 104.472 177.982 104.472V85.7746C170.769 84.2467 164.434 80.3444 159.755 74.9787C152.217 70.0687 146.791 62.1993 145.069 53.0292H127.459L127.427 149.51C127.037 160.306 118.134 168.988 107.25 168.988C100.492 168.988 94.5463 165.639 90.8424 160.566C84.4093 157.152 79.9906 150.421 79.9906 142.649C79.9906 131.495 89.0554 122.422 100.2 122.422C102.279 122.422 104.294 122.78 106.178 123.365V104.505C82.2649 105.025 62.9655 124.666 62.9655 148.762C62.9655 160.403 67.4817 171.005 74.857 178.939C82.0375 183.979 90.8099 186.971 100.232 186.971C124.633 186.971 144.517 167.07 144.517 142.649Z" fill="white"></path>
</svg>