<svg width="20" height="20" viewbox="0 0 24 24" fill="none" xmlns="http://www.w3.org/2000/svg">
  <path fill-rule="evenodd" clip-rule="evenodd" d="M3 1.25C2.0335 1.25 1.25 2.0335 1.25 3V21C1.25 21.9665 2.0335 22.75 3 22.75H6.55556C7.52205 22.75 8.30556 21.9665 8.30556 21V3C8.30556 2.0335 7.52205 1.25 6.55556 1.25H3ZM2.75 3C2.75 2.86193 2.86193 2.75 3 2.75H6.55556C6.69363 2.75 6.80556 2.86193 6.80556 3V21C6.80556 21.1381 6.69363 21.25 6.55556 21.25H3C2.86193 21.25 2.75 21.1381 2.75 21V3ZM9.77777 1.25C9.36356 1.25 9.02777 1.58579 9.02777 2C9.02777 2.41421 9.36356 2.75 9.77777 2.75H21C21.1381 2.75 21.25 2.86193 21.25 3V21C21.25 21.1381 21.1381 21.25 21 21.25H9.77777C9.36356 21.25 9.02777 21.5858 9.02777 22C9.02777 22.4142 9.36356 22.75 9.77777 22.75H21C21.9665 22.75 22.75 21.9665 22.75 21V3C22.75 2.0335 21.9665 1.25 21 1.25H9.77777Z" fill="currentColor"></path>
</svg>