<svg width="16" height="16" viewbox="0 0 24 24" fill="none" xmlns="http://www.w3.org/2000/svg">
  <mask id="mask0_3_67" style="mask-type:alpha" maskunits="userSpaceOnUse" x="0" y="0" width="24" height="24">
    <rect width="24" height="24" fill="currentColor"></rect>
  </mask>
  <g mask="url(#mask0_3_67)">
    <path fill-rule="evenodd" clip-rule="evenodd" d="M18.6624 3.17097C17.4135 1.92207 15.3886 1.92207 14.1397 3.17097L4.71782 12.5928C2.69802 14.6126 2.69802 17.8874 4.71782 19.9072C6.73762 21.927 10.0124 21.927 12.0322 19.9072L21.454 10.4853C21.7469 10.1924 22.2218 10.1924 22.5147 10.4853C22.8076 10.7782 22.8076 11.2531 22.5147 11.546L13.0928 20.9678C10.4872 23.5734 6.26274 23.5734 3.65716 20.9678C1.05158 18.3623 1.05157 14.1378 3.65716 11.5322L13.079 2.11031C14.9137 0.275623 17.8883 0.275624 19.723 2.11031C21.5577 3.945 21.5577 6.91962 19.723 8.75431L10.6501 17.8272C9.58632 18.891 7.86158 18.891 6.79779 17.8272C5.734 16.7634 5.734 15.0387 6.79779 13.9749L14.8238 5.94885C15.1167 5.65596 15.5916 5.65596 15.8845 5.94885C16.1774 6.24175 16.1774 6.71662 15.8845 7.00951L7.85845 15.0356C7.38044 15.5136 7.38044 16.2886 7.85845 16.7666C8.33645 17.2446 9.11145 17.2446 9.58945 16.7666L18.6624 7.69365C19.9113 6.44474 19.9113 4.41987 18.6624 3.17097Z" fill="currentColor"></path>
  </g>
</svg>