<svg width="20" height="20" viewbox="0 0 240 240" fill="none" xmlns="http://www.w3.org/2000/svg">
  <path d="M0 120C0 186.274 53.7258 240 120 240C186.274 240 240 186.274 240 120C240 53.7258 186.274 0 120 0C53.7258 0 0 53.7258 0 120Z" fill="black"></path>
  <path d="M133.89 108.821L188.242 47H175.362L128.168 100.678L90.4749 47H47L104 128.171L47 193H59.8804L109.718 136.314L149.525 193H193L133.887 108.821H133.89ZM116.248 128.886L110.473 120.803L64.5213 56.4877H84.3048L121.388 108.393L127.164 116.475L175.368 183.944H155.585L116.248 128.889V128.886Z" fill="white"></path>
</svg>