<svg width="20" height="20" viewbox="0 0 24 24" fill="none" xmlns="http://www.w3.org/2000/svg">
  <path fill-rule="evenodd" clip-rule="evenodd" d="M2.5 9.5V2.5H9.5V9.5H2.5ZM1 2C1 1.44772 1.44772 1 2 1H10C10.5523 1 11 1.44772 11 2V10C11 10.5523 10.5523 11 10 11H2C1.44772 11 1 10.5523 1 10V2ZM2.5 21.5V14.5H9.5V21.5H2.5ZM1 14C1 13.4477 1.44772 13 2 13H10C10.5523 13 11 13.4477 11 14V22C11 22.5523 10.5523 23 10 23H2C1.44772 23 1 22.5523 1 22V14ZM14.5 2.5V9.5H21.5V2.5H14.5ZM14 1C13.4477 1 13 1.44772 13 2V10C13 10.5523 13.4477 11 14 11H22C22.5523 11 23 10.5523 23 10V2C23 1.44772 22.5523 1 22 1H14ZM14.5 21.5V14.5H21.5V21.5H14.5ZM13 14C13 13.4477 13.4477 13 14 13H22C22.5523 13 23 13.4477 23 14V22C23 22.5523 22.5523 23 22 23H14C13.4477 23 13 22.5523 13 22V14Z" fill="currentColor"></path>
</svg>