<svg style="margin-left: 8px;" width="16" height="16" title="PO Number" class="svgIcon-root" viewbox="0 0 11 13">
  <defs>
    <clippath id="a">
      <path fill="#fff" d="M0 0h10.34v13H0z"></path>
    </clippath>
  </defs>
  <g clip-path="url(#a)">
    <path fill="#333233" d="M9.8 2.47L7.91.58a1.84 1.84 0 00-1.3-.53H1.83A1.83 1.83 0 000 1.88v9.34a1.83 1.83 0 001.83 1.83H8.5a1.83 1.83 0 001.83-1.83V3.77c0-.486-.19-.952-.53-1.3zm-.47 8.75a.83.83 0 01-.83.83H1.83a.83.83 0 01-.83-.83V1.88a.83.83 0 01.83-.83h4.78a.85.85 0 01.59.24l1.89 1.89a.81.81 0 01.24.59v7.45zM5.17 5.05A1.67 1.67 0 003.5 6.72v.66a1.67 1.67 0 103.33 0v-.66A1.67 1.67 0 005.17 5v.05zm.66 2.33a.67.67 0 11-1.33 0v-.66a.67.67 0 111.33 0v.66z"></path>
  </g>
</svg>