<svg style="margin-left: 8px;" width="16" height="16" title="Style Code" class="svgIcon-root" viewbox="0 0 12 13">
  <path fill="#333233" d="M9.84 0H4.5a1.83 1.83 0 00-1.83 1.83v.84h-.83A1.83 1.83 0 000 4.47v6.67a1.83 1.83 0 001.84 1.83h5.33A1.83 1.83 0 009 11.14v-.84h.84a1.83 1.83 0 001.83-1.83V1.8A1.83 1.83 0 009.84 0zM8 11.17a.83.83 0 01-.83.83H1.84a.84.84 0 01-.84-.83v-6.7a.84.84 0 01.84-.83h5.33a.83.83 0 01.83.83v6.7zm2.67-2.67a.83.83 0 01-.83.83H9V4.47a1.83 1.83 0 00-1.83-1.83h-3.5V1.8A.83.83 0 014.5.97h5.34a.83.83 0 01.83.83v6.7zm-4.33-2a.5.5 0 01-.5.5H3.17a.5.5 0 010-1h2.67a.5.5 0 01.5.47v.03zm0 2.67a.51.51 0 01-.5.5H3.17a.5.5 0 010-1h2.67a.5.5 0 01.5.5z"></path>
</svg>