<svg width="20" height="20" viewbox="0 0 240 240" fill="none" xmlns="http://www.w3.org/2000/svg">
  <path d="M0 120C0 186.274 53.7258 240 120 240C186.274 240 240 186.274 240 120C240 53.7258 186.274 0 120 0C53.7258 0 0 53.7258 0 120Z" fill="#FF0000"></path>
  <path d="M194.1 81.6964C192.15 74.8214 187.275 69.9107 180.45 67.9464C168.75 65 119.025 65 119.025 65C119.025 65 70.2751 65 57.6001 67.9464C50.7751 69.9107 45.9 74.8214 43.95 81.6964C42 94.4643 42 120 42 120C42 120 42 145.536 44.925 158.304C46.875 165.179 51.75 170.089 58.575 172.054C70.275 175 120 175 120 175C120 175 168.75 175 181.425 172.054C188.25 170.089 193.125 165.179 195.075 158.304C198 145.536 198 120 198 120C198 120 198 94.4643 194.1 81.6964ZM104.4 143.571V96.4286L145.35 120L104.4 143.571Z" fill="white"></path>
</svg>