<svg width="24" height="24" viewbox="0 0 24 24" fill="none" xmlns="http://www.w3.org/2000/svg">
	<path
		d="M2.02991 8.92078C2.48508 7.5771 3.23487 6.34368 4.22421 5.2984C4.3915 5.12164 4.65397 5.05864 4.88896 5.13885L7.25327 5.94579C7.89426 6.16444 8.59958 5.84568 8.82864 5.23383C8.85116 5.17366 8.86852 5.11186 8.8805 5.0491L9.33094 2.6891C9.37572 2.45445 9.56452 2.26884 9.80892 2.21917C10.524 2.07389 11.2572 2 12 2C12.7423 2 13.4751 2.07381 14.1898 2.21891C14.4341 2.26852 14.6229 2.45402 14.6678 2.68858L15.1195 5.049C15.2416 5.6882 15.8834 6.11187 16.5531 5.99532C16.619 5.98385 16.6837 5.96729 16.7467 5.94582L19.111 5.13885C19.346 5.05864 19.6084 5.12164 19.7757 5.2984C20.7651 6.34368 21.5148 7.5771 21.9701 8.92078C22.0468 9.14746 21.9728 9.39597 21.7825 9.55016L19.8661 11.1032C19.3474 11.5238 19.2839 12.2662 19.7244 12.7615C19.7677 12.8102 19.8152 12.8554 19.8661 12.8968L21.7825 14.4498C21.9728 14.604 22.0468 14.8525 21.9701 15.0792C21.5148 16.423 20.7651 17.6564 19.7757 18.7016C19.6084 18.8783 19.346 18.9413 19.111 18.8611L16.7467 18.0542C16.1058 17.8356 15.4004 18.1544 15.1714 18.7661C15.1488 18.8263 15.1315 18.8881 15.1194 18.9511L14.6678 21.3114C14.6229 21.546 14.4341 21.7314 14.1898 21.7811C13.4751 21.9261 12.7423 22 12 22C11.2572 22 10.524 21.9261 9.80892 21.7808C9.56452 21.7311 9.37572 21.5455 9.33094 21.3109L8.88052 18.951C8.7584 18.3118 8.11655 17.8881 7.4469 18.0047C7.38104 18.0162 7.31629 18.0327 7.25337 18.0542L4.88896 18.8611C4.65397 18.9413 4.3915 18.8783 4.22421 18.7016C3.23487 17.6564 2.48508 16.423 2.02991 15.0792C1.95313 14.8525 2.02717 14.604 2.21744 14.4498L4.13379 12.8968C4.65266 12.4762 4.71612 11.7338 4.27555 11.2385C4.23223 11.1898 4.18482 11.1446 4.13381 11.1032L2.21744 9.55016C2.02717 9.39597 1.95313 9.14746 2.02991 8.92078ZM8.95631 11.9999C8.95631 13.6113 10.3189 14.9175 11.9998 14.9175C13.6807 14.9175 15.0433 13.6113 15.0433 11.9999C15.0433 10.3885 13.6807 9.08225 11.9998 9.08225C10.3189 9.08225 8.95631 10.3885 8.95631 11.9999Z"
		fill="white"></path>
</svg>