<svg width="90" height="37" viewBox="0 0 90 37" fill="none" xmlns="http://www.w3.org/2000/svg">
<path fill-rule="evenodd" clip-rule="evenodd" d="M5.905 33.2061C4.7921 33.2061 4.2251 32.658 4.2251 31.7569C4.2251 30.077 6.0982 29.5123 9.5148 29.1489C9.5148 31.3875 8.0008 33.2061 5.8945 33.2061H5.905ZM7.375 20.6169C4.9328 20.6169 2.1251 21.7655 0.600601 22.9813L1.9928 25.9214C3.215 24.8021 5.191 23.8445 6.9739 23.8445C8.6686 23.8445 9.6051 24.4115 9.6051 25.5537C9.6051 26.3202 8.9856 26.7088 7.8139 26.862C3.4334 27.429 0 28.6387 0 32.0132C0 34.6885 1.9046 36.3077 4.8803 36.3077C7.0054 36.3077 8.8953 35.1274 9.7941 33.5777V35.8876H13.7546V26.2089C13.7546 22.2191 10.9848 20.6084 7.3771 20.6084L7.375 20.6169Z" fill="white"/>
<path fill-rule="evenodd" clip-rule="evenodd" d="M47.125 21.051V35.8682H51.3628V28.7284C51.3628 25.337 53.4164 24.3396 54.8466 24.3396C55.4903 24.3345 56.121 24.521 56.659 24.8751L57.434 20.9586C56.833 20.7183 56.19 20.6019 55.5438 20.6164C53.366 20.6164 51.997 21.5802 51.0939 23.5416V21.051H47.125Z" fill="white"/>
<path fill-rule="evenodd" clip-rule="evenodd" d="M77.072 20.6167C74.832 20.6167 73.156 21.9397 72.284 23.2165C71.476 21.568 69.765 20.6167 67.707 20.6167C65.468 20.6167 63.916 21.8599 63.2 23.2921V21.0514H59.114V35.8686H63.356V28.2395C63.356 25.5095 64.79 24.1887 66.127 24.1887C67.339 24.1887 68.452 24.9721 68.452 26.9942V35.8686H72.686V28.2395C72.686 25.4697 74.084 24.1887 75.485 24.1887C76.606 24.1887 77.795 25.0036 77.795 26.9647V35.8686H82.028V25.625C82.028 22.2967 79.788 20.6167 77.081 20.6167" fill="white"/>
<path fill-rule="evenodd" clip-rule="evenodd" d="M36.8124 21.0515H32.9738V19.5458C32.9738 17.5845 34.0931 17.0259 35.0569 17.0259C35.715 17.0345 36.362 17.1963 36.9468 17.4984L38.253 14.5102C38.253 14.5102 36.9279 13.645 34.5192 13.645C31.8124 13.645 28.7317 15.1717 28.7317 19.9616V21.0515H22.3165V19.5458C22.3165 17.5845 23.4336 17.0259 24.3997 17.0259C25.0589 17.0259 25.708 17.1881 26.2896 17.4984L27.5958 14.5102C26.8167 14.0545 25.5631 13.645 23.8643 13.645C21.1573 13.645 18.0767 15.1717 18.0767 19.9616V21.0515H15.624V24.3191H18.083V35.8688H22.3165V24.3191H28.7403V35.8688H32.9738V24.3191H36.8124V21.0515Z" fill="white"/>
<path d="M43.5696 21.0513H39.3403V35.8621H43.5696V21.0513Z" fill="white"/>
<path fill-rule="evenodd" clip-rule="evenodd" d="M39.4958 18.5333H43.6392C46.0562 10.9336 54.2566 4.25374 64.0091 4.25374C75.8691 4.25374 86.1191 13.2835 86.1191 27.3405C86.1551 30.2259 85.759 33.1005 84.943 35.8682H88.9641L89.0041 35.7296C89.6821 32.9896 90.016 30.1757 89.999 27.3531C89.999 11.677 78.5761 0.394043 64.0171 0.394043C52.5807 0.394043 42.3876 8.33184 39.4982 18.5375L39.4958 18.5333Z" fill="white"/>
</svg>
