<svg width="71" height="28" viewBox="0 0 71 28" fill="none" xmlns="http://www.w3.org/2000/svg">
<path fill-rule="evenodd" clip-rule="evenodd" d="M5.74933 15.7772C3.85524 15.7772 1.65943 16.6826 0.469333 17.6215L1.55886 19.9018C2.51429 19.0299 4.05638 18.2922 5.44762 18.2922C6.77181 18.2922 7.49257 18.7281 7.49257 19.6168C7.49257 20.2204 7.00648 20.5221 6.10134 20.6395C2.68191 21.0754 0 22.0144 0 24.6467C0 26.7257 1.49181 28 3.80495 28C5.46438 28 6.93943 27.0778 7.64343 25.8707V27.6647H10.7276V20.1365C10.7276 17.0347 8.56534 15.7772 5.74933 15.7772ZM4.59276 25.5856C3.72114 25.5856 3.28533 25.1665 3.28533 24.4623C3.28533 23.1545 4.74362 22.7186 7.40876 22.4335C7.42553 24.1772 6.23543 25.5856 4.59276 25.5856ZM39.8095 18.0575V16.1126H36.7253V27.6647H40.0274V22.0982C40.0274 19.4491 41.6198 18.6778 42.7429 18.6778C43.1787 18.6778 43.7653 18.812 44.1509 19.097L44.7543 16.0455C44.2514 15.8275 43.7151 15.7772 43.2793 15.7772C41.5863 15.7772 40.5135 16.5317 39.8095 18.0575ZM60.0747 15.7772C58.3314 15.7772 57.024 16.8168 56.3368 17.806C55.6998 16.515 54.3756 15.7772 52.7665 15.7772C51.0233 15.7772 49.8164 16.7497 49.2465 17.8563V16.1126H46.0617V27.6647H49.3638V21.7126C49.3638 19.5832 50.4869 18.5605 51.5261 18.5605C52.4648 18.5605 53.3364 19.1641 53.3364 20.7401V27.6647H56.6553V21.7126C56.6553 19.5497 57.7448 18.5605 58.8343 18.5605C59.7059 18.5605 60.6278 19.1976 60.6278 20.7233V27.6647H63.9299V19.6838C63.9299 17.085 62.1867 15.7772 60.0747 15.7772ZM22.3939 15.2575V16.1126H17.3821V14.9389C17.3821 13.4132 18.2537 12.9772 19.008 12.9772C19.4438 12.9772 20.0137 13.0778 20.4831 13.3461L21.5055 11.0156C20.9021 10.6635 19.9131 10.3449 18.589 10.3449C16.477 10.3449 14.08 11.5353 14.08 15.2742V16.1293H12.1691V18.6778H14.08V27.6647H17.3821V18.6611H22.3939V27.6647H25.696V18.6611H28.6964V16.1126H25.696V14.9389C25.696 13.4132 26.5676 12.9772 27.3219 12.9772C28.16 12.9772 28.797 13.3461 28.797 13.3461L29.8194 11.0156C29.8194 11.0156 28.7802 10.3449 26.9029 10.3449C24.8076 10.3281 22.3939 11.5186 22.3939 15.2575ZM30.6575 16.1126H33.9596V27.6647H30.6575V16.1126Z" fill="#060809"/>
<path fill-rule="evenodd" clip-rule="evenodd" d="M49.9002 0C40.9829 0 33.0377 6.18683 30.7916 14.1509H34.0267C35.904 8.21557 42.2903 3.01796 49.9002 3.01796C59.1528 3.01796 67.1314 10.0599 67.1314 21.0252C67.1314 23.4898 66.813 25.703 66.2095 27.6647H69.344L69.3775 27.5641C69.8972 25.5353 70.1486 23.3389 70.1486 21.0252C70.1486 8.8024 61.248 0 49.9002 0Z" fill="#0FA0EA"/>
</svg>
