<svg width="1330" height="890" viewBox="0 0 1330 890" fill="none" xmlns="http://www.w3.org/2000/svg">
<rect width="1330" height="890" fill="#E5EFF9"/>
<rect width="1330" height="890" fill="#F3FBFF"/>
<path d="M1000 671.041H992.108L973.787 645.98V671.041H965.606V632.614H974.018L991.82 656.754V632.614H1000V671.041Z" fill="#1F8DBD"/>
<path d="M935.149 671.733C929.35 671.733 924.549 669.87 920.747 666.144C916.983 662.38 915.101 657.618 915.101 651.856C915.101 646.095 916.983 641.352 920.747 637.626C924.549 633.862 929.35 631.98 935.149 631.98C940.987 631.98 945.788 633.843 949.552 637.569C953.355 641.294 955.256 646.057 955.256 651.856C955.256 657.656 953.355 662.419 949.552 666.144C945.788 669.87 940.987 671.733 935.149 671.733ZM926.681 660.902C928.831 663.283 931.654 664.473 935.149 664.473C938.645 664.473 941.468 663.283 943.618 660.902C945.769 658.52 946.845 655.505 946.845 651.856C946.845 648.208 945.769 645.193 943.618 642.811C941.468 640.43 938.645 639.24 935.149 639.24C931.654 639.24 928.831 640.43 926.681 642.811C924.568 645.193 923.512 648.208 923.512 651.856C923.512 655.505 924.568 658.52 926.681 660.902Z" fill="#1F8DBD"/>
<path d="M886.488 671.733C880.689 671.733 875.888 669.87 872.085 666.144C868.321 662.38 866.439 657.618 866.439 651.856C866.439 646.095 868.321 641.352 872.085 637.626C875.888 633.862 880.689 631.98 886.488 631.98C892.326 631.98 897.127 633.843 900.891 637.569C904.694 641.294 906.595 646.057 906.595 651.856C906.595 657.656 904.694 662.419 900.891 666.144C897.127 669.87 892.326 671.733 886.488 671.733ZM878.019 660.902C880.17 663.283 882.993 664.473 886.488 664.473C889.983 664.473 892.806 663.283 894.957 660.902C897.108 658.52 898.183 655.505 898.183 651.856C898.183 648.208 897.108 645.193 894.957 642.811C892.806 640.43 889.983 639.24 886.488 639.24C882.993 639.24 880.17 640.43 878.019 642.811C875.907 645.193 874.851 648.208 874.851 651.856C874.851 655.505 875.907 658.52 878.019 660.902Z" fill="#1F8DBD"/>
<path d="M842.784 671.733C835.947 671.733 830.532 669.697 826.537 665.626L830.973 659.404C834.276 662.86 838.347 664.589 843.187 664.589C845.299 664.589 846.932 664.185 848.084 663.379C849.275 662.534 849.87 661.516 849.87 660.325C849.87 659.288 849.313 658.424 848.199 657.733C847.124 657.042 845.76 656.542 844.109 656.235C842.496 655.928 840.729 655.486 838.808 654.91C836.888 654.334 835.102 653.681 833.45 652.951C831.837 652.221 830.474 651.069 829.36 649.494C828.285 647.92 827.747 645.999 827.747 643.733C827.747 640.43 829.072 637.665 831.722 635.437C834.372 633.171 837.906 632.038 842.323 632.038C848.43 632.038 853.423 633.824 857.302 637.396L852.75 643.388C849.716 640.584 845.991 639.182 841.574 639.182C839.845 639.182 838.501 639.528 837.541 640.219C836.581 640.91 836.101 641.851 836.101 643.042C836.101 643.964 836.638 644.751 837.714 645.404C838.828 646.019 840.191 646.479 841.804 646.787C843.456 647.094 845.222 647.555 847.104 648.169C849.025 648.745 850.792 649.418 852.405 650.186C854.056 650.916 855.42 652.087 856.495 653.7C857.609 655.275 858.166 657.176 858.166 659.404C858.166 663.091 856.841 666.067 854.191 668.333C851.579 670.599 847.777 671.733 842.784 671.733Z" fill="#1F8DBD"/>
<path d="M782.314 671.79C776.553 671.79 771.695 669.947 767.739 666.259C763.821 662.572 761.862 657.771 761.862 651.856C761.862 645.903 763.821 641.102 767.739 637.454C771.695 633.805 776.553 631.98 782.314 631.98C789.305 631.98 794.605 634.842 798.215 640.565L791.417 644.252C790.495 642.792 789.228 641.602 787.615 640.68C786.04 639.72 784.273 639.24 782.314 639.24C778.819 639.24 775.939 640.43 773.673 642.811C771.407 645.193 770.274 648.208 770.274 651.856C770.274 655.505 771.407 658.52 773.673 660.902C775.939 663.283 778.819 664.473 782.314 664.473C783.928 664.473 785.483 664.185 786.981 663.609C788.479 663.033 789.65 662.342 790.495 661.535V656.926H780.356V649.782H798.676V664.531C794.336 669.37 788.882 671.79 782.314 671.79Z" fill="#1F8DBD"/>
<path d="M751.521 671.041H743.628L725.308 645.98V671.041H717.127V632.614H725.538L743.34 656.754V632.614H751.521V671.041Z" fill="#1F8DBD"/>
<path d="M704.889 671.041H696.708V632.614H704.889V671.041Z" fill="#1F8DBD"/>
<path d="M684.468 671.041H676.229V644.137L665.398 671.041H661.826L650.995 644.137V671.041H642.814V632.614H654.279L663.612 655.832L672.945 632.614H684.468V671.041Z" fill="#1F8DBD"/>
<path d="M612.357 671.733C606.558 671.733 601.757 669.87 597.955 666.144C594.191 662.38 592.309 657.618 592.309 651.856C592.309 646.095 594.191 641.352 597.955 637.626C601.757 633.862 606.558 631.98 612.357 631.98C618.195 631.98 622.996 633.843 626.76 637.569C630.563 641.294 632.464 646.057 632.464 651.856C632.464 657.656 630.563 662.419 626.76 666.144C622.996 669.87 618.195 671.733 612.357 671.733ZM603.889 660.902C606.039 663.283 608.862 664.473 612.357 664.473C615.853 664.473 618.676 663.283 620.826 660.902C622.977 658.52 624.053 655.505 624.053 651.856C624.053 648.208 622.977 645.193 620.826 642.811C618.676 640.43 615.853 639.24 612.357 639.24C608.862 639.24 606.039 640.43 603.889 642.811C601.776 645.193 600.72 648.208 600.72 651.856C600.72 655.505 601.776 658.52 603.889 660.902Z" fill="#1F8DBD"/>
<path d="M568.601 671.733C562.763 671.733 557.885 669.889 553.967 666.202C550.088 662.476 548.148 657.694 548.148 651.856C548.148 646.019 550.088 641.256 553.967 637.569C557.885 633.843 562.763 631.98 568.601 631.98C575.783 631.98 581.141 635.111 584.674 641.371L577.646 644.828C576.801 643.215 575.552 641.89 573.901 640.853C572.288 639.777 570.521 639.24 568.601 639.24C565.105 639.24 562.225 640.43 559.959 642.811C557.693 645.193 556.56 648.208 556.56 651.856C556.56 655.505 557.693 658.52 559.959 660.902C562.225 663.283 565.105 664.473 568.601 664.473C570.521 664.473 572.288 663.955 573.901 662.918C575.552 661.881 576.801 660.537 577.646 658.885L584.674 662.284C581.025 668.583 575.668 671.733 568.601 671.733Z" fill="#1F8DBD"/>
<path d="M519.638 671.041H492.445V632.614H519.638V639.816H500.626V647.939H519.235V655.14H500.626V663.84H519.638V671.041Z" fill="#1F8DBD"/>
<path d="M464.98 671.79C459.219 671.79 454.361 669.947 450.405 666.259C446.487 662.572 444.528 657.771 444.528 651.856C444.528 645.903 446.487 641.102 450.405 637.454C454.361 633.805 459.219 631.98 464.98 631.98C471.971 631.98 477.271 634.842 480.881 640.565L474.083 644.252C473.161 642.792 471.894 641.602 470.281 640.68C468.706 639.72 466.939 639.24 464.98 639.24C461.485 639.24 458.605 640.43 456.339 642.811C454.073 645.193 452.94 648.208 452.94 651.856C452.94 655.505 454.073 658.52 456.339 660.902C458.605 663.283 461.485 664.473 464.98 664.473C466.594 664.473 468.149 664.185 469.647 663.609C471.145 663.033 472.316 662.342 473.161 661.535V656.926H463.022V649.782H481.342V664.531C477.002 669.37 471.548 671.79 464.98 671.79Z" fill="#1F8DBD"/>
<path d="M440.184 671.041H430.851L428.489 664.531H412.012L409.592 671.041H400.259L415.123 632.614H425.377L440.184 671.041ZM426.242 657.33L420.25 640.795L414.258 657.33H426.242Z" fill="#1F8DBD"/>
<path d="M392.109 671.041H383.871V644.137L373.04 671.041H369.468L358.637 644.137V671.041H350.456V632.614H361.921L371.254 655.832L380.587 632.614H392.109V671.041Z" fill="#1F8DBD"/>
<path d="M338.218 671.041H330.037V632.614H338.218V671.041Z" fill="#1F8DBD"/>
<rect x="436" y="217" width="459" height="311" stroke="#1F8DBD" stroke-width="6"/>
<path d="M697.757 528H462.243L580 410.243L697.757 528Z" fill="#C2E4F7" stroke="#1F8DBD" stroke-width="6"/>
<path d="M890.757 528H599.243L745 382.243L890.757 528Z" fill="#C2E4F7" stroke="#1F8DBD" stroke-width="6"/>
<circle cx="507" cy="282" r="25" fill="#C2E4F7" stroke="#1F8DBD" stroke-width="6"/>
</svg>
