<svg width="256" height="256" viewBox="0 0 256 256" fill="none" xmlns="http://www.w3.org/2000/svg">
<rect width="256" height="256" rx="128" fill="#0095C6"/>
<path d="M227.602 153.154C227.088 153.154 226.628 153.071 226.221 152.904C225.814 152.737 225.487 152.49 225.24 152.164C225 151.837 224.873 151.443 224.86 150.983H226.681C226.708 151.243 226.798 151.443 226.951 151.583C227.105 151.717 227.305 151.783 227.552 151.783C227.805 151.783 228.005 151.727 228.152 151.613C228.299 151.493 228.372 151.33 228.372 151.123C228.372 150.949 228.312 150.806 228.192 150.693C228.079 150.579 227.935 150.486 227.762 150.412C227.595 150.339 227.355 150.256 227.041 150.162C226.588 150.022 226.217 149.882 225.931 149.742C225.644 149.602 225.397 149.395 225.19 149.121C224.983 148.848 224.88 148.491 224.88 148.051C224.88 147.397 225.117 146.887 225.59 146.52C226.064 146.146 226.681 145.959 227.442 145.959C228.216 145.959 228.839 146.146 229.313 146.52C229.787 146.887 230.04 147.4 230.073 148.061H228.222C228.209 147.834 228.125 147.657 227.972 147.53C227.819 147.397 227.622 147.33 227.382 147.33C227.175 147.33 227.008 147.387 226.881 147.5C226.755 147.607 226.691 147.764 226.691 147.971C226.691 148.197 226.798 148.374 227.011 148.501C227.225 148.628 227.558 148.765 228.012 148.911C228.466 149.065 228.833 149.211 229.113 149.352C229.4 149.492 229.647 149.695 229.853 149.962C230.06 150.229 230.164 150.572 230.164 150.993C230.164 151.393 230.06 151.757 229.853 152.083C229.653 152.41 229.36 152.671 228.973 152.864C228.586 153.057 228.129 153.154 227.602 153.154Z" fill="white"/>
<path d="M216.354 147.43V148.851H218.645V150.172H216.354V151.713H218.946V153.084H214.643V146.059H218.946V147.43H216.354Z" fill="white"/>
<path d="M208.405 146.059V153.084H206.693V150.192H204.032V153.084H202.32V146.059H204.032V148.811H206.693V146.059H208.405Z" fill="white"/>
<path d="M189.403 149.562C189.403 148.868 189.553 148.251 189.854 147.71C190.154 147.163 190.571 146.74 191.104 146.44C191.645 146.133 192.255 145.979 192.936 145.979C193.77 145.979 194.484 146.199 195.077 146.64C195.671 147.08 196.068 147.68 196.268 148.441H194.387C194.247 148.147 194.047 147.924 193.786 147.77C193.533 147.617 193.243 147.54 192.916 147.54C192.389 147.54 191.962 147.724 191.635 148.091C191.308 148.458 191.145 148.948 191.145 149.562C191.145 150.175 191.308 150.666 191.635 151.033C191.962 151.4 192.389 151.583 192.916 151.583C193.243 151.583 193.533 151.506 193.786 151.353C194.047 151.2 194.247 150.976 194.387 150.683H196.268C196.068 151.443 195.671 152.043 195.077 152.484C194.484 152.917 193.77 153.134 192.936 153.134C192.255 153.134 191.645 152.984 191.104 152.684C190.571 152.377 190.154 151.953 189.854 151.413C189.553 150.873 189.403 150.256 189.403 149.562Z" fill="white"/>
<path d="M183.832 146.059V147.43H181.97V153.084H180.259V147.43H178.398V146.059H183.832Z" fill="white"/>
<path d="M170.769 151.843H168.148L167.727 153.084H165.936L168.478 146.059H170.459L173.001 153.084H171.19L170.769 151.843ZM170.329 150.522L169.458 147.951L168.598 150.522H170.329Z" fill="white"/>
<path d="M160.535 146.059L158.703 153.084H156.632L155.511 148.461L154.35 153.084H152.279L150.498 146.059H152.329L153.34 151.173L154.59 146.059H156.472L157.673 151.173L158.693 146.059H160.535Z" fill="white"/>
<path d="M136.13 153.084L135.48 152.454C134.832 152.947 134.059 153.194 133.158 153.194C132.618 153.194 132.147 153.108 131.747 152.934C131.347 152.754 131.036 152.504 130.816 152.184C130.603 151.857 130.496 151.476 130.496 151.043C130.496 150.602 130.613 150.206 130.846 149.852C131.087 149.492 131.443 149.198 131.917 148.971C131.744 148.758 131.62 148.554 131.547 148.361C131.473 148.161 131.437 147.944 131.437 147.71C131.437 147.377 131.523 147.073 131.697 146.8C131.87 146.526 132.121 146.313 132.447 146.159C132.781 145.999 133.175 145.919 133.628 145.919C134.089 145.919 134.479 146.003 134.799 146.169C135.119 146.336 135.359 146.56 135.52 146.84C135.68 147.12 135.753 147.427 135.74 147.761H134.129C134.135 147.58 134.089 147.444 133.989 147.35C133.895 147.25 133.768 147.2 133.608 147.2C133.448 147.2 133.315 147.247 133.208 147.34C133.101 147.434 133.048 147.554 133.048 147.7C133.048 147.841 133.091 147.987 133.178 148.141C133.271 148.294 133.415 148.471 133.608 148.671L135.319 150.342C135.333 150.309 135.349 150.269 135.369 150.222C135.396 150.176 135.423 150.122 135.45 150.062L135.82 149.432H137.531L137.051 150.302C136.871 150.696 136.664 151.069 136.43 151.423L138.121 153.084H136.13ZM133.238 151.813C133.685 151.813 134.082 151.687 134.429 151.433L132.868 149.922C132.387 150.169 132.147 150.502 132.147 150.923C132.147 151.176 132.244 151.39 132.437 151.563C132.638 151.73 132.904 151.813 133.238 151.813Z" fill="white"/>
<path d="M115.014 153.154C114.501 153.154 114.04 153.071 113.633 152.904C113.226 152.737 112.9 152.49 112.653 152.164C112.413 151.837 112.286 151.443 112.272 150.983H114.094C114.12 151.243 114.21 151.443 114.364 151.583C114.517 151.717 114.717 151.783 114.964 151.783C115.218 151.783 115.418 151.727 115.565 151.613C115.712 151.493 115.785 151.33 115.785 151.123C115.785 150.949 115.725 150.806 115.605 150.693C115.491 150.579 115.348 150.486 115.174 150.412C115.008 150.339 114.768 150.256 114.454 150.162C114 150.022 113.63 149.882 113.343 149.742C113.056 149.602 112.81 149.395 112.603 149.121C112.396 148.848 112.292 148.491 112.292 148.051C112.292 147.397 112.529 146.887 113.003 146.52C113.477 146.146 114.094 145.959 114.854 145.959C115.628 145.959 116.252 146.146 116.726 146.52C117.199 146.887 117.453 147.4 117.486 148.061H115.635C115.621 147.834 115.538 147.657 115.385 147.53C115.231 147.397 115.034 147.33 114.794 147.33C114.587 147.33 114.421 147.387 114.294 147.5C114.167 147.607 114.104 147.764 114.104 147.971C114.104 148.197 114.21 148.374 114.424 148.501C114.637 148.628 114.971 148.765 115.425 148.911C115.878 149.065 116.245 149.211 116.525 149.352C116.812 149.492 117.059 149.695 117.266 149.962C117.473 150.229 117.576 150.572 117.576 150.993C117.576 151.393 117.473 151.757 117.266 152.083C117.066 152.41 116.772 152.671 116.385 152.864C115.998 153.057 115.541 153.154 115.014 153.154Z" fill="white"/>
<path d="M102.83 146.059C103.571 146.059 104.218 146.206 104.771 146.5C105.325 146.793 105.752 147.207 106.052 147.74C106.359 148.267 106.513 148.878 106.513 149.572C106.513 150.259 106.359 150.869 106.052 151.403C105.752 151.937 105.322 152.35 104.761 152.644C104.208 152.937 103.564 153.084 102.83 153.084H100.198V146.059H102.83ZM102.72 151.603C103.367 151.603 103.871 151.426 104.231 151.073C104.591 150.719 104.771 150.219 104.771 149.572C104.771 148.925 104.591 148.421 104.231 148.061C103.871 147.7 103.367 147.52 102.72 147.52H101.909V151.603H102.72Z" fill="white"/>
<path d="M93.9545 153.084H92.2433L89.3814 148.751V153.084H87.6702V146.059H89.3814L92.2433 150.412V146.059H93.9545V153.084Z" fill="white"/>
<path d="M78.122 153.154C77.4616 153.154 76.8545 153.001 76.3008 152.694C75.7537 152.387 75.3167 151.96 74.9899 151.413C74.6696 150.859 74.5095 150.239 74.5095 149.552C74.5095 148.865 74.6696 148.247 74.9899 147.7C75.3167 147.153 75.7537 146.726 76.3008 146.42C76.8545 146.113 77.4616 145.959 78.122 145.959C78.7825 145.959 79.3862 146.113 79.9333 146.42C80.487 146.726 80.9206 147.153 81.2342 147.7C81.5544 148.247 81.7145 148.865 81.7145 149.552C81.7145 150.239 81.5544 150.859 81.2342 151.413C80.914 151.96 80.4803 152.387 79.9333 152.694C79.3862 153.001 78.7825 153.154 78.122 153.154ZM78.122 151.593C78.6824 151.593 79.1294 151.406 79.4629 151.033C79.8032 150.659 79.9733 150.165 79.9733 149.552C79.9733 148.931 79.8032 148.438 79.4629 148.071C79.1294 147.697 78.6824 147.51 78.122 147.51C77.555 147.51 77.1013 147.694 76.7611 148.061C76.4275 148.428 76.2607 148.925 76.2607 149.552C76.2607 150.172 76.4275 150.669 76.7611 151.043C77.1013 151.41 77.555 151.593 78.122 151.593Z" fill="white"/>
<path d="M68.5659 146.059V153.084H66.8547V148.871L65.2836 153.084H63.9026L62.3215 148.861V153.084H60.6104V146.059H62.6318L64.6031 150.923L66.5545 146.059H68.5659Z" fill="white"/>
<path d="M52.6019 151.843H49.9801L49.5598 153.084H47.7686L50.3103 146.059H52.2917L54.8334 153.084H53.0222L52.6019 151.843ZM52.1616 150.522L51.291 147.951L50.4304 150.522H52.1616Z" fill="white"/>
<path d="M41.9851 146.059V153.084H40.2739V146.059H41.9851Z" fill="white"/>
<path d="M30.6318 146.059C31.3723 146.059 32.0195 146.206 32.5732 146.5C33.1269 146.793 33.5538 147.207 33.8541 147.74C34.1609 148.267 34.3144 148.878 34.3144 149.572C34.3144 150.259 34.1609 150.869 33.8541 151.403C33.5538 151.937 33.1235 152.35 32.5632 152.644C32.0094 152.937 31.3657 153.084 30.6318 153.084H28V146.059H30.6318ZM30.5217 151.603C31.1689 151.603 31.6725 151.426 32.0328 151.073C32.393 150.719 32.5732 150.219 32.5732 149.572C32.5732 148.925 32.393 148.421 32.0328 148.061C31.6725 147.7 31.1689 147.52 30.5217 147.52H29.7112V151.603H30.5217Z" fill="white"/>
<path d="M32.4931 133.518V104.118H28V102.975H42.7872V104.118H38.2942V132.375H42.7872V133.518H32.4931Z" fill="white"/>
<path d="M77.5742 126.087C77.3515 126.734 77.0991 127.37 76.8156 127.992C76.5392 128.654 76.2099 129.291 75.8298 129.898C75.5047 130.432 75.1165 130.925 74.6734 131.365C73.7412 132.297 72.5957 132.984 71.3365 133.366C70.0701 133.747 68.7532 133.934 67.4314 133.918C65.4515 133.944 63.4962 133.473 61.7437 132.546C60.0369 131.629 58.5184 130.394 57.2697 128.907C56.0134 127.396 55.0203 125.682 54.3312 123.839C53.6345 122.014 53.2749 120.077 53.2695 118.122C53.2545 116.033 53.6006 113.957 54.2933 111.987C55.0193 110.047 56.114 108.267 57.5161 106.747C58.8084 105.292 60.374 104.107 62.1231 103.26C63.8995 102.416 65.8452 101.992 67.8104 102.022C69.0977 102.012 70.3783 102.212 71.6023 102.613C72.7931 103.036 73.8933 103.682 74.8441 104.518L76.7395 102.613H77.7636V111.339H76.4179C76.3148 110.726 76.169 110.121 75.9815 109.529C75.745 108.916 75.4734 108.318 75.1657 107.738C74.8993 107.163 74.5686 106.619 74.1804 106.119C73.7869 105.631 73.3274 105.201 72.8153 104.842C72.0369 104.341 71.2036 103.932 70.3319 103.622C69.4633 103.334 68.5546 103.186 67.64 103.184C66.314 103.135 65.001 103.458 63.8482 104.118C62.8786 104.726 62.0717 105.563 61.4973 106.557C60.873 107.614 60.443 108.776 60.2273 109.987C60.0245 111.247 59.9233 112.521 59.9239 113.797C59.9239 114.826 59.9239 116.084 59.8099 117.608C59.7342 119.1 59.7342 120.594 59.8099 122.086C59.8739 123.565 60.0581 125.038 60.3599 126.487C60.5915 127.786 61.1098 129.017 61.8767 130.088C62.4894 130.94 63.2953 131.632 64.2271 132.108C65.1295 132.563 66.1191 132.817 67.128 132.851C69.2163 132.953 71.2743 132.319 72.9483 131.06C74.0189 130.249 74.8616 129.172 75.3935 127.935C75.929 126.735 76.3665 125.492 76.7019 124.22H78.0476C77.9455 124.866 77.7932 125.503 77.5929 126.125" fill="white"/>
<path d="M153.126 128.507C152.608 129.566 151.848 130.487 150.908 131.194C149.734 132.011 148.404 132.575 147.003 132.851C145.596 133.121 144.169 133.261 142.737 133.27H131.115V103.927H126.585V102.708H141.751C143.148 102.714 144.543 102.828 145.921 103.051C147.325 103.258 148.671 103.743 149.884 104.48C150.769 105.023 151.495 105.793 151.989 106.709C152.469 107.574 152.742 108.54 152.785 109.529C152.808 110.511 152.62 111.485 152.235 112.387C151.808 113.342 151.157 114.179 150.339 114.826C149.45 115.626 148.403 116.229 147.267 116.598C146.129 116.963 144.962 117.237 143.78 117.417C144.915 117.533 146.038 117.75 147.135 118.065C148.272 118.374 149.358 118.849 150.358 119.475C151.323 120.059 152.151 120.845 152.785 121.781C153.443 122.765 153.781 123.93 153.751 125.115C153.792 126.278 153.579 127.436 153.126 128.507ZM146.377 107.548C146.243 106.756 145.917 106.01 145.429 105.375C144.964 104.813 144.344 104.402 143.647 104.194C142.895 103.964 142.119 103.823 141.334 103.775C140.519 103.775 139.723 103.775 138.927 103.775C138.13 103.775 137.448 103.775 136.898 103.775V116.903C138.415 116.903 139.779 116.903 140.954 116.903C142 116.899 143.032 116.679 143.989 116.255C144.837 115.827 145.508 115.112 145.884 114.236C146.391 112.899 146.617 111.472 146.548 110.044C146.546 109.225 146.469 108.409 146.32 107.605L146.377 107.548ZM143.913 118.485C143.159 118.221 142.375 118.055 141.581 117.989C140.767 117.922 139.949 117.922 139.135 117.989C138.301 117.989 137.561 117.989 136.898 117.989V132.127H142.908C143.698 132.142 144.471 131.895 145.107 131.422C145.722 130.906 146.208 130.254 146.528 129.517C146.881 128.702 147.123 127.843 147.249 126.964C147.353 126.046 147.353 125.119 147.249 124.201C147.164 123.328 146.993 122.466 146.738 121.628C146.524 120.932 146.176 120.284 145.713 119.723C145.204 119.138 144.549 118.698 143.817 118.446" fill="white"/>
<path d="M192.594 111.949C191.895 110.121 190.882 108.431 189.598 106.957C188.404 105.552 186.965 104.377 185.352 103.489C183.736 102.604 181.939 102.099 180.1 102.013C178.261 101.927 176.427 102.263 174.735 102.994C172.763 103.855 171.011 105.159 169.616 106.805C166.836 109.845 165.324 113.841 165.389 117.97C165.324 122.099 166.836 126.095 169.616 129.136C171.011 130.782 172.763 132.085 174.735 132.946C176.444 133.661 178.29 133.986 180.139 133.899C181.957 133.827 183.737 133.352 185.352 132.508C186.999 131.63 188.47 130.455 189.693 129.04C190.973 127.571 191.986 125.888 192.689 124.067C193.439 122.137 193.819 120.081 193.807 118.008C193.819 115.942 193.439 113.892 192.689 111.968L192.594 111.949ZM187.001 123.401C186.994 124.633 186.886 125.863 186.678 127.078C186.475 128.286 185.966 129.421 185.2 130.374C184.561 131.25 183.677 131.913 182.66 132.28C181.646 132.625 180.583 132.798 179.513 132.794C178.258 132.839 177.011 132.584 175.872 132.051C174.948 131.578 174.159 130.877 173.579 130.012C172.989 129.118 172.583 128.114 172.384 127.059C172.151 125.867 172.037 124.654 172.044 123.439V112.54C172.047 111.319 172.16 110.101 172.384 108.9C172.595 107.683 173.103 106.537 173.864 105.566C174.493 104.698 175.364 104.035 176.366 103.661C177.374 103.327 178.432 103.166 179.493 103.184C180.744 103.139 181.987 103.4 183.115 103.946C184.021 104.415 184.791 105.11 185.352 105.966C185.948 106.859 186.362 107.864 186.565 108.92C186.815 110.11 186.935 111.324 186.925 112.54L187.001 123.401Z" fill="white"/>
<path d="M215.156 133.27V132.127H219.819L212.672 120.58L203.99 133.308H202.397L211.857 119.399L202.454 103.851H198.984V102.708H208.957V103.851L215.307 114.35L222.492 103.851H222.549V102.708H228.331V103.851H224.047L216.046 115.55L226.587 132.127H230V133.27H215.156Z" fill="white"/>
<path d="M111.264 129.631C110.525 130.582 109.523 131.292 108.383 131.67C107.107 132.062 105.773 132.23 104.439 132.165H99.3775V118.142C100.762 118.142 102.146 118.142 103.51 118.046C104.6 117.961 105.697 118.065 106.752 118.351C107.792 118.611 108.714 119.215 109.368 120.066C110.002 121.026 110.339 122.153 110.336 123.305H111.681V113.207H110.373C110.373 113.359 110.373 113.511 110.373 113.626C110.334 113.826 110.264 114.019 110.165 114.197L109.805 114.712C109.634 114.912 109.476 115.122 109.33 115.341C108.818 116.01 108.085 116.476 107.264 116.655C106.447 116.923 105.6 117.084 104.742 117.132C103.739 117.189 102.732 117.189 101.728 117.132C100.743 117.132 99.9652 117.017 99.4155 117.017V103.927C101.311 103.927 102.998 103.927 104.477 103.927C105.81 103.872 107.143 104.04 108.421 104.423C109.561 104.801 110.563 105.51 111.302 106.462C112.177 107.723 112.79 109.149 113.103 110.653H114.488L114.165 102.708H89.1023V103.927H93.5952V132.127H89.1023V133.27H114.165L114.449 125.82H112.952C112.645 127.19 112.072 128.485 111.264 129.631Z" fill="white"/>
</svg>
