<svg xmlns="http://www.w3.org/2000/svg" width="80" height="23" viewBox="0 0 80 23" fill="none">
  <path d="M59.9499 7.77197L62.9279 11.054L65.7949 7.77197H71.9169L65.9339 14.5L71.9989 21.283H65.6299L62.6799 17.975L59.7569 21.283H53.6069L59.6189 14.528L53.6069 7.77197H59.9499Z" fill="#FF5900"/>
  <path d="M53.6069 7.772V12.337H46.7979V16.526H53.6069V21.283H41.7939V0H53.6069V4.744H46.7979V7.772H53.6069Z" fill="#FF5900"/>
  <path d="M36.811 0V8.71H36.756C35.652 7.442 34.274 7.001 32.675 7.001C29.399 7.001 26.931 9.229 26.065 12.173C25.076 8.929 22.528 6.94 18.75 6.94C15.682 6.94 13.259 8.317 11.995 10.561V7.772H5.653V4.744H12.574V0H0V21.283H5.653V12.337H11.288C11.12 12.994 11.03 13.698 11.03 14.441C11.03 18.88 14.422 21.996 18.75 21.996C22.39 21.996 24.789 20.287 26.057 17.172H21.212C20.557 18.109 20.06 18.386 18.75 18.386C17.231 18.386 15.921 17.061 15.921 15.49H25.786C26.214 19.016 28.961 22.057 32.73 22.057C34.356 22.057 35.845 21.257 36.755 19.907H36.81V21.285H41.793V0H36.811ZM16.079 12.4C16.393 11.048 17.442 10.165 18.751 10.165C20.192 10.165 21.187 11.021 21.449 12.4C21.559 12.4 16.079 12.4 16.079 12.4ZM33.786 18.043C31.949 18.043 30.807 16.331 30.807 14.544C30.807 12.634 31.8 10.797 33.786 10.797C35.845 10.797 36.665 12.634 36.665 14.544C36.665 16.355 35.796 18.043 33.786 18.043Z" fill="white"/>
  <path d="M75 20V17H76.5009C76.7882 17 77.0334 17.0405 77.2365 17.1216C77.4409 17.2017 77.5963 17.3154 77.7028 17.4629C77.8105 17.6094 77.8644 17.7817 77.8644 17.98C77.8644 18.1792 77.8099 18.3506 77.7009 18.4941C77.592 18.6367 77.4341 18.7461 77.2272 18.8223C77.0217 18.8984 76.7728 18.9365 76.4805 18.9365H75.4755V18.4268H76.3505C76.504 18.4268 76.6316 18.4102 76.7331 18.377C76.8347 18.3438 76.9102 18.2939 76.9598 18.2275C77.0105 18.1611 77.0359 18.0786 77.0359 17.98C77.0359 17.8804 77.0105 17.7964 76.9598 17.728C76.9102 17.6597 76.8341 17.6079 76.7313 17.5728C76.6297 17.5366 76.5015 17.5186 76.3467 17.5186H75.8043V20H75ZM77.0545 18.6348L78 20H77.1121L76.187 18.6348H77.0545Z" fill="#FF5900"/>
  <circle cx="76.5" cy="18.5" r="3" stroke="#FF5900"/>
  </svg>