<svg width="90" height="90" viewBox="0 0 90 90" fill="none" xmlns="http://www.w3.org/2000/svg">
<path d="M45.6027 0.00414382C42.954 -0.0316441 40.3072 0.164436 37.6927 0.590142C28.0697 2.18114 19.6877 6.55015 12.7917 13.5691C10.4437 15.9591 8.94368 17.8201 7.21668 20.4921C2.64968 27.5581 0.231679 35.3771 0.0156789 43.7821C-0.219321 52.8851 2.19068 61.6151 7.02268 69.1481C13.5307 79.2941 23.7487 86.4651 35.2957 88.9781C37.0137 89.3521 40.0997 89.8271 41.6397 89.9511H41.6977C43.4027 90.0811 48.8197 89.9361 50.5007 89.7181C60.7407 88.3781 69.5877 84.0411 76.8367 76.8041C83.9907 69.6621 88.3047 60.8521 89.7417 50.4741C90.0847 47.9981 90.0857 41.9741 89.7447 39.4891C89.4217 37.1341 88.8537 34.3551 88.3107 32.4921C85.9903 24.5097 81.5091 17.3237 75.3618 11.7278C69.2146 6.1318 61.6404 2.34347 53.4757 0.781121C50.8792 0.291624 48.2447 0.0316426 45.6027 0.00414382ZM47.3327 1.89813C50.6117 2.09313 54.1327 2.67812 57.1567 3.55212C57.9507 3.78212 59.0767 4.16212 60.0037 4.50012C60.4367 4.65812 60.8107 4.8021 61.0997 4.9201C61.0177 5.1341 60.9307 5.35912 60.8007 5.67712C60.4647 6.50112 59.9887 7.6291 59.4567 8.8551C58.9986 9.91301 58.5346 10.9684 58.0647 12.0211L57.8567 12.4781C57.7207 12.3461 57.6237 12.2551 57.4507 12.0861C56.5267 11.1795 55.6073 10.2682 54.6927 9.35211C52.2832 6.94307 49.8889 4.51905 47.5097 2.08013L47.3327 1.89813ZM42.6407 1.90814L41.0037 3.5241C39.3557 5.1501 36.7437 7.72413 35.1997 9.24413C33.2127 11.2011 32.3157 12.0801 31.8037 12.5461L31.4587 11.7561C30.491 9.53201 29.534 7.30335 28.5877 5.07012C28.9067 4.91712 29.3907 4.71814 29.9757 4.50414C31.3695 4.00111 32.7864 3.56458 34.2217 3.1961C37.0897 2.4661 39.6627 2.08314 42.6407 1.90814ZM45.0007 2.19311L50.8467 8.09509C52.3444 9.60673 53.8371 11.1235 55.3247 12.6451C55.8367 13.1681 56.2227 13.5681 56.5347 13.8931C56.2867 14.0181 56.0567 14.1331 55.7057 14.3061C54.6757 14.8131 53.2507 15.5001 51.6847 16.2461C49.5303 17.2727 47.3749 18.2974 45.2187 19.3201L44.7607 19.5351L43.9187 19.1341C41.3666 17.9112 38.8172 16.6826 36.2707 15.4481C35.2149 14.9335 34.1539 14.4298 33.0877 13.9371C33.0917 13.9311 33.0947 13.9301 33.0997 13.9241C33.4927 13.5211 34.0397 12.9741 34.6427 12.3841C35.8527 11.1951 38.7927 8.30409 41.1767 5.95709L45.0007 2.19311ZM62.8607 5.67309C62.9107 5.69009 62.9057 5.6831 62.9687 5.7091C63.4317 5.8991 64.2307 6.30214 65.4387 6.95214C68.5567 8.63014 71.8927 11.0091 74.3157 13.2591L67.3057 13.2631L59.5637 13.2671L59.5867 13.2131C60.6042 10.8334 61.6336 8.45865 62.6747 6.0891C62.7517 5.9141 62.8047 5.79614 62.8617 5.67114L62.8607 5.67309ZM26.8647 5.79009C26.8797 5.82109 26.8917 5.8361 26.9047 5.8681C27.0717 6.2661 27.9147 8.21312 28.8007 10.2501L29.9587 12.9121L30.0887 13.2121C29.8707 13.2191 29.7537 13.2301 29.4287 13.2361C28.1457 13.2591 25.9857 13.2661 22.5487 13.2641L15.7387 13.2601C17.7197 11.4431 20.0827 9.63012 22.3047 8.26812C23.7454 7.40393 25.2206 6.5986 26.7267 5.85412C26.7847 5.82612 26.8137 5.81413 26.8647 5.79113V5.79009ZM14.4207 15.0861H22.4397C24.8397 15.0861 27.0237 15.0961 28.6037 15.1071C29.2907 15.1131 29.8017 15.1191 30.2277 15.1271C30.0777 15.6241 29.8747 16.2811 29.6497 17.0051C29.1867 18.4941 28.6777 20.1391 28.5157 20.6711C28.0511 22.1986 27.5754 23.7226 27.0887 25.2431C26.8987 25.8341 26.7387 26.3191 26.6227 26.6571C26.5727 26.8011 26.5357 26.9031 26.5047 26.9881C26.3181 27.0704 26.1286 27.1461 25.9367 27.2151C25.2307 27.4781 23.8937 27.9471 21.3747 28.8281C19.4447 29.5031 16.9047 30.3951 15.7247 30.8121C15.2347 30.9851 14.8217 31.1291 14.4547 31.2561C14.4477 30.8211 14.4417 30.3081 14.4377 29.6141C14.4277 27.9971 14.4207 25.7641 14.4207 23.3071V15.0861ZM67.2687 15.0861H75.3517V18.1041C75.3517 20.1671 75.3897 24.1291 75.4367 26.9251C75.4617 28.4411 75.4707 29.7051 75.4657 30.5841C75.4647 30.7781 75.4597 30.8741 75.4567 31.0281C75.0907 30.9091 74.6637 30.7691 74.1167 30.5871C72.8467 30.1631 71.1777 29.5971 69.5167 29.0291C67.9934 28.5086 66.4721 27.9826 64.9527 27.4511C64.3287 27.2321 63.8077 27.0471 63.4427 26.9141C63.3097 26.8661 63.2247 26.8341 63.1367 26.8001C63.1247 26.7701 63.1187 26.7561 63.1067 26.7201C63.0267 26.5011 62.9167 26.1841 62.7857 25.7981C62.5257 25.0251 62.1837 23.9741 61.8267 22.8371C60.9687 20.1031 60.2997 17.9651 59.8467 16.5021C59.6587 15.8981 59.5327 15.4851 59.4207 15.1181C59.8507 15.1121 60.3657 15.1071 61.0577 15.1021C62.6497 15.0921 64.8507 15.0861 67.2687 15.0861ZM32.0557 15.4901C32.3427 15.6201 32.6637 15.7701 33.0487 15.9531C36.7327 17.7131 39.3937 18.9891 41.1437 19.8331C41.7517 20.1271 42.1087 20.3021 42.5007 20.4931L35.0677 23.5331C33.0047 24.3761 31.1147 25.1431 29.7347 25.6981C29.3207 25.8651 29.0607 25.9681 28.7477 26.0931L28.8657 25.7231C29.1817 24.7211 29.6087 23.3531 30.0727 21.8591C31.0867 18.5931 31.6357 16.8241 31.9357 15.8681C31.9977 15.6681 32.0127 15.6251 32.0557 15.4901ZM57.5897 15.4961L57.9087 16.4961C58.2417 17.5451 58.6857 18.9531 59.1387 20.3921C59.9387 22.9321 60.6207 25.1151 60.9047 26.0421L54.1437 23.3351C51.7777 22.3881 49.4124 21.4394 47.0477 20.4891C47.7557 20.1541 48.8617 19.6291 50.2327 18.9731C52.2109 18.0249 54.1926 17.0839 56.1777 16.1501C56.6471 15.9295 57.1178 15.7114 57.5897 15.4961ZM77.1797 16.2201C78.9257 18.1751 80.7697 20.6141 82.1457 22.9071C82.5607 23.5971 83.1597 24.7041 83.6827 25.7271C84.1647 26.6681 84.5427 27.4871 84.6857 27.8461C84.6817 27.8461 84.6817 27.8461 84.6757 27.8491C84.4537 27.9381 84.1557 28.0601 83.7997 28.2071C83.0887 28.5011 82.1467 28.8931 81.1457 29.3151C79.8643 29.8565 78.5806 30.3925 77.2947 30.9231V28.1771C77.2947 26.0751 77.2627 22.0991 77.2237 19.3271L77.1787 16.2191L77.1797 16.2201ZM12.5997 16.5001L12.6017 22.6861H12.5997V23.4021C12.6005 25.9811 12.5955 28.5601 12.5847 31.1391L12.5057 31.1041C11.8507 30.8071 10.9487 30.3971 9.96168 29.9471C8.48641 29.2707 7.00637 28.6046 5.52168 27.9491L5.33368 27.8691C5.69168 26.9701 7.02168 24.3591 7.86568 22.9381C9.12968 20.8081 10.7797 18.6081 12.5997 16.5001ZM44.7297 21.5761L44.7877 21.5971L45.3177 21.7991C45.7737 21.9751 46.4257 22.2291 47.2207 22.5421C48.8127 23.1691 50.9827 24.0321 53.3467 24.9781L61.6657 28.3081L64.7877 35.9841C66.5677 40.3611 68.1377 44.2241 68.2537 44.5131L68.3737 44.8121L67.9987 45.6881C67.7267 46.3251 66.1067 50.1361 64.3937 54.1661L61.3947 61.2251L54.7947 63.9751C51.9096 65.1785 49.0233 66.3788 46.1357 67.5761L44.6157 68.2031L40.5587 66.5471C35.0587 64.3021 31.8367 62.9841 29.9787 62.2131C29.0487 61.8281 28.4597 61.5791 28.1027 61.4221C27.9567 61.3571 27.8727 61.3191 27.8027 61.2851C27.6631 60.9902 27.5275 60.6936 27.3957 60.3951C27.1057 59.7391 26.7257 58.8491 26.3227 57.8871C25.5147 55.9551 23.9477 52.2201 22.8397 49.5871C22.3615 48.4512 21.8885 47.3132 21.4207 46.1731C21.2757 45.8206 21.1327 45.4672 20.9917 45.1131L20.9317 44.9561L21.1167 44.5051C21.3007 44.0621 21.5667 43.4261 21.8967 42.6471C22.5557 41.0891 23.4647 38.9561 24.4647 36.6251L27.9877 28.4161L29.0387 27.9881C32.3827 26.6251 40.8117 23.1781 41.9717 22.6981C43.2487 22.1701 43.9847 21.8691 44.4017 21.7111C44.7887 21.5651 44.8217 21.5841 44.7297 21.5761ZM64.0267 29.1681L64.7057 29.3871C65.9327 29.7851 67.5677 30.3231 69.2027 30.8661C70.8387 31.4081 72.4767 31.9551 73.7107 32.3721C74.2497 32.5541 74.6667 32.6981 75.0167 32.8181L74.9397 32.9611C73.6634 35.2949 72.3701 37.6193 71.0597 39.9341C70.598 40.7528 70.1417 41.5745 69.6907 42.3991C69.6277 42.5151 69.5837 42.5861 69.5237 42.6941L69.5017 42.6441C69.1597 41.8341 68.6947 40.7111 68.1927 39.4761L64.9167 31.4111C64.5637 30.5431 64.2687 29.7921 64.0267 29.1681ZM25.5767 29.3241C25.5037 29.4991 25.4887 29.5431 25.3947 29.7671C24.7747 31.2391 23.6617 33.8371 21.7227 38.3431C21.0507 39.9041 20.4347 41.3281 19.9847 42.3641L19.8177 42.7451C19.7607 42.6371 19.7387 42.6001 19.6737 42.4761C18.7813 40.7695 17.8966 39.0588 17.0197 37.3441C16.3986 36.1327 15.7716 34.9244 15.1387 33.7191C15.0087 33.4751 14.9157 33.2861 14.8187 33.0891C15.1657 32.9611 15.6007 32.8041 16.1507 32.6091C17.3607 32.1771 18.9667 31.6121 20.5707 31.0521C22.1757 30.4921 23.7777 29.9371 24.9807 29.5251C25.2267 29.4411 25.3667 29.3951 25.5757 29.3251L25.5767 29.3241ZM85.3907 29.5431C85.5137 29.9151 85.6827 30.4221 85.9677 31.2621C87.2297 34.9781 87.8757 38.3621 88.1527 42.6421L87.6007 42.1021C86.1692 40.6966 84.7412 39.2876 83.3167 37.8751L78.0247 32.6301C78.4447 32.4491 79.0427 32.1931 79.7247 31.9071C80.5687 31.5531 82.2867 30.8291 83.5457 30.2971C84.1707 30.0331 84.7557 29.7921 85.1917 29.6201L85.3907 29.5431ZM4.65968 29.5951C4.87668 29.6891 5.09968 29.7851 5.40868 29.9221C6.22068 30.2791 7.29668 30.7591 8.37368 31.2421C9.45168 31.7241 10.5307 32.2111 11.3477 32.5831L11.8787 32.8281C11.6867 33.0241 11.5567 33.1611 11.2207 33.4961C9.10297 35.5961 6.97862 37.6895 4.84768 39.7761C3.86398 40.7429 2.87497 41.7042 1.88068 42.6601C2.05268 39.9391 2.43768 37.1911 3.00068 34.8371C3.19768 34.0161 3.65568 32.5121 4.07868 31.2421C4.29068 30.6081 4.49468 30.0271 4.65068 29.6171L4.65968 29.5951ZM76.6027 33.8711C76.9157 34.1731 77.3107 34.5571 77.8247 35.0591C78.9527 36.1621 80.5007 37.6861 82.1947 39.3621L87.8377 44.9451L82.1997 50.4691C80.7474 51.8929 79.2907 53.3123 77.8297 54.7271C77.3217 55.2171 76.9327 55.5901 76.6197 55.8881C76.4467 55.5881 76.2557 55.2581 76.0017 54.8101C75.2316 53.4505 74.4662 52.0882 73.7057 50.7231C72.9362 49.3461 72.1715 47.9664 71.4117 46.5841C71.0977 46.0121 70.8357 45.5281 70.6517 45.1831C70.5767 45.0451 70.5267 44.9461 70.4807 44.8571L70.4837 44.8421C70.5637 44.6621 70.7137 44.3631 70.9387 43.9411C71.3867 43.0961 72.1387 41.7441 73.3067 39.6771C74.0207 38.4121 75.1467 36.4171 75.8077 35.2401C76.1097 34.7031 76.3817 34.2361 76.6017 33.8651L76.6027 33.8711ZM13.2577 34.1311L13.3197 34.2431C13.6147 34.7851 14.0117 35.5401 14.4367 36.3701C15.2927 38.0391 16.6767 40.7251 17.5157 42.3421L18.8677 44.9521L16.0177 50.5921C15.1877 52.2321 14.4257 53.7221 13.8647 54.8001C13.6567 55.2001 13.5127 55.4721 13.3677 55.7441L12.9907 55.3881C12.1178 54.5568 11.2478 53.7225 10.3807 52.8851C7.95713 50.5466 5.54212 48.1993 3.13568 45.8431L2.21568 44.9431L4.02968 43.1581C7.87568 39.3771 10.3297 36.9681 11.8317 35.5061C12.5057 34.8501 12.9307 34.4411 13.2577 34.1311ZM69.4807 46.9521L69.9377 47.7621C70.6933 49.1103 71.4457 50.4603 72.1947 51.8121C72.9394 53.1529 73.6807 54.4956 74.4187 55.8401C74.6657 56.2911 74.8477 56.6271 75.0097 56.9281C71.728 57.9898 68.449 59.0598 65.1727 60.1381H65.1707L65.0607 60.1751C64.5207 60.3531 64.0867 60.4921 63.6567 60.6311L64.0077 59.8011L65.7737 55.6411C67.1197 52.4731 68.6487 48.8821 69.4327 47.0511C69.4507 47.0081 69.4627 46.9921 69.4797 46.9531L69.4807 46.9521ZM1.87868 47.1821C2.20668 47.5001 2.53268 47.8191 3.06468 48.3371C6.06468 51.2571 9.22168 54.3271 11.0687 56.1211C11.4647 56.5061 11.8047 56.8441 12.0837 57.1261C11.7937 57.2861 11.5147 57.4421 10.8697 57.7861C9.43268 58.5541 9.09968 58.7361 6.31168 60.2631C5.77168 60.5601 5.27668 60.8281 4.90668 61.0251C4.79461 60.7539 4.68792 60.4805 4.58668 60.2051C4.20815 59.1603 3.85836 58.1052 3.53768 57.0411C2.67768 54.1771 2.11768 50.8031 1.87768 47.1811L1.87868 47.1821ZM19.8277 47.1961C20.0317 47.6731 20.2417 48.1661 20.5257 48.8361C21.2697 50.5961 22.2357 52.8931 23.1427 55.0591C23.4957 55.9031 24.2657 57.7351 24.8537 59.1331C25.0737 59.6531 25.2457 60.0751 25.4147 60.4881C24.7327 60.2431 21.9647 59.2701 19.2337 58.3131C18.0588 57.9019 16.8848 57.4883 15.7117 57.0721C15.3957 56.9601 15.1847 56.8841 14.9607 56.8031C15.0967 56.5231 15.2477 56.2151 15.4607 55.7861C15.9877 54.7251 16.7227 53.2641 17.5347 51.6631C18.2288 50.2945 18.9288 48.9287 19.6347 47.5661C19.7147 47.4091 19.7557 47.3341 19.8277 47.1961ZM88.1457 47.2471C87.8457 51.9431 87.0967 55.5971 85.5107 59.9971C85.3767 60.3701 85.2487 60.6791 85.1367 60.9401C84.9767 60.8611 84.8197 60.7851 84.6337 60.6841C83.2209 59.9401 81.8035 59.2048 80.3817 58.4781C79.6242 58.0903 78.8698 57.6963 78.1187 57.2961C78.0597 57.2651 78.0357 57.2501 77.9817 57.2211L78.0837 57.1171C78.5357 56.6581 79.1637 56.0331 79.8547 55.3541C84.4987 50.7871 87.2717 48.0841 88.1457 47.2471ZM14.5867 58.6671L15.6167 59.0181C16.7867 59.4201 18.3467 59.9621 19.9197 60.5111C21.4927 61.0611 23.0777 61.6171 24.2917 62.0481C24.9404 62.2785 25.5881 62.5119 26.2347 62.7481C26.2767 62.7641 26.2607 62.7631 26.2927 62.7701C26.4166 63.0359 26.5247 63.3087 26.6167 63.5871C26.9297 64.4721 27.4437 66.0891 28.3467 68.9771C28.9351 70.8607 29.5191 72.7458 30.0987 74.6321C29.6767 74.6471 29.1717 74.6511 28.4907 74.6581C26.9217 74.6761 24.7537 74.6861 22.3687 74.6861H14.4137L14.4937 66.5681C14.5203 63.9347 14.5513 61.3014 14.5867 58.6681V58.6671ZM75.4387 58.7721C75.4467 59.2141 75.4537 59.7501 75.4637 60.4621C75.4847 62.0821 75.5097 64.3121 75.5337 66.7601L75.6157 74.9421H67.3407C64.8677 74.9421 62.6197 74.9271 60.9917 74.9141C60.2637 74.9141 59.7127 74.8981 59.2717 74.8881L59.2917 74.8132C59.4517 74.2542 59.6737 73.4951 59.9167 72.6711C60.4057 71.0191 61.2747 68.0551 61.8487 66.0811L62.7857 62.8591L69.3757 60.7191C71.2867 60.0991 73.0267 59.5391 74.2897 59.1361C74.7747 58.9811 75.1127 58.8761 75.4397 58.7731L75.4387 58.7721ZM12.7317 58.8791L12.6567 66.4361C12.6334 68.7781 12.6061 71.1201 12.5747 73.4621C12.1017 72.926 11.6389 72.3808 11.1867 71.8271C10.1487 70.5341 8.92068 68.7581 7.95468 67.1471C7.57968 66.5231 6.93768 65.3281 6.39968 64.2811C6.16447 63.8254 5.93578 63.3663 5.71368 62.9041C5.68368 62.8421 5.67068 62.8101 5.64568 62.7541C5.80368 62.6571 5.94168 62.5691 6.29868 62.3681C7.29668 61.8081 9.15668 60.8031 12.5507 58.9771L12.7327 58.8801L12.7317 58.8791ZM77.2737 58.9441L77.6577 59.1471C78.4677 59.5751 80.4387 60.5971 82.0547 61.4241C82.8607 61.8371 83.5977 62.2161 84.1347 62.4931L84.4447 62.6531C84.3567 62.8451 84.2697 63.0381 84.1437 63.2981C83.7987 64.0121 83.3437 64.9071 82.9527 65.6281C82.0127 67.3601 80.2347 70.0511 78.9367 71.7051C78.4513 72.3114 77.9494 72.9042 77.4317 73.4831L77.4287 71.5611C77.4171 68.6249 77.3871 65.6889 77.3387 62.7531L77.2737 58.9441ZM60.6707 63.5541C60.0427 65.6841 58.2247 71.8781 57.8037 73.3201C57.6637 73.7981 57.5387 74.2021 57.4307 74.5401C57.0827 74.3711 56.6467 74.1581 56.1007 73.8881C54.6536 73.1743 53.2082 72.457 51.7647 71.7361C50.3315 71.0211 48.9002 70.3024 47.4707 69.5801L46.8807 69.2801L47.3537 69.0781C48.4697 68.6061 49.9977 67.9681 51.6637 67.2791C52.8979 66.7685 54.1316 66.2565 55.3647 65.7431L59.4807 64.0261C60.0487 63.7891 60.3137 63.6931 60.6707 63.5541ZM28.6347 63.7161C29.4047 64.0101 30.4207 64.4071 31.5467 64.8541C33.8847 65.7841 36.5987 66.8891 38.0337 67.5101C38.3837 67.6621 39.7677 68.2301 41.1727 68.8001C41.6327 68.9881 41.9867 69.1341 42.3647 69.2901C41.6427 69.6311 40.3317 70.2601 39.2167 70.8001C38.0718 71.3557 36.9254 71.9083 35.7777 72.4581L32.8697 73.8481C32.5117 74.0201 32.2167 74.1601 31.9437 74.2881L31.6017 73.2142C31.2417 72.0772 30.7507 70.5081 30.2137 68.7811C29.6767 67.0531 29.1827 65.4651 28.8177 64.2981L28.6347 63.7161ZM44.6497 70.3121C45.2796 70.6057 45.9073 70.904 46.5327 71.2071C47.7527 71.7981 49.3507 72.5841 50.9387 73.3711C52.5277 74.1581 54.1057 74.9471 55.2847 75.5441C55.7607 75.7841 56.1097 75.9641 56.4287 76.1301C56.2757 76.2921 56.1487 76.4261 55.9437 76.6401C55.2587 77.3541 54.3117 78.3301 53.2707 79.3931L46.9897 85.7931L45.0057 87.8111L38.9177 81.7851C37.3603 80.2451 35.8077 78.7004 34.2597 77.1511C33.7207 76.6111 33.3107 76.1961 32.9847 75.8641L33.3067 75.6992C34.0237 75.3402 35.0177 74.8541 36.1107 74.3301L42.4407 71.2911C43.0767 70.9851 43.6807 70.7111 44.1307 70.5201C44.3487 70.4271 44.5257 70.3571 44.6497 70.3121ZM22.4217 76.5081C25.8577 76.5081 28.0177 76.5081 29.3007 76.5361C29.6357 76.5361 29.7597 76.5521 29.9807 76.5601C29.2527 78.3241 26.9837 83.8101 26.8307 84.1731C26.5986 84.0689 26.3686 83.9601 26.1407 83.8471C22.0287 81.7941 18.4397 79.3032 15.5427 76.5112H22.4227L22.4217 76.5081ZM59.4417 76.7601H74.2097C71.3867 79.4281 67.4617 82.1201 63.6957 83.9411H63.6817C63.3917 84.0811 63.1437 84.1961 62.9177 84.2981L62.6857 83.8221C62.3707 83.1621 61.9477 82.2561 61.4977 81.2851C60.7077 79.5791 59.9377 77.8732 59.4427 76.7452L59.4417 76.7601ZM31.6617 77.3101C31.9867 77.6131 32.3747 77.9801 32.8917 78.4791C34.4388 79.9727 35.9755 81.4771 37.5017 82.9921L38.7217 84.2021L42.6687 88.1141C42.1877 88.0891 41.9367 88.0901 40.5537 87.9601C37.9557 87.7141 34.8177 87.0761 32.2187 86.2651C31.3673 85.9894 30.5218 85.696 29.6827 85.3851C29.2597 85.2291 28.8807 85.0851 28.5827 84.9681C28.6647 84.7431 28.7527 84.5062 28.8787 84.1782C29.2037 83.3322 29.6507 82.2031 30.1067 81.0701C30.5627 79.9381 31.0297 78.8011 31.3927 77.9371C31.5007 77.6801 31.5737 77.5111 31.6617 77.3101ZM57.7617 77.4902C57.9857 77.9982 58.7267 79.6422 59.4877 81.3182C60.2607 83.0222 61.0147 84.6841 61.1857 85.0641L60.3427 85.3841C56.3937 86.8841 52.4147 87.7641 48.0837 88.0921C47.7347 88.1181 47.6277 88.1201 47.3027 88.1401C49.2922 86.0805 51.2925 84.0315 53.3037 81.9931C54.6377 80.6381 55.9187 79.3401 56.8697 78.3831C57.2407 78.0101 57.5077 77.7432 57.7617 77.4902Z" fill="#171C29"/>
</svg>
