<svg width="24" height="24" viewBox="0 0 24 24" fill="none" xmlns="http://www.w3.org/2000/svg">
<path d="M12.0039 0C6.99403 0 5.52882 0.00517032 5.24402 0.0287999C4.21591 0.114284 3.57615 0.276208 2.87917 0.623305C2.34204 0.890106 1.91843 1.19936 1.50035 1.63287C0.73896 2.42346 0.277507 3.3961 0.110458 4.55226C0.0292467 5.11354 0.00561688 5.228 0.000818394 8.09496C-0.00102299 9.05061 0.000818394 10.3083 0.000818394 11.9953C0.000818394 17.0025 0.00635159 18.4666 0.0303531 18.7509C0.113415 19.7516 0.270305 20.3812 0.602552 21.0699C1.23751 22.3882 2.4502 23.3778 3.87886 23.7471C4.37354 23.8745 4.9199 23.9446 5.6213 23.9778C5.91848 23.9908 8.94744 24 11.9783 24C15.0091 24 18.0399 23.9963 18.3297 23.9815C19.1418 23.9433 19.6134 23.88 20.1349 23.7452C21.5728 23.3741 22.7633 22.3992 23.4112 21.0625C23.737 20.3905 23.9022 19.7369 23.9769 18.7884C23.9932 18.5816 24 15.2847 24 11.9922C24 8.69907 23.9926 5.40821 23.9764 5.20142C23.9007 4.23765 23.7355 3.5896 23.3992 2.90461C23.1232 2.34389 22.8168 1.92514 22.372 1.49699C21.5781 0.738523 20.6072 0.276943 19.4503 0.110039C18.8897 0.0289815 18.778 0.00497991 15.9096 0H12.0039Z" fill="url(#paint0_radial_19_14)"/>
<path d="M12.0039 0C6.99403 0 5.52882 0.00517032 5.24402 0.0287999C4.21591 0.114284 3.57615 0.276208 2.87917 0.623305C2.34204 0.890106 1.91843 1.19936 1.50035 1.63287C0.73896 2.42346 0.277507 3.3961 0.110458 4.55226C0.0292467 5.11354 0.00561688 5.228 0.000818394 8.09496C-0.00102299 9.05061 0.000818394 10.3083 0.000818394 11.9953C0.000818394 17.0025 0.00635159 18.4666 0.0303531 18.7509C0.113415 19.7516 0.270305 20.3812 0.602552 21.0699C1.23751 22.3882 2.4502 23.3778 3.87886 23.7471C4.37354 23.8745 4.9199 23.9446 5.6213 23.9778C5.91848 23.9908 8.94744 24 11.9783 24C15.0091 24 18.0399 23.9963 18.3297 23.9815C19.1418 23.9433 19.6134 23.88 20.1349 23.7452C21.5728 23.3741 22.7633 22.3992 23.4112 21.0625C23.737 20.3905 23.9022 19.7369 23.9769 18.7884C23.9932 18.5816 24 15.2847 24 11.9922C24 8.69907 23.9926 5.40821 23.9764 5.20142C23.9007 4.23765 23.7355 3.5896 23.3992 2.90461C23.1232 2.34389 22.8168 1.92514 22.372 1.49699C21.5781 0.738523 20.6072 0.276943 19.4503 0.110039C18.8897 0.0289815 18.778 0.00497991 15.9096 0H12.0039Z" fill="url(#paint1_radial_19_14)"/>
<path d="M12.0039 0C6.99403 0 5.52882 0.00517032 5.24402 0.0287999C4.21591 0.114284 3.57615 0.276208 2.87917 0.623305C2.34204 0.890106 1.91843 1.19936 1.50035 1.63287C0.73896 2.42346 0.277507 3.3961 0.110458 4.55226C0.0292467 5.11354 0.00561688 5.228 0.000818394 8.09496C-0.00102299 9.05061 0.000818394 10.3083 0.000818394 11.9953C0.000818394 17.0025 0.00635159 18.4666 0.0303531 18.7509C0.113415 19.7516 0.270305 20.3812 0.602552 21.0699C1.23751 22.3882 2.4502 23.3778 3.87886 23.7471C4.37354 23.8745 4.9199 23.9446 5.6213 23.9778C5.91848 23.9908 8.94744 24 11.9783 24C15.0091 24 18.0399 23.9963 18.3297 23.9815C19.1418 23.9433 19.6134 23.88 20.1349 23.7452C21.5728 23.3741 22.7633 22.3992 23.4112 21.0625C23.737 20.3905 23.9022 19.7369 23.9769 18.7884C23.9932 18.5816 24 15.2847 24 11.9922C24 8.69907 23.9926 5.40821 23.9764 5.20142C23.9007 4.23765 23.7355 3.5896 23.3992 2.90461C23.1232 2.34389 22.8168 1.92514 22.372 1.49699C21.5781 0.738523 20.6072 0.276943 19.4503 0.110039C18.8897 0.0289815 18.778 0.00497991 15.9096 0H12.0039Z" fill="url(#paint2_radial_19_14)"/>
<path d="M12.0039 0C6.99403 0 5.52882 0.00517032 5.24402 0.0287999C4.21591 0.114284 3.57615 0.276208 2.87917 0.623305C2.34204 0.890106 1.91843 1.19936 1.50035 1.63287C0.73896 2.42346 0.277507 3.3961 0.110458 4.55226C0.0292467 5.11354 0.00561688 5.228 0.000818394 8.09496C-0.00102299 9.05061 0.000818394 10.3083 0.000818394 11.9953C0.000818394 17.0025 0.00635159 18.4666 0.0303531 18.7509C0.113415 19.7516 0.270305 20.3812 0.602552 21.0699C1.23751 22.3882 2.4502 23.3778 3.87886 23.7471C4.37354 23.8745 4.9199 23.9446 5.6213 23.9778C5.91848 23.9908 8.94744 24 11.9783 24C15.0091 24 18.0399 23.9963 18.3297 23.9815C19.1418 23.9433 19.6134 23.88 20.1349 23.7452C21.5728 23.3741 22.7633 22.3992 23.4112 21.0625C23.737 20.3905 23.9022 19.7369 23.9769 18.7884C23.9932 18.5816 24 15.2847 24 11.9922C24 8.69907 23.9926 5.40821 23.9764 5.20142C23.9007 4.23765 23.7355 3.5896 23.3992 2.90461C23.1232 2.34389 22.8168 1.92514 22.372 1.49699C21.5781 0.738523 20.6072 0.276943 19.4503 0.110039C18.8897 0.0289815 18.778 0.00497991 15.9096 0H12.0039Z" fill="url(#paint3_radial_19_14)"/>
<path d="M12.0048 3.08154C9.58137 3.08154 9.27723 3.09213 8.3254 3.13541C7.37544 3.17888 6.727 3.32917 6.15962 3.54968C5.57273 3.77742 5.07487 4.08208 4.57889 4.57788C4.08253 5.07351 3.77764 5.57099 3.54898 6.15727C3.32775 6.72441 3.17717 7.37254 3.13442 8.32144C3.09185 9.27255 3.08069 9.57666 3.08069 11.9983C3.08069 14.4199 3.09147 14.7229 3.1346 15.674C3.17829 16.6233 3.32869 17.2713 3.54916 17.8382C3.77727 18.4247 4.08215 18.9222 4.57832 19.4178C5.07414 19.9138 5.57198 20.2192 6.15851 20.4469C6.72625 20.6674 7.37488 20.8177 8.32466 20.8612C9.27649 20.9045 9.58044 20.915 12.0037 20.915C14.4273 20.915 14.7305 20.9045 15.6824 20.8612C16.6323 20.8177 17.2815 20.6674 17.8492 20.4469C18.436 20.2192 18.9331 19.9138 19.4289 19.4178C19.9252 18.9222 20.2301 18.4247 20.4588 17.8384C20.6781 17.2713 20.8287 16.6231 20.8733 15.6742C20.9161 14.7231 20.9273 14.4199 20.9273 11.9983C20.9273 9.57665 20.9161 9.27275 20.8733 8.32162C20.8287 7.37235 20.6781 6.72441 20.4588 6.15746C20.2301 5.57099 19.9252 5.07351 19.4289 4.57788C18.9325 4.08189 18.4361 3.77723 17.8487 3.54967C17.2798 3.32917 16.631 3.17888 15.6811 3.13541C14.7292 3.09213 14.4262 3.08154 12.002 3.08154H12.0048ZM11.2043 4.68842C11.4419 4.68805 11.707 4.68842 12.0048 4.68842C14.3874 4.68842 14.6697 4.69696 15.6106 4.73969C16.4806 4.77945 16.9528 4.92471 17.2674 5.04676C17.6838 5.20837 17.9807 5.40157 18.2928 5.71365C18.6051 6.02575 18.7985 6.32297 18.9606 6.73908C19.0827 7.05302 19.2283 7.52487 19.2679 8.39426C19.3106 9.33423 19.3199 9.61659 19.3199 11.9963C19.3199 14.3759 19.3106 14.6583 19.2679 15.5983C19.2281 16.4676 19.0827 16.9395 18.9606 17.2534C18.7988 17.6695 18.6051 17.9658 18.2928 18.2777C17.9805 18.5898 17.684 18.783 17.2674 18.9446C16.9532 19.0672 16.4806 19.2121 15.6106 19.2519C14.6699 19.2946 14.3874 19.3039 12.0048 19.3039C9.62208 19.3039 9.3397 19.2946 8.39902 19.2519C7.529 19.2118 7.0568 19.0665 6.74206 18.9444C6.32564 18.7828 6.02818 18.5896 5.71587 18.2775C5.40356 17.9655 5.21022 17.669 5.0481 17.2527C4.92597 16.9387 4.78041 16.4669 4.74081 15.5975C4.69805 14.6575 4.6895 14.3752 4.6895 11.994C4.6895 9.61288 4.69805 9.332 4.74081 8.39203C4.7806 7.52264 4.92597 7.0508 5.0481 6.73649C5.20984 6.32037 5.40356 6.02314 5.71587 5.71106C6.02818 5.39897 6.32564 5.20578 6.74206 5.04379C7.05661 4.92118 7.529 4.77629 8.39902 4.73634C9.2222 4.69919 9.54121 4.68805 11.2043 4.68618L11.2043 4.68842ZM16.768 6.16897C16.1769 6.16897 15.6972 6.64769 15.6972 7.2386C15.6972 7.82934 16.1769 8.30862 16.768 8.30862C17.3592 8.30862 17.8388 7.82934 17.8388 7.2386C17.8388 6.64787 17.3592 6.1686 16.768 6.1686L16.768 6.16897ZM12.0048 7.41917C9.4741 7.41917 7.42229 9.46947 7.42229 11.9983C7.42229 14.5271 9.4741 16.5765 12.0048 16.5765C14.5355 16.5765 16.5866 14.5271 16.5866 11.9983C16.5866 9.46947 14.5353 7.41917 12.0046 7.41917H12.0048ZM12.0048 9.02605C13.6474 9.02605 14.9793 10.3567 14.9793 11.9983C14.9793 13.6397 13.6474 14.9705 12.0048 14.9705C10.362 14.9705 9.03035 13.6397 9.03035 11.9983C9.03035 10.3567 10.362 9.02605 12.0048 9.02605Z" fill="white"/>
<defs>
<radialGradient id="paint0_radial_19_14" cx="0" cy="0" r="1" gradientUnits="userSpaceOnUse" gradientTransform="translate(23.225 11.2491) rotate(164.25) scale(15.3346 11.0479)">
<stop stop-color="#FF005F"/>
<stop offset="1" stop-color="#FC01D8"/>
</radialGradient>
<radialGradient id="paint1_radial_19_14" cx="0" cy="0" r="1" gradientUnits="userSpaceOnUse" gradientTransform="translate(6.37482 25.8485) rotate(-90) scale(19.1573 20.3254)">
<stop stop-color="#FFCC00"/>
<stop offset="0.1242" stop-color="#FFCC00"/>
<stop offset="0.5672" stop-color="#FE4A05"/>
<stop offset="0.6942" stop-color="#FF0F3F"/>
<stop offset="1" stop-color="#FE0657" stop-opacity="0"/>
</radialGradient>
<radialGradient id="paint2_radial_19_14" cx="0" cy="0" r="1" gradientUnits="userSpaceOnUse" gradientTransform="translate(12.6065 23.6615) rotate(-59.8703) scale(7.92169 10.3132)">
<stop stop-color="#FFCC00"/>
<stop offset="1" stop-color="#FFCC00" stop-opacity="0"/>
</radialGradient>
<radialGradient id="paint3_radial_19_14" cx="0" cy="0" r="1" gradientUnits="userSpaceOnUse" gradientTransform="translate(3.25628 0.977273) rotate(164.274) scale(15.1645 5.16655)">
<stop stop-color="#780CFF"/>
<stop offset="1" stop-color="#820BFF" stop-opacity="0"/>
</radialGradient>
</defs>
</svg>
