<svg width="1000" height="257" viewBox="0 0 1000 257" fill="none" xmlns="http://www.w3.org/2000/svg">
<path d="M983.261 251.991C980.729 251.991 978.463 251.58 976.458 250.759C974.453 249.937 972.843 248.721 971.626 247.111C970.444 245.501 969.818 243.562 969.754 241.294H978.724C978.857 242.576 979.301 243.562 980.054 244.252C980.813 244.909 981.798 245.238 983.015 245.238C984.261 245.238 985.246 244.959 985.971 244.4C986.695 243.808 987.054 243.003 987.054 241.984C987.054 241.13 986.759 240.423 986.168 239.865C985.611 239.306 984.902 238.846 984.049 238.484C983.227 238.123 982.045 237.712 980.498 237.252C978.266 236.562 976.439 235.871 975.03 235.181C973.616 234.492 972.399 233.472 971.38 232.125C970.36 230.778 969.852 229.02 969.852 226.851C969.852 223.63 971.02 221.116 973.35 219.308C975.685 217.468 978.724 216.548 982.473 216.548C986.286 216.548 989.355 217.468 991.69 219.308C994.025 221.116 995.271 223.646 995.434 226.9H986.315C986.251 225.783 985.838 224.912 985.084 224.287C984.33 223.63 983.36 223.302 982.178 223.302C981.158 223.302 980.335 223.581 979.71 224.139C979.089 224.665 978.774 225.437 978.774 226.456C978.774 227.573 979.301 228.444 980.35 229.069C981.404 229.693 983.045 230.367 985.281 231.09C987.517 231.846 989.325 232.569 990.705 233.259C992.118 233.949 993.335 234.951 994.35 236.266C995.37 237.581 995.882 239.273 995.882 241.343C995.882 243.315 995.37 245.106 994.35 246.717C993.365 248.327 991.921 249.608 990.015 250.562C988.109 251.515 985.857 251.991 983.261 251.991Z" fill="#1281A5"/>
<path d="M927.852 223.794V230.794H939.138V237.301H927.852V244.892H940.621V251.646H919.424V217.041H940.621V223.794H927.852Z" fill="#1281A5"/>
<path d="M888.694 217.041V251.646H880.261V237.399H867.152V251.646H858.719V217.041H867.152V230.597H880.261V217.041H888.694Z" fill="#1281A5"/>
<path d="M795.088 234.294C795.088 230.876 795.827 227.836 797.31 225.174C798.787 222.48 800.842 220.393 803.467 218.914C806.132 217.402 809.137 216.646 812.492 216.646C816.6 216.646 820.117 217.731 823.039 219.9C825.965 222.069 827.92 225.027 828.906 228.773H819.64C818.95 227.327 817.965 226.226 816.679 225.47C815.433 224.714 814.004 224.336 812.393 224.336C809.797 224.336 807.694 225.24 806.083 227.048C804.472 228.855 803.669 231.271 803.669 234.294C803.669 237.318 804.472 239.733 806.083 241.54C807.694 243.348 809.797 244.252 812.393 244.252C814.004 244.252 815.433 243.874 816.679 243.118C817.965 242.362 818.95 241.261 819.64 239.815H828.906C827.92 243.562 825.965 246.519 823.039 248.689C820.117 250.825 816.6 251.893 812.492 251.893C809.137 251.893 806.132 251.153 803.467 249.674C800.842 248.162 798.787 246.076 797.31 243.414C795.827 240.752 795.088 237.712 795.088 234.294Z" fill="#1281A5"/>
<path d="M767.645 217.041V223.794H758.473V251.646H750.044V223.794H740.877V217.041H767.645Z" fill="#1281A5"/>
<path d="M703.296 245.533H690.385L688.311 251.646H679.488L692.01 217.041H701.769L714.291 251.646H705.37L703.296 245.533ZM701.129 239.026L696.838 226.358L692.602 239.026H701.129Z" fill="#1281A5"/>
<path d="M652.881 217.041L643.856 251.646H633.654L628.132 228.871L622.413 251.646H612.211L603.438 217.041H612.457L617.437 242.23L623.595 217.041H632.866L638.782 242.23L643.807 217.041H652.881Z" fill="#1281A5"/>
<path d="M532.66 251.646L529.458 248.541C526.266 250.973 522.458 252.189 518.02 252.189C515.359 252.189 513.039 251.762 511.069 250.907C509.098 250.02 507.566 248.787 506.483 247.21C505.433 245.6 504.906 243.726 504.906 241.59C504.906 239.421 505.483 237.466 506.63 235.724C507.818 233.949 509.571 232.504 511.906 231.386C511.054 230.335 510.443 229.332 510.084 228.379C509.719 227.393 509.542 226.325 509.542 225.175C509.542 223.532 509.965 222.037 510.822 220.689C511.675 219.341 512.911 218.29 514.517 217.534C516.162 216.745 518.103 216.351 520.335 216.351C522.606 216.351 524.527 216.762 526.103 217.583C527.68 218.405 528.862 219.506 529.655 220.886C530.443 222.267 530.803 223.778 530.739 225.421H522.803C522.832 224.534 522.606 223.86 522.113 223.4C521.65 222.907 521.024 222.661 520.236 222.661C519.448 222.661 518.793 222.891 518.266 223.351C517.739 223.811 517.478 224.403 517.478 225.126C517.478 225.816 517.689 226.539 518.118 227.295C518.576 228.05 519.286 228.921 520.236 229.907L528.665 238.139C528.734 237.975 528.813 237.778 528.911 237.548C529.044 237.318 529.177 237.055 529.31 236.759L531.133 233.654H539.561L537.197 237.942C536.31 239.881 535.29 241.722 534.138 243.464L542.468 251.646H532.66ZM518.414 245.386C520.616 245.386 522.571 244.762 524.281 243.513L516.591 236.069C514.221 237.285 513.039 238.928 513.039 240.999C513.039 242.247 513.517 243.299 514.468 244.154C515.458 244.975 516.768 245.386 518.414 245.386Z" fill="#1281A5"/>
<path d="M428.642 251.991C426.111 251.991 423.844 251.58 421.839 250.759C419.834 249.937 418.224 248.721 417.008 247.111C415.825 245.501 415.2 243.562 415.135 241.294H424.106C424.238 242.576 424.682 243.562 425.437 244.252C426.193 244.909 427.179 245.238 428.395 245.238C429.644 245.238 430.63 244.959 431.352 244.4C432.076 243.808 432.437 243.003 432.437 241.984C432.437 241.13 432.142 240.423 431.55 239.865C430.991 239.306 430.285 238.846 429.43 238.484C428.609 238.123 427.425 237.712 425.881 237.252C423.646 236.562 421.822 235.871 420.409 235.181C418.996 234.492 417.78 233.472 416.761 232.125C415.743 230.778 415.233 229.02 415.233 226.851C415.233 223.63 416.4 221.116 418.733 219.308C421.066 217.468 424.106 216.548 427.853 216.548C431.665 216.548 434.738 217.468 437.071 219.308C439.404 221.116 440.653 223.646 440.818 226.9H431.698C431.632 225.783 431.221 224.912 430.465 224.287C429.71 223.63 428.74 223.302 427.557 223.302C426.538 223.302 425.717 223.581 425.092 224.139C424.468 224.665 424.155 225.437 424.155 226.456C424.155 227.573 424.682 228.444 425.733 229.069C426.785 229.693 428.428 230.367 430.662 231.09C432.897 231.846 434.705 232.569 436.085 233.259C437.498 233.949 438.714 234.951 439.733 236.266C440.752 237.581 441.261 239.273 441.261 241.343C441.261 243.315 440.752 245.106 439.733 246.717C438.747 248.327 437.301 249.608 435.395 250.562C433.489 251.515 431.238 251.991 428.642 251.991Z" fill="#1281A5"/>
<path d="M368.621 217.041C372.269 217.041 375.457 217.763 378.184 219.21C380.912 220.656 383.015 222.693 384.494 225.322C386.006 227.919 386.762 230.926 386.762 234.343C386.762 237.728 386.006 240.735 384.494 243.364C383.015 245.993 380.896 248.031 378.135 249.477C375.407 250.923 372.236 251.646 368.621 251.646H355.656V217.041H368.621ZM368.079 244.35C371.267 244.35 373.748 243.479 375.522 241.737C377.297 239.996 378.184 237.531 378.184 234.343C378.184 231.156 377.297 228.674 375.522 226.9C373.748 225.125 371.267 224.238 368.079 224.238H364.086V244.35H368.079Z" fill="#1281A5"/>
<path d="M324.899 251.646H316.469L302.371 230.301V251.646H293.941V217.041H302.371L316.469 238.484V217.041H324.899V251.646Z" fill="#1281A5"/>
<path d="M246.907 251.991C243.654 251.991 240.663 251.236 237.935 249.724C235.24 248.212 233.088 246.109 231.478 243.414C229.9 240.686 229.111 237.63 229.111 234.245C229.111 230.86 229.9 227.82 231.478 225.125C233.088 222.431 235.24 220.327 237.935 218.815C240.663 217.304 243.654 216.548 246.907 216.548C250.161 216.548 253.134 217.304 255.83 218.815C258.557 220.327 260.693 222.431 262.238 225.125C263.815 227.82 264.604 230.86 264.604 234.245C264.604 237.63 263.815 240.686 262.238 243.414C260.661 246.109 258.524 248.212 255.83 249.724C253.134 251.236 250.161 251.991 246.907 251.991ZM246.907 244.301C249.668 244.301 251.869 243.381 253.512 241.54C255.189 239.7 256.027 237.269 256.027 234.245C256.027 231.189 255.189 228.757 253.512 226.949C251.869 225.109 249.668 224.189 246.907 224.189C244.114 224.189 241.879 225.093 240.203 226.9C238.56 228.707 237.738 231.156 237.738 234.245C237.738 237.301 238.56 239.75 240.203 241.59C241.879 243.398 244.114 244.301 246.907 244.301Z" fill="#1281A5"/>
<path d="M199.832 217.041V251.646H191.403V230.892L183.663 251.646H176.86L169.072 230.843V251.646H160.643V217.041H170.6L180.311 240.998L189.924 217.041H199.832Z" fill="#1281A5"/>
<path d="M121.192 245.533H108.277L106.206 251.646H97.3828L109.904 217.041H119.664L132.185 251.646H123.263L121.192 245.533ZM119.023 239.026L114.735 226.358L110.495 239.026H119.023Z" fill="#1281A5"/>
<path d="M68.8924 217.041V251.646H60.4629V217.041H68.8924Z" fill="#1281A5"/>
<path d="M12.9646 217.041C16.6125 217.041 19.8002 217.763 22.5279 219.21C25.2556 220.656 27.3589 222.693 28.8377 225.322C30.3494 227.919 31.1053 230.926 31.1053 234.343C31.1053 237.728 30.3494 240.735 28.8377 243.364C27.3589 245.993 25.2392 248.031 22.4786 249.477C19.7509 250.923 16.5796 251.646 12.9646 251.646H0V217.041H12.9646ZM12.4224 244.35C15.6101 244.35 18.0913 243.479 19.866 241.737C21.6406 239.996 22.5279 237.531 22.5279 234.343C22.5279 231.156 21.6406 228.674 19.866 226.9C18.0913 225.125 15.6101 224.238 12.4224 224.238H8.42951V244.35H12.4224Z" fill="#1281A5"/>
<path d="M22.1335 155.261V10.4325H0V4.80078H72.8434V10.4325H50.7103V149.629H72.8434V155.261H22.1335Z" fill="#1281A5"/>
<path d="M244.208 118.655C243.111 121.843 241.868 124.976 240.471 128.042C239.11 131.299 237.488 134.438 235.615 137.428C234.014 140.06 232.102 142.487 229.919 144.655C225.327 149.248 219.684 152.633 213.481 154.51C207.242 156.392 200.755 157.309 194.244 157.233C184.491 157.36 174.859 155.038 166.226 150.475C157.818 145.954 150.337 139.87 144.186 132.547C137.998 125.102 133.105 116.661 129.711 107.58C126.279 98.5912 124.507 89.0493 124.481 79.4212C124.407 69.1291 126.112 58.902 129.524 49.198C133.101 39.6408 138.493 30.874 145.4 23.3858C151.766 16.2153 159.478 10.3782 168.095 6.20926C176.845 2.04961 186.43 -0.0375654 196.111 0.108218C202.452 0.0601103 208.761 1.04269 214.79 3.01792C220.656 5.10187 226.076 8.28705 230.76 12.4041L240.097 3.01792H245.141V46.0066H238.512C238.004 42.987 237.286 40.0072 236.363 37.0897C235.198 34.0714 233.86 31.1253 232.344 28.2666C231.032 25.4314 229.402 22.7551 227.49 20.2885C225.552 17.8863 223.288 15.7694 220.766 13.9997C216.931 11.5319 212.826 9.51626 208.532 7.99261C204.253 6.56926 199.777 5.84049 195.271 5.83379C188.739 5.59015 182.271 7.18296 176.593 10.4331C171.816 13.4297 167.841 17.5541 165.012 22.4474C161.936 27.657 159.818 33.3798 158.756 39.3424C157.757 45.5496 157.258 51.8271 157.261 58.1143C157.261 63.1833 157.261 69.3779 156.7 76.8872C156.327 84.235 156.327 91.5971 156.7 98.9449C157.015 106.234 157.922 113.485 159.409 120.627C160.55 127.026 163.103 133.088 166.881 138.366C169.899 142.561 173.869 145.971 178.459 148.316C182.904 150.558 187.779 151.806 192.749 151.976C203.036 152.477 213.174 149.357 221.421 143.153C226.695 139.159 230.846 133.854 233.466 127.76C236.104 121.845 238.259 115.724 239.911 109.457H246.54C246.037 112.639 245.287 115.777 244.301 118.843" fill="#1281A5"/>
<path d="M616.384 130.576C613.833 135.793 610.089 140.328 605.458 143.81C599.675 147.837 593.123 150.618 586.222 151.977C579.291 153.305 572.261 153.996 565.207 154.041H507.956V9.49417H485.641V3.48706H560.35C567.232 3.51547 574.104 4.08033 580.892 5.17654C587.808 6.19506 594.439 8.58836 600.414 12.2162C604.774 14.8935 608.35 18.6824 610.783 23.1981C613.148 27.4586 614.493 32.2153 614.705 37.0895C614.818 41.9239 613.892 46.7262 611.995 51.1689C609.892 55.8714 606.685 59.9925 602.655 63.1832C598.276 67.1216 593.118 70.096 587.522 71.9122C581.916 73.7093 576.168 75.059 570.345 75.9482C575.936 76.5186 581.468 77.5856 586.872 79.1398C592.473 80.6615 597.823 83.0019 602.749 86.0852C607.503 88.9605 611.582 92.8349 614.705 97.4428C617.946 102.289 619.611 108.029 619.463 113.868C619.665 119.597 618.616 125.299 616.384 130.576ZM583.138 27.328C582.478 23.4305 580.872 19.756 578.468 16.6277C576.178 13.8582 573.123 11.8331 569.69 10.8082C565.985 9.6727 562.163 8.97954 558.296 8.74334C554.281 8.74334 550.36 8.74334 546.439 8.74334C542.513 8.74334 539.153 8.74334 536.444 8.74334V73.4142C543.917 73.4142 550.636 73.4142 556.424 73.4142C561.577 73.396 566.66 72.3093 571.375 70.2231C575.552 68.1132 578.857 64.5901 580.71 60.2733C583.207 53.6906 584.32 46.6601 583.981 39.6239C583.971 35.5932 583.591 31.5722 582.857 27.6096L583.138 27.328ZM571 81.2049C567.286 79.9083 563.424 79.0886 559.513 78.7645C555.503 78.4354 551.473 78.4354 547.463 78.7645C543.355 78.7645 539.71 78.7645 536.444 78.7645V148.409H566.049C569.941 148.485 573.749 147.263 576.882 144.936C579.912 142.396 582.306 139.183 583.882 135.55C585.621 131.535 586.813 127.305 587.434 122.973C587.946 118.451 587.946 113.885 587.434 109.363C587.015 105.065 586.173 100.82 584.916 96.692C583.862 93.26 582.148 90.0709 579.867 87.3053C577.36 84.4236 574.133 82.2546 570.527 81.0167" fill="#1281A5"/>
<path d="M810.808 49.0105C807.364 40.0031 802.374 31.6777 796.049 24.4187C790.167 17.4967 783.079 11.7083 775.133 7.33581C767.172 2.97377 758.32 0.487509 749.261 0.0647469C740.202 -0.358016 731.167 1.29378 722.832 4.89538C713.118 9.13842 704.488 15.5596 697.616 23.6678C683.921 38.6445 676.473 58.332 676.793 78.6709C676.473 99.0089 683.921 118.697 697.616 133.674C704.488 141.781 713.118 148.203 722.832 152.445C731.251 155.964 740.345 157.566 749.453 157.139C758.409 156.783 767.177 154.443 775.133 150.287C783.246 145.962 790.493 140.171 796.517 133.204C802.823 125.964 807.813 117.673 811.276 108.706C814.97 99.1965 816.842 89.068 816.783 78.8586C816.842 68.6788 814.97 58.5813 811.276 49.1042L810.808 49.0105ZM783.256 105.422C783.222 111.493 782.69 117.551 781.665 123.536C780.665 129.487 778.158 135.079 774.384 139.774C771.236 144.086 766.882 147.355 761.872 149.161C756.877 150.86 751.64 151.716 746.369 151.695C740.187 151.916 734.044 150.662 728.433 148.034C723.882 145.706 719.995 142.25 717.138 137.991C714.231 133.585 712.232 128.638 711.251 123.442C710.103 117.569 709.542 111.595 709.576 105.608V51.9202C709.591 45.9053 710.148 39.9046 711.251 33.9925C712.291 27.996 714.793 22.352 718.542 17.5666C721.64 13.2886 725.931 10.0239 730.867 8.18054C735.832 6.53626 741.044 5.74305 746.271 5.83399C752.433 5.60941 758.557 6.89808 764.113 9.58847C768.576 11.8954 772.369 15.3226 775.133 19.5378C778.069 23.9378 780.108 28.8847 781.108 34.0864C782.34 39.9495 782.931 45.9286 782.882 51.9202L783.256 105.422Z" fill="#1281A5"/>
<path d="M921.95 154.041V148.409H944.921L909.714 91.5295L866.945 154.229H859.098L905.699 85.7098L859.379 9.11876H842.285V3.48706H891.413V9.11876L922.694 60.8369L958.088 9.11876H958.369V3.48706H986.852V9.11876H965.748L926.334 66.7497L978.261 148.409H995.073V154.041H921.95Z" fill="#1281A5"/>
<path d="M410.17 136.114C406.529 140.799 401.589 144.295 395.973 146.157C389.688 148.089 383.115 148.914 376.547 148.597H351.613V79.5147C358.431 79.5147 365.249 79.5147 371.972 79.0457C377.341 78.628 382.743 79.1359 387.942 80.5477C393.061 81.8255 397.603 84.8019 400.829 88.995C403.949 93.7241 405.608 99.2768 405.595 104.952H412.224V55.2049H405.78C405.78 55.9556 405.78 56.7068 405.78 57.2699C405.588 58.2576 405.243 59.2083 404.752 60.0856L402.978 62.6201C402.138 63.6049 401.36 64.6393 400.642 65.7177C398.116 69.0152 394.508 71.3093 390.464 72.194C386.44 73.5142 382.266 74.3029 378.041 74.5403C373.097 74.8231 368.137 74.8231 363.193 74.5403C358.337 74.5403 354.508 73.9773 351.8 73.9773V9.49417C361.139 9.49417 369.45 9.49417 376.734 9.49417C383.301 9.22398 389.865 10.0486 396.161 11.9346C401.776 13.7969 406.716 17.2922 410.355 21.9779C414.665 28.1915 417.683 35.2147 419.228 42.6275H426.047L424.458 3.48706H300.996V9.49417H323.129V148.409H300.996V154.041H424.458L425.859 117.341H418.48C416.97 124.089 414.146 130.469 410.17 136.114Z" fill="#1281A5"/>
</svg>
