<svg width="415" height="219" viewBox="0 0 415 219" fill="none" xmlns="http://www.w3.org/2000/svg">
<path d="M179.894 181.632C174.951 201.453 154.872 213.515 135.046 208.573C115.229 203.632 103.164 183.554 108.108 163.734C113.048 143.91 133.126 131.846 152.947 136.788C172.772 141.73 184.836 161.809 179.894 181.632Z" fill="#F7931A"/>
<path d="M160.316 167.41C161.052 162.487 157.303 159.84 152.176 158.074L153.839 151.405L149.778 150.393L148.159 156.887C147.093 156.621 145.997 156.37 144.907 156.121L146.538 149.585L142.48 148.573L140.816 155.24C139.933 155.039 139.065 154.84 138.224 154.631L138.228 154.61L132.629 153.212L131.549 157.548C131.549 157.548 134.561 158.239 134.498 158.281C136.142 158.692 136.44 159.78 136.39 160.642L134.495 168.24C134.609 168.269 134.756 168.311 134.917 168.375L134.49 168.269L131.833 178.912C131.632 179.412 131.122 180.161 129.973 179.876C130.013 179.935 127.022 179.14 127.022 179.14L125.006 183.788L130.291 185.105C131.274 185.351 132.237 185.609 133.184 185.852L131.504 192.599L135.559 193.61L137.224 186.937C138.331 187.237 139.407 187.515 140.459 187.776L138.801 194.419L142.861 195.43L144.541 188.697C151.464 190.007 156.671 189.479 158.86 183.219C160.626 178.178 158.774 175.27 155.131 173.373C157.784 172.759 159.783 171.014 160.316 167.41ZM151.039 180.416C149.783 185.458 141.295 182.734 138.542 182.049L140.771 173.112C143.523 173.799 152.346 175.159 151.039 180.416ZM152.293 167.337C151.148 171.923 144.083 169.593 141.79 169.022L143.811 160.916C146.104 161.488 153.487 162.554 152.293 167.337Z" fill="white"/>
<path d="M273 208.681C292.882 208.681 309 192.563 309 172.681C309 152.798 292.882 136.681 273 136.681C253.118 136.681 237 152.798 237 172.681C237 192.563 253.118 208.681 273 208.681Z" fill="#627EEA"/>
<path d="M274.121 145.681V165.638L290.989 173.176L274.121 145.681Z" fill="white" fill-opacity="0.602"/>
<path d="M274.12 145.681L257.25 173.176L274.12 165.638V145.681Z" fill="white"/>
<path d="M274.121 186.109V199.669L291 176.317L274.121 186.109Z" fill="white" fill-opacity="0.602"/>
<path d="M274.12 199.669V186.106L257.25 176.317L274.12 199.669Z" fill="white"/>
<path d="M274.121 182.97L290.989 173.176L274.121 165.643V182.97Z" fill="white" fill-opacity="0.2"/>
<path d="M257.25 173.176L274.12 182.97V165.643L257.25 173.176Z" fill="white" fill-opacity="0.602"/>
<path d="M209 126.681C234.404 126.681 255 147.277 255 172.681C255 198.085 234.403 218.681 209 218.681C183.597 218.681 163 198.09 163 172.681C163 147.271 183.593 126.681 209 126.681Z" fill="#53AE94"/>
<path d="M214.677 166.551V159.708H230.326V149.282H187.715V159.708H203.365V166.546C190.646 167.13 181.083 169.649 181.083 172.666C181.083 175.684 190.651 178.203 203.365 178.791V200.71H214.681V178.789C227.377 178.203 236.921 175.686 236.921 172.671C236.921 169.656 227.377 167.139 214.681 166.553M214.681 176.932V176.927C214.362 176.947 212.722 177.046 209.069 177.046C206.149 177.046 204.095 176.963 203.371 176.925V176.934C192.134 176.436 183.746 174.48 183.746 172.138C183.746 169.797 192.135 167.843 203.371 167.344V174.985C204.107 175.035 206.212 175.16 209.117 175.16C212.607 175.16 214.361 175.014 214.683 174.985V167.344C225.898 167.844 234.266 169.802 234.266 172.135C234.266 174.469 225.894 176.428 214.683 176.928" fill="white"/>
<path opacity="0.8" d="M372.83 45.1393H361.379L368.902 10.719H356.452L358.716 0.732422H395L392.803 10.719H380.353L372.83 45.1393Z" fill="black"/>
<path opacity="0.8" d="M320.129 45.1393H308.678L318.465 0.732422H339.969C343.786 0.732422 346.915 1.97519 349.356 4.46074C351.797 6.9019 353.018 9.89787 353.018 13.4486C353.018 15.224 352.685 17.0216 352.019 18.8414C351.398 20.6612 350.399 22.4587 349.023 24.2341C347.692 26.0095 345.717 27.452 343.098 28.5616C340.524 29.6713 337.506 30.2261 334.044 30.2261H323.391L320.129 45.1393ZM325.588 20.2395H334.643C336.507 20.2395 338.06 19.7291 339.303 18.7082C340.546 17.643 341.167 16.3115 341.167 14.7136C341.167 13.4708 340.746 12.4944 339.902 11.7842C339.059 11.0741 337.949 10.719 336.574 10.719H327.719L325.588 20.2395Z" fill="black"/>
<path opacity="0.8" d="M302.029 45.1393H269.473L279.259 0.732422H311.816L309.552 10.719H288.514L286.982 17.643H307.621L305.424 27.6296H284.785L283.121 35.1528H304.226L302.029 45.1393Z" fill="black"/>
<path opacity="0.8" d="M247.876 45.9382C241.44 45.9382 236.07 44.0962 231.764 40.4123C227.504 36.684 225.373 31.8016 225.373 25.7653C225.373 18.1755 227.903 11.9839 232.963 7.19032C238.067 2.39678 244.281 0 251.604 0C257.152 0 261.635 1.30935 265.053 3.92805C268.471 6.50236 270.845 9.74245 272.177 13.6483L261.125 17.2435C260.504 15.0242 259.283 13.2932 257.463 12.0505C255.688 10.7633 253.557 10.1197 251.072 10.1197C247.21 10.1197 243.948 11.5844 241.285 14.5138C238.622 17.3988 237.29 20.9052 237.29 25.033C237.29 28.0955 238.311 30.6698 240.353 32.7559C242.439 34.7976 245.169 35.8185 248.542 35.8185C250.362 35.8185 252.181 35.3524 254.001 34.4203C255.821 33.4439 257.219 32.2011 258.196 30.692L267.117 36.5508C264.676 39.8797 261.724 42.2764 258.262 43.7411C254.8 45.2058 251.338 45.9382 247.876 45.9382Z" fill="black"/>
<path opacity="0.8" d="M201.259 45.9382C194.823 45.9382 189.453 44.0962 185.148 40.4123C180.887 36.684 178.756 31.8016 178.756 25.7653C178.756 18.1755 181.286 11.9839 186.346 7.19032C191.45 2.39678 197.664 0 204.987 0C210.536 0 215.018 1.30935 218.436 3.92805C221.854 6.50236 224.228 9.74245 225.56 13.6483L214.508 17.2435C213.887 15.0242 212.666 13.2932 210.846 12.0505C209.071 10.7633 206.94 10.1197 204.455 10.1197C200.593 10.1197 197.331 11.5844 194.668 14.5138C192.005 17.3988 190.673 20.9052 190.673 25.033C190.673 28.0955 191.694 30.6698 193.736 32.7559C195.822 34.7976 198.552 35.8185 201.925 35.8185C203.745 35.8185 205.564 35.3524 207.384 34.4203C209.204 33.4439 210.602 32.2011 211.579 30.692L220.5 36.5508C218.059 39.8797 215.107 42.2764 211.645 43.7411C208.183 45.2058 204.721 45.9382 201.259 45.9382Z" fill="black"/>
<path opacity="0.8" d="M176.275 45.1393H163.825L163.026 38.7479H145.516L141.987 45.1393H128.406L154.903 0.732422H169.284L176.275 45.1393ZM162.16 28.7614L160.163 12.0505L150.842 28.7614H162.16Z" fill="black"/>
<path opacity="0.8" d="M109.45 45.1393H76.8933L86.6801 0.732422H119.236L116.973 10.719H95.9344L94.4031 17.643H115.042L112.845 27.6296H92.206L90.5416 35.1528H111.647L109.45 45.1393Z" fill="black"/>
<path opacity="0.8" d="M60.612 45.1393H48.495L47.8958 17.3101L35.0464 45.1393H22.9294L20 0.732422H32.5831L32.7828 30.3592L46.8971 0.732422H55.6187L56.684 30.3592L69.9328 0.732422H83.1151L60.612 45.1393Z" fill="black"/>
<path opacity="0.8" d="M398.379 98.181H391.215L393.672 86.9758L386.799 70.397H394.506L398.296 80.6442L406.502 70.397H415L400.837 86.9758L398.379 98.181Z" fill="black"/>
<path opacity="0.8" d="M370.001 98.6804C365.974 98.6804 362.614 97.5279 359.92 95.223C357.254 92.8903 355.921 89.8356 355.921 86.0588C355.921 81.3101 357.504 77.4362 360.67 74.437C363.864 71.4378 367.751 69.9382 372.334 69.9382C375.805 69.9382 378.61 70.7575 380.748 72.3959C382.886 74.0066 384.372 76.0338 385.205 78.4776L378.29 80.7269C377.901 79.3384 377.138 78.2554 375.999 77.4778C374.888 76.6725 373.555 76.2698 372 76.2698C369.584 76.2698 367.543 77.1863 365.877 79.0191C364.211 80.8241 363.378 83.018 363.378 85.6006C363.378 87.5168 364.016 89.1274 365.294 90.4326C366.599 91.7101 368.307 92.3488 370.417 92.3488C371.556 92.3488 372.695 92.0572 373.833 91.474C374.972 90.8631 375.846 90.0855 376.457 89.1413L382.039 92.807C380.512 94.8897 378.665 96.3893 376.499 97.3057C374.333 98.2222 372.167 98.6804 370.001 98.6804Z" fill="black"/>
<path opacity="0.8" d="M347.997 98.181H341.082L333.001 81.6022L329.336 98.181H322.171L328.294 70.397H335.667L343.415 86.1843L346.914 70.397H354.121L347.997 98.181Z" fill="black"/>
<path opacity="0.8" d="M316.345 98.181H295.976L302.099 70.397H322.468L321.052 76.6453H307.889L306.931 80.9774H319.844L318.469 87.2257H305.556L304.515 91.9328H317.72L316.345 98.181Z" fill="black"/>
<path opacity="0.8" d="M290.471 98.181H282.557L279.974 88.8503H275.975L273.934 98.181H266.77L272.893 70.397H285.556C288.028 70.397 290.138 71.1468 291.888 72.6464C293.665 74.1459 294.554 76.1037 294.554 78.5198C294.554 80.9358 293.845 83.0463 292.429 84.8514C291.013 86.6286 289.249 87.795 287.139 88.3504L290.471 98.181ZM282.932 82.602H283.057C284.279 82.602 285.251 82.3104 285.973 81.7272C286.722 81.1163 287.097 80.297 287.097 79.2695C287.097 78.5198 286.806 77.8949 286.223 77.3951C285.639 76.8952 284.945 76.6453 284.14 76.6453H278.683L277.35 82.602H282.932Z" fill="black"/>
<path opacity="0.8" d="M261.265 98.181H253.351L250.768 88.8503H246.769L244.728 98.181H237.563L243.687 70.397H256.35C258.822 70.397 260.932 71.1468 262.682 72.6464C264.459 74.1459 265.348 76.1037 265.348 78.5198C265.348 80.9358 264.639 83.0463 263.223 84.8514C261.807 86.6286 260.043 87.795 257.933 88.3504L261.265 98.181ZM253.726 82.602H253.851C255.073 82.602 256.045 82.3104 256.767 81.7272C257.516 81.1163 257.891 80.297 257.891 79.2695C257.891 78.5198 257.6 77.8949 257.016 77.3951C256.433 76.8952 255.739 76.6453 254.934 76.6453H249.477L248.144 82.602H253.726Z" fill="black"/>
<path opacity="0.8" d="M219.652 98.6809C215.514 98.6809 212.348 97.7923 210.155 96.015C207.989 94.2099 206.906 91.7939 206.906 88.7669C206.906 88.2393 206.975 87.6284 207.114 86.9341L210.779 70.397H218.069L214.445 86.7675C214.362 86.9619 214.32 87.3507 214.32 87.9338C214.348 89.1835 214.82 90.2527 215.736 91.1413C216.681 92.0022 217.986 92.4326 219.652 92.4326C223.151 92.4326 225.317 90.5442 226.15 86.7675L229.774 70.397H237.022L233.398 86.8925C232.565 90.5859 231.066 93.474 228.9 95.5568C226.761 97.6395 223.679 98.6809 219.652 98.6809Z" fill="black"/>
<path opacity="0.8" d="M189.477 98.6804C185.451 98.6804 182.091 97.5279 179.397 95.223C176.731 92.8903 175.398 89.8356 175.398 86.0588C175.398 81.3101 176.981 77.4362 180.147 74.437C183.34 71.4378 187.228 69.9382 191.81 69.9382C195.281 69.9382 198.086 70.7575 200.224 72.3959C202.363 74.0066 203.848 76.0338 204.682 78.4776L197.767 80.7269C197.378 79.3384 196.614 78.2554 195.476 77.4778C194.365 76.6725 193.032 76.2698 191.477 76.2698C189.061 76.2698 187.02 77.1863 185.354 79.0191C183.687 80.8241 182.854 83.018 182.854 85.6006C182.854 87.5168 183.493 89.1274 184.77 90.4326C186.076 91.7101 187.783 92.3488 189.894 92.3488C191.033 92.3488 192.171 92.0572 193.31 91.474C194.448 90.8631 195.323 90.0855 195.934 89.1413L201.516 92.807C199.988 94.8897 198.142 96.3893 195.976 97.3057C193.81 98.2222 191.644 98.6804 189.477 98.6804Z" fill="black"/>
<path opacity="0.8" d="M155.919 98.6804C151.865 98.6804 148.504 97.514 145.839 95.1813C143.173 92.8486 141.84 89.8078 141.84 86.0588C141.84 81.5601 143.409 77.7555 146.547 74.6453C149.685 71.5072 153.586 69.9382 158.252 69.9382C162.278 69.9382 165.625 71.1046 168.291 73.4373C170.984 75.7422 172.331 78.7553 172.331 82.4765C172.331 87.003 170.762 90.8353 167.624 93.9733C164.486 97.1114 160.584 98.6804 155.919 98.6804ZM156.336 92.3488C158.752 92.3488 160.779 91.4462 162.417 89.6412C164.056 87.8083 164.875 85.6006 164.875 83.018C164.875 81.0185 164.222 79.394 162.917 78.1443C161.612 76.8947 159.918 76.2698 157.835 76.2698C155.419 76.2698 153.392 77.1863 151.754 79.0191C150.115 80.8241 149.296 83.018 149.296 85.6006C149.296 87.6001 149.948 89.2246 151.254 90.4743C152.559 91.7239 154.253 92.3488 156.336 92.3488Z" fill="black"/>
<path opacity="0.8" d="M128.091 98.181H120.926L125.633 76.6453H117.844L119.26 70.397H141.962L140.588 76.6453H132.798L128.091 98.181Z" fill="black"/>
<path opacity="0.8" d="M93.4513 98.181H86.2866L92.41 70.397H105.865C108.253 70.397 110.211 71.1745 111.738 72.7297C113.265 74.257 114.029 76.1315 114.029 78.3531C114.029 79.4639 113.821 80.5886 113.404 81.7272C113.015 82.8658 112.391 83.9905 111.53 85.1013C110.697 86.2121 109.461 87.1146 107.822 87.8089C106.212 88.5031 104.323 88.8503 102.157 88.8503H95.4924L93.4513 98.181ZM96.8671 82.602H102.532C103.699 82.602 104.67 82.2826 105.448 81.6439C106.226 80.9774 106.614 80.1443 106.614 79.1446C106.614 78.367 106.351 77.7561 105.823 77.3117C105.295 76.8674 104.601 76.6453 103.74 76.6453H98.2L96.8671 82.602Z" fill="black"/>
<path opacity="0.8" d="M72.0709 98.181H64.9062L67.3638 86.9758L60.4907 70.397H68.197L71.9876 80.6442L80.1937 70.397H88.6913L74.5285 86.9758L72.0709 98.181Z" fill="black"/>
<path opacity="0.8" d="M52.9594 98.181H45.0449L42.4623 88.8503H38.4634L36.4223 98.181H29.2576L35.3809 70.397H48.0441C50.5156 70.397 52.6262 71.1468 54.3757 72.6464C56.153 74.1459 57.0416 76.1037 57.0416 78.5198C57.0416 80.9358 56.3335 83.0463 54.9172 84.8514C53.5009 86.6286 51.7375 87.795 49.627 88.3504L52.9594 98.181ZM45.4198 82.602H45.5448C46.7667 82.602 47.7386 82.3104 48.4606 81.7272C49.2104 81.1163 49.5853 80.297 49.5853 79.2695C49.5853 78.5198 49.2938 77.8949 48.7106 77.3951C48.1274 76.8952 47.4332 76.6453 46.6278 76.6453H41.171L39.838 82.602H45.4198Z" fill="black"/>
<path opacity="0.8" d="M14.0795 98.6804C10.0528 98.6804 6.69261 97.5279 3.99891 95.223C1.33297 92.8903 0 89.8356 0 86.0588C0 81.3101 1.5829 77.4362 4.7487 74.437C7.94227 71.4378 11.8301 69.9382 16.4122 69.9382C19.8835 69.9382 22.6882 70.7575 24.8265 72.3959C26.9648 74.0066 28.4506 76.0338 29.2837 78.4776L22.3689 80.7269C21.9801 79.3384 21.2164 78.2554 20.0778 77.4778C18.967 76.6725 17.6341 76.2698 16.0789 76.2698C13.6629 76.2698 11.6218 77.1863 9.95561 79.0191C8.2894 80.8241 7.45629 83.018 7.45629 85.6006C7.45629 87.5168 8.09501 89.1274 9.37244 90.4326C10.6776 91.7101 12.3855 92.3488 14.496 92.3488C15.6346 92.3488 16.7732 92.0572 17.9118 91.474C19.0503 90.8631 19.9251 90.0855 20.5361 89.1413L26.1179 92.807C24.5905 94.8897 22.7438 96.3893 20.5777 97.3057C18.4116 98.2222 16.2456 98.6804 14.0795 98.6804Z" fill="black"/>
</svg>
