<svg width="178" height="74" viewBox="0 0 178 74" fill="none" xmlns="http://www.w3.org/2000/svg">
<path d="M178 0H0V74H178V0Z" fill="#627EEA"/>
<path d="M89 73C108.882 73 125 56.8823 125 37C125 17.1177 108.882 1 89 1C69.1177 1 53 17.1177 53 37C53 56.8823 69.1177 73 89 73Z" fill="#627EEA"/>
<path d="M90.1206 10V29.9575L106.989 37.495L90.1206 10Z" fill="white" fill-opacity="0.602"/>
<path d="M90.1205 10L73.25 37.495L90.1205 29.9575V10Z" fill="white"/>
<path d="M90.1206 50.428V63.9887L107 40.636L90.1206 50.428Z" fill="white" fill-opacity="0.602"/>
<path d="M90.1205 63.9887V50.4257L73.25 40.636L90.1205 63.9887Z" fill="white"/>
<path d="M90.1206 47.2897L106.989 37.4954L90.1206 29.9624V47.2897Z" fill="white" fill-opacity="0.2"/>
<path d="M73.25 37.4954L90.1205 47.2897V29.9624L73.25 37.4954Z" fill="white" fill-opacity="0.602"/>
</svg>
