<svg width="120" height="120" viewBox="0 0 120 120" fill="none" xmlns="http://www.w3.org/2000/svg">
<rect width="120" height="120" fill="#9BFFE3"/>
<path d="M22.724 84.5289C19.7128 83.68 17.4844 80.1467 18.1039 77.2031C18.3934 75.8252 20.8084 71.4669 29.9861 55.7607C37.3818 43.1048 36.7325 44.0724 38.4845 43.0872C41.2134 41.5539 44.3243 42.1097 46.572 44.5336C47.5457 45.583 61.6568 69.7691 64.0421 74.4762C66.0947 78.5265 65.0908 82.2541 61.4522 84.0925C59.8085 84.923 59.0982 85 53.0871 85H46.5182V79.9779V74.9565L49.0388 74.8364C51.217 74.7305 51.5753 74.6034 51.6766 73.8964C51.854 72.6584 42.7528 57.0009 41.7671 56.8484C41.1249 56.7495 40.0612 58.306 36.0414 65.223C30.4724 74.8068 30.4522 74.9169 34.2672 74.9169H36.436V79.9581V84.9993L30.2858 84.9287C26.9031 84.9287 23.5004 84.7168 22.724 84.4908V84.5289ZM77.0409 78.3797C76.1945 78.0689 75.1454 77.4947 74.7096 77.1006C73.9053 76.3718 67.3063 65.2675 67.5553 65.0613C68.1565 64.5598 75.5514 60.4022 75.8178 60.4114C76.0061 60.4177 76.6601 61.2483 77.2711 62.254C79.0982 65.2633 79.4288 64.973 84.8818 55.5616C87.5156 51.0148 89.6705 47.0873 89.6705 46.8331C89.6705 45.9856 88.462 45.8804 78.736 45.8804C67.6296 45.8804 67.7991 45.8097 69.6309 49.2534C70.2219 50.3608 70.6624 51.293 70.6098 51.3234C63.9797 55.14 62.5018 55.9627 62.2782 55.9627C62.1293 55.9627 60.5187 53.3736 58.6991 50.2097C55.7443 45.0717 55.3907 44.2376 55.3907 42.4056C55.3907 40.1372 56.3581 38.3151 58.3441 36.844C59.4624 36.0148 59.8298 36 78.912 36C97.0481 36 98.4218 36.0706 99.5512 36.7401C102.099 38.2981 103.281 41.2036 102.523 44.0463C102.142 45.4722 86.2115 73.6019 84.339 76.1536C82.7062 78.3789 79.6179 79.3204 77.0409 78.3797Z" fill="black"/>
</svg>
