<svg width="178" height="60" viewBox="0 0 178 60" fill="none" xmlns="http://www.w3.org/2000/svg">
<mask id="mask0_56_164" style="mask-type:alpha" maskUnits="userSpaceOnUse" x="0" y="0" width="178" height="60">
<rect width="178" height="60" fill="#B2FCE4"/>
</mask>
<g mask="url(#mask0_56_164)">
<rect width="178" height="60" fill="#B2FCE4"/>
<path fill-rule="evenodd" clip-rule="evenodd" d="M146.801 17.1835C144.86 17.8956 143.819 19.6357 143.962 21.9314C143.986 22.3186 144.345 22.5896 145.923 23.413C146.695 23.8155 146.832 23.8495 147.105 23.7056C147.56 23.4659 147.604 23.3471 147.607 22.3497C147.609 21.2408 147.818 20.8636 148.425 20.8726C148.718 20.877 150.005 21.5509 152.838 23.1821C157.185 25.6849 157.443 25.8934 156.974 26.521C156.7 26.8876 148.77 31.4681 148.409 31.4681C147.907 31.4681 147.642 30.952 147.578 29.852C147.478 28.1099 146.689 26.8831 145.198 26.1497C144.472 25.7931 144.209 25.7327 143.358 25.7283C142.105 25.7219 142.138 25.7063 136.605 28.8669C131.801 31.6109 131.295 32.0023 130.777 33.3733C130.425 34.3045 130.465 35.7457 130.868 36.6396C131.399 37.816 131.87 38.1593 136.878 41.0211C139.484 42.5105 141.85 43.7988 142.135 43.8842C142.898 44.1125 144.442 43.9886 145.16 43.6413C146.595 42.9469 147.508 41.5233 147.578 39.8718C147.6 39.3385 147.573 38.8352 147.516 38.7532C147.46 38.6712 146.89 38.2997 146.249 37.9273C144.524 36.9253 143.984 37.0151 143.983 38.3038C143.982 39.4069 143.789 39.9533 143.348 40.107C143.012 40.224 142.788 40.129 140.988 39.1042C139.895 38.4817 138.155 37.4915 137.123 36.9039C136.09 36.3163 135.056 35.6935 134.825 35.5198C134.347 35.1612 134.272 34.7017 134.633 34.3447C134.964 34.018 142.86 29.5287 143.103 29.5287C143.61 29.5287 143.843 29.948 143.93 31.0156C144.125 33.4408 145.542 34.9798 147.867 35.2937C148.835 35.4243 149.759 35.0823 152.165 33.7023C158.515 30.06 159.482 29.4869 159.817 29.1671C160.017 28.9763 160.366 28.4425 160.594 27.9809C160.958 27.2416 161.006 27.0181 160.999 26.1049C160.99 24.8089 160.658 23.9926 159.802 23.1605C159.388 22.7577 157.772 21.7552 154.729 20.014C152.272 18.6087 149.985 17.3528 149.646 17.2232C148.912 16.9428 147.51 16.9233 146.801 17.1835ZM41.7144 17.4257C39.6715 17.8781 38.9959 18.9272 38.9959 21.6471V23.1936H37.9602H36.9246V24.8097V26.4258H37.9602H38.9959V32.1145V37.8032H40.8082H42.6206V32.1145V26.4258H45.0155H47.4104V30.6042C47.4104 35.0838 47.4695 35.5963 48.0924 36.5194C48.2654 36.7757 48.6981 37.1163 49.1331 37.3384C49.8226 37.6906 50.0073 37.7232 51.6216 37.7779L53.3654 37.8369V36.2196V34.602L52.5829 34.5455C51.9487 34.4998 51.7341 34.4227 51.4502 34.1394L51.0999 33.7898L51.0602 30.1078L51.0204 26.4258H52.1929H53.3654V24.8097V23.1936H52.2003H51.0352V21.4482V19.7028H49.2228H47.4104V21.4482V23.1936H45.0155H42.6206L42.6278 22.3209C42.642 20.6483 43.1171 20.0913 44.5301 20.091L45.2097 20.0907V18.6685V17.2464L43.8181 17.2572C43.0527 17.2632 42.106 17.3389 41.7144 17.4257ZM25.662 23.1093C20.8146 24.2318 18.523 29.8596 21.0207 34.5075C22.3062 36.8996 25.203 38.3497 27.9125 37.9572C29.1727 37.7746 30.2909 37.2583 31.0668 36.5008L31.6169 35.9634V36.8833V37.8032H33.4293H35.2417V30.4984V23.1936H33.4293H31.6169V24.0288V24.864L30.7862 24.2361C30.3294 23.8906 29.6183 23.4821 29.206 23.3281C28.281 22.9824 26.6459 22.8814 25.662 23.1093ZM60.9385 23.0651C56.2601 23.7715 53.5278 28.67 55.1814 33.3868C55.5099 34.3242 56.4606 35.7173 57.1654 36.294C59.4802 38.1884 63.054 38.572 65.884 37.2297C67.1479 36.6303 68.4713 35.3404 69.0277 34.1658C69.6567 32.8378 69.7178 32.8902 67.5407 32.8902C66.5083 32.8902 65.6636 32.9412 65.6636 33.0035C65.6636 33.2499 64.6581 34.1518 64.0695 34.4333C63.2219 34.8386 62.0343 34.9218 61.0739 34.643C60.1048 34.3615 59.0831 33.3912 58.7605 32.4459C58.6412 32.0962 58.5436 31.733 58.5436 31.639C58.5436 31.4999 59.596 31.4681 64.1936 31.4681H69.8438L69.7741 30.2073C69.5093 25.4047 65.7213 22.3428 60.9385 23.0651ZM77.3792 23.0484C76.723 23.2221 75.9396 23.6799 75.5915 24.0929C75.4092 24.3094 75.227 24.4865 75.1869 24.4865C75.1467 24.4865 75.1138 24.1939 75.1138 23.8364V23.1864L73.3338 23.2223L71.5538 23.2583L71.5204 30.5307L71.4868 37.8032H73.3651H75.2432V33.3016C75.2432 29.5546 75.2779 28.6833 75.45 28.1045C75.9388 26.4609 77.39 25.9447 79.2846 26.7408C79.5493 26.852 79.7968 26.943 79.8347 26.943C79.8727 26.943 79.9036 26.1305 79.9036 25.1375C79.9036 23.4627 79.8848 23.322 79.6439 23.1932C79.3013 23.01 77.8701 22.9186 77.3792 23.0484ZM88.9007 23.0189C87.4258 23.3256 86.6815 23.6831 85.7696 24.5226L85.2113 25.0366V24.1151V23.1936H83.3989H81.5865V33.472V43.7505H83.4636H85.3407V39.9856V36.2206L85.9191 36.6939C89.0505 39.2565 94.0541 37.9748 95.9941 34.1129C96.6003 32.9061 96.788 32.0356 96.7876 30.4338C96.7872 29.1057 96.7449 28.8274 96.3908 27.8267C95.7144 25.9151 94.2878 24.2896 92.6527 23.5673C91.5644 23.0864 89.8094 22.8299 88.9007 23.0189ZM103.788 23.127C102.731 23.3604 101.987 23.7038 101.09 24.3723C97.5584 27.0026 97.1373 32.6081 100.223 35.9031C101.843 37.6319 104.442 38.4332 106.604 37.8707C107.669 37.5936 108.363 37.2349 109.13 36.5647L109.808 35.9731V36.8881V37.8032H111.621H113.435L113.401 30.5307L113.368 23.2583L111.588 23.2223L109.808 23.1864V24.0304C109.808 24.4945 109.773 24.8744 109.73 24.8744C109.688 24.8744 109.392 24.6444 109.072 24.3633C107.684 23.1437 105.756 22.6925 103.788 23.127ZM114.856 23.265C114.856 23.3043 116.146 26.1696 117.722 29.6324C119.299 33.0953 120.588 35.9867 120.588 36.0578C120.587 36.1289 120.208 36.9725 119.745 37.9325C119.281 38.8925 118.51 40.4924 118.031 41.4879C117.552 42.4834 117.105 43.3998 117.039 43.5242C116.927 43.7353 117.058 43.7505 119.003 43.7505H121.088L122.299 41.2617C126.768 32.079 130.939 23.4921 130.997 23.3552C131.051 23.2298 130.599 23.1936 128.978 23.1936C126.932 23.1936 126.887 23.1996 126.775 23.4845C126.712 23.6446 126.169 24.7936 125.57 26.038C124.971 27.2824 124.139 29.0278 123.721 29.9166C123.304 30.8055 122.923 31.5796 122.876 31.6371C122.829 31.6945 122.581 31.2581 122.326 30.6674C122.07 30.0767 121.389 28.5171 120.811 27.2016C120.234 25.886 119.612 24.4462 119.431 24.0017L119.101 23.1936H116.979C115.811 23.1936 114.856 23.2257 114.856 23.265ZM63.3523 26.3768C64.2954 26.6411 65.0835 27.3014 65.4857 28.164C65.6533 28.5235 65.7911 28.8905 65.7917 28.9793C65.7928 29.1047 64.9838 29.1409 62.175 29.1409H58.557L58.7012 28.7207C59.1068 27.5382 60.0261 26.665 61.2621 26.2881C61.8017 26.1237 62.5643 26.156 63.3523 26.3768ZM29.3055 26.7289C30.0945 27.1145 30.7651 27.7815 31.1646 28.5778C31.5003 29.247 31.5443 29.4698 31.5444 30.4984C31.5446 31.843 31.3046 32.5193 30.5195 33.3871C29.0788 34.9797 26.526 35.0605 24.9712 33.5627C24.6981 33.2994 24.3215 32.7933 24.1346 32.4377C23.8383 31.8744 23.7939 31.6333 23.7897 30.5631C23.7854 29.4735 23.826 29.2514 24.1482 28.5961C24.5675 27.743 25.4388 26.9174 26.2218 26.6313C26.9535 26.3639 28.6698 26.4182 29.3055 26.7289ZM90.5533 26.6295C91.3781 26.9101 92.2454 27.7121 92.68 28.5961C93.0008 29.2483 93.0433 29.4785 93.0429 30.5631C93.0426 31.6014 92.9954 31.8813 92.7379 32.3731C91.8612 34.0474 90.1849 34.9126 88.4836 34.5691C87.0969 34.289 86.2479 33.6008 85.6149 32.2438C85.2017 31.3578 85.1546 29.78 85.5164 28.9469C86.0064 27.819 86.8895 26.9307 87.8651 26.5842C88.4512 26.3761 89.8791 26.4001 90.5533 26.6295ZM107.542 26.7792C108.205 27.1251 108.827 27.7402 109.259 28.4766C109.539 28.9537 109.61 29.2615 109.655 30.189C109.765 32.4949 108.736 33.9898 106.665 34.5325C105.895 34.734 105.781 34.7342 104.969 34.5341C103.045 34.0598 101.903 32.5781 101.896 30.5456C101.892 29.4346 102.067 28.8137 102.592 28.0767C103.091 27.3755 103.497 27.0357 104.264 26.6772C105.022 26.3232 106.773 26.3776 107.542 26.7792Z" fill="black"/>
</g>
</svg>
