<svg width="178" height="74" viewBox="0 0 178 74" fill="none" xmlns="http://www.w3.org/2000/svg">
<path d="M178 0H0V74H178V0Z" fill="#53AE94"/>
<path d="M89 0C109.434 0 126 16.5664 126 37C126 57.4336 109.433 74 89 74C68.5671 74 52 57.4381 52 37C52 16.5619 68.5642 0 89 0Z" fill="#53AE94"/>
<path d="M93.5665 32.0697V26.5656H106.153V18.1792H71.8793V26.5656H84.4675V32.0653C74.237 32.5352 66.5447 34.5613 66.5447 36.9885C66.5447 39.4157 74.2407 41.4418 84.4675 41.9147V59.5452H93.5695V41.9132C103.781 41.4418 111.458 39.4172 111.458 36.9922C111.458 34.5672 103.781 32.5426 93.5695 32.0712M93.5695 40.4199V40.4155C93.3127 40.4317 91.9933 40.5109 89.0555 40.5109C86.7067 40.5109 85.0543 40.4443 84.4719 40.414V40.4214C75.4336 40.021 68.687 38.4471 68.687 36.5638C68.687 34.6805 75.4343 33.1087 84.4719 32.7076V38.8533C85.0639 38.894 86.757 38.9939 89.094 38.9939C91.9008 38.9939 93.312 38.877 93.571 38.8533V32.7076C102.592 33.1094 109.323 34.6849 109.323 36.5615C109.323 38.4382 102.589 40.0144 93.571 40.4162" fill="white"/>
</svg>
