<svg width="178" height="60" viewBox="0 0 178 60" fill="none" xmlns="http://www.w3.org/2000/svg">
<mask id="mask0_56_192" style="mask-type:alpha" maskUnits="userSpaceOnUse" x="0" y="0" width="178" height="60">
<rect width="178" height="60" fill="#FFB3C7"/>
</mask>
<g mask="url(#mask0_56_192)">
<rect width="178" height="60" fill="#FFB3C7"/>
<path d="M53.2931 16.225H47.3353C47.3353 21.0982 45.0911 25.5454 41.1904 28.4746L38.8394 30.2322L47.9765 42.6416H55.4839L47.0681 31.2175C51.0489 27.2763 53.2931 21.9503 53.2931 16.225Z" fill="black"/>
<path d="M38.0914 16.225H32V42.6416H38.0914V16.225Z" fill="black"/>
<path d="M62.9918 16.225H57.2476V42.6416H62.9918V16.225Z" fill="black"/>
<path d="M113.379 23.8675C111.189 23.8675 109.105 24.5332 107.715 26.424V24.3735H102.265V42.6414H107.795V33.0547C107.795 30.2853 109.666 28.9272 111.91 28.9272C114.314 28.9272 115.704 30.3651 115.704 33.0281V42.668H121.181V31.0309C121.181 26.7701 117.788 23.8675 113.379 23.8675Z" fill="black"/>
<path d="M80.3572 24.3735V25.5452C78.8078 24.48 76.9374 23.8675 74.907 23.8675C69.5637 23.8675 65.2355 28.1815 65.2355 33.5074C65.2355 38.8334 69.5637 43.1474 74.907 43.1474C76.9374 43.1474 78.8078 42.5349 80.3572 41.4697V42.6414H85.8343V24.3735H80.3572ZM75.3611 38.1943C72.6092 38.1943 70.3919 36.0905 70.3919 33.5074C70.3919 30.9244 72.6092 28.8206 75.3611 28.8206C78.1129 28.8206 80.3306 30.9244 80.3306 33.5074C80.3306 36.0905 78.1129 38.1943 75.3611 38.1943Z" fill="black"/>
<path d="M94.33 26.7436V24.3736H88.7195V42.6415H94.3566V34.12C94.3566 31.2441 97.4826 29.6995 99.6467 29.6995C99.6733 29.6995 99.7 29.6995 99.7 29.6995V24.3736C97.4826 24.3736 95.4253 25.3323 94.33 26.7436Z" fill="black"/>
<path d="M138.226 24.3735V25.5452C136.676 24.48 134.806 23.8675 132.776 23.8675C127.432 23.8675 123.104 28.1815 123.104 33.5074C123.104 38.8334 127.432 43.1474 132.776 43.1474C134.806 43.1474 136.676 42.5349 138.226 41.4697V42.6414H143.703V24.3735H138.226ZM133.23 38.1943C130.478 38.1943 128.261 36.0905 128.261 33.5074C128.261 30.9244 130.478 28.8206 133.23 28.8206C135.982 28.8206 138.199 30.9244 138.199 33.5074C138.226 36.0905 135.982 38.1943 133.23 38.1943Z" fill="black"/>
<path d="M149.554 36.1705C147.657 36.1705 146.107 37.7151 146.107 39.6058C146.107 41.4965 147.657 43.041 149.554 43.041C151.451 43.041 153 41.4965 153 39.6058C153 37.6885 151.451 36.1705 149.554 36.1705Z" fill="black"/>
</g>
</svg>
