<svg width="120" height="120" viewBox="0 0 120 120" fill="none" xmlns="http://www.w3.org/2000/svg">
<rect width="120" height="120" fill="#4A4AF4"/>
<path d="M31.1808 88.3109C24.2345 77.7144 23.6589 64.1715 29.6911 53.0285C35.7176 41.8855 47.3813 34.945 60.0664 34.945C72.7458 34.945 84.4095 41.8855 90.4417 53.0285C96.4682 64.1715 95.8983 77.7144 88.9463 88.3109H98.6125C105.141 75.0272 104.34 59.3154 96.5021 46.7584C88.6642 34.1958 74.8901 26.5681 60.072 26.5681C45.2483 26.5681 31.4799 34.1958 23.6363 46.7584C15.7985 59.3154 15.0028 75.0272 21.5316 88.3109H31.1808Z" fill="white"/>
<path fill-rule="evenodd" clip-rule="evenodd" d="M60.6476 49.1076C69.9413 49.1076 77.0795 53.2482 77.0795 63.4955V88.3053H66.8773V82.3845C66.2735 83.4492 65.5343 84.4351 64.6766 85.3026C63.8189 86.1758 62.8483 86.9251 61.7874 87.5448C60.7322 88.1588 59.598 88.632 58.4187 88.9531C57.2337 89.2686 56.0148 89.432 54.7904 89.432C46.6139 89.432 41.6426 85.2688 41.6426 78.3847C41.6426 69.7036 50.4454 66.1657 61.7649 65.1292C64.7838 64.8531 66.3863 63.7264 66.3863 61.766C66.3863 58.8253 63.9825 57.3719 59.615 57.3719C55.0217 57.3719 49.9262 59.8337 46.7775 62.7068L43.1944 55.1692C47.1218 52.0426 54.3615 49.0794 60.6476 49.0794V49.1076ZM66.1719 71.7429C58.4469 71.7429 52.5502 72.9034 52.5502 77.7425C52.5502 80.0579 54.3954 81.4719 57.6682 81.4719C62.7806 81.4719 66.1719 76.8017 66.1719 71.7429Z" fill="white"/>
</svg>
