<svg width="178" height="74" viewBox="0 0 178 74" fill="none" xmlns="http://www.w3.org/2000/svg">
<path d="M178 0H0V74H178V0Z" fill="#F7931A"/>
<path d="M124.894 45.951C119.951 65.7725 99.8719 77.8344 80.0458 72.8926C60.2289 67.9508 48.1644 47.8738 53.1079 28.0535C58.048 8.22968 78.1262 -3.83457 97.9465 1.10721C117.772 6.049 129.836 26.1283 124.894 45.951Z" fill="#F7931A"/>
<path d="M105.316 31.7292C106.052 26.8059 102.303 24.1593 97.1764 22.3937L98.8393 15.7245L94.7781 14.7128L93.1591 21.2062C92.093 20.9403 90.9967 20.6894 89.9074 20.4408L91.5379 13.9045L87.4802 12.8928L85.8161 19.5597C84.9327 19.3585 84.0654 19.1597 83.2235 18.9504L83.2282 18.9296L77.629 17.5317L76.5489 21.8676C76.5489 21.8676 79.5613 22.5579 79.4977 22.6006C81.142 23.0111 81.4404 24.0991 81.3895 24.9617L79.4954 32.5594C79.6087 32.5883 79.7555 32.6299 79.9174 32.6947L79.4896 32.5883L76.8334 43.2315C76.6322 43.731 76.1222 44.4803 74.9728 44.1958C75.0132 44.2548 72.0217 43.4593 72.0217 43.4593L70.0061 48.1074L75.2908 49.4244C76.2737 49.6706 77.2369 49.9285 78.184 50.1713L76.5038 56.918L80.5592 57.9297L82.2244 51.2558C83.3311 51.5565 84.4065 51.834 85.4588 52.0953L83.8006 58.7379L87.8606 59.7496L89.5408 53.0168C96.4641 54.3268 101.671 53.7984 103.86 47.5385C105.626 42.4973 103.774 39.5893 100.131 37.6919C102.784 37.078 104.783 35.3332 105.316 31.7292ZM96.0385 44.7358C94.7827 49.777 86.2949 47.0529 83.5415 46.3684L85.771 37.4318C88.5232 38.1186 97.3464 39.4783 96.0385 44.7358ZM97.2932 31.6564C96.1484 36.242 89.0829 33.9122 86.7898 33.341L88.8112 25.2357C91.1043 25.8069 98.4866 26.873 97.2932 31.6564Z" fill="white"/>
</svg>
