<svg width="364" height="56" viewBox="0 0 364 56" fill="none" xmlns="http://www.w3.org/2000/svg">
<path d="M364 0H0V56H364V0Z" fill="#F7931A"/>
<path d="M230.436 38.635V17.3643H234.508L247.058 32.6792H245.082V17.3643H249.944V38.635H245.903L233.323 23.3201H235.298V38.635H230.436Z" fill="white"/>
<path d="M219.25 38.635V17.3643H224.172V38.635H219.25Z" fill="white"/>
<path d="M202.727 39C201.045 39 199.485 38.7265 198.047 38.1796C196.629 37.6326 195.393 36.8628 194.34 35.8702C193.307 34.8775 192.496 33.7127 191.909 32.3757C191.342 31.0387 191.058 29.5801 191.058 28C191.058 26.4199 191.342 24.9613 191.909 23.6243C192.496 22.2873 193.317 21.1225 194.37 20.1298C195.424 19.1372 196.659 18.3674 198.077 17.8204C199.495 17.2735 201.035 17 202.696 17C204.378 17 205.917 17.2735 207.315 17.8204C208.733 18.3674 209.959 19.1372 210.992 20.1298C212.045 21.1225 212.866 22.2873 213.453 23.6243C214.041 24.9411 214.334 26.3996 214.334 28C214.334 29.5801 214.041 31.0488 213.453 32.4061C212.866 33.7431 212.045 34.9079 210.992 35.9006C209.959 36.8729 208.733 37.6326 207.315 38.1796C205.917 38.7265 204.388 39 202.727 39ZM202.696 34.8066C203.648 34.8066 204.519 34.6446 205.309 34.3204C206.12 33.9963 206.829 33.5304 207.437 32.9227C208.044 32.3149 208.51 31.5958 208.834 30.7652C209.179 29.9346 209.351 29.0129 209.351 28C209.351 26.9871 209.179 26.0654 208.834 25.2348C208.51 24.4042 208.044 23.6851 207.437 23.0773C206.849 22.4696 206.15 22.0037 205.34 21.6796C204.53 21.3554 203.648 21.1934 202.696 21.1934C201.744 21.1934 200.863 21.3554 200.053 21.6796C199.263 22.0037 198.564 22.4696 197.956 23.0773C197.348 23.6851 196.872 24.4042 196.528 25.2348C196.204 26.0654 196.042 26.9871 196.042 28C196.042 28.9926 196.204 29.9144 196.528 30.7652C196.872 31.5958 197.338 32.3149 197.926 32.9227C198.533 33.5304 199.242 33.9963 200.053 34.3204C200.863 34.6446 201.744 34.8066 202.696 34.8066Z" fill="white"/>
<path d="M179.519 39C177.878 39 176.349 38.7366 174.931 38.2099C173.533 37.663 172.317 36.8932 171.284 35.9006C170.251 34.9079 169.441 33.7431 168.853 32.4061C168.286 31.0691 168.002 29.6004 168.002 28C168.002 26.3996 168.286 24.9309 168.853 23.5939C169.441 22.2569 170.251 21.0921 171.284 20.0994C172.338 19.1068 173.563 18.3471 174.961 17.8204C176.359 17.2735 177.888 17 179.549 17C181.393 17 183.054 17.3241 184.533 17.9724C186.032 18.6004 187.288 19.5322 188.301 20.768L185.141 23.6851C184.411 22.8545 183.601 22.2366 182.71 21.8315C181.818 21.4061 180.846 21.1934 179.792 21.1934C178.8 21.1934 177.888 21.3554 177.058 21.6796C176.227 22.0037 175.508 22.4696 174.9 23.0773C174.292 23.6851 173.816 24.4042 173.472 25.2348C173.148 26.0654 172.986 26.9871 172.986 28C172.986 29.0129 173.148 29.9346 173.472 30.7652C173.816 31.5958 174.292 32.3149 174.9 32.9227C175.508 33.5304 176.227 33.9963 177.058 34.3204C177.888 34.6446 178.8 34.8066 179.792 34.8066C180.846 34.8066 181.818 34.6041 182.71 34.1989C183.601 33.7735 184.411 33.1354 185.141 32.2845L188.301 35.2017C187.288 36.4374 186.032 37.3794 184.533 38.0276C183.054 38.6759 181.383 39 179.519 39Z" fill="white"/>
<path d="M154.043 38.635V21.3753H147.236V17.3643H165.772V21.3753H158.965V38.635H154.043Z" fill="white"/>
<path d="M138.451 38.635V17.3643H143.373V38.635H138.451Z" fill="white"/>
<path d="M114 38.635V17.3643H124.392C127.066 17.3643 129.072 17.8707 130.409 18.8836C131.766 19.8965 132.445 21.2335 132.445 22.8946C132.445 24.0088 132.171 24.9812 131.624 25.8118C131.077 26.6221 130.328 27.2501 129.376 27.6958C128.424 28.1414 127.33 28.3643 126.094 28.3643L126.671 27.1184C128.008 27.1184 129.193 27.3412 130.227 27.7869C131.26 28.2123 132.06 28.8504 132.627 29.7013C133.215 30.5521 133.508 31.5954 133.508 32.8311C133.508 34.6543 132.789 36.0825 131.351 37.1156C129.913 38.1285 127.796 38.635 125 38.635H114ZM118.892 34.9278H124.635C125.912 34.9278 126.874 34.7252 127.522 34.3201C128.191 33.8946 128.525 33.2261 128.525 32.3145C128.525 31.4232 128.191 30.7648 127.522 30.3394C126.874 29.8937 125.912 29.6709 124.635 29.6709H118.528V26.0853H123.785C124.98 26.0853 125.891 25.8827 126.519 25.4775C127.168 25.0521 127.492 24.414 127.492 23.5632C127.492 22.7326 127.168 22.1147 126.519 21.7096C125.891 21.2841 124.98 21.0714 123.785 21.0714H118.892V34.9278Z" fill="white"/>
</svg>
