<svg width="364" height="56" viewBox="0 0 364 56" fill="none" xmlns="http://www.w3.org/2000/svg">
<path d="M364 0H0V56H364V0Z" fill="#53AE94"/>
<path d="M214.367 38.6352V21.3756H207.561V17.3645H226.097V21.3756H219.29V38.6352H214.367Z" fill="white"/>
<path d="M183.938 38.6352V17.3645H193.601C195.91 17.3645 197.946 17.8102 199.709 18.7015C201.471 19.5726 202.849 20.7982 203.841 22.3783C204.834 23.9584 205.33 25.8323 205.33 27.9999C205.33 30.1472 204.834 32.021 203.841 33.6214C202.849 35.2015 201.471 36.4372 199.709 37.3286C197.946 38.1997 195.91 38.6352 193.601 38.6352H183.938ZM188.861 34.5938H193.358C194.776 34.5938 196.002 34.3304 197.035 33.8037C198.088 33.2568 198.898 32.487 199.466 31.4943C200.053 30.5017 200.347 29.3369 200.347 27.9999C200.347 26.6426 200.053 25.4778 199.466 24.5054C198.898 23.5128 198.088 22.7531 197.035 22.2264C196.002 21.6794 194.776 21.4059 193.358 21.4059H188.861V34.5938Z" fill="white"/>
<path d="M170.334 39C168.632 39 167.002 38.7772 165.442 38.3315C163.882 37.8656 162.626 37.268 161.674 36.5387L163.345 32.8315C164.257 33.4797 165.33 34.0166 166.566 34.442C167.822 34.8471 169.088 35.0497 170.364 35.0497C171.337 35.0497 172.117 34.9586 172.704 34.7762C173.312 34.5737 173.758 34.3002 174.041 33.9558C174.325 33.6114 174.467 33.2164 174.467 32.7707C174.467 32.2035 174.244 31.7578 173.798 31.4337C173.352 31.0893 172.765 30.8158 172.036 30.6133C171.306 30.3904 170.496 30.1878 169.605 30.0055C168.734 29.8029 167.852 29.5599 166.961 29.2762C166.09 28.9926 165.29 28.628 164.561 28.1823C163.831 27.7366 163.234 27.1492 162.768 26.4199C162.322 25.6906 162.099 24.7587 162.099 23.6243C162.099 22.4088 162.423 21.3048 163.072 20.3122C163.74 19.2993 164.733 18.4991 166.05 17.9116C167.387 17.3039 169.058 17 171.063 17C172.4 17 173.717 17.1621 175.014 17.4862C176.31 17.7901 177.455 18.256 178.447 18.884L176.928 22.6215C175.935 22.0543 174.943 21.639 173.95 21.3757C172.957 21.0921 171.985 20.9503 171.033 20.9503C170.081 20.9503 169.301 21.0617 168.693 21.2845C168.085 21.5074 167.65 21.8011 167.387 22.1657C167.123 22.5101 166.992 22.9153 166.992 23.3812C166.992 23.9282 167.214 24.3738 167.66 24.7182C168.106 25.0424 168.693 25.3057 169.422 25.5083C170.152 25.7109 170.952 25.9134 171.823 26.116C172.714 26.3186 173.596 26.5516 174.467 26.8149C175.358 27.0783 176.168 27.4328 176.898 27.8785C177.627 28.3241 178.214 28.9116 178.66 29.6409C179.126 30.3702 179.359 31.2919 179.359 32.4061C179.359 33.6013 179.025 34.6952 178.356 35.6878C177.688 36.6805 176.685 37.4807 175.348 38.0884C174.031 38.6961 172.36 39 170.334 39Z" fill="white"/>
<path d="M147.633 38.9999C144.614 38.9999 142.254 38.1592 140.552 36.4778C138.851 34.7964 138 32.3958 138 29.2761V17.3645H142.923V29.0938C142.923 31.1196 143.338 32.5781 144.169 33.4695C144.999 34.3608 146.164 34.8065 147.663 34.8065C149.162 34.8065 150.327 34.3608 151.157 33.4695C151.988 32.5781 152.403 31.1196 152.403 29.0938V17.3645H157.265V29.2761C157.265 32.3958 156.414 34.7964 154.713 36.4778C153.011 38.1592 150.651 38.9999 147.633 38.9999Z" fill="white"/>
</svg>
