<svg width="120" height="120" viewBox="0 0 120 120" fill="none" xmlns="http://www.w3.org/2000/svg">
<path fill-rule="evenodd" clip-rule="evenodd" d="M0 0H120V120H0V0ZM29.2969 29.0156C29.2969 49.4297 29.2969 69.8438 29.3203 90.2578C34.0078 90.2578 38.6953 90.2578 43.3828 90.2578C43.3828 69.8438 43.3828 49.4297 43.3828 29.0156C38.6953 29.0313 34 29.0313 29.2969 29.0156ZM64.7578 30C64.6641 33.4219 64.1016 36.8438 63.0234 40.1016C60.8906 46.7109 56.6953 52.5937 51.2344 56.8828C49.2188 58.4297 47.1328 59.9297 45.1172 61.5C52.125 71.0859 59.2031 80.625 66.1875 90.2578C71.9766 90.2578 77.7656 90.2578 83.5312 90.2578C77.0859 81.4219 70.5938 72.6094 64.125 63.7734C67.7109 60.1875 70.7578 56.0625 73.0781 51.5625C76.6641 44.625 78.5156 36.8203 78.5156 29.0156C73.9453 29.0391 69.3984 29.0156 64.8516 29.0391C64.6641 29.2969 64.8281 29.6953 64.7578 30ZM91.6641 75.75C90.6328 75.9844 89.6016 76.4063 88.7344 77.0391C86.1563 78.8203 84.8906 82.2891 85.7812 85.3125C86.6484 88.6172 89.8828 91.0781 93.2812 90.9844C96.0703 90.9609 98.7188 89.3203 100.008 86.8594C101.156 84.6797 101.156 81.9375 100.031 79.7578C98.5312 76.7578 94.9453 75.0469 91.6641 75.75Z" fill="#FEB3C7"/>
<path d="M29.2969 29.0156C34 29.0313 38.6953 29.0313 43.3828 29.0156C43.3828 49.4297 43.3828 69.8437 43.3828 90.2578C38.6953 90.2578 34.0078 90.2578 29.3203 90.2578C29.2969 69.8437 29.2969 49.4297 29.2969 29.0156Z" fill="black"/>
<path d="M64.7578 30C64.8281 29.6953 64.6641 29.2969 64.8516 29.0391C69.3984 29.0156 73.9688 29.0391 78.5156 29.0156C78.5156 36.8203 76.6641 44.625 73.0781 51.5625C70.7578 56.0625 67.7109 60.1875 64.125 63.7734C70.5938 72.6094 77.0859 81.4219 83.5313 90.2578C77.7656 90.2578 71.9766 90.2578 66.1875 90.2578C59.2031 80.625 52.125 71.0859 45.1172 61.5C47.1328 59.9297 49.2188 58.4297 51.2344 56.8828C56.6953 52.5937 60.8906 46.7109 63.0234 40.1016C64.1016 36.8438 64.6641 33.4219 64.7578 30Z" fill="black"/>
<path d="M91.6641 75.75C94.9453 75.0469 98.5313 76.7578 100.031 79.7578C101.156 81.9375 101.156 84.6797 100.008 86.8594C98.7188 89.3203 96.0703 90.9609 93.2813 90.9609C89.8828 91.0781 86.6484 88.6172 85.7813 85.3125C84.8906 82.2891 86.1563 78.8203 88.7344 77.0391C89.6016 76.4063 90.6328 75.9844 91.6641 75.75Z" fill="black"/>
</svg>
