<svg width="184" height="28" viewBox="0 0 184 28" fill="none" xmlns="http://www.w3.org/2000/svg">
<path d="M10.2867 8.62013V18.5247C11.6268 17.802 12.5653 16.5437 13.0209 15.1248L13.1282 15.1786C12.8331 18.7122 10.4206 22.2453 6.66759 22.2453C2.88763 22.2453 0.0996094 19.4349 0.0996094 14.9373C0.0996094 11.5647 2.29778 9.44963 5.11275 7.54894C4.70143 7.4412 4.27786 7.38722 3.85263 7.38835C1.92224 7.38835 0.796417 8.70004 0.796417 10.0386H0.635585C0.608647 9.85113 0.608647 9.66402 0.608647 9.47653C0.608647 7.09405 1.86876 4.20287 4.92498 4.20287C6.8819 4.20287 8.38327 5.99636 10.6619 5.99636C11.5734 5.99636 12.6992 5.56796 13.1548 4.57747H13.2352C13.2086 6.31795 12.6727 8.11144 10.2867 8.62013ZM11.7342 18.7656C10.3937 20.1841 8.94619 21.3889 7.06967 21.3889C3.58484 21.3889 0.904167 18.6584 0.904167 14.6964C0.904167 12.3677 1.86916 11.1098 2.94151 9.63713H2.83416C2.16389 10.3064 0.394732 11.9927 0.394732 14.857C0.394732 19.2474 3.15582 21.951 6.77495 21.951C9.29479 21.951 11.0105 20.2113 11.7881 18.7925L11.7342 18.7656ZM12.8062 5.78275C12.3506 6.63915 11.3856 7.73644 9.42868 7.73644C7.47176 7.73644 5.67566 6.39785 4.09388 6.39785C2.64599 6.39785 1.65445 7.36184 1.27891 8.08454L1.30585 8.13833C1.81529 7.62964 2.59251 7.12094 3.85263 7.12094C5.94345 7.12094 7.28399 8.40613 9.40175 8.40613C11.6538 8.40613 12.6723 6.93345 12.86 5.80965L12.8062 5.78275ZM5.3536 7.62964C3.98652 9.04853 2.72641 10.6011 2.72641 13.626C2.72641 15.2854 3.28932 16.9986 4.54944 18.0694L5.32666 17.6675V10.4939L4.60292 10.8685L4.46902 10.6007L8.22204 8.56594C7.20357 8.35233 6.29205 7.89744 5.3536 7.62964ZM9.9916 8.67353C9.80383 8.70004 9.61645 8.70004 9.40175 8.70004C9.0266 8.70004 8.678 8.67353 8.3294 8.59284V16.4092L4.81762 18.3107C5.54137 18.8459 6.42595 19.1671 7.55178 19.1671C8.46329 19.1671 9.26745 18.9796 9.9912 18.6584L9.9916 8.67353ZM6.13122 10.039L5.62179 10.3333V17.5077L6.13122 17.2399V10.039ZM21.5458 11.056V20.3181C21.5458 22.8877 19.2672 24.6282 16.7204 25.1365L16.6669 25.0293C17.927 24.4134 18.6508 23.1555 18.6508 21.8169V12.2336L17.2033 10.9223L16.6404 11.5378V19.0065L17.4445 19.7292V19.7829L15.2733 22.1385L12.7804 19.8632V19.7561L13.7454 18.7387V6.90694L16.5869 3.88246L16.6404 3.90896V11.0829L18.9729 8.56673L21.4123 10.7621L21.8678 10.2799L22.0825 10.4678L21.5458 11.056ZM14.0397 19.8095V19.7561L14.6026 19.1936V6.45165L14.0397 7.04104V18.9262L13.1817 19.7829V19.8364L15.2725 21.7101L15.6477 21.2817L14.0397 19.8095ZM19.5084 11.8052L17.7658 10.3064L17.3907 10.7079L18.9455 12.1003V21.737C18.9455 22.3794 18.8116 23.0483 18.5704 23.4233L18.5973 23.4502C19.2676 22.968 19.5088 22.2453 19.5088 21.3086L19.5084 11.8052ZM25.8082 16.4365V17.8016L28.4085 19.836L29.9099 18.23L30.1246 18.444L26.6397 22.1646L23.101 19.3273L22.565 19.8894L22.3503 19.6754L22.9671 19.033V12.2605L28.0337 8.56634L30.6879 12.8495L25.8082 16.4365ZM23.8244 18.7925V11.9927L23.2615 12.3946V19.0603L26.5859 21.7639L27.0149 21.309L23.8244 18.7925ZM25.8621 10.5473L25.8082 10.5742V16.0619L28.1942 14.3218L25.8621 10.5473ZM26.5589 10.0121L26.0764 10.3598L28.4358 14.1343L28.9183 13.7862L26.5589 10.0121ZM48.162 22.1381L44.4355 18.9258L41.594 22.1381L37.7336 18.8186V13.5722H36.9829C36.3127 13.5722 35.9644 14.0006 35.8032 14.5089H35.7228C35.6372 14.1765 35.5923 13.835 35.5889 13.4919C35.5889 12.7957 35.7767 10.9757 37.7336 10.9757V6.37135C37.7336 5.48806 36.6882 5.13996 36.6882 3.96197C36.6882 2.43667 38.1357 0.937487 40.7898 0L40.8972 0.0802995C39.9322 0.642792 39.4227 1.17799 39.4227 2.32908C39.4227 4.09607 41.1384 3.64077 41.1384 6.42475V7.49554L44.275 4.20287L47.5725 7.44175L50.6822 4.20287L53.6845 7.14745V17.052L48.162 22.1381ZM38.5916 18.3906V12.7427H37.0903C36.3126 12.7427 35.9644 13.251 35.9106 13.7063L35.9371 13.7332C36.2053 13.4389 36.4735 13.2783 37.0899 13.2783H38.0279V18.6857L41.5666 21.7374L41.9687 21.2552L38.5916 18.3906ZM38.5916 6.10355C38.5916 5.00626 37.6266 4.63126 37.6266 3.93547C37.6266 2.97148 38.0018 2.16888 38.5916 1.41928L38.5382 1.39278C37.734 2.00867 36.9833 2.99917 36.9833 3.96237C36.9833 4.92635 38.0287 5.38125 38.0287 6.23804V10.9761H38.5916V6.10355ZM44.2481 8.78073L42.2108 6.79975L41.1384 7.89704V17.3732L43.5778 19.4345L44.2481 18.6849V8.78073ZM45.1057 18.3372V8.40613L42.8272 6.15735L42.3981 6.58575L44.5428 8.64663V18.6315L48.162 21.7635L48.591 21.3616L45.1057 18.3372ZM50.3067 8.43263L48.6179 6.82625L47.6529 7.81674V17.3467L50.2801 19.6485L50.3067 19.622V8.43263ZM51.1643 8.05804L49.2074 6.15735L48.8053 6.58575L50.6014 8.29893V19.4883L51.1643 18.9527V8.05804ZM62.5553 22.1381L60.0085 19.836L57.7299 22.1381L54.9419 19.6754L54.5663 20.0769L54.352 19.8629L54.8345 19.3542V12.1806L59.8746 8.53983L62.77 10.7886L63.2794 10.253L63.4941 10.4674L62.9043 11.0829V18.4982L64.3248 19.8095L64.7808 19.3277L64.9951 19.5152L62.5553 22.1381ZM55.6926 19.1671V11.9393L55.1296 12.3408V19.4349L57.7034 21.737L58.1324 21.3086L55.6926 19.1671ZM60.0085 12.1268L57.8103 10.4136L57.7299 10.4674V18.2569L59.5529 19.836L60.0085 19.3811V12.1268ZM60.8665 19.408V11.7253L58.5879 9.87803L58.052 10.2526L60.3036 12.0196V19.6754L62.5557 21.7097L62.9577 21.2813L60.8665 19.408ZM70.3564 13.4116H73.1175V19.1402L68.8551 22.1381C68.2922 21.4957 67.4876 21.0408 66.4961 21.0408C65.6919 21.0408 65.0482 21.3086 64.1905 22.0313L64.0566 21.9775L67.7027 16.6774H65.4507V11.6984L69.9278 8.59323C70.4638 9.02163 70.8659 9.26213 71.5631 9.26213C72.0995 9.26213 72.8767 9.15493 73.4665 8.67353L73.5739 8.72693L70.3564 13.4116ZM67.3541 20.2644C66.5765 20.2644 65.9601 20.5321 65.4237 20.9067V20.9605C65.8527 20.773 66.2818 20.7196 66.6838 20.7196C67.3002 20.7196 68.2656 21.0143 68.909 21.7639L69.5257 21.309C69.0159 20.7196 68.3995 20.2644 67.3541 20.2644ZM70.2222 15.7672H68.7208L65.5842 20.2916L65.6111 20.345C66.3883 19.783 67.139 19.4084 68.0505 19.4084C68.8547 19.4084 69.6858 19.7829 70.1952 20.4253L70.2222 20.3988V15.7672ZM66.3083 15.7672V11.4579L65.7454 11.8594V16.3566H67.9166L68.3456 15.7676L66.3083 15.7672ZM71.9113 10.5204C71.3484 10.9223 71.0267 11.1363 70.0883 11.1363C69.5519 11.1363 68.9085 10.8954 68.3995 10.3598L68.346 10.3867V14.2949H69.3645L71.9382 10.5469L71.9113 10.5204ZM70.6246 10.2795C70.1421 10.2795 69.5257 10.039 69.1233 9.50343L68.453 9.95832C68.9624 10.5742 69.4449 10.8416 70.1952 10.8416C70.6777 10.8416 71.3749 10.7075 72.0987 10.0916L72.1252 10.0117C71.67 10.1996 71.1071 10.2795 70.6246 10.2795ZM71.0802 14.8843H69.3376L68.9355 15.4464H70.5173V20.6393L71.0802 20.2378V14.8843ZM82.3662 11.056V20.3181C82.3662 22.8877 80.0876 24.6282 77.5408 25.1365L77.4873 25.0293C78.7475 24.4134 79.4712 23.1555 79.4712 21.8169V12.2336L78.0237 10.9223L77.4608 11.5378V19.0065L78.265 19.7292V19.7829L76.0937 22.1385L73.6008 19.8632V19.7561L74.5658 18.7387V6.90694L77.4073 3.88246L77.4608 3.90896V11.0829L79.7933 8.56673L82.2327 10.7621L82.6882 10.2799L82.903 10.4678L82.3662 11.056ZM74.8601 19.8095V19.7561L75.4231 19.1936V6.45165L74.8601 7.04064V18.9258L74.0021 19.7826V19.836L76.0929 21.7097L76.4681 21.2813L74.8601 19.8095ZM80.3288 11.8052L78.5862 10.3064L78.2111 10.7079L79.7659 12.1003V21.737C79.7659 22.3794 79.632 23.0483 79.3908 23.4233L79.4177 23.4502C80.088 22.968 80.3292 22.2453 80.3292 21.3086L80.3288 11.8052ZM87.2454 22.1381L84.9399 20.0235L84.4035 20.5855L84.1888 20.3712L84.8056 19.7023V11.9662L83.6798 10.8954L83.2508 11.3776L83.0361 11.1632L85.4485 8.53983L87.5932 10.4674L88.1296 9.87842L88.3709 10.0659L87.7006 10.7886V18.6054L88.9877 19.8098L89.5775 19.194L89.7918 19.4084L87.2454 22.1381ZM85.6637 19.5152V11.5378L84.2696 10.253L83.8945 10.6814L85.1007 11.8325V19.7829L87.2454 21.7101L87.6475 21.2817L85.6637 19.5152ZM86.4678 8.32583L84.2696 6.31834L86.2804 4.17676L88.4786 6.18425L86.4678 8.32583ZM85.1007 5.88955L84.6987 6.29105L86.4409 7.92394L86.843 7.46904L85.1007 5.88955ZM98.581 22.1381L96.2485 20.0235V12.2071L94.8275 10.9223L94.0768 11.7253V18.9527L94.908 19.7288V19.836L92.7098 22.1381L90.2165 19.8629V19.7826L91.1819 18.7656V12.0196L89.9217 10.8685L89.4123 11.4306L89.198 11.2166L91.6374 8.56634L94.0768 10.7348V11.27L96.6236 8.56634L99.0092 10.7079L99.5456 10.1458L99.7868 10.3598L99.1435 11.0291V18.6849L100.35 19.8091L100.94 19.1667L101.154 19.3807L98.581 22.1381ZM91.5035 19.8095V19.7561C91.5035 19.8095 92.0399 19.2205 92.0399 19.2205V11.6177L90.5116 10.2257L90.1361 10.6272L91.4766 11.8586V18.9254L90.6455 19.7822V19.8356L92.7098 21.7093L93.1384 21.2544L91.5035 19.8095ZM97.1061 19.5955V11.7522L95.4443 10.253L95.0153 10.7079L96.5432 12.073V19.8629L98.5536 21.7366L98.9826 21.2813L97.1061 19.5955ZM106.141 26.9565C105.257 25.9929 104.64 25.5914 103.809 25.5914C102.924 25.5914 101.905 25.9395 100.86 26.5016L100.78 26.4217L104.479 22.1385L101.852 20.0507L101.343 20.5863L101.128 20.3988L101.718 19.7564V12.1806L106.811 8.53983L109.653 10.7886L110.136 10.253L110.35 10.4674L109.787 11.0829V20.2382C109.787 21.6302 110.564 21.5768 110.564 22.6203C110.564 23.8248 108.822 24.949 106.141 26.9565ZM102.576 19.5417V11.9662L102.013 12.3681V19.7829L104.667 21.9245L105.069 21.4423L102.576 19.5417ZM104.452 24.8956C103.568 24.8956 102.763 25.1634 102.013 25.6717V25.7255C102.495 25.538 103.031 25.2971 103.943 25.2971C104.774 25.2971 105.471 25.752 106.168 26.5554L106.704 26.127C106.034 25.3509 105.229 24.8956 104.452 24.8956ZM107.723 22.3256C107.053 21.8972 106.892 21.4423 106.892 20.2912V19.8091L102.441 24.9486L102.468 24.9751C103.326 24.4668 104.104 24.0922 105.364 24.0922C106.436 24.0922 107.16 24.5202 107.991 25.2164C108.5 24.788 108.849 24.36 108.849 23.6907C108.849 23.1555 108.393 22.754 107.723 22.3256ZM106.892 12.1268L104.667 10.3871L104.613 10.4405V18.6584L106.329 19.9969L106.892 19.3546V12.1268ZM108.527 21.951C107.83 21.4154 107.749 20.9605 107.749 19.8095V11.6719L105.497 9.85152L104.988 10.1996L107.186 11.9393V20.1841C107.186 21.3351 107.24 21.6567 107.964 22.1381C108.607 22.5665 109.116 23.0214 109.116 23.6373C109.116 23.7975 109.09 24.0653 109.09 24.0653L109.116 24.0922C109.251 23.9581 109.411 23.7441 109.411 23.396C109.412 22.8074 109.117 22.4059 108.527 21.951ZM114.961 22.1381L112.495 20.211L111.985 20.773L111.771 20.5587L112.36 19.9163V10.5473H110.806L110.752 10.4939L111.69 9.10153H112.36V7.30844L115.202 4.28356L115.255 4.33736V9.10193H117.4L117.454 9.15573L116.515 10.5477H115.255V18.6588L116.73 19.7833L117.293 19.1675L117.507 19.3815L114.961 22.1381ZM113.218 6.85315L112.655 7.46904V9.10193H113.218V6.85315ZM113.218 19.6489V10.5473H112.655V19.9701L114.934 21.737L115.336 21.3086L113.218 19.6489ZM126.274 11.3238V18.819L121.743 22.165L118.338 19.5955L117.936 20.0504L117.722 19.836L118.204 19.3008V11.9662L122.95 8.56634L126.113 11.0295L126.622 10.4939L126.836 10.7079L126.274 11.3238ZM119.063 19.0334V11.7253L118.499 12.1268V19.3277L121.716 21.7904L122.226 21.4158L119.063 19.0334ZM123.379 12.2071L121.127 10.4401L121.1 10.467V18.444L123.379 20.1572V12.2071ZM124.237 11.7253L121.743 9.79773L121.234 10.1723L123.674 12.0461V20.3715L124.237 19.9435V11.7253ZM136.515 22.1381L134.182 20.0235V12.2071L132.761 10.9223L132.01 11.7253V18.9527L132.842 19.7288V19.836L130.643 22.1381L128.15 19.8629V19.7826L129.115 18.7656V12.0196L127.855 10.8685L127.346 11.4306L127.132 11.2166L129.571 8.56634L132.01 10.7348V11.27L134.557 8.56634L136.943 10.7079L137.479 10.1458L137.72 10.3598L137.077 11.0291V18.6849L138.283 19.8091L138.873 19.1667L139.087 19.3807L136.515 22.1381ZM129.437 19.8095V19.7561C129.437 19.8095 129.973 19.2205 129.973 19.2205V11.6177L128.445 10.2257L128.07 10.6272L129.411 11.8586V18.9254L128.579 19.7822V19.8356L130.644 21.7093L131.073 21.2544L129.437 19.8095ZM135.04 19.5955V11.7522L133.378 10.253L132.949 10.7079L134.477 12.073V19.8629L136.487 21.7366L136.916 21.2813L135.04 19.5955ZM153.076 22.1381C152.325 21.3351 152.057 21.0673 151.172 20.8264V26.0732L151.118 26.0997L150.046 25.1357L146.936 28L146.882 27.9735V20.773C145.944 20.987 144.952 21.4692 143.987 22.4324L143.933 22.4059C144.121 20.3447 145.14 18.819 146.882 18.23V13.0101H146.319C145.542 13.0101 145.113 13.4116 144.738 14.1343H144.657C144.577 13.8938 144.523 13.5184 144.523 12.9033C144.523 11.7787 145.354 10.6011 146.721 10.6011H146.882V7.70994L145.783 6.71945L145.247 7.25504L145.059 7.06754L147.766 4.20326L150.286 6.50545V8.94133L150.876 8.29893V5.22026H151.171V8.03114L154.736 4.20287L157.765 6.96034V18.605L153.076 22.1381ZM146.883 19.7826C145.784 19.9966 145.007 20.6658 144.498 21.5491L144.524 21.6029C145.275 20.9605 145.972 20.6662 146.883 20.4518V19.7826ZM147.741 12.1003H146.267C145.248 12.1003 144.846 12.7427 144.819 13.4923L144.846 13.5188C145.167 12.9832 145.489 12.7961 146.132 12.7162H147.178V27.305L147.741 26.7694V12.1003ZM147.741 7.28154L146.401 6.05055L145.972 6.50545L147.178 7.57584V10.6007H147.741V7.28154ZM150.878 8.80723L150.288 9.42313V24.9225L150.878 25.4581V8.80723ZM154.39 8.19174L152.808 6.74634L151.172 8.51333V17.9357C152.566 18.0698 153.531 18.4713 154.363 19.3811L154.39 19.3546V8.19174ZM151.172 19.7826V20.4787C152.084 20.6927 152.459 20.9605 153.102 21.7097L153.719 21.2279C153.076 20.425 152.432 19.9435 151.172 19.7826ZM155.247 7.76374L153.424 6.07705L152.995 6.53195L154.684 8.08454V20.5321L155.247 20.1038V7.76374ZM167.123 11.3238V18.819L162.592 22.165L159.188 19.5955L158.785 20.0504L158.571 19.836L159.053 19.3008V11.9662L163.799 8.56634L166.962 11.0295L167.471 10.4939L167.686 10.7079L167.123 11.3238ZM159.912 19.0334V11.7253L159.348 12.1268V19.3277L162.565 21.7904L163.075 21.4158L159.912 19.0334ZM164.228 12.2071L161.976 10.4401L161.949 10.467V18.444L164.228 20.1572V12.2071ZM165.086 11.7253L162.592 9.79773L162.083 10.1723L164.523 12.0461V20.3715L165.086 19.9435V11.7253ZM173.342 13.4116H176.103V19.1402L171.841 22.1381C171.278 21.4957 170.474 21.0408 169.482 21.0408C168.678 21.0408 168.035 21.3086 167.176 22.0313L167.043 21.9775L170.688 16.6774H168.436V11.6984L172.913 8.59323C173.45 9.02163 173.851 9.26213 174.549 9.26213C175.085 9.26213 175.862 9.15493 176.452 8.67353L176.559 8.72693L173.342 13.4116ZM170.34 20.2644C169.562 20.2644 168.946 20.5321 168.41 20.9067V20.9605C168.839 20.773 169.267 20.7196 169.67 20.7196C170.287 20.7196 171.251 21.0143 171.895 21.7639L172.511 21.309C172.002 20.7196 171.385 20.2644 170.34 20.2644ZM173.209 15.7672H171.707L168.571 20.2916L168.597 20.345C169.375 19.783 170.125 19.4084 171.037 19.4084C171.841 19.4084 172.672 19.7829 173.182 20.4253L173.208 20.3988L173.209 15.7672ZM169.295 15.7672V11.4579L168.731 11.8594V16.3566H170.903L171.332 15.7676L169.295 15.7672ZM174.897 10.5204C174.334 10.9223 174.013 11.1363 173.074 11.1363C172.537 11.1363 171.894 10.8954 171.385 10.3598L171.331 10.3867V14.2949H172.35L174.923 10.5469L174.897 10.5204ZM173.61 10.2795C173.128 10.2795 172.511 10.039 172.109 9.50343L171.439 9.95832C171.948 10.5742 172.431 10.8416 173.182 10.8416C173.664 10.8416 174.361 10.7075 175.085 10.0916L175.112 10.0117C174.656 10.1996 174.093 10.2795 173.61 10.2795ZM174.066 14.8843H172.324L171.922 15.4464H173.503V20.6393L174.066 20.2378V14.8843ZM180.554 22.1381L178.087 20.211L177.578 20.773L177.364 20.5587L177.953 19.9163V10.5473H176.398L176.345 10.4939L177.283 9.10153H177.953V7.30844L180.795 4.28356L180.848 4.33736V9.10193H182.993L183.047 9.15573L182.108 10.5477H180.848V18.6588L182.323 19.7833L182.886 19.1675L183.1 19.3815L180.554 22.1381ZM178.811 6.85315L178.248 7.46904V9.10193H178.811V6.85315ZM178.811 19.6489V10.5473H178.248V19.9701L180.527 21.737L180.929 21.3086L178.811 19.6489Z" fill="#131317"/>
</svg>
