<svg width="24" height="24" viewBox="0 0 24 24" fill="none" xmlns="http://www.w3.org/2000/svg">
  <g clip-path="url(#clip0_523_32)">
  <path fill-rule="evenodd" clip-rule="evenodd" d="M6.88418 1.14539C8.48349 0.391605 10.2296 0.000486186 11.9977 7.24339e-08C13.959 -0.000215388 15.8905 0.480249 17.6232 1.39935C19.3558 2.31844 20.8368 3.64815 21.9364 5.27211C23.036 6.89607 23.7209 8.76477 23.931 10.7147C24.141 12.6646 23.87 14.6363 23.1415 16.4571V22.2857C23.1415 22.513 23.0512 22.7311 22.8904 22.8918C22.7296 23.0526 22.5116 23.1429 22.2843 23.1429H16.4552C14.8134 23.799 13.0469 24.0844 11.282 23.9784C9.51712 23.8725 7.79743 23.378 6.24592 22.5302C4.69441 21.6824 3.34941 20.5022 2.30711 19.0742C1.2648 17.6461 0.550937 16.0054 0.216564 14.2694C-0.117809 12.5334 -0.0644304 10.7449 0.372883 9.03193C0.810197 7.31893 1.62064 5.72372 2.74626 4.36036C3.87188 2.997 5.28487 1.89917 6.88418 1.14539Z" fill="#171C29" fill-opacity="0.4"/>
  <path fill-rule="evenodd" clip-rule="evenodd" d="M7.73682 2.95449C9.06958 2.32634 10.5247 2.00041 11.9981 2C13.6325 1.99982 15.2421 2.40021 16.686 3.16612C18.1298 3.93203 19.364 5.04013 20.2803 6.39343C21.1967 7.74672 21.7674 9.30398 21.9425 10.9289C22.1175 12.5538 21.8916 14.1969 21.2846 15.7143V20.5714C21.2846 20.7609 21.2093 20.9425 21.0753 21.0765C20.9414 21.2105 20.7597 21.2857 20.5702 21.2857H15.7127C14.3445 21.8325 12.8724 22.0703 11.4017 21.982C9.93094 21.8938 8.49786 21.4817 7.20494 20.7751C5.91201 20.0686 4.79118 19.0852 3.92259 17.8952C3.054 16.7051 2.45911 15.3379 2.18047 13.8912C1.90183 12.4445 1.94631 10.9541 2.31074 9.52661C2.67516 8.09911 3.35053 6.76977 4.28855 5.63363C5.22657 4.4975 6.40406 3.58264 7.73682 2.95449Z" fill="#171C29"/>
  <path d="M10.0132 14.5356V14.2181C9.99732 13.6302 10.058 13.0427 10.1938 12.4696C10.2844 12.087 10.4647 11.7298 10.7206 11.4257C10.9681 11.1441 11.2558 10.8983 11.5748 10.6956C11.8684 10.5094 12.128 10.3306 12.3613 10.159C12.5714 10.0036 12.7554 9.81771 12.907 9.60784C13.0426 9.41153 13.1135 9.17982 13.1102 8.9435C13.1141 8.73741 13.0566 8.5346 12.9446 8.35946C12.8361 8.19149 12.6826 8.05524 12.5005 7.96524C12.1907 7.81604 11.835 7.78308 11.5016 7.87267C11.1683 7.96227 10.8808 8.16812 10.6943 8.45072C10.5668 8.65528 10.5015 8.89066 10.5061 9.12966H7.00274C6.9713 8.28781 7.21065 7.45733 7.68762 6.75336C8.13159 6.14618 8.75091 5.68005 9.46753 5.41373C10.2454 5.12517 11.0734 4.98511 11.906 5.00125C12.7964 4.98748 13.6821 5.12841 14.5213 5.41738C15.2355 5.65865 15.8644 6.09154 16.3351 6.66576C16.7941 7.26708 17.0277 8.00239 16.9974 8.75004C17.0076 9.23381 16.9113 9.71414 16.7151 10.159C16.5282 10.5623 16.2609 10.9258 15.9287 11.2285C15.5706 11.5497 15.1768 11.8313 14.7546 12.0681C14.4576 12.2319 14.1789 12.4252 13.923 12.6448C13.7086 12.8309 13.5368 13.0584 13.4187 13.3128C13.2956 13.6006 13.2366 13.9103 13.2456 14.2217V14.5393L10.0132 14.5356ZM11.684 18.9999C11.4318 19.0027 11.1815 18.9564 10.9482 18.8636C10.7148 18.7708 10.5031 18.6334 10.3255 18.4596C10.1432 18.289 9.99954 18.0833 9.90365 17.8558C9.80777 17.6283 9.76177 17.3839 9.76858 17.1383C9.76296 16.8971 9.80964 16.6574 9.90558 16.4348C10.0015 16.2122 10.1446 16.0116 10.3255 15.8461C10.6825 15.5004 11.1663 15.3062 11.6708 15.3062C12.1752 15.3062 12.6591 15.5004 13.0161 15.8461C13.2017 16.0096 13.3499 16.2091 13.451 16.4317C13.5521 16.6543 13.604 16.895 13.6031 17.1383C13.6029 17.4713 13.5064 17.7975 13.3246 18.08C13.1499 18.3548 12.9099 18.5851 12.6247 18.7517C12.34 18.9153 12.0149 19.0011 11.684 18.9999Z" fill="white"/>
  </g>
  <defs>
  <clipPath id="clip0_523_32">
  <rect width="24" height="24" fill="white"/>
  </clipPath>
  </defs>
  </svg>