<svg width="92" height="92" viewBox="0 0 92 92" fill="none" xmlns="http://www.w3.org/2000/svg">
<rect width="92" height="92" fill="black"/>
<path fill-rule="evenodd" clip-rule="evenodd" d="M58.3038 37.6806C62.3165 40.5357 67.1219 42.0612 72.0451 42.0427V32.2769C71.0772 32.2795 70.112 32.1758 69.1668 31.9676V39.7477C64.2324 39.7565 59.42 38.2135 55.4092 35.3368V55.4218C55.3971 58.7176 54.4941 61.9487 52.7959 64.7724C51.0978 67.5961 48.6678 69.9072 45.7637 71.4607C42.8595 73.0142 39.5895 73.7521 36.3003 73.5962C33.0112 73.4403 29.8254 72.3963 27.081 70.5751C29.6195 73.1459 32.8632 74.9048 36.4012 75.6293C39.9392 76.3537 43.6124 76.0111 46.9556 74.6447C50.2989 73.2783 53.1619 70.9496 55.1821 67.9536C57.2022 64.9576 58.2887 61.4289 58.3038 57.8145V37.6806ZM61.8652 27.7195C59.8246 25.5058 58.5725 22.6789 58.3038 19.679V18.4094H55.5718C55.9095 20.3163 56.6444 22.1307 57.7287 23.7347C58.8129 25.3387 60.2223 26.6964 61.8652 27.7195ZM33.4069 62.8438C32.46 61.6045 31.8797 60.124 31.7321 58.5708C31.5844 57.0177 31.8754 55.4542 32.5718 54.0584C33.2683 52.6626 34.3422 51.4905 35.6714 50.6755C37.0006 49.8605 38.5318 49.4353 40.0905 49.4484C40.9511 49.4482 41.8066 49.5799 42.6274 49.839V39.7477C41.668 39.6205 40.7003 39.5661 39.7327 39.5849V47.4301C37.7344 46.7979 35.5714 46.9417 33.6741 47.8329C31.7768 48.7241 30.2842 50.2974 29.4931 52.24C28.702 54.1825 28.6704 56.3519 29.4046 58.3167C30.1389 60.2815 31.5851 61.8977 33.4557 62.8438H33.4069Z" fill="#EE1D52"/>
<path fill-rule="evenodd" clip-rule="evenodd" d="M55.4077 35.2717C59.4186 38.1484 64.231 39.6914 69.1653 39.6826V31.9025C66.3539 31.3076 63.8001 29.8445 61.8637 27.7195C60.2208 26.6964 58.8115 25.3387 57.7272 23.7347C56.643 22.1307 55.9081 20.3163 55.5704 18.4094H48.3826V57.8145C48.3759 59.5586 47.8237 61.257 46.8034 62.671C45.7831 64.085 44.346 65.1437 42.6938 65.6985C41.0417 66.2533 39.2574 66.2763 37.5915 65.7643C35.9256 65.2524 34.4618 64.2311 33.4054 62.8438C31.7313 61.9984 30.3906 60.6131 29.5996 58.9114C28.8086 57.2097 28.6135 55.291 29.0457 53.4647C29.4779 51.6384 30.5122 50.0112 31.9818 48.8454C33.4514 47.6797 35.2705 47.0435 37.1456 47.0395C38.006 47.0423 38.8611 47.1739 39.6825 47.4301V39.5849C36.1335 39.6702 32.6866 40.7908 29.7649 42.8091C26.8432 44.8275 24.5739 47.6558 23.2355 50.9468C21.8971 54.2378 21.548 57.8483 22.2308 61.3351C22.9137 64.8219 24.5989 68.0333 27.0795 70.5751C29.8245 72.4094 33.0153 73.4641 36.3118 73.6269C39.6084 73.7896 42.8873 73.0543 45.7994 71.4993C48.7114 69.9442 51.1475 67.6277 52.8481 64.7965C54.5488 61.9653 55.4502 58.7253 55.4565 55.4218L55.4077 35.2717Z" fill="white"/>
<path fill-rule="evenodd" clip-rule="evenodd" d="M69.1663 31.902V29.8023C66.5845 29.8133 64.0526 29.0909 61.8647 27.719C63.7961 29.8501 66.3521 31.3144 69.1663 31.902ZM55.5713 18.4089C55.5713 18.0345 55.4575 17.6439 55.4087 17.2696V16H45.489V55.4213C45.4804 57.6287 44.5971 59.7424 43.0331 61.2987C41.4691 62.855 39.352 63.7266 37.1466 63.7222C35.848 63.7288 34.5664 63.4276 33.4064 62.8433C34.4627 64.2305 35.9266 65.2518 37.5925 65.7638C39.2584 66.2758 41.0427 66.2528 42.6948 65.698C44.347 65.1432 45.7841 64.0845 46.8044 62.6705C47.8246 61.2564 48.3769 59.5581 48.3836 57.8139V18.4089H55.5713ZM39.6835 39.5681V37.3383C35.6016 36.7833 31.4522 37.6284 27.9116 39.7359C24.371 41.8434 21.6479 45.089 20.1862 48.9438C18.7245 52.7986 18.6103 57.0352 19.8623 60.9633C21.1143 64.8913 23.6586 68.2791 27.0805 70.5746C24.6186 68.027 22.9514 64.8168 22.2825 61.3363C21.6135 57.8558 21.9719 54.2557 23.3138 50.9757C24.6556 47.6957 26.9229 44.878 29.8386 42.8666C32.7543 40.8552 36.1922 39.7373 39.7323 39.6495L39.6835 39.5681Z" fill="#69C9D0"/>
</svg>
