<svg width="92" height="92" viewBox="0 0 92 92" fill="none" xmlns="http://www.w3.org/2000/svg">
<rect width="92" height="92" fill="#FF0000"/>
<path d="M74.7496 31.5742C74.0624 28.9904 72.0293 26.9522 69.4426 26.2536C64.7655 25 46 25 46 25C46 25 27.244 25 22.5574 26.2536C19.9803 26.9426 17.9472 28.9809 17.2504 31.5742C16 36.2632 16 46.0526 16 46.0526C16 46.0526 16 55.8421 17.2504 60.5311C17.9376 63.1148 19.9707 65.1531 22.5574 65.8517C27.244 67.1053 46 67.1053 46 67.1053C46 67.1053 64.7655 67.1053 69.4426 65.8517C72.0197 65.1627 74.0528 63.1244 74.7496 60.5311C76 55.8421 76 46.0526 76 46.0526C76 46.0526 76 36.2632 74.7496 31.5742Z" fill="white"/>
<path d="M40.0057 55.0766L55.5927 46.0526L40.0057 37.0287V55.0766Z" fill="#FF0000"/>
</svg>
