<svg width="151" height="151" viewBox="0 0 151 151" fill="none" xmlns="http://www.w3.org/2000/svg">
<circle cx="75.5" cy="75.5" r="75.5" fill="#42C54F"/>
<path d="M39.4657 99.2488L39.9088 97.6524L39.0933 96.2103C35.6132 90.0556 33.6242 82.9389 33.6242 75.3434C33.6242 51.9451 52.525 33 75.8121 33C99.0992 33 118 51.9451 118 75.3434C118 98.7418 99.0992 117.687 75.8121 117.687C68.2072 117.687 61.083 115.671 54.9286 112.144L53.4999 111.326L51.909 111.75L34.7239 116.333L39.4657 99.2488Z" stroke="white" stroke-width="8"/>
<path fill-rule="evenodd" clip-rule="evenodd" d="M65.95 55.0903C65.0832 53.1026 64.1712 53.0623 63.3478 53.0279L61.1311 53C60.36 53 59.107 53.2987 58.0477 54.4935C56.9884 55.6883 54 58.576 54 64.4495C54 70.3229 58.1439 75.9983 58.7214 76.7957C59.2988 77.5931 66.7212 90.0302 78.4756 94.8154C88.2436 98.792 90.2312 98.0011 92.3523 97.8024C94.4733 97.6037 99.1941 94.9147 100.157 92.127C101.12 89.3393 101.121 86.951 100.832 86.4516C100.543 85.9523 99.7721 85.6555 98.6147 85.0581C97.4574 84.4607 91.773 81.573 90.7131 81.1743C89.6532 80.7756 88.8826 80.5776 88.1108 81.7724C87.339 82.9672 85.1255 85.6549 84.4506 86.4516C83.7757 87.2484 83.102 87.3484 81.9446 86.7516C80.7872 86.1549 77.0634 84.8938 72.6453 80.8269C69.2077 77.6626 66.8873 73.7548 66.2117 72.5606C65.5361 71.3664 66.14 70.7197 66.7199 70.1248C67.2389 69.5898 67.8761 68.7307 68.4554 68.0339C69.0347 67.3372 69.2253 66.8391 69.6103 66.0436C69.9952 65.2482 69.8034 64.5495 69.514 63.9527C69.2247 63.3559 66.9778 57.4513 65.95 55.0903Z" fill="white"/>
</svg>
