<svg width="339" height="98" viewBox="0 0 339 98" fill="none" xmlns="http://www.w3.org/2000/svg">
<rect width="339" height="98" rx="14" fill="#42C54F"/>
<rect width="339" height="98" rx="14" fill="url(#paint0_radial_206_2)" fill-opacity="0.6"/>
<path d="M46.8321 66.3434L47.1666 65.1425L46.5514 64.0582C43.9519 59.4764 42.4666 54.1792 42.4666 48.526C42.4666 31.1147 56.5812 17 73.9925 17C91.4039 17 105.519 31.1147 105.519 48.526C105.519 65.9373 91.4039 80.0519 73.9925 80.0519C68.3076 80.0519 62.9826 78.5499 58.3831 75.9231L57.3142 75.3127L56.1246 75.6289L43.2967 79.0389L46.8321 66.3434Z" stroke="white" stroke-width="6"/>
<path fill-rule="evenodd" clip-rule="evenodd" d="M67.2477 34.538C66.654 33.1984 66.0292 33.1713 65.4652 33.1481L63.9469 33.1293C63.4187 33.1293 62.5605 33.3306 61.8349 34.1358C61.1094 34.941 59.0624 36.8871 59.0624 40.8454C59.0624 44.8037 61.9008 48.6285 62.2963 49.1659C62.6919 49.7033 67.7759 58.0851 75.8272 61.3099C82.5179 63.9899 83.8793 63.4569 85.3322 63.323C86.785 63.1891 90.0185 61.3769 90.6782 59.4982C91.3378 57.6195 91.3382 56.0099 91.1405 55.6733C90.9427 55.3368 90.4145 55.1368 89.6217 54.7342C88.829 54.3316 84.9354 52.3855 84.2094 52.1168C83.4834 51.8481 82.9556 51.7146 82.427 52.5198C81.8983 53.3251 80.3821 55.1364 79.9198 55.6733C79.4575 56.2103 78.9961 56.2777 78.2033 55.8755C77.4106 55.4734 74.8599 54.6235 71.8336 51.8827C69.479 49.7501 67.8896 47.1165 67.4269 46.3117C66.9642 45.507 67.3778 45.0711 67.775 44.6702C68.1305 44.3096 68.5669 43.7307 68.9637 43.2611C69.3606 42.7915 69.4911 42.4559 69.7548 41.9198C70.0185 41.3837 69.8871 40.9128 69.6889 40.5106C69.4907 40.1085 67.9517 36.1292 67.2477 34.538Z" fill="white"/>
<path d="M125.147 32.624C125.147 30.992 125.523 29.528 126.275 28.232C127.043 26.936 128.075 25.928 129.371 25.208C130.683 24.472 132.115 24.104 133.667 24.104C135.443 24.104 137.019 24.544 138.395 25.424C139.787 26.288 140.795 27.52 141.419 29.12H138.131C137.699 28.24 137.099 27.584 136.331 27.152C135.563 26.72 134.675 26.504 133.667 26.504C132.563 26.504 131.579 26.752 130.715 27.248C129.851 27.744 129.171 28.456 128.675 29.384C128.195 30.312 127.955 31.392 127.955 32.624C127.955 33.856 128.195 34.936 128.675 35.864C129.171 36.792 129.851 37.512 130.715 38.024C131.579 38.52 132.563 38.768 133.667 38.768C134.675 38.768 135.563 38.552 136.331 38.12C137.099 37.688 137.699 37.032 138.131 36.152H141.419C140.795 37.752 139.787 38.984 138.395 39.848C137.019 40.712 135.443 41.144 133.667 41.144C132.099 41.144 130.667 40.784 129.371 40.064C128.075 39.328 127.043 38.312 126.275 37.016C125.523 35.72 125.147 34.256 125.147 32.624ZM151.462 27.56C152.47 27.56 153.366 27.776 154.15 28.208C154.95 28.64 155.574 29.28 156.022 30.128C156.486 30.976 156.718 32 156.718 33.2V41H154.006V33.608C154.006 32.424 153.71 31.52 153.118 30.896C152.526 30.256 151.718 29.936 150.694 29.936C149.67 29.936 148.854 30.256 148.246 30.896C147.654 31.52 147.358 32.424 147.358 33.608V41H144.622V23.24H147.358V29.312C147.822 28.752 148.406 28.32 149.11 28.016C149.83 27.712 150.614 27.56 151.462 27.56ZM159.296 34.328C159.296 33 159.568 31.824 160.112 30.8C160.672 29.776 161.424 28.984 162.368 28.424C163.328 27.848 164.384 27.56 165.536 27.56C166.576 27.56 167.48 27.768 168.248 28.184C169.032 28.584 169.656 29.088 170.12 29.696V27.776H172.88V41H170.12V39.032C169.656 39.656 169.024 40.176 168.224 40.592C167.424 41.008 166.512 41.216 165.488 41.216C164.352 41.216 163.312 40.928 162.368 40.352C161.424 39.76 160.672 38.944 160.112 37.904C159.568 36.848 159.296 35.656 159.296 34.328ZM170.12 34.376C170.12 33.464 169.928 32.672 169.544 32C169.176 31.328 168.688 30.816 168.08 30.464C167.472 30.112 166.816 29.936 166.112 29.936C165.408 29.936 164.752 30.112 164.144 30.464C163.536 30.8 163.04 31.304 162.656 31.976C162.288 32.632 162.104 33.416 162.104 34.328C162.104 35.24 162.288 36.04 162.656 36.728C163.04 37.416 163.536 37.944 164.144 38.312C164.768 38.664 165.424 38.84 166.112 38.84C166.816 38.84 167.472 38.664 168.08 38.312C168.688 37.96 169.176 37.448 169.544 36.776C169.928 36.088 170.12 35.288 170.12 34.376ZM179.665 30.008V37.328C179.665 37.824 179.777 38.184 180.001 38.408C180.241 38.616 180.641 38.72 181.201 38.72H182.881V41H180.721C179.489 41 178.545 40.712 177.889 40.136C177.233 39.56 176.905 38.624 176.905 37.328V30.008H175.345V27.776H176.905V24.488H179.665V27.776H182.881V30.008H179.665ZM197.373 41.216C196.125 41.216 194.997 40.936 193.989 40.376C192.981 39.8 192.189 39 191.613 37.976C191.037 36.936 190.749 35.736 190.749 34.376C190.749 33.032 191.045 31.84 191.637 30.8C192.229 29.76 193.037 28.96 194.061 28.4C195.085 27.84 196.229 27.56 197.493 27.56C198.757 27.56 199.901 27.84 200.925 28.4C201.949 28.96 202.757 29.76 203.349 30.8C203.941 31.84 204.237 33.032 204.237 34.376C204.237 35.72 203.933 36.912 203.325 37.952C202.717 38.992 201.885 39.8 200.829 40.376C199.789 40.936 198.637 41.216 197.373 41.216ZM197.373 38.84C198.077 38.84 198.733 38.672 199.341 38.336C199.965 38 200.469 37.496 200.853 36.824C201.237 36.152 201.429 35.336 201.429 34.376C201.429 33.416 201.245 32.608 200.877 31.952C200.509 31.28 200.021 30.776 199.413 30.44C198.805 30.104 198.149 29.936 197.445 29.936C196.741 29.936 196.085 30.104 195.477 30.44C194.885 30.776 194.413 31.28 194.061 31.952C193.709 32.608 193.533 33.416 193.533 34.376C193.533 35.8 193.893 36.904 194.613 37.688C195.349 38.456 196.269 38.84 197.373 38.84ZM213.614 27.56C214.654 27.56 215.582 27.776 216.398 28.208C217.23 28.64 217.878 29.28 218.342 30.128C218.806 30.976 219.038 32 219.038 33.2V41H216.326V33.608C216.326 32.424 216.03 31.52 215.438 30.896C214.846 30.256 214.038 29.936 213.014 29.936C211.99 29.936 211.174 30.256 210.566 30.896C209.974 31.52 209.678 32.424 209.678 33.608V41H206.942V27.776H209.678V29.288C210.126 28.744 210.694 28.32 211.382 28.016C212.086 27.712 212.83 27.56 213.614 27.56Z" fill="white"/>
<path d="M158.323 49.664L152.083 72H146.803L142.611 56.096L138.227 72L132.979 72.032L126.963 49.664H131.763L135.699 67.008L140.243 49.664H145.235L149.523 66.912L153.491 49.664H158.323ZM171.232 54.016C172.576 54.016 173.771 54.3147 174.816 54.912C175.862 55.488 176.672 56.352 177.248 57.504C177.846 58.6347 178.144 60 178.144 61.6V72H173.664V62.208C173.664 60.8 173.312 59.7227 172.608 58.976C171.904 58.208 170.944 57.824 169.728 57.824C168.491 57.824 167.51 58.208 166.784 58.976C166.08 59.7227 165.728 60.8 165.728 62.208V72H161.248V48.32H165.728V56.48C166.304 55.712 167.072 55.1147 168.032 54.688C168.992 54.24 170.059 54.016 171.232 54.016ZM181.253 63.072C181.253 61.28 181.605 59.6907 182.309 58.304C183.034 56.9173 184.005 55.8507 185.221 55.104C186.458 54.3573 187.834 53.984 189.349 53.984C190.671 53.984 191.823 54.2507 192.805 54.784C193.807 55.3173 194.607 55.9893 195.205 56.8V54.272H199.717V72H195.205V69.408C194.629 70.24 193.829 70.9333 192.805 71.488C191.802 72.0213 190.639 72.288 189.317 72.288C187.823 72.288 186.458 71.904 185.221 71.136C184.005 70.368 183.034 69.2907 182.309 67.904C181.605 66.496 181.253 64.8853 181.253 63.072ZM195.205 63.136C195.205 62.048 194.991 61.12 194.565 60.352C194.138 59.5627 193.562 58.9653 192.837 58.56C192.111 58.1333 191.333 57.92 190.501 57.92C189.669 57.92 188.901 58.1227 188.197 58.528C187.493 58.9333 186.917 59.5307 186.469 60.32C186.042 61.088 185.829 62.0053 185.829 63.072C185.829 64.1387 186.042 65.0773 186.469 65.888C186.917 66.6773 187.493 67.2853 188.197 67.712C188.922 68.1387 189.69 68.352 190.501 68.352C191.333 68.352 192.111 68.1493 192.837 67.744C193.562 67.3173 194.138 66.72 194.565 65.952C194.991 65.1627 195.205 64.224 195.205 63.136ZM209.308 57.952V66.528C209.308 67.1253 209.447 67.5627 209.724 67.84C210.023 68.096 210.514 68.224 211.196 68.224H213.276V72H210.46C206.684 72 204.796 70.1653 204.796 66.496V57.952H202.684V54.272H204.796V49.888H209.308V54.272H213.276V57.952H209.308ZM223.282 72.288C221.832 72.288 220.53 72.032 219.378 71.52C218.226 70.9867 217.309 70.272 216.626 69.376C215.965 68.48 215.602 67.488 215.538 66.4H220.05C220.136 67.0827 220.466 67.648 221.042 68.096C221.64 68.544 222.376 68.768 223.25 68.768C224.104 68.768 224.765 68.5973 225.234 68.256C225.725 67.9147 225.97 67.4773 225.97 66.944C225.97 66.368 225.672 65.9413 225.074 65.664C224.498 65.3653 223.57 65.0453 222.29 64.704C220.968 64.384 219.88 64.0533 219.026 63.712C218.194 63.3707 217.469 62.848 216.85 62.144C216.253 61.44 215.954 60.4907 215.954 59.296C215.954 58.3147 216.232 57.4187 216.786 56.608C217.362 55.7973 218.173 55.1573 219.218 54.688C220.285 54.2187 221.533 53.984 222.962 53.984C225.074 53.984 226.76 54.5173 228.018 55.584C229.277 56.6293 229.97 58.048 230.098 59.84H225.81C225.746 59.136 225.448 58.5813 224.914 58.176C224.402 57.7493 223.709 57.536 222.834 57.536C222.024 57.536 221.394 57.6853 220.946 57.984C220.52 58.2827 220.306 58.6987 220.306 59.232C220.306 59.8293 220.605 60.288 221.202 60.608C221.8 60.9067 222.728 61.216 223.986 61.536C225.266 61.856 226.322 62.1867 227.154 62.528C227.986 62.8693 228.701 63.4027 229.298 64.128C229.917 64.832 230.237 65.7707 230.258 66.944C230.258 67.968 229.97 68.8853 229.394 69.696C228.84 70.5067 228.029 71.1467 226.962 71.616C225.917 72.064 224.69 72.288 223.282 72.288ZM247.632 67.744H238.736L237.264 72H232.56L240.592 49.632H245.808L253.84 72H249.104L247.632 67.744ZM246.416 64.16L243.184 54.816L239.952 64.16H246.416ZM261.322 56.832C261.898 56.0213 262.688 55.3493 263.69 54.816C264.714 54.2613 265.877 53.984 267.178 53.984C268.693 53.984 270.058 54.3573 271.274 55.104C272.512 55.8507 273.482 56.9173 274.186 58.304C274.912 59.6693 275.274 61.2587 275.274 63.072C275.274 64.8853 274.912 66.496 274.186 67.904C273.482 69.2907 272.512 70.368 271.274 71.136C270.058 71.904 268.693 72.288 267.178 72.288C265.877 72.288 264.725 72.0213 263.722 71.488C262.741 70.9547 261.941 70.2827 261.322 69.472V80.448H256.842V54.272H261.322V56.832ZM270.698 63.072C270.698 62.0053 270.474 61.088 270.026 60.32C269.6 59.5307 269.024 58.9333 268.298 58.528C267.594 58.1227 266.826 57.92 265.994 57.92C265.184 57.92 264.416 58.1333 263.69 58.56C262.986 58.9653 262.41 59.5627 261.962 60.352C261.536 61.1413 261.322 62.0693 261.322 63.136C261.322 64.2027 261.536 65.1307 261.962 65.92C262.41 66.7093 262.986 67.3173 263.69 67.744C264.416 68.1493 265.184 68.352 265.994 68.352C266.826 68.352 267.594 68.1387 268.298 67.712C269.024 67.2853 269.6 66.6773 270.026 65.888C270.474 65.0987 270.698 64.16 270.698 63.072ZM283.01 56.832C283.586 56.0213 284.375 55.3493 285.378 54.816C286.402 54.2613 287.564 53.984 288.866 53.984C290.38 53.984 291.746 54.3573 292.962 55.104C294.199 55.8507 295.17 56.9173 295.874 58.304C296.599 59.6693 296.962 61.2587 296.962 63.072C296.962 64.8853 296.599 66.496 295.874 67.904C295.17 69.2907 294.199 70.368 292.962 71.136C291.746 71.904 290.38 72.288 288.866 72.288C287.564 72.288 286.412 72.0213 285.41 71.488C284.428 70.9547 283.628 70.2827 283.01 69.472V80.448H278.53V54.272H283.01V56.832ZM292.386 63.072C292.386 62.0053 292.162 61.088 291.714 60.32C291.287 59.5307 290.711 58.9333 289.986 58.528C289.282 58.1227 288.514 57.92 287.682 57.92C286.871 57.92 286.103 58.1333 285.378 58.56C284.674 58.9653 284.098 59.5627 283.65 60.352C283.223 61.1413 283.01 62.0693 283.01 63.136C283.01 64.2027 283.223 65.1307 283.65 65.92C284.098 66.7093 284.674 67.3173 285.378 67.744C286.103 68.1493 286.871 68.352 287.682 68.352C288.514 68.352 289.282 68.1387 289.986 67.712C290.711 67.2853 291.287 66.6773 291.714 65.888C292.162 65.0987 292.386 64.16 292.386 63.072Z" fill="white"/>
<defs>
<radialGradient id="paint0_radial_206_2" cx="0" cy="0" r="1" gradientUnits="userSpaceOnUse" gradientTransform="translate(36.5 25.5) rotate(30.2564) scale(111.14 68.9401)">
<stop stop-color="#E2FF30" stop-opacity="0.49"/>
<stop offset="1" stop-color="#FFD977" stop-opacity="0"/>
</radialGradient>
</defs>
</svg>
