<svg width="180" height="50" viewBox="0 0 180 50" fill="none" xmlns="http://www.w3.org/2000/svg">
<path d="M179.177 0.536011L173.321 23H166.697L163.113 8.21601L159.401 23H152.777L147.081 0.536011H152.937L156.169 16.888L160.169 0.536011H166.185L170.025 16.888L173.289 0.536011H179.177Z" fill="white"/>
<path d="M133.733 23.224C131.621 23.224 129.68 22.7333 127.909 21.752C126.16 20.7707 124.762 19.4053 123.717 17.656C122.693 15.8853 122.181 13.9013 122.181 11.704C122.181 9.50667 122.693 7.53334 123.717 5.784C124.762 4.03467 126.16 2.66934 127.909 1.688C129.68 0.70667 131.621 0.216003 133.733 0.216003C135.845 0.216003 137.776 0.70667 139.525 1.688C141.296 2.66934 142.682 4.03467 143.685 5.784C144.709 7.53334 145.221 9.50667 145.221 11.704C145.221 13.9013 144.709 15.8853 143.685 17.656C142.661 19.4053 141.274 20.7707 139.525 21.752C137.776 22.7333 135.845 23.224 133.733 23.224ZM133.733 18.232C135.525 18.232 136.954 17.6347 138.021 16.44C139.109 15.2453 139.653 13.6667 139.653 11.704C139.653 9.72 139.109 8.14134 138.021 6.968C136.954 5.77334 135.525 5.176 133.733 5.176C131.92 5.176 130.469 5.76267 129.381 6.936C128.314 8.10934 127.781 9.69867 127.781 11.704C127.781 13.688 128.314 15.2773 129.381 16.472C130.469 17.6453 131.92 18.232 133.733 18.232Z" fill="white"/>
<path d="M119.143 23H113.671L104.519 9.14401V23H99.0465V0.536011H104.519L113.671 14.456V0.536011H119.143V23Z" fill="white"/>
<path d="M89.5191 0.536011V4.92001H83.5671V23H78.0951V4.92001H72.1431V0.536011H89.5191Z" fill="white"/>
<path d="M63.7493 19.032H55.3653L54.0213 23H48.2933L56.4213 0.536011H62.7573L70.8853 23H65.0933L63.7493 19.032ZM62.3413 14.808L59.5573 6.58401L56.8053 14.808H62.3413Z" fill="white"/>
<path d="M45.815 0.536011V23H40.343V13.752H31.831V23H26.359V0.536011H31.831V9.33601H40.343V0.536011H45.815Z" fill="white"/>
<path d="M1.05603 11.736C1.05603 9.51733 1.53603 7.544 2.49603 5.816C3.45603 4.06667 4.78936 2.712 6.49603 1.752C8.22403 0.770665 10.176 0.279999 12.352 0.279999C15.0187 0.279999 17.3014 0.983999 19.2 2.392C21.0987 3.8 22.368 5.72 23.008 8.152H16.992C16.544 7.21333 15.904 6.49867 15.072 6.008C14.2614 5.51733 13.3334 5.272 12.288 5.272C10.6027 5.272 9.23736 5.85867 8.19203 7.032C7.1467 8.20533 6.62403 9.77333 6.62403 11.736C6.62403 13.6987 7.1467 15.2667 8.19203 16.44C9.23736 17.6133 10.6027 18.2 12.288 18.2C13.3334 18.2 14.2614 17.9547 15.072 17.464C15.904 16.9733 16.544 16.2587 16.992 15.32H23.008C22.368 17.752 21.0987 19.672 19.2 21.08C17.3014 22.4667 15.0187 23.16 12.352 23.16C10.176 23.16 8.22403 22.68 6.49603 21.72C4.78936 20.7387 3.45603 19.384 2.49603 17.656C1.53603 15.928 1.05603 13.9547 1.05603 11.736Z" fill="white"/>
<path d="M104.634 37.336C104.901 36.92 105.269 36.584 105.738 36.328C106.208 36.072 106.757 35.944 107.386 35.944C108.122 35.944 108.789 36.1307 109.386 36.504C109.984 36.8773 110.453 37.4107 110.794 38.104C111.146 38.7973 111.322 39.6027 111.322 40.52C111.322 41.4373 111.146 42.248 110.794 42.952C110.453 43.6453 109.984 44.184 109.386 44.568C108.789 44.9413 108.122 45.128 107.386 45.128C106.768 45.128 106.218 45 105.738 44.744C105.269 44.488 104.901 44.1573 104.634 43.752V49.256H101.898V36.072H104.634V37.336ZM108.538 40.52C108.538 39.8373 108.346 39.304 107.962 38.92C107.589 38.5253 107.125 38.328 106.57 38.328C106.026 38.328 105.562 38.5253 105.178 38.92C104.805 39.3147 104.618 39.8533 104.618 40.536C104.618 41.2187 104.805 41.7573 105.178 42.152C105.562 42.5467 106.026 42.744 106.57 42.744C107.114 42.744 107.578 42.5467 107.962 42.152C108.346 41.7467 108.538 41.2027 108.538 40.52Z" fill="white"/>
<path d="M93.7748 37.336C94.0415 36.92 94.4095 36.584 94.8788 36.328C95.3482 36.072 95.8975 35.944 96.5268 35.944C97.2628 35.944 97.9295 36.1307 98.5268 36.504C99.1242 36.8773 99.5935 37.4107 99.9348 38.104C100.287 38.7973 100.463 39.6027 100.463 40.52C100.463 41.4373 100.287 42.248 99.9348 42.952C99.5935 43.6453 99.1242 44.184 98.5268 44.568C97.9295 44.9413 97.2628 45.128 96.5268 45.128C95.9082 45.128 95.3588 45 94.8788 44.744C94.4095 44.488 94.0415 44.1573 93.7748 43.752V49.256H91.0388V36.072H93.7748V37.336ZM97.6788 40.52C97.6788 39.8373 97.4868 39.304 97.1028 38.92C96.7295 38.5253 96.2655 38.328 95.7108 38.328C95.1668 38.328 94.7028 38.5253 94.3188 38.92C93.9455 39.3147 93.7588 39.8533 93.7588 40.536C93.7588 41.2187 93.9455 41.7573 94.3188 42.152C94.7028 42.5467 95.1668 42.744 95.7108 42.744C96.2548 42.744 96.7188 42.5467 97.1028 42.152C97.4868 41.7467 97.6788 41.2027 97.6788 40.52Z" fill="white"/>
<path d="M86.234 43.016H82.042L81.37 45H78.506L82.57 33.768H85.738L89.802 45H86.906L86.234 43.016ZM85.53 40.904L84.138 36.792L82.762 40.904H85.53Z" fill="white"/>
<path d="M73.9521 45.128C73.1734 45.128 72.4801 44.9947 71.8721 44.728C71.2641 44.4613 70.7841 44.0987 70.4321 43.64C70.0801 43.1707 69.8828 42.648 69.8401 42.072H72.5441C72.5761 42.3813 72.7201 42.632 72.9761 42.824C73.2321 43.016 73.5468 43.112 73.9201 43.112C74.2614 43.112 74.5228 43.048 74.7041 42.92C74.8961 42.7813 74.9921 42.6053 74.9921 42.392C74.9921 42.136 74.8588 41.9493 74.5921 41.832C74.3254 41.704 73.8934 41.5653 73.2961 41.416C72.6561 41.2667 72.1227 41.112 71.6961 40.952C71.2694 40.7813 70.9014 40.52 70.5921 40.168C70.2828 39.8053 70.1281 39.32 70.1281 38.712C70.1281 38.2 70.2668 37.736 70.5441 37.32C70.8321 36.8933 71.2481 36.5573 71.7921 36.312C72.3468 36.0667 73.0028 35.944 73.7601 35.944C74.8801 35.944 75.7601 36.2213 76.4001 36.776C77.0508 37.3307 77.4241 38.0667 77.5201 38.984H74.9921C74.9494 38.6747 74.8108 38.4293 74.5761 38.248C74.3521 38.0667 74.0534 37.976 73.6801 37.976C73.3601 37.976 73.1148 38.04 72.9441 38.168C72.7734 38.2853 72.6881 38.4507 72.6881 38.664C72.6881 38.92 72.8214 39.112 73.0881 39.24C73.3654 39.368 73.7921 39.496 74.3681 39.624C75.0294 39.7947 75.5681 39.9653 75.9841 40.136C76.4001 40.296 76.7628 40.5627 77.0721 40.936C77.3921 41.2987 77.5574 41.7893 77.5681 42.408C77.5681 42.9307 77.4188 43.4 77.1201 43.816C76.8321 44.2213 76.4108 44.5413 75.8561 44.776C75.3121 45.0107 74.6774 45.128 73.9521 45.128Z" fill="white"/>
<path d="M68.7961 42.68V45H67.4041C66.4121 45 65.6387 44.76 65.0841 44.28C64.5294 43.7893 64.2521 42.9947 64.2521 41.896V38.344H63.1641V36.072H64.2521V33.896H66.9881V36.072H68.7801V38.344H66.9881V41.928C66.9881 42.1947 67.0521 42.3867 67.1801 42.504C67.3081 42.6213 67.5214 42.68 67.8201 42.68H68.7961Z" fill="white"/>
<path d="M52.4167 40.52C52.4167 39.6027 52.5874 38.7973 52.9287 38.104C53.2807 37.4107 53.7554 36.8773 54.3527 36.504C54.9501 36.1307 55.6167 35.944 56.3527 35.944C56.9821 35.944 57.5314 36.072 58.0007 36.328C58.4807 36.584 58.8487 36.92 59.1047 37.336V36.072H61.8407V45H59.1047V43.736C58.8381 44.152 58.4647 44.488 57.9847 44.744C57.5154 45 56.9661 45.128 56.3367 45.128C55.6114 45.128 54.9501 44.9413 54.3527 44.568C53.7554 44.184 53.2807 43.6453 52.9287 42.952C52.5874 42.248 52.4167 41.4373 52.4167 40.52ZM59.1047 40.536C59.1047 39.8533 58.9127 39.3147 58.5287 38.92C58.1554 38.5253 57.6967 38.328 57.1527 38.328C56.6087 38.328 56.1447 38.5253 55.7607 38.92C55.3874 39.304 55.2007 39.8373 55.2007 40.52C55.2007 41.2027 55.3874 41.7467 55.7607 42.152C56.1447 42.5467 56.6087 42.744 57.1527 42.744C57.6967 42.744 58.1554 42.5467 58.5287 42.152C58.9127 41.7573 59.1047 41.2187 59.1047 40.536Z" fill="white"/>
<path d="M47.6674 35.976C48.6914 35.976 49.5128 36.3173 50.1314 37C50.7501 37.672 51.0594 38.6 51.0594 39.784V45H48.3394V40.152C48.3394 39.5547 48.1848 39.0907 47.8754 38.76C47.5661 38.4293 47.1501 38.264 46.6274 38.264C46.1048 38.264 45.6888 38.4293 45.3794 38.76C45.0701 39.0907 44.9154 39.5547 44.9154 40.152V45H42.1794V33.16H44.9154V37.272C45.1928 36.8773 45.5714 36.5627 46.0514 36.328C46.5314 36.0933 47.0701 35.976 47.6674 35.976Z" fill="white"/>
<path d="M40.8074 33.768L37.8794 45H34.5674L32.7754 37.608L30.9194 45H27.6074L24.7594 33.768H27.6874L29.3034 41.944L31.3034 33.768H34.3114L36.2314 41.944L37.8634 33.768H40.8074Z" fill="white"/>
<path d="M16.6194 35.976C17.6648 35.976 18.4968 36.3173 19.1154 37C19.7448 37.672 20.0594 38.6 20.0594 39.784V45H17.3394V40.152C17.3394 39.5547 17.1848 39.0907 16.8754 38.76C16.5661 38.4293 16.1501 38.264 15.6274 38.264C15.1048 38.264 14.6888 38.4293 14.3794 38.76C14.0701 39.0907 13.9154 39.5547 13.9154 40.152V45H11.1794V36.072H13.9154V37.256C14.1928 36.8613 14.5661 36.552 15.0354 36.328C15.5048 36.0933 16.0328 35.976 16.6194 35.976Z" fill="white"/>
<path d="M5.056 45.128C4.18133 45.128 3.392 44.9413 2.688 44.568C1.99466 44.1947 1.44533 43.6613 1.04 42.968C0.645331 42.2747 0.447998 41.464 0.447998 40.536C0.447998 39.6187 0.650665 38.8133 1.056 38.12C1.46133 37.416 2.016 36.8773 2.72 36.504C3.424 36.1307 4.21333 35.944 5.088 35.944C5.96266 35.944 6.752 36.1307 7.456 36.504C8.16 36.8773 8.71467 37.416 9.12 38.12C9.52533 38.8133 9.728 39.6187 9.728 40.536C9.728 41.4533 9.52 42.264 9.104 42.968C8.69866 43.6613 8.13867 44.1947 7.424 44.568C6.72 44.9413 5.93067 45.128 5.056 45.128ZM5.056 42.76C5.57866 42.76 6.02133 42.568 6.384 42.184C6.75733 41.8 6.944 41.2507 6.944 40.536C6.944 39.8213 6.76266 39.272 6.4 38.888C6.048 38.504 5.61067 38.312 5.088 38.312C4.55466 38.312 4.112 38.504 3.76 38.888C3.408 39.2613 3.232 39.8107 3.232 40.536C3.232 41.2507 3.40266 41.8 3.744 42.184C4.096 42.568 4.53333 42.76 5.056 42.76Z" fill="white"/>
</svg>
