<svg width="205" height="205" viewBox="0 0 205 205" fill="none" xmlns="http://www.w3.org/2000/svg">
<mask id="mask0_209_26" style="mask-type:alpha" maskUnits="userSpaceOnUse" x="0" y="0" width="205" height="205">
<rect width="205" height="205" fill="#D9D9D9"/>
</mask>
<g mask="url(#mask0_209_26)">
<mask id="mask1_209_26" style="mask-type:alpha" maskUnits="userSpaceOnUse" x="0" y="0" width="205" height="205">
<path fill-rule="evenodd" clip-rule="evenodd" d="M154 91C154 125.794 125.794 154 91 154C56.2061 154 28 125.794 28 91C28 56.2061 56.2061 28 91 28C125.794 28 154 56.2061 154 91ZM144.974 164.273C129.874 175.415 111.206 182 91 182C40.7421 182 0 141.258 0 91C0 40.7421 40.7421 0 91 0C141.258 0 182 40.7421 182 91C182 110.949 175.581 129.399 164.695 144.396L204.9 184.6L185.101 204.399L144.974 164.273Z" fill="black"/>
</mask>
<g mask="url(#mask1_209_26)">
<path fill-rule="evenodd" clip-rule="evenodd" d="M154 91C154 125.794 125.794 154 91 154C56.2061 154 28 125.794 28 91C28 56.2061 56.2061 28 91 28C125.794 28 154 56.2061 154 91ZM144.974 164.273C129.874 175.415 111.206 182 91 182C40.7421 182 0 141.258 0 91C0 40.7421 40.7421 0 91 0C141.258 0 182 40.7421 182 91C182 110.949 175.581 129.399 164.695 144.396L204.9 184.6L185.101 204.399L144.974 164.273Z" fill="black"/>
<rect x="-54" y="-41" width="144" height="144" fill="#FABC2D"/>
<rect x="90" y="-41" width="144" height="144" fill="#E74339"/>
<rect x="90" y="92" width="144" height="144" fill="#4489F1"/>
<rect x="-54" y="92" width="144" height="144" fill="#38A856"/>
</g>
</g>
</svg>
