<svg width="24" height="24" viewBox="0 0 24 24" fill="none" xmlns="http://www.w3.org/2000/svg">
<path d="M12.7059 11.2941H18.1961C18.1961 7.16212 18.7451 4.95839 19.2941 3.85653C17.5373 3.85653 14.17 1.28551 12.7059 0V11.2941Z" fill="#FDCB45"/>
<path d="M11.2941 11.2941L11.2941 5.80393C7.16212 5.80393 4.95839 5.25491 3.85653 4.70589C3.85653 6.46276 1.28551 9.83008 0 11.2941L11.2941 11.2941Z" fill="#E91E2C"/>
<path d="M11.2941 12.7059L5.8039 12.7059C5.8039 16.8379 5.25488 19.0416 4.70586 20.1435C6.46273 20.1435 9.83005 22.7145 11.2941 24L11.2941 12.7059Z" fill="#9AC845"/>
<path d="M12.7059 12.7059L12.7059 18.1961C16.8379 18.1961 19.0416 18.7451 20.1435 19.2941C20.1435 17.5372 22.7145 14.1699 24 12.7059L12.7059 12.7059Z" fill="#4A8EC9"/>
</svg>
