<svg width="312" height="77" viewBox="0 0 312 77" fill="none" xmlns="http://www.w3.org/2000/svg">
<g clip-path="url(#clip0_58_1810)">
<path d="M4.26743 65.6823C5.75766 65.6823 6.99258 66.2115 7.97215 67.2689C8.96214 68.316 9.45713 69.602 9.45713 71.1262C9.45713 72.6504 8.96214 73.9413 7.97215 74.9986C6.99258 76.0457 5.75766 76.5696 4.26743 76.5696H0V65.6823H4.26743ZM4.26743 75.2005C5.38249 75.2005 6.29436 74.8119 7.003 74.0346C7.71158 73.2567 8.06593 72.2873 8.06593 71.1262C8.06593 69.9645 7.71158 68.9951 7.003 68.2178C6.29436 67.4399 5.38249 67.0513 4.26743 67.0513H1.45374V75.2005H4.26743Z" fill="white"/>
<path d="M19.6611 65.6823H21.1149V76.5696H19.6611V65.6823Z" fill="white"/>
<path d="M39.1095 76.5696L38.2184 74.1274H33.2945L32.4035 76.5696H30.856L34.9358 65.6823H36.5771L40.657 76.5696H39.1095ZM33.7947 72.7747H37.7183L35.7486 67.409L33.7947 72.7747Z" fill="white"/>
<path d="M60.6274 65.6823V76.5696H59.1893V68.062L55.6097 73.9879H55.4221L51.8425 68.0777V76.5696H50.3887V65.6823H52.03L55.5159 71.4372L58.9861 65.6823H60.6274Z" fill="white"/>
<path d="M80.5063 75.1229C79.4119 76.2221 78.0725 76.7715 76.4887 76.7715C74.905 76.7715 73.5656 76.2221 72.4711 75.1229C71.3773 74.0237 70.8301 72.6917 70.8301 71.1262C70.8301 69.5498 71.3773 68.2178 72.4711 67.1289C73.5656 66.0297 74.905 65.4803 76.4887 65.4803C78.0725 65.4803 79.4119 66.0297 80.5063 67.1289C81.6105 68.2178 82.1632 69.5498 82.1632 71.1262C82.1632 72.6917 81.6105 74.0237 80.5063 75.1229ZM73.4717 74.1432C74.2846 74.952 75.2901 75.3564 76.4887 75.3564C77.6874 75.3564 78.6874 74.952 79.4899 74.1432C80.3028 73.324 80.7093 72.3182 80.7093 71.1262C80.7093 69.9233 80.3028 68.9175 79.4899 68.1087C78.6874 67.2895 77.6874 66.8803 76.4887 66.8803C75.2901 66.8803 74.2846 67.2895 73.4717 68.1087C72.6692 68.9175 72.2682 69.9233 72.2682 71.1262C72.2682 72.3182 72.6692 73.324 73.4717 74.1432Z" fill="white"/>
<path d="M99.1515 65.6823H100.605V76.5696H99.433L93.8054 68.4355V76.5696H92.3521V65.6823H93.5245L99.1515 73.8012V65.6823Z" fill="white"/>
<path d="M115.654 65.6823C117.144 65.6823 118.38 66.2115 119.359 67.2689C120.349 68.316 120.844 69.602 120.844 71.1262C120.844 72.6504 120.349 73.9413 119.359 74.9986C118.38 76.0457 117.144 76.5696 115.654 76.5696H111.387V65.6823H115.654ZM115.654 75.2005C116.77 75.2005 117.681 74.8119 118.39 74.0346C119.099 73.2567 119.453 72.2873 119.453 71.1262C119.453 69.9645 119.099 68.9951 118.39 68.2178C117.681 67.4399 116.77 67.0513 115.654 67.0513H112.841V75.2005H115.654Z" fill="white"/>
<path d="M134.184 76.7715C133.162 76.7715 132.287 76.5332 131.558 76.056C130.839 75.5795 130.333 74.9259 130.041 74.0965L131.292 73.381C131.719 74.6979 132.694 75.3564 134.215 75.3564C134.966 75.3564 135.538 75.206 135.935 74.9053C136.331 74.5942 136.529 74.185 136.529 73.6769C136.529 73.1579 136.331 72.7693 135.935 72.5104C135.538 72.2509 134.877 71.9762 133.949 71.6858C133.491 71.5409 133.142 71.4269 132.902 71.3439C132.662 71.2505 132.361 71.1159 131.996 70.9395C131.641 70.7527 131.375 70.566 131.198 70.3792C131.021 70.1822 130.86 69.9282 130.714 69.6171C130.578 69.3061 130.51 68.9538 130.51 68.5597C130.51 67.6163 130.844 66.87 131.511 66.3201C132.178 65.7605 132.991 65.4803 133.949 65.4803C134.814 65.4803 135.565 65.698 136.2 66.1333C136.847 66.5693 137.331 67.1446 137.654 67.8601L136.435 68.5597C135.966 67.4399 135.137 66.8803 133.949 66.8803C133.356 66.8803 132.876 67.0252 132.511 67.3156C132.147 67.606 131.964 68.0001 131.964 68.4973C131.964 68.9744 132.136 69.3376 132.48 69.5862C132.824 69.8354 133.418 70.0943 134.262 70.3641C134.564 70.4575 134.778 70.5248 134.903 70.566C135.028 70.6078 135.221 70.68 135.481 70.7836C135.752 70.8873 135.95 70.9704 136.075 71.0328C136.2 71.0947 136.367 71.1832 136.576 71.2972C136.794 71.4112 136.956 71.5197 137.06 71.624C137.164 71.7277 137.284 71.8568 137.42 72.0126C137.566 72.1575 137.67 72.3079 137.732 72.4637C137.795 72.6189 137.847 72.8008 137.889 73.0082C137.941 73.2046 137.967 73.4174 137.967 73.6454C137.967 74.5997 137.618 75.3618 136.919 75.9317C136.222 76.492 135.309 76.7715 134.184 76.7715Z" fill="white"/>
<path d="M169.295 76.1185L168.075 76.8181L166.966 75.6365C166.153 76.3931 165.11 76.7715 163.839 76.7715C162.745 76.7715 161.859 76.492 161.182 75.9317C160.505 75.3618 160.166 74.5942 160.166 73.6302C160.166 72.9663 160.333 72.36 160.666 71.8101C161.01 71.2505 161.51 70.8097 162.166 70.4884C161.698 69.8972 161.463 69.2388 161.463 68.5131C161.463 67.6109 161.776 66.8803 162.401 66.3201C163.037 65.7605 163.798 65.4803 164.683 65.4803C165.412 65.4803 166.074 65.6774 166.668 66.0715C167.263 66.4656 167.69 67.0094 167.951 67.7043L166.731 68.4045C166.575 67.9274 166.314 67.5539 165.949 67.2847C165.595 67.0149 165.183 66.8803 164.715 66.8803C164.214 66.8803 163.787 67.0307 163.433 67.3314C163.089 67.6321 162.917 68.0207 162.917 68.4973C162.917 68.8398 162.995 69.1509 163.151 69.431C163.318 69.7002 163.563 70.0064 163.886 70.3483L166.872 73.5211C167.132 72.9821 167.32 72.3236 167.434 71.5458L168.685 72.2612C168.539 73.1221 168.258 73.8946 167.841 74.5785L169.295 76.1185ZM163.87 75.403C164.735 75.403 165.455 75.149 166.027 74.6409L163.073 71.4839C162.573 71.6913 162.203 71.9817 161.963 72.3546C161.734 72.728 161.62 73.1221 161.62 73.5369C161.62 74.1171 161.817 74.5736 162.213 74.9053C162.609 75.2369 163.162 75.403 163.87 75.403Z" fill="white"/>
<path d="M193.979 76.5696L190.837 65.6823H192.369L194.87 74.6409L197.527 65.6823H198.996L201.654 74.6409L204.155 65.6823H205.687L202.545 76.5696H200.857L198.261 67.8752L195.667 76.5696H193.979Z" fill="white"/>
<path d="M222.271 76.5696L221.381 74.1274H216.456L215.565 76.5696H214.018L218.098 65.6823H219.739L223.819 76.5696H222.271ZM216.956 72.7747H220.88L218.911 67.409L216.956 72.7747Z" fill="white"/>
<path d="M239.76 65.6823V67.0513H236.524V76.5696H235.086V67.0513H231.866V65.6823H239.76Z" fill="white"/>
<path d="M254.157 76.7715C252.499 76.7715 251.13 76.227 250.046 75.1387C248.972 74.0498 248.436 72.7123 248.436 71.1262C248.436 69.5395 248.972 68.202 250.046 67.1131C251.13 66.0248 252.499 65.4803 254.157 65.4803C255.157 65.4803 256.074 65.7186 256.908 66.1958C257.752 66.6729 258.409 67.3156 258.877 68.1244L257.612 68.855C257.299 68.2542 256.83 67.777 256.204 67.4241C255.59 67.0616 254.907 66.8803 254.157 66.8803C252.896 66.8803 251.864 67.2847 251.061 68.0935C250.27 68.9017 249.874 69.913 249.874 71.1262C249.874 72.3285 250.27 73.3343 251.061 74.1432C251.864 74.952 252.896 75.3564 254.157 75.3564C254.907 75.3564 255.59 75.1799 256.204 74.8277C256.83 74.4645 257.299 73.9879 257.612 73.3968L258.877 74.1122C258.419 74.921 257.768 75.5692 256.924 76.056C256.08 76.5332 255.157 76.7715 254.157 76.7715Z" fill="white"/>
<path d="M275.734 65.6823H277.172V76.5696H275.734V71.6701H270.419V76.5696H268.965V65.6823H270.419V70.3016H275.734V65.6823Z" fill="white"/>
<path d="M289.408 75.2005H294.488V76.5696H287.954V65.6823H294.41V67.0513H289.408V70.395H294.019V71.7483H289.408V75.2005Z" fill="white"/>
<path d="M308.217 76.7715C307.196 76.7715 306.321 76.5332 305.591 76.056C304.872 75.5795 304.366 74.9259 304.075 74.0965L305.326 73.381C305.753 74.6979 306.727 75.3564 308.249 75.3564C308.999 75.3564 309.572 75.206 309.968 74.9053C310.364 74.5942 310.562 74.185 310.562 73.6769C310.562 73.1579 310.364 72.7693 309.968 72.5104C309.572 72.2509 308.91 71.9762 307.983 71.6858C307.524 71.5409 307.175 71.4269 306.936 71.3439C306.696 71.2505 306.394 71.1159 306.029 70.9395C305.675 70.7527 305.409 70.566 305.232 70.3792C305.054 70.1822 304.893 69.9282 304.747 69.6171C304.611 69.3061 304.544 68.9538 304.544 68.5597C304.544 67.6163 304.877 66.87 305.544 66.3201C306.211 65.7605 307.024 65.4803 307.983 65.4803C308.848 65.4803 309.598 65.698 310.234 66.1333C310.88 66.5693 311.365 67.1446 311.688 67.8601L310.468 68.5597C310 67.4399 309.171 66.8803 307.983 66.8803C307.389 66.8803 306.909 67.0252 306.544 67.3156C306.18 67.606 305.998 68.0001 305.998 68.4973C305.998 68.9744 306.17 69.3376 306.513 69.5862C306.858 69.8354 307.451 70.0943 308.296 70.3641C308.597 70.4575 308.811 70.5248 308.936 70.566C309.061 70.6078 309.254 70.68 309.514 70.7836C309.786 70.8873 309.984 70.9704 310.109 71.0328C310.234 71.0947 310.401 71.1832 310.609 71.2972C310.828 71.4112 310.989 71.5197 311.093 71.624C311.198 71.7277 311.318 71.8568 311.453 72.0126C311.599 72.1575 311.703 72.3079 311.766 72.4637C311.828 72.6189 311.88 72.8008 311.922 73.0082C311.974 73.2046 312 73.4174 312 73.6454C312 74.5997 311.651 75.3618 310.953 75.9317C310.255 76.492 309.343 76.7715 308.217 76.7715Z" fill="white"/>
<path d="M6.93981 48.8698V3.28397H0V1.51135H22.8399V3.28397H15.9001V47.0971H22.8399V48.8698H6.93981Z" fill="white"/>
<path d="M76.5705 37.3476C76.2268 38.351 75.8368 39.337 75.3986 40.3021C74.9721 41.3272 74.4632 42.3154 73.8764 43.2564C73.3743 44.0848 72.7747 44.8487 72.0903 45.5313C70.6504 46.9768 68.8808 48.0423 66.9362 48.6333C64.9801 49.2253 62.946 49.5142 60.9042 49.4901C57.8461 49.5303 54.8265 48.7992 52.1195 47.363C49.4829 45.9401 47.1379 44.0252 45.209 41.7201C43.2689 39.3767 41.7345 36.7199 40.6703 33.8615C39.5944 31.0322 39.0387 28.0288 39.0305 24.9985C39.0072 21.7589 39.5422 18.54 40.6117 15.4854C41.7333 12.4772 43.424 9.71785 45.5896 7.36092C47.5858 5.10392 50.0039 3.26665 52.7052 1.95445C55.4494 0.645173 58.4546 -0.0117774 61.4896 0.034109C63.478 0.0189666 65.4561 0.32824 67.3463 0.94996C69.186 1.6059 70.885 2.60846 72.3536 3.90432L75.2816 0.94996H76.863V14.4809H74.7844C74.6253 13.5305 74.4005 12.5926 74.1104 11.6743C73.7454 10.7242 73.3255 9.79691 72.8508 8.89716C72.4389 8.00475 71.9282 7.16236 71.3286 6.38599C70.7211 5.62988 70.0111 4.96357 69.2202 4.40656C68.0179 3.6298 66.7309 2.99535 65.3842 2.51577C64.0429 2.06776 62.6395 1.83838 61.2264 1.83627C59.1786 1.75959 57.1505 2.26094 55.3699 3.28391C53.8722 4.22713 52.6257 5.52531 51.7389 7.06553C50.7746 8.70527 50.1102 10.5065 49.777 12.3833C49.4642 14.3371 49.3075 16.313 49.3085 18.2921C49.3085 19.8874 49.3085 21.8373 49.1328 24.2008C49.0155 26.5135 49.0155 28.8308 49.1328 31.1435C49.2316 33.4378 49.5155 35.7203 49.982 37.9681C50.34 39.9824 51.1404 41.8903 52.3246 43.5518C53.271 44.872 54.5157 45.9455 55.9555 46.6834C57.3491 47.3891 58.8774 47.7822 60.4357 47.8356C63.6615 47.9932 66.84 47.0112 69.4255 45.0585C71.0794 43.8011 72.381 42.1315 73.2024 40.2134C74.0294 38.3515 74.7052 36.4248 75.2231 34.4524H77.3017C77.1439 35.454 76.9087 36.4418 76.5997 37.4067" fill="white"/>
<path d="M193.265 41.1C192.465 42.7421 191.291 44.1696 189.839 45.2656C188.025 46.533 185.971 47.4081 183.807 47.8359C181.634 48.2542 179.429 48.4717 177.218 48.4858H159.268V2.98869H152.27V1.0979H175.696C177.853 1.10684 180.007 1.28463 182.137 1.62968C184.304 1.95027 186.383 2.70357 188.257 3.84545C189.624 4.68815 190.745 5.88072 191.508 7.30205C192.249 8.64312 192.67 10.1403 192.737 11.6745C192.774 13.1961 192.484 14.7077 191.888 16.1061C191.229 17.5862 190.224 18.8835 188.96 19.8877C187.586 21.1274 185.97 22.0634 184.216 22.6352C182.456 23.2008 180.655 23.6257 178.829 23.9055C180.582 24.085 182.317 24.4211 184.012 24.91C185.768 25.3892 187.445 26.1258 188.989 27.0963C190.48 28.0013 191.758 29.2208 192.737 30.6711C193.754 32.1964 194.277 34.0032 194.231 35.8412C194.293 37.6442 193.963 39.4393 193.265 41.1ZM182.84 8.60201C182.633 7.37523 182.13 6.21865 181.376 5.23401C180.658 4.36229 179.7 3.72487 178.624 3.4023C177.462 3.04487 176.264 2.82671 175.051 2.75235C173.792 2.75235 172.562 2.75235 171.332 2.75235C170.102 2.75235 169.049 2.75235 168.199 2.75235V23.1079C170.542 23.1079 172.65 23.1079 174.465 23.1079C176.08 23.1023 177.674 22.7602 179.151 22.1034C180.462 21.4394 181.498 20.3306 182.079 18.9718C182.861 16.8998 183.21 14.6869 183.104 12.4722C183.1 11.2035 182.983 9.93787 182.752 8.69065L182.84 8.60201ZM179.034 25.56C177.87 25.1521 176.66 24.894 175.432 24.7919C174.175 24.6884 172.911 24.6884 171.655 24.7919C170.366 24.7919 169.224 24.7919 168.199 24.7919V46.7132H177.482C178.702 46.7369 179.897 46.3526 180.878 45.6201C181.828 44.8207 182.58 43.8092 183.075 42.6657C183.618 41.4018 183.992 40.0705 184.187 38.7069C184.348 37.2835 184.348 35.8464 184.187 34.4231C184.056 33.0702 183.792 31.7341 183.397 30.4347C183.067 29.3547 182.529 28.3507 181.815 27.4803C181.028 26.5731 180.018 25.8906 178.888 25.5009" fill="white"/>
<path d="M254.225 15.4264C253.147 12.5913 251.582 9.97077 249.599 7.68593C247.754 5.50723 245.531 3.68527 243.04 2.30899C240.543 0.936017 237.77 0.153447 234.929 0.0203796C232.088 -0.112688 229.255 0.407225 226.642 1.54085C223.595 2.87639 220.89 4.8975 218.736 7.4496C214.441 12.1636 212.105 18.3604 212.206 24.7622C212.105 31.1638 214.441 37.3607 218.736 42.0747C220.89 44.6267 223.595 46.6479 226.642 47.9834C229.282 49.0907 232.132 49.5951 234.987 49.4605C237.796 49.3485 240.546 48.6122 243.04 47.3039C245.584 45.9426 247.857 44.1198 249.746 41.9269C251.721 39.6481 253.287 37.0385 254.372 34.2161C255.532 31.2228 256.118 28.0349 256.1 24.8212C256.118 21.6172 255.532 18.4389 254.372 15.4559L254.225 15.4264ZM245.587 33.1821C245.576 35.0932 245.409 37.0001 245.089 38.884C244.775 40.7571 243.989 42.5171 242.805 43.995C241.819 45.3521 240.452 46.3809 238.882 46.9494C237.316 47.4843 235.674 47.7538 234.021 47.7471C232.083 47.8166 230.156 47.4218 228.399 46.5949C226.971 45.862 225.751 44.774 224.856 43.4336C223.944 42.0467 223.317 40.4898 223.011 38.8544C222.65 37.0057 222.474 35.1253 222.484 33.2411V16.3422C222.489 14.449 222.666 12.5602 223.011 10.6994C223.337 8.81189 224.122 7.03543 225.296 5.52924C226.268 4.18266 227.613 3.1551 229.16 2.57488C230.718 2.05734 232.352 1.80767 233.992 1.83629C235.924 1.76559 237.843 2.17122 239.585 3.01804C240.985 3.74416 242.175 4.82289 243.04 6.14963C243.961 7.5346 244.599 9.09164 244.914 10.7289C245.299 12.5744 245.485 14.4564 245.47 16.3422L245.587 33.1821Z" fill="white"/>
<path d="M289.073 48.4858V46.7132H296.276L285.236 28.8098L271.826 48.5449H269.366L283.978 26.9781L269.454 2.87052H264.095V1.0979H279.498V2.87052L289.307 19.1491L300.405 2.87052H300.493V1.0979H309.424V2.87052H302.806L290.449 21.0103L306.73 46.7132H312.001V48.4858H289.073Z" fill="white"/>
<path d="M128.607 42.843C127.465 44.3179 125.916 45.418 124.156 46.0042C122.185 46.6124 120.124 46.8722 118.065 46.7723H110.247V25.0282C112.385 25.0282 114.522 25.0282 116.63 24.8805C118.314 24.749 120.007 24.9089 121.637 25.3532C123.242 25.7555 124.667 26.6923 125.678 28.0121C126.657 29.5007 127.177 31.2483 127.172 33.0345H129.251V17.3764H127.231C127.231 17.6128 127.231 17.8491 127.231 18.0264C127.17 18.3374 127.062 18.6366 126.908 18.9127L126.352 19.7104C126.089 20.0206 125.844 20.3461 125.62 20.6853C124.827 21.7234 123.696 22.4454 122.428 22.7238C121.167 23.1394 119.858 23.3878 118.533 23.4624C116.983 23.5514 115.428 23.5514 113.878 23.4624C112.355 23.4624 111.154 23.2851 110.305 23.2851V2.98869C113.233 2.98869 115.839 2.98869 118.123 2.98869C120.182 2.90364 122.24 3.16319 124.214 3.75683C125.975 4.343 127.524 5.44314 128.665 6.91802C130.016 8.87375 130.963 11.0844 131.447 13.4176H133.585L133.087 1.0979H94.3757V2.98869H101.315V46.7132H94.3757V48.4858H133.087L133.526 36.9343H131.212C130.739 39.0581 129.854 41.0664 128.607 42.843Z" fill="white"/>
</g>
<defs>
<clipPath id="clip0_58_1810">
<rect width="312" height="77" fill="white"/>
</clipPath>
</defs>
</svg>
