<svg width="512" height="148" viewBox="0 0 512 148" fill="none" xmlns="http://www.w3.org/2000/svg">
<path d="M11.3884 80.6037V5.41682H0V2.49316H37.4809V5.41682H26.0925V77.68H37.4809V80.6037H11.3884Z" fill="#0779CB"/>
<path d="M125.654 61.5995C125.09 63.2544 124.45 64.8806 123.731 66.4724C123.031 68.1632 122.196 69.7931 121.233 71.3452C120.409 72.7115 119.425 73.9714 118.302 75.0972C115.939 77.4814 113.035 79.2387 109.844 80.2135C106.634 81.19 103.296 81.6664 99.9452 81.6267C94.9268 81.693 89.9716 80.4871 85.5294 78.1183C81.2027 75.7715 77.3545 72.6132 74.1891 68.8113C71.0053 64.9462 68.4873 60.5642 66.741 55.8497C64.9754 51.1832 64.0635 46.2295 64.05 41.2314C64.0117 35.8883 64.8897 30.5791 66.6448 25.5411C68.4853 20.5795 71.2598 16.0283 74.8137 12.1409C78.0895 8.41834 82.0576 5.38803 86.4905 3.22375C90.9938 1.0643 95.9254 -0.0192397 100.906 0.0564431C104.169 0.0314681 107.415 0.541569 110.517 1.567C113.536 2.64888 116.324 4.30245 118.734 6.43977L123.539 1.567H126.134V23.8843H122.723C122.462 22.3167 122.093 20.7698 121.617 19.2551C121.018 17.6882 120.329 16.1587 119.55 14.6747C118.874 13.2028 118.036 11.8134 117.052 10.5329C116.055 9.28583 114.89 8.18685 113.592 7.26815C111.619 5.98699 109.507 4.94057 107.297 4.14957C105.096 3.41064 102.793 3.03232 100.474 3.02884C97.1136 2.90237 93.7853 3.72926 90.8633 5.4165C88.4056 6.9722 86.3601 9.11336 84.9048 11.6537C83.3224 14.3582 82.232 17.3291 81.6853 20.4246C81.1719 23.647 80.9148 26.906 80.9164 30.1702C80.9164 32.8015 80.9164 36.0175 80.6281 39.9157C80.4357 43.7303 80.4357 47.5522 80.6281 51.3668C80.7902 55.1509 81.2562 58.9155 82.0216 62.6229C82.6091 65.9452 83.9226 69.092 85.8659 71.8324C87.419 74.0098 89.4616 75.7804 91.8243 76.9975C94.1112 78.1614 96.6192 78.8098 99.1764 78.8979C104.47 79.1578 109.686 77.5381 113.929 74.3175C116.643 72.2436 118.779 69.4898 120.127 66.3261C121.484 63.2553 122.593 60.0775 123.443 56.8243H126.854C126.595 58.4763 126.209 60.1054 125.702 61.697" fill="#0779CB"/>
<path d="M317.152 67.788C315.84 70.4964 313.913 72.8509 311.53 74.6586C308.554 76.749 305.184 78.1924 301.632 78.898C298.066 79.5878 294.448 79.9466 290.819 79.9699H261.363V4.92913H249.879V1.81055H288.321C291.862 1.8253 295.396 2.11854 298.892 2.68764C302.447 3.21641 305.86 4.45886 308.935 6.34223C311.178 7.73213 313.018 9.69909 314.269 12.0434C315.486 14.2553 316.177 16.7247 316.287 19.2551C316.347 21.7648 315.871 24.258 314.893 26.5643C313.811 29.0055 312.162 31.1452 310.088 32.8015C307.834 34.8463 305.182 36.3901 302.303 37.3331C299.415 38.2661 296.459 38.9668 293.463 39.4284C296.34 39.7244 299.187 40.2787 301.968 41.0851C304.85 41.8754 307.602 43.0903 310.136 44.691C312.582 46.1838 314.68 48.1951 316.287 50.5871C317.956 53.103 318.813 56.083 318.738 59.1144C318.84 62.0883 318.299 65.049 317.152 67.788ZM300.045 14.1875C299.706 12.1641 298.88 10.2565 297.643 8.63244C296.465 7.19468 294.893 6.14335 293.126 5.61131C291.22 5.02178 289.253 4.66196 287.263 4.53931C285.197 4.53931 283.179 4.53931 281.161 4.53931C279.142 4.53931 277.413 4.53931 276.019 4.53931V38.1128C279.863 38.1128 283.323 38.1128 286.302 38.1128C288.951 38.1035 291.568 37.5394 293.991 36.456C296.142 35.3608 297.843 33.532 298.796 31.2909C300.08 27.8734 300.652 24.2236 300.478 20.5708C300.472 18.4783 300.279 16.3908 299.901 14.3337L300.045 14.1875ZM293.799 42.1572C291.889 41.4844 289.903 41.0587 287.888 40.8903C285.825 40.7196 283.752 40.7196 281.69 40.8903C279.575 40.8903 277.701 40.8903 276.019 40.8903V77.0462H291.252C293.255 77.0853 295.215 76.4514 296.826 75.2433C298.384 73.9248 299.618 72.2565 300.43 70.3705C301.322 68.2859 301.936 66.0901 302.255 63.841C302.52 61.4934 302.52 59.1231 302.255 56.7755C302.041 54.5442 301.608 52.3404 300.959 50.1973C300.417 48.4159 299.535 46.76 298.363 45.3245C297.072 43.8282 295.414 42.7024 293.559 42.0597" fill="#0779CB"/>
<path d="M417.19 25.4435C415.421 20.7674 412.852 16.4453 409.598 12.6768C406.57 9.08335 402.923 6.0783 398.835 3.80833C394.738 1.54382 390.186 0.253088 385.524 0.0336131C380.863 -0.185862 376.213 0.671657 371.926 2.54141C366.925 4.74418 362.487 8.0777 358.951 12.287C351.904 20.0621 348.07 30.2828 348.236 40.8415C348.07 51.4001 351.904 61.6209 358.951 69.3959C362.487 73.6051 366.925 76.9387 371.926 79.1414C376.258 80.9677 380.935 81.7997 385.62 81.5778C390.23 81.393 394.742 80.1785 398.835 78.0207C403.009 75.7755 406.739 72.7691 409.839 69.1522C413.081 65.3936 415.65 61.0895 417.431 56.4343C419.335 51.4974 420.296 46.2394 420.267 40.9389C420.296 35.6543 419.334 30.4122 417.431 25.4922L417.19 25.4435ZM403.015 54.7289C402.996 57.881 402.722 61.0261 402.198 64.1333C401.682 67.2227 400.392 70.1256 398.45 72.5632C396.831 74.8016 394.588 76.4984 392.012 77.436C389.442 78.3182 386.747 78.7628 384.035 78.7517C380.854 78.8664 377.692 78.2151 374.808 76.8513C372.465 75.6425 370.464 73.8481 368.995 71.6373C367.498 69.3498 366.469 66.7818 365.966 64.0846C365.375 61.0354 365.086 57.9339 365.102 54.8263V26.9541C365.111 23.8315 365.4 20.7162 365.966 17.647C366.501 14.5339 367.79 11.6039 369.716 9.11965C371.311 6.89868 373.518 5.20386 376.058 4.24688C378.615 3.39328 381.295 2.98148 383.987 3.02869C387.157 2.91207 390.307 3.5811 393.165 4.9778C395.462 6.17543 397.415 7.95464 398.835 10.1429C400.347 12.4272 401.393 14.9953 401.91 17.6958C402.542 20.7396 402.848 23.8436 402.823 26.9541L403.015 54.7289Z" fill="#0779CB"/>
<path d="M474.376 79.9699V77.0462H486.197L468.08 47.5173L446.073 80.0674H442.036L466.015 44.4961L442.181 4.73422H433.387V1.81055H458.663V4.73422L474.76 31.5833L492.972 4.73422H493.116V1.81055H507.772V4.73422H496.912L476.634 34.6531L503.351 77.0462H512.001V79.9699H474.376Z" fill="#0779CB"/>
<path d="M211.047 70.6629C209.174 73.0955 206.632 74.9099 203.743 75.8768C200.508 76.8799 197.127 77.3084 193.747 77.1437H180.918V41.2801C184.426 41.2801 187.934 41.2801 191.393 41.0364C194.156 40.8196 196.935 41.0833 199.61 41.8161C202.244 42.4797 204.581 44.0248 206.241 46.2016C207.847 48.6567 208.7 51.5392 208.693 54.4853H212.104V28.6596H208.789C208.789 29.0494 208.789 29.4392 208.789 29.7316C208.69 30.2445 208.512 30.738 208.26 31.1934L207.347 32.5091C206.915 33.0207 206.514 33.5577 206.145 34.1171C204.845 35.8292 202.989 37.0201 200.908 37.4793C198.838 38.1648 196.69 38.5744 194.516 38.6975C191.972 38.8443 189.42 38.8443 186.876 38.6975C184.378 38.6975 182.407 38.4051 181.014 38.4051V4.92913C185.819 4.92913 190.095 4.92913 193.843 4.92913C197.222 4.78885 200.599 5.21694 203.839 6.19605C206.728 7.16285 209.27 8.97738 211.143 11.41C213.36 14.6357 214.913 18.2818 215.708 22.1301H219.216L218.399 1.81055H154.873V4.92913H166.261V77.0462H154.873V79.9699H218.399L219.12 60.9174H215.323C214.546 64.4203 213.093 67.7327 211.047 70.6629Z" fill="#0779CB"/>
<path d="M133.715 139.36C130.675 139.36 128.135 138.4 126.095 136.48C124.075 134.54 123.065 132.05 123.065 129.01C123.065 125.97 124.075 123.49 126.095 121.57C128.135 119.63 130.675 118.66 133.715 118.66C137.455 118.66 140.245 120.29 142.085 123.55L138.425 125.35C137.985 124.51 137.335 123.82 136.475 123.28C135.635 122.72 134.715 122.44 133.715 122.44C131.895 122.44 130.395 123.06 129.215 124.3C128.035 125.54 127.445 127.11 127.445 129.01C127.445 130.91 128.035 132.48 129.215 133.72C130.395 134.96 131.895 135.58 133.715 135.58C134.715 135.58 135.635 135.31 136.475 134.77C137.335 134.23 137.985 133.53 138.425 132.67L142.085 134.44C140.185 137.72 137.395 139.36 133.715 139.36ZM172.821 139H167.931L164.001 131.89H160.881V139H156.621V118.99H165.981C168.041 118.99 169.671 119.59 170.871 120.79C172.091 121.99 172.701 123.54 172.701 125.44C172.701 127.08 172.271 128.41 171.411 129.43C170.571 130.45 169.541 131.1 168.321 131.38L172.821 139ZM165.351 128.14C166.231 128.14 166.951 127.9 167.511 127.42C168.071 126.92 168.351 126.26 168.351 125.44C168.351 124.62 168.071 123.97 167.511 123.49C166.951 122.99 166.231 122.74 165.351 122.74H160.881V128.14H165.351ZM209.588 139H205.298V124.99L199.658 139H197.798L192.158 124.99V139H187.898V118.99H193.868L198.728 131.08L203.588 118.99H209.588V139ZM254.928 139.36C251.888 139.36 249.348 138.4 247.308 136.48C245.288 134.54 244.278 132.05 244.278 129.01C244.278 125.97 245.288 123.49 247.308 121.57C249.348 119.63 251.888 118.66 254.928 118.66C258.668 118.66 261.458 120.29 263.298 123.55L259.638 125.35C259.198 124.51 258.548 123.82 257.688 123.28C256.848 122.72 255.928 122.44 254.928 122.44C253.108 122.44 251.608 123.06 250.428 124.3C249.248 125.54 248.658 127.11 248.658 129.01C248.658 130.91 249.248 132.48 250.428 133.72C251.608 134.96 253.108 135.58 254.928 135.58C255.928 135.58 256.848 135.31 257.688 134.77C258.548 134.23 259.198 133.53 259.638 132.67L263.298 134.44C261.398 137.72 258.608 139.36 254.928 139.36ZM296.288 139H291.428L290.198 135.61H281.618L280.358 139H275.498L283.238 118.99H288.578L296.288 139ZM289.028 131.86L285.908 123.25L282.788 131.86H289.028ZM326.336 139H321.446L317.516 131.89H314.396V139H310.136V118.99H319.496C321.556 118.99 323.186 119.59 324.386 120.79C325.606 121.99 326.216 123.54 326.216 125.44C326.216 127.08 325.786 128.41 324.926 129.43C324.086 130.45 323.056 131.1 321.836 131.38L326.336 139ZM318.866 128.14C319.746 128.14 320.466 127.9 321.026 127.42C321.586 126.92 321.866 126.26 321.866 125.44C321.866 124.62 321.586 123.97 321.026 123.49C320.466 122.99 319.746 122.74 318.866 122.74H314.396V128.14H318.866ZM349.304 139H341.414V118.99H349.304C352.444 118.99 354.994 119.91 356.954 121.75C358.934 123.59 359.924 126.01 359.924 129.01C359.924 132.01 358.944 134.43 356.984 136.27C355.024 138.09 352.464 139 349.304 139ZM349.304 135.25C351.224 135.25 352.744 134.65 353.864 133.45C355.004 132.25 355.574 130.77 355.574 129.01C355.574 127.17 355.024 125.67 353.924 124.51C352.824 123.33 351.284 122.74 349.304 122.74H345.674V135.25H349.304ZM382.057 139.36C378.497 139.36 375.677 138.3 373.597 136.18L375.907 132.94C377.627 134.74 379.747 135.64 382.267 135.64C383.367 135.64 384.217 135.43 384.817 135.01C385.437 134.57 385.747 134.04 385.747 133.42C385.747 132.88 385.457 132.43 384.877 132.07C384.317 131.71 383.607 131.45 382.747 131.29C381.907 131.13 380.987 130.9 379.987 130.6C378.987 130.3 378.057 129.96 377.197 129.58C376.357 129.2 375.647 128.6 375.067 127.78C374.507 126.96 374.227 125.96 374.227 124.78C374.227 123.06 374.917 121.62 376.297 120.46C377.677 119.28 379.517 118.69 381.817 118.69C384.997 118.69 387.597 119.62 389.617 121.48L387.247 124.6C385.667 123.14 383.727 122.41 381.427 122.41C380.527 122.41 379.827 122.59 379.327 122.95C378.827 123.31 378.577 123.8 378.577 124.42C378.577 124.9 378.857 125.31 379.417 125.65C379.997 125.97 380.707 126.21 381.547 126.37C382.407 126.53 383.327 126.77 384.307 127.09C385.307 127.39 386.227 127.74 387.067 128.14C387.927 128.52 388.637 129.13 389.197 129.97C389.777 130.79 390.067 131.78 390.067 132.94C390.067 134.86 389.377 136.41 387.997 137.59C386.637 138.77 384.657 139.36 382.057 139.36Z" fill="#0779CB"/>
</svg>
