<svg width="512" height="512" viewBox="0 0 512 512" fill="none" xmlns="http://www.w3.org/2000/svg">
<mask id="mask0_238_8" style="mask-type:alpha" maskUnits="userSpaceOnUse" x="0" y="0" width="512" height="512">
<rect width="512" height="512" fill="#E9F6FF"/>
</mask>
<g mask="url(#mask0_238_8)">
<rect width="512" height="512" fill="#EAF1FF"/>
<path fill-rule="evenodd" clip-rule="evenodd" d="M326.461 326.917C364.045 303.406 389.043 261.644 389.043 214.043C389.043 140.565 329.478 81 256 81C182.522 81 122.957 140.565 122.957 214.043C122.957 261.644 147.955 303.406 185.539 326.917C85.2697 360.432 12.2424 463.623 12.2424 585.727C12.2424 734.995 121.376 856 256 856C390.624 856 499.757 734.995 499.757 585.727C499.757 463.623 426.73 360.431 326.461 326.917Z" fill="#21508F"/>
</g>
</svg>
